%TF.GenerationSoftware,KiCad,Pcbnew,(5.1.4)-1*%
%TF.CreationDate,2019-12-13T12:22:18-06:00*%
%TF.ProjectId,payload_board,7061796c-6f61-4645-9f62-6f6172642e6b,rev?*%
%TF.SameCoordinates,Original*%
%TF.FileFunction,Profile,NP*%
%FSLAX46Y46*%
G04 Gerber Fmt 4.6, Leading zero omitted, Abs format (unit mm)*
G04 Created by KiCad (PCBNEW (5.1.4)-1) date 2019-12-13 12:22:18*
%MOMM*%
%LPD*%
G04 APERTURE LIST*
%ADD10C,0.150000*%
%ADD11C,0.050000*%
G04 APERTURE END LIST*
D10*
X50000000Y-50000000D02*
X50000000Y-157000000D01*
X50000000Y-157000000D02*
X125000000Y-157000000D01*
X125000000Y-50000000D02*
X125000000Y-157000000D01*
X50000000Y-50000000D02*
X125000000Y-50000000D01*
D11*
X107893614Y-138602290D02*
X107322185Y-138602290D01*
X107607900Y-138602290D02*
X107607900Y-137602290D01*
X107512661Y-137745148D01*
X107417423Y-137840386D01*
X107322185Y-137888005D01*
X107230685Y-130378969D02*
X107278304Y-130331350D01*
X107373542Y-130283730D01*
X107611638Y-130283730D01*
X107706876Y-130331350D01*
X107754495Y-130378969D01*
X107802114Y-130474207D01*
X107802114Y-130569445D01*
X107754495Y-130712302D01*
X107183066Y-131283730D01*
X107802114Y-131283730D01*
X68167814Y-57602470D02*
X67596385Y-57602470D01*
X67882100Y-57602470D02*
X67882100Y-56602470D01*
X67786861Y-56745328D01*
X67691623Y-56840566D01*
X67596385Y-56888185D01*
X67687885Y-64016269D02*
X67735504Y-63968650D01*
X67830742Y-63921030D01*
X68068838Y-63921030D01*
X68164076Y-63968650D01*
X68211695Y-64016269D01*
X68259314Y-64111507D01*
X68259314Y-64206745D01*
X68211695Y-64349602D01*
X67640266Y-64921030D01*
X68259314Y-64921030D01*
X114422290Y-80446385D02*
X114422290Y-81017814D01*
X114422290Y-80732100D02*
X113422290Y-80732100D01*
X113565148Y-80827338D01*
X113660386Y-80922576D01*
X113708005Y-81017814D01*
X106198969Y-81109314D02*
X106151350Y-81061695D01*
X106103730Y-80966457D01*
X106103730Y-80728361D01*
X106151350Y-80633123D01*
X106198969Y-80585504D01*
X106294207Y-80537885D01*
X106389445Y-80537885D01*
X106532302Y-80585504D01*
X107103730Y-81156933D01*
X107103730Y-80537885D01*
X69772290Y-80446385D02*
X69772290Y-81017814D01*
X69772290Y-80732100D02*
X68772290Y-80732100D01*
X68915148Y-80827338D01*
X69010386Y-80922576D01*
X69058005Y-81017814D01*
X61548969Y-81109314D02*
X61501350Y-81061695D01*
X61453730Y-80966457D01*
X61453730Y-80728361D01*
X61501350Y-80633123D01*
X61548969Y-80585504D01*
X61644207Y-80537885D01*
X61739445Y-80537885D01*
X61882302Y-80585504D01*
X62453730Y-81156933D01*
X62453730Y-80537885D01*
M02*
