%TF.GenerationSoftware,KiCad,Pcbnew,(5.1.4)-1*%
%TF.CreationDate,2019-12-13T12:22:17-06:00*%
%TF.ProjectId,payload_board,7061796c-6f61-4645-9f62-6f6172642e6b,rev?*%
%TF.SameCoordinates,Original*%
%TF.FileFunction,Copper,L2,Bot*%
%TF.FilePolarity,Positive*%
%FSLAX46Y46*%
G04 Gerber Fmt 4.6, Leading zero omitted, Abs format (unit mm)*
G04 Created by KiCad (PCBNEW (5.1.4)-1) date 2019-12-13 12:22:17*
%MOMM*%
%LPD*%
G04 APERTURE LIST*
%ADD10C,1.500000*%
%ADD11C,1.000000*%
%ADD12C,2.000000*%
%ADD13O,1.700000X1.700000*%
%ADD14R,1.700000X1.700000*%
%ADD15C,7.400000*%
%ADD16C,4.400000*%
%ADD17C,0.355600*%
%ADD18C,0.177800*%
%ADD19C,0.254000*%
G04 APERTURE END LIST*
D10*
X120624600Y-152958800D03*
D11*
X119344600Y-151678800D03*
X119344600Y-154238800D03*
X121904600Y-154238800D03*
X121904600Y-151678800D03*
D10*
X113614200Y-152984200D03*
D11*
X112334200Y-151704200D03*
X112334200Y-154264200D03*
X114894200Y-154264200D03*
X114894200Y-151704200D03*
D12*
X105029000Y-154152600D03*
X108331000Y-154152600D03*
X56997600Y-154457400D03*
X53695600Y-154482800D03*
X60706000Y-154457400D03*
X64744600Y-154457400D03*
X68351400Y-154533600D03*
D13*
X99161600Y-154178000D03*
X96621600Y-154178000D03*
X94081600Y-154178000D03*
X91541600Y-154178000D03*
X89001600Y-154178000D03*
X86461600Y-154178000D03*
X83921600Y-154178000D03*
X81381600Y-154178000D03*
X78841600Y-154178000D03*
D14*
X76301600Y-154178000D03*
D15*
X115120000Y-53960000D03*
X115120000Y-146160000D03*
X60970000Y-146160000D03*
X60970000Y-53960000D03*
D16*
X120870000Y-146480000D03*
X54130000Y-146480000D03*
X120870000Y-100560000D03*
X54130000Y-100560000D03*
X120870000Y-54630000D03*
X54130000Y-54630000D03*
D17*
X70535800Y-56464200D03*
X79324200Y-61137800D03*
X110464600Y-112217200D03*
X97358200Y-85572600D03*
X104190800Y-86410800D03*
X106324400Y-87020400D03*
X89687400Y-109423200D03*
X111709200Y-133197600D03*
X115290600Y-127152400D03*
X94640400Y-138912600D03*
X114477800Y-87350600D03*
X72771000Y-150622000D03*
X87706200Y-151104600D03*
X92938600Y-139014200D03*
X115671600Y-88138000D03*
X91186000Y-138430000D03*
X92684600Y-135305800D03*
X88646000Y-138303000D03*
X89966800Y-135489398D03*
X65808200Y-112195000D03*
X86588600Y-110769400D03*
D18*
X104190800Y-86410800D02*
X105714800Y-86410800D01*
X105714800Y-86410800D02*
X106324400Y-87020400D01*
X97358200Y-101752400D02*
X89865199Y-109245401D01*
X89865199Y-109245401D02*
X89687400Y-109423200D01*
X97358200Y-85572600D02*
X97358200Y-101752400D01*
X111709200Y-130733800D02*
X115112801Y-127330199D01*
X115112801Y-127330199D02*
X115290600Y-127152400D01*
X111709200Y-133197600D02*
X111709200Y-130733800D01*
X114477800Y-119964918D02*
X114477800Y-87350600D01*
X94640400Y-138912600D02*
X95530118Y-138912600D01*
X95530118Y-138912600D02*
X114477800Y-119964918D01*
X72771000Y-150622000D02*
X87223600Y-150622000D01*
X87223600Y-150622000D02*
X87706200Y-151104600D01*
X92938600Y-139014200D02*
X98577400Y-133375400D01*
X98577400Y-133375400D02*
X98577400Y-83540600D01*
X98577400Y-83540600D02*
X104800400Y-77317600D01*
X104800400Y-77317600D02*
X113284000Y-77317600D01*
X113284000Y-77317600D02*
X115671600Y-79705200D01*
X115671600Y-79705200D02*
X115671600Y-88138000D01*
X91186000Y-138430000D02*
X92684600Y-136931400D01*
X92684600Y-136931400D02*
X92684600Y-135305800D01*
X88646000Y-138303000D02*
X89966800Y-136982200D01*
X89966800Y-136982200D02*
X89966800Y-135489398D01*
X65808200Y-112195000D02*
X85163000Y-112195000D01*
X86410801Y-110947199D02*
X86588600Y-110769400D01*
X85163000Y-112195000D02*
X86410801Y-110947199D01*
D19*
G36*
X58397837Y-50825811D02*
G01*
X57835811Y-51387837D01*
X57394229Y-52048711D01*
X57090062Y-52783034D01*
X56935000Y-53562587D01*
X56935000Y-54357413D01*
X57090062Y-55136966D01*
X57394229Y-55871289D01*
X57835811Y-56532163D01*
X58397837Y-57094189D01*
X59058711Y-57535771D01*
X59793034Y-57839938D01*
X60572587Y-57995000D01*
X61367413Y-57995000D01*
X62146966Y-57839938D01*
X62881289Y-57535771D01*
X63542163Y-57094189D01*
X64104189Y-56532163D01*
X64404584Y-56082590D01*
X67045910Y-56082590D01*
X67045910Y-58302590D01*
X68718291Y-58302590D01*
X68718291Y-56082590D01*
X67045910Y-56082590D01*
X64404584Y-56082590D01*
X64545771Y-55871289D01*
X64849938Y-55136966D01*
X65005000Y-54357413D01*
X65005000Y-53562587D01*
X64849938Y-52783034D01*
X64545771Y-52048711D01*
X64104189Y-51387837D01*
X63542163Y-50825811D01*
X62919858Y-50410000D01*
X113170142Y-50410000D01*
X112547837Y-50825811D01*
X111985811Y-51387837D01*
X111544229Y-52048711D01*
X111240062Y-52783034D01*
X111085000Y-53562587D01*
X111085000Y-54357413D01*
X111240062Y-55136966D01*
X111544229Y-55871289D01*
X111985811Y-56532163D01*
X112547837Y-57094189D01*
X113208711Y-57535771D01*
X113943034Y-57839938D01*
X114722587Y-57995000D01*
X115517413Y-57995000D01*
X116296966Y-57839938D01*
X117031289Y-57535771D01*
X117692163Y-57094189D01*
X118254189Y-56532163D01*
X118673178Y-55905103D01*
X118900937Y-56245968D01*
X119254032Y-56599063D01*
X119669227Y-56876488D01*
X120130568Y-57067582D01*
X120620324Y-57165000D01*
X121119676Y-57165000D01*
X121609432Y-57067582D01*
X122070773Y-56876488D01*
X122485968Y-56599063D01*
X122839063Y-56245968D01*
X123116488Y-55830773D01*
X123307582Y-55369432D01*
X123405000Y-54879676D01*
X123405000Y-54380324D01*
X123307582Y-53890568D01*
X123116488Y-53429227D01*
X122839063Y-53014032D01*
X122485968Y-52660937D01*
X122070773Y-52383512D01*
X121609432Y-52192418D01*
X121119676Y-52095000D01*
X120620324Y-52095000D01*
X120130568Y-52192418D01*
X119669227Y-52383512D01*
X119254032Y-52660937D01*
X119021838Y-52893131D01*
X118999938Y-52783034D01*
X118695771Y-52048711D01*
X118254189Y-51387837D01*
X117692163Y-50825811D01*
X117069858Y-50410000D01*
X124590000Y-50410000D01*
X124590001Y-156590000D01*
X50410000Y-156590000D01*
X50410000Y-154351314D01*
X52360600Y-154351314D01*
X52360600Y-154614286D01*
X52411904Y-154872205D01*
X52512539Y-155115159D01*
X52658638Y-155333813D01*
X52844587Y-155519762D01*
X53063241Y-155665861D01*
X53306195Y-155766496D01*
X53564114Y-155817800D01*
X53827086Y-155817800D01*
X54085005Y-155766496D01*
X54327959Y-155665861D01*
X54546613Y-155519762D01*
X54732562Y-155333813D01*
X54878661Y-155115159D01*
X54979296Y-154872205D01*
X55030600Y-154614286D01*
X55030600Y-154351314D01*
X55025548Y-154325914D01*
X55662600Y-154325914D01*
X55662600Y-154588886D01*
X55713904Y-154846805D01*
X55814539Y-155089759D01*
X55960638Y-155308413D01*
X56146587Y-155494362D01*
X56365241Y-155640461D01*
X56608195Y-155741096D01*
X56866114Y-155792400D01*
X57129086Y-155792400D01*
X57387005Y-155741096D01*
X57629959Y-155640461D01*
X57848613Y-155494362D01*
X58034562Y-155308413D01*
X58180661Y-155089759D01*
X58281296Y-154846805D01*
X58332600Y-154588886D01*
X58332600Y-154325914D01*
X59371000Y-154325914D01*
X59371000Y-154588886D01*
X59422304Y-154846805D01*
X59522939Y-155089759D01*
X59669038Y-155308413D01*
X59854987Y-155494362D01*
X60073641Y-155640461D01*
X60316595Y-155741096D01*
X60574514Y-155792400D01*
X60837486Y-155792400D01*
X61095405Y-155741096D01*
X61338359Y-155640461D01*
X61557013Y-155494362D01*
X61742962Y-155308413D01*
X61889061Y-155089759D01*
X61989696Y-154846805D01*
X62041000Y-154588886D01*
X62041000Y-154325914D01*
X63409600Y-154325914D01*
X63409600Y-154588886D01*
X63460904Y-154846805D01*
X63561539Y-155089759D01*
X63707638Y-155308413D01*
X63893587Y-155494362D01*
X64112241Y-155640461D01*
X64355195Y-155741096D01*
X64613114Y-155792400D01*
X64876086Y-155792400D01*
X65134005Y-155741096D01*
X65376959Y-155640461D01*
X65595613Y-155494362D01*
X65781562Y-155308413D01*
X65927661Y-155089759D01*
X66028296Y-154846805D01*
X66079600Y-154588886D01*
X66079600Y-154402114D01*
X67016400Y-154402114D01*
X67016400Y-154665086D01*
X67067704Y-154923005D01*
X67168339Y-155165959D01*
X67314438Y-155384613D01*
X67500387Y-155570562D01*
X67719041Y-155716661D01*
X67961995Y-155817296D01*
X68219914Y-155868600D01*
X68482886Y-155868600D01*
X68740805Y-155817296D01*
X68983759Y-155716661D01*
X69202413Y-155570562D01*
X69388362Y-155384613D01*
X69534461Y-155165959D01*
X69635096Y-154923005D01*
X69686400Y-154665086D01*
X69686400Y-154402114D01*
X69635096Y-154144195D01*
X69534461Y-153901241D01*
X69388362Y-153682587D01*
X69202413Y-153496638D01*
X68983759Y-153350539D01*
X68929346Y-153328000D01*
X75114980Y-153328000D01*
X75114980Y-155028000D01*
X75121448Y-155093671D01*
X75140604Y-155156819D01*
X75171711Y-155215016D01*
X75213574Y-155266026D01*
X75264584Y-155307889D01*
X75322781Y-155338996D01*
X75385929Y-155358152D01*
X75451600Y-155364620D01*
X77151600Y-155364620D01*
X77217271Y-155358152D01*
X77280419Y-155338996D01*
X77338616Y-155307889D01*
X77389626Y-155266026D01*
X77431489Y-155215016D01*
X77462596Y-155156819D01*
X77481752Y-155093671D01*
X77488220Y-155028000D01*
X77488220Y-154178000D01*
X77650867Y-154178000D01*
X77673747Y-154410300D01*
X77741506Y-154633674D01*
X77851542Y-154839536D01*
X77999625Y-155019975D01*
X78180064Y-155168058D01*
X78385926Y-155278094D01*
X78609300Y-155345853D01*
X78783393Y-155363000D01*
X78899807Y-155363000D01*
X79073900Y-155345853D01*
X79297274Y-155278094D01*
X79503136Y-155168058D01*
X79683575Y-155019975D01*
X79831658Y-154839536D01*
X79941694Y-154633674D01*
X80009453Y-154410300D01*
X80032333Y-154178000D01*
X80190867Y-154178000D01*
X80213747Y-154410300D01*
X80281506Y-154633674D01*
X80391542Y-154839536D01*
X80539625Y-155019975D01*
X80720064Y-155168058D01*
X80925926Y-155278094D01*
X81149300Y-155345853D01*
X81323393Y-155363000D01*
X81439807Y-155363000D01*
X81613900Y-155345853D01*
X81837274Y-155278094D01*
X82043136Y-155168058D01*
X82223575Y-155019975D01*
X82371658Y-154839536D01*
X82481694Y-154633674D01*
X82549453Y-154410300D01*
X82572333Y-154178000D01*
X82730867Y-154178000D01*
X82753747Y-154410300D01*
X82821506Y-154633674D01*
X82931542Y-154839536D01*
X83079625Y-155019975D01*
X83260064Y-155168058D01*
X83465926Y-155278094D01*
X83689300Y-155345853D01*
X83863393Y-155363000D01*
X83979807Y-155363000D01*
X84153900Y-155345853D01*
X84377274Y-155278094D01*
X84583136Y-155168058D01*
X84763575Y-155019975D01*
X84911658Y-154839536D01*
X85021694Y-154633674D01*
X85089453Y-154410300D01*
X85112333Y-154178000D01*
X85270867Y-154178000D01*
X85293747Y-154410300D01*
X85361506Y-154633674D01*
X85471542Y-154839536D01*
X85619625Y-155019975D01*
X85800064Y-155168058D01*
X86005926Y-155278094D01*
X86229300Y-155345853D01*
X86403393Y-155363000D01*
X86519807Y-155363000D01*
X86693900Y-155345853D01*
X86917274Y-155278094D01*
X87123136Y-155168058D01*
X87303575Y-155019975D01*
X87451658Y-154839536D01*
X87561694Y-154633674D01*
X87629453Y-154410300D01*
X87652333Y-154178000D01*
X87810867Y-154178000D01*
X87833747Y-154410300D01*
X87901506Y-154633674D01*
X88011542Y-154839536D01*
X88159625Y-155019975D01*
X88340064Y-155168058D01*
X88545926Y-155278094D01*
X88769300Y-155345853D01*
X88943393Y-155363000D01*
X89059807Y-155363000D01*
X89233900Y-155345853D01*
X89457274Y-155278094D01*
X89663136Y-155168058D01*
X89843575Y-155019975D01*
X89991658Y-154839536D01*
X90101694Y-154633674D01*
X90169453Y-154410300D01*
X90192333Y-154178000D01*
X90350867Y-154178000D01*
X90373747Y-154410300D01*
X90441506Y-154633674D01*
X90551542Y-154839536D01*
X90699625Y-155019975D01*
X90880064Y-155168058D01*
X91085926Y-155278094D01*
X91309300Y-155345853D01*
X91483393Y-155363000D01*
X91599807Y-155363000D01*
X91773900Y-155345853D01*
X91997274Y-155278094D01*
X92203136Y-155168058D01*
X92383575Y-155019975D01*
X92531658Y-154839536D01*
X92641694Y-154633674D01*
X92709453Y-154410300D01*
X92732333Y-154178000D01*
X92890867Y-154178000D01*
X92913747Y-154410300D01*
X92981506Y-154633674D01*
X93091542Y-154839536D01*
X93239625Y-155019975D01*
X93420064Y-155168058D01*
X93625926Y-155278094D01*
X93849300Y-155345853D01*
X94023393Y-155363000D01*
X94139807Y-155363000D01*
X94313900Y-155345853D01*
X94537274Y-155278094D01*
X94743136Y-155168058D01*
X94923575Y-155019975D01*
X95071658Y-154839536D01*
X95181694Y-154633674D01*
X95249453Y-154410300D01*
X95272333Y-154178000D01*
X95430867Y-154178000D01*
X95453747Y-154410300D01*
X95521506Y-154633674D01*
X95631542Y-154839536D01*
X95779625Y-155019975D01*
X95960064Y-155168058D01*
X96165926Y-155278094D01*
X96389300Y-155345853D01*
X96563393Y-155363000D01*
X96679807Y-155363000D01*
X96853900Y-155345853D01*
X97077274Y-155278094D01*
X97283136Y-155168058D01*
X97463575Y-155019975D01*
X97611658Y-154839536D01*
X97721694Y-154633674D01*
X97737121Y-154582819D01*
X97817443Y-154809252D01*
X97966422Y-155059355D01*
X98161331Y-155275588D01*
X98394680Y-155449641D01*
X98657501Y-155574825D01*
X98804710Y-155619476D01*
X99034600Y-155498155D01*
X99034600Y-154305000D01*
X99288600Y-154305000D01*
X99288600Y-155498155D01*
X99518490Y-155619476D01*
X99665699Y-155574825D01*
X99928520Y-155449641D01*
X100161869Y-155275588D01*
X100356778Y-155059355D01*
X100505757Y-154809252D01*
X100603081Y-154534891D01*
X100482414Y-154305000D01*
X99288600Y-154305000D01*
X99034600Y-154305000D01*
X99014600Y-154305000D01*
X99014600Y-154051000D01*
X99034600Y-154051000D01*
X99034600Y-152857845D01*
X99288600Y-152857845D01*
X99288600Y-154051000D01*
X100482414Y-154051000D01*
X100498100Y-154021114D01*
X103694000Y-154021114D01*
X103694000Y-154284086D01*
X103745304Y-154542005D01*
X103845939Y-154784959D01*
X103992038Y-155003613D01*
X104177987Y-155189562D01*
X104396641Y-155335661D01*
X104639595Y-155436296D01*
X104897514Y-155487600D01*
X105160486Y-155487600D01*
X105418405Y-155436296D01*
X105661359Y-155335661D01*
X105880013Y-155189562D01*
X106065962Y-155003613D01*
X106212061Y-154784959D01*
X106312696Y-154542005D01*
X106364000Y-154284086D01*
X106364000Y-154021114D01*
X106996000Y-154021114D01*
X106996000Y-154284086D01*
X107047304Y-154542005D01*
X107147939Y-154784959D01*
X107294038Y-155003613D01*
X107479987Y-155189562D01*
X107698641Y-155335661D01*
X107941595Y-155436296D01*
X108199514Y-155487600D01*
X108462486Y-155487600D01*
X108720405Y-155436296D01*
X108963359Y-155335661D01*
X109182013Y-155189562D01*
X109367962Y-155003613D01*
X109514061Y-154784959D01*
X109614696Y-154542005D01*
X109666000Y-154284086D01*
X109666000Y-154021114D01*
X109614696Y-153763195D01*
X109514061Y-153520241D01*
X109367962Y-153301587D01*
X109182013Y-153115638D01*
X108963359Y-152969539D01*
X108720405Y-152868904D01*
X108462486Y-152817600D01*
X108199514Y-152817600D01*
X107941595Y-152868904D01*
X107698641Y-152969539D01*
X107479987Y-153115638D01*
X107294038Y-153301587D01*
X107147939Y-153520241D01*
X107047304Y-153763195D01*
X106996000Y-154021114D01*
X106364000Y-154021114D01*
X106312696Y-153763195D01*
X106212061Y-153520241D01*
X106065962Y-153301587D01*
X105880013Y-153115638D01*
X105661359Y-152969539D01*
X105418405Y-152868904D01*
X105160486Y-152817600D01*
X104897514Y-152817600D01*
X104639595Y-152868904D01*
X104396641Y-152969539D01*
X104177987Y-153115638D01*
X103992038Y-153301587D01*
X103845939Y-153520241D01*
X103745304Y-153763195D01*
X103694000Y-154021114D01*
X100498100Y-154021114D01*
X100603081Y-153821109D01*
X100505757Y-153546748D01*
X100356778Y-153296645D01*
X100161869Y-153080412D01*
X99928520Y-152906359D01*
X99665699Y-152781175D01*
X99518490Y-152736524D01*
X99288600Y-152857845D01*
X99034600Y-152857845D01*
X98804710Y-152736524D01*
X98657501Y-152781175D01*
X98394680Y-152906359D01*
X98161331Y-153080412D01*
X97966422Y-153296645D01*
X97817443Y-153546748D01*
X97737121Y-153773181D01*
X97721694Y-153722326D01*
X97611658Y-153516464D01*
X97463575Y-153336025D01*
X97283136Y-153187942D01*
X97077274Y-153077906D01*
X96853900Y-153010147D01*
X96679807Y-152993000D01*
X96563393Y-152993000D01*
X96389300Y-153010147D01*
X96165926Y-153077906D01*
X95960064Y-153187942D01*
X95779625Y-153336025D01*
X95631542Y-153516464D01*
X95521506Y-153722326D01*
X95453747Y-153945700D01*
X95430867Y-154178000D01*
X95272333Y-154178000D01*
X95249453Y-153945700D01*
X95181694Y-153722326D01*
X95071658Y-153516464D01*
X94923575Y-153336025D01*
X94743136Y-153187942D01*
X94537274Y-153077906D01*
X94313900Y-153010147D01*
X94139807Y-152993000D01*
X94023393Y-152993000D01*
X93849300Y-153010147D01*
X93625926Y-153077906D01*
X93420064Y-153187942D01*
X93239625Y-153336025D01*
X93091542Y-153516464D01*
X92981506Y-153722326D01*
X92913747Y-153945700D01*
X92890867Y-154178000D01*
X92732333Y-154178000D01*
X92709453Y-153945700D01*
X92641694Y-153722326D01*
X92531658Y-153516464D01*
X92383575Y-153336025D01*
X92203136Y-153187942D01*
X91997274Y-153077906D01*
X91773900Y-153010147D01*
X91599807Y-152993000D01*
X91483393Y-152993000D01*
X91309300Y-153010147D01*
X91085926Y-153077906D01*
X90880064Y-153187942D01*
X90699625Y-153336025D01*
X90551542Y-153516464D01*
X90441506Y-153722326D01*
X90373747Y-153945700D01*
X90350867Y-154178000D01*
X90192333Y-154178000D01*
X90169453Y-153945700D01*
X90101694Y-153722326D01*
X89991658Y-153516464D01*
X89843575Y-153336025D01*
X89663136Y-153187942D01*
X89457274Y-153077906D01*
X89233900Y-153010147D01*
X89059807Y-152993000D01*
X88943393Y-152993000D01*
X88769300Y-153010147D01*
X88545926Y-153077906D01*
X88340064Y-153187942D01*
X88159625Y-153336025D01*
X88011542Y-153516464D01*
X87901506Y-153722326D01*
X87833747Y-153945700D01*
X87810867Y-154178000D01*
X87652333Y-154178000D01*
X87629453Y-153945700D01*
X87561694Y-153722326D01*
X87451658Y-153516464D01*
X87303575Y-153336025D01*
X87123136Y-153187942D01*
X86917274Y-153077906D01*
X86693900Y-153010147D01*
X86519807Y-152993000D01*
X86403393Y-152993000D01*
X86229300Y-153010147D01*
X86005926Y-153077906D01*
X85800064Y-153187942D01*
X85619625Y-153336025D01*
X85471542Y-153516464D01*
X85361506Y-153722326D01*
X85293747Y-153945700D01*
X85270867Y-154178000D01*
X85112333Y-154178000D01*
X85089453Y-153945700D01*
X85021694Y-153722326D01*
X84911658Y-153516464D01*
X84763575Y-153336025D01*
X84583136Y-153187942D01*
X84377274Y-153077906D01*
X84153900Y-153010147D01*
X83979807Y-152993000D01*
X83863393Y-152993000D01*
X83689300Y-153010147D01*
X83465926Y-153077906D01*
X83260064Y-153187942D01*
X83079625Y-153336025D01*
X82931542Y-153516464D01*
X82821506Y-153722326D01*
X82753747Y-153945700D01*
X82730867Y-154178000D01*
X82572333Y-154178000D01*
X82549453Y-153945700D01*
X82481694Y-153722326D01*
X82371658Y-153516464D01*
X82223575Y-153336025D01*
X82043136Y-153187942D01*
X81837274Y-153077906D01*
X81613900Y-153010147D01*
X81439807Y-152993000D01*
X81323393Y-152993000D01*
X81149300Y-153010147D01*
X80925926Y-153077906D01*
X80720064Y-153187942D01*
X80539625Y-153336025D01*
X80391542Y-153516464D01*
X80281506Y-153722326D01*
X80213747Y-153945700D01*
X80190867Y-154178000D01*
X80032333Y-154178000D01*
X80009453Y-153945700D01*
X79941694Y-153722326D01*
X79831658Y-153516464D01*
X79683575Y-153336025D01*
X79503136Y-153187942D01*
X79297274Y-153077906D01*
X79073900Y-153010147D01*
X78899807Y-152993000D01*
X78783393Y-152993000D01*
X78609300Y-153010147D01*
X78385926Y-153077906D01*
X78180064Y-153187942D01*
X77999625Y-153336025D01*
X77851542Y-153516464D01*
X77741506Y-153722326D01*
X77673747Y-153945700D01*
X77650867Y-154178000D01*
X77488220Y-154178000D01*
X77488220Y-153328000D01*
X77481752Y-153262329D01*
X77462596Y-153199181D01*
X77431489Y-153140984D01*
X77389626Y-153089974D01*
X77338616Y-153048111D01*
X77280419Y-153017004D01*
X77217271Y-152997848D01*
X77151600Y-152991380D01*
X75451600Y-152991380D01*
X75385929Y-152997848D01*
X75322781Y-153017004D01*
X75264584Y-153048111D01*
X75213574Y-153089974D01*
X75171711Y-153140984D01*
X75140604Y-153199181D01*
X75121448Y-153262329D01*
X75114980Y-153328000D01*
X68929346Y-153328000D01*
X68740805Y-153249904D01*
X68482886Y-153198600D01*
X68219914Y-153198600D01*
X67961995Y-153249904D01*
X67719041Y-153350539D01*
X67500387Y-153496638D01*
X67314438Y-153682587D01*
X67168339Y-153901241D01*
X67067704Y-154144195D01*
X67016400Y-154402114D01*
X66079600Y-154402114D01*
X66079600Y-154325914D01*
X66028296Y-154067995D01*
X65927661Y-153825041D01*
X65781562Y-153606387D01*
X65595613Y-153420438D01*
X65376959Y-153274339D01*
X65134005Y-153173704D01*
X64876086Y-153122400D01*
X64613114Y-153122400D01*
X64355195Y-153173704D01*
X64112241Y-153274339D01*
X63893587Y-153420438D01*
X63707638Y-153606387D01*
X63561539Y-153825041D01*
X63460904Y-154067995D01*
X63409600Y-154325914D01*
X62041000Y-154325914D01*
X61989696Y-154067995D01*
X61889061Y-153825041D01*
X61742962Y-153606387D01*
X61557013Y-153420438D01*
X61338359Y-153274339D01*
X61095405Y-153173704D01*
X60837486Y-153122400D01*
X60574514Y-153122400D01*
X60316595Y-153173704D01*
X60073641Y-153274339D01*
X59854987Y-153420438D01*
X59669038Y-153606387D01*
X59522939Y-153825041D01*
X59422304Y-154067995D01*
X59371000Y-154325914D01*
X58332600Y-154325914D01*
X58281296Y-154067995D01*
X58180661Y-153825041D01*
X58034562Y-153606387D01*
X57848613Y-153420438D01*
X57629959Y-153274339D01*
X57387005Y-153173704D01*
X57129086Y-153122400D01*
X56866114Y-153122400D01*
X56608195Y-153173704D01*
X56365241Y-153274339D01*
X56146587Y-153420438D01*
X55960638Y-153606387D01*
X55814539Y-153825041D01*
X55713904Y-154067995D01*
X55662600Y-154325914D01*
X55025548Y-154325914D01*
X54979296Y-154093395D01*
X54878661Y-153850441D01*
X54732562Y-153631787D01*
X54546613Y-153445838D01*
X54327959Y-153299739D01*
X54085005Y-153199104D01*
X53827086Y-153147800D01*
X53564114Y-153147800D01*
X53306195Y-153199104D01*
X53063241Y-153299739D01*
X52844587Y-153445838D01*
X52658638Y-153631787D01*
X52512539Y-153850441D01*
X52411904Y-154093395D01*
X52360600Y-154351314D01*
X50410000Y-154351314D01*
X50410000Y-151621960D01*
X111499200Y-151621960D01*
X111499200Y-151786440D01*
X111531289Y-151947760D01*
X111594233Y-152099721D01*
X111685613Y-152236481D01*
X111801919Y-152352787D01*
X111938679Y-152444167D01*
X112090640Y-152507111D01*
X112251960Y-152539200D01*
X112416440Y-152539200D01*
X112577760Y-152507111D01*
X112649777Y-152477281D01*
X112570896Y-152667717D01*
X112529200Y-152877337D01*
X112529200Y-153091063D01*
X112570896Y-153300683D01*
X112649777Y-153491119D01*
X112577760Y-153461289D01*
X112416440Y-153429200D01*
X112251960Y-153429200D01*
X112090640Y-153461289D01*
X111938679Y-153524233D01*
X111801919Y-153615613D01*
X111685613Y-153731919D01*
X111594233Y-153868679D01*
X111531289Y-154020640D01*
X111499200Y-154181960D01*
X111499200Y-154346440D01*
X111531289Y-154507760D01*
X111594233Y-154659721D01*
X111685613Y-154796481D01*
X111801919Y-154912787D01*
X111938679Y-155004167D01*
X112090640Y-155067111D01*
X112251960Y-155099200D01*
X112416440Y-155099200D01*
X112577760Y-155067111D01*
X112729721Y-155004167D01*
X112866481Y-154912787D01*
X112982787Y-154796481D01*
X113074167Y-154659721D01*
X113137111Y-154507760D01*
X113169200Y-154346440D01*
X113169200Y-154181960D01*
X113137111Y-154020640D01*
X113107281Y-153948623D01*
X113297717Y-154027504D01*
X113507337Y-154069200D01*
X113721063Y-154069200D01*
X113930683Y-154027504D01*
X114121119Y-153948623D01*
X114091289Y-154020640D01*
X114059200Y-154181960D01*
X114059200Y-154346440D01*
X114091289Y-154507760D01*
X114154233Y-154659721D01*
X114245613Y-154796481D01*
X114361919Y-154912787D01*
X114498679Y-155004167D01*
X114650640Y-155067111D01*
X114811960Y-155099200D01*
X114976440Y-155099200D01*
X115137760Y-155067111D01*
X115289721Y-155004167D01*
X115426481Y-154912787D01*
X115542787Y-154796481D01*
X115634167Y-154659721D01*
X115697111Y-154507760D01*
X115729200Y-154346440D01*
X115729200Y-154181960D01*
X115697111Y-154020640D01*
X115634167Y-153868679D01*
X115542787Y-153731919D01*
X115426481Y-153615613D01*
X115289721Y-153524233D01*
X115137760Y-153461289D01*
X114976440Y-153429200D01*
X114811960Y-153429200D01*
X114650640Y-153461289D01*
X114578623Y-153491119D01*
X114657504Y-153300683D01*
X114699200Y-153091063D01*
X114699200Y-152877337D01*
X114657504Y-152667717D01*
X114578623Y-152477281D01*
X114650640Y-152507111D01*
X114811960Y-152539200D01*
X114976440Y-152539200D01*
X115137760Y-152507111D01*
X115289721Y-152444167D01*
X115426481Y-152352787D01*
X115542787Y-152236481D01*
X115634167Y-152099721D01*
X115697111Y-151947760D01*
X115729200Y-151786440D01*
X115729200Y-151621960D01*
X115724148Y-151596560D01*
X118509600Y-151596560D01*
X118509600Y-151761040D01*
X118541689Y-151922360D01*
X118604633Y-152074321D01*
X118696013Y-152211081D01*
X118812319Y-152327387D01*
X118949079Y-152418767D01*
X119101040Y-152481711D01*
X119262360Y-152513800D01*
X119426840Y-152513800D01*
X119588160Y-152481711D01*
X119660177Y-152451881D01*
X119581296Y-152642317D01*
X119539600Y-152851937D01*
X119539600Y-153065663D01*
X119581296Y-153275283D01*
X119660177Y-153465719D01*
X119588160Y-153435889D01*
X119426840Y-153403800D01*
X119262360Y-153403800D01*
X119101040Y-153435889D01*
X118949079Y-153498833D01*
X118812319Y-153590213D01*
X118696013Y-153706519D01*
X118604633Y-153843279D01*
X118541689Y-153995240D01*
X118509600Y-154156560D01*
X118509600Y-154321040D01*
X118541689Y-154482360D01*
X118604633Y-154634321D01*
X118696013Y-154771081D01*
X118812319Y-154887387D01*
X118949079Y-154978767D01*
X119101040Y-155041711D01*
X119262360Y-155073800D01*
X119426840Y-155073800D01*
X119588160Y-155041711D01*
X119740121Y-154978767D01*
X119876881Y-154887387D01*
X119993187Y-154771081D01*
X120084567Y-154634321D01*
X120147511Y-154482360D01*
X120179600Y-154321040D01*
X120179600Y-154156560D01*
X120147511Y-153995240D01*
X120117681Y-153923223D01*
X120308117Y-154002104D01*
X120517737Y-154043800D01*
X120731463Y-154043800D01*
X120941083Y-154002104D01*
X121131519Y-153923223D01*
X121101689Y-153995240D01*
X121069600Y-154156560D01*
X121069600Y-154321040D01*
X121101689Y-154482360D01*
X121164633Y-154634321D01*
X121256013Y-154771081D01*
X121372319Y-154887387D01*
X121509079Y-154978767D01*
X121661040Y-155041711D01*
X121822360Y-155073800D01*
X121986840Y-155073800D01*
X122148160Y-155041711D01*
X122300121Y-154978767D01*
X122436881Y-154887387D01*
X122553187Y-154771081D01*
X122644567Y-154634321D01*
X122707511Y-154482360D01*
X122739600Y-154321040D01*
X122739600Y-154156560D01*
X122707511Y-153995240D01*
X122644567Y-153843279D01*
X122553187Y-153706519D01*
X122436881Y-153590213D01*
X122300121Y-153498833D01*
X122148160Y-153435889D01*
X121986840Y-153403800D01*
X121822360Y-153403800D01*
X121661040Y-153435889D01*
X121589023Y-153465719D01*
X121667904Y-153275283D01*
X121709600Y-153065663D01*
X121709600Y-152851937D01*
X121667904Y-152642317D01*
X121589023Y-152451881D01*
X121661040Y-152481711D01*
X121822360Y-152513800D01*
X121986840Y-152513800D01*
X122148160Y-152481711D01*
X122300121Y-152418767D01*
X122436881Y-152327387D01*
X122553187Y-152211081D01*
X122644567Y-152074321D01*
X122707511Y-151922360D01*
X122739600Y-151761040D01*
X122739600Y-151596560D01*
X122707511Y-151435240D01*
X122644567Y-151283279D01*
X122553187Y-151146519D01*
X122436881Y-151030213D01*
X122300121Y-150938833D01*
X122148160Y-150875889D01*
X121986840Y-150843800D01*
X121822360Y-150843800D01*
X121661040Y-150875889D01*
X121509079Y-150938833D01*
X121372319Y-151030213D01*
X121256013Y-151146519D01*
X121164633Y-151283279D01*
X121101689Y-151435240D01*
X121069600Y-151596560D01*
X121069600Y-151761040D01*
X121101689Y-151922360D01*
X121131519Y-151994377D01*
X120941083Y-151915496D01*
X120731463Y-151873800D01*
X120517737Y-151873800D01*
X120308117Y-151915496D01*
X120117681Y-151994377D01*
X120147511Y-151922360D01*
X120179600Y-151761040D01*
X120179600Y-151596560D01*
X120147511Y-151435240D01*
X120084567Y-151283279D01*
X119993187Y-151146519D01*
X119876881Y-151030213D01*
X119740121Y-150938833D01*
X119588160Y-150875889D01*
X119426840Y-150843800D01*
X119262360Y-150843800D01*
X119101040Y-150875889D01*
X118949079Y-150938833D01*
X118812319Y-151030213D01*
X118696013Y-151146519D01*
X118604633Y-151283279D01*
X118541689Y-151435240D01*
X118509600Y-151596560D01*
X115724148Y-151596560D01*
X115697111Y-151460640D01*
X115634167Y-151308679D01*
X115542787Y-151171919D01*
X115426481Y-151055613D01*
X115289721Y-150964233D01*
X115137760Y-150901289D01*
X114976440Y-150869200D01*
X114811960Y-150869200D01*
X114650640Y-150901289D01*
X114498679Y-150964233D01*
X114361919Y-151055613D01*
X114245613Y-151171919D01*
X114154233Y-151308679D01*
X114091289Y-151460640D01*
X114059200Y-151621960D01*
X114059200Y-151786440D01*
X114091289Y-151947760D01*
X114121119Y-152019777D01*
X113930683Y-151940896D01*
X113721063Y-151899200D01*
X113507337Y-151899200D01*
X113297717Y-151940896D01*
X113107281Y-152019777D01*
X113137111Y-151947760D01*
X113169200Y-151786440D01*
X113169200Y-151621960D01*
X113137111Y-151460640D01*
X113074167Y-151308679D01*
X112982787Y-151171919D01*
X112866481Y-151055613D01*
X112729721Y-150964233D01*
X112577760Y-150901289D01*
X112416440Y-150869200D01*
X112251960Y-150869200D01*
X112090640Y-150901289D01*
X111938679Y-150964233D01*
X111801919Y-151055613D01*
X111685613Y-151171919D01*
X111594233Y-151308679D01*
X111531289Y-151460640D01*
X111499200Y-151621960D01*
X50410000Y-151621960D01*
X50410000Y-150571494D01*
X72258200Y-150571494D01*
X72258200Y-150672506D01*
X72277907Y-150771578D01*
X72316563Y-150864902D01*
X72372682Y-150948891D01*
X72444109Y-151020318D01*
X72528098Y-151076437D01*
X72621422Y-151115093D01*
X72720494Y-151134800D01*
X72821506Y-151134800D01*
X72920578Y-151115093D01*
X73013902Y-151076437D01*
X73059604Y-151045900D01*
X87048016Y-151045900D01*
X87202383Y-151200268D01*
X87213107Y-151254178D01*
X87251763Y-151347502D01*
X87307882Y-151431491D01*
X87379309Y-151502918D01*
X87463298Y-151559037D01*
X87556622Y-151597693D01*
X87655694Y-151617400D01*
X87756706Y-151617400D01*
X87855778Y-151597693D01*
X87949102Y-151559037D01*
X88033091Y-151502918D01*
X88104518Y-151431491D01*
X88160637Y-151347502D01*
X88199293Y-151254178D01*
X88219000Y-151155106D01*
X88219000Y-151054094D01*
X88199293Y-150955022D01*
X88160637Y-150861698D01*
X88104518Y-150777709D01*
X88033091Y-150706282D01*
X87949102Y-150650163D01*
X87855778Y-150611507D01*
X87801868Y-150600783D01*
X87538073Y-150336989D01*
X87524793Y-150320807D01*
X87460246Y-150267835D01*
X87386604Y-150228473D01*
X87306699Y-150204234D01*
X87244423Y-150198100D01*
X87223600Y-150196049D01*
X87202777Y-150198100D01*
X73059604Y-150198100D01*
X73013902Y-150167563D01*
X72920578Y-150128907D01*
X72821506Y-150109200D01*
X72720494Y-150109200D01*
X72621422Y-150128907D01*
X72528098Y-150167563D01*
X72444109Y-150223682D01*
X72372682Y-150295109D01*
X72316563Y-150379098D01*
X72277907Y-150472422D01*
X72258200Y-150571494D01*
X50410000Y-150571494D01*
X50410000Y-146230324D01*
X51595000Y-146230324D01*
X51595000Y-146729676D01*
X51692418Y-147219432D01*
X51883512Y-147680773D01*
X52160937Y-148095968D01*
X52514032Y-148449063D01*
X52929227Y-148726488D01*
X53390568Y-148917582D01*
X53880324Y-149015000D01*
X54379676Y-149015000D01*
X54869432Y-148917582D01*
X55330773Y-148726488D01*
X55745968Y-148449063D01*
X56099063Y-148095968D01*
X56376488Y-147680773D01*
X56567582Y-147219432D01*
X56665000Y-146729676D01*
X56665000Y-146230324D01*
X56571962Y-145762587D01*
X56935000Y-145762587D01*
X56935000Y-146557413D01*
X57090062Y-147336966D01*
X57394229Y-148071289D01*
X57835811Y-148732163D01*
X58397837Y-149294189D01*
X59058711Y-149735771D01*
X59793034Y-150039938D01*
X60572587Y-150195000D01*
X61367413Y-150195000D01*
X62146966Y-150039938D01*
X62881289Y-149735771D01*
X63542163Y-149294189D01*
X64104189Y-148732163D01*
X64545771Y-148071289D01*
X64849938Y-147336966D01*
X65005000Y-146557413D01*
X65005000Y-145762587D01*
X111085000Y-145762587D01*
X111085000Y-146557413D01*
X111240062Y-147336966D01*
X111544229Y-148071289D01*
X111985811Y-148732163D01*
X112547837Y-149294189D01*
X113208711Y-149735771D01*
X113943034Y-150039938D01*
X114722587Y-150195000D01*
X115517413Y-150195000D01*
X116296966Y-150039938D01*
X117031289Y-149735771D01*
X117692163Y-149294189D01*
X118254189Y-148732163D01*
X118695771Y-148071289D01*
X118767974Y-147896975D01*
X118900937Y-148095968D01*
X119254032Y-148449063D01*
X119669227Y-148726488D01*
X120130568Y-148917582D01*
X120620324Y-149015000D01*
X121119676Y-149015000D01*
X121609432Y-148917582D01*
X122070773Y-148726488D01*
X122485968Y-148449063D01*
X122839063Y-148095968D01*
X123116488Y-147680773D01*
X123307582Y-147219432D01*
X123405000Y-146729676D01*
X123405000Y-146230324D01*
X123307582Y-145740568D01*
X123116488Y-145279227D01*
X122839063Y-144864032D01*
X122485968Y-144510937D01*
X122070773Y-144233512D01*
X121609432Y-144042418D01*
X121119676Y-143945000D01*
X120620324Y-143945000D01*
X120130568Y-144042418D01*
X119669227Y-144233512D01*
X119254032Y-144510937D01*
X118936086Y-144828883D01*
X118695771Y-144248711D01*
X118254189Y-143587837D01*
X117692163Y-143025811D01*
X117031289Y-142584229D01*
X116296966Y-142280062D01*
X115517413Y-142125000D01*
X114722587Y-142125000D01*
X113943034Y-142280062D01*
X113208711Y-142584229D01*
X112547837Y-143025811D01*
X111985811Y-143587837D01*
X111544229Y-144248711D01*
X111240062Y-144983034D01*
X111085000Y-145762587D01*
X65005000Y-145762587D01*
X64849938Y-144983034D01*
X64545771Y-144248711D01*
X64104189Y-143587837D01*
X63542163Y-143025811D01*
X62881289Y-142584229D01*
X62146966Y-142280062D01*
X61367413Y-142125000D01*
X60572587Y-142125000D01*
X59793034Y-142280062D01*
X59058711Y-142584229D01*
X58397837Y-143025811D01*
X57835811Y-143587837D01*
X57394229Y-144248711D01*
X57090062Y-144983034D01*
X56935000Y-145762587D01*
X56571962Y-145762587D01*
X56567582Y-145740568D01*
X56376488Y-145279227D01*
X56099063Y-144864032D01*
X55745968Y-144510937D01*
X55330773Y-144233512D01*
X54869432Y-144042418D01*
X54379676Y-143945000D01*
X53880324Y-143945000D01*
X53390568Y-144042418D01*
X52929227Y-144233512D01*
X52514032Y-144510937D01*
X52160937Y-144864032D01*
X51883512Y-145279227D01*
X51692418Y-145740568D01*
X51595000Y-146230324D01*
X50410000Y-146230324D01*
X50410000Y-138963694D01*
X92425800Y-138963694D01*
X92425800Y-139064706D01*
X92445507Y-139163778D01*
X92484163Y-139257102D01*
X92540282Y-139341091D01*
X92611709Y-139412518D01*
X92695698Y-139468637D01*
X92789022Y-139507293D01*
X92888094Y-139527000D01*
X92989106Y-139527000D01*
X93088178Y-139507293D01*
X93181502Y-139468637D01*
X93265491Y-139412518D01*
X93336918Y-139341091D01*
X93393037Y-139257102D01*
X93431693Y-139163778D01*
X93442417Y-139109867D01*
X93690190Y-138862094D01*
X94127600Y-138862094D01*
X94127600Y-138963106D01*
X94147307Y-139062178D01*
X94185963Y-139155502D01*
X94242082Y-139239491D01*
X94313509Y-139310918D01*
X94397498Y-139367037D01*
X94490822Y-139405693D01*
X94589894Y-139425400D01*
X94690906Y-139425400D01*
X94789978Y-139405693D01*
X94883302Y-139367037D01*
X94929004Y-139336500D01*
X95509295Y-139336500D01*
X95530118Y-139338551D01*
X95550941Y-139336500D01*
X95613217Y-139330366D01*
X95693122Y-139306127D01*
X95766764Y-139266765D01*
X95831311Y-139213793D01*
X95844592Y-139197610D01*
X98044792Y-136997410D01*
X106771709Y-136997410D01*
X106771709Y-139217410D01*
X108444090Y-139217410D01*
X108444090Y-136997410D01*
X106771709Y-136997410D01*
X98044792Y-136997410D01*
X100469593Y-134572609D01*
X109110000Y-134572609D01*
X109110000Y-134717391D01*
X109138246Y-134859391D01*
X109193652Y-134993153D01*
X109274088Y-135113535D01*
X109376465Y-135215912D01*
X109496847Y-135296348D01*
X109630609Y-135351754D01*
X109772609Y-135380000D01*
X109917391Y-135380000D01*
X110059391Y-135351754D01*
X110193153Y-135296348D01*
X110313535Y-135215912D01*
X110415912Y-135113535D01*
X110496348Y-134993153D01*
X110551754Y-134859391D01*
X110580000Y-134717391D01*
X110580000Y-134572609D01*
X110551754Y-134430609D01*
X110496348Y-134296847D01*
X110415912Y-134176465D01*
X110313535Y-134074088D01*
X110193153Y-133993652D01*
X110059391Y-133938246D01*
X109917391Y-133910000D01*
X109772609Y-133910000D01*
X109630609Y-133938246D01*
X109496847Y-133993652D01*
X109376465Y-134074088D01*
X109274088Y-134176465D01*
X109193652Y-134296847D01*
X109138246Y-134430609D01*
X109110000Y-134572609D01*
X100469593Y-134572609D01*
X101895108Y-133147094D01*
X111196400Y-133147094D01*
X111196400Y-133248106D01*
X111216107Y-133347178D01*
X111254763Y-133440502D01*
X111310882Y-133524491D01*
X111382309Y-133595918D01*
X111466298Y-133652037D01*
X111559622Y-133690693D01*
X111658694Y-133710400D01*
X111759706Y-133710400D01*
X111858778Y-133690693D01*
X111952102Y-133652037D01*
X112036091Y-133595918D01*
X112107518Y-133524491D01*
X112163637Y-133440502D01*
X112202293Y-133347178D01*
X112222000Y-133248106D01*
X112222000Y-133147094D01*
X112202293Y-133048022D01*
X112163637Y-132954698D01*
X112133100Y-132908996D01*
X112133100Y-130909384D01*
X115386269Y-127656216D01*
X115440178Y-127645493D01*
X115533502Y-127606837D01*
X115617491Y-127550718D01*
X115688918Y-127479291D01*
X115745037Y-127395302D01*
X115783693Y-127301978D01*
X115803400Y-127202906D01*
X115803400Y-127101894D01*
X115783693Y-127002822D01*
X115745037Y-126909498D01*
X115688918Y-126825509D01*
X115617491Y-126754082D01*
X115533502Y-126697963D01*
X115440178Y-126659307D01*
X115341106Y-126639600D01*
X115240094Y-126639600D01*
X115141022Y-126659307D01*
X115047698Y-126697963D01*
X114963709Y-126754082D01*
X114892282Y-126825509D01*
X114836163Y-126909498D01*
X114797507Y-127002822D01*
X114786784Y-127056731D01*
X111424185Y-130419331D01*
X111408008Y-130432607D01*
X111394734Y-130448782D01*
X111355035Y-130497155D01*
X111315674Y-130570796D01*
X111291434Y-130650702D01*
X111283249Y-130733800D01*
X111285301Y-130754633D01*
X111285300Y-132908995D01*
X111254763Y-132954698D01*
X111216107Y-133048022D01*
X111196400Y-133147094D01*
X101895108Y-133147094D01*
X105363352Y-129678850D01*
X106680209Y-129678850D01*
X106680209Y-131898850D01*
X108352590Y-131898850D01*
X108352590Y-129678850D01*
X106680209Y-129678850D01*
X105363352Y-129678850D01*
X114762817Y-120279386D01*
X114778993Y-120266111D01*
X114831965Y-120201564D01*
X114871327Y-120127922D01*
X114895566Y-120048017D01*
X114901700Y-119985741D01*
X114901700Y-119985740D01*
X114903751Y-119964918D01*
X114901700Y-119944095D01*
X114901700Y-100310324D01*
X118335000Y-100310324D01*
X118335000Y-100809676D01*
X118432418Y-101299432D01*
X118623512Y-101760773D01*
X118900937Y-102175968D01*
X119254032Y-102529063D01*
X119669227Y-102806488D01*
X120130568Y-102997582D01*
X120620324Y-103095000D01*
X121119676Y-103095000D01*
X121609432Y-102997582D01*
X122070773Y-102806488D01*
X122485968Y-102529063D01*
X122839063Y-102175968D01*
X123116488Y-101760773D01*
X123307582Y-101299432D01*
X123405000Y-100809676D01*
X123405000Y-100310324D01*
X123307582Y-99820568D01*
X123116488Y-99359227D01*
X122839063Y-98944032D01*
X122485968Y-98590937D01*
X122070773Y-98313512D01*
X121609432Y-98122418D01*
X121119676Y-98025000D01*
X120620324Y-98025000D01*
X120130568Y-98122418D01*
X119669227Y-98313512D01*
X119254032Y-98590937D01*
X118900937Y-98944032D01*
X118623512Y-99359227D01*
X118432418Y-99820568D01*
X118335000Y-100310324D01*
X114901700Y-100310324D01*
X114901700Y-87639204D01*
X114932237Y-87593502D01*
X114970893Y-87500178D01*
X114990600Y-87401106D01*
X114990600Y-87300094D01*
X114970893Y-87201022D01*
X114932237Y-87107698D01*
X114876118Y-87023709D01*
X114804691Y-86952282D01*
X114720702Y-86896163D01*
X114627378Y-86857507D01*
X114528306Y-86837800D01*
X114427294Y-86837800D01*
X114328222Y-86857507D01*
X114234898Y-86896163D01*
X114150909Y-86952282D01*
X114079482Y-87023709D01*
X114023363Y-87107698D01*
X113984707Y-87201022D01*
X113965000Y-87300094D01*
X113965000Y-87401106D01*
X113984707Y-87500178D01*
X114023363Y-87593502D01*
X114053901Y-87639206D01*
X114053900Y-119789333D01*
X111373507Y-122469726D01*
X111364068Y-122422271D01*
X111293586Y-122252111D01*
X111191262Y-122098972D01*
X111061028Y-121968738D01*
X110907889Y-121866414D01*
X110737729Y-121795932D01*
X110557089Y-121760000D01*
X110372911Y-121760000D01*
X110192271Y-121795932D01*
X110022111Y-121866414D01*
X109868972Y-121968738D01*
X109738738Y-122098972D01*
X109636414Y-122252111D01*
X109565932Y-122422271D01*
X109530000Y-122602911D01*
X109530000Y-122787089D01*
X109565932Y-122967729D01*
X109636414Y-123137889D01*
X109738738Y-123291028D01*
X109868972Y-123421262D01*
X110022111Y-123523586D01*
X110192271Y-123594068D01*
X110239726Y-123603507D01*
X95354534Y-138488700D01*
X94929004Y-138488700D01*
X94883302Y-138458163D01*
X94789978Y-138419507D01*
X94690906Y-138399800D01*
X94589894Y-138399800D01*
X94490822Y-138419507D01*
X94397498Y-138458163D01*
X94313509Y-138514282D01*
X94242082Y-138585709D01*
X94185963Y-138669698D01*
X94147307Y-138763022D01*
X94127600Y-138862094D01*
X93690190Y-138862094D01*
X98862417Y-133689868D01*
X98878593Y-133676593D01*
X98931565Y-133612046D01*
X98970927Y-133538404D01*
X98995166Y-133458499D01*
X99001300Y-133396223D01*
X99001300Y-133396216D01*
X99003350Y-133375401D01*
X99001300Y-133354586D01*
X99001300Y-86360294D01*
X103678000Y-86360294D01*
X103678000Y-86461306D01*
X103697707Y-86560378D01*
X103736363Y-86653702D01*
X103792482Y-86737691D01*
X103863909Y-86809118D01*
X103947898Y-86865237D01*
X104041222Y-86903893D01*
X104140294Y-86923600D01*
X104241306Y-86923600D01*
X104340378Y-86903893D01*
X104433702Y-86865237D01*
X104479404Y-86834700D01*
X105539216Y-86834700D01*
X105820583Y-87116068D01*
X105831307Y-87169978D01*
X105869963Y-87263302D01*
X105926082Y-87347291D01*
X105997509Y-87418718D01*
X106081498Y-87474837D01*
X106174822Y-87513493D01*
X106273894Y-87533200D01*
X106374906Y-87533200D01*
X106473978Y-87513493D01*
X106567302Y-87474837D01*
X106651291Y-87418718D01*
X106722718Y-87347291D01*
X106778837Y-87263302D01*
X106817493Y-87169978D01*
X106837200Y-87070906D01*
X106837200Y-86969894D01*
X106817493Y-86870822D01*
X106778837Y-86777498D01*
X106722718Y-86693509D01*
X106651291Y-86622082D01*
X106567302Y-86565963D01*
X106473978Y-86527307D01*
X106420068Y-86516583D01*
X106029274Y-86125789D01*
X106015993Y-86109607D01*
X105951446Y-86056635D01*
X105877804Y-86017273D01*
X105797899Y-85993034D01*
X105735623Y-85986900D01*
X105714800Y-85984849D01*
X105693977Y-85986900D01*
X104479404Y-85986900D01*
X104433702Y-85956363D01*
X104340378Y-85917707D01*
X104241306Y-85898000D01*
X104140294Y-85898000D01*
X104041222Y-85917707D01*
X103947898Y-85956363D01*
X103863909Y-86012482D01*
X103792482Y-86083909D01*
X103736363Y-86167898D01*
X103697707Y-86261222D01*
X103678000Y-86360294D01*
X99001300Y-86360294D01*
X99001300Y-83716184D01*
X103046384Y-79671100D01*
X105815159Y-79671100D01*
X105815159Y-81891100D01*
X107487540Y-81891100D01*
X107487540Y-79671100D01*
X105815159Y-79671100D01*
X103046384Y-79671100D01*
X103137884Y-79579600D01*
X113133719Y-79579600D01*
X113133719Y-81799600D01*
X114806100Y-81799600D01*
X114806100Y-79579600D01*
X113133719Y-79579600D01*
X103137884Y-79579600D01*
X104294875Y-78422609D01*
X109730000Y-78422609D01*
X109730000Y-78567391D01*
X109758246Y-78709391D01*
X109813652Y-78843153D01*
X109894088Y-78963535D01*
X109996465Y-79065912D01*
X110116847Y-79146348D01*
X110250609Y-79201754D01*
X110392609Y-79230000D01*
X110537391Y-79230000D01*
X110679391Y-79201754D01*
X110813153Y-79146348D01*
X110933535Y-79065912D01*
X111035912Y-78963535D01*
X111116348Y-78843153D01*
X111171754Y-78709391D01*
X111200000Y-78567391D01*
X111200000Y-78422609D01*
X111171754Y-78280609D01*
X111116348Y-78146847D01*
X111035912Y-78026465D01*
X110933535Y-77924088D01*
X110813153Y-77843652D01*
X110679391Y-77788246D01*
X110537391Y-77760000D01*
X110392609Y-77760000D01*
X110250609Y-77788246D01*
X110116847Y-77843652D01*
X109996465Y-77924088D01*
X109894088Y-78026465D01*
X109813652Y-78146847D01*
X109758246Y-78280609D01*
X109730000Y-78422609D01*
X104294875Y-78422609D01*
X104975985Y-77741500D01*
X113108416Y-77741500D01*
X115247700Y-79880785D01*
X115247701Y-87849394D01*
X115217163Y-87895098D01*
X115178507Y-87988422D01*
X115158800Y-88087494D01*
X115158800Y-88188506D01*
X115178507Y-88287578D01*
X115217163Y-88380902D01*
X115273282Y-88464891D01*
X115344709Y-88536318D01*
X115428698Y-88592437D01*
X115522022Y-88631093D01*
X115621094Y-88650800D01*
X115722106Y-88650800D01*
X115821178Y-88631093D01*
X115914502Y-88592437D01*
X115998491Y-88536318D01*
X116069918Y-88464891D01*
X116126037Y-88380902D01*
X116164693Y-88287578D01*
X116184400Y-88188506D01*
X116184400Y-88087494D01*
X116164693Y-87988422D01*
X116126037Y-87895098D01*
X116095500Y-87849396D01*
X116095500Y-79726022D01*
X116097551Y-79705199D01*
X116089366Y-79622101D01*
X116065127Y-79542197D01*
X116065127Y-79542196D01*
X116025765Y-79468554D01*
X115972793Y-79404007D01*
X115956617Y-79390732D01*
X113598474Y-77032590D01*
X113585193Y-77016407D01*
X113520646Y-76963435D01*
X113447004Y-76924073D01*
X113367099Y-76899834D01*
X113304823Y-76893700D01*
X113284000Y-76891649D01*
X113263177Y-76893700D01*
X104821223Y-76893700D01*
X104800400Y-76891649D01*
X104779577Y-76893700D01*
X104717301Y-76899834D01*
X104637396Y-76924073D01*
X104563754Y-76963435D01*
X104499207Y-77016407D01*
X104485931Y-77032584D01*
X98292385Y-83226131D01*
X98276208Y-83239407D01*
X98262934Y-83255582D01*
X98223235Y-83303955D01*
X98183874Y-83377596D01*
X98159634Y-83457502D01*
X98151449Y-83540600D01*
X98153501Y-83561433D01*
X98153500Y-133199815D01*
X92842933Y-138510383D01*
X92789022Y-138521107D01*
X92695698Y-138559763D01*
X92611709Y-138615882D01*
X92540282Y-138687309D01*
X92484163Y-138771298D01*
X92445507Y-138864622D01*
X92425800Y-138963694D01*
X50410000Y-138963694D01*
X50410000Y-138252494D01*
X88133200Y-138252494D01*
X88133200Y-138353506D01*
X88152907Y-138452578D01*
X88191563Y-138545902D01*
X88247682Y-138629891D01*
X88319109Y-138701318D01*
X88403098Y-138757437D01*
X88496422Y-138796093D01*
X88595494Y-138815800D01*
X88696506Y-138815800D01*
X88795578Y-138796093D01*
X88888902Y-138757437D01*
X88972891Y-138701318D01*
X89044318Y-138629891D01*
X89100437Y-138545902D01*
X89139093Y-138452578D01*
X89149817Y-138398668D01*
X89168991Y-138379494D01*
X90673200Y-138379494D01*
X90673200Y-138480506D01*
X90692907Y-138579578D01*
X90731563Y-138672902D01*
X90787682Y-138756891D01*
X90859109Y-138828318D01*
X90943098Y-138884437D01*
X91036422Y-138923093D01*
X91135494Y-138942800D01*
X91236506Y-138942800D01*
X91335578Y-138923093D01*
X91428902Y-138884437D01*
X91512891Y-138828318D01*
X91584318Y-138756891D01*
X91640437Y-138672902D01*
X91679093Y-138579578D01*
X91689817Y-138525667D01*
X92969617Y-137245868D01*
X92985793Y-137232593D01*
X93038765Y-137168046D01*
X93078127Y-137094404D01*
X93102366Y-137014499D01*
X93108500Y-136952223D01*
X93108500Y-136952216D01*
X93110550Y-136931401D01*
X93108500Y-136910586D01*
X93108500Y-135594404D01*
X93139037Y-135548702D01*
X93177693Y-135455378D01*
X93197400Y-135356306D01*
X93197400Y-135255294D01*
X93177693Y-135156222D01*
X93139037Y-135062898D01*
X93082918Y-134978909D01*
X93011491Y-134907482D01*
X92927502Y-134851363D01*
X92834178Y-134812707D01*
X92735106Y-134793000D01*
X92634094Y-134793000D01*
X92535022Y-134812707D01*
X92441698Y-134851363D01*
X92357709Y-134907482D01*
X92286282Y-134978909D01*
X92230163Y-135062898D01*
X92191507Y-135156222D01*
X92171800Y-135255294D01*
X92171800Y-135356306D01*
X92191507Y-135455378D01*
X92230163Y-135548702D01*
X92260701Y-135594406D01*
X92260700Y-136755815D01*
X91090333Y-137926183D01*
X91036422Y-137936907D01*
X90943098Y-137975563D01*
X90859109Y-138031682D01*
X90787682Y-138103109D01*
X90731563Y-138187098D01*
X90692907Y-138280422D01*
X90673200Y-138379494D01*
X89168991Y-138379494D01*
X90251817Y-137296668D01*
X90267993Y-137283393D01*
X90320965Y-137218846D01*
X90360327Y-137145204D01*
X90384566Y-137065299D01*
X90390700Y-137003023D01*
X90390700Y-137003022D01*
X90392751Y-136982201D01*
X90390700Y-136961378D01*
X90390700Y-135778002D01*
X90421237Y-135732300D01*
X90459893Y-135638976D01*
X90479600Y-135539904D01*
X90479600Y-135438892D01*
X90459893Y-135339820D01*
X90421237Y-135246496D01*
X90365118Y-135162507D01*
X90293691Y-135091080D01*
X90209702Y-135034961D01*
X90116378Y-134996305D01*
X90017306Y-134976598D01*
X89916294Y-134976598D01*
X89817222Y-134996305D01*
X89723898Y-135034961D01*
X89639909Y-135091080D01*
X89568482Y-135162507D01*
X89512363Y-135246496D01*
X89473707Y-135339820D01*
X89454000Y-135438892D01*
X89454000Y-135539904D01*
X89473707Y-135638976D01*
X89512363Y-135732300D01*
X89542901Y-135778004D01*
X89542900Y-136806615D01*
X88550332Y-137799183D01*
X88496422Y-137809907D01*
X88403098Y-137848563D01*
X88319109Y-137904682D01*
X88247682Y-137976109D01*
X88191563Y-138060098D01*
X88152907Y-138153422D01*
X88133200Y-138252494D01*
X50410000Y-138252494D01*
X50410000Y-134552911D01*
X64710000Y-134552911D01*
X64710000Y-134737089D01*
X64745932Y-134917729D01*
X64816414Y-135087889D01*
X64918738Y-135241028D01*
X65048972Y-135371262D01*
X65202111Y-135473586D01*
X65372271Y-135544068D01*
X65552911Y-135580000D01*
X65737089Y-135580000D01*
X65917729Y-135544068D01*
X66087889Y-135473586D01*
X66241028Y-135371262D01*
X66371262Y-135241028D01*
X66473586Y-135087889D01*
X66544068Y-134917729D01*
X66580000Y-134737089D01*
X66580000Y-134552911D01*
X66544068Y-134372271D01*
X66473586Y-134202111D01*
X66371262Y-134048972D01*
X66241028Y-133918738D01*
X66087889Y-133816414D01*
X65917729Y-133745932D01*
X65737089Y-133710000D01*
X65552911Y-133710000D01*
X65372271Y-133745932D01*
X65202111Y-133816414D01*
X65048972Y-133918738D01*
X64918738Y-134048972D01*
X64816414Y-134202111D01*
X64745932Y-134372271D01*
X64710000Y-134552911D01*
X50410000Y-134552911D01*
X50410000Y-122602911D01*
X64880000Y-122602911D01*
X64880000Y-122787089D01*
X64915932Y-122967729D01*
X64986414Y-123137889D01*
X65088738Y-123291028D01*
X65218972Y-123421262D01*
X65372111Y-123523586D01*
X65542271Y-123594068D01*
X65722911Y-123630000D01*
X65907089Y-123630000D01*
X66087729Y-123594068D01*
X66257889Y-123523586D01*
X66411028Y-123421262D01*
X66541262Y-123291028D01*
X66643586Y-123137889D01*
X66714068Y-122967729D01*
X66750000Y-122787089D01*
X66750000Y-122602911D01*
X66714068Y-122422271D01*
X66643586Y-122252111D01*
X66541262Y-122098972D01*
X66411028Y-121968738D01*
X66257889Y-121866414D01*
X66087729Y-121795932D01*
X65907089Y-121760000D01*
X65722911Y-121760000D01*
X65542271Y-121795932D01*
X65372111Y-121866414D01*
X65218972Y-121968738D01*
X65088738Y-122098972D01*
X64986414Y-122252111D01*
X64915932Y-122422271D01*
X64880000Y-122602911D01*
X50410000Y-122602911D01*
X50410000Y-112144494D01*
X65295400Y-112144494D01*
X65295400Y-112245506D01*
X65315107Y-112344578D01*
X65353763Y-112437902D01*
X65409882Y-112521891D01*
X65481309Y-112593318D01*
X65565298Y-112649437D01*
X65658622Y-112688093D01*
X65757694Y-112707800D01*
X65858706Y-112707800D01*
X65957778Y-112688093D01*
X66051102Y-112649437D01*
X66096804Y-112618900D01*
X85142177Y-112618900D01*
X85163000Y-112620951D01*
X85183823Y-112618900D01*
X85246099Y-112612766D01*
X85326004Y-112588527D01*
X85399646Y-112549165D01*
X85464193Y-112496193D01*
X85477474Y-112480010D01*
X86684269Y-111273216D01*
X86738178Y-111262493D01*
X86831502Y-111223837D01*
X86915491Y-111167718D01*
X86986918Y-111096291D01*
X87043037Y-111012302D01*
X87081693Y-110918978D01*
X87101400Y-110819906D01*
X87101400Y-110718894D01*
X87081693Y-110619822D01*
X87043037Y-110526498D01*
X86986918Y-110442509D01*
X86915491Y-110371082D01*
X86831502Y-110314963D01*
X86738178Y-110276307D01*
X86639106Y-110256600D01*
X86538094Y-110256600D01*
X86439022Y-110276307D01*
X86345698Y-110314963D01*
X86261709Y-110371082D01*
X86190282Y-110442509D01*
X86134163Y-110526498D01*
X86095507Y-110619822D01*
X86084784Y-110673731D01*
X84987416Y-111771100D01*
X66096804Y-111771100D01*
X66051102Y-111740563D01*
X65957778Y-111701907D01*
X65858706Y-111682200D01*
X65757694Y-111682200D01*
X65658622Y-111701907D01*
X65565298Y-111740563D01*
X65481309Y-111796682D01*
X65409882Y-111868109D01*
X65353763Y-111952098D01*
X65315107Y-112045422D01*
X65295400Y-112144494D01*
X50410000Y-112144494D01*
X50410000Y-109372694D01*
X89174600Y-109372694D01*
X89174600Y-109473706D01*
X89194307Y-109572778D01*
X89232963Y-109666102D01*
X89289082Y-109750091D01*
X89360509Y-109821518D01*
X89444498Y-109877637D01*
X89537822Y-109916293D01*
X89636894Y-109936000D01*
X89737906Y-109936000D01*
X89836978Y-109916293D01*
X89930302Y-109877637D01*
X90014291Y-109821518D01*
X90085718Y-109750091D01*
X90141837Y-109666102D01*
X90180493Y-109572778D01*
X90191217Y-109518867D01*
X97643216Y-102066869D01*
X97659393Y-102053593D01*
X97712365Y-101989046D01*
X97751727Y-101915405D01*
X97775966Y-101835499D01*
X97784151Y-101752400D01*
X97782100Y-101731577D01*
X97782100Y-85861204D01*
X97812637Y-85815502D01*
X97851293Y-85722178D01*
X97871000Y-85623106D01*
X97871000Y-85522094D01*
X97851293Y-85423022D01*
X97812637Y-85329698D01*
X97756518Y-85245709D01*
X97685091Y-85174282D01*
X97601102Y-85118163D01*
X97507778Y-85079507D01*
X97408706Y-85059800D01*
X97307694Y-85059800D01*
X97208622Y-85079507D01*
X97115298Y-85118163D01*
X97031309Y-85174282D01*
X96959882Y-85245709D01*
X96903763Y-85329698D01*
X96865107Y-85423022D01*
X96845400Y-85522094D01*
X96845400Y-85623106D01*
X96865107Y-85722178D01*
X96903763Y-85815502D01*
X96934300Y-85861204D01*
X96934301Y-101576814D01*
X89591733Y-108919383D01*
X89537822Y-108930107D01*
X89444498Y-108968763D01*
X89360509Y-109024882D01*
X89289082Y-109096309D01*
X89232963Y-109180298D01*
X89194307Y-109273622D01*
X89174600Y-109372694D01*
X50410000Y-109372694D01*
X50410000Y-100310324D01*
X51595000Y-100310324D01*
X51595000Y-100809676D01*
X51692418Y-101299432D01*
X51883512Y-101760773D01*
X52160937Y-102175968D01*
X52514032Y-102529063D01*
X52929227Y-102806488D01*
X53390568Y-102997582D01*
X53880324Y-103095000D01*
X54379676Y-103095000D01*
X54869432Y-102997582D01*
X55330773Y-102806488D01*
X55745968Y-102529063D01*
X56099063Y-102175968D01*
X56376488Y-101760773D01*
X56567582Y-101299432D01*
X56665000Y-100809676D01*
X56665000Y-100310324D01*
X56567582Y-99820568D01*
X56376488Y-99359227D01*
X56099063Y-98944032D01*
X55745968Y-98590937D01*
X55330773Y-98313512D01*
X54869432Y-98122418D01*
X54379676Y-98025000D01*
X53880324Y-98025000D01*
X53390568Y-98122418D01*
X52929227Y-98313512D01*
X52514032Y-98590937D01*
X52160937Y-98944032D01*
X51883512Y-99359227D01*
X51692418Y-99820568D01*
X51595000Y-100310324D01*
X50410000Y-100310324D01*
X50410000Y-79671100D01*
X61165159Y-79671100D01*
X61165159Y-81891100D01*
X62837540Y-81891100D01*
X62837540Y-79671100D01*
X61165159Y-79671100D01*
X50410000Y-79671100D01*
X50410000Y-79579600D01*
X68483719Y-79579600D01*
X68483719Y-81799600D01*
X70156100Y-81799600D01*
X70156100Y-79579600D01*
X68483719Y-79579600D01*
X50410000Y-79579600D01*
X50410000Y-78422609D01*
X65080000Y-78422609D01*
X65080000Y-78567391D01*
X65108246Y-78709391D01*
X65163652Y-78843153D01*
X65244088Y-78963535D01*
X65346465Y-79065912D01*
X65466847Y-79146348D01*
X65600609Y-79201754D01*
X65742609Y-79230000D01*
X65887391Y-79230000D01*
X66029391Y-79201754D01*
X66163153Y-79146348D01*
X66283535Y-79065912D01*
X66385912Y-78963535D01*
X66466348Y-78843153D01*
X66521754Y-78709391D01*
X66550000Y-78567391D01*
X66550000Y-78422609D01*
X66521754Y-78280609D01*
X66466348Y-78146847D01*
X66385912Y-78026465D01*
X66283535Y-77924088D01*
X66163153Y-77843652D01*
X66029391Y-77788246D01*
X65887391Y-77760000D01*
X65742609Y-77760000D01*
X65600609Y-77788246D01*
X65466847Y-77843652D01*
X65346465Y-77924088D01*
X65244088Y-78026465D01*
X65163652Y-78146847D01*
X65108246Y-78280609D01*
X65080000Y-78422609D01*
X50410000Y-78422609D01*
X50410000Y-63401150D01*
X67137410Y-63401150D01*
X67137410Y-65621150D01*
X68809791Y-65621150D01*
X68809791Y-63401150D01*
X67137410Y-63401150D01*
X50410000Y-63401150D01*
X50410000Y-60582609D01*
X64910000Y-60582609D01*
X64910000Y-60727391D01*
X64938246Y-60869391D01*
X64993652Y-61003153D01*
X65074088Y-61123535D01*
X65176465Y-61225912D01*
X65296847Y-61306348D01*
X65430609Y-61361754D01*
X65572609Y-61390000D01*
X65717391Y-61390000D01*
X65859391Y-61361754D01*
X65993153Y-61306348D01*
X66113535Y-61225912D01*
X66215912Y-61123535D01*
X66296348Y-61003153D01*
X66351754Y-60869391D01*
X66380000Y-60727391D01*
X66380000Y-60582609D01*
X66376082Y-60562911D01*
X108910000Y-60562911D01*
X108910000Y-60747089D01*
X108945932Y-60927729D01*
X109016414Y-61097889D01*
X109118738Y-61251028D01*
X109248972Y-61381262D01*
X109402111Y-61483586D01*
X109572271Y-61554068D01*
X109752911Y-61590000D01*
X109937089Y-61590000D01*
X110117729Y-61554068D01*
X110287889Y-61483586D01*
X110441028Y-61381262D01*
X110571262Y-61251028D01*
X110673586Y-61097889D01*
X110744068Y-60927729D01*
X110780000Y-60747089D01*
X110780000Y-60562911D01*
X110744068Y-60382271D01*
X110673586Y-60212111D01*
X110571262Y-60058972D01*
X110441028Y-59928738D01*
X110287889Y-59826414D01*
X110117729Y-59755932D01*
X109937089Y-59720000D01*
X109752911Y-59720000D01*
X109572271Y-59755932D01*
X109402111Y-59826414D01*
X109248972Y-59928738D01*
X109118738Y-60058972D01*
X109016414Y-60212111D01*
X108945932Y-60382271D01*
X108910000Y-60562911D01*
X66376082Y-60562911D01*
X66351754Y-60440609D01*
X66296348Y-60306847D01*
X66215912Y-60186465D01*
X66113535Y-60084088D01*
X65993153Y-60003652D01*
X65859391Y-59948246D01*
X65717391Y-59920000D01*
X65572609Y-59920000D01*
X65430609Y-59948246D01*
X65296847Y-60003652D01*
X65176465Y-60084088D01*
X65074088Y-60186465D01*
X64993652Y-60306847D01*
X64938246Y-60440609D01*
X64910000Y-60582609D01*
X50410000Y-60582609D01*
X50410000Y-54380324D01*
X51595000Y-54380324D01*
X51595000Y-54879676D01*
X51692418Y-55369432D01*
X51883512Y-55830773D01*
X52160937Y-56245968D01*
X52514032Y-56599063D01*
X52929227Y-56876488D01*
X53390568Y-57067582D01*
X53880324Y-57165000D01*
X54379676Y-57165000D01*
X54869432Y-57067582D01*
X55330773Y-56876488D01*
X55745968Y-56599063D01*
X56099063Y-56245968D01*
X56376488Y-55830773D01*
X56567582Y-55369432D01*
X56665000Y-54879676D01*
X56665000Y-54380324D01*
X56567582Y-53890568D01*
X56376488Y-53429227D01*
X56099063Y-53014032D01*
X55745968Y-52660937D01*
X55330773Y-52383512D01*
X54869432Y-52192418D01*
X54379676Y-52095000D01*
X53880324Y-52095000D01*
X53390568Y-52192418D01*
X52929227Y-52383512D01*
X52514032Y-52660937D01*
X52160937Y-53014032D01*
X51883512Y-53429227D01*
X51692418Y-53890568D01*
X51595000Y-54380324D01*
X50410000Y-54380324D01*
X50410000Y-50410000D01*
X59020142Y-50410000D01*
X58397837Y-50825811D01*
X58397837Y-50825811D01*
G37*
X58397837Y-50825811D02*
X57835811Y-51387837D01*
X57394229Y-52048711D01*
X57090062Y-52783034D01*
X56935000Y-53562587D01*
X56935000Y-54357413D01*
X57090062Y-55136966D01*
X57394229Y-55871289D01*
X57835811Y-56532163D01*
X58397837Y-57094189D01*
X59058711Y-57535771D01*
X59793034Y-57839938D01*
X60572587Y-57995000D01*
X61367413Y-57995000D01*
X62146966Y-57839938D01*
X62881289Y-57535771D01*
X63542163Y-57094189D01*
X64104189Y-56532163D01*
X64404584Y-56082590D01*
X67045910Y-56082590D01*
X67045910Y-58302590D01*
X68718291Y-58302590D01*
X68718291Y-56082590D01*
X67045910Y-56082590D01*
X64404584Y-56082590D01*
X64545771Y-55871289D01*
X64849938Y-55136966D01*
X65005000Y-54357413D01*
X65005000Y-53562587D01*
X64849938Y-52783034D01*
X64545771Y-52048711D01*
X64104189Y-51387837D01*
X63542163Y-50825811D01*
X62919858Y-50410000D01*
X113170142Y-50410000D01*
X112547837Y-50825811D01*
X111985811Y-51387837D01*
X111544229Y-52048711D01*
X111240062Y-52783034D01*
X111085000Y-53562587D01*
X111085000Y-54357413D01*
X111240062Y-55136966D01*
X111544229Y-55871289D01*
X111985811Y-56532163D01*
X112547837Y-57094189D01*
X113208711Y-57535771D01*
X113943034Y-57839938D01*
X114722587Y-57995000D01*
X115517413Y-57995000D01*
X116296966Y-57839938D01*
X117031289Y-57535771D01*
X117692163Y-57094189D01*
X118254189Y-56532163D01*
X118673178Y-55905103D01*
X118900937Y-56245968D01*
X119254032Y-56599063D01*
X119669227Y-56876488D01*
X120130568Y-57067582D01*
X120620324Y-57165000D01*
X121119676Y-57165000D01*
X121609432Y-57067582D01*
X122070773Y-56876488D01*
X122485968Y-56599063D01*
X122839063Y-56245968D01*
X123116488Y-55830773D01*
X123307582Y-55369432D01*
X123405000Y-54879676D01*
X123405000Y-54380324D01*
X123307582Y-53890568D01*
X123116488Y-53429227D01*
X122839063Y-53014032D01*
X122485968Y-52660937D01*
X122070773Y-52383512D01*
X121609432Y-52192418D01*
X121119676Y-52095000D01*
X120620324Y-52095000D01*
X120130568Y-52192418D01*
X119669227Y-52383512D01*
X119254032Y-52660937D01*
X119021838Y-52893131D01*
X118999938Y-52783034D01*
X118695771Y-52048711D01*
X118254189Y-51387837D01*
X117692163Y-50825811D01*
X117069858Y-50410000D01*
X124590000Y-50410000D01*
X124590001Y-156590000D01*
X50410000Y-156590000D01*
X50410000Y-154351314D01*
X52360600Y-154351314D01*
X52360600Y-154614286D01*
X52411904Y-154872205D01*
X52512539Y-155115159D01*
X52658638Y-155333813D01*
X52844587Y-155519762D01*
X53063241Y-155665861D01*
X53306195Y-155766496D01*
X53564114Y-155817800D01*
X53827086Y-155817800D01*
X54085005Y-155766496D01*
X54327959Y-155665861D01*
X54546613Y-155519762D01*
X54732562Y-155333813D01*
X54878661Y-155115159D01*
X54979296Y-154872205D01*
X55030600Y-154614286D01*
X55030600Y-154351314D01*
X55025548Y-154325914D01*
X55662600Y-154325914D01*
X55662600Y-154588886D01*
X55713904Y-154846805D01*
X55814539Y-155089759D01*
X55960638Y-155308413D01*
X56146587Y-155494362D01*
X56365241Y-155640461D01*
X56608195Y-155741096D01*
X56866114Y-155792400D01*
X57129086Y-155792400D01*
X57387005Y-155741096D01*
X57629959Y-155640461D01*
X57848613Y-155494362D01*
X58034562Y-155308413D01*
X58180661Y-155089759D01*
X58281296Y-154846805D01*
X58332600Y-154588886D01*
X58332600Y-154325914D01*
X59371000Y-154325914D01*
X59371000Y-154588886D01*
X59422304Y-154846805D01*
X59522939Y-155089759D01*
X59669038Y-155308413D01*
X59854987Y-155494362D01*
X60073641Y-155640461D01*
X60316595Y-155741096D01*
X60574514Y-155792400D01*
X60837486Y-155792400D01*
X61095405Y-155741096D01*
X61338359Y-155640461D01*
X61557013Y-155494362D01*
X61742962Y-155308413D01*
X61889061Y-155089759D01*
X61989696Y-154846805D01*
X62041000Y-154588886D01*
X62041000Y-154325914D01*
X63409600Y-154325914D01*
X63409600Y-154588886D01*
X63460904Y-154846805D01*
X63561539Y-155089759D01*
X63707638Y-155308413D01*
X63893587Y-155494362D01*
X64112241Y-155640461D01*
X64355195Y-155741096D01*
X64613114Y-155792400D01*
X64876086Y-155792400D01*
X65134005Y-155741096D01*
X65376959Y-155640461D01*
X65595613Y-155494362D01*
X65781562Y-155308413D01*
X65927661Y-155089759D01*
X66028296Y-154846805D01*
X66079600Y-154588886D01*
X66079600Y-154402114D01*
X67016400Y-154402114D01*
X67016400Y-154665086D01*
X67067704Y-154923005D01*
X67168339Y-155165959D01*
X67314438Y-155384613D01*
X67500387Y-155570562D01*
X67719041Y-155716661D01*
X67961995Y-155817296D01*
X68219914Y-155868600D01*
X68482886Y-155868600D01*
X68740805Y-155817296D01*
X68983759Y-155716661D01*
X69202413Y-155570562D01*
X69388362Y-155384613D01*
X69534461Y-155165959D01*
X69635096Y-154923005D01*
X69686400Y-154665086D01*
X69686400Y-154402114D01*
X69635096Y-154144195D01*
X69534461Y-153901241D01*
X69388362Y-153682587D01*
X69202413Y-153496638D01*
X68983759Y-153350539D01*
X68929346Y-153328000D01*
X75114980Y-153328000D01*
X75114980Y-155028000D01*
X75121448Y-155093671D01*
X75140604Y-155156819D01*
X75171711Y-155215016D01*
X75213574Y-155266026D01*
X75264584Y-155307889D01*
X75322781Y-155338996D01*
X75385929Y-155358152D01*
X75451600Y-155364620D01*
X77151600Y-155364620D01*
X77217271Y-155358152D01*
X77280419Y-155338996D01*
X77338616Y-155307889D01*
X77389626Y-155266026D01*
X77431489Y-155215016D01*
X77462596Y-155156819D01*
X77481752Y-155093671D01*
X77488220Y-155028000D01*
X77488220Y-154178000D01*
X77650867Y-154178000D01*
X77673747Y-154410300D01*
X77741506Y-154633674D01*
X77851542Y-154839536D01*
X77999625Y-155019975D01*
X78180064Y-155168058D01*
X78385926Y-155278094D01*
X78609300Y-155345853D01*
X78783393Y-155363000D01*
X78899807Y-155363000D01*
X79073900Y-155345853D01*
X79297274Y-155278094D01*
X79503136Y-155168058D01*
X79683575Y-155019975D01*
X79831658Y-154839536D01*
X79941694Y-154633674D01*
X80009453Y-154410300D01*
X80032333Y-154178000D01*
X80190867Y-154178000D01*
X80213747Y-154410300D01*
X80281506Y-154633674D01*
X80391542Y-154839536D01*
X80539625Y-155019975D01*
X80720064Y-155168058D01*
X80925926Y-155278094D01*
X81149300Y-155345853D01*
X81323393Y-155363000D01*
X81439807Y-155363000D01*
X81613900Y-155345853D01*
X81837274Y-155278094D01*
X82043136Y-155168058D01*
X82223575Y-155019975D01*
X82371658Y-154839536D01*
X82481694Y-154633674D01*
X82549453Y-154410300D01*
X82572333Y-154178000D01*
X82730867Y-154178000D01*
X82753747Y-154410300D01*
X82821506Y-154633674D01*
X82931542Y-154839536D01*
X83079625Y-155019975D01*
X83260064Y-155168058D01*
X83465926Y-155278094D01*
X83689300Y-155345853D01*
X83863393Y-155363000D01*
X83979807Y-155363000D01*
X84153900Y-155345853D01*
X84377274Y-155278094D01*
X84583136Y-155168058D01*
X84763575Y-155019975D01*
X84911658Y-154839536D01*
X85021694Y-154633674D01*
X85089453Y-154410300D01*
X85112333Y-154178000D01*
X85270867Y-154178000D01*
X85293747Y-154410300D01*
X85361506Y-154633674D01*
X85471542Y-154839536D01*
X85619625Y-155019975D01*
X85800064Y-155168058D01*
X86005926Y-155278094D01*
X86229300Y-155345853D01*
X86403393Y-155363000D01*
X86519807Y-155363000D01*
X86693900Y-155345853D01*
X86917274Y-155278094D01*
X87123136Y-155168058D01*
X87303575Y-155019975D01*
X87451658Y-154839536D01*
X87561694Y-154633674D01*
X87629453Y-154410300D01*
X87652333Y-154178000D01*
X87810867Y-154178000D01*
X87833747Y-154410300D01*
X87901506Y-154633674D01*
X88011542Y-154839536D01*
X88159625Y-155019975D01*
X88340064Y-155168058D01*
X88545926Y-155278094D01*
X88769300Y-155345853D01*
X88943393Y-155363000D01*
X89059807Y-155363000D01*
X89233900Y-155345853D01*
X89457274Y-155278094D01*
X89663136Y-155168058D01*
X89843575Y-155019975D01*
X89991658Y-154839536D01*
X90101694Y-154633674D01*
X90169453Y-154410300D01*
X90192333Y-154178000D01*
X90350867Y-154178000D01*
X90373747Y-154410300D01*
X90441506Y-154633674D01*
X90551542Y-154839536D01*
X90699625Y-155019975D01*
X90880064Y-155168058D01*
X91085926Y-155278094D01*
X91309300Y-155345853D01*
X91483393Y-155363000D01*
X91599807Y-155363000D01*
X91773900Y-155345853D01*
X91997274Y-155278094D01*
X92203136Y-155168058D01*
X92383575Y-155019975D01*
X92531658Y-154839536D01*
X92641694Y-154633674D01*
X92709453Y-154410300D01*
X92732333Y-154178000D01*
X92890867Y-154178000D01*
X92913747Y-154410300D01*
X92981506Y-154633674D01*
X93091542Y-154839536D01*
X93239625Y-155019975D01*
X93420064Y-155168058D01*
X93625926Y-155278094D01*
X93849300Y-155345853D01*
X94023393Y-155363000D01*
X94139807Y-155363000D01*
X94313900Y-155345853D01*
X94537274Y-155278094D01*
X94743136Y-155168058D01*
X94923575Y-155019975D01*
X95071658Y-154839536D01*
X95181694Y-154633674D01*
X95249453Y-154410300D01*
X95272333Y-154178000D01*
X95430867Y-154178000D01*
X95453747Y-154410300D01*
X95521506Y-154633674D01*
X95631542Y-154839536D01*
X95779625Y-155019975D01*
X95960064Y-155168058D01*
X96165926Y-155278094D01*
X96389300Y-155345853D01*
X96563393Y-155363000D01*
X96679807Y-155363000D01*
X96853900Y-155345853D01*
X97077274Y-155278094D01*
X97283136Y-155168058D01*
X97463575Y-155019975D01*
X97611658Y-154839536D01*
X97721694Y-154633674D01*
X97737121Y-154582819D01*
X97817443Y-154809252D01*
X97966422Y-155059355D01*
X98161331Y-155275588D01*
X98394680Y-155449641D01*
X98657501Y-155574825D01*
X98804710Y-155619476D01*
X99034600Y-155498155D01*
X99034600Y-154305000D01*
X99288600Y-154305000D01*
X99288600Y-155498155D01*
X99518490Y-155619476D01*
X99665699Y-155574825D01*
X99928520Y-155449641D01*
X100161869Y-155275588D01*
X100356778Y-155059355D01*
X100505757Y-154809252D01*
X100603081Y-154534891D01*
X100482414Y-154305000D01*
X99288600Y-154305000D01*
X99034600Y-154305000D01*
X99014600Y-154305000D01*
X99014600Y-154051000D01*
X99034600Y-154051000D01*
X99034600Y-152857845D01*
X99288600Y-152857845D01*
X99288600Y-154051000D01*
X100482414Y-154051000D01*
X100498100Y-154021114D01*
X103694000Y-154021114D01*
X103694000Y-154284086D01*
X103745304Y-154542005D01*
X103845939Y-154784959D01*
X103992038Y-155003613D01*
X104177987Y-155189562D01*
X104396641Y-155335661D01*
X104639595Y-155436296D01*
X104897514Y-155487600D01*
X105160486Y-155487600D01*
X105418405Y-155436296D01*
X105661359Y-155335661D01*
X105880013Y-155189562D01*
X106065962Y-155003613D01*
X106212061Y-154784959D01*
X106312696Y-154542005D01*
X106364000Y-154284086D01*
X106364000Y-154021114D01*
X106996000Y-154021114D01*
X106996000Y-154284086D01*
X107047304Y-154542005D01*
X107147939Y-154784959D01*
X107294038Y-155003613D01*
X107479987Y-155189562D01*
X107698641Y-155335661D01*
X107941595Y-155436296D01*
X108199514Y-155487600D01*
X108462486Y-155487600D01*
X108720405Y-155436296D01*
X108963359Y-155335661D01*
X109182013Y-155189562D01*
X109367962Y-155003613D01*
X109514061Y-154784959D01*
X109614696Y-154542005D01*
X109666000Y-154284086D01*
X109666000Y-154021114D01*
X109614696Y-153763195D01*
X109514061Y-153520241D01*
X109367962Y-153301587D01*
X109182013Y-153115638D01*
X108963359Y-152969539D01*
X108720405Y-152868904D01*
X108462486Y-152817600D01*
X108199514Y-152817600D01*
X107941595Y-152868904D01*
X107698641Y-152969539D01*
X107479987Y-153115638D01*
X107294038Y-153301587D01*
X107147939Y-153520241D01*
X107047304Y-153763195D01*
X106996000Y-154021114D01*
X106364000Y-154021114D01*
X106312696Y-153763195D01*
X106212061Y-153520241D01*
X106065962Y-153301587D01*
X105880013Y-153115638D01*
X105661359Y-152969539D01*
X105418405Y-152868904D01*
X105160486Y-152817600D01*
X104897514Y-152817600D01*
X104639595Y-152868904D01*
X104396641Y-152969539D01*
X104177987Y-153115638D01*
X103992038Y-153301587D01*
X103845939Y-153520241D01*
X103745304Y-153763195D01*
X103694000Y-154021114D01*
X100498100Y-154021114D01*
X100603081Y-153821109D01*
X100505757Y-153546748D01*
X100356778Y-153296645D01*
X100161869Y-153080412D01*
X99928520Y-152906359D01*
X99665699Y-152781175D01*
X99518490Y-152736524D01*
X99288600Y-152857845D01*
X99034600Y-152857845D01*
X98804710Y-152736524D01*
X98657501Y-152781175D01*
X98394680Y-152906359D01*
X98161331Y-153080412D01*
X97966422Y-153296645D01*
X97817443Y-153546748D01*
X97737121Y-153773181D01*
X97721694Y-153722326D01*
X97611658Y-153516464D01*
X97463575Y-153336025D01*
X97283136Y-153187942D01*
X97077274Y-153077906D01*
X96853900Y-153010147D01*
X96679807Y-152993000D01*
X96563393Y-152993000D01*
X96389300Y-153010147D01*
X96165926Y-153077906D01*
X95960064Y-153187942D01*
X95779625Y-153336025D01*
X95631542Y-153516464D01*
X95521506Y-153722326D01*
X95453747Y-153945700D01*
X95430867Y-154178000D01*
X95272333Y-154178000D01*
X95249453Y-153945700D01*
X95181694Y-153722326D01*
X95071658Y-153516464D01*
X94923575Y-153336025D01*
X94743136Y-153187942D01*
X94537274Y-153077906D01*
X94313900Y-153010147D01*
X94139807Y-152993000D01*
X94023393Y-152993000D01*
X93849300Y-153010147D01*
X93625926Y-153077906D01*
X93420064Y-153187942D01*
X93239625Y-153336025D01*
X93091542Y-153516464D01*
X92981506Y-153722326D01*
X92913747Y-153945700D01*
X92890867Y-154178000D01*
X92732333Y-154178000D01*
X92709453Y-153945700D01*
X92641694Y-153722326D01*
X92531658Y-153516464D01*
X92383575Y-153336025D01*
X92203136Y-153187942D01*
X91997274Y-153077906D01*
X91773900Y-153010147D01*
X91599807Y-152993000D01*
X91483393Y-152993000D01*
X91309300Y-153010147D01*
X91085926Y-153077906D01*
X90880064Y-153187942D01*
X90699625Y-153336025D01*
X90551542Y-153516464D01*
X90441506Y-153722326D01*
X90373747Y-153945700D01*
X90350867Y-154178000D01*
X90192333Y-154178000D01*
X90169453Y-153945700D01*
X90101694Y-153722326D01*
X89991658Y-153516464D01*
X89843575Y-153336025D01*
X89663136Y-153187942D01*
X89457274Y-153077906D01*
X89233900Y-153010147D01*
X89059807Y-152993000D01*
X88943393Y-152993000D01*
X88769300Y-153010147D01*
X88545926Y-153077906D01*
X88340064Y-153187942D01*
X88159625Y-153336025D01*
X88011542Y-153516464D01*
X87901506Y-153722326D01*
X87833747Y-153945700D01*
X87810867Y-154178000D01*
X87652333Y-154178000D01*
X87629453Y-153945700D01*
X87561694Y-153722326D01*
X87451658Y-153516464D01*
X87303575Y-153336025D01*
X87123136Y-153187942D01*
X86917274Y-153077906D01*
X86693900Y-153010147D01*
X86519807Y-152993000D01*
X86403393Y-152993000D01*
X86229300Y-153010147D01*
X86005926Y-153077906D01*
X85800064Y-153187942D01*
X85619625Y-153336025D01*
X85471542Y-153516464D01*
X85361506Y-153722326D01*
X85293747Y-153945700D01*
X85270867Y-154178000D01*
X85112333Y-154178000D01*
X85089453Y-153945700D01*
X85021694Y-153722326D01*
X84911658Y-153516464D01*
X84763575Y-153336025D01*
X84583136Y-153187942D01*
X84377274Y-153077906D01*
X84153900Y-153010147D01*
X83979807Y-152993000D01*
X83863393Y-152993000D01*
X83689300Y-153010147D01*
X83465926Y-153077906D01*
X83260064Y-153187942D01*
X83079625Y-153336025D01*
X82931542Y-153516464D01*
X82821506Y-153722326D01*
X82753747Y-153945700D01*
X82730867Y-154178000D01*
X82572333Y-154178000D01*
X82549453Y-153945700D01*
X82481694Y-153722326D01*
X82371658Y-153516464D01*
X82223575Y-153336025D01*
X82043136Y-153187942D01*
X81837274Y-153077906D01*
X81613900Y-153010147D01*
X81439807Y-152993000D01*
X81323393Y-152993000D01*
X81149300Y-153010147D01*
X80925926Y-153077906D01*
X80720064Y-153187942D01*
X80539625Y-153336025D01*
X80391542Y-153516464D01*
X80281506Y-153722326D01*
X80213747Y-153945700D01*
X80190867Y-154178000D01*
X80032333Y-154178000D01*
X80009453Y-153945700D01*
X79941694Y-153722326D01*
X79831658Y-153516464D01*
X79683575Y-153336025D01*
X79503136Y-153187942D01*
X79297274Y-153077906D01*
X79073900Y-153010147D01*
X78899807Y-152993000D01*
X78783393Y-152993000D01*
X78609300Y-153010147D01*
X78385926Y-153077906D01*
X78180064Y-153187942D01*
X77999625Y-153336025D01*
X77851542Y-153516464D01*
X77741506Y-153722326D01*
X77673747Y-153945700D01*
X77650867Y-154178000D01*
X77488220Y-154178000D01*
X77488220Y-153328000D01*
X77481752Y-153262329D01*
X77462596Y-153199181D01*
X77431489Y-153140984D01*
X77389626Y-153089974D01*
X77338616Y-153048111D01*
X77280419Y-153017004D01*
X77217271Y-152997848D01*
X77151600Y-152991380D01*
X75451600Y-152991380D01*
X75385929Y-152997848D01*
X75322781Y-153017004D01*
X75264584Y-153048111D01*
X75213574Y-153089974D01*
X75171711Y-153140984D01*
X75140604Y-153199181D01*
X75121448Y-153262329D01*
X75114980Y-153328000D01*
X68929346Y-153328000D01*
X68740805Y-153249904D01*
X68482886Y-153198600D01*
X68219914Y-153198600D01*
X67961995Y-153249904D01*
X67719041Y-153350539D01*
X67500387Y-153496638D01*
X67314438Y-153682587D01*
X67168339Y-153901241D01*
X67067704Y-154144195D01*
X67016400Y-154402114D01*
X66079600Y-154402114D01*
X66079600Y-154325914D01*
X66028296Y-154067995D01*
X65927661Y-153825041D01*
X65781562Y-153606387D01*
X65595613Y-153420438D01*
X65376959Y-153274339D01*
X65134005Y-153173704D01*
X64876086Y-153122400D01*
X64613114Y-153122400D01*
X64355195Y-153173704D01*
X64112241Y-153274339D01*
X63893587Y-153420438D01*
X63707638Y-153606387D01*
X63561539Y-153825041D01*
X63460904Y-154067995D01*
X63409600Y-154325914D01*
X62041000Y-154325914D01*
X61989696Y-154067995D01*
X61889061Y-153825041D01*
X61742962Y-153606387D01*
X61557013Y-153420438D01*
X61338359Y-153274339D01*
X61095405Y-153173704D01*
X60837486Y-153122400D01*
X60574514Y-153122400D01*
X60316595Y-153173704D01*
X60073641Y-153274339D01*
X59854987Y-153420438D01*
X59669038Y-153606387D01*
X59522939Y-153825041D01*
X59422304Y-154067995D01*
X59371000Y-154325914D01*
X58332600Y-154325914D01*
X58281296Y-154067995D01*
X58180661Y-153825041D01*
X58034562Y-153606387D01*
X57848613Y-153420438D01*
X57629959Y-153274339D01*
X57387005Y-153173704D01*
X57129086Y-153122400D01*
X56866114Y-153122400D01*
X56608195Y-153173704D01*
X56365241Y-153274339D01*
X56146587Y-153420438D01*
X55960638Y-153606387D01*
X55814539Y-153825041D01*
X55713904Y-154067995D01*
X55662600Y-154325914D01*
X55025548Y-154325914D01*
X54979296Y-154093395D01*
X54878661Y-153850441D01*
X54732562Y-153631787D01*
X54546613Y-153445838D01*
X54327959Y-153299739D01*
X54085005Y-153199104D01*
X53827086Y-153147800D01*
X53564114Y-153147800D01*
X53306195Y-153199104D01*
X53063241Y-153299739D01*
X52844587Y-153445838D01*
X52658638Y-153631787D01*
X52512539Y-153850441D01*
X52411904Y-154093395D01*
X52360600Y-154351314D01*
X50410000Y-154351314D01*
X50410000Y-151621960D01*
X111499200Y-151621960D01*
X111499200Y-151786440D01*
X111531289Y-151947760D01*
X111594233Y-152099721D01*
X111685613Y-152236481D01*
X111801919Y-152352787D01*
X111938679Y-152444167D01*
X112090640Y-152507111D01*
X112251960Y-152539200D01*
X112416440Y-152539200D01*
X112577760Y-152507111D01*
X112649777Y-152477281D01*
X112570896Y-152667717D01*
X112529200Y-152877337D01*
X112529200Y-153091063D01*
X112570896Y-153300683D01*
X112649777Y-153491119D01*
X112577760Y-153461289D01*
X112416440Y-153429200D01*
X112251960Y-153429200D01*
X112090640Y-153461289D01*
X111938679Y-153524233D01*
X111801919Y-153615613D01*
X111685613Y-153731919D01*
X111594233Y-153868679D01*
X111531289Y-154020640D01*
X111499200Y-154181960D01*
X111499200Y-154346440D01*
X111531289Y-154507760D01*
X111594233Y-154659721D01*
X111685613Y-154796481D01*
X111801919Y-154912787D01*
X111938679Y-155004167D01*
X112090640Y-155067111D01*
X112251960Y-155099200D01*
X112416440Y-155099200D01*
X112577760Y-155067111D01*
X112729721Y-155004167D01*
X112866481Y-154912787D01*
X112982787Y-154796481D01*
X113074167Y-154659721D01*
X113137111Y-154507760D01*
X113169200Y-154346440D01*
X113169200Y-154181960D01*
X113137111Y-154020640D01*
X113107281Y-153948623D01*
X113297717Y-154027504D01*
X113507337Y-154069200D01*
X113721063Y-154069200D01*
X113930683Y-154027504D01*
X114121119Y-153948623D01*
X114091289Y-154020640D01*
X114059200Y-154181960D01*
X114059200Y-154346440D01*
X114091289Y-154507760D01*
X114154233Y-154659721D01*
X114245613Y-154796481D01*
X114361919Y-154912787D01*
X114498679Y-155004167D01*
X114650640Y-155067111D01*
X114811960Y-155099200D01*
X114976440Y-155099200D01*
X115137760Y-155067111D01*
X115289721Y-155004167D01*
X115426481Y-154912787D01*
X115542787Y-154796481D01*
X115634167Y-154659721D01*
X115697111Y-154507760D01*
X115729200Y-154346440D01*
X115729200Y-154181960D01*
X115697111Y-154020640D01*
X115634167Y-153868679D01*
X115542787Y-153731919D01*
X115426481Y-153615613D01*
X115289721Y-153524233D01*
X115137760Y-153461289D01*
X114976440Y-153429200D01*
X114811960Y-153429200D01*
X114650640Y-153461289D01*
X114578623Y-153491119D01*
X114657504Y-153300683D01*
X114699200Y-153091063D01*
X114699200Y-152877337D01*
X114657504Y-152667717D01*
X114578623Y-152477281D01*
X114650640Y-152507111D01*
X114811960Y-152539200D01*
X114976440Y-152539200D01*
X115137760Y-152507111D01*
X115289721Y-152444167D01*
X115426481Y-152352787D01*
X115542787Y-152236481D01*
X115634167Y-152099721D01*
X115697111Y-151947760D01*
X115729200Y-151786440D01*
X115729200Y-151621960D01*
X115724148Y-151596560D01*
X118509600Y-151596560D01*
X118509600Y-151761040D01*
X118541689Y-151922360D01*
X118604633Y-152074321D01*
X118696013Y-152211081D01*
X118812319Y-152327387D01*
X118949079Y-152418767D01*
X119101040Y-152481711D01*
X119262360Y-152513800D01*
X119426840Y-152513800D01*
X119588160Y-152481711D01*
X119660177Y-152451881D01*
X119581296Y-152642317D01*
X119539600Y-152851937D01*
X119539600Y-153065663D01*
X119581296Y-153275283D01*
X119660177Y-153465719D01*
X119588160Y-153435889D01*
X119426840Y-153403800D01*
X119262360Y-153403800D01*
X119101040Y-153435889D01*
X118949079Y-153498833D01*
X118812319Y-153590213D01*
X118696013Y-153706519D01*
X118604633Y-153843279D01*
X118541689Y-153995240D01*
X118509600Y-154156560D01*
X118509600Y-154321040D01*
X118541689Y-154482360D01*
X118604633Y-154634321D01*
X118696013Y-154771081D01*
X118812319Y-154887387D01*
X118949079Y-154978767D01*
X119101040Y-155041711D01*
X119262360Y-155073800D01*
X119426840Y-155073800D01*
X119588160Y-155041711D01*
X119740121Y-154978767D01*
X119876881Y-154887387D01*
X119993187Y-154771081D01*
X120084567Y-154634321D01*
X120147511Y-154482360D01*
X120179600Y-154321040D01*
X120179600Y-154156560D01*
X120147511Y-153995240D01*
X120117681Y-153923223D01*
X120308117Y-154002104D01*
X120517737Y-154043800D01*
X120731463Y-154043800D01*
X120941083Y-154002104D01*
X121131519Y-153923223D01*
X121101689Y-153995240D01*
X121069600Y-154156560D01*
X121069600Y-154321040D01*
X121101689Y-154482360D01*
X121164633Y-154634321D01*
X121256013Y-154771081D01*
X121372319Y-154887387D01*
X121509079Y-154978767D01*
X121661040Y-155041711D01*
X121822360Y-155073800D01*
X121986840Y-155073800D01*
X122148160Y-155041711D01*
X122300121Y-154978767D01*
X122436881Y-154887387D01*
X122553187Y-154771081D01*
X122644567Y-154634321D01*
X122707511Y-154482360D01*
X122739600Y-154321040D01*
X122739600Y-154156560D01*
X122707511Y-153995240D01*
X122644567Y-153843279D01*
X122553187Y-153706519D01*
X122436881Y-153590213D01*
X122300121Y-153498833D01*
X122148160Y-153435889D01*
X121986840Y-153403800D01*
X121822360Y-153403800D01*
X121661040Y-153435889D01*
X121589023Y-153465719D01*
X121667904Y-153275283D01*
X121709600Y-153065663D01*
X121709600Y-152851937D01*
X121667904Y-152642317D01*
X121589023Y-152451881D01*
X121661040Y-152481711D01*
X121822360Y-152513800D01*
X121986840Y-152513800D01*
X122148160Y-152481711D01*
X122300121Y-152418767D01*
X122436881Y-152327387D01*
X122553187Y-152211081D01*
X122644567Y-152074321D01*
X122707511Y-151922360D01*
X122739600Y-151761040D01*
X122739600Y-151596560D01*
X122707511Y-151435240D01*
X122644567Y-151283279D01*
X122553187Y-151146519D01*
X122436881Y-151030213D01*
X122300121Y-150938833D01*
X122148160Y-150875889D01*
X121986840Y-150843800D01*
X121822360Y-150843800D01*
X121661040Y-150875889D01*
X121509079Y-150938833D01*
X121372319Y-151030213D01*
X121256013Y-151146519D01*
X121164633Y-151283279D01*
X121101689Y-151435240D01*
X121069600Y-151596560D01*
X121069600Y-151761040D01*
X121101689Y-151922360D01*
X121131519Y-151994377D01*
X120941083Y-151915496D01*
X120731463Y-151873800D01*
X120517737Y-151873800D01*
X120308117Y-151915496D01*
X120117681Y-151994377D01*
X120147511Y-151922360D01*
X120179600Y-151761040D01*
X120179600Y-151596560D01*
X120147511Y-151435240D01*
X120084567Y-151283279D01*
X119993187Y-151146519D01*
X119876881Y-151030213D01*
X119740121Y-150938833D01*
X119588160Y-150875889D01*
X119426840Y-150843800D01*
X119262360Y-150843800D01*
X119101040Y-150875889D01*
X118949079Y-150938833D01*
X118812319Y-151030213D01*
X118696013Y-151146519D01*
X118604633Y-151283279D01*
X118541689Y-151435240D01*
X118509600Y-151596560D01*
X115724148Y-151596560D01*
X115697111Y-151460640D01*
X115634167Y-151308679D01*
X115542787Y-151171919D01*
X115426481Y-151055613D01*
X115289721Y-150964233D01*
X115137760Y-150901289D01*
X114976440Y-150869200D01*
X114811960Y-150869200D01*
X114650640Y-150901289D01*
X114498679Y-150964233D01*
X114361919Y-151055613D01*
X114245613Y-151171919D01*
X114154233Y-151308679D01*
X114091289Y-151460640D01*
X114059200Y-151621960D01*
X114059200Y-151786440D01*
X114091289Y-151947760D01*
X114121119Y-152019777D01*
X113930683Y-151940896D01*
X113721063Y-151899200D01*
X113507337Y-151899200D01*
X113297717Y-151940896D01*
X113107281Y-152019777D01*
X113137111Y-151947760D01*
X113169200Y-151786440D01*
X113169200Y-151621960D01*
X113137111Y-151460640D01*
X113074167Y-151308679D01*
X112982787Y-151171919D01*
X112866481Y-151055613D01*
X112729721Y-150964233D01*
X112577760Y-150901289D01*
X112416440Y-150869200D01*
X112251960Y-150869200D01*
X112090640Y-150901289D01*
X111938679Y-150964233D01*
X111801919Y-151055613D01*
X111685613Y-151171919D01*
X111594233Y-151308679D01*
X111531289Y-151460640D01*
X111499200Y-151621960D01*
X50410000Y-151621960D01*
X50410000Y-150571494D01*
X72258200Y-150571494D01*
X72258200Y-150672506D01*
X72277907Y-150771578D01*
X72316563Y-150864902D01*
X72372682Y-150948891D01*
X72444109Y-151020318D01*
X72528098Y-151076437D01*
X72621422Y-151115093D01*
X72720494Y-151134800D01*
X72821506Y-151134800D01*
X72920578Y-151115093D01*
X73013902Y-151076437D01*
X73059604Y-151045900D01*
X87048016Y-151045900D01*
X87202383Y-151200268D01*
X87213107Y-151254178D01*
X87251763Y-151347502D01*
X87307882Y-151431491D01*
X87379309Y-151502918D01*
X87463298Y-151559037D01*
X87556622Y-151597693D01*
X87655694Y-151617400D01*
X87756706Y-151617400D01*
X87855778Y-151597693D01*
X87949102Y-151559037D01*
X88033091Y-151502918D01*
X88104518Y-151431491D01*
X88160637Y-151347502D01*
X88199293Y-151254178D01*
X88219000Y-151155106D01*
X88219000Y-151054094D01*
X88199293Y-150955022D01*
X88160637Y-150861698D01*
X88104518Y-150777709D01*
X88033091Y-150706282D01*
X87949102Y-150650163D01*
X87855778Y-150611507D01*
X87801868Y-150600783D01*
X87538073Y-150336989D01*
X87524793Y-150320807D01*
X87460246Y-150267835D01*
X87386604Y-150228473D01*
X87306699Y-150204234D01*
X87244423Y-150198100D01*
X87223600Y-150196049D01*
X87202777Y-150198100D01*
X73059604Y-150198100D01*
X73013902Y-150167563D01*
X72920578Y-150128907D01*
X72821506Y-150109200D01*
X72720494Y-150109200D01*
X72621422Y-150128907D01*
X72528098Y-150167563D01*
X72444109Y-150223682D01*
X72372682Y-150295109D01*
X72316563Y-150379098D01*
X72277907Y-150472422D01*
X72258200Y-150571494D01*
X50410000Y-150571494D01*
X50410000Y-146230324D01*
X51595000Y-146230324D01*
X51595000Y-146729676D01*
X51692418Y-147219432D01*
X51883512Y-147680773D01*
X52160937Y-148095968D01*
X52514032Y-148449063D01*
X52929227Y-148726488D01*
X53390568Y-148917582D01*
X53880324Y-149015000D01*
X54379676Y-149015000D01*
X54869432Y-148917582D01*
X55330773Y-148726488D01*
X55745968Y-148449063D01*
X56099063Y-148095968D01*
X56376488Y-147680773D01*
X56567582Y-147219432D01*
X56665000Y-146729676D01*
X56665000Y-146230324D01*
X56571962Y-145762587D01*
X56935000Y-145762587D01*
X56935000Y-146557413D01*
X57090062Y-147336966D01*
X57394229Y-148071289D01*
X57835811Y-148732163D01*
X58397837Y-149294189D01*
X59058711Y-149735771D01*
X59793034Y-150039938D01*
X60572587Y-150195000D01*
X61367413Y-150195000D01*
X62146966Y-150039938D01*
X62881289Y-149735771D01*
X63542163Y-149294189D01*
X64104189Y-148732163D01*
X64545771Y-148071289D01*
X64849938Y-147336966D01*
X65005000Y-146557413D01*
X65005000Y-145762587D01*
X111085000Y-145762587D01*
X111085000Y-146557413D01*
X111240062Y-147336966D01*
X111544229Y-148071289D01*
X111985811Y-148732163D01*
X112547837Y-149294189D01*
X113208711Y-149735771D01*
X113943034Y-150039938D01*
X114722587Y-150195000D01*
X115517413Y-150195000D01*
X116296966Y-150039938D01*
X117031289Y-149735771D01*
X117692163Y-149294189D01*
X118254189Y-148732163D01*
X118695771Y-148071289D01*
X118767974Y-147896975D01*
X118900937Y-148095968D01*
X119254032Y-148449063D01*
X119669227Y-148726488D01*
X120130568Y-148917582D01*
X120620324Y-149015000D01*
X121119676Y-149015000D01*
X121609432Y-148917582D01*
X122070773Y-148726488D01*
X122485968Y-148449063D01*
X122839063Y-148095968D01*
X123116488Y-147680773D01*
X123307582Y-147219432D01*
X123405000Y-146729676D01*
X123405000Y-146230324D01*
X123307582Y-145740568D01*
X123116488Y-145279227D01*
X122839063Y-144864032D01*
X122485968Y-144510937D01*
X122070773Y-144233512D01*
X121609432Y-144042418D01*
X121119676Y-143945000D01*
X120620324Y-143945000D01*
X120130568Y-144042418D01*
X119669227Y-144233512D01*
X119254032Y-144510937D01*
X118936086Y-144828883D01*
X118695771Y-144248711D01*
X118254189Y-143587837D01*
X117692163Y-143025811D01*
X117031289Y-142584229D01*
X116296966Y-142280062D01*
X115517413Y-142125000D01*
X114722587Y-142125000D01*
X113943034Y-142280062D01*
X113208711Y-142584229D01*
X112547837Y-143025811D01*
X111985811Y-143587837D01*
X111544229Y-144248711D01*
X111240062Y-144983034D01*
X111085000Y-145762587D01*
X65005000Y-145762587D01*
X64849938Y-144983034D01*
X64545771Y-144248711D01*
X64104189Y-143587837D01*
X63542163Y-143025811D01*
X62881289Y-142584229D01*
X62146966Y-142280062D01*
X61367413Y-142125000D01*
X60572587Y-142125000D01*
X59793034Y-142280062D01*
X59058711Y-142584229D01*
X58397837Y-143025811D01*
X57835811Y-143587837D01*
X57394229Y-144248711D01*
X57090062Y-144983034D01*
X56935000Y-145762587D01*
X56571962Y-145762587D01*
X56567582Y-145740568D01*
X56376488Y-145279227D01*
X56099063Y-144864032D01*
X55745968Y-144510937D01*
X55330773Y-144233512D01*
X54869432Y-144042418D01*
X54379676Y-143945000D01*
X53880324Y-143945000D01*
X53390568Y-144042418D01*
X52929227Y-144233512D01*
X52514032Y-144510937D01*
X52160937Y-144864032D01*
X51883512Y-145279227D01*
X51692418Y-145740568D01*
X51595000Y-146230324D01*
X50410000Y-146230324D01*
X50410000Y-138963694D01*
X92425800Y-138963694D01*
X92425800Y-139064706D01*
X92445507Y-139163778D01*
X92484163Y-139257102D01*
X92540282Y-139341091D01*
X92611709Y-139412518D01*
X92695698Y-139468637D01*
X92789022Y-139507293D01*
X92888094Y-139527000D01*
X92989106Y-139527000D01*
X93088178Y-139507293D01*
X93181502Y-139468637D01*
X93265491Y-139412518D01*
X93336918Y-139341091D01*
X93393037Y-139257102D01*
X93431693Y-139163778D01*
X93442417Y-139109867D01*
X93690190Y-138862094D01*
X94127600Y-138862094D01*
X94127600Y-138963106D01*
X94147307Y-139062178D01*
X94185963Y-139155502D01*
X94242082Y-139239491D01*
X94313509Y-139310918D01*
X94397498Y-139367037D01*
X94490822Y-139405693D01*
X94589894Y-139425400D01*
X94690906Y-139425400D01*
X94789978Y-139405693D01*
X94883302Y-139367037D01*
X94929004Y-139336500D01*
X95509295Y-139336500D01*
X95530118Y-139338551D01*
X95550941Y-139336500D01*
X95613217Y-139330366D01*
X95693122Y-139306127D01*
X95766764Y-139266765D01*
X95831311Y-139213793D01*
X95844592Y-139197610D01*
X98044792Y-136997410D01*
X106771709Y-136997410D01*
X106771709Y-139217410D01*
X108444090Y-139217410D01*
X108444090Y-136997410D01*
X106771709Y-136997410D01*
X98044792Y-136997410D01*
X100469593Y-134572609D01*
X109110000Y-134572609D01*
X109110000Y-134717391D01*
X109138246Y-134859391D01*
X109193652Y-134993153D01*
X109274088Y-135113535D01*
X109376465Y-135215912D01*
X109496847Y-135296348D01*
X109630609Y-135351754D01*
X109772609Y-135380000D01*
X109917391Y-135380000D01*
X110059391Y-135351754D01*
X110193153Y-135296348D01*
X110313535Y-135215912D01*
X110415912Y-135113535D01*
X110496348Y-134993153D01*
X110551754Y-134859391D01*
X110580000Y-134717391D01*
X110580000Y-134572609D01*
X110551754Y-134430609D01*
X110496348Y-134296847D01*
X110415912Y-134176465D01*
X110313535Y-134074088D01*
X110193153Y-133993652D01*
X110059391Y-133938246D01*
X109917391Y-133910000D01*
X109772609Y-133910000D01*
X109630609Y-133938246D01*
X109496847Y-133993652D01*
X109376465Y-134074088D01*
X109274088Y-134176465D01*
X109193652Y-134296847D01*
X109138246Y-134430609D01*
X109110000Y-134572609D01*
X100469593Y-134572609D01*
X101895108Y-133147094D01*
X111196400Y-133147094D01*
X111196400Y-133248106D01*
X111216107Y-133347178D01*
X111254763Y-133440502D01*
X111310882Y-133524491D01*
X111382309Y-133595918D01*
X111466298Y-133652037D01*
X111559622Y-133690693D01*
X111658694Y-133710400D01*
X111759706Y-133710400D01*
X111858778Y-133690693D01*
X111952102Y-133652037D01*
X112036091Y-133595918D01*
X112107518Y-133524491D01*
X112163637Y-133440502D01*
X112202293Y-133347178D01*
X112222000Y-133248106D01*
X112222000Y-133147094D01*
X112202293Y-133048022D01*
X112163637Y-132954698D01*
X112133100Y-132908996D01*
X112133100Y-130909384D01*
X115386269Y-127656216D01*
X115440178Y-127645493D01*
X115533502Y-127606837D01*
X115617491Y-127550718D01*
X115688918Y-127479291D01*
X115745037Y-127395302D01*
X115783693Y-127301978D01*
X115803400Y-127202906D01*
X115803400Y-127101894D01*
X115783693Y-127002822D01*
X115745037Y-126909498D01*
X115688918Y-126825509D01*
X115617491Y-126754082D01*
X115533502Y-126697963D01*
X115440178Y-126659307D01*
X115341106Y-126639600D01*
X115240094Y-126639600D01*
X115141022Y-126659307D01*
X115047698Y-126697963D01*
X114963709Y-126754082D01*
X114892282Y-126825509D01*
X114836163Y-126909498D01*
X114797507Y-127002822D01*
X114786784Y-127056731D01*
X111424185Y-130419331D01*
X111408008Y-130432607D01*
X111394734Y-130448782D01*
X111355035Y-130497155D01*
X111315674Y-130570796D01*
X111291434Y-130650702D01*
X111283249Y-130733800D01*
X111285301Y-130754633D01*
X111285300Y-132908995D01*
X111254763Y-132954698D01*
X111216107Y-133048022D01*
X111196400Y-133147094D01*
X101895108Y-133147094D01*
X105363352Y-129678850D01*
X106680209Y-129678850D01*
X106680209Y-131898850D01*
X108352590Y-131898850D01*
X108352590Y-129678850D01*
X106680209Y-129678850D01*
X105363352Y-129678850D01*
X114762817Y-120279386D01*
X114778993Y-120266111D01*
X114831965Y-120201564D01*
X114871327Y-120127922D01*
X114895566Y-120048017D01*
X114901700Y-119985741D01*
X114901700Y-119985740D01*
X114903751Y-119964918D01*
X114901700Y-119944095D01*
X114901700Y-100310324D01*
X118335000Y-100310324D01*
X118335000Y-100809676D01*
X118432418Y-101299432D01*
X118623512Y-101760773D01*
X118900937Y-102175968D01*
X119254032Y-102529063D01*
X119669227Y-102806488D01*
X120130568Y-102997582D01*
X120620324Y-103095000D01*
X121119676Y-103095000D01*
X121609432Y-102997582D01*
X122070773Y-102806488D01*
X122485968Y-102529063D01*
X122839063Y-102175968D01*
X123116488Y-101760773D01*
X123307582Y-101299432D01*
X123405000Y-100809676D01*
X123405000Y-100310324D01*
X123307582Y-99820568D01*
X123116488Y-99359227D01*
X122839063Y-98944032D01*
X122485968Y-98590937D01*
X122070773Y-98313512D01*
X121609432Y-98122418D01*
X121119676Y-98025000D01*
X120620324Y-98025000D01*
X120130568Y-98122418D01*
X119669227Y-98313512D01*
X119254032Y-98590937D01*
X118900937Y-98944032D01*
X118623512Y-99359227D01*
X118432418Y-99820568D01*
X118335000Y-100310324D01*
X114901700Y-100310324D01*
X114901700Y-87639204D01*
X114932237Y-87593502D01*
X114970893Y-87500178D01*
X114990600Y-87401106D01*
X114990600Y-87300094D01*
X114970893Y-87201022D01*
X114932237Y-87107698D01*
X114876118Y-87023709D01*
X114804691Y-86952282D01*
X114720702Y-86896163D01*
X114627378Y-86857507D01*
X114528306Y-86837800D01*
X114427294Y-86837800D01*
X114328222Y-86857507D01*
X114234898Y-86896163D01*
X114150909Y-86952282D01*
X114079482Y-87023709D01*
X114023363Y-87107698D01*
X113984707Y-87201022D01*
X113965000Y-87300094D01*
X113965000Y-87401106D01*
X113984707Y-87500178D01*
X114023363Y-87593502D01*
X114053901Y-87639206D01*
X114053900Y-119789333D01*
X111373507Y-122469726D01*
X111364068Y-122422271D01*
X111293586Y-122252111D01*
X111191262Y-122098972D01*
X111061028Y-121968738D01*
X110907889Y-121866414D01*
X110737729Y-121795932D01*
X110557089Y-121760000D01*
X110372911Y-121760000D01*
X110192271Y-121795932D01*
X110022111Y-121866414D01*
X109868972Y-121968738D01*
X109738738Y-122098972D01*
X109636414Y-122252111D01*
X109565932Y-122422271D01*
X109530000Y-122602911D01*
X109530000Y-122787089D01*
X109565932Y-122967729D01*
X109636414Y-123137889D01*
X109738738Y-123291028D01*
X109868972Y-123421262D01*
X110022111Y-123523586D01*
X110192271Y-123594068D01*
X110239726Y-123603507D01*
X95354534Y-138488700D01*
X94929004Y-138488700D01*
X94883302Y-138458163D01*
X94789978Y-138419507D01*
X94690906Y-138399800D01*
X94589894Y-138399800D01*
X94490822Y-138419507D01*
X94397498Y-138458163D01*
X94313509Y-138514282D01*
X94242082Y-138585709D01*
X94185963Y-138669698D01*
X94147307Y-138763022D01*
X94127600Y-138862094D01*
X93690190Y-138862094D01*
X98862417Y-133689868D01*
X98878593Y-133676593D01*
X98931565Y-133612046D01*
X98970927Y-133538404D01*
X98995166Y-133458499D01*
X99001300Y-133396223D01*
X99001300Y-133396216D01*
X99003350Y-133375401D01*
X99001300Y-133354586D01*
X99001300Y-86360294D01*
X103678000Y-86360294D01*
X103678000Y-86461306D01*
X103697707Y-86560378D01*
X103736363Y-86653702D01*
X103792482Y-86737691D01*
X103863909Y-86809118D01*
X103947898Y-86865237D01*
X104041222Y-86903893D01*
X104140294Y-86923600D01*
X104241306Y-86923600D01*
X104340378Y-86903893D01*
X104433702Y-86865237D01*
X104479404Y-86834700D01*
X105539216Y-86834700D01*
X105820583Y-87116068D01*
X105831307Y-87169978D01*
X105869963Y-87263302D01*
X105926082Y-87347291D01*
X105997509Y-87418718D01*
X106081498Y-87474837D01*
X106174822Y-87513493D01*
X106273894Y-87533200D01*
X106374906Y-87533200D01*
X106473978Y-87513493D01*
X106567302Y-87474837D01*
X106651291Y-87418718D01*
X106722718Y-87347291D01*
X106778837Y-87263302D01*
X106817493Y-87169978D01*
X106837200Y-87070906D01*
X106837200Y-86969894D01*
X106817493Y-86870822D01*
X106778837Y-86777498D01*
X106722718Y-86693509D01*
X106651291Y-86622082D01*
X106567302Y-86565963D01*
X106473978Y-86527307D01*
X106420068Y-86516583D01*
X106029274Y-86125789D01*
X106015993Y-86109607D01*
X105951446Y-86056635D01*
X105877804Y-86017273D01*
X105797899Y-85993034D01*
X105735623Y-85986900D01*
X105714800Y-85984849D01*
X105693977Y-85986900D01*
X104479404Y-85986900D01*
X104433702Y-85956363D01*
X104340378Y-85917707D01*
X104241306Y-85898000D01*
X104140294Y-85898000D01*
X104041222Y-85917707D01*
X103947898Y-85956363D01*
X103863909Y-86012482D01*
X103792482Y-86083909D01*
X103736363Y-86167898D01*
X103697707Y-86261222D01*
X103678000Y-86360294D01*
X99001300Y-86360294D01*
X99001300Y-83716184D01*
X103046384Y-79671100D01*
X105815159Y-79671100D01*
X105815159Y-81891100D01*
X107487540Y-81891100D01*
X107487540Y-79671100D01*
X105815159Y-79671100D01*
X103046384Y-79671100D01*
X103137884Y-79579600D01*
X113133719Y-79579600D01*
X113133719Y-81799600D01*
X114806100Y-81799600D01*
X114806100Y-79579600D01*
X113133719Y-79579600D01*
X103137884Y-79579600D01*
X104294875Y-78422609D01*
X109730000Y-78422609D01*
X109730000Y-78567391D01*
X109758246Y-78709391D01*
X109813652Y-78843153D01*
X109894088Y-78963535D01*
X109996465Y-79065912D01*
X110116847Y-79146348D01*
X110250609Y-79201754D01*
X110392609Y-79230000D01*
X110537391Y-79230000D01*
X110679391Y-79201754D01*
X110813153Y-79146348D01*
X110933535Y-79065912D01*
X111035912Y-78963535D01*
X111116348Y-78843153D01*
X111171754Y-78709391D01*
X111200000Y-78567391D01*
X111200000Y-78422609D01*
X111171754Y-78280609D01*
X111116348Y-78146847D01*
X111035912Y-78026465D01*
X110933535Y-77924088D01*
X110813153Y-77843652D01*
X110679391Y-77788246D01*
X110537391Y-77760000D01*
X110392609Y-77760000D01*
X110250609Y-77788246D01*
X110116847Y-77843652D01*
X109996465Y-77924088D01*
X109894088Y-78026465D01*
X109813652Y-78146847D01*
X109758246Y-78280609D01*
X109730000Y-78422609D01*
X104294875Y-78422609D01*
X104975985Y-77741500D01*
X113108416Y-77741500D01*
X115247700Y-79880785D01*
X115247701Y-87849394D01*
X115217163Y-87895098D01*
X115178507Y-87988422D01*
X115158800Y-88087494D01*
X115158800Y-88188506D01*
X115178507Y-88287578D01*
X115217163Y-88380902D01*
X115273282Y-88464891D01*
X115344709Y-88536318D01*
X115428698Y-88592437D01*
X115522022Y-88631093D01*
X115621094Y-88650800D01*
X115722106Y-88650800D01*
X115821178Y-88631093D01*
X115914502Y-88592437D01*
X115998491Y-88536318D01*
X116069918Y-88464891D01*
X116126037Y-88380902D01*
X116164693Y-88287578D01*
X116184400Y-88188506D01*
X116184400Y-88087494D01*
X116164693Y-87988422D01*
X116126037Y-87895098D01*
X116095500Y-87849396D01*
X116095500Y-79726022D01*
X116097551Y-79705199D01*
X116089366Y-79622101D01*
X116065127Y-79542197D01*
X116065127Y-79542196D01*
X116025765Y-79468554D01*
X115972793Y-79404007D01*
X115956617Y-79390732D01*
X113598474Y-77032590D01*
X113585193Y-77016407D01*
X113520646Y-76963435D01*
X113447004Y-76924073D01*
X113367099Y-76899834D01*
X113304823Y-76893700D01*
X113284000Y-76891649D01*
X113263177Y-76893700D01*
X104821223Y-76893700D01*
X104800400Y-76891649D01*
X104779577Y-76893700D01*
X104717301Y-76899834D01*
X104637396Y-76924073D01*
X104563754Y-76963435D01*
X104499207Y-77016407D01*
X104485931Y-77032584D01*
X98292385Y-83226131D01*
X98276208Y-83239407D01*
X98262934Y-83255582D01*
X98223235Y-83303955D01*
X98183874Y-83377596D01*
X98159634Y-83457502D01*
X98151449Y-83540600D01*
X98153501Y-83561433D01*
X98153500Y-133199815D01*
X92842933Y-138510383D01*
X92789022Y-138521107D01*
X92695698Y-138559763D01*
X92611709Y-138615882D01*
X92540282Y-138687309D01*
X92484163Y-138771298D01*
X92445507Y-138864622D01*
X92425800Y-138963694D01*
X50410000Y-138963694D01*
X50410000Y-138252494D01*
X88133200Y-138252494D01*
X88133200Y-138353506D01*
X88152907Y-138452578D01*
X88191563Y-138545902D01*
X88247682Y-138629891D01*
X88319109Y-138701318D01*
X88403098Y-138757437D01*
X88496422Y-138796093D01*
X88595494Y-138815800D01*
X88696506Y-138815800D01*
X88795578Y-138796093D01*
X88888902Y-138757437D01*
X88972891Y-138701318D01*
X89044318Y-138629891D01*
X89100437Y-138545902D01*
X89139093Y-138452578D01*
X89149817Y-138398668D01*
X89168991Y-138379494D01*
X90673200Y-138379494D01*
X90673200Y-138480506D01*
X90692907Y-138579578D01*
X90731563Y-138672902D01*
X90787682Y-138756891D01*
X90859109Y-138828318D01*
X90943098Y-138884437D01*
X91036422Y-138923093D01*
X91135494Y-138942800D01*
X91236506Y-138942800D01*
X91335578Y-138923093D01*
X91428902Y-138884437D01*
X91512891Y-138828318D01*
X91584318Y-138756891D01*
X91640437Y-138672902D01*
X91679093Y-138579578D01*
X91689817Y-138525667D01*
X92969617Y-137245868D01*
X92985793Y-137232593D01*
X93038765Y-137168046D01*
X93078127Y-137094404D01*
X93102366Y-137014499D01*
X93108500Y-136952223D01*
X93108500Y-136952216D01*
X93110550Y-136931401D01*
X93108500Y-136910586D01*
X93108500Y-135594404D01*
X93139037Y-135548702D01*
X93177693Y-135455378D01*
X93197400Y-135356306D01*
X93197400Y-135255294D01*
X93177693Y-135156222D01*
X93139037Y-135062898D01*
X93082918Y-134978909D01*
X93011491Y-134907482D01*
X92927502Y-134851363D01*
X92834178Y-134812707D01*
X92735106Y-134793000D01*
X92634094Y-134793000D01*
X92535022Y-134812707D01*
X92441698Y-134851363D01*
X92357709Y-134907482D01*
X92286282Y-134978909D01*
X92230163Y-135062898D01*
X92191507Y-135156222D01*
X92171800Y-135255294D01*
X92171800Y-135356306D01*
X92191507Y-135455378D01*
X92230163Y-135548702D01*
X92260701Y-135594406D01*
X92260700Y-136755815D01*
X91090333Y-137926183D01*
X91036422Y-137936907D01*
X90943098Y-137975563D01*
X90859109Y-138031682D01*
X90787682Y-138103109D01*
X90731563Y-138187098D01*
X90692907Y-138280422D01*
X90673200Y-138379494D01*
X89168991Y-138379494D01*
X90251817Y-137296668D01*
X90267993Y-137283393D01*
X90320965Y-137218846D01*
X90360327Y-137145204D01*
X90384566Y-137065299D01*
X90390700Y-137003023D01*
X90390700Y-137003022D01*
X90392751Y-136982201D01*
X90390700Y-136961378D01*
X90390700Y-135778002D01*
X90421237Y-135732300D01*
X90459893Y-135638976D01*
X90479600Y-135539904D01*
X90479600Y-135438892D01*
X90459893Y-135339820D01*
X90421237Y-135246496D01*
X90365118Y-135162507D01*
X90293691Y-135091080D01*
X90209702Y-135034961D01*
X90116378Y-134996305D01*
X90017306Y-134976598D01*
X89916294Y-134976598D01*
X89817222Y-134996305D01*
X89723898Y-135034961D01*
X89639909Y-135091080D01*
X89568482Y-135162507D01*
X89512363Y-135246496D01*
X89473707Y-135339820D01*
X89454000Y-135438892D01*
X89454000Y-135539904D01*
X89473707Y-135638976D01*
X89512363Y-135732300D01*
X89542901Y-135778004D01*
X89542900Y-136806615D01*
X88550332Y-137799183D01*
X88496422Y-137809907D01*
X88403098Y-137848563D01*
X88319109Y-137904682D01*
X88247682Y-137976109D01*
X88191563Y-138060098D01*
X88152907Y-138153422D01*
X88133200Y-138252494D01*
X50410000Y-138252494D01*
X50410000Y-134552911D01*
X64710000Y-134552911D01*
X64710000Y-134737089D01*
X64745932Y-134917729D01*
X64816414Y-135087889D01*
X64918738Y-135241028D01*
X65048972Y-135371262D01*
X65202111Y-135473586D01*
X65372271Y-135544068D01*
X65552911Y-135580000D01*
X65737089Y-135580000D01*
X65917729Y-135544068D01*
X66087889Y-135473586D01*
X66241028Y-135371262D01*
X66371262Y-135241028D01*
X66473586Y-135087889D01*
X66544068Y-134917729D01*
X66580000Y-134737089D01*
X66580000Y-134552911D01*
X66544068Y-134372271D01*
X66473586Y-134202111D01*
X66371262Y-134048972D01*
X66241028Y-133918738D01*
X66087889Y-133816414D01*
X65917729Y-133745932D01*
X65737089Y-133710000D01*
X65552911Y-133710000D01*
X65372271Y-133745932D01*
X65202111Y-133816414D01*
X65048972Y-133918738D01*
X64918738Y-134048972D01*
X64816414Y-134202111D01*
X64745932Y-134372271D01*
X64710000Y-134552911D01*
X50410000Y-134552911D01*
X50410000Y-122602911D01*
X64880000Y-122602911D01*
X64880000Y-122787089D01*
X64915932Y-122967729D01*
X64986414Y-123137889D01*
X65088738Y-123291028D01*
X65218972Y-123421262D01*
X65372111Y-123523586D01*
X65542271Y-123594068D01*
X65722911Y-123630000D01*
X65907089Y-123630000D01*
X66087729Y-123594068D01*
X66257889Y-123523586D01*
X66411028Y-123421262D01*
X66541262Y-123291028D01*
X66643586Y-123137889D01*
X66714068Y-122967729D01*
X66750000Y-122787089D01*
X66750000Y-122602911D01*
X66714068Y-122422271D01*
X66643586Y-122252111D01*
X66541262Y-122098972D01*
X66411028Y-121968738D01*
X66257889Y-121866414D01*
X66087729Y-121795932D01*
X65907089Y-121760000D01*
X65722911Y-121760000D01*
X65542271Y-121795932D01*
X65372111Y-121866414D01*
X65218972Y-121968738D01*
X65088738Y-122098972D01*
X64986414Y-122252111D01*
X64915932Y-122422271D01*
X64880000Y-122602911D01*
X50410000Y-122602911D01*
X50410000Y-112144494D01*
X65295400Y-112144494D01*
X65295400Y-112245506D01*
X65315107Y-112344578D01*
X65353763Y-112437902D01*
X65409882Y-112521891D01*
X65481309Y-112593318D01*
X65565298Y-112649437D01*
X65658622Y-112688093D01*
X65757694Y-112707800D01*
X65858706Y-112707800D01*
X65957778Y-112688093D01*
X66051102Y-112649437D01*
X66096804Y-112618900D01*
X85142177Y-112618900D01*
X85163000Y-112620951D01*
X85183823Y-112618900D01*
X85246099Y-112612766D01*
X85326004Y-112588527D01*
X85399646Y-112549165D01*
X85464193Y-112496193D01*
X85477474Y-112480010D01*
X86684269Y-111273216D01*
X86738178Y-111262493D01*
X86831502Y-111223837D01*
X86915491Y-111167718D01*
X86986918Y-111096291D01*
X87043037Y-111012302D01*
X87081693Y-110918978D01*
X87101400Y-110819906D01*
X87101400Y-110718894D01*
X87081693Y-110619822D01*
X87043037Y-110526498D01*
X86986918Y-110442509D01*
X86915491Y-110371082D01*
X86831502Y-110314963D01*
X86738178Y-110276307D01*
X86639106Y-110256600D01*
X86538094Y-110256600D01*
X86439022Y-110276307D01*
X86345698Y-110314963D01*
X86261709Y-110371082D01*
X86190282Y-110442509D01*
X86134163Y-110526498D01*
X86095507Y-110619822D01*
X86084784Y-110673731D01*
X84987416Y-111771100D01*
X66096804Y-111771100D01*
X66051102Y-111740563D01*
X65957778Y-111701907D01*
X65858706Y-111682200D01*
X65757694Y-111682200D01*
X65658622Y-111701907D01*
X65565298Y-111740563D01*
X65481309Y-111796682D01*
X65409882Y-111868109D01*
X65353763Y-111952098D01*
X65315107Y-112045422D01*
X65295400Y-112144494D01*
X50410000Y-112144494D01*
X50410000Y-109372694D01*
X89174600Y-109372694D01*
X89174600Y-109473706D01*
X89194307Y-109572778D01*
X89232963Y-109666102D01*
X89289082Y-109750091D01*
X89360509Y-109821518D01*
X89444498Y-109877637D01*
X89537822Y-109916293D01*
X89636894Y-109936000D01*
X89737906Y-109936000D01*
X89836978Y-109916293D01*
X89930302Y-109877637D01*
X90014291Y-109821518D01*
X90085718Y-109750091D01*
X90141837Y-109666102D01*
X90180493Y-109572778D01*
X90191217Y-109518867D01*
X97643216Y-102066869D01*
X97659393Y-102053593D01*
X97712365Y-101989046D01*
X97751727Y-101915405D01*
X97775966Y-101835499D01*
X97784151Y-101752400D01*
X97782100Y-101731577D01*
X97782100Y-85861204D01*
X97812637Y-85815502D01*
X97851293Y-85722178D01*
X97871000Y-85623106D01*
X97871000Y-85522094D01*
X97851293Y-85423022D01*
X97812637Y-85329698D01*
X97756518Y-85245709D01*
X97685091Y-85174282D01*
X97601102Y-85118163D01*
X97507778Y-85079507D01*
X97408706Y-85059800D01*
X97307694Y-85059800D01*
X97208622Y-85079507D01*
X97115298Y-85118163D01*
X97031309Y-85174282D01*
X96959882Y-85245709D01*
X96903763Y-85329698D01*
X96865107Y-85423022D01*
X96845400Y-85522094D01*
X96845400Y-85623106D01*
X96865107Y-85722178D01*
X96903763Y-85815502D01*
X96934300Y-85861204D01*
X96934301Y-101576814D01*
X89591733Y-108919383D01*
X89537822Y-108930107D01*
X89444498Y-108968763D01*
X89360509Y-109024882D01*
X89289082Y-109096309D01*
X89232963Y-109180298D01*
X89194307Y-109273622D01*
X89174600Y-109372694D01*
X50410000Y-109372694D01*
X50410000Y-100310324D01*
X51595000Y-100310324D01*
X51595000Y-100809676D01*
X51692418Y-101299432D01*
X51883512Y-101760773D01*
X52160937Y-102175968D01*
X52514032Y-102529063D01*
X52929227Y-102806488D01*
X53390568Y-102997582D01*
X53880324Y-103095000D01*
X54379676Y-103095000D01*
X54869432Y-102997582D01*
X55330773Y-102806488D01*
X55745968Y-102529063D01*
X56099063Y-102175968D01*
X56376488Y-101760773D01*
X56567582Y-101299432D01*
X56665000Y-100809676D01*
X56665000Y-100310324D01*
X56567582Y-99820568D01*
X56376488Y-99359227D01*
X56099063Y-98944032D01*
X55745968Y-98590937D01*
X55330773Y-98313512D01*
X54869432Y-98122418D01*
X54379676Y-98025000D01*
X53880324Y-98025000D01*
X53390568Y-98122418D01*
X52929227Y-98313512D01*
X52514032Y-98590937D01*
X52160937Y-98944032D01*
X51883512Y-99359227D01*
X51692418Y-99820568D01*
X51595000Y-100310324D01*
X50410000Y-100310324D01*
X50410000Y-79671100D01*
X61165159Y-79671100D01*
X61165159Y-81891100D01*
X62837540Y-81891100D01*
X62837540Y-79671100D01*
X61165159Y-79671100D01*
X50410000Y-79671100D01*
X50410000Y-79579600D01*
X68483719Y-79579600D01*
X68483719Y-81799600D01*
X70156100Y-81799600D01*
X70156100Y-79579600D01*
X68483719Y-79579600D01*
X50410000Y-79579600D01*
X50410000Y-78422609D01*
X65080000Y-78422609D01*
X65080000Y-78567391D01*
X65108246Y-78709391D01*
X65163652Y-78843153D01*
X65244088Y-78963535D01*
X65346465Y-79065912D01*
X65466847Y-79146348D01*
X65600609Y-79201754D01*
X65742609Y-79230000D01*
X65887391Y-79230000D01*
X66029391Y-79201754D01*
X66163153Y-79146348D01*
X66283535Y-79065912D01*
X66385912Y-78963535D01*
X66466348Y-78843153D01*
X66521754Y-78709391D01*
X66550000Y-78567391D01*
X66550000Y-78422609D01*
X66521754Y-78280609D01*
X66466348Y-78146847D01*
X66385912Y-78026465D01*
X66283535Y-77924088D01*
X66163153Y-77843652D01*
X66029391Y-77788246D01*
X65887391Y-77760000D01*
X65742609Y-77760000D01*
X65600609Y-77788246D01*
X65466847Y-77843652D01*
X65346465Y-77924088D01*
X65244088Y-78026465D01*
X65163652Y-78146847D01*
X65108246Y-78280609D01*
X65080000Y-78422609D01*
X50410000Y-78422609D01*
X50410000Y-63401150D01*
X67137410Y-63401150D01*
X67137410Y-65621150D01*
X68809791Y-65621150D01*
X68809791Y-63401150D01*
X67137410Y-63401150D01*
X50410000Y-63401150D01*
X50410000Y-60582609D01*
X64910000Y-60582609D01*
X64910000Y-60727391D01*
X64938246Y-60869391D01*
X64993652Y-61003153D01*
X65074088Y-61123535D01*
X65176465Y-61225912D01*
X65296847Y-61306348D01*
X65430609Y-61361754D01*
X65572609Y-61390000D01*
X65717391Y-61390000D01*
X65859391Y-61361754D01*
X65993153Y-61306348D01*
X66113535Y-61225912D01*
X66215912Y-61123535D01*
X66296348Y-61003153D01*
X66351754Y-60869391D01*
X66380000Y-60727391D01*
X66380000Y-60582609D01*
X66376082Y-60562911D01*
X108910000Y-60562911D01*
X108910000Y-60747089D01*
X108945932Y-60927729D01*
X109016414Y-61097889D01*
X109118738Y-61251028D01*
X109248972Y-61381262D01*
X109402111Y-61483586D01*
X109572271Y-61554068D01*
X109752911Y-61590000D01*
X109937089Y-61590000D01*
X110117729Y-61554068D01*
X110287889Y-61483586D01*
X110441028Y-61381262D01*
X110571262Y-61251028D01*
X110673586Y-61097889D01*
X110744068Y-60927729D01*
X110780000Y-60747089D01*
X110780000Y-60562911D01*
X110744068Y-60382271D01*
X110673586Y-60212111D01*
X110571262Y-60058972D01*
X110441028Y-59928738D01*
X110287889Y-59826414D01*
X110117729Y-59755932D01*
X109937089Y-59720000D01*
X109752911Y-59720000D01*
X109572271Y-59755932D01*
X109402111Y-59826414D01*
X109248972Y-59928738D01*
X109118738Y-60058972D01*
X109016414Y-60212111D01*
X108945932Y-60382271D01*
X108910000Y-60562911D01*
X66376082Y-60562911D01*
X66351754Y-60440609D01*
X66296348Y-60306847D01*
X66215912Y-60186465D01*
X66113535Y-60084088D01*
X65993153Y-60003652D01*
X65859391Y-59948246D01*
X65717391Y-59920000D01*
X65572609Y-59920000D01*
X65430609Y-59948246D01*
X65296847Y-60003652D01*
X65176465Y-60084088D01*
X65074088Y-60186465D01*
X64993652Y-60306847D01*
X64938246Y-60440609D01*
X64910000Y-60582609D01*
X50410000Y-60582609D01*
X50410000Y-54380324D01*
X51595000Y-54380324D01*
X51595000Y-54879676D01*
X51692418Y-55369432D01*
X51883512Y-55830773D01*
X52160937Y-56245968D01*
X52514032Y-56599063D01*
X52929227Y-56876488D01*
X53390568Y-57067582D01*
X53880324Y-57165000D01*
X54379676Y-57165000D01*
X54869432Y-57067582D01*
X55330773Y-56876488D01*
X55745968Y-56599063D01*
X56099063Y-56245968D01*
X56376488Y-55830773D01*
X56567582Y-55369432D01*
X56665000Y-54879676D01*
X56665000Y-54380324D01*
X56567582Y-53890568D01*
X56376488Y-53429227D01*
X56099063Y-53014032D01*
X55745968Y-52660937D01*
X55330773Y-52383512D01*
X54869432Y-52192418D01*
X54379676Y-52095000D01*
X53880324Y-52095000D01*
X53390568Y-52192418D01*
X52929227Y-52383512D01*
X52514032Y-52660937D01*
X52160937Y-53014032D01*
X51883512Y-53429227D01*
X51692418Y-53890568D01*
X51595000Y-54380324D01*
X50410000Y-54380324D01*
X50410000Y-50410000D01*
X59020142Y-50410000D01*
X58397837Y-50825811D01*
M02*
