%TF.GenerationSoftware,KiCad,Pcbnew,(5.1.4)-1*%
%TF.CreationDate,2019-12-13T12:22:18-06:00*%
%TF.ProjectId,payload_board,7061796c-6f61-4645-9f62-6f6172642e6b,rev?*%
%TF.SameCoordinates,Original*%
%TF.FileFunction,Soldermask,Top*%
%TF.FilePolarity,Negative*%
%FSLAX46Y46*%
G04 Gerber Fmt 4.6, Leading zero omitted, Abs format (unit mm)*
G04 Created by KiCad (PCBNEW (5.1.4)-1) date 2019-12-13 12:22:18*
%MOMM*%
%LPD*%
G04 APERTURE LIST*
%ADD10C,1.900000*%
%ADD11C,1.400000*%
%ADD12C,2.400000*%
%ADD13R,0.900000X2.400000*%
%ADD14C,1.600000*%
%ADD15C,1.200000*%
%ADD16R,2.400000X0.900000*%
%ADD17O,2.100000X2.100000*%
%ADD18R,2.100000X2.100000*%
%ADD19C,7.800000*%
%ADD20C,4.800000*%
G04 APERTURE END LIST*
D10*
X120624600Y-152958800D03*
D11*
X119344600Y-151678800D03*
X119344600Y-154238800D03*
X121904600Y-154238800D03*
X121904600Y-151678800D03*
D10*
X113614200Y-152984200D03*
D11*
X112334200Y-151704200D03*
X112334200Y-154264200D03*
X114894200Y-154264200D03*
X114894200Y-151704200D03*
D12*
X105029000Y-154152600D03*
X108331000Y-154152600D03*
X56997600Y-154457400D03*
X53695600Y-154482800D03*
X60706000Y-154457400D03*
X64744600Y-154457400D03*
X68351400Y-154533600D03*
D13*
X68145000Y-132445000D03*
X68145000Y-136845000D03*
X68945000Y-132445000D03*
X68945000Y-136845000D03*
X69745000Y-132445000D03*
X69745000Y-136845000D03*
X70545000Y-132445000D03*
X70545000Y-136845000D03*
X71345000Y-132445000D03*
X71345000Y-136845000D03*
X72145000Y-132445000D03*
X72145000Y-136845000D03*
X72945000Y-132445000D03*
X72945000Y-136845000D03*
X73745000Y-132445000D03*
X73745000Y-136845000D03*
X74545000Y-132445000D03*
X74545000Y-136845000D03*
X75345000Y-132445000D03*
X75345000Y-136845000D03*
X76145000Y-132445000D03*
X76145000Y-136845000D03*
X76945000Y-132445000D03*
X76945000Y-136845000D03*
X77745000Y-132445000D03*
X77745000Y-136845000D03*
X78545000Y-132445000D03*
X78545000Y-136845000D03*
X79345000Y-132445000D03*
X79345000Y-136845000D03*
X80145000Y-132445000D03*
X80145000Y-136845000D03*
X80945000Y-132445000D03*
X80945000Y-136845000D03*
X81745000Y-132445000D03*
X81745000Y-136845000D03*
X82545000Y-132445000D03*
X82545000Y-136845000D03*
X83345000Y-132445000D03*
X83345000Y-136845000D03*
X84145000Y-132445000D03*
X84145000Y-136845000D03*
X84945000Y-132445000D03*
X84945000Y-136845000D03*
X85745000Y-132445000D03*
X85745000Y-136845000D03*
X86545000Y-132445000D03*
X86545000Y-136845000D03*
X87345000Y-132445000D03*
X87345000Y-136845000D03*
X88145000Y-132445000D03*
X88145000Y-136845000D03*
X88945000Y-132445000D03*
X88945000Y-136845000D03*
X89745000Y-132445000D03*
X89745000Y-136845000D03*
X90545000Y-132445000D03*
X90545000Y-136845000D03*
X91345000Y-132445000D03*
X91345000Y-136845000D03*
X92145000Y-132445000D03*
X92145000Y-136845000D03*
X92945000Y-132445000D03*
X92945000Y-136845000D03*
X93745000Y-132445000D03*
X93745000Y-136845000D03*
X94545000Y-132445000D03*
X94545000Y-136845000D03*
X95345000Y-132445000D03*
X95345000Y-136845000D03*
X96145000Y-132445000D03*
X96145000Y-136845000D03*
X96945000Y-132445000D03*
X96945000Y-136845000D03*
X97745000Y-132445000D03*
X97745000Y-136845000D03*
X98545000Y-132445000D03*
X98545000Y-136845000D03*
X99345000Y-132445000D03*
X99345000Y-136845000D03*
X100145000Y-132445000D03*
X100145000Y-136845000D03*
X100945000Y-132445000D03*
X100945000Y-136845000D03*
X101745000Y-132445000D03*
X101745000Y-136845000D03*
X102545000Y-132445000D03*
X102545000Y-136845000D03*
X103345000Y-132445000D03*
X103345000Y-136845000D03*
X104145000Y-132445000D03*
X104145000Y-136845000D03*
X104945000Y-132445000D03*
X104945000Y-136845000D03*
X105745000Y-132445000D03*
X105745000Y-136845000D03*
X106545000Y-132445000D03*
X106545000Y-136845000D03*
X107345000Y-136845000D03*
D14*
X65645000Y-134645000D03*
D15*
X109845000Y-134645000D03*
D13*
X107345000Y-132445000D03*
X107345000Y-62855000D03*
X107345000Y-58455000D03*
X106545000Y-62855000D03*
X106545000Y-58455000D03*
X105745000Y-62855000D03*
X105745000Y-58455000D03*
X104945000Y-62855000D03*
X104945000Y-58455000D03*
X104145000Y-62855000D03*
X104145000Y-58455000D03*
X103345000Y-62855000D03*
X103345000Y-58455000D03*
X102545000Y-62855000D03*
X102545000Y-58455000D03*
X101745000Y-62855000D03*
X101745000Y-58455000D03*
X100945000Y-62855000D03*
X100945000Y-58455000D03*
X100145000Y-62855000D03*
X100145000Y-58455000D03*
X99345000Y-62855000D03*
X99345000Y-58455000D03*
X98545000Y-62855000D03*
X98545000Y-58455000D03*
X97745000Y-62855000D03*
X97745000Y-58455000D03*
X96945000Y-62855000D03*
X96945000Y-58455000D03*
X96145000Y-62855000D03*
X96145000Y-58455000D03*
X95345000Y-62855000D03*
X95345000Y-58455000D03*
X94545000Y-62855000D03*
X94545000Y-58455000D03*
X93745000Y-62855000D03*
X93745000Y-58455000D03*
X92945000Y-62855000D03*
X92945000Y-58455000D03*
X92145000Y-62855000D03*
X92145000Y-58455000D03*
X91345000Y-62855000D03*
X91345000Y-58455000D03*
X90545000Y-62855000D03*
X90545000Y-58455000D03*
X89745000Y-62855000D03*
X89745000Y-58455000D03*
X88945000Y-62855000D03*
X88945000Y-58455000D03*
X88145000Y-62855000D03*
X88145000Y-58455000D03*
X87345000Y-62855000D03*
X87345000Y-58455000D03*
X86545000Y-62855000D03*
X86545000Y-58455000D03*
X85745000Y-62855000D03*
X85745000Y-58455000D03*
X84945000Y-62855000D03*
X84945000Y-58455000D03*
X84145000Y-62855000D03*
X84145000Y-58455000D03*
X83345000Y-62855000D03*
X83345000Y-58455000D03*
X82545000Y-62855000D03*
X82545000Y-58455000D03*
X81745000Y-62855000D03*
X81745000Y-58455000D03*
X80945000Y-62855000D03*
X80945000Y-58455000D03*
X80145000Y-62855000D03*
X80145000Y-58455000D03*
X79345000Y-62855000D03*
X79345000Y-58455000D03*
X78545000Y-62855000D03*
X78545000Y-58455000D03*
X77745000Y-62855000D03*
X77745000Y-58455000D03*
X76945000Y-62855000D03*
X76945000Y-58455000D03*
X76145000Y-62855000D03*
X76145000Y-58455000D03*
X75345000Y-62855000D03*
X75345000Y-58455000D03*
X74545000Y-62855000D03*
X74545000Y-58455000D03*
X73745000Y-62855000D03*
X73745000Y-58455000D03*
X72945000Y-62855000D03*
X72945000Y-58455000D03*
X72145000Y-62855000D03*
X72145000Y-58455000D03*
X71345000Y-62855000D03*
X71345000Y-58455000D03*
X70545000Y-62855000D03*
X70545000Y-58455000D03*
X69745000Y-62855000D03*
X69745000Y-58455000D03*
X68945000Y-62855000D03*
X68945000Y-58455000D03*
X68145000Y-58455000D03*
D14*
X109845000Y-60655000D03*
D15*
X65645000Y-60655000D03*
D13*
X68145000Y-62855000D03*
D16*
X108265000Y-120195000D03*
X112665000Y-120195000D03*
X108265000Y-119395000D03*
X112665000Y-119395000D03*
X108265000Y-118595000D03*
X112665000Y-118595000D03*
X108265000Y-117795000D03*
X112665000Y-117795000D03*
X108265000Y-116995000D03*
X112665000Y-116995000D03*
X108265000Y-116195000D03*
X112665000Y-116195000D03*
X108265000Y-115395000D03*
X112665000Y-115395000D03*
X108265000Y-114595000D03*
X112665000Y-114595000D03*
X108265000Y-113795000D03*
X112665000Y-113795000D03*
X108265000Y-112995000D03*
X112665000Y-112995000D03*
X108265000Y-112195000D03*
X112665000Y-112195000D03*
X108265000Y-111395000D03*
X112665000Y-111395000D03*
X108265000Y-110595000D03*
X112665000Y-110595000D03*
X108265000Y-109795000D03*
X112665000Y-109795000D03*
X108265000Y-108995000D03*
X112665000Y-108995000D03*
X108265000Y-108195000D03*
X112665000Y-108195000D03*
X108265000Y-107395000D03*
X112665000Y-107395000D03*
X108265000Y-106595000D03*
X112665000Y-106595000D03*
X108265000Y-105795000D03*
X112665000Y-105795000D03*
X108265000Y-104995000D03*
X112665000Y-104995000D03*
X108265000Y-104195000D03*
X112665000Y-104195000D03*
X108265000Y-103395000D03*
X112665000Y-103395000D03*
X108265000Y-102595000D03*
X112665000Y-102595000D03*
X108265000Y-101795000D03*
X112665000Y-101795000D03*
X108265000Y-100995000D03*
X112665000Y-100995000D03*
X108265000Y-100195000D03*
X112665000Y-100195000D03*
X108265000Y-99395000D03*
X112665000Y-99395000D03*
X108265000Y-98595000D03*
X112665000Y-98595000D03*
X108265000Y-97795000D03*
X112665000Y-97795000D03*
X108265000Y-96995000D03*
X112665000Y-96995000D03*
X108265000Y-96195000D03*
X112665000Y-96195000D03*
X108265000Y-95395000D03*
X112665000Y-95395000D03*
X108265000Y-94595000D03*
X112665000Y-94595000D03*
X108265000Y-93795000D03*
X112665000Y-93795000D03*
X108265000Y-92995000D03*
X112665000Y-92995000D03*
X108265000Y-92195000D03*
X112665000Y-92195000D03*
X108265000Y-91395000D03*
X112665000Y-91395000D03*
X108265000Y-90595000D03*
X112665000Y-90595000D03*
X108265000Y-89795000D03*
X112665000Y-89795000D03*
X108265000Y-88995000D03*
X112665000Y-88995000D03*
X108265000Y-88195000D03*
X112665000Y-88195000D03*
X108265000Y-87395000D03*
X112665000Y-87395000D03*
X108265000Y-86595000D03*
X112665000Y-86595000D03*
X108265000Y-85795000D03*
X112665000Y-85795000D03*
X108265000Y-84995000D03*
X112665000Y-84995000D03*
X108265000Y-84195000D03*
X112665000Y-84195000D03*
X108265000Y-83395000D03*
X112665000Y-83395000D03*
X108265000Y-82595000D03*
X112665000Y-82595000D03*
X108265000Y-81795000D03*
X112665000Y-81795000D03*
X112665000Y-80995000D03*
D14*
X110465000Y-122695000D03*
D15*
X110465000Y-78495000D03*
D16*
X108265000Y-80995000D03*
X63615000Y-120195000D03*
X68015000Y-120195000D03*
X63615000Y-119395000D03*
X68015000Y-119395000D03*
X63615000Y-118595000D03*
X68015000Y-118595000D03*
X63615000Y-117795000D03*
X68015000Y-117795000D03*
X63615000Y-116995000D03*
X68015000Y-116995000D03*
X63615000Y-116195000D03*
X68015000Y-116195000D03*
X63615000Y-115395000D03*
X68015000Y-115395000D03*
X63615000Y-114595000D03*
X68015000Y-114595000D03*
X63615000Y-113795000D03*
X68015000Y-113795000D03*
X63615000Y-112995000D03*
X68015000Y-112995000D03*
X63615000Y-112195000D03*
X68015000Y-112195000D03*
X63615000Y-111395000D03*
X68015000Y-111395000D03*
X63615000Y-110595000D03*
X68015000Y-110595000D03*
X63615000Y-109795000D03*
X68015000Y-109795000D03*
X63615000Y-108995000D03*
X68015000Y-108995000D03*
X63615000Y-108195000D03*
X68015000Y-108195000D03*
X63615000Y-107395000D03*
X68015000Y-107395000D03*
X63615000Y-106595000D03*
X68015000Y-106595000D03*
X63615000Y-105795000D03*
X68015000Y-105795000D03*
X63615000Y-104995000D03*
X68015000Y-104995000D03*
X63615000Y-104195000D03*
X68015000Y-104195000D03*
X63615000Y-103395000D03*
X68015000Y-103395000D03*
X63615000Y-102595000D03*
X68015000Y-102595000D03*
X63615000Y-101795000D03*
X68015000Y-101795000D03*
X63615000Y-100995000D03*
X68015000Y-100995000D03*
X63615000Y-100195000D03*
X68015000Y-100195000D03*
X63615000Y-99395000D03*
X68015000Y-99395000D03*
X63615000Y-98595000D03*
X68015000Y-98595000D03*
X63615000Y-97795000D03*
X68015000Y-97795000D03*
X63615000Y-96995000D03*
X68015000Y-96995000D03*
X63615000Y-96195000D03*
X68015000Y-96195000D03*
X63615000Y-95395000D03*
X68015000Y-95395000D03*
X63615000Y-94595000D03*
X68015000Y-94595000D03*
X63615000Y-93795000D03*
X68015000Y-93795000D03*
X63615000Y-92995000D03*
X68015000Y-92995000D03*
X63615000Y-92195000D03*
X68015000Y-92195000D03*
X63615000Y-91395000D03*
X68015000Y-91395000D03*
X63615000Y-90595000D03*
X68015000Y-90595000D03*
X63615000Y-89795000D03*
X68015000Y-89795000D03*
X63615000Y-88995000D03*
X68015000Y-88995000D03*
X63615000Y-88195000D03*
X68015000Y-88195000D03*
X63615000Y-87395000D03*
X68015000Y-87395000D03*
X63615000Y-86595000D03*
X68015000Y-86595000D03*
X63615000Y-85795000D03*
X68015000Y-85795000D03*
X63615000Y-84995000D03*
X68015000Y-84995000D03*
X63615000Y-84195000D03*
X68015000Y-84195000D03*
X63615000Y-83395000D03*
X68015000Y-83395000D03*
X63615000Y-82595000D03*
X68015000Y-82595000D03*
X63615000Y-81795000D03*
X68015000Y-81795000D03*
X68015000Y-80995000D03*
D14*
X65815000Y-122695000D03*
D15*
X65815000Y-78495000D03*
D16*
X63615000Y-80995000D03*
D17*
X99161600Y-154178000D03*
X96621600Y-154178000D03*
X94081600Y-154178000D03*
X91541600Y-154178000D03*
X89001600Y-154178000D03*
X86461600Y-154178000D03*
X83921600Y-154178000D03*
X81381600Y-154178000D03*
X78841600Y-154178000D03*
D18*
X76301600Y-154178000D03*
D19*
X115120000Y-53960000D03*
X115120000Y-146160000D03*
X60970000Y-146160000D03*
X60970000Y-53960000D03*
D20*
X120870000Y-146480000D03*
X54130000Y-146480000D03*
X120870000Y-100560000D03*
X54130000Y-100560000D03*
X120870000Y-54630000D03*
X54130000Y-54630000D03*
M02*
