%TF.GenerationSoftware,KiCad,Pcbnew,(5.1.4)-1*%
%TF.CreationDate,2019-12-13T12:22:18-06:00*%
%TF.ProjectId,payload_board,7061796c-6f61-4645-9f62-6f6172642e6b,rev?*%
%TF.SameCoordinates,Original*%
%TF.FileFunction,Legend,Top*%
%TF.FilePolarity,Positive*%
%FSLAX46Y46*%
G04 Gerber Fmt 4.6, Leading zero omitted, Abs format (unit mm)*
G04 Created by KiCad (PCBNEW (5.1.4)-1) date 2019-12-13 12:22:18*
%MOMM*%
%LPD*%
G04 APERTURE LIST*
%ADD10C,0.150000*%
%ADD11C,0.300000*%
%ADD12C,0.120000*%
%ADD13C,0.200000*%
%ADD14C,0.127000*%
%ADD15C,0.050000*%
G04 APERTURE END LIST*
D10*
X98628295Y-150731600D02*
X98533057Y-150683980D01*
X98390200Y-150683980D01*
X98247342Y-150731600D01*
X98152104Y-150826838D01*
X98104485Y-150922076D01*
X98056866Y-151112552D01*
X98056866Y-151255409D01*
X98104485Y-151445885D01*
X98152104Y-151541123D01*
X98247342Y-151636361D01*
X98390200Y-151683980D01*
X98485438Y-151683980D01*
X98628295Y-151636361D01*
X98675914Y-151588742D01*
X98675914Y-151255409D01*
X98485438Y-151255409D01*
X99104485Y-151683980D02*
X99104485Y-150683980D01*
X99675914Y-151683980D01*
X99675914Y-150683980D01*
X100152104Y-151683980D02*
X100152104Y-150683980D01*
X100390200Y-150683980D01*
X100533057Y-150731600D01*
X100628295Y-150826838D01*
X100675914Y-150922076D01*
X100723533Y-151112552D01*
X100723533Y-151255409D01*
X100675914Y-151445885D01*
X100628295Y-151541123D01*
X100533057Y-151636361D01*
X100390200Y-151683980D01*
X100152104Y-151683980D01*
X95705704Y-151160171D02*
X96039038Y-151160171D01*
X96181895Y-151683980D02*
X95705704Y-151683980D01*
X95705704Y-150683980D01*
X96181895Y-150683980D01*
X96610466Y-151683980D02*
X96610466Y-150683980D01*
X97181895Y-151683980D01*
X97181895Y-150683980D01*
X83083495Y-150734780D02*
X83654923Y-150734780D01*
X83369209Y-151734780D02*
X83369209Y-150734780D01*
X83893019Y-150734780D02*
X84559685Y-151734780D01*
X84559685Y-150734780D02*
X83893019Y-151734780D01*
X81316533Y-151658580D02*
X80983200Y-151182390D01*
X80745104Y-151658580D02*
X80745104Y-150658580D01*
X81126057Y-150658580D01*
X81221295Y-150706200D01*
X81268914Y-150753819D01*
X81316533Y-150849057D01*
X81316533Y-150991914D01*
X81268914Y-151087152D01*
X81221295Y-151134771D01*
X81126057Y-151182390D01*
X80745104Y-151182390D01*
X81649866Y-150658580D02*
X82316533Y-151658580D01*
X82316533Y-150658580D02*
X81649866Y-151658580D01*
X77286028Y-150607780D02*
X77905076Y-150607780D01*
X77571742Y-150988733D01*
X77714600Y-150988733D01*
X77809838Y-151036352D01*
X77857457Y-151083971D01*
X77905076Y-151179209D01*
X77905076Y-151417304D01*
X77857457Y-151512542D01*
X77809838Y-151560161D01*
X77714600Y-151607780D01*
X77428885Y-151607780D01*
X77333647Y-151560161D01*
X77286028Y-151512542D01*
X78333647Y-151512542D02*
X78381266Y-151560161D01*
X78333647Y-151607780D01*
X78286028Y-151560161D01*
X78333647Y-151512542D01*
X78333647Y-151607780D01*
X78714600Y-150607780D02*
X79333647Y-150607780D01*
X79000314Y-150988733D01*
X79143171Y-150988733D01*
X79238409Y-151036352D01*
X79286028Y-151083971D01*
X79333647Y-151179209D01*
X79333647Y-151417304D01*
X79286028Y-151512542D01*
X79238409Y-151560161D01*
X79143171Y-151607780D01*
X78857457Y-151607780D01*
X78762219Y-151560161D01*
X78714600Y-151512542D01*
X79666980Y-150941114D02*
X79905076Y-151607780D01*
X80143171Y-150941114D01*
X75777742Y-150556980D02*
X75301552Y-150556980D01*
X75253933Y-151033171D01*
X75301552Y-150985552D01*
X75396790Y-150937933D01*
X75634885Y-150937933D01*
X75730123Y-150985552D01*
X75777742Y-151033171D01*
X75825361Y-151128409D01*
X75825361Y-151366504D01*
X75777742Y-151461742D01*
X75730123Y-151509361D01*
X75634885Y-151556980D01*
X75396790Y-151556980D01*
X75301552Y-151509361D01*
X75253933Y-151461742D01*
X76158695Y-150890314D02*
X76396790Y-151556980D01*
X76634885Y-150890314D01*
D11*
X121294285Y-61925714D02*
X121222857Y-61854285D01*
X121151428Y-61640000D01*
X121151428Y-61497142D01*
X121222857Y-61282857D01*
X121365714Y-61140000D01*
X121508571Y-61068571D01*
X121794285Y-60997142D01*
X122008571Y-60997142D01*
X122294285Y-61068571D01*
X122437142Y-61140000D01*
X122580000Y-61282857D01*
X122651428Y-61497142D01*
X122651428Y-61640000D01*
X122580000Y-61854285D01*
X122508571Y-61925714D01*
X122151428Y-62425714D02*
X121151428Y-62782857D01*
X122151428Y-63140000D02*
X121151428Y-62782857D01*
X120794285Y-62640000D01*
X120722857Y-62568571D01*
X120651428Y-62425714D01*
X121222857Y-63640000D02*
X121151428Y-63854285D01*
X121151428Y-64211428D01*
X121222857Y-64354285D01*
X121294285Y-64425714D01*
X121437142Y-64497142D01*
X121580000Y-64497142D01*
X121722857Y-64425714D01*
X121794285Y-64354285D01*
X121865714Y-64211428D01*
X121937142Y-63925714D01*
X122008571Y-63782857D01*
X122080000Y-63711428D01*
X122222857Y-63640000D01*
X122365714Y-63640000D01*
X122508571Y-63711428D01*
X122580000Y-63782857D01*
X122651428Y-63925714D01*
X122651428Y-64282857D01*
X122580000Y-64497142D01*
X121151428Y-65782857D02*
X121937142Y-65782857D01*
X122080000Y-65711428D01*
X122151428Y-65568571D01*
X122151428Y-65282857D01*
X122080000Y-65140000D01*
X121222857Y-65782857D02*
X121151428Y-65640000D01*
X121151428Y-65282857D01*
X121222857Y-65140000D01*
X121365714Y-65068571D01*
X121508571Y-65068571D01*
X121651428Y-65140000D01*
X121722857Y-65282857D01*
X121722857Y-65640000D01*
X121794285Y-65782857D01*
X122151428Y-66282857D02*
X122151428Y-66854285D01*
X122651428Y-66497142D02*
X121365714Y-66497142D01*
X121222857Y-66568571D01*
X121151428Y-66711428D01*
X121151428Y-66854285D01*
X121151428Y-69282857D02*
X121151428Y-68425714D01*
X121151428Y-68854285D02*
X122651428Y-68854285D01*
X122437142Y-68711428D01*
X122294285Y-68568571D01*
X122222857Y-68425714D01*
X121722857Y-71068571D02*
X121722857Y-72211428D01*
X121222857Y-73997142D02*
X121151428Y-74211428D01*
X121151428Y-74568571D01*
X121222857Y-74711428D01*
X121294285Y-74782857D01*
X121437142Y-74854285D01*
X121580000Y-74854285D01*
X121722857Y-74782857D01*
X121794285Y-74711428D01*
X121865714Y-74568571D01*
X121937142Y-74282857D01*
X122008571Y-74140000D01*
X122080000Y-74068571D01*
X122222857Y-73997142D01*
X122365714Y-73997142D01*
X122508571Y-74068571D01*
X122580000Y-74140000D01*
X122651428Y-74282857D01*
X122651428Y-74640000D01*
X122580000Y-74854285D01*
X121151428Y-75497142D02*
X122651428Y-75497142D01*
X122651428Y-75854285D01*
X122580000Y-76068571D01*
X122437142Y-76211428D01*
X122294285Y-76282857D01*
X122008571Y-76354285D01*
X121794285Y-76354285D01*
X121508571Y-76282857D01*
X121365714Y-76211428D01*
X121222857Y-76068571D01*
X121151428Y-75854285D01*
X121151428Y-75497142D01*
X121151428Y-77854285D02*
X121865714Y-77354285D01*
X121151428Y-76997142D02*
X122651428Y-76997142D01*
X122651428Y-77568571D01*
X122580000Y-77711428D01*
X122508571Y-77782857D01*
X122365714Y-77854285D01*
X122151428Y-77854285D01*
X122008571Y-77782857D01*
X121937142Y-77711428D01*
X121865714Y-77568571D01*
X121865714Y-76997142D01*
X121294285Y-80497142D02*
X121222857Y-80425714D01*
X121151428Y-80211428D01*
X121151428Y-80068571D01*
X121222857Y-79854285D01*
X121365714Y-79711428D01*
X121508571Y-79640000D01*
X121794285Y-79568571D01*
X122008571Y-79568571D01*
X122294285Y-79640000D01*
X122437142Y-79711428D01*
X122580000Y-79854285D01*
X122651428Y-80068571D01*
X122651428Y-80211428D01*
X122580000Y-80425714D01*
X122508571Y-80497142D01*
X121151428Y-81782857D02*
X121937142Y-81782857D01*
X122080000Y-81711428D01*
X122151428Y-81568571D01*
X122151428Y-81282857D01*
X122080000Y-81140000D01*
X121222857Y-81782857D02*
X121151428Y-81640000D01*
X121151428Y-81282857D01*
X121222857Y-81140000D01*
X121365714Y-81068571D01*
X121508571Y-81068571D01*
X121651428Y-81140000D01*
X121722857Y-81282857D01*
X121722857Y-81640000D01*
X121794285Y-81782857D01*
X121151428Y-82497142D02*
X122151428Y-82497142D01*
X121865714Y-82497142D02*
X122008571Y-82568571D01*
X122080000Y-82640000D01*
X122151428Y-82782857D01*
X122151428Y-82925714D01*
X121151428Y-83425714D02*
X122151428Y-83425714D01*
X121865714Y-83425714D02*
X122008571Y-83497142D01*
X122080000Y-83568571D01*
X122151428Y-83711428D01*
X122151428Y-83854285D01*
X121151428Y-84354285D02*
X122151428Y-84354285D01*
X122651428Y-84354285D02*
X122580000Y-84282857D01*
X122508571Y-84354285D01*
X122580000Y-84425714D01*
X122651428Y-84354285D01*
X122508571Y-84354285D01*
X121222857Y-85640000D02*
X121151428Y-85497142D01*
X121151428Y-85211428D01*
X121222857Y-85068571D01*
X121365714Y-84997142D01*
X121937142Y-84997142D01*
X122080000Y-85068571D01*
X122151428Y-85211428D01*
X122151428Y-85497142D01*
X122080000Y-85640000D01*
X121937142Y-85711428D01*
X121794285Y-85711428D01*
X121651428Y-84997142D01*
X121151428Y-86354285D02*
X122151428Y-86354285D01*
X121865714Y-86354285D02*
X122008571Y-86425714D01*
X122080000Y-86497142D01*
X122151428Y-86640000D01*
X122151428Y-86782857D01*
X121937142Y-88925714D02*
X121865714Y-89140000D01*
X121794285Y-89211428D01*
X121651428Y-89282857D01*
X121437142Y-89282857D01*
X121294285Y-89211428D01*
X121222857Y-89140000D01*
X121151428Y-88997142D01*
X121151428Y-88425714D01*
X122651428Y-88425714D01*
X122651428Y-88925714D01*
X122580000Y-89068571D01*
X122508571Y-89140000D01*
X122365714Y-89211428D01*
X122222857Y-89211428D01*
X122080000Y-89140000D01*
X122008571Y-89068571D01*
X121937142Y-88925714D01*
X121937142Y-88425714D01*
X121151428Y-90140000D02*
X121222857Y-89997142D01*
X121294285Y-89925714D01*
X121437142Y-89854285D01*
X121865714Y-89854285D01*
X122008571Y-89925714D01*
X122080000Y-89997142D01*
X122151428Y-90140000D01*
X122151428Y-90354285D01*
X122080000Y-90497142D01*
X122008571Y-90568571D01*
X121865714Y-90640000D01*
X121437142Y-90640000D01*
X121294285Y-90568571D01*
X121222857Y-90497142D01*
X121151428Y-90354285D01*
X121151428Y-90140000D01*
X121151428Y-91925714D02*
X121937142Y-91925714D01*
X122080000Y-91854285D01*
X122151428Y-91711428D01*
X122151428Y-91425714D01*
X122080000Y-91282857D01*
X121222857Y-91925714D02*
X121151428Y-91782857D01*
X121151428Y-91425714D01*
X121222857Y-91282857D01*
X121365714Y-91211428D01*
X121508571Y-91211428D01*
X121651428Y-91282857D01*
X121722857Y-91425714D01*
X121722857Y-91782857D01*
X121794285Y-91925714D01*
X121151428Y-92640000D02*
X122151428Y-92640000D01*
X121865714Y-92640000D02*
X122008571Y-92711428D01*
X122080000Y-92782857D01*
X122151428Y-92925714D01*
X122151428Y-93068571D01*
X121151428Y-94211428D02*
X122651428Y-94211428D01*
X121222857Y-94211428D02*
X121151428Y-94068571D01*
X121151428Y-93782857D01*
X121222857Y-93640000D01*
X121294285Y-93568571D01*
X121437142Y-93497142D01*
X121865714Y-93497142D01*
X122008571Y-93568571D01*
X122080000Y-93640000D01*
X122151428Y-93782857D01*
X122151428Y-94068571D01*
X122080000Y-94211428D01*
X86480952Y-53954761D02*
X86480952Y-55383333D01*
X86385714Y-55669047D01*
X86195238Y-55859523D01*
X85909523Y-55954761D01*
X85719047Y-55954761D01*
X87242857Y-53954761D02*
X88576190Y-55954761D01*
X88576190Y-53954761D02*
X87242857Y-55954761D01*
X89147619Y-53954761D02*
X90385714Y-53954761D01*
X89719047Y-54716666D01*
X90004761Y-54716666D01*
X90195238Y-54811904D01*
X90290476Y-54907142D01*
X90385714Y-55097619D01*
X90385714Y-55573809D01*
X90290476Y-55764285D01*
X90195238Y-55859523D01*
X90004761Y-55954761D01*
X89433333Y-55954761D01*
X89242857Y-55859523D01*
X89147619Y-55764285D01*
X85540952Y-138684761D02*
X85540952Y-140113333D01*
X85445714Y-140399047D01*
X85255238Y-140589523D01*
X84969523Y-140684761D01*
X84779047Y-140684761D01*
X86302857Y-138684761D02*
X87636190Y-140684761D01*
X87636190Y-138684761D02*
X86302857Y-140684761D01*
X89255238Y-139351428D02*
X89255238Y-140684761D01*
X88779047Y-138589523D02*
X88302857Y-140018095D01*
X89540952Y-140018095D01*
X114814761Y-99539047D02*
X116243333Y-99539047D01*
X116529047Y-99634285D01*
X116719523Y-99824761D01*
X116814761Y-100110476D01*
X116814761Y-100300952D01*
X114814761Y-98777142D02*
X116814761Y-97443809D01*
X114814761Y-97443809D02*
X116814761Y-98777142D01*
X115005238Y-96777142D02*
X114910000Y-96681904D01*
X114814761Y-96491428D01*
X114814761Y-96015238D01*
X114910000Y-95824761D01*
X115005238Y-95729523D01*
X115195714Y-95634285D01*
X115386190Y-95634285D01*
X115671904Y-95729523D01*
X116814761Y-96872380D01*
X116814761Y-95634285D01*
X58584761Y-101779047D02*
X60013333Y-101779047D01*
X60299047Y-101874285D01*
X60489523Y-102064761D01*
X60584761Y-102350476D01*
X60584761Y-102540952D01*
X58584761Y-101017142D02*
X60584761Y-99683809D01*
X58584761Y-99683809D02*
X60584761Y-101017142D01*
X60584761Y-97874285D02*
X60584761Y-99017142D01*
X60584761Y-98445714D02*
X58584761Y-98445714D01*
X58870476Y-98636190D01*
X59060952Y-98826666D01*
X59156190Y-99017142D01*
D12*
X118869600Y-151203800D02*
X122379600Y-151203800D01*
X118869600Y-154713800D02*
X122379600Y-154713800D01*
X122379600Y-151203800D02*
X122379600Y-154713800D01*
X118869600Y-151203800D02*
X118869600Y-154713800D01*
X111859200Y-151229200D02*
X115369200Y-151229200D01*
X111859200Y-154739200D02*
X115369200Y-154739200D01*
X115369200Y-151229200D02*
X115369200Y-154739200D01*
X111859200Y-151229200D02*
X111859200Y-154739200D01*
D13*
X108145000Y-138045000D02*
G75*
G03X108145000Y-138045000I-100000J0D01*
G01*
D14*
X64845000Y-131645000D02*
X67545000Y-131645000D01*
X64845000Y-137645000D02*
X64845000Y-131645000D01*
X67545000Y-137645000D02*
X64845000Y-137645000D01*
X110645000Y-131645000D02*
X107945000Y-131645000D01*
X110645000Y-137645000D02*
X110645000Y-131645000D01*
X110645000Y-137645000D02*
X107945000Y-137645000D01*
D13*
X67545000Y-57255000D02*
G75*
G03X67545000Y-57255000I-100000J0D01*
G01*
D14*
X110645000Y-63655000D02*
X107945000Y-63655000D01*
X110645000Y-57655000D02*
X110645000Y-63655000D01*
X107945000Y-57655000D02*
X110645000Y-57655000D01*
X64845000Y-63655000D02*
X67545000Y-63655000D01*
X64845000Y-57655000D02*
X64845000Y-63655000D01*
X64845000Y-57655000D02*
X67545000Y-57655000D01*
D13*
X113965000Y-80295000D02*
G75*
G03X113965000Y-80295000I-100000J0D01*
G01*
D14*
X107465000Y-123495000D02*
X107465000Y-120795000D01*
X113465000Y-123495000D02*
X107465000Y-123495000D01*
X113465000Y-120795000D02*
X113465000Y-123495000D01*
X107465000Y-77695000D02*
X107465000Y-80395000D01*
X113465000Y-77695000D02*
X107465000Y-77695000D01*
X113465000Y-77695000D02*
X113465000Y-80395000D01*
D13*
X69315000Y-80295000D02*
G75*
G03X69315000Y-80295000I-100000J0D01*
G01*
D14*
X62815000Y-123495000D02*
X62815000Y-120795000D01*
X68815000Y-123495000D02*
X62815000Y-123495000D01*
X68815000Y-120795000D02*
X68815000Y-123495000D01*
X62815000Y-77695000D02*
X62815000Y-80395000D01*
X68815000Y-77695000D02*
X62815000Y-77695000D01*
X68815000Y-77695000D02*
X68815000Y-80395000D01*
D12*
X74971600Y-155508000D02*
X74971600Y-154178000D01*
X76301600Y-155508000D02*
X74971600Y-155508000D01*
X77571600Y-155508000D02*
X77571600Y-152848000D01*
X77571600Y-152848000D02*
X100491600Y-152848000D01*
X77571600Y-155508000D02*
X100491600Y-155508000D01*
X100491600Y-155508000D02*
X100491600Y-152848000D01*
D10*
X119462695Y-156263561D02*
X119605552Y-156311180D01*
X119843647Y-156311180D01*
X119938885Y-156263561D01*
X119986504Y-156215942D01*
X120034123Y-156120704D01*
X120034123Y-156025466D01*
X119986504Y-155930228D01*
X119938885Y-155882609D01*
X119843647Y-155834990D01*
X119653171Y-155787371D01*
X119557933Y-155739752D01*
X119510314Y-155692133D01*
X119462695Y-155596895D01*
X119462695Y-155501657D01*
X119510314Y-155406419D01*
X119557933Y-155358800D01*
X119653171Y-155311180D01*
X119891266Y-155311180D01*
X120034123Y-155358800D01*
X120462695Y-156311180D02*
X120462695Y-155311180D01*
X120796028Y-156025466D01*
X121129361Y-155311180D01*
X121129361Y-156311180D01*
X121557933Y-156025466D02*
X122034123Y-156025466D01*
X121462695Y-156311180D02*
X121796028Y-155311180D01*
X122129361Y-156311180D01*
X122415076Y-155406419D02*
X122462695Y-155358800D01*
X122557933Y-155311180D01*
X122796028Y-155311180D01*
X122891266Y-155358800D01*
X122938885Y-155406419D01*
X122986504Y-155501657D01*
X122986504Y-155596895D01*
X122938885Y-155739752D01*
X122367457Y-156311180D01*
X122986504Y-156311180D01*
X112452295Y-156288961D02*
X112595152Y-156336580D01*
X112833247Y-156336580D01*
X112928485Y-156288961D01*
X112976104Y-156241342D01*
X113023723Y-156146104D01*
X113023723Y-156050866D01*
X112976104Y-155955628D01*
X112928485Y-155908009D01*
X112833247Y-155860390D01*
X112642771Y-155812771D01*
X112547533Y-155765152D01*
X112499914Y-155717533D01*
X112452295Y-155622295D01*
X112452295Y-155527057D01*
X112499914Y-155431819D01*
X112547533Y-155384200D01*
X112642771Y-155336580D01*
X112880866Y-155336580D01*
X113023723Y-155384200D01*
X113452295Y-156336580D02*
X113452295Y-155336580D01*
X113785628Y-156050866D01*
X114118961Y-155336580D01*
X114118961Y-156336580D01*
X114547533Y-156050866D02*
X115023723Y-156050866D01*
X114452295Y-156336580D02*
X114785628Y-155336580D01*
X115118961Y-156336580D01*
X115976104Y-156336580D02*
X115404676Y-156336580D01*
X115690390Y-156336580D02*
X115690390Y-155336580D01*
X115595152Y-155479438D01*
X115499914Y-155574676D01*
X115404676Y-155622295D01*
X104267095Y-151404980D02*
X104267095Y-150404980D01*
X104267095Y-150881171D02*
X104838523Y-150881171D01*
X104838523Y-151404980D02*
X104838523Y-150404980D01*
X105219476Y-150404980D02*
X105886142Y-150404980D01*
X105457571Y-151404980D01*
X107569095Y-151404980D02*
X107569095Y-150404980D01*
X107569095Y-150881171D02*
X108140523Y-150881171D01*
X108140523Y-151404980D02*
X108140523Y-150404980D01*
X109045285Y-150404980D02*
X108854809Y-150404980D01*
X108759571Y-150452600D01*
X108711952Y-150500219D01*
X108616714Y-150643076D01*
X108569095Y-150833552D01*
X108569095Y-151214504D01*
X108616714Y-151309742D01*
X108664333Y-151357361D01*
X108759571Y-151404980D01*
X108950047Y-151404980D01*
X109045285Y-151357361D01*
X109092904Y-151309742D01*
X109140523Y-151214504D01*
X109140523Y-150976409D01*
X109092904Y-150881171D01*
X109045285Y-150833552D01*
X108950047Y-150785933D01*
X108759571Y-150785933D01*
X108664333Y-150833552D01*
X108616714Y-150881171D01*
X108569095Y-150976409D01*
X55148361Y-151839561D02*
X55243600Y-151887180D01*
X55434076Y-151887180D01*
X55529314Y-151839561D01*
X55576933Y-151744323D01*
X55576933Y-151696704D01*
X55529314Y-151601466D01*
X55434076Y-151553847D01*
X55291219Y-151553847D01*
X55195980Y-151506228D01*
X55148361Y-151410990D01*
X55148361Y-151363371D01*
X55195980Y-151268133D01*
X55291219Y-151220514D01*
X55434076Y-151220514D01*
X55529314Y-151268133D01*
X56434076Y-151887180D02*
X56434076Y-150887180D01*
X56434076Y-151839561D02*
X56338838Y-151887180D01*
X56148361Y-151887180D01*
X56053123Y-151839561D01*
X56005504Y-151791942D01*
X55957885Y-151696704D01*
X55957885Y-151410990D01*
X56005504Y-151315752D01*
X56053123Y-151268133D01*
X56148361Y-151220514D01*
X56338838Y-151220514D01*
X56434076Y-151268133D01*
X57338838Y-151887180D02*
X57338838Y-151363371D01*
X57291219Y-151268133D01*
X57195980Y-151220514D01*
X57005504Y-151220514D01*
X56910266Y-151268133D01*
X57338838Y-151839561D02*
X57243600Y-151887180D01*
X57005504Y-151887180D01*
X56910266Y-151839561D01*
X56862647Y-151744323D01*
X56862647Y-151649085D01*
X56910266Y-151553847D01*
X57005504Y-151506228D01*
X57243600Y-151506228D01*
X57338838Y-151458609D01*
X58338838Y-151887180D02*
X57767409Y-151887180D01*
X58053123Y-151887180D02*
X58053123Y-150887180D01*
X57957885Y-151030038D01*
X57862647Y-151125276D01*
X57767409Y-151172895D01*
X50333447Y-152347561D02*
X50428685Y-152395180D01*
X50619161Y-152395180D01*
X50714400Y-152347561D01*
X50762019Y-152252323D01*
X50762019Y-152204704D01*
X50714400Y-152109466D01*
X50619161Y-152061847D01*
X50476304Y-152061847D01*
X50381066Y-152014228D01*
X50333447Y-151918990D01*
X50333447Y-151871371D01*
X50381066Y-151776133D01*
X50476304Y-151728514D01*
X50619161Y-151728514D01*
X50714400Y-151776133D01*
X51619161Y-152347561D02*
X51523923Y-152395180D01*
X51333447Y-152395180D01*
X51238209Y-152347561D01*
X51190590Y-152299942D01*
X51142971Y-152204704D01*
X51142971Y-151918990D01*
X51190590Y-151823752D01*
X51238209Y-151776133D01*
X51333447Y-151728514D01*
X51523923Y-151728514D01*
X51619161Y-151776133D01*
X52190590Y-152395180D02*
X52095352Y-152347561D01*
X52047733Y-152252323D01*
X52047733Y-151395180D01*
X52762019Y-151395180D02*
X52857257Y-151395180D01*
X52952495Y-151442800D01*
X53000114Y-151490419D01*
X53047733Y-151585657D01*
X53095352Y-151776133D01*
X53095352Y-152014228D01*
X53047733Y-152204704D01*
X53000114Y-152299942D01*
X52952495Y-152347561D01*
X52857257Y-152395180D01*
X52762019Y-152395180D01*
X52666780Y-152347561D01*
X52619161Y-152299942D01*
X52571542Y-152204704D01*
X52523923Y-152014228D01*
X52523923Y-151776133D01*
X52571542Y-151585657D01*
X52619161Y-151490419D01*
X52666780Y-151442800D01*
X52762019Y-151395180D01*
X59110761Y-152652361D02*
X59206000Y-152699980D01*
X59396476Y-152699980D01*
X59491714Y-152652361D01*
X59539333Y-152557123D01*
X59539333Y-152509504D01*
X59491714Y-152414266D01*
X59396476Y-152366647D01*
X59253619Y-152366647D01*
X59158380Y-152319028D01*
X59110761Y-152223790D01*
X59110761Y-152176171D01*
X59158380Y-152080933D01*
X59253619Y-152033314D01*
X59396476Y-152033314D01*
X59491714Y-152080933D01*
X60396476Y-152699980D02*
X60396476Y-151699980D01*
X60396476Y-152652361D02*
X60301238Y-152699980D01*
X60110761Y-152699980D01*
X60015523Y-152652361D01*
X59967904Y-152604742D01*
X59920285Y-152509504D01*
X59920285Y-152223790D01*
X59967904Y-152128552D01*
X60015523Y-152080933D01*
X60110761Y-152033314D01*
X60301238Y-152033314D01*
X60396476Y-152080933D01*
X61301238Y-152699980D02*
X61301238Y-152176171D01*
X61253619Y-152080933D01*
X61158380Y-152033314D01*
X60967904Y-152033314D01*
X60872666Y-152080933D01*
X61301238Y-152652361D02*
X61206000Y-152699980D01*
X60967904Y-152699980D01*
X60872666Y-152652361D01*
X60825047Y-152557123D01*
X60825047Y-152461885D01*
X60872666Y-152366647D01*
X60967904Y-152319028D01*
X61206000Y-152319028D01*
X61301238Y-152271409D01*
X61967904Y-151699980D02*
X62063142Y-151699980D01*
X62158380Y-151747600D01*
X62206000Y-151795219D01*
X62253619Y-151890457D01*
X62301238Y-152080933D01*
X62301238Y-152319028D01*
X62253619Y-152509504D01*
X62206000Y-152604742D01*
X62158380Y-152652361D01*
X62063142Y-152699980D01*
X61967904Y-152699980D01*
X61872666Y-152652361D01*
X61825047Y-152604742D01*
X61777428Y-152509504D01*
X61729809Y-152319028D01*
X61729809Y-152080933D01*
X61777428Y-151890457D01*
X61825047Y-151795219D01*
X61872666Y-151747600D01*
X61967904Y-151699980D01*
X63982695Y-150709780D02*
X64554123Y-150709780D01*
X64268409Y-151709780D02*
X64268409Y-150709780D01*
X64792219Y-150709780D02*
X65458885Y-151709780D01*
X65458885Y-150709780D02*
X64792219Y-151709780D01*
X68184733Y-151785980D02*
X67851400Y-151309790D01*
X67613304Y-151785980D02*
X67613304Y-150785980D01*
X67994257Y-150785980D01*
X68089495Y-150833600D01*
X68137114Y-150881219D01*
X68184733Y-150976457D01*
X68184733Y-151119314D01*
X68137114Y-151214552D01*
X68089495Y-151262171D01*
X67994257Y-151309790D01*
X67613304Y-151309790D01*
X68518066Y-150785980D02*
X69184733Y-151785980D01*
X69184733Y-150785980D02*
X68518066Y-151785980D01*
D15*
X107537084Y-140118036D02*
X107537084Y-139114486D01*
X107919389Y-139114486D01*
X108014965Y-139162275D01*
X108062753Y-139210063D01*
X108110541Y-139305639D01*
X108110541Y-139449003D01*
X108062753Y-139544579D01*
X108014965Y-139592367D01*
X107919389Y-139640155D01*
X107537084Y-139640155D01*
X108970727Y-139449003D02*
X108970727Y-140118036D01*
X108731786Y-139066698D02*
X108492846Y-139783520D01*
X109114091Y-139783520D01*
X103588726Y-129893597D02*
X103540978Y-129941344D01*
X103397735Y-129989092D01*
X103302240Y-129989092D01*
X103158997Y-129941344D01*
X103063502Y-129845849D01*
X103015754Y-129750354D01*
X102968007Y-129559363D01*
X102968007Y-129416120D01*
X103015754Y-129225130D01*
X103063502Y-129129635D01*
X103158997Y-129034140D01*
X103302240Y-128986392D01*
X103397735Y-128986392D01*
X103540978Y-129034140D01*
X103588726Y-129081887D01*
X104209445Y-128986392D02*
X104400435Y-128986392D01*
X104495930Y-129034140D01*
X104591426Y-129129635D01*
X104639173Y-129320625D01*
X104639173Y-129654859D01*
X104591426Y-129845849D01*
X104495930Y-129941344D01*
X104400435Y-129989092D01*
X104209445Y-129989092D01*
X104113950Y-129941344D01*
X104018454Y-129845849D01*
X103970707Y-129654859D01*
X103970707Y-129320625D01*
X104018454Y-129129635D01*
X104113950Y-129034140D01*
X104209445Y-128986392D01*
X105068902Y-129989092D02*
X105068902Y-128986392D01*
X105641873Y-129989092D01*
X105641873Y-128986392D01*
X106119350Y-129989092D02*
X106119350Y-128986392D01*
X106692321Y-129989092D01*
X106692321Y-128986392D01*
X106931059Y-130084587D02*
X107695021Y-130084587D01*
X108124750Y-128986392D02*
X108220245Y-128986392D01*
X108315740Y-129034140D01*
X108363488Y-129081887D01*
X108411235Y-129177382D01*
X108458983Y-129368373D01*
X108458983Y-129607111D01*
X108411235Y-129798101D01*
X108363488Y-129893597D01*
X108315740Y-129941344D01*
X108220245Y-129989092D01*
X108124750Y-129989092D01*
X108029254Y-129941344D01*
X107981507Y-129893597D01*
X107933759Y-129798101D01*
X107886011Y-129607111D01*
X107886011Y-129368373D01*
X107933759Y-129177382D01*
X107981507Y-129081887D01*
X108029254Y-129034140D01*
X108124750Y-128986392D01*
X108840964Y-129081887D02*
X108888711Y-129034140D01*
X108984207Y-128986392D01*
X109222945Y-128986392D01*
X109318440Y-129034140D01*
X109366188Y-129081887D01*
X109413935Y-129177382D01*
X109413935Y-129272878D01*
X109366188Y-129416120D01*
X108793216Y-129989092D01*
X109413935Y-129989092D01*
X109748169Y-128986392D02*
X110416635Y-129989092D01*
X110416635Y-128986392D02*
X109748169Y-129989092D01*
X111276092Y-128986392D02*
X110798616Y-128986392D01*
X110750869Y-129463868D01*
X110798616Y-129416120D01*
X110894111Y-129368373D01*
X111132850Y-129368373D01*
X111228345Y-129416120D01*
X111276092Y-129463868D01*
X111323840Y-129559363D01*
X111323840Y-129798101D01*
X111276092Y-129893597D01*
X111228345Y-129941344D01*
X111132850Y-129989092D01*
X110894111Y-129989092D01*
X110798616Y-129941344D01*
X110750869Y-129893597D01*
X111944559Y-128986392D02*
X112040054Y-128986392D01*
X112135550Y-129034140D01*
X112183297Y-129081887D01*
X112231045Y-129177382D01*
X112278792Y-129368373D01*
X112278792Y-129607111D01*
X112231045Y-129798101D01*
X112183297Y-129893597D01*
X112135550Y-129941344D01*
X112040054Y-129989092D01*
X111944559Y-129989092D01*
X111849064Y-129941344D01*
X111801316Y-129893597D01*
X111753569Y-129798101D01*
X111705821Y-129607111D01*
X111705821Y-129368373D01*
X111753569Y-129177382D01*
X111801316Y-129081887D01*
X111849064Y-129034140D01*
X111944559Y-128986392D01*
X66471484Y-56089936D02*
X66471484Y-55086386D01*
X66853789Y-55086386D01*
X66949365Y-55134175D01*
X66997153Y-55181963D01*
X67044941Y-55277539D01*
X67044941Y-55420903D01*
X66997153Y-55516479D01*
X66949365Y-55564267D01*
X66853789Y-55612055D01*
X66471484Y-55612055D01*
X67379458Y-55086386D02*
X68000703Y-55086386D01*
X67666186Y-55468691D01*
X67809551Y-55468691D01*
X67905127Y-55516479D01*
X67952915Y-55564267D01*
X68000703Y-55659844D01*
X68000703Y-55898784D01*
X67952915Y-55994360D01*
X67905127Y-56042148D01*
X67809551Y-56089936D01*
X67522822Y-56089936D01*
X67427246Y-56042148D01*
X67379458Y-55994360D01*
X63831926Y-66122617D02*
X63784178Y-66170364D01*
X63640935Y-66218112D01*
X63545440Y-66218112D01*
X63402197Y-66170364D01*
X63306702Y-66074869D01*
X63258954Y-65979374D01*
X63211207Y-65788383D01*
X63211207Y-65645140D01*
X63258954Y-65454150D01*
X63306702Y-65358655D01*
X63402197Y-65263160D01*
X63545440Y-65215412D01*
X63640935Y-65215412D01*
X63784178Y-65263160D01*
X63831926Y-65310907D01*
X64452645Y-65215412D02*
X64643635Y-65215412D01*
X64739130Y-65263160D01*
X64834626Y-65358655D01*
X64882373Y-65549645D01*
X64882373Y-65883879D01*
X64834626Y-66074869D01*
X64739130Y-66170364D01*
X64643635Y-66218112D01*
X64452645Y-66218112D01*
X64357150Y-66170364D01*
X64261654Y-66074869D01*
X64213907Y-65883879D01*
X64213907Y-65549645D01*
X64261654Y-65358655D01*
X64357150Y-65263160D01*
X64452645Y-65215412D01*
X65312102Y-66218112D02*
X65312102Y-65215412D01*
X65885073Y-66218112D01*
X65885073Y-65215412D01*
X66362550Y-66218112D02*
X66362550Y-65215412D01*
X66935521Y-66218112D01*
X66935521Y-65215412D01*
X67174259Y-66313607D02*
X67938221Y-66313607D01*
X68367950Y-65215412D02*
X68463445Y-65215412D01*
X68558940Y-65263160D01*
X68606688Y-65310907D01*
X68654435Y-65406402D01*
X68702183Y-65597393D01*
X68702183Y-65836131D01*
X68654435Y-66027121D01*
X68606688Y-66122617D01*
X68558940Y-66170364D01*
X68463445Y-66218112D01*
X68367950Y-66218112D01*
X68272454Y-66170364D01*
X68224707Y-66122617D01*
X68176959Y-66027121D01*
X68129211Y-65836131D01*
X68129211Y-65597393D01*
X68176959Y-65406402D01*
X68224707Y-65310907D01*
X68272454Y-65263160D01*
X68367950Y-65215412D01*
X69084164Y-65310907D02*
X69131911Y-65263160D01*
X69227407Y-65215412D01*
X69466145Y-65215412D01*
X69561640Y-65263160D01*
X69609388Y-65310907D01*
X69657135Y-65406402D01*
X69657135Y-65501898D01*
X69609388Y-65645140D01*
X69036416Y-66218112D01*
X69657135Y-66218112D01*
X69991369Y-65215412D02*
X70659835Y-66218112D01*
X70659835Y-65215412D02*
X69991369Y-66218112D01*
X71519292Y-65215412D02*
X71041816Y-65215412D01*
X70994069Y-65692888D01*
X71041816Y-65645140D01*
X71137311Y-65597393D01*
X71376050Y-65597393D01*
X71471545Y-65645140D01*
X71519292Y-65692888D01*
X71567040Y-65788383D01*
X71567040Y-66027121D01*
X71519292Y-66122617D01*
X71471545Y-66170364D01*
X71376050Y-66218112D01*
X71137311Y-66218112D01*
X71041816Y-66170364D01*
X70994069Y-66122617D01*
X72187759Y-65215412D02*
X72283254Y-65215412D01*
X72378750Y-65263160D01*
X72426497Y-65310907D01*
X72474245Y-65406402D01*
X72521992Y-65597393D01*
X72521992Y-65836131D01*
X72474245Y-66027121D01*
X72426497Y-66122617D01*
X72378750Y-66170364D01*
X72283254Y-66218112D01*
X72187759Y-66218112D01*
X72092264Y-66170364D01*
X72044516Y-66122617D01*
X71996769Y-66027121D01*
X71949021Y-65836131D01*
X71949021Y-65597393D01*
X71996769Y-65406402D01*
X72044516Y-65310907D01*
X72092264Y-65263160D01*
X72187759Y-65215412D01*
X115938036Y-80802915D02*
X114934486Y-80802915D01*
X114934486Y-80420610D01*
X114982275Y-80325034D01*
X115030063Y-80277246D01*
X115125639Y-80229458D01*
X115269003Y-80229458D01*
X115364579Y-80277246D01*
X115412367Y-80325034D01*
X115460155Y-80420610D01*
X115460155Y-80802915D01*
X115030063Y-79847153D02*
X114982275Y-79799365D01*
X114934486Y-79703789D01*
X114934486Y-79464848D01*
X114982275Y-79369272D01*
X115030063Y-79321484D01*
X115125639Y-79273696D01*
X115221215Y-79273696D01*
X115364579Y-79321484D01*
X115938036Y-79894941D01*
X115938036Y-79273696D01*
X105713597Y-84751273D02*
X105761344Y-84799021D01*
X105809092Y-84942264D01*
X105809092Y-85037759D01*
X105761344Y-85181002D01*
X105665849Y-85276497D01*
X105570354Y-85324245D01*
X105379363Y-85371992D01*
X105236120Y-85371992D01*
X105045130Y-85324245D01*
X104949635Y-85276497D01*
X104854140Y-85181002D01*
X104806392Y-85037759D01*
X104806392Y-84942264D01*
X104854140Y-84799021D01*
X104901887Y-84751273D01*
X104806392Y-84130554D02*
X104806392Y-83939564D01*
X104854140Y-83844069D01*
X104949635Y-83748573D01*
X105140625Y-83700826D01*
X105474859Y-83700826D01*
X105665849Y-83748573D01*
X105761344Y-83844069D01*
X105809092Y-83939564D01*
X105809092Y-84130554D01*
X105761344Y-84226050D01*
X105665849Y-84321545D01*
X105474859Y-84369292D01*
X105140625Y-84369292D01*
X104949635Y-84321545D01*
X104854140Y-84226050D01*
X104806392Y-84130554D01*
X105809092Y-83271097D02*
X104806392Y-83271097D01*
X105809092Y-82698126D01*
X104806392Y-82698126D01*
X105809092Y-82220650D02*
X104806392Y-82220650D01*
X105809092Y-81647678D01*
X104806392Y-81647678D01*
X105904587Y-81408940D02*
X105904587Y-80644978D01*
X104806392Y-80215250D02*
X104806392Y-80119754D01*
X104854140Y-80024259D01*
X104901887Y-79976511D01*
X104997382Y-79928764D01*
X105188373Y-79881016D01*
X105427111Y-79881016D01*
X105618101Y-79928764D01*
X105713597Y-79976511D01*
X105761344Y-80024259D01*
X105809092Y-80119754D01*
X105809092Y-80215250D01*
X105761344Y-80310745D01*
X105713597Y-80358492D01*
X105618101Y-80406240D01*
X105427111Y-80453988D01*
X105188373Y-80453988D01*
X104997382Y-80406240D01*
X104901887Y-80358492D01*
X104854140Y-80310745D01*
X104806392Y-80215250D01*
X104901887Y-79499035D02*
X104854140Y-79451288D01*
X104806392Y-79355792D01*
X104806392Y-79117054D01*
X104854140Y-79021559D01*
X104901887Y-78973811D01*
X104997382Y-78926064D01*
X105092878Y-78926064D01*
X105236120Y-78973811D01*
X105809092Y-79546783D01*
X105809092Y-78926064D01*
X104806392Y-78591830D02*
X105809092Y-77923364D01*
X104806392Y-77923364D02*
X105809092Y-78591830D01*
X104806392Y-77063907D02*
X104806392Y-77541383D01*
X105283868Y-77589130D01*
X105236120Y-77541383D01*
X105188373Y-77445888D01*
X105188373Y-77207150D01*
X105236120Y-77111654D01*
X105283868Y-77063907D01*
X105379363Y-77016159D01*
X105618101Y-77016159D01*
X105713597Y-77063907D01*
X105761344Y-77111654D01*
X105809092Y-77207150D01*
X105809092Y-77445888D01*
X105761344Y-77541383D01*
X105713597Y-77589130D01*
X104806392Y-76395440D02*
X104806392Y-76299945D01*
X104854140Y-76204450D01*
X104901887Y-76156702D01*
X104997382Y-76108954D01*
X105188373Y-76061207D01*
X105427111Y-76061207D01*
X105618101Y-76108954D01*
X105713597Y-76156702D01*
X105761344Y-76204450D01*
X105809092Y-76299945D01*
X105809092Y-76395440D01*
X105761344Y-76490935D01*
X105713597Y-76538683D01*
X105618101Y-76586430D01*
X105427111Y-76634178D01*
X105188373Y-76634178D01*
X104997382Y-76586430D01*
X104901887Y-76538683D01*
X104854140Y-76490935D01*
X104806392Y-76395440D01*
X71288036Y-80802915D02*
X70284486Y-80802915D01*
X70284486Y-80420610D01*
X70332275Y-80325034D01*
X70380063Y-80277246D01*
X70475639Y-80229458D01*
X70619003Y-80229458D01*
X70714579Y-80277246D01*
X70762367Y-80325034D01*
X70810155Y-80420610D01*
X70810155Y-80802915D01*
X71288036Y-79273696D02*
X71288036Y-79847153D01*
X71288036Y-79560425D02*
X70284486Y-79560425D01*
X70427851Y-79656001D01*
X70523427Y-79751577D01*
X70571215Y-79847153D01*
X61063597Y-84751273D02*
X61111344Y-84799021D01*
X61159092Y-84942264D01*
X61159092Y-85037759D01*
X61111344Y-85181002D01*
X61015849Y-85276497D01*
X60920354Y-85324245D01*
X60729363Y-85371992D01*
X60586120Y-85371992D01*
X60395130Y-85324245D01*
X60299635Y-85276497D01*
X60204140Y-85181002D01*
X60156392Y-85037759D01*
X60156392Y-84942264D01*
X60204140Y-84799021D01*
X60251887Y-84751273D01*
X60156392Y-84130554D02*
X60156392Y-83939564D01*
X60204140Y-83844069D01*
X60299635Y-83748573D01*
X60490625Y-83700826D01*
X60824859Y-83700826D01*
X61015849Y-83748573D01*
X61111344Y-83844069D01*
X61159092Y-83939564D01*
X61159092Y-84130554D01*
X61111344Y-84226050D01*
X61015849Y-84321545D01*
X60824859Y-84369292D01*
X60490625Y-84369292D01*
X60299635Y-84321545D01*
X60204140Y-84226050D01*
X60156392Y-84130554D01*
X61159092Y-83271097D02*
X60156392Y-83271097D01*
X61159092Y-82698126D01*
X60156392Y-82698126D01*
X61159092Y-82220650D02*
X60156392Y-82220650D01*
X61159092Y-81647678D01*
X60156392Y-81647678D01*
X61254587Y-81408940D02*
X61254587Y-80644978D01*
X60156392Y-80215250D02*
X60156392Y-80119754D01*
X60204140Y-80024259D01*
X60251887Y-79976511D01*
X60347382Y-79928764D01*
X60538373Y-79881016D01*
X60777111Y-79881016D01*
X60968101Y-79928764D01*
X61063597Y-79976511D01*
X61111344Y-80024259D01*
X61159092Y-80119754D01*
X61159092Y-80215250D01*
X61111344Y-80310745D01*
X61063597Y-80358492D01*
X60968101Y-80406240D01*
X60777111Y-80453988D01*
X60538373Y-80453988D01*
X60347382Y-80406240D01*
X60251887Y-80358492D01*
X60204140Y-80310745D01*
X60156392Y-80215250D01*
X60251887Y-79499035D02*
X60204140Y-79451288D01*
X60156392Y-79355792D01*
X60156392Y-79117054D01*
X60204140Y-79021559D01*
X60251887Y-78973811D01*
X60347382Y-78926064D01*
X60442878Y-78926064D01*
X60586120Y-78973811D01*
X61159092Y-79546783D01*
X61159092Y-78926064D01*
X60156392Y-78591830D02*
X61159092Y-77923364D01*
X60156392Y-77923364D02*
X61159092Y-78591830D01*
X60156392Y-77063907D02*
X60156392Y-77541383D01*
X60633868Y-77589130D01*
X60586120Y-77541383D01*
X60538373Y-77445888D01*
X60538373Y-77207150D01*
X60586120Y-77111654D01*
X60633868Y-77063907D01*
X60729363Y-77016159D01*
X60968101Y-77016159D01*
X61063597Y-77063907D01*
X61111344Y-77111654D01*
X61159092Y-77207150D01*
X61159092Y-77445888D01*
X61111344Y-77541383D01*
X61063597Y-77589130D01*
X60156392Y-76395440D02*
X60156392Y-76299945D01*
X60204140Y-76204450D01*
X60251887Y-76156702D01*
X60347382Y-76108954D01*
X60538373Y-76061207D01*
X60777111Y-76061207D01*
X60968101Y-76108954D01*
X61063597Y-76156702D01*
X61111344Y-76204450D01*
X61159092Y-76299945D01*
X61159092Y-76395440D01*
X61111344Y-76490935D01*
X61063597Y-76538683D01*
X60968101Y-76586430D01*
X60777111Y-76634178D01*
X60538373Y-76634178D01*
X60347382Y-76586430D01*
X60251887Y-76538683D01*
X60204140Y-76490935D01*
X60156392Y-76395440D01*
D10*
X73423980Y-154511333D02*
X74138266Y-154511333D01*
X74281123Y-154558952D01*
X74376361Y-154654190D01*
X74423980Y-154797047D01*
X74423980Y-154892285D01*
X74423980Y-153511333D02*
X74423980Y-154082761D01*
X74423980Y-153797047D02*
X73423980Y-153797047D01*
X73566838Y-153892285D01*
X73662076Y-153987523D01*
X73709695Y-154082761D01*
M02*
