G04 #@! TF.GenerationSoftware,KiCad,Pcbnew,(5.1.4)-1*
G04 #@! TF.CreationDate,2020-02-03T09:21:52-06:00*
G04 #@! TF.ProjectId,Boost,426f6f73-742e-46b6-9963-61645f706362,rev?*
G04 #@! TF.SameCoordinates,Original*
G04 #@! TF.FileFunction,Paste,Top*
G04 #@! TF.FilePolarity,Positive*
%FSLAX46Y46*%
G04 Gerber Fmt 4.6, Leading zero omitted, Abs format (unit mm)*
G04 Created by KiCad (PCBNEW (5.1.4)-1) date 2020-02-03 09:21:52*
%MOMM*%
%LPD*%
G04 APERTURE LIST*
%ADD10C,0.100000*%
%ADD11C,0.875000*%
%ADD12R,0.356000X1.016000*%
%ADD13C,1.800000*%
%ADD14C,1.150000*%
%ADD15C,1.425000*%
%ADD16C,0.590000*%
%ADD17R,0.700000X0.250000*%
%ADD18R,0.250000X3.400000*%
G04 APERTURE END LIST*
D10*
G36*
X143762291Y-99766653D02*
G01*
X143783526Y-99769803D01*
X143804350Y-99775019D01*
X143824562Y-99782251D01*
X143843968Y-99791430D01*
X143862381Y-99802466D01*
X143879624Y-99815254D01*
X143895530Y-99829670D01*
X143909946Y-99845576D01*
X143922734Y-99862819D01*
X143933770Y-99881232D01*
X143942949Y-99900638D01*
X143950181Y-99920850D01*
X143955397Y-99941674D01*
X143958547Y-99962909D01*
X143959600Y-99984350D01*
X143959600Y-100421850D01*
X143958547Y-100443291D01*
X143955397Y-100464526D01*
X143950181Y-100485350D01*
X143942949Y-100505562D01*
X143933770Y-100524968D01*
X143922734Y-100543381D01*
X143909946Y-100560624D01*
X143895530Y-100576530D01*
X143879624Y-100590946D01*
X143862381Y-100603734D01*
X143843968Y-100614770D01*
X143824562Y-100623949D01*
X143804350Y-100631181D01*
X143783526Y-100636397D01*
X143762291Y-100639547D01*
X143740850Y-100640600D01*
X143228350Y-100640600D01*
X143206909Y-100639547D01*
X143185674Y-100636397D01*
X143164850Y-100631181D01*
X143144638Y-100623949D01*
X143125232Y-100614770D01*
X143106819Y-100603734D01*
X143089576Y-100590946D01*
X143073670Y-100576530D01*
X143059254Y-100560624D01*
X143046466Y-100543381D01*
X143035430Y-100524968D01*
X143026251Y-100505562D01*
X143019019Y-100485350D01*
X143013803Y-100464526D01*
X143010653Y-100443291D01*
X143009600Y-100421850D01*
X143009600Y-99984350D01*
X143010653Y-99962909D01*
X143013803Y-99941674D01*
X143019019Y-99920850D01*
X143026251Y-99900638D01*
X143035430Y-99881232D01*
X143046466Y-99862819D01*
X143059254Y-99845576D01*
X143073670Y-99829670D01*
X143089576Y-99815254D01*
X143106819Y-99802466D01*
X143125232Y-99791430D01*
X143144638Y-99782251D01*
X143164850Y-99775019D01*
X143185674Y-99769803D01*
X143206909Y-99766653D01*
X143228350Y-99765600D01*
X143740850Y-99765600D01*
X143762291Y-99766653D01*
X143762291Y-99766653D01*
G37*
D11*
X143484600Y-100203100D03*
D10*
G36*
X143762291Y-98191653D02*
G01*
X143783526Y-98194803D01*
X143804350Y-98200019D01*
X143824562Y-98207251D01*
X143843968Y-98216430D01*
X143862381Y-98227466D01*
X143879624Y-98240254D01*
X143895530Y-98254670D01*
X143909946Y-98270576D01*
X143922734Y-98287819D01*
X143933770Y-98306232D01*
X143942949Y-98325638D01*
X143950181Y-98345850D01*
X143955397Y-98366674D01*
X143958547Y-98387909D01*
X143959600Y-98409350D01*
X143959600Y-98846850D01*
X143958547Y-98868291D01*
X143955397Y-98889526D01*
X143950181Y-98910350D01*
X143942949Y-98930562D01*
X143933770Y-98949968D01*
X143922734Y-98968381D01*
X143909946Y-98985624D01*
X143895530Y-99001530D01*
X143879624Y-99015946D01*
X143862381Y-99028734D01*
X143843968Y-99039770D01*
X143824562Y-99048949D01*
X143804350Y-99056181D01*
X143783526Y-99061397D01*
X143762291Y-99064547D01*
X143740850Y-99065600D01*
X143228350Y-99065600D01*
X143206909Y-99064547D01*
X143185674Y-99061397D01*
X143164850Y-99056181D01*
X143144638Y-99048949D01*
X143125232Y-99039770D01*
X143106819Y-99028734D01*
X143089576Y-99015946D01*
X143073670Y-99001530D01*
X143059254Y-98985624D01*
X143046466Y-98968381D01*
X143035430Y-98949968D01*
X143026251Y-98930562D01*
X143019019Y-98910350D01*
X143013803Y-98889526D01*
X143010653Y-98868291D01*
X143009600Y-98846850D01*
X143009600Y-98409350D01*
X143010653Y-98387909D01*
X143013803Y-98366674D01*
X143019019Y-98345850D01*
X143026251Y-98325638D01*
X143035430Y-98306232D01*
X143046466Y-98287819D01*
X143059254Y-98270576D01*
X143073670Y-98254670D01*
X143089576Y-98240254D01*
X143106819Y-98227466D01*
X143125232Y-98216430D01*
X143144638Y-98207251D01*
X143164850Y-98200019D01*
X143185674Y-98194803D01*
X143206909Y-98191653D01*
X143228350Y-98190600D01*
X143740850Y-98190600D01*
X143762291Y-98191653D01*
X143762291Y-98191653D01*
G37*
D11*
X143484600Y-98628100D03*
D10*
G36*
X146327691Y-98064853D02*
G01*
X146348926Y-98068003D01*
X146369750Y-98073219D01*
X146389962Y-98080451D01*
X146409368Y-98089630D01*
X146427781Y-98100666D01*
X146445024Y-98113454D01*
X146460930Y-98127870D01*
X146475346Y-98143776D01*
X146488134Y-98161019D01*
X146499170Y-98179432D01*
X146508349Y-98198838D01*
X146515581Y-98219050D01*
X146520797Y-98239874D01*
X146523947Y-98261109D01*
X146525000Y-98282550D01*
X146525000Y-98720050D01*
X146523947Y-98741491D01*
X146520797Y-98762726D01*
X146515581Y-98783550D01*
X146508349Y-98803762D01*
X146499170Y-98823168D01*
X146488134Y-98841581D01*
X146475346Y-98858824D01*
X146460930Y-98874730D01*
X146445024Y-98889146D01*
X146427781Y-98901934D01*
X146409368Y-98912970D01*
X146389962Y-98922149D01*
X146369750Y-98929381D01*
X146348926Y-98934597D01*
X146327691Y-98937747D01*
X146306250Y-98938800D01*
X145793750Y-98938800D01*
X145772309Y-98937747D01*
X145751074Y-98934597D01*
X145730250Y-98929381D01*
X145710038Y-98922149D01*
X145690632Y-98912970D01*
X145672219Y-98901934D01*
X145654976Y-98889146D01*
X145639070Y-98874730D01*
X145624654Y-98858824D01*
X145611866Y-98841581D01*
X145600830Y-98823168D01*
X145591651Y-98803762D01*
X145584419Y-98783550D01*
X145579203Y-98762726D01*
X145576053Y-98741491D01*
X145575000Y-98720050D01*
X145575000Y-98282550D01*
X145576053Y-98261109D01*
X145579203Y-98239874D01*
X145584419Y-98219050D01*
X145591651Y-98198838D01*
X145600830Y-98179432D01*
X145611866Y-98161019D01*
X145624654Y-98143776D01*
X145639070Y-98127870D01*
X145654976Y-98113454D01*
X145672219Y-98100666D01*
X145690632Y-98089630D01*
X145710038Y-98080451D01*
X145730250Y-98073219D01*
X145751074Y-98068003D01*
X145772309Y-98064853D01*
X145793750Y-98063800D01*
X146306250Y-98063800D01*
X146327691Y-98064853D01*
X146327691Y-98064853D01*
G37*
D11*
X146050000Y-98501300D03*
D10*
G36*
X146327691Y-96489853D02*
G01*
X146348926Y-96493003D01*
X146369750Y-96498219D01*
X146389962Y-96505451D01*
X146409368Y-96514630D01*
X146427781Y-96525666D01*
X146445024Y-96538454D01*
X146460930Y-96552870D01*
X146475346Y-96568776D01*
X146488134Y-96586019D01*
X146499170Y-96604432D01*
X146508349Y-96623838D01*
X146515581Y-96644050D01*
X146520797Y-96664874D01*
X146523947Y-96686109D01*
X146525000Y-96707550D01*
X146525000Y-97145050D01*
X146523947Y-97166491D01*
X146520797Y-97187726D01*
X146515581Y-97208550D01*
X146508349Y-97228762D01*
X146499170Y-97248168D01*
X146488134Y-97266581D01*
X146475346Y-97283824D01*
X146460930Y-97299730D01*
X146445024Y-97314146D01*
X146427781Y-97326934D01*
X146409368Y-97337970D01*
X146389962Y-97347149D01*
X146369750Y-97354381D01*
X146348926Y-97359597D01*
X146327691Y-97362747D01*
X146306250Y-97363800D01*
X145793750Y-97363800D01*
X145772309Y-97362747D01*
X145751074Y-97359597D01*
X145730250Y-97354381D01*
X145710038Y-97347149D01*
X145690632Y-97337970D01*
X145672219Y-97326934D01*
X145654976Y-97314146D01*
X145639070Y-97299730D01*
X145624654Y-97283824D01*
X145611866Y-97266581D01*
X145600830Y-97248168D01*
X145591651Y-97228762D01*
X145584419Y-97208550D01*
X145579203Y-97187726D01*
X145576053Y-97166491D01*
X145575000Y-97145050D01*
X145575000Y-96707550D01*
X145576053Y-96686109D01*
X145579203Y-96664874D01*
X145584419Y-96644050D01*
X145591651Y-96623838D01*
X145600830Y-96604432D01*
X145611866Y-96586019D01*
X145624654Y-96568776D01*
X145639070Y-96552870D01*
X145654976Y-96538454D01*
X145672219Y-96525666D01*
X145690632Y-96514630D01*
X145710038Y-96505451D01*
X145730250Y-96498219D01*
X145751074Y-96493003D01*
X145772309Y-96489853D01*
X145793750Y-96488800D01*
X146306250Y-96488800D01*
X146327691Y-96489853D01*
X146327691Y-96489853D01*
G37*
D11*
X146050000Y-96926300D03*
D10*
G36*
X155217691Y-100061053D02*
G01*
X155238926Y-100064203D01*
X155259750Y-100069419D01*
X155279962Y-100076651D01*
X155299368Y-100085830D01*
X155317781Y-100096866D01*
X155335024Y-100109654D01*
X155350930Y-100124070D01*
X155365346Y-100139976D01*
X155378134Y-100157219D01*
X155389170Y-100175632D01*
X155398349Y-100195038D01*
X155405581Y-100215250D01*
X155410797Y-100236074D01*
X155413947Y-100257309D01*
X155415000Y-100278750D01*
X155415000Y-100716250D01*
X155413947Y-100737691D01*
X155410797Y-100758926D01*
X155405581Y-100779750D01*
X155398349Y-100799962D01*
X155389170Y-100819368D01*
X155378134Y-100837781D01*
X155365346Y-100855024D01*
X155350930Y-100870930D01*
X155335024Y-100885346D01*
X155317781Y-100898134D01*
X155299368Y-100909170D01*
X155279962Y-100918349D01*
X155259750Y-100925581D01*
X155238926Y-100930797D01*
X155217691Y-100933947D01*
X155196250Y-100935000D01*
X154683750Y-100935000D01*
X154662309Y-100933947D01*
X154641074Y-100930797D01*
X154620250Y-100925581D01*
X154600038Y-100918349D01*
X154580632Y-100909170D01*
X154562219Y-100898134D01*
X154544976Y-100885346D01*
X154529070Y-100870930D01*
X154514654Y-100855024D01*
X154501866Y-100837781D01*
X154490830Y-100819368D01*
X154481651Y-100799962D01*
X154474419Y-100779750D01*
X154469203Y-100758926D01*
X154466053Y-100737691D01*
X154465000Y-100716250D01*
X154465000Y-100278750D01*
X154466053Y-100257309D01*
X154469203Y-100236074D01*
X154474419Y-100215250D01*
X154481651Y-100195038D01*
X154490830Y-100175632D01*
X154501866Y-100157219D01*
X154514654Y-100139976D01*
X154529070Y-100124070D01*
X154544976Y-100109654D01*
X154562219Y-100096866D01*
X154580632Y-100085830D01*
X154600038Y-100076651D01*
X154620250Y-100069419D01*
X154641074Y-100064203D01*
X154662309Y-100061053D01*
X154683750Y-100060000D01*
X155196250Y-100060000D01*
X155217691Y-100061053D01*
X155217691Y-100061053D01*
G37*
D11*
X154940000Y-100497500D03*
D10*
G36*
X155217691Y-101636053D02*
G01*
X155238926Y-101639203D01*
X155259750Y-101644419D01*
X155279962Y-101651651D01*
X155299368Y-101660830D01*
X155317781Y-101671866D01*
X155335024Y-101684654D01*
X155350930Y-101699070D01*
X155365346Y-101714976D01*
X155378134Y-101732219D01*
X155389170Y-101750632D01*
X155398349Y-101770038D01*
X155405581Y-101790250D01*
X155410797Y-101811074D01*
X155413947Y-101832309D01*
X155415000Y-101853750D01*
X155415000Y-102291250D01*
X155413947Y-102312691D01*
X155410797Y-102333926D01*
X155405581Y-102354750D01*
X155398349Y-102374962D01*
X155389170Y-102394368D01*
X155378134Y-102412781D01*
X155365346Y-102430024D01*
X155350930Y-102445930D01*
X155335024Y-102460346D01*
X155317781Y-102473134D01*
X155299368Y-102484170D01*
X155279962Y-102493349D01*
X155259750Y-102500581D01*
X155238926Y-102505797D01*
X155217691Y-102508947D01*
X155196250Y-102510000D01*
X154683750Y-102510000D01*
X154662309Y-102508947D01*
X154641074Y-102505797D01*
X154620250Y-102500581D01*
X154600038Y-102493349D01*
X154580632Y-102484170D01*
X154562219Y-102473134D01*
X154544976Y-102460346D01*
X154529070Y-102445930D01*
X154514654Y-102430024D01*
X154501866Y-102412781D01*
X154490830Y-102394368D01*
X154481651Y-102374962D01*
X154474419Y-102354750D01*
X154469203Y-102333926D01*
X154466053Y-102312691D01*
X154465000Y-102291250D01*
X154465000Y-101853750D01*
X154466053Y-101832309D01*
X154469203Y-101811074D01*
X154474419Y-101790250D01*
X154481651Y-101770038D01*
X154490830Y-101750632D01*
X154501866Y-101732219D01*
X154514654Y-101714976D01*
X154529070Y-101699070D01*
X154544976Y-101684654D01*
X154562219Y-101671866D01*
X154580632Y-101660830D01*
X154600038Y-101651651D01*
X154620250Y-101644419D01*
X154641074Y-101639203D01*
X154662309Y-101636053D01*
X154683750Y-101635000D01*
X155196250Y-101635000D01*
X155217691Y-101636053D01*
X155217691Y-101636053D01*
G37*
D11*
X154940000Y-102072500D03*
D10*
G36*
X155177691Y-94776053D02*
G01*
X155198926Y-94779203D01*
X155219750Y-94784419D01*
X155239962Y-94791651D01*
X155259368Y-94800830D01*
X155277781Y-94811866D01*
X155295024Y-94824654D01*
X155310930Y-94839070D01*
X155325346Y-94854976D01*
X155338134Y-94872219D01*
X155349170Y-94890632D01*
X155358349Y-94910038D01*
X155365581Y-94930250D01*
X155370797Y-94951074D01*
X155373947Y-94972309D01*
X155375000Y-94993750D01*
X155375000Y-95506250D01*
X155373947Y-95527691D01*
X155370797Y-95548926D01*
X155365581Y-95569750D01*
X155358349Y-95589962D01*
X155349170Y-95609368D01*
X155338134Y-95627781D01*
X155325346Y-95645024D01*
X155310930Y-95660930D01*
X155295024Y-95675346D01*
X155277781Y-95688134D01*
X155259368Y-95699170D01*
X155239962Y-95708349D01*
X155219750Y-95715581D01*
X155198926Y-95720797D01*
X155177691Y-95723947D01*
X155156250Y-95725000D01*
X154718750Y-95725000D01*
X154697309Y-95723947D01*
X154676074Y-95720797D01*
X154655250Y-95715581D01*
X154635038Y-95708349D01*
X154615632Y-95699170D01*
X154597219Y-95688134D01*
X154579976Y-95675346D01*
X154564070Y-95660930D01*
X154549654Y-95645024D01*
X154536866Y-95627781D01*
X154525830Y-95609368D01*
X154516651Y-95589962D01*
X154509419Y-95569750D01*
X154504203Y-95548926D01*
X154501053Y-95527691D01*
X154500000Y-95506250D01*
X154500000Y-94993750D01*
X154501053Y-94972309D01*
X154504203Y-94951074D01*
X154509419Y-94930250D01*
X154516651Y-94910038D01*
X154525830Y-94890632D01*
X154536866Y-94872219D01*
X154549654Y-94854976D01*
X154564070Y-94839070D01*
X154579976Y-94824654D01*
X154597219Y-94811866D01*
X154615632Y-94800830D01*
X154635038Y-94791651D01*
X154655250Y-94784419D01*
X154676074Y-94779203D01*
X154697309Y-94776053D01*
X154718750Y-94775000D01*
X155156250Y-94775000D01*
X155177691Y-94776053D01*
X155177691Y-94776053D01*
G37*
D11*
X154937500Y-95250000D03*
D10*
G36*
X156752691Y-94776053D02*
G01*
X156773926Y-94779203D01*
X156794750Y-94784419D01*
X156814962Y-94791651D01*
X156834368Y-94800830D01*
X156852781Y-94811866D01*
X156870024Y-94824654D01*
X156885930Y-94839070D01*
X156900346Y-94854976D01*
X156913134Y-94872219D01*
X156924170Y-94890632D01*
X156933349Y-94910038D01*
X156940581Y-94930250D01*
X156945797Y-94951074D01*
X156948947Y-94972309D01*
X156950000Y-94993750D01*
X156950000Y-95506250D01*
X156948947Y-95527691D01*
X156945797Y-95548926D01*
X156940581Y-95569750D01*
X156933349Y-95589962D01*
X156924170Y-95609368D01*
X156913134Y-95627781D01*
X156900346Y-95645024D01*
X156885930Y-95660930D01*
X156870024Y-95675346D01*
X156852781Y-95688134D01*
X156834368Y-95699170D01*
X156814962Y-95708349D01*
X156794750Y-95715581D01*
X156773926Y-95720797D01*
X156752691Y-95723947D01*
X156731250Y-95725000D01*
X156293750Y-95725000D01*
X156272309Y-95723947D01*
X156251074Y-95720797D01*
X156230250Y-95715581D01*
X156210038Y-95708349D01*
X156190632Y-95699170D01*
X156172219Y-95688134D01*
X156154976Y-95675346D01*
X156139070Y-95660930D01*
X156124654Y-95645024D01*
X156111866Y-95627781D01*
X156100830Y-95609368D01*
X156091651Y-95589962D01*
X156084419Y-95569750D01*
X156079203Y-95548926D01*
X156076053Y-95527691D01*
X156075000Y-95506250D01*
X156075000Y-94993750D01*
X156076053Y-94972309D01*
X156079203Y-94951074D01*
X156084419Y-94930250D01*
X156091651Y-94910038D01*
X156100830Y-94890632D01*
X156111866Y-94872219D01*
X156124654Y-94854976D01*
X156139070Y-94839070D01*
X156154976Y-94824654D01*
X156172219Y-94811866D01*
X156190632Y-94800830D01*
X156210038Y-94791651D01*
X156230250Y-94784419D01*
X156251074Y-94779203D01*
X156272309Y-94776053D01*
X156293750Y-94775000D01*
X156731250Y-94775000D01*
X156752691Y-94776053D01*
X156752691Y-94776053D01*
G37*
D11*
X156512500Y-95250000D03*
D10*
G36*
X150137691Y-95601053D02*
G01*
X150158926Y-95604203D01*
X150179750Y-95609419D01*
X150199962Y-95616651D01*
X150219368Y-95625830D01*
X150237781Y-95636866D01*
X150255024Y-95649654D01*
X150270930Y-95664070D01*
X150285346Y-95679976D01*
X150298134Y-95697219D01*
X150309170Y-95715632D01*
X150318349Y-95735038D01*
X150325581Y-95755250D01*
X150330797Y-95776074D01*
X150333947Y-95797309D01*
X150335000Y-95818750D01*
X150335000Y-96256250D01*
X150333947Y-96277691D01*
X150330797Y-96298926D01*
X150325581Y-96319750D01*
X150318349Y-96339962D01*
X150309170Y-96359368D01*
X150298134Y-96377781D01*
X150285346Y-96395024D01*
X150270930Y-96410930D01*
X150255024Y-96425346D01*
X150237781Y-96438134D01*
X150219368Y-96449170D01*
X150199962Y-96458349D01*
X150179750Y-96465581D01*
X150158926Y-96470797D01*
X150137691Y-96473947D01*
X150116250Y-96475000D01*
X149603750Y-96475000D01*
X149582309Y-96473947D01*
X149561074Y-96470797D01*
X149540250Y-96465581D01*
X149520038Y-96458349D01*
X149500632Y-96449170D01*
X149482219Y-96438134D01*
X149464976Y-96425346D01*
X149449070Y-96410930D01*
X149434654Y-96395024D01*
X149421866Y-96377781D01*
X149410830Y-96359368D01*
X149401651Y-96339962D01*
X149394419Y-96319750D01*
X149389203Y-96298926D01*
X149386053Y-96277691D01*
X149385000Y-96256250D01*
X149385000Y-95818750D01*
X149386053Y-95797309D01*
X149389203Y-95776074D01*
X149394419Y-95755250D01*
X149401651Y-95735038D01*
X149410830Y-95715632D01*
X149421866Y-95697219D01*
X149434654Y-95679976D01*
X149449070Y-95664070D01*
X149464976Y-95649654D01*
X149482219Y-95636866D01*
X149500632Y-95625830D01*
X149520038Y-95616651D01*
X149540250Y-95609419D01*
X149561074Y-95604203D01*
X149582309Y-95601053D01*
X149603750Y-95600000D01*
X150116250Y-95600000D01*
X150137691Y-95601053D01*
X150137691Y-95601053D01*
G37*
D11*
X149860000Y-96037500D03*
D10*
G36*
X150137691Y-94026053D02*
G01*
X150158926Y-94029203D01*
X150179750Y-94034419D01*
X150199962Y-94041651D01*
X150219368Y-94050830D01*
X150237781Y-94061866D01*
X150255024Y-94074654D01*
X150270930Y-94089070D01*
X150285346Y-94104976D01*
X150298134Y-94122219D01*
X150309170Y-94140632D01*
X150318349Y-94160038D01*
X150325581Y-94180250D01*
X150330797Y-94201074D01*
X150333947Y-94222309D01*
X150335000Y-94243750D01*
X150335000Y-94681250D01*
X150333947Y-94702691D01*
X150330797Y-94723926D01*
X150325581Y-94744750D01*
X150318349Y-94764962D01*
X150309170Y-94784368D01*
X150298134Y-94802781D01*
X150285346Y-94820024D01*
X150270930Y-94835930D01*
X150255024Y-94850346D01*
X150237781Y-94863134D01*
X150219368Y-94874170D01*
X150199962Y-94883349D01*
X150179750Y-94890581D01*
X150158926Y-94895797D01*
X150137691Y-94898947D01*
X150116250Y-94900000D01*
X149603750Y-94900000D01*
X149582309Y-94898947D01*
X149561074Y-94895797D01*
X149540250Y-94890581D01*
X149520038Y-94883349D01*
X149500632Y-94874170D01*
X149482219Y-94863134D01*
X149464976Y-94850346D01*
X149449070Y-94835930D01*
X149434654Y-94820024D01*
X149421866Y-94802781D01*
X149410830Y-94784368D01*
X149401651Y-94764962D01*
X149394419Y-94744750D01*
X149389203Y-94723926D01*
X149386053Y-94702691D01*
X149385000Y-94681250D01*
X149385000Y-94243750D01*
X149386053Y-94222309D01*
X149389203Y-94201074D01*
X149394419Y-94180250D01*
X149401651Y-94160038D01*
X149410830Y-94140632D01*
X149421866Y-94122219D01*
X149434654Y-94104976D01*
X149449070Y-94089070D01*
X149464976Y-94074654D01*
X149482219Y-94061866D01*
X149500632Y-94050830D01*
X149520038Y-94041651D01*
X149540250Y-94034419D01*
X149561074Y-94029203D01*
X149582309Y-94026053D01*
X149603750Y-94025000D01*
X150116250Y-94025000D01*
X150137691Y-94026053D01*
X150137691Y-94026053D01*
G37*
D11*
X149860000Y-94462500D03*
D10*
G36*
X144422691Y-104171053D02*
G01*
X144443926Y-104174203D01*
X144464750Y-104179419D01*
X144484962Y-104186651D01*
X144504368Y-104195830D01*
X144522781Y-104206866D01*
X144540024Y-104219654D01*
X144555930Y-104234070D01*
X144570346Y-104249976D01*
X144583134Y-104267219D01*
X144594170Y-104285632D01*
X144603349Y-104305038D01*
X144610581Y-104325250D01*
X144615797Y-104346074D01*
X144618947Y-104367309D01*
X144620000Y-104388750D01*
X144620000Y-104826250D01*
X144618947Y-104847691D01*
X144615797Y-104868926D01*
X144610581Y-104889750D01*
X144603349Y-104909962D01*
X144594170Y-104929368D01*
X144583134Y-104947781D01*
X144570346Y-104965024D01*
X144555930Y-104980930D01*
X144540024Y-104995346D01*
X144522781Y-105008134D01*
X144504368Y-105019170D01*
X144484962Y-105028349D01*
X144464750Y-105035581D01*
X144443926Y-105040797D01*
X144422691Y-105043947D01*
X144401250Y-105045000D01*
X143888750Y-105045000D01*
X143867309Y-105043947D01*
X143846074Y-105040797D01*
X143825250Y-105035581D01*
X143805038Y-105028349D01*
X143785632Y-105019170D01*
X143767219Y-105008134D01*
X143749976Y-104995346D01*
X143734070Y-104980930D01*
X143719654Y-104965024D01*
X143706866Y-104947781D01*
X143695830Y-104929368D01*
X143686651Y-104909962D01*
X143679419Y-104889750D01*
X143674203Y-104868926D01*
X143671053Y-104847691D01*
X143670000Y-104826250D01*
X143670000Y-104388750D01*
X143671053Y-104367309D01*
X143674203Y-104346074D01*
X143679419Y-104325250D01*
X143686651Y-104305038D01*
X143695830Y-104285632D01*
X143706866Y-104267219D01*
X143719654Y-104249976D01*
X143734070Y-104234070D01*
X143749976Y-104219654D01*
X143767219Y-104206866D01*
X143785632Y-104195830D01*
X143805038Y-104186651D01*
X143825250Y-104179419D01*
X143846074Y-104174203D01*
X143867309Y-104171053D01*
X143888750Y-104170000D01*
X144401250Y-104170000D01*
X144422691Y-104171053D01*
X144422691Y-104171053D01*
G37*
D11*
X144145000Y-104607500D03*
D10*
G36*
X144422691Y-102596053D02*
G01*
X144443926Y-102599203D01*
X144464750Y-102604419D01*
X144484962Y-102611651D01*
X144504368Y-102620830D01*
X144522781Y-102631866D01*
X144540024Y-102644654D01*
X144555930Y-102659070D01*
X144570346Y-102674976D01*
X144583134Y-102692219D01*
X144594170Y-102710632D01*
X144603349Y-102730038D01*
X144610581Y-102750250D01*
X144615797Y-102771074D01*
X144618947Y-102792309D01*
X144620000Y-102813750D01*
X144620000Y-103251250D01*
X144618947Y-103272691D01*
X144615797Y-103293926D01*
X144610581Y-103314750D01*
X144603349Y-103334962D01*
X144594170Y-103354368D01*
X144583134Y-103372781D01*
X144570346Y-103390024D01*
X144555930Y-103405930D01*
X144540024Y-103420346D01*
X144522781Y-103433134D01*
X144504368Y-103444170D01*
X144484962Y-103453349D01*
X144464750Y-103460581D01*
X144443926Y-103465797D01*
X144422691Y-103468947D01*
X144401250Y-103470000D01*
X143888750Y-103470000D01*
X143867309Y-103468947D01*
X143846074Y-103465797D01*
X143825250Y-103460581D01*
X143805038Y-103453349D01*
X143785632Y-103444170D01*
X143767219Y-103433134D01*
X143749976Y-103420346D01*
X143734070Y-103405930D01*
X143719654Y-103390024D01*
X143706866Y-103372781D01*
X143695830Y-103354368D01*
X143686651Y-103334962D01*
X143679419Y-103314750D01*
X143674203Y-103293926D01*
X143671053Y-103272691D01*
X143670000Y-103251250D01*
X143670000Y-102813750D01*
X143671053Y-102792309D01*
X143674203Y-102771074D01*
X143679419Y-102750250D01*
X143686651Y-102730038D01*
X143695830Y-102710632D01*
X143706866Y-102692219D01*
X143719654Y-102674976D01*
X143734070Y-102659070D01*
X143749976Y-102644654D01*
X143767219Y-102631866D01*
X143785632Y-102620830D01*
X143805038Y-102611651D01*
X143825250Y-102604419D01*
X143846074Y-102599203D01*
X143867309Y-102596053D01*
X143888750Y-102595000D01*
X144401250Y-102595000D01*
X144422691Y-102596053D01*
X144422691Y-102596053D01*
G37*
D11*
X144145000Y-103032500D03*
D12*
X166649500Y-96240500D03*
X167310500Y-96240500D03*
X167970500Y-96240500D03*
X168630500Y-96240500D03*
X166649500Y-101879500D03*
X167310500Y-101879500D03*
X167970500Y-101879500D03*
X168630500Y-101879500D03*
D10*
G36*
X128004108Y-84112167D02*
G01*
X128047791Y-84118647D01*
X128090628Y-84129377D01*
X128132208Y-84144254D01*
X128172129Y-84163135D01*
X128210007Y-84185839D01*
X128245477Y-84212145D01*
X128278198Y-84241802D01*
X128307855Y-84274523D01*
X128334161Y-84309993D01*
X128356865Y-84347871D01*
X128375746Y-84387792D01*
X128390623Y-84429372D01*
X128401353Y-84472209D01*
X128407833Y-84515892D01*
X128410000Y-84560000D01*
X128410000Y-88160000D01*
X128407833Y-88204108D01*
X128401353Y-88247791D01*
X128390623Y-88290628D01*
X128375746Y-88332208D01*
X128356865Y-88372129D01*
X128334161Y-88410007D01*
X128307855Y-88445477D01*
X128278198Y-88478198D01*
X128245477Y-88507855D01*
X128210007Y-88534161D01*
X128172129Y-88556865D01*
X128132208Y-88575746D01*
X128090628Y-88590623D01*
X128047791Y-88601353D01*
X128004108Y-88607833D01*
X127960000Y-88610000D01*
X127060000Y-88610000D01*
X127015892Y-88607833D01*
X126972209Y-88601353D01*
X126929372Y-88590623D01*
X126887792Y-88575746D01*
X126847871Y-88556865D01*
X126809993Y-88534161D01*
X126774523Y-88507855D01*
X126741802Y-88478198D01*
X126712145Y-88445477D01*
X126685839Y-88410007D01*
X126663135Y-88372129D01*
X126644254Y-88332208D01*
X126629377Y-88290628D01*
X126618647Y-88247791D01*
X126612167Y-88204108D01*
X126610000Y-88160000D01*
X126610000Y-84560000D01*
X126612167Y-84515892D01*
X126618647Y-84472209D01*
X126629377Y-84429372D01*
X126644254Y-84387792D01*
X126663135Y-84347871D01*
X126685839Y-84309993D01*
X126712145Y-84274523D01*
X126741802Y-84241802D01*
X126774523Y-84212145D01*
X126809993Y-84185839D01*
X126847871Y-84163135D01*
X126887792Y-84144254D01*
X126929372Y-84129377D01*
X126972209Y-84118647D01*
X127015892Y-84112167D01*
X127060000Y-84110000D01*
X127960000Y-84110000D01*
X128004108Y-84112167D01*
X128004108Y-84112167D01*
G37*
D13*
X127510000Y-86360000D03*
D10*
G36*
X131304108Y-84112167D02*
G01*
X131347791Y-84118647D01*
X131390628Y-84129377D01*
X131432208Y-84144254D01*
X131472129Y-84163135D01*
X131510007Y-84185839D01*
X131545477Y-84212145D01*
X131578198Y-84241802D01*
X131607855Y-84274523D01*
X131634161Y-84309993D01*
X131656865Y-84347871D01*
X131675746Y-84387792D01*
X131690623Y-84429372D01*
X131701353Y-84472209D01*
X131707833Y-84515892D01*
X131710000Y-84560000D01*
X131710000Y-88160000D01*
X131707833Y-88204108D01*
X131701353Y-88247791D01*
X131690623Y-88290628D01*
X131675746Y-88332208D01*
X131656865Y-88372129D01*
X131634161Y-88410007D01*
X131607855Y-88445477D01*
X131578198Y-88478198D01*
X131545477Y-88507855D01*
X131510007Y-88534161D01*
X131472129Y-88556865D01*
X131432208Y-88575746D01*
X131390628Y-88590623D01*
X131347791Y-88601353D01*
X131304108Y-88607833D01*
X131260000Y-88610000D01*
X130360000Y-88610000D01*
X130315892Y-88607833D01*
X130272209Y-88601353D01*
X130229372Y-88590623D01*
X130187792Y-88575746D01*
X130147871Y-88556865D01*
X130109993Y-88534161D01*
X130074523Y-88507855D01*
X130041802Y-88478198D01*
X130012145Y-88445477D01*
X129985839Y-88410007D01*
X129963135Y-88372129D01*
X129944254Y-88332208D01*
X129929377Y-88290628D01*
X129918647Y-88247791D01*
X129912167Y-88204108D01*
X129910000Y-88160000D01*
X129910000Y-84560000D01*
X129912167Y-84515892D01*
X129918647Y-84472209D01*
X129929377Y-84429372D01*
X129944254Y-84387792D01*
X129963135Y-84347871D01*
X129985839Y-84309993D01*
X130012145Y-84274523D01*
X130041802Y-84241802D01*
X130074523Y-84212145D01*
X130109993Y-84185839D01*
X130147871Y-84163135D01*
X130187792Y-84144254D01*
X130229372Y-84129377D01*
X130272209Y-84118647D01*
X130315892Y-84112167D01*
X130360000Y-84110000D01*
X131260000Y-84110000D01*
X131304108Y-84112167D01*
X131304108Y-84112167D01*
G37*
D13*
X130810000Y-86360000D03*
D10*
G36*
X137634505Y-88816204D02*
G01*
X137658773Y-88819804D01*
X137682572Y-88825765D01*
X137705671Y-88834030D01*
X137727850Y-88844520D01*
X137748893Y-88857132D01*
X137768599Y-88871747D01*
X137786777Y-88888223D01*
X137803253Y-88906401D01*
X137817868Y-88926107D01*
X137830480Y-88947150D01*
X137840970Y-88969329D01*
X137849235Y-88992428D01*
X137855196Y-89016227D01*
X137858796Y-89040495D01*
X137860000Y-89064999D01*
X137860000Y-89715001D01*
X137858796Y-89739505D01*
X137855196Y-89763773D01*
X137849235Y-89787572D01*
X137840970Y-89810671D01*
X137830480Y-89832850D01*
X137817868Y-89853893D01*
X137803253Y-89873599D01*
X137786777Y-89891777D01*
X137768599Y-89908253D01*
X137748893Y-89922868D01*
X137727850Y-89935480D01*
X137705671Y-89945970D01*
X137682572Y-89954235D01*
X137658773Y-89960196D01*
X137634505Y-89963796D01*
X137610001Y-89965000D01*
X136709999Y-89965000D01*
X136685495Y-89963796D01*
X136661227Y-89960196D01*
X136637428Y-89954235D01*
X136614329Y-89945970D01*
X136592150Y-89935480D01*
X136571107Y-89922868D01*
X136551401Y-89908253D01*
X136533223Y-89891777D01*
X136516747Y-89873599D01*
X136502132Y-89853893D01*
X136489520Y-89832850D01*
X136479030Y-89810671D01*
X136470765Y-89787572D01*
X136464804Y-89763773D01*
X136461204Y-89739505D01*
X136460000Y-89715001D01*
X136460000Y-89064999D01*
X136461204Y-89040495D01*
X136464804Y-89016227D01*
X136470765Y-88992428D01*
X136479030Y-88969329D01*
X136489520Y-88947150D01*
X136502132Y-88926107D01*
X136516747Y-88906401D01*
X136533223Y-88888223D01*
X136551401Y-88871747D01*
X136571107Y-88857132D01*
X136592150Y-88844520D01*
X136614329Y-88834030D01*
X136637428Y-88825765D01*
X136661227Y-88819804D01*
X136685495Y-88816204D01*
X136709999Y-88815000D01*
X137610001Y-88815000D01*
X137634505Y-88816204D01*
X137634505Y-88816204D01*
G37*
D14*
X137160000Y-89390000D03*
D10*
G36*
X137634505Y-90866204D02*
G01*
X137658773Y-90869804D01*
X137682572Y-90875765D01*
X137705671Y-90884030D01*
X137727850Y-90894520D01*
X137748893Y-90907132D01*
X137768599Y-90921747D01*
X137786777Y-90938223D01*
X137803253Y-90956401D01*
X137817868Y-90976107D01*
X137830480Y-90997150D01*
X137840970Y-91019329D01*
X137849235Y-91042428D01*
X137855196Y-91066227D01*
X137858796Y-91090495D01*
X137860000Y-91114999D01*
X137860000Y-91765001D01*
X137858796Y-91789505D01*
X137855196Y-91813773D01*
X137849235Y-91837572D01*
X137840970Y-91860671D01*
X137830480Y-91882850D01*
X137817868Y-91903893D01*
X137803253Y-91923599D01*
X137786777Y-91941777D01*
X137768599Y-91958253D01*
X137748893Y-91972868D01*
X137727850Y-91985480D01*
X137705671Y-91995970D01*
X137682572Y-92004235D01*
X137658773Y-92010196D01*
X137634505Y-92013796D01*
X137610001Y-92015000D01*
X136709999Y-92015000D01*
X136685495Y-92013796D01*
X136661227Y-92010196D01*
X136637428Y-92004235D01*
X136614329Y-91995970D01*
X136592150Y-91985480D01*
X136571107Y-91972868D01*
X136551401Y-91958253D01*
X136533223Y-91941777D01*
X136516747Y-91923599D01*
X136502132Y-91903893D01*
X136489520Y-91882850D01*
X136479030Y-91860671D01*
X136470765Y-91837572D01*
X136464804Y-91813773D01*
X136461204Y-91789505D01*
X136460000Y-91765001D01*
X136460000Y-91114999D01*
X136461204Y-91090495D01*
X136464804Y-91066227D01*
X136470765Y-91042428D01*
X136479030Y-91019329D01*
X136489520Y-90997150D01*
X136502132Y-90976107D01*
X136516747Y-90956401D01*
X136533223Y-90938223D01*
X136551401Y-90921747D01*
X136571107Y-90907132D01*
X136592150Y-90894520D01*
X136614329Y-90884030D01*
X136637428Y-90875765D01*
X136661227Y-90869804D01*
X136685495Y-90866204D01*
X136709999Y-90865000D01*
X137610001Y-90865000D01*
X137634505Y-90866204D01*
X137634505Y-90866204D01*
G37*
D14*
X137160000Y-91440000D03*
D10*
G36*
X153939504Y-82946204D02*
G01*
X153963773Y-82949804D01*
X153987571Y-82955765D01*
X154010671Y-82964030D01*
X154032849Y-82974520D01*
X154053893Y-82987133D01*
X154073598Y-83001747D01*
X154091777Y-83018223D01*
X154108253Y-83036402D01*
X154122867Y-83056107D01*
X154135480Y-83077151D01*
X154145970Y-83099329D01*
X154154235Y-83122429D01*
X154160196Y-83146227D01*
X154163796Y-83170496D01*
X154165000Y-83195000D01*
X154165000Y-84445000D01*
X154163796Y-84469504D01*
X154160196Y-84493773D01*
X154154235Y-84517571D01*
X154145970Y-84540671D01*
X154135480Y-84562849D01*
X154122867Y-84583893D01*
X154108253Y-84603598D01*
X154091777Y-84621777D01*
X154073598Y-84638253D01*
X154053893Y-84652867D01*
X154032849Y-84665480D01*
X154010671Y-84675970D01*
X153987571Y-84684235D01*
X153963773Y-84690196D01*
X153939504Y-84693796D01*
X153915000Y-84695000D01*
X152990000Y-84695000D01*
X152965496Y-84693796D01*
X152941227Y-84690196D01*
X152917429Y-84684235D01*
X152894329Y-84675970D01*
X152872151Y-84665480D01*
X152851107Y-84652867D01*
X152831402Y-84638253D01*
X152813223Y-84621777D01*
X152796747Y-84603598D01*
X152782133Y-84583893D01*
X152769520Y-84562849D01*
X152759030Y-84540671D01*
X152750765Y-84517571D01*
X152744804Y-84493773D01*
X152741204Y-84469504D01*
X152740000Y-84445000D01*
X152740000Y-83195000D01*
X152741204Y-83170496D01*
X152744804Y-83146227D01*
X152750765Y-83122429D01*
X152759030Y-83099329D01*
X152769520Y-83077151D01*
X152782133Y-83056107D01*
X152796747Y-83036402D01*
X152813223Y-83018223D01*
X152831402Y-83001747D01*
X152851107Y-82987133D01*
X152872151Y-82974520D01*
X152894329Y-82964030D01*
X152917429Y-82955765D01*
X152941227Y-82949804D01*
X152965496Y-82946204D01*
X152990000Y-82945000D01*
X153915000Y-82945000D01*
X153939504Y-82946204D01*
X153939504Y-82946204D01*
G37*
D15*
X153452500Y-83820000D03*
D10*
G36*
X156914504Y-82946204D02*
G01*
X156938773Y-82949804D01*
X156962571Y-82955765D01*
X156985671Y-82964030D01*
X157007849Y-82974520D01*
X157028893Y-82987133D01*
X157048598Y-83001747D01*
X157066777Y-83018223D01*
X157083253Y-83036402D01*
X157097867Y-83056107D01*
X157110480Y-83077151D01*
X157120970Y-83099329D01*
X157129235Y-83122429D01*
X157135196Y-83146227D01*
X157138796Y-83170496D01*
X157140000Y-83195000D01*
X157140000Y-84445000D01*
X157138796Y-84469504D01*
X157135196Y-84493773D01*
X157129235Y-84517571D01*
X157120970Y-84540671D01*
X157110480Y-84562849D01*
X157097867Y-84583893D01*
X157083253Y-84603598D01*
X157066777Y-84621777D01*
X157048598Y-84638253D01*
X157028893Y-84652867D01*
X157007849Y-84665480D01*
X156985671Y-84675970D01*
X156962571Y-84684235D01*
X156938773Y-84690196D01*
X156914504Y-84693796D01*
X156890000Y-84695000D01*
X155965000Y-84695000D01*
X155940496Y-84693796D01*
X155916227Y-84690196D01*
X155892429Y-84684235D01*
X155869329Y-84675970D01*
X155847151Y-84665480D01*
X155826107Y-84652867D01*
X155806402Y-84638253D01*
X155788223Y-84621777D01*
X155771747Y-84603598D01*
X155757133Y-84583893D01*
X155744520Y-84562849D01*
X155734030Y-84540671D01*
X155725765Y-84517571D01*
X155719804Y-84493773D01*
X155716204Y-84469504D01*
X155715000Y-84445000D01*
X155715000Y-83195000D01*
X155716204Y-83170496D01*
X155719804Y-83146227D01*
X155725765Y-83122429D01*
X155734030Y-83099329D01*
X155744520Y-83077151D01*
X155757133Y-83056107D01*
X155771747Y-83036402D01*
X155788223Y-83018223D01*
X155806402Y-83001747D01*
X155826107Y-82987133D01*
X155847151Y-82974520D01*
X155869329Y-82964030D01*
X155892429Y-82955765D01*
X155916227Y-82949804D01*
X155940496Y-82946204D01*
X155965000Y-82945000D01*
X156890000Y-82945000D01*
X156914504Y-82946204D01*
X156914504Y-82946204D01*
G37*
D15*
X156427500Y-83820000D03*
D10*
G36*
X149277004Y-111521204D02*
G01*
X149301273Y-111524804D01*
X149325071Y-111530765D01*
X149348171Y-111539030D01*
X149370349Y-111549520D01*
X149391393Y-111562133D01*
X149411098Y-111576747D01*
X149429277Y-111593223D01*
X149445753Y-111611402D01*
X149460367Y-111631107D01*
X149472980Y-111652151D01*
X149483470Y-111674329D01*
X149491735Y-111697429D01*
X149497696Y-111721227D01*
X149501296Y-111745496D01*
X149502500Y-111770000D01*
X149502500Y-113020000D01*
X149501296Y-113044504D01*
X149497696Y-113068773D01*
X149491735Y-113092571D01*
X149483470Y-113115671D01*
X149472980Y-113137849D01*
X149460367Y-113158893D01*
X149445753Y-113178598D01*
X149429277Y-113196777D01*
X149411098Y-113213253D01*
X149391393Y-113227867D01*
X149370349Y-113240480D01*
X149348171Y-113250970D01*
X149325071Y-113259235D01*
X149301273Y-113265196D01*
X149277004Y-113268796D01*
X149252500Y-113270000D01*
X148327500Y-113270000D01*
X148302996Y-113268796D01*
X148278727Y-113265196D01*
X148254929Y-113259235D01*
X148231829Y-113250970D01*
X148209651Y-113240480D01*
X148188607Y-113227867D01*
X148168902Y-113213253D01*
X148150723Y-113196777D01*
X148134247Y-113178598D01*
X148119633Y-113158893D01*
X148107020Y-113137849D01*
X148096530Y-113115671D01*
X148088265Y-113092571D01*
X148082304Y-113068773D01*
X148078704Y-113044504D01*
X148077500Y-113020000D01*
X148077500Y-111770000D01*
X148078704Y-111745496D01*
X148082304Y-111721227D01*
X148088265Y-111697429D01*
X148096530Y-111674329D01*
X148107020Y-111652151D01*
X148119633Y-111631107D01*
X148134247Y-111611402D01*
X148150723Y-111593223D01*
X148168902Y-111576747D01*
X148188607Y-111562133D01*
X148209651Y-111549520D01*
X148231829Y-111539030D01*
X148254929Y-111530765D01*
X148278727Y-111524804D01*
X148302996Y-111521204D01*
X148327500Y-111520000D01*
X149252500Y-111520000D01*
X149277004Y-111521204D01*
X149277004Y-111521204D01*
G37*
D15*
X148790000Y-112395000D03*
D10*
G36*
X152252004Y-111521204D02*
G01*
X152276273Y-111524804D01*
X152300071Y-111530765D01*
X152323171Y-111539030D01*
X152345349Y-111549520D01*
X152366393Y-111562133D01*
X152386098Y-111576747D01*
X152404277Y-111593223D01*
X152420753Y-111611402D01*
X152435367Y-111631107D01*
X152447980Y-111652151D01*
X152458470Y-111674329D01*
X152466735Y-111697429D01*
X152472696Y-111721227D01*
X152476296Y-111745496D01*
X152477500Y-111770000D01*
X152477500Y-113020000D01*
X152476296Y-113044504D01*
X152472696Y-113068773D01*
X152466735Y-113092571D01*
X152458470Y-113115671D01*
X152447980Y-113137849D01*
X152435367Y-113158893D01*
X152420753Y-113178598D01*
X152404277Y-113196777D01*
X152386098Y-113213253D01*
X152366393Y-113227867D01*
X152345349Y-113240480D01*
X152323171Y-113250970D01*
X152300071Y-113259235D01*
X152276273Y-113265196D01*
X152252004Y-113268796D01*
X152227500Y-113270000D01*
X151302500Y-113270000D01*
X151277996Y-113268796D01*
X151253727Y-113265196D01*
X151229929Y-113259235D01*
X151206829Y-113250970D01*
X151184651Y-113240480D01*
X151163607Y-113227867D01*
X151143902Y-113213253D01*
X151125723Y-113196777D01*
X151109247Y-113178598D01*
X151094633Y-113158893D01*
X151082020Y-113137849D01*
X151071530Y-113115671D01*
X151063265Y-113092571D01*
X151057304Y-113068773D01*
X151053704Y-113044504D01*
X151052500Y-113020000D01*
X151052500Y-111770000D01*
X151053704Y-111745496D01*
X151057304Y-111721227D01*
X151063265Y-111697429D01*
X151071530Y-111674329D01*
X151082020Y-111652151D01*
X151094633Y-111631107D01*
X151109247Y-111611402D01*
X151125723Y-111593223D01*
X151143902Y-111576747D01*
X151163607Y-111562133D01*
X151184651Y-111549520D01*
X151206829Y-111539030D01*
X151229929Y-111530765D01*
X151253727Y-111524804D01*
X151277996Y-111521204D01*
X151302500Y-111520000D01*
X152227500Y-111520000D01*
X152252004Y-111521204D01*
X152252004Y-111521204D01*
G37*
D15*
X151765000Y-112395000D03*
D10*
G36*
X157749504Y-111521204D02*
G01*
X157773773Y-111524804D01*
X157797571Y-111530765D01*
X157820671Y-111539030D01*
X157842849Y-111549520D01*
X157863893Y-111562133D01*
X157883598Y-111576747D01*
X157901777Y-111593223D01*
X157918253Y-111611402D01*
X157932867Y-111631107D01*
X157945480Y-111652151D01*
X157955970Y-111674329D01*
X157964235Y-111697429D01*
X157970196Y-111721227D01*
X157973796Y-111745496D01*
X157975000Y-111770000D01*
X157975000Y-113020000D01*
X157973796Y-113044504D01*
X157970196Y-113068773D01*
X157964235Y-113092571D01*
X157955970Y-113115671D01*
X157945480Y-113137849D01*
X157932867Y-113158893D01*
X157918253Y-113178598D01*
X157901777Y-113196777D01*
X157883598Y-113213253D01*
X157863893Y-113227867D01*
X157842849Y-113240480D01*
X157820671Y-113250970D01*
X157797571Y-113259235D01*
X157773773Y-113265196D01*
X157749504Y-113268796D01*
X157725000Y-113270000D01*
X156800000Y-113270000D01*
X156775496Y-113268796D01*
X156751227Y-113265196D01*
X156727429Y-113259235D01*
X156704329Y-113250970D01*
X156682151Y-113240480D01*
X156661107Y-113227867D01*
X156641402Y-113213253D01*
X156623223Y-113196777D01*
X156606747Y-113178598D01*
X156592133Y-113158893D01*
X156579520Y-113137849D01*
X156569030Y-113115671D01*
X156560765Y-113092571D01*
X156554804Y-113068773D01*
X156551204Y-113044504D01*
X156550000Y-113020000D01*
X156550000Y-111770000D01*
X156551204Y-111745496D01*
X156554804Y-111721227D01*
X156560765Y-111697429D01*
X156569030Y-111674329D01*
X156579520Y-111652151D01*
X156592133Y-111631107D01*
X156606747Y-111611402D01*
X156623223Y-111593223D01*
X156641402Y-111576747D01*
X156661107Y-111562133D01*
X156682151Y-111549520D01*
X156704329Y-111539030D01*
X156727429Y-111530765D01*
X156751227Y-111524804D01*
X156775496Y-111521204D01*
X156800000Y-111520000D01*
X157725000Y-111520000D01*
X157749504Y-111521204D01*
X157749504Y-111521204D01*
G37*
D15*
X157262500Y-112395000D03*
D10*
G36*
X160724504Y-111521204D02*
G01*
X160748773Y-111524804D01*
X160772571Y-111530765D01*
X160795671Y-111539030D01*
X160817849Y-111549520D01*
X160838893Y-111562133D01*
X160858598Y-111576747D01*
X160876777Y-111593223D01*
X160893253Y-111611402D01*
X160907867Y-111631107D01*
X160920480Y-111652151D01*
X160930970Y-111674329D01*
X160939235Y-111697429D01*
X160945196Y-111721227D01*
X160948796Y-111745496D01*
X160950000Y-111770000D01*
X160950000Y-113020000D01*
X160948796Y-113044504D01*
X160945196Y-113068773D01*
X160939235Y-113092571D01*
X160930970Y-113115671D01*
X160920480Y-113137849D01*
X160907867Y-113158893D01*
X160893253Y-113178598D01*
X160876777Y-113196777D01*
X160858598Y-113213253D01*
X160838893Y-113227867D01*
X160817849Y-113240480D01*
X160795671Y-113250970D01*
X160772571Y-113259235D01*
X160748773Y-113265196D01*
X160724504Y-113268796D01*
X160700000Y-113270000D01*
X159775000Y-113270000D01*
X159750496Y-113268796D01*
X159726227Y-113265196D01*
X159702429Y-113259235D01*
X159679329Y-113250970D01*
X159657151Y-113240480D01*
X159636107Y-113227867D01*
X159616402Y-113213253D01*
X159598223Y-113196777D01*
X159581747Y-113178598D01*
X159567133Y-113158893D01*
X159554520Y-113137849D01*
X159544030Y-113115671D01*
X159535765Y-113092571D01*
X159529804Y-113068773D01*
X159526204Y-113044504D01*
X159525000Y-113020000D01*
X159525000Y-111770000D01*
X159526204Y-111745496D01*
X159529804Y-111721227D01*
X159535765Y-111697429D01*
X159544030Y-111674329D01*
X159554520Y-111652151D01*
X159567133Y-111631107D01*
X159581747Y-111611402D01*
X159598223Y-111593223D01*
X159616402Y-111576747D01*
X159636107Y-111562133D01*
X159657151Y-111549520D01*
X159679329Y-111539030D01*
X159702429Y-111530765D01*
X159726227Y-111524804D01*
X159750496Y-111521204D01*
X159775000Y-111520000D01*
X160700000Y-111520000D01*
X160724504Y-111521204D01*
X160724504Y-111521204D01*
G37*
D15*
X160237500Y-112395000D03*
D10*
G36*
X165787004Y-111521204D02*
G01*
X165811273Y-111524804D01*
X165835071Y-111530765D01*
X165858171Y-111539030D01*
X165880349Y-111549520D01*
X165901393Y-111562133D01*
X165921098Y-111576747D01*
X165939277Y-111593223D01*
X165955753Y-111611402D01*
X165970367Y-111631107D01*
X165982980Y-111652151D01*
X165993470Y-111674329D01*
X166001735Y-111697429D01*
X166007696Y-111721227D01*
X166011296Y-111745496D01*
X166012500Y-111770000D01*
X166012500Y-113020000D01*
X166011296Y-113044504D01*
X166007696Y-113068773D01*
X166001735Y-113092571D01*
X165993470Y-113115671D01*
X165982980Y-113137849D01*
X165970367Y-113158893D01*
X165955753Y-113178598D01*
X165939277Y-113196777D01*
X165921098Y-113213253D01*
X165901393Y-113227867D01*
X165880349Y-113240480D01*
X165858171Y-113250970D01*
X165835071Y-113259235D01*
X165811273Y-113265196D01*
X165787004Y-113268796D01*
X165762500Y-113270000D01*
X164837500Y-113270000D01*
X164812996Y-113268796D01*
X164788727Y-113265196D01*
X164764929Y-113259235D01*
X164741829Y-113250970D01*
X164719651Y-113240480D01*
X164698607Y-113227867D01*
X164678902Y-113213253D01*
X164660723Y-113196777D01*
X164644247Y-113178598D01*
X164629633Y-113158893D01*
X164617020Y-113137849D01*
X164606530Y-113115671D01*
X164598265Y-113092571D01*
X164592304Y-113068773D01*
X164588704Y-113044504D01*
X164587500Y-113020000D01*
X164587500Y-111770000D01*
X164588704Y-111745496D01*
X164592304Y-111721227D01*
X164598265Y-111697429D01*
X164606530Y-111674329D01*
X164617020Y-111652151D01*
X164629633Y-111631107D01*
X164644247Y-111611402D01*
X164660723Y-111593223D01*
X164678902Y-111576747D01*
X164698607Y-111562133D01*
X164719651Y-111549520D01*
X164741829Y-111539030D01*
X164764929Y-111530765D01*
X164788727Y-111524804D01*
X164812996Y-111521204D01*
X164837500Y-111520000D01*
X165762500Y-111520000D01*
X165787004Y-111521204D01*
X165787004Y-111521204D01*
G37*
D15*
X165300000Y-112395000D03*
D10*
G36*
X168762004Y-111521204D02*
G01*
X168786273Y-111524804D01*
X168810071Y-111530765D01*
X168833171Y-111539030D01*
X168855349Y-111549520D01*
X168876393Y-111562133D01*
X168896098Y-111576747D01*
X168914277Y-111593223D01*
X168930753Y-111611402D01*
X168945367Y-111631107D01*
X168957980Y-111652151D01*
X168968470Y-111674329D01*
X168976735Y-111697429D01*
X168982696Y-111721227D01*
X168986296Y-111745496D01*
X168987500Y-111770000D01*
X168987500Y-113020000D01*
X168986296Y-113044504D01*
X168982696Y-113068773D01*
X168976735Y-113092571D01*
X168968470Y-113115671D01*
X168957980Y-113137849D01*
X168945367Y-113158893D01*
X168930753Y-113178598D01*
X168914277Y-113196777D01*
X168896098Y-113213253D01*
X168876393Y-113227867D01*
X168855349Y-113240480D01*
X168833171Y-113250970D01*
X168810071Y-113259235D01*
X168786273Y-113265196D01*
X168762004Y-113268796D01*
X168737500Y-113270000D01*
X167812500Y-113270000D01*
X167787996Y-113268796D01*
X167763727Y-113265196D01*
X167739929Y-113259235D01*
X167716829Y-113250970D01*
X167694651Y-113240480D01*
X167673607Y-113227867D01*
X167653902Y-113213253D01*
X167635723Y-113196777D01*
X167619247Y-113178598D01*
X167604633Y-113158893D01*
X167592020Y-113137849D01*
X167581530Y-113115671D01*
X167573265Y-113092571D01*
X167567304Y-113068773D01*
X167563704Y-113044504D01*
X167562500Y-113020000D01*
X167562500Y-111770000D01*
X167563704Y-111745496D01*
X167567304Y-111721227D01*
X167573265Y-111697429D01*
X167581530Y-111674329D01*
X167592020Y-111652151D01*
X167604633Y-111631107D01*
X167619247Y-111611402D01*
X167635723Y-111593223D01*
X167653902Y-111576747D01*
X167673607Y-111562133D01*
X167694651Y-111549520D01*
X167716829Y-111539030D01*
X167739929Y-111530765D01*
X167763727Y-111524804D01*
X167787996Y-111521204D01*
X167812500Y-111520000D01*
X168737500Y-111520000D01*
X168762004Y-111521204D01*
X168762004Y-111521204D01*
G37*
D15*
X168275000Y-112395000D03*
D10*
G36*
X149239504Y-103863704D02*
G01*
X149263773Y-103867304D01*
X149287571Y-103873265D01*
X149310671Y-103881530D01*
X149332849Y-103892020D01*
X149353893Y-103904633D01*
X149373598Y-103919247D01*
X149391777Y-103935723D01*
X149408253Y-103953902D01*
X149422867Y-103973607D01*
X149435480Y-103994651D01*
X149445970Y-104016829D01*
X149454235Y-104039929D01*
X149460196Y-104063727D01*
X149463796Y-104087996D01*
X149465000Y-104112500D01*
X149465000Y-105037500D01*
X149463796Y-105062004D01*
X149460196Y-105086273D01*
X149454235Y-105110071D01*
X149445970Y-105133171D01*
X149435480Y-105155349D01*
X149422867Y-105176393D01*
X149408253Y-105196098D01*
X149391777Y-105214277D01*
X149373598Y-105230753D01*
X149353893Y-105245367D01*
X149332849Y-105257980D01*
X149310671Y-105268470D01*
X149287571Y-105276735D01*
X149263773Y-105282696D01*
X149239504Y-105286296D01*
X149215000Y-105287500D01*
X147965000Y-105287500D01*
X147940496Y-105286296D01*
X147916227Y-105282696D01*
X147892429Y-105276735D01*
X147869329Y-105268470D01*
X147847151Y-105257980D01*
X147826107Y-105245367D01*
X147806402Y-105230753D01*
X147788223Y-105214277D01*
X147771747Y-105196098D01*
X147757133Y-105176393D01*
X147744520Y-105155349D01*
X147734030Y-105133171D01*
X147725765Y-105110071D01*
X147719804Y-105086273D01*
X147716204Y-105062004D01*
X147715000Y-105037500D01*
X147715000Y-104112500D01*
X147716204Y-104087996D01*
X147719804Y-104063727D01*
X147725765Y-104039929D01*
X147734030Y-104016829D01*
X147744520Y-103994651D01*
X147757133Y-103973607D01*
X147771747Y-103953902D01*
X147788223Y-103935723D01*
X147806402Y-103919247D01*
X147826107Y-103904633D01*
X147847151Y-103892020D01*
X147869329Y-103881530D01*
X147892429Y-103873265D01*
X147916227Y-103867304D01*
X147940496Y-103863704D01*
X147965000Y-103862500D01*
X149215000Y-103862500D01*
X149239504Y-103863704D01*
X149239504Y-103863704D01*
G37*
D15*
X148590000Y-104575000D03*
D10*
G36*
X149239504Y-100888704D02*
G01*
X149263773Y-100892304D01*
X149287571Y-100898265D01*
X149310671Y-100906530D01*
X149332849Y-100917020D01*
X149353893Y-100929633D01*
X149373598Y-100944247D01*
X149391777Y-100960723D01*
X149408253Y-100978902D01*
X149422867Y-100998607D01*
X149435480Y-101019651D01*
X149445970Y-101041829D01*
X149454235Y-101064929D01*
X149460196Y-101088727D01*
X149463796Y-101112996D01*
X149465000Y-101137500D01*
X149465000Y-102062500D01*
X149463796Y-102087004D01*
X149460196Y-102111273D01*
X149454235Y-102135071D01*
X149445970Y-102158171D01*
X149435480Y-102180349D01*
X149422867Y-102201393D01*
X149408253Y-102221098D01*
X149391777Y-102239277D01*
X149373598Y-102255753D01*
X149353893Y-102270367D01*
X149332849Y-102282980D01*
X149310671Y-102293470D01*
X149287571Y-102301735D01*
X149263773Y-102307696D01*
X149239504Y-102311296D01*
X149215000Y-102312500D01*
X147965000Y-102312500D01*
X147940496Y-102311296D01*
X147916227Y-102307696D01*
X147892429Y-102301735D01*
X147869329Y-102293470D01*
X147847151Y-102282980D01*
X147826107Y-102270367D01*
X147806402Y-102255753D01*
X147788223Y-102239277D01*
X147771747Y-102221098D01*
X147757133Y-102201393D01*
X147744520Y-102180349D01*
X147734030Y-102158171D01*
X147725765Y-102135071D01*
X147719804Y-102111273D01*
X147716204Y-102087004D01*
X147715000Y-102062500D01*
X147715000Y-101137500D01*
X147716204Y-101112996D01*
X147719804Y-101088727D01*
X147725765Y-101064929D01*
X147734030Y-101041829D01*
X147744520Y-101019651D01*
X147757133Y-100998607D01*
X147771747Y-100978902D01*
X147788223Y-100960723D01*
X147806402Y-100944247D01*
X147826107Y-100929633D01*
X147847151Y-100917020D01*
X147869329Y-100906530D01*
X147892429Y-100898265D01*
X147916227Y-100892304D01*
X147940496Y-100888704D01*
X147965000Y-100887500D01*
X149215000Y-100887500D01*
X149239504Y-100888704D01*
X149239504Y-100888704D01*
G37*
D15*
X148590000Y-101600000D03*
D10*
G36*
X134449504Y-117198704D02*
G01*
X134473773Y-117202304D01*
X134497571Y-117208265D01*
X134520671Y-117216530D01*
X134542849Y-117227020D01*
X134563893Y-117239633D01*
X134583598Y-117254247D01*
X134601777Y-117270723D01*
X134618253Y-117288902D01*
X134632867Y-117308607D01*
X134645480Y-117329651D01*
X134655970Y-117351829D01*
X134664235Y-117374929D01*
X134670196Y-117398727D01*
X134673796Y-117422996D01*
X134675000Y-117447500D01*
X134675000Y-118372500D01*
X134673796Y-118397004D01*
X134670196Y-118421273D01*
X134664235Y-118445071D01*
X134655970Y-118468171D01*
X134645480Y-118490349D01*
X134632867Y-118511393D01*
X134618253Y-118531098D01*
X134601777Y-118549277D01*
X134583598Y-118565753D01*
X134563893Y-118580367D01*
X134542849Y-118592980D01*
X134520671Y-118603470D01*
X134497571Y-118611735D01*
X134473773Y-118617696D01*
X134449504Y-118621296D01*
X134425000Y-118622500D01*
X132275000Y-118622500D01*
X132250496Y-118621296D01*
X132226227Y-118617696D01*
X132202429Y-118611735D01*
X132179329Y-118603470D01*
X132157151Y-118592980D01*
X132136107Y-118580367D01*
X132116402Y-118565753D01*
X132098223Y-118549277D01*
X132081747Y-118531098D01*
X132067133Y-118511393D01*
X132054520Y-118490349D01*
X132044030Y-118468171D01*
X132035765Y-118445071D01*
X132029804Y-118421273D01*
X132026204Y-118397004D01*
X132025000Y-118372500D01*
X132025000Y-117447500D01*
X132026204Y-117422996D01*
X132029804Y-117398727D01*
X132035765Y-117374929D01*
X132044030Y-117351829D01*
X132054520Y-117329651D01*
X132067133Y-117308607D01*
X132081747Y-117288902D01*
X132098223Y-117270723D01*
X132116402Y-117254247D01*
X132136107Y-117239633D01*
X132157151Y-117227020D01*
X132179329Y-117216530D01*
X132202429Y-117208265D01*
X132226227Y-117202304D01*
X132250496Y-117198704D01*
X132275000Y-117197500D01*
X134425000Y-117197500D01*
X134449504Y-117198704D01*
X134449504Y-117198704D01*
G37*
D15*
X133350000Y-117910000D03*
D10*
G36*
X134449504Y-114223704D02*
G01*
X134473773Y-114227304D01*
X134497571Y-114233265D01*
X134520671Y-114241530D01*
X134542849Y-114252020D01*
X134563893Y-114264633D01*
X134583598Y-114279247D01*
X134601777Y-114295723D01*
X134618253Y-114313902D01*
X134632867Y-114333607D01*
X134645480Y-114354651D01*
X134655970Y-114376829D01*
X134664235Y-114399929D01*
X134670196Y-114423727D01*
X134673796Y-114447996D01*
X134675000Y-114472500D01*
X134675000Y-115397500D01*
X134673796Y-115422004D01*
X134670196Y-115446273D01*
X134664235Y-115470071D01*
X134655970Y-115493171D01*
X134645480Y-115515349D01*
X134632867Y-115536393D01*
X134618253Y-115556098D01*
X134601777Y-115574277D01*
X134583598Y-115590753D01*
X134563893Y-115605367D01*
X134542849Y-115617980D01*
X134520671Y-115628470D01*
X134497571Y-115636735D01*
X134473773Y-115642696D01*
X134449504Y-115646296D01*
X134425000Y-115647500D01*
X132275000Y-115647500D01*
X132250496Y-115646296D01*
X132226227Y-115642696D01*
X132202429Y-115636735D01*
X132179329Y-115628470D01*
X132157151Y-115617980D01*
X132136107Y-115605367D01*
X132116402Y-115590753D01*
X132098223Y-115574277D01*
X132081747Y-115556098D01*
X132067133Y-115536393D01*
X132054520Y-115515349D01*
X132044030Y-115493171D01*
X132035765Y-115470071D01*
X132029804Y-115446273D01*
X132026204Y-115422004D01*
X132025000Y-115397500D01*
X132025000Y-114472500D01*
X132026204Y-114447996D01*
X132029804Y-114423727D01*
X132035765Y-114399929D01*
X132044030Y-114376829D01*
X132054520Y-114354651D01*
X132067133Y-114333607D01*
X132081747Y-114313902D01*
X132098223Y-114295723D01*
X132116402Y-114279247D01*
X132136107Y-114264633D01*
X132157151Y-114252020D01*
X132179329Y-114241530D01*
X132202429Y-114233265D01*
X132226227Y-114227304D01*
X132250496Y-114223704D01*
X132275000Y-114222500D01*
X134425000Y-114222500D01*
X134449504Y-114223704D01*
X134449504Y-114223704D01*
G37*
D15*
X133350000Y-114935000D03*
D10*
G36*
X134449504Y-109778704D02*
G01*
X134473773Y-109782304D01*
X134497571Y-109788265D01*
X134520671Y-109796530D01*
X134542849Y-109807020D01*
X134563893Y-109819633D01*
X134583598Y-109834247D01*
X134601777Y-109850723D01*
X134618253Y-109868902D01*
X134632867Y-109888607D01*
X134645480Y-109909651D01*
X134655970Y-109931829D01*
X134664235Y-109954929D01*
X134670196Y-109978727D01*
X134673796Y-110002996D01*
X134675000Y-110027500D01*
X134675000Y-110952500D01*
X134673796Y-110977004D01*
X134670196Y-111001273D01*
X134664235Y-111025071D01*
X134655970Y-111048171D01*
X134645480Y-111070349D01*
X134632867Y-111091393D01*
X134618253Y-111111098D01*
X134601777Y-111129277D01*
X134583598Y-111145753D01*
X134563893Y-111160367D01*
X134542849Y-111172980D01*
X134520671Y-111183470D01*
X134497571Y-111191735D01*
X134473773Y-111197696D01*
X134449504Y-111201296D01*
X134425000Y-111202500D01*
X132275000Y-111202500D01*
X132250496Y-111201296D01*
X132226227Y-111197696D01*
X132202429Y-111191735D01*
X132179329Y-111183470D01*
X132157151Y-111172980D01*
X132136107Y-111160367D01*
X132116402Y-111145753D01*
X132098223Y-111129277D01*
X132081747Y-111111098D01*
X132067133Y-111091393D01*
X132054520Y-111070349D01*
X132044030Y-111048171D01*
X132035765Y-111025071D01*
X132029804Y-111001273D01*
X132026204Y-110977004D01*
X132025000Y-110952500D01*
X132025000Y-110027500D01*
X132026204Y-110002996D01*
X132029804Y-109978727D01*
X132035765Y-109954929D01*
X132044030Y-109931829D01*
X132054520Y-109909651D01*
X132067133Y-109888607D01*
X132081747Y-109868902D01*
X132098223Y-109850723D01*
X132116402Y-109834247D01*
X132136107Y-109819633D01*
X132157151Y-109807020D01*
X132179329Y-109796530D01*
X132202429Y-109788265D01*
X132226227Y-109782304D01*
X132250496Y-109778704D01*
X132275000Y-109777500D01*
X134425000Y-109777500D01*
X134449504Y-109778704D01*
X134449504Y-109778704D01*
G37*
D15*
X133350000Y-110490000D03*
D10*
G36*
X134449504Y-106803704D02*
G01*
X134473773Y-106807304D01*
X134497571Y-106813265D01*
X134520671Y-106821530D01*
X134542849Y-106832020D01*
X134563893Y-106844633D01*
X134583598Y-106859247D01*
X134601777Y-106875723D01*
X134618253Y-106893902D01*
X134632867Y-106913607D01*
X134645480Y-106934651D01*
X134655970Y-106956829D01*
X134664235Y-106979929D01*
X134670196Y-107003727D01*
X134673796Y-107027996D01*
X134675000Y-107052500D01*
X134675000Y-107977500D01*
X134673796Y-108002004D01*
X134670196Y-108026273D01*
X134664235Y-108050071D01*
X134655970Y-108073171D01*
X134645480Y-108095349D01*
X134632867Y-108116393D01*
X134618253Y-108136098D01*
X134601777Y-108154277D01*
X134583598Y-108170753D01*
X134563893Y-108185367D01*
X134542849Y-108197980D01*
X134520671Y-108208470D01*
X134497571Y-108216735D01*
X134473773Y-108222696D01*
X134449504Y-108226296D01*
X134425000Y-108227500D01*
X132275000Y-108227500D01*
X132250496Y-108226296D01*
X132226227Y-108222696D01*
X132202429Y-108216735D01*
X132179329Y-108208470D01*
X132157151Y-108197980D01*
X132136107Y-108185367D01*
X132116402Y-108170753D01*
X132098223Y-108154277D01*
X132081747Y-108136098D01*
X132067133Y-108116393D01*
X132054520Y-108095349D01*
X132044030Y-108073171D01*
X132035765Y-108050071D01*
X132029804Y-108026273D01*
X132026204Y-108002004D01*
X132025000Y-107977500D01*
X132025000Y-107052500D01*
X132026204Y-107027996D01*
X132029804Y-107003727D01*
X132035765Y-106979929D01*
X132044030Y-106956829D01*
X132054520Y-106934651D01*
X132067133Y-106913607D01*
X132081747Y-106893902D01*
X132098223Y-106875723D01*
X132116402Y-106859247D01*
X132136107Y-106844633D01*
X132157151Y-106832020D01*
X132179329Y-106821530D01*
X132202429Y-106813265D01*
X132226227Y-106807304D01*
X132250496Y-106803704D01*
X132275000Y-106802500D01*
X134425000Y-106802500D01*
X134449504Y-106803704D01*
X134449504Y-106803704D01*
G37*
D15*
X133350000Y-107515000D03*
D10*
G36*
X134449504Y-102793704D02*
G01*
X134473773Y-102797304D01*
X134497571Y-102803265D01*
X134520671Y-102811530D01*
X134542849Y-102822020D01*
X134563893Y-102834633D01*
X134583598Y-102849247D01*
X134601777Y-102865723D01*
X134618253Y-102883902D01*
X134632867Y-102903607D01*
X134645480Y-102924651D01*
X134655970Y-102946829D01*
X134664235Y-102969929D01*
X134670196Y-102993727D01*
X134673796Y-103017996D01*
X134675000Y-103042500D01*
X134675000Y-103967500D01*
X134673796Y-103992004D01*
X134670196Y-104016273D01*
X134664235Y-104040071D01*
X134655970Y-104063171D01*
X134645480Y-104085349D01*
X134632867Y-104106393D01*
X134618253Y-104126098D01*
X134601777Y-104144277D01*
X134583598Y-104160753D01*
X134563893Y-104175367D01*
X134542849Y-104187980D01*
X134520671Y-104198470D01*
X134497571Y-104206735D01*
X134473773Y-104212696D01*
X134449504Y-104216296D01*
X134425000Y-104217500D01*
X132275000Y-104217500D01*
X132250496Y-104216296D01*
X132226227Y-104212696D01*
X132202429Y-104206735D01*
X132179329Y-104198470D01*
X132157151Y-104187980D01*
X132136107Y-104175367D01*
X132116402Y-104160753D01*
X132098223Y-104144277D01*
X132081747Y-104126098D01*
X132067133Y-104106393D01*
X132054520Y-104085349D01*
X132044030Y-104063171D01*
X132035765Y-104040071D01*
X132029804Y-104016273D01*
X132026204Y-103992004D01*
X132025000Y-103967500D01*
X132025000Y-103042500D01*
X132026204Y-103017996D01*
X132029804Y-102993727D01*
X132035765Y-102969929D01*
X132044030Y-102946829D01*
X132054520Y-102924651D01*
X132067133Y-102903607D01*
X132081747Y-102883902D01*
X132098223Y-102865723D01*
X132116402Y-102849247D01*
X132136107Y-102834633D01*
X132157151Y-102822020D01*
X132179329Y-102811530D01*
X132202429Y-102803265D01*
X132226227Y-102797304D01*
X132250496Y-102793704D01*
X132275000Y-102792500D01*
X134425000Y-102792500D01*
X134449504Y-102793704D01*
X134449504Y-102793704D01*
G37*
D15*
X133350000Y-103505000D03*
D10*
G36*
X134449504Y-99818704D02*
G01*
X134473773Y-99822304D01*
X134497571Y-99828265D01*
X134520671Y-99836530D01*
X134542849Y-99847020D01*
X134563893Y-99859633D01*
X134583598Y-99874247D01*
X134601777Y-99890723D01*
X134618253Y-99908902D01*
X134632867Y-99928607D01*
X134645480Y-99949651D01*
X134655970Y-99971829D01*
X134664235Y-99994929D01*
X134670196Y-100018727D01*
X134673796Y-100042996D01*
X134675000Y-100067500D01*
X134675000Y-100992500D01*
X134673796Y-101017004D01*
X134670196Y-101041273D01*
X134664235Y-101065071D01*
X134655970Y-101088171D01*
X134645480Y-101110349D01*
X134632867Y-101131393D01*
X134618253Y-101151098D01*
X134601777Y-101169277D01*
X134583598Y-101185753D01*
X134563893Y-101200367D01*
X134542849Y-101212980D01*
X134520671Y-101223470D01*
X134497571Y-101231735D01*
X134473773Y-101237696D01*
X134449504Y-101241296D01*
X134425000Y-101242500D01*
X132275000Y-101242500D01*
X132250496Y-101241296D01*
X132226227Y-101237696D01*
X132202429Y-101231735D01*
X132179329Y-101223470D01*
X132157151Y-101212980D01*
X132136107Y-101200367D01*
X132116402Y-101185753D01*
X132098223Y-101169277D01*
X132081747Y-101151098D01*
X132067133Y-101131393D01*
X132054520Y-101110349D01*
X132044030Y-101088171D01*
X132035765Y-101065071D01*
X132029804Y-101041273D01*
X132026204Y-101017004D01*
X132025000Y-100992500D01*
X132025000Y-100067500D01*
X132026204Y-100042996D01*
X132029804Y-100018727D01*
X132035765Y-99994929D01*
X132044030Y-99971829D01*
X132054520Y-99949651D01*
X132067133Y-99928607D01*
X132081747Y-99908902D01*
X132098223Y-99890723D01*
X132116402Y-99874247D01*
X132136107Y-99859633D01*
X132157151Y-99847020D01*
X132179329Y-99836530D01*
X132202429Y-99828265D01*
X132226227Y-99822304D01*
X132250496Y-99818704D01*
X132275000Y-99817500D01*
X134425000Y-99817500D01*
X134449504Y-99818704D01*
X134449504Y-99818704D01*
G37*
D15*
X133350000Y-100530000D03*
D10*
G36*
X160206958Y-100035710D02*
G01*
X160221276Y-100037834D01*
X160235317Y-100041351D01*
X160248946Y-100046228D01*
X160262031Y-100052417D01*
X160274447Y-100059858D01*
X160286073Y-100068481D01*
X160296798Y-100078202D01*
X160306519Y-100088927D01*
X160315142Y-100100553D01*
X160322583Y-100112969D01*
X160328772Y-100126054D01*
X160333649Y-100139683D01*
X160337166Y-100153724D01*
X160339290Y-100168042D01*
X160340000Y-100182500D01*
X160340000Y-100477500D01*
X160339290Y-100491958D01*
X160337166Y-100506276D01*
X160333649Y-100520317D01*
X160328772Y-100533946D01*
X160322583Y-100547031D01*
X160315142Y-100559447D01*
X160306519Y-100571073D01*
X160296798Y-100581798D01*
X160286073Y-100591519D01*
X160274447Y-100600142D01*
X160262031Y-100607583D01*
X160248946Y-100613772D01*
X160235317Y-100618649D01*
X160221276Y-100622166D01*
X160206958Y-100624290D01*
X160192500Y-100625000D01*
X159847500Y-100625000D01*
X159833042Y-100624290D01*
X159818724Y-100622166D01*
X159804683Y-100618649D01*
X159791054Y-100613772D01*
X159777969Y-100607583D01*
X159765553Y-100600142D01*
X159753927Y-100591519D01*
X159743202Y-100581798D01*
X159733481Y-100571073D01*
X159724858Y-100559447D01*
X159717417Y-100547031D01*
X159711228Y-100533946D01*
X159706351Y-100520317D01*
X159702834Y-100506276D01*
X159700710Y-100491958D01*
X159700000Y-100477500D01*
X159700000Y-100182500D01*
X159700710Y-100168042D01*
X159702834Y-100153724D01*
X159706351Y-100139683D01*
X159711228Y-100126054D01*
X159717417Y-100112969D01*
X159724858Y-100100553D01*
X159733481Y-100088927D01*
X159743202Y-100078202D01*
X159753927Y-100068481D01*
X159765553Y-100059858D01*
X159777969Y-100052417D01*
X159791054Y-100046228D01*
X159804683Y-100041351D01*
X159818724Y-100037834D01*
X159833042Y-100035710D01*
X159847500Y-100035000D01*
X160192500Y-100035000D01*
X160206958Y-100035710D01*
X160206958Y-100035710D01*
G37*
D16*
X160020000Y-100330000D03*
D10*
G36*
X160206958Y-101005710D02*
G01*
X160221276Y-101007834D01*
X160235317Y-101011351D01*
X160248946Y-101016228D01*
X160262031Y-101022417D01*
X160274447Y-101029858D01*
X160286073Y-101038481D01*
X160296798Y-101048202D01*
X160306519Y-101058927D01*
X160315142Y-101070553D01*
X160322583Y-101082969D01*
X160328772Y-101096054D01*
X160333649Y-101109683D01*
X160337166Y-101123724D01*
X160339290Y-101138042D01*
X160340000Y-101152500D01*
X160340000Y-101447500D01*
X160339290Y-101461958D01*
X160337166Y-101476276D01*
X160333649Y-101490317D01*
X160328772Y-101503946D01*
X160322583Y-101517031D01*
X160315142Y-101529447D01*
X160306519Y-101541073D01*
X160296798Y-101551798D01*
X160286073Y-101561519D01*
X160274447Y-101570142D01*
X160262031Y-101577583D01*
X160248946Y-101583772D01*
X160235317Y-101588649D01*
X160221276Y-101592166D01*
X160206958Y-101594290D01*
X160192500Y-101595000D01*
X159847500Y-101595000D01*
X159833042Y-101594290D01*
X159818724Y-101592166D01*
X159804683Y-101588649D01*
X159791054Y-101583772D01*
X159777969Y-101577583D01*
X159765553Y-101570142D01*
X159753927Y-101561519D01*
X159743202Y-101551798D01*
X159733481Y-101541073D01*
X159724858Y-101529447D01*
X159717417Y-101517031D01*
X159711228Y-101503946D01*
X159706351Y-101490317D01*
X159702834Y-101476276D01*
X159700710Y-101461958D01*
X159700000Y-101447500D01*
X159700000Y-101152500D01*
X159700710Y-101138042D01*
X159702834Y-101123724D01*
X159706351Y-101109683D01*
X159711228Y-101096054D01*
X159717417Y-101082969D01*
X159724858Y-101070553D01*
X159733481Y-101058927D01*
X159743202Y-101048202D01*
X159753927Y-101038481D01*
X159765553Y-101029858D01*
X159777969Y-101022417D01*
X159791054Y-101016228D01*
X159804683Y-101011351D01*
X159818724Y-101007834D01*
X159833042Y-101005710D01*
X159847500Y-101005000D01*
X160192500Y-101005000D01*
X160206958Y-101005710D01*
X160206958Y-101005710D01*
G37*
D16*
X160020000Y-101300000D03*
D10*
G36*
X144619505Y-109426204D02*
G01*
X144643773Y-109429804D01*
X144667572Y-109435765D01*
X144690671Y-109444030D01*
X144712850Y-109454520D01*
X144733893Y-109467132D01*
X144753599Y-109481747D01*
X144771777Y-109498223D01*
X144788253Y-109516401D01*
X144802868Y-109536107D01*
X144815480Y-109557150D01*
X144825970Y-109579329D01*
X144834235Y-109602428D01*
X144840196Y-109626227D01*
X144843796Y-109650495D01*
X144845000Y-109674999D01*
X144845000Y-110325001D01*
X144843796Y-110349505D01*
X144840196Y-110373773D01*
X144834235Y-110397572D01*
X144825970Y-110420671D01*
X144815480Y-110442850D01*
X144802868Y-110463893D01*
X144788253Y-110483599D01*
X144771777Y-110501777D01*
X144753599Y-110518253D01*
X144733893Y-110532868D01*
X144712850Y-110545480D01*
X144690671Y-110555970D01*
X144667572Y-110564235D01*
X144643773Y-110570196D01*
X144619505Y-110573796D01*
X144595001Y-110575000D01*
X143694999Y-110575000D01*
X143670495Y-110573796D01*
X143646227Y-110570196D01*
X143622428Y-110564235D01*
X143599329Y-110555970D01*
X143577150Y-110545480D01*
X143556107Y-110532868D01*
X143536401Y-110518253D01*
X143518223Y-110501777D01*
X143501747Y-110483599D01*
X143487132Y-110463893D01*
X143474520Y-110442850D01*
X143464030Y-110420671D01*
X143455765Y-110397572D01*
X143449804Y-110373773D01*
X143446204Y-110349505D01*
X143445000Y-110325001D01*
X143445000Y-109674999D01*
X143446204Y-109650495D01*
X143449804Y-109626227D01*
X143455765Y-109602428D01*
X143464030Y-109579329D01*
X143474520Y-109557150D01*
X143487132Y-109536107D01*
X143501747Y-109516401D01*
X143518223Y-109498223D01*
X143536401Y-109481747D01*
X143556107Y-109467132D01*
X143577150Y-109454520D01*
X143599329Y-109444030D01*
X143622428Y-109435765D01*
X143646227Y-109429804D01*
X143670495Y-109426204D01*
X143694999Y-109425000D01*
X144595001Y-109425000D01*
X144619505Y-109426204D01*
X144619505Y-109426204D01*
G37*
D14*
X144145000Y-110000000D03*
D10*
G36*
X144619505Y-107376204D02*
G01*
X144643773Y-107379804D01*
X144667572Y-107385765D01*
X144690671Y-107394030D01*
X144712850Y-107404520D01*
X144733893Y-107417132D01*
X144753599Y-107431747D01*
X144771777Y-107448223D01*
X144788253Y-107466401D01*
X144802868Y-107486107D01*
X144815480Y-107507150D01*
X144825970Y-107529329D01*
X144834235Y-107552428D01*
X144840196Y-107576227D01*
X144843796Y-107600495D01*
X144845000Y-107624999D01*
X144845000Y-108275001D01*
X144843796Y-108299505D01*
X144840196Y-108323773D01*
X144834235Y-108347572D01*
X144825970Y-108370671D01*
X144815480Y-108392850D01*
X144802868Y-108413893D01*
X144788253Y-108433599D01*
X144771777Y-108451777D01*
X144753599Y-108468253D01*
X144733893Y-108482868D01*
X144712850Y-108495480D01*
X144690671Y-108505970D01*
X144667572Y-108514235D01*
X144643773Y-108520196D01*
X144619505Y-108523796D01*
X144595001Y-108525000D01*
X143694999Y-108525000D01*
X143670495Y-108523796D01*
X143646227Y-108520196D01*
X143622428Y-108514235D01*
X143599329Y-108505970D01*
X143577150Y-108495480D01*
X143556107Y-108482868D01*
X143536401Y-108468253D01*
X143518223Y-108451777D01*
X143501747Y-108433599D01*
X143487132Y-108413893D01*
X143474520Y-108392850D01*
X143464030Y-108370671D01*
X143455765Y-108347572D01*
X143449804Y-108323773D01*
X143446204Y-108299505D01*
X143445000Y-108275001D01*
X143445000Y-107624999D01*
X143446204Y-107600495D01*
X143449804Y-107576227D01*
X143455765Y-107552428D01*
X143464030Y-107529329D01*
X143474520Y-107507150D01*
X143487132Y-107486107D01*
X143501747Y-107466401D01*
X143518223Y-107448223D01*
X143536401Y-107431747D01*
X143556107Y-107417132D01*
X143577150Y-107404520D01*
X143599329Y-107394030D01*
X143622428Y-107385765D01*
X143646227Y-107379804D01*
X143670495Y-107376204D01*
X143694999Y-107375000D01*
X144595001Y-107375000D01*
X144619505Y-107376204D01*
X144619505Y-107376204D01*
G37*
D14*
X144145000Y-107950000D03*
D10*
G36*
X128744505Y-93406204D02*
G01*
X128768773Y-93409804D01*
X128792572Y-93415765D01*
X128815671Y-93424030D01*
X128837850Y-93434520D01*
X128858893Y-93447132D01*
X128878599Y-93461747D01*
X128896777Y-93478223D01*
X128913253Y-93496401D01*
X128927868Y-93516107D01*
X128940480Y-93537150D01*
X128950970Y-93559329D01*
X128959235Y-93582428D01*
X128965196Y-93606227D01*
X128968796Y-93630495D01*
X128970000Y-93654999D01*
X128970000Y-94305001D01*
X128968796Y-94329505D01*
X128965196Y-94353773D01*
X128959235Y-94377572D01*
X128950970Y-94400671D01*
X128940480Y-94422850D01*
X128927868Y-94443893D01*
X128913253Y-94463599D01*
X128896777Y-94481777D01*
X128878599Y-94498253D01*
X128858893Y-94512868D01*
X128837850Y-94525480D01*
X128815671Y-94535970D01*
X128792572Y-94544235D01*
X128768773Y-94550196D01*
X128744505Y-94553796D01*
X128720001Y-94555000D01*
X127819999Y-94555000D01*
X127795495Y-94553796D01*
X127771227Y-94550196D01*
X127747428Y-94544235D01*
X127724329Y-94535970D01*
X127702150Y-94525480D01*
X127681107Y-94512868D01*
X127661401Y-94498253D01*
X127643223Y-94481777D01*
X127626747Y-94463599D01*
X127612132Y-94443893D01*
X127599520Y-94422850D01*
X127589030Y-94400671D01*
X127580765Y-94377572D01*
X127574804Y-94353773D01*
X127571204Y-94329505D01*
X127570000Y-94305001D01*
X127570000Y-93654999D01*
X127571204Y-93630495D01*
X127574804Y-93606227D01*
X127580765Y-93582428D01*
X127589030Y-93559329D01*
X127599520Y-93537150D01*
X127612132Y-93516107D01*
X127626747Y-93496401D01*
X127643223Y-93478223D01*
X127661401Y-93461747D01*
X127681107Y-93447132D01*
X127702150Y-93434520D01*
X127724329Y-93424030D01*
X127747428Y-93415765D01*
X127771227Y-93409804D01*
X127795495Y-93406204D01*
X127819999Y-93405000D01*
X128720001Y-93405000D01*
X128744505Y-93406204D01*
X128744505Y-93406204D01*
G37*
D14*
X128270000Y-93980000D03*
D10*
G36*
X128744505Y-91356204D02*
G01*
X128768773Y-91359804D01*
X128792572Y-91365765D01*
X128815671Y-91374030D01*
X128837850Y-91384520D01*
X128858893Y-91397132D01*
X128878599Y-91411747D01*
X128896777Y-91428223D01*
X128913253Y-91446401D01*
X128927868Y-91466107D01*
X128940480Y-91487150D01*
X128950970Y-91509329D01*
X128959235Y-91532428D01*
X128965196Y-91556227D01*
X128968796Y-91580495D01*
X128970000Y-91604999D01*
X128970000Y-92255001D01*
X128968796Y-92279505D01*
X128965196Y-92303773D01*
X128959235Y-92327572D01*
X128950970Y-92350671D01*
X128940480Y-92372850D01*
X128927868Y-92393893D01*
X128913253Y-92413599D01*
X128896777Y-92431777D01*
X128878599Y-92448253D01*
X128858893Y-92462868D01*
X128837850Y-92475480D01*
X128815671Y-92485970D01*
X128792572Y-92494235D01*
X128768773Y-92500196D01*
X128744505Y-92503796D01*
X128720001Y-92505000D01*
X127819999Y-92505000D01*
X127795495Y-92503796D01*
X127771227Y-92500196D01*
X127747428Y-92494235D01*
X127724329Y-92485970D01*
X127702150Y-92475480D01*
X127681107Y-92462868D01*
X127661401Y-92448253D01*
X127643223Y-92431777D01*
X127626747Y-92413599D01*
X127612132Y-92393893D01*
X127599520Y-92372850D01*
X127589030Y-92350671D01*
X127580765Y-92327572D01*
X127574804Y-92303773D01*
X127571204Y-92279505D01*
X127570000Y-92255001D01*
X127570000Y-91604999D01*
X127571204Y-91580495D01*
X127574804Y-91556227D01*
X127580765Y-91532428D01*
X127589030Y-91509329D01*
X127599520Y-91487150D01*
X127612132Y-91466107D01*
X127626747Y-91446401D01*
X127643223Y-91428223D01*
X127661401Y-91411747D01*
X127681107Y-91397132D01*
X127702150Y-91384520D01*
X127724329Y-91374030D01*
X127747428Y-91365765D01*
X127771227Y-91359804D01*
X127795495Y-91356204D01*
X127819999Y-91355000D01*
X128720001Y-91355000D01*
X128744505Y-91356204D01*
X128744505Y-91356204D01*
G37*
D14*
X128270000Y-91930000D03*
D17*
X138989000Y-97012000D03*
X138989000Y-96512000D03*
X138989000Y-96012000D03*
X138989000Y-95512000D03*
X138989000Y-95012000D03*
D18*
X140039000Y-96012000D03*
X140589000Y-96012000D03*
X141139000Y-96012000D03*
D17*
X142189000Y-95012000D03*
X142189000Y-95512000D03*
X142189000Y-96012000D03*
X142189000Y-96512000D03*
X142189000Y-97012000D03*
M02*
