M48
; DRILL file {KiCad (5.1.4)-1} date 12/13/2019 12:21:28 PM
; FORMAT={-:-/ absolute / inch / decimal}
; #@! TF.CreationDate,2019-12-13T12:21:28-06:00
; #@! TF.GenerationSoftware,Kicad,Pcbnew,(5.1.4)-1
; #@! TF.FileFunction,Plated,1,2,PTH
FMAT,2
INCH
T1C0.0040
T2C0.0331
T3C0.0394
T4C0.0787
T5C0.1500
%
G90
G05
T1
X2.5909Y-4.4171
X2.777Y-2.223
X2.865Y-5.93
X3.123Y-2.407
X3.409Y-4.361
X3.453Y-5.949
X3.49Y-5.445
X3.531Y-4.308
X3.542Y-5.3342
X3.59Y-5.45
X3.649Y-5.327
X3.659Y-5.473
X3.726Y-5.469
X3.833Y-3.369
X4.102Y-3.402
X4.186Y-3.426
X4.349Y-4.418
X4.398Y-5.244
X4.507Y-3.439
X4.539Y-5.006
X4.554Y-3.47
T2
X4.4226Y-5.9726
X4.4226Y-6.0734
X4.473Y-6.023
X4.5234Y-5.9726
X4.5234Y-6.0734
X4.6986Y-5.9716
X4.6986Y-6.0724
X4.749Y-6.022
X4.7994Y-5.9716
X4.7994Y-6.0724
T3
X4.135Y-6.069
X2.549Y-6.081
X2.691Y-6.084
X2.39Y-6.081
X3.004Y-6.07
X3.104Y-6.07
X3.204Y-6.07
X3.304Y-6.07
X3.404Y-6.07
X3.504Y-6.07
X3.604Y-6.07
X3.704Y-6.07
X3.804Y-6.07
X3.904Y-6.07
X2.114Y-6.082
X2.244Y-6.081
X4.265Y-6.069
T4
X2.1311Y-5.7669
X4.7587Y-3.9591
X4.7587Y-2.1508
X2.1311Y-2.1508
X4.7587Y-5.7669
X2.1311Y-3.9591
T5
X2.4004Y-5.7543
X2.4004Y-2.1244
X4.5323Y-5.7543
X4.5323Y-2.1244
T0
M30
