%TF.GenerationSoftware,KiCad,Pcbnew,(5.1.4)-1*%
%TF.CreationDate,2019-12-13T12:22:18-06:00*%
%TF.ProjectId,payload_board,7061796c-6f61-4645-9f62-6f6172642e6b,rev?*%
%TF.SameCoordinates,Original*%
%TF.FileFunction,Legend,Bot*%
%TF.FilePolarity,Positive*%
%FSLAX46Y46*%
G04 Gerber Fmt 4.6, Leading zero omitted, Abs format (unit mm)*
G04 Created by KiCad (PCBNEW (5.1.4)-1) date 2019-12-13 12:22:18*
%MOMM*%
%LPD*%
G04 APERTURE LIST*
%ADD10C,0.300000*%
G04 APERTURE END LIST*
D10*
X121294285Y-93354285D02*
X121222857Y-93425714D01*
X121151428Y-93640000D01*
X121151428Y-93782857D01*
X121222857Y-93997142D01*
X121365714Y-94140000D01*
X121508571Y-94211428D01*
X121794285Y-94282857D01*
X122008571Y-94282857D01*
X122294285Y-94211428D01*
X122437142Y-94140000D01*
X122580000Y-93997142D01*
X122651428Y-93782857D01*
X122651428Y-93640000D01*
X122580000Y-93425714D01*
X122508571Y-93354285D01*
X122151428Y-92854285D02*
X121151428Y-92497142D01*
X122151428Y-92140000D02*
X121151428Y-92497142D01*
X120794285Y-92640000D01*
X120722857Y-92711428D01*
X120651428Y-92854285D01*
X121222857Y-91640000D02*
X121151428Y-91425714D01*
X121151428Y-91068571D01*
X121222857Y-90925714D01*
X121294285Y-90854285D01*
X121437142Y-90782857D01*
X121580000Y-90782857D01*
X121722857Y-90854285D01*
X121794285Y-90925714D01*
X121865714Y-91068571D01*
X121937142Y-91354285D01*
X122008571Y-91497142D01*
X122080000Y-91568571D01*
X122222857Y-91640000D01*
X122365714Y-91640000D01*
X122508571Y-91568571D01*
X122580000Y-91497142D01*
X122651428Y-91354285D01*
X122651428Y-90997142D01*
X122580000Y-90782857D01*
X121151428Y-89497142D02*
X121937142Y-89497142D01*
X122080000Y-89568571D01*
X122151428Y-89711428D01*
X122151428Y-89997142D01*
X122080000Y-90140000D01*
X121222857Y-89497142D02*
X121151428Y-89640000D01*
X121151428Y-89997142D01*
X121222857Y-90140000D01*
X121365714Y-90211428D01*
X121508571Y-90211428D01*
X121651428Y-90140000D01*
X121722857Y-89997142D01*
X121722857Y-89640000D01*
X121794285Y-89497142D01*
X122151428Y-88997142D02*
X122151428Y-88425714D01*
X122651428Y-88782857D02*
X121365714Y-88782857D01*
X121222857Y-88711428D01*
X121151428Y-88568571D01*
X121151428Y-88425714D01*
X121151428Y-85997142D02*
X121151428Y-86854285D01*
X121151428Y-86425714D02*
X122651428Y-86425714D01*
X122437142Y-86568571D01*
X122294285Y-86711428D01*
X122222857Y-86854285D01*
X121722857Y-84211428D02*
X121722857Y-83068571D01*
X121222857Y-81282857D02*
X121151428Y-81068571D01*
X121151428Y-80711428D01*
X121222857Y-80568571D01*
X121294285Y-80497142D01*
X121437142Y-80425714D01*
X121580000Y-80425714D01*
X121722857Y-80497142D01*
X121794285Y-80568571D01*
X121865714Y-80711428D01*
X121937142Y-80997142D01*
X122008571Y-81140000D01*
X122080000Y-81211428D01*
X122222857Y-81282857D01*
X122365714Y-81282857D01*
X122508571Y-81211428D01*
X122580000Y-81140000D01*
X122651428Y-80997142D01*
X122651428Y-80640000D01*
X122580000Y-80425714D01*
X121151428Y-79782857D02*
X122651428Y-79782857D01*
X122651428Y-79425714D01*
X122580000Y-79211428D01*
X122437142Y-79068571D01*
X122294285Y-78997142D01*
X122008571Y-78925714D01*
X121794285Y-78925714D01*
X121508571Y-78997142D01*
X121365714Y-79068571D01*
X121222857Y-79211428D01*
X121151428Y-79425714D01*
X121151428Y-79782857D01*
X121151428Y-77425714D02*
X121865714Y-77925714D01*
X121151428Y-78282857D02*
X122651428Y-78282857D01*
X122651428Y-77711428D01*
X122580000Y-77568571D01*
X122508571Y-77497142D01*
X122365714Y-77425714D01*
X122151428Y-77425714D01*
X122008571Y-77497142D01*
X121937142Y-77568571D01*
X121865714Y-77711428D01*
X121865714Y-78282857D01*
X121294285Y-74782857D02*
X121222857Y-74854285D01*
X121151428Y-75068571D01*
X121151428Y-75211428D01*
X121222857Y-75425714D01*
X121365714Y-75568571D01*
X121508571Y-75640000D01*
X121794285Y-75711428D01*
X122008571Y-75711428D01*
X122294285Y-75640000D01*
X122437142Y-75568571D01*
X122580000Y-75425714D01*
X122651428Y-75211428D01*
X122651428Y-75068571D01*
X122580000Y-74854285D01*
X122508571Y-74782857D01*
X121151428Y-73497142D02*
X121937142Y-73497142D01*
X122080000Y-73568571D01*
X122151428Y-73711428D01*
X122151428Y-73997142D01*
X122080000Y-74140000D01*
X121222857Y-73497142D02*
X121151428Y-73640000D01*
X121151428Y-73997142D01*
X121222857Y-74140000D01*
X121365714Y-74211428D01*
X121508571Y-74211428D01*
X121651428Y-74140000D01*
X121722857Y-73997142D01*
X121722857Y-73640000D01*
X121794285Y-73497142D01*
X121151428Y-72782857D02*
X122151428Y-72782857D01*
X121865714Y-72782857D02*
X122008571Y-72711428D01*
X122080000Y-72640000D01*
X122151428Y-72497142D01*
X122151428Y-72354285D01*
X121151428Y-71854285D02*
X122151428Y-71854285D01*
X121865714Y-71854285D02*
X122008571Y-71782857D01*
X122080000Y-71711428D01*
X122151428Y-71568571D01*
X122151428Y-71425714D01*
X121151428Y-70925714D02*
X122151428Y-70925714D01*
X122651428Y-70925714D02*
X122580000Y-70997142D01*
X122508571Y-70925714D01*
X122580000Y-70854285D01*
X122651428Y-70925714D01*
X122508571Y-70925714D01*
X121222857Y-69640000D02*
X121151428Y-69782857D01*
X121151428Y-70068571D01*
X121222857Y-70211428D01*
X121365714Y-70282857D01*
X121937142Y-70282857D01*
X122080000Y-70211428D01*
X122151428Y-70068571D01*
X122151428Y-69782857D01*
X122080000Y-69640000D01*
X121937142Y-69568571D01*
X121794285Y-69568571D01*
X121651428Y-70282857D01*
X121151428Y-68925714D02*
X122151428Y-68925714D01*
X121865714Y-68925714D02*
X122008571Y-68854285D01*
X122080000Y-68782857D01*
X122151428Y-68640000D01*
X122151428Y-68497142D01*
X121937142Y-66354285D02*
X121865714Y-66140000D01*
X121794285Y-66068571D01*
X121651428Y-65997142D01*
X121437142Y-65997142D01*
X121294285Y-66068571D01*
X121222857Y-66140000D01*
X121151428Y-66282857D01*
X121151428Y-66854285D01*
X122651428Y-66854285D01*
X122651428Y-66354285D01*
X122580000Y-66211428D01*
X122508571Y-66140000D01*
X122365714Y-66068571D01*
X122222857Y-66068571D01*
X122080000Y-66140000D01*
X122008571Y-66211428D01*
X121937142Y-66354285D01*
X121937142Y-66854285D01*
X121151428Y-65140000D02*
X121222857Y-65282857D01*
X121294285Y-65354285D01*
X121437142Y-65425714D01*
X121865714Y-65425714D01*
X122008571Y-65354285D01*
X122080000Y-65282857D01*
X122151428Y-65140000D01*
X122151428Y-64925714D01*
X122080000Y-64782857D01*
X122008571Y-64711428D01*
X121865714Y-64640000D01*
X121437142Y-64640000D01*
X121294285Y-64711428D01*
X121222857Y-64782857D01*
X121151428Y-64925714D01*
X121151428Y-65140000D01*
X121151428Y-63354285D02*
X121937142Y-63354285D01*
X122080000Y-63425714D01*
X122151428Y-63568571D01*
X122151428Y-63854285D01*
X122080000Y-63997142D01*
X121222857Y-63354285D02*
X121151428Y-63497142D01*
X121151428Y-63854285D01*
X121222857Y-63997142D01*
X121365714Y-64068571D01*
X121508571Y-64068571D01*
X121651428Y-63997142D01*
X121722857Y-63854285D01*
X121722857Y-63497142D01*
X121794285Y-63354285D01*
X121151428Y-62640000D02*
X122151428Y-62640000D01*
X121865714Y-62640000D02*
X122008571Y-62568571D01*
X122080000Y-62497142D01*
X122151428Y-62354285D01*
X122151428Y-62211428D01*
X121151428Y-61068571D02*
X122651428Y-61068571D01*
X121222857Y-61068571D02*
X121151428Y-61211428D01*
X121151428Y-61497142D01*
X121222857Y-61640000D01*
X121294285Y-61711428D01*
X121437142Y-61782857D01*
X121865714Y-61782857D01*
X122008571Y-61711428D01*
X122080000Y-61640000D01*
X122151428Y-61497142D01*
X122151428Y-61211428D01*
X122080000Y-61068571D01*
M02*
