G04 #@! TF.GenerationSoftware,KiCad,Pcbnew,(5.1.4)-1*
G04 #@! TF.CreationDate,2020-04-22T12:28:10-05:00*
G04 #@! TF.ProjectId,Boost,426f6f73-742e-46b6-9963-61645f706362,rev?*
G04 #@! TF.SameCoordinates,Original*
G04 #@! TF.FileFunction,Copper,L1,Top*
G04 #@! TF.FilePolarity,Positive*
%FSLAX46Y46*%
G04 Gerber Fmt 4.6, Leading zero omitted, Abs format (unit mm)*
G04 Created by KiCad (PCBNEW (5.1.4)-1) date 2020-04-22 12:28:10*
%MOMM*%
%LPD*%
G04 APERTURE LIST*
%ADD10R,1.260000X1.170000*%
%ADD11C,1.501000*%
%ADD12C,0.100000*%
%ADD13C,0.875000*%
%ADD14R,1.430000X0.600000*%
%ADD15C,1.250000*%
%ADD16R,0.863600X2.692400*%
%ADD17R,10.160000X8.940800*%
%ADD18C,1.800000*%
%ADD19O,1.700000X1.700000*%
%ADD20R,1.700000X1.700000*%
%ADD21C,6.350000*%
%ADD22C,0.800000*%
%ADD23C,0.250000*%
%ADD24C,0.500000*%
%ADD25C,0.254000*%
G04 APERTURE END LIST*
D10*
X143331200Y-108813600D03*
X146381200Y-108813600D03*
D11*
X121208800Y-95072200D03*
X118668800Y-95072200D03*
X116128800Y-95072200D03*
D12*
G36*
X109968291Y-92947253D02*
G01*
X109989526Y-92950403D01*
X110010350Y-92955619D01*
X110030562Y-92962851D01*
X110049968Y-92972030D01*
X110068381Y-92983066D01*
X110085624Y-92995854D01*
X110101530Y-93010270D01*
X110115946Y-93026176D01*
X110128734Y-93043419D01*
X110139770Y-93061832D01*
X110148949Y-93081238D01*
X110156181Y-93101450D01*
X110161397Y-93122274D01*
X110164547Y-93143509D01*
X110165600Y-93164950D01*
X110165600Y-93677450D01*
X110164547Y-93698891D01*
X110161397Y-93720126D01*
X110156181Y-93740950D01*
X110148949Y-93761162D01*
X110139770Y-93780568D01*
X110128734Y-93798981D01*
X110115946Y-93816224D01*
X110101530Y-93832130D01*
X110085624Y-93846546D01*
X110068381Y-93859334D01*
X110049968Y-93870370D01*
X110030562Y-93879549D01*
X110010350Y-93886781D01*
X109989526Y-93891997D01*
X109968291Y-93895147D01*
X109946850Y-93896200D01*
X109509350Y-93896200D01*
X109487909Y-93895147D01*
X109466674Y-93891997D01*
X109445850Y-93886781D01*
X109425638Y-93879549D01*
X109406232Y-93870370D01*
X109387819Y-93859334D01*
X109370576Y-93846546D01*
X109354670Y-93832130D01*
X109340254Y-93816224D01*
X109327466Y-93798981D01*
X109316430Y-93780568D01*
X109307251Y-93761162D01*
X109300019Y-93740950D01*
X109294803Y-93720126D01*
X109291653Y-93698891D01*
X109290600Y-93677450D01*
X109290600Y-93164950D01*
X109291653Y-93143509D01*
X109294803Y-93122274D01*
X109300019Y-93101450D01*
X109307251Y-93081238D01*
X109316430Y-93061832D01*
X109327466Y-93043419D01*
X109340254Y-93026176D01*
X109354670Y-93010270D01*
X109370576Y-92995854D01*
X109387819Y-92983066D01*
X109406232Y-92972030D01*
X109425638Y-92962851D01*
X109445850Y-92955619D01*
X109466674Y-92950403D01*
X109487909Y-92947253D01*
X109509350Y-92946200D01*
X109946850Y-92946200D01*
X109968291Y-92947253D01*
X109968291Y-92947253D01*
G37*
D13*
X109728100Y-93421200D03*
D12*
G36*
X108393291Y-92947253D02*
G01*
X108414526Y-92950403D01*
X108435350Y-92955619D01*
X108455562Y-92962851D01*
X108474968Y-92972030D01*
X108493381Y-92983066D01*
X108510624Y-92995854D01*
X108526530Y-93010270D01*
X108540946Y-93026176D01*
X108553734Y-93043419D01*
X108564770Y-93061832D01*
X108573949Y-93081238D01*
X108581181Y-93101450D01*
X108586397Y-93122274D01*
X108589547Y-93143509D01*
X108590600Y-93164950D01*
X108590600Y-93677450D01*
X108589547Y-93698891D01*
X108586397Y-93720126D01*
X108581181Y-93740950D01*
X108573949Y-93761162D01*
X108564770Y-93780568D01*
X108553734Y-93798981D01*
X108540946Y-93816224D01*
X108526530Y-93832130D01*
X108510624Y-93846546D01*
X108493381Y-93859334D01*
X108474968Y-93870370D01*
X108455562Y-93879549D01*
X108435350Y-93886781D01*
X108414526Y-93891997D01*
X108393291Y-93895147D01*
X108371850Y-93896200D01*
X107934350Y-93896200D01*
X107912909Y-93895147D01*
X107891674Y-93891997D01*
X107870850Y-93886781D01*
X107850638Y-93879549D01*
X107831232Y-93870370D01*
X107812819Y-93859334D01*
X107795576Y-93846546D01*
X107779670Y-93832130D01*
X107765254Y-93816224D01*
X107752466Y-93798981D01*
X107741430Y-93780568D01*
X107732251Y-93761162D01*
X107725019Y-93740950D01*
X107719803Y-93720126D01*
X107716653Y-93698891D01*
X107715600Y-93677450D01*
X107715600Y-93164950D01*
X107716653Y-93143509D01*
X107719803Y-93122274D01*
X107725019Y-93101450D01*
X107732251Y-93081238D01*
X107741430Y-93061832D01*
X107752466Y-93043419D01*
X107765254Y-93026176D01*
X107779670Y-93010270D01*
X107795576Y-92995854D01*
X107812819Y-92983066D01*
X107831232Y-92972030D01*
X107850638Y-92962851D01*
X107870850Y-92955619D01*
X107891674Y-92950403D01*
X107912909Y-92947253D01*
X107934350Y-92946200D01*
X108371850Y-92946200D01*
X108393291Y-92947253D01*
X108393291Y-92947253D01*
G37*
D13*
X108153100Y-93421200D03*
D14*
X108310800Y-77851000D03*
X110230800Y-76901000D03*
X110230800Y-78801000D03*
D12*
G36*
X114823504Y-85867204D02*
G01*
X114847773Y-85870804D01*
X114871571Y-85876765D01*
X114894671Y-85885030D01*
X114916849Y-85895520D01*
X114937893Y-85908133D01*
X114957598Y-85922747D01*
X114975777Y-85939223D01*
X114992253Y-85957402D01*
X115006867Y-85977107D01*
X115019480Y-85998151D01*
X115029970Y-86020329D01*
X115038235Y-86043429D01*
X115044196Y-86067227D01*
X115047796Y-86091496D01*
X115049000Y-86116000D01*
X115049000Y-87366000D01*
X115047796Y-87390504D01*
X115044196Y-87414773D01*
X115038235Y-87438571D01*
X115029970Y-87461671D01*
X115019480Y-87483849D01*
X115006867Y-87504893D01*
X114992253Y-87524598D01*
X114975777Y-87542777D01*
X114957598Y-87559253D01*
X114937893Y-87573867D01*
X114916849Y-87586480D01*
X114894671Y-87596970D01*
X114871571Y-87605235D01*
X114847773Y-87611196D01*
X114823504Y-87614796D01*
X114799000Y-87616000D01*
X114049000Y-87616000D01*
X114024496Y-87614796D01*
X114000227Y-87611196D01*
X113976429Y-87605235D01*
X113953329Y-87596970D01*
X113931151Y-87586480D01*
X113910107Y-87573867D01*
X113890402Y-87559253D01*
X113872223Y-87542777D01*
X113855747Y-87524598D01*
X113841133Y-87504893D01*
X113828520Y-87483849D01*
X113818030Y-87461671D01*
X113809765Y-87438571D01*
X113803804Y-87414773D01*
X113800204Y-87390504D01*
X113799000Y-87366000D01*
X113799000Y-86116000D01*
X113800204Y-86091496D01*
X113803804Y-86067227D01*
X113809765Y-86043429D01*
X113818030Y-86020329D01*
X113828520Y-85998151D01*
X113841133Y-85977107D01*
X113855747Y-85957402D01*
X113872223Y-85939223D01*
X113890402Y-85922747D01*
X113910107Y-85908133D01*
X113931151Y-85895520D01*
X113953329Y-85885030D01*
X113976429Y-85876765D01*
X114000227Y-85870804D01*
X114024496Y-85867204D01*
X114049000Y-85866000D01*
X114799000Y-85866000D01*
X114823504Y-85867204D01*
X114823504Y-85867204D01*
G37*
D15*
X114424000Y-86741000D03*
D12*
G36*
X117623504Y-85867204D02*
G01*
X117647773Y-85870804D01*
X117671571Y-85876765D01*
X117694671Y-85885030D01*
X117716849Y-85895520D01*
X117737893Y-85908133D01*
X117757598Y-85922747D01*
X117775777Y-85939223D01*
X117792253Y-85957402D01*
X117806867Y-85977107D01*
X117819480Y-85998151D01*
X117829970Y-86020329D01*
X117838235Y-86043429D01*
X117844196Y-86067227D01*
X117847796Y-86091496D01*
X117849000Y-86116000D01*
X117849000Y-87366000D01*
X117847796Y-87390504D01*
X117844196Y-87414773D01*
X117838235Y-87438571D01*
X117829970Y-87461671D01*
X117819480Y-87483849D01*
X117806867Y-87504893D01*
X117792253Y-87524598D01*
X117775777Y-87542777D01*
X117757598Y-87559253D01*
X117737893Y-87573867D01*
X117716849Y-87586480D01*
X117694671Y-87596970D01*
X117671571Y-87605235D01*
X117647773Y-87611196D01*
X117623504Y-87614796D01*
X117599000Y-87616000D01*
X116849000Y-87616000D01*
X116824496Y-87614796D01*
X116800227Y-87611196D01*
X116776429Y-87605235D01*
X116753329Y-87596970D01*
X116731151Y-87586480D01*
X116710107Y-87573867D01*
X116690402Y-87559253D01*
X116672223Y-87542777D01*
X116655747Y-87524598D01*
X116641133Y-87504893D01*
X116628520Y-87483849D01*
X116618030Y-87461671D01*
X116609765Y-87438571D01*
X116603804Y-87414773D01*
X116600204Y-87390504D01*
X116599000Y-87366000D01*
X116599000Y-86116000D01*
X116600204Y-86091496D01*
X116603804Y-86067227D01*
X116609765Y-86043429D01*
X116618030Y-86020329D01*
X116628520Y-85998151D01*
X116641133Y-85977107D01*
X116655747Y-85957402D01*
X116672223Y-85939223D01*
X116690402Y-85922747D01*
X116710107Y-85908133D01*
X116731151Y-85895520D01*
X116753329Y-85885030D01*
X116776429Y-85876765D01*
X116800227Y-85870804D01*
X116824496Y-85867204D01*
X116849000Y-85866000D01*
X117599000Y-85866000D01*
X117623504Y-85867204D01*
X117623504Y-85867204D01*
G37*
D15*
X117224000Y-86741000D03*
D16*
X127109000Y-94993999D03*
X128379000Y-94993999D03*
X129649000Y-94993999D03*
X130919000Y-94993999D03*
X132189000Y-94993999D03*
X133459000Y-94993999D03*
X134729000Y-94993999D03*
D17*
X130919000Y-85799199D03*
D12*
G36*
X143216691Y-102243653D02*
G01*
X143237926Y-102246803D01*
X143258750Y-102252019D01*
X143278962Y-102259251D01*
X143298368Y-102268430D01*
X143316781Y-102279466D01*
X143334024Y-102292254D01*
X143349930Y-102306670D01*
X143364346Y-102322576D01*
X143377134Y-102339819D01*
X143388170Y-102358232D01*
X143397349Y-102377638D01*
X143404581Y-102397850D01*
X143409797Y-102418674D01*
X143412947Y-102439909D01*
X143414000Y-102461350D01*
X143414000Y-102973850D01*
X143412947Y-102995291D01*
X143409797Y-103016526D01*
X143404581Y-103037350D01*
X143397349Y-103057562D01*
X143388170Y-103076968D01*
X143377134Y-103095381D01*
X143364346Y-103112624D01*
X143349930Y-103128530D01*
X143334024Y-103142946D01*
X143316781Y-103155734D01*
X143298368Y-103166770D01*
X143278962Y-103175949D01*
X143258750Y-103183181D01*
X143237926Y-103188397D01*
X143216691Y-103191547D01*
X143195250Y-103192600D01*
X142757750Y-103192600D01*
X142736309Y-103191547D01*
X142715074Y-103188397D01*
X142694250Y-103183181D01*
X142674038Y-103175949D01*
X142654632Y-103166770D01*
X142636219Y-103155734D01*
X142618976Y-103142946D01*
X142603070Y-103128530D01*
X142588654Y-103112624D01*
X142575866Y-103095381D01*
X142564830Y-103076968D01*
X142555651Y-103057562D01*
X142548419Y-103037350D01*
X142543203Y-103016526D01*
X142540053Y-102995291D01*
X142539000Y-102973850D01*
X142539000Y-102461350D01*
X142540053Y-102439909D01*
X142543203Y-102418674D01*
X142548419Y-102397850D01*
X142555651Y-102377638D01*
X142564830Y-102358232D01*
X142575866Y-102339819D01*
X142588654Y-102322576D01*
X142603070Y-102306670D01*
X142618976Y-102292254D01*
X142636219Y-102279466D01*
X142654632Y-102268430D01*
X142674038Y-102259251D01*
X142694250Y-102252019D01*
X142715074Y-102246803D01*
X142736309Y-102243653D01*
X142757750Y-102242600D01*
X143195250Y-102242600D01*
X143216691Y-102243653D01*
X143216691Y-102243653D01*
G37*
D13*
X142976500Y-102717600D03*
D12*
G36*
X144791691Y-102243653D02*
G01*
X144812926Y-102246803D01*
X144833750Y-102252019D01*
X144853962Y-102259251D01*
X144873368Y-102268430D01*
X144891781Y-102279466D01*
X144909024Y-102292254D01*
X144924930Y-102306670D01*
X144939346Y-102322576D01*
X144952134Y-102339819D01*
X144963170Y-102358232D01*
X144972349Y-102377638D01*
X144979581Y-102397850D01*
X144984797Y-102418674D01*
X144987947Y-102439909D01*
X144989000Y-102461350D01*
X144989000Y-102973850D01*
X144987947Y-102995291D01*
X144984797Y-103016526D01*
X144979581Y-103037350D01*
X144972349Y-103057562D01*
X144963170Y-103076968D01*
X144952134Y-103095381D01*
X144939346Y-103112624D01*
X144924930Y-103128530D01*
X144909024Y-103142946D01*
X144891781Y-103155734D01*
X144873368Y-103166770D01*
X144853962Y-103175949D01*
X144833750Y-103183181D01*
X144812926Y-103188397D01*
X144791691Y-103191547D01*
X144770250Y-103192600D01*
X144332750Y-103192600D01*
X144311309Y-103191547D01*
X144290074Y-103188397D01*
X144269250Y-103183181D01*
X144249038Y-103175949D01*
X144229632Y-103166770D01*
X144211219Y-103155734D01*
X144193976Y-103142946D01*
X144178070Y-103128530D01*
X144163654Y-103112624D01*
X144150866Y-103095381D01*
X144139830Y-103076968D01*
X144130651Y-103057562D01*
X144123419Y-103037350D01*
X144118203Y-103016526D01*
X144115053Y-102995291D01*
X144114000Y-102973850D01*
X144114000Y-102461350D01*
X144115053Y-102439909D01*
X144118203Y-102418674D01*
X144123419Y-102397850D01*
X144130651Y-102377638D01*
X144139830Y-102358232D01*
X144150866Y-102339819D01*
X144163654Y-102322576D01*
X144178070Y-102306670D01*
X144193976Y-102292254D01*
X144211219Y-102279466D01*
X144229632Y-102268430D01*
X144249038Y-102259251D01*
X144269250Y-102252019D01*
X144290074Y-102246803D01*
X144311309Y-102243653D01*
X144332750Y-102242600D01*
X144770250Y-102242600D01*
X144791691Y-102243653D01*
X144791691Y-102243653D01*
G37*
D13*
X144551500Y-102717600D03*
D12*
G36*
X155256291Y-102370653D02*
G01*
X155277526Y-102373803D01*
X155298350Y-102379019D01*
X155318562Y-102386251D01*
X155337968Y-102395430D01*
X155356381Y-102406466D01*
X155373624Y-102419254D01*
X155389530Y-102433670D01*
X155403946Y-102449576D01*
X155416734Y-102466819D01*
X155427770Y-102485232D01*
X155436949Y-102504638D01*
X155444181Y-102524850D01*
X155449397Y-102545674D01*
X155452547Y-102566909D01*
X155453600Y-102588350D01*
X155453600Y-103100850D01*
X155452547Y-103122291D01*
X155449397Y-103143526D01*
X155444181Y-103164350D01*
X155436949Y-103184562D01*
X155427770Y-103203968D01*
X155416734Y-103222381D01*
X155403946Y-103239624D01*
X155389530Y-103255530D01*
X155373624Y-103269946D01*
X155356381Y-103282734D01*
X155337968Y-103293770D01*
X155318562Y-103302949D01*
X155298350Y-103310181D01*
X155277526Y-103315397D01*
X155256291Y-103318547D01*
X155234850Y-103319600D01*
X154797350Y-103319600D01*
X154775909Y-103318547D01*
X154754674Y-103315397D01*
X154733850Y-103310181D01*
X154713638Y-103302949D01*
X154694232Y-103293770D01*
X154675819Y-103282734D01*
X154658576Y-103269946D01*
X154642670Y-103255530D01*
X154628254Y-103239624D01*
X154615466Y-103222381D01*
X154604430Y-103203968D01*
X154595251Y-103184562D01*
X154588019Y-103164350D01*
X154582803Y-103143526D01*
X154579653Y-103122291D01*
X154578600Y-103100850D01*
X154578600Y-102588350D01*
X154579653Y-102566909D01*
X154582803Y-102545674D01*
X154588019Y-102524850D01*
X154595251Y-102504638D01*
X154604430Y-102485232D01*
X154615466Y-102466819D01*
X154628254Y-102449576D01*
X154642670Y-102433670D01*
X154658576Y-102419254D01*
X154675819Y-102406466D01*
X154694232Y-102395430D01*
X154713638Y-102386251D01*
X154733850Y-102379019D01*
X154754674Y-102373803D01*
X154775909Y-102370653D01*
X154797350Y-102369600D01*
X155234850Y-102369600D01*
X155256291Y-102370653D01*
X155256291Y-102370653D01*
G37*
D13*
X155016100Y-102844600D03*
D12*
G36*
X156831291Y-102370653D02*
G01*
X156852526Y-102373803D01*
X156873350Y-102379019D01*
X156893562Y-102386251D01*
X156912968Y-102395430D01*
X156931381Y-102406466D01*
X156948624Y-102419254D01*
X156964530Y-102433670D01*
X156978946Y-102449576D01*
X156991734Y-102466819D01*
X157002770Y-102485232D01*
X157011949Y-102504638D01*
X157019181Y-102524850D01*
X157024397Y-102545674D01*
X157027547Y-102566909D01*
X157028600Y-102588350D01*
X157028600Y-103100850D01*
X157027547Y-103122291D01*
X157024397Y-103143526D01*
X157019181Y-103164350D01*
X157011949Y-103184562D01*
X157002770Y-103203968D01*
X156991734Y-103222381D01*
X156978946Y-103239624D01*
X156964530Y-103255530D01*
X156948624Y-103269946D01*
X156931381Y-103282734D01*
X156912968Y-103293770D01*
X156893562Y-103302949D01*
X156873350Y-103310181D01*
X156852526Y-103315397D01*
X156831291Y-103318547D01*
X156809850Y-103319600D01*
X156372350Y-103319600D01*
X156350909Y-103318547D01*
X156329674Y-103315397D01*
X156308850Y-103310181D01*
X156288638Y-103302949D01*
X156269232Y-103293770D01*
X156250819Y-103282734D01*
X156233576Y-103269946D01*
X156217670Y-103255530D01*
X156203254Y-103239624D01*
X156190466Y-103222381D01*
X156179430Y-103203968D01*
X156170251Y-103184562D01*
X156163019Y-103164350D01*
X156157803Y-103143526D01*
X156154653Y-103122291D01*
X156153600Y-103100850D01*
X156153600Y-102588350D01*
X156154653Y-102566909D01*
X156157803Y-102545674D01*
X156163019Y-102524850D01*
X156170251Y-102504638D01*
X156179430Y-102485232D01*
X156190466Y-102466819D01*
X156203254Y-102449576D01*
X156217670Y-102433670D01*
X156233576Y-102419254D01*
X156250819Y-102406466D01*
X156269232Y-102395430D01*
X156288638Y-102386251D01*
X156308850Y-102379019D01*
X156329674Y-102373803D01*
X156350909Y-102370653D01*
X156372350Y-102369600D01*
X156809850Y-102369600D01*
X156831291Y-102370653D01*
X156831291Y-102370653D01*
G37*
D13*
X156591100Y-102844600D03*
D12*
G36*
X120089491Y-102713053D02*
G01*
X120110726Y-102716203D01*
X120131550Y-102721419D01*
X120151762Y-102728651D01*
X120171168Y-102737830D01*
X120189581Y-102748866D01*
X120206824Y-102761654D01*
X120222730Y-102776070D01*
X120237146Y-102791976D01*
X120249934Y-102809219D01*
X120260970Y-102827632D01*
X120270149Y-102847038D01*
X120277381Y-102867250D01*
X120282597Y-102888074D01*
X120285747Y-102909309D01*
X120286800Y-102930750D01*
X120286800Y-103368250D01*
X120285747Y-103389691D01*
X120282597Y-103410926D01*
X120277381Y-103431750D01*
X120270149Y-103451962D01*
X120260970Y-103471368D01*
X120249934Y-103489781D01*
X120237146Y-103507024D01*
X120222730Y-103522930D01*
X120206824Y-103537346D01*
X120189581Y-103550134D01*
X120171168Y-103561170D01*
X120151762Y-103570349D01*
X120131550Y-103577581D01*
X120110726Y-103582797D01*
X120089491Y-103585947D01*
X120068050Y-103587000D01*
X119555550Y-103587000D01*
X119534109Y-103585947D01*
X119512874Y-103582797D01*
X119492050Y-103577581D01*
X119471838Y-103570349D01*
X119452432Y-103561170D01*
X119434019Y-103550134D01*
X119416776Y-103537346D01*
X119400870Y-103522930D01*
X119386454Y-103507024D01*
X119373666Y-103489781D01*
X119362630Y-103471368D01*
X119353451Y-103451962D01*
X119346219Y-103431750D01*
X119341003Y-103410926D01*
X119337853Y-103389691D01*
X119336800Y-103368250D01*
X119336800Y-102930750D01*
X119337853Y-102909309D01*
X119341003Y-102888074D01*
X119346219Y-102867250D01*
X119353451Y-102847038D01*
X119362630Y-102827632D01*
X119373666Y-102809219D01*
X119386454Y-102791976D01*
X119400870Y-102776070D01*
X119416776Y-102761654D01*
X119434019Y-102748866D01*
X119452432Y-102737830D01*
X119471838Y-102728651D01*
X119492050Y-102721419D01*
X119512874Y-102716203D01*
X119534109Y-102713053D01*
X119555550Y-102712000D01*
X120068050Y-102712000D01*
X120089491Y-102713053D01*
X120089491Y-102713053D01*
G37*
D13*
X119811800Y-103149500D03*
D12*
G36*
X120089491Y-101138053D02*
G01*
X120110726Y-101141203D01*
X120131550Y-101146419D01*
X120151762Y-101153651D01*
X120171168Y-101162830D01*
X120189581Y-101173866D01*
X120206824Y-101186654D01*
X120222730Y-101201070D01*
X120237146Y-101216976D01*
X120249934Y-101234219D01*
X120260970Y-101252632D01*
X120270149Y-101272038D01*
X120277381Y-101292250D01*
X120282597Y-101313074D01*
X120285747Y-101334309D01*
X120286800Y-101355750D01*
X120286800Y-101793250D01*
X120285747Y-101814691D01*
X120282597Y-101835926D01*
X120277381Y-101856750D01*
X120270149Y-101876962D01*
X120260970Y-101896368D01*
X120249934Y-101914781D01*
X120237146Y-101932024D01*
X120222730Y-101947930D01*
X120206824Y-101962346D01*
X120189581Y-101975134D01*
X120171168Y-101986170D01*
X120151762Y-101995349D01*
X120131550Y-102002581D01*
X120110726Y-102007797D01*
X120089491Y-102010947D01*
X120068050Y-102012000D01*
X119555550Y-102012000D01*
X119534109Y-102010947D01*
X119512874Y-102007797D01*
X119492050Y-102002581D01*
X119471838Y-101995349D01*
X119452432Y-101986170D01*
X119434019Y-101975134D01*
X119416776Y-101962346D01*
X119400870Y-101947930D01*
X119386454Y-101932024D01*
X119373666Y-101914781D01*
X119362630Y-101896368D01*
X119353451Y-101876962D01*
X119346219Y-101856750D01*
X119341003Y-101835926D01*
X119337853Y-101814691D01*
X119336800Y-101793250D01*
X119336800Y-101355750D01*
X119337853Y-101334309D01*
X119341003Y-101313074D01*
X119346219Y-101292250D01*
X119353451Y-101272038D01*
X119362630Y-101252632D01*
X119373666Y-101234219D01*
X119386454Y-101216976D01*
X119400870Y-101201070D01*
X119416776Y-101186654D01*
X119434019Y-101173866D01*
X119452432Y-101162830D01*
X119471838Y-101153651D01*
X119492050Y-101146419D01*
X119512874Y-101141203D01*
X119534109Y-101138053D01*
X119555550Y-101137000D01*
X120068050Y-101137000D01*
X120089491Y-101138053D01*
X120089491Y-101138053D01*
G37*
D13*
X119811800Y-101574500D03*
D12*
G36*
X136083108Y-106824567D02*
G01*
X136126791Y-106831047D01*
X136169628Y-106841777D01*
X136211208Y-106856654D01*
X136251129Y-106875535D01*
X136289007Y-106898239D01*
X136324477Y-106924545D01*
X136357198Y-106954202D01*
X136386855Y-106986923D01*
X136413161Y-107022393D01*
X136435865Y-107060271D01*
X136454746Y-107100192D01*
X136469623Y-107141772D01*
X136480353Y-107184609D01*
X136486833Y-107228292D01*
X136489000Y-107272400D01*
X136489000Y-108172400D01*
X136486833Y-108216508D01*
X136480353Y-108260191D01*
X136469623Y-108303028D01*
X136454746Y-108344608D01*
X136435865Y-108384529D01*
X136413161Y-108422407D01*
X136386855Y-108457877D01*
X136357198Y-108490598D01*
X136324477Y-108520255D01*
X136289007Y-108546561D01*
X136251129Y-108569265D01*
X136211208Y-108588146D01*
X136169628Y-108603023D01*
X136126791Y-108613753D01*
X136083108Y-108620233D01*
X136039000Y-108622400D01*
X132439000Y-108622400D01*
X132394892Y-108620233D01*
X132351209Y-108613753D01*
X132308372Y-108603023D01*
X132266792Y-108588146D01*
X132226871Y-108569265D01*
X132188993Y-108546561D01*
X132153523Y-108520255D01*
X132120802Y-108490598D01*
X132091145Y-108457877D01*
X132064839Y-108422407D01*
X132042135Y-108384529D01*
X132023254Y-108344608D01*
X132008377Y-108303028D01*
X131997647Y-108260191D01*
X131991167Y-108216508D01*
X131989000Y-108172400D01*
X131989000Y-107272400D01*
X131991167Y-107228292D01*
X131997647Y-107184609D01*
X132008377Y-107141772D01*
X132023254Y-107100192D01*
X132042135Y-107060271D01*
X132064839Y-107022393D01*
X132091145Y-106986923D01*
X132120802Y-106954202D01*
X132153523Y-106924545D01*
X132188993Y-106898239D01*
X132226871Y-106875535D01*
X132266792Y-106856654D01*
X132308372Y-106841777D01*
X132351209Y-106831047D01*
X132394892Y-106824567D01*
X132439000Y-106822400D01*
X136039000Y-106822400D01*
X136083108Y-106824567D01*
X136083108Y-106824567D01*
G37*
D18*
X134239000Y-107722400D03*
D12*
G36*
X136083108Y-110124567D02*
G01*
X136126791Y-110131047D01*
X136169628Y-110141777D01*
X136211208Y-110156654D01*
X136251129Y-110175535D01*
X136289007Y-110198239D01*
X136324477Y-110224545D01*
X136357198Y-110254202D01*
X136386855Y-110286923D01*
X136413161Y-110322393D01*
X136435865Y-110360271D01*
X136454746Y-110400192D01*
X136469623Y-110441772D01*
X136480353Y-110484609D01*
X136486833Y-110528292D01*
X136489000Y-110572400D01*
X136489000Y-111472400D01*
X136486833Y-111516508D01*
X136480353Y-111560191D01*
X136469623Y-111603028D01*
X136454746Y-111644608D01*
X136435865Y-111684529D01*
X136413161Y-111722407D01*
X136386855Y-111757877D01*
X136357198Y-111790598D01*
X136324477Y-111820255D01*
X136289007Y-111846561D01*
X136251129Y-111869265D01*
X136211208Y-111888146D01*
X136169628Y-111903023D01*
X136126791Y-111913753D01*
X136083108Y-111920233D01*
X136039000Y-111922400D01*
X132439000Y-111922400D01*
X132394892Y-111920233D01*
X132351209Y-111913753D01*
X132308372Y-111903023D01*
X132266792Y-111888146D01*
X132226871Y-111869265D01*
X132188993Y-111846561D01*
X132153523Y-111820255D01*
X132120802Y-111790598D01*
X132091145Y-111757877D01*
X132064839Y-111722407D01*
X132042135Y-111684529D01*
X132023254Y-111644608D01*
X132008377Y-111603028D01*
X131997647Y-111560191D01*
X131991167Y-111516508D01*
X131989000Y-111472400D01*
X131989000Y-110572400D01*
X131991167Y-110528292D01*
X131997647Y-110484609D01*
X132008377Y-110441772D01*
X132023254Y-110400192D01*
X132042135Y-110360271D01*
X132064839Y-110322393D01*
X132091145Y-110286923D01*
X132120802Y-110254202D01*
X132153523Y-110224545D01*
X132188993Y-110198239D01*
X132226871Y-110175535D01*
X132266792Y-110156654D01*
X132308372Y-110141777D01*
X132351209Y-110131047D01*
X132394892Y-110124567D01*
X132439000Y-110122400D01*
X136039000Y-110122400D01*
X136083108Y-110124567D01*
X136083108Y-110124567D01*
G37*
D18*
X134239000Y-111022400D03*
D12*
G36*
X148789304Y-89626404D02*
G01*
X148813573Y-89630004D01*
X148837371Y-89635965D01*
X148860471Y-89644230D01*
X148882649Y-89654720D01*
X148903693Y-89667333D01*
X148923398Y-89681947D01*
X148941577Y-89698423D01*
X148958053Y-89716602D01*
X148972667Y-89736307D01*
X148985280Y-89757351D01*
X148995770Y-89779529D01*
X149004035Y-89802629D01*
X149009996Y-89826427D01*
X149013596Y-89850696D01*
X149014800Y-89875200D01*
X149014800Y-91125200D01*
X149013596Y-91149704D01*
X149009996Y-91173973D01*
X149004035Y-91197771D01*
X148995770Y-91220871D01*
X148985280Y-91243049D01*
X148972667Y-91264093D01*
X148958053Y-91283798D01*
X148941577Y-91301977D01*
X148923398Y-91318453D01*
X148903693Y-91333067D01*
X148882649Y-91345680D01*
X148860471Y-91356170D01*
X148837371Y-91364435D01*
X148813573Y-91370396D01*
X148789304Y-91373996D01*
X148764800Y-91375200D01*
X148014800Y-91375200D01*
X147990296Y-91373996D01*
X147966027Y-91370396D01*
X147942229Y-91364435D01*
X147919129Y-91356170D01*
X147896951Y-91345680D01*
X147875907Y-91333067D01*
X147856202Y-91318453D01*
X147838023Y-91301977D01*
X147821547Y-91283798D01*
X147806933Y-91264093D01*
X147794320Y-91243049D01*
X147783830Y-91220871D01*
X147775565Y-91197771D01*
X147769604Y-91173973D01*
X147766004Y-91149704D01*
X147764800Y-91125200D01*
X147764800Y-89875200D01*
X147766004Y-89850696D01*
X147769604Y-89826427D01*
X147775565Y-89802629D01*
X147783830Y-89779529D01*
X147794320Y-89757351D01*
X147806933Y-89736307D01*
X147821547Y-89716602D01*
X147838023Y-89698423D01*
X147856202Y-89681947D01*
X147875907Y-89667333D01*
X147896951Y-89654720D01*
X147919129Y-89644230D01*
X147942229Y-89635965D01*
X147966027Y-89630004D01*
X147990296Y-89626404D01*
X148014800Y-89625200D01*
X148764800Y-89625200D01*
X148789304Y-89626404D01*
X148789304Y-89626404D01*
G37*
D15*
X148389800Y-90500200D03*
D12*
G36*
X145989304Y-89626404D02*
G01*
X146013573Y-89630004D01*
X146037371Y-89635965D01*
X146060471Y-89644230D01*
X146082649Y-89654720D01*
X146103693Y-89667333D01*
X146123398Y-89681947D01*
X146141577Y-89698423D01*
X146158053Y-89716602D01*
X146172667Y-89736307D01*
X146185280Y-89757351D01*
X146195770Y-89779529D01*
X146204035Y-89802629D01*
X146209996Y-89826427D01*
X146213596Y-89850696D01*
X146214800Y-89875200D01*
X146214800Y-91125200D01*
X146213596Y-91149704D01*
X146209996Y-91173973D01*
X146204035Y-91197771D01*
X146195770Y-91220871D01*
X146185280Y-91243049D01*
X146172667Y-91264093D01*
X146158053Y-91283798D01*
X146141577Y-91301977D01*
X146123398Y-91318453D01*
X146103693Y-91333067D01*
X146082649Y-91345680D01*
X146060471Y-91356170D01*
X146037371Y-91364435D01*
X146013573Y-91370396D01*
X145989304Y-91373996D01*
X145964800Y-91375200D01*
X145214800Y-91375200D01*
X145190296Y-91373996D01*
X145166027Y-91370396D01*
X145142229Y-91364435D01*
X145119129Y-91356170D01*
X145096951Y-91345680D01*
X145075907Y-91333067D01*
X145056202Y-91318453D01*
X145038023Y-91301977D01*
X145021547Y-91283798D01*
X145006933Y-91264093D01*
X144994320Y-91243049D01*
X144983830Y-91220871D01*
X144975565Y-91197771D01*
X144969604Y-91173973D01*
X144966004Y-91149704D01*
X144964800Y-91125200D01*
X144964800Y-89875200D01*
X144966004Y-89850696D01*
X144969604Y-89826427D01*
X144975565Y-89802629D01*
X144983830Y-89779529D01*
X144994320Y-89757351D01*
X145006933Y-89736307D01*
X145021547Y-89716602D01*
X145038023Y-89698423D01*
X145056202Y-89681947D01*
X145075907Y-89667333D01*
X145096951Y-89654720D01*
X145119129Y-89644230D01*
X145142229Y-89635965D01*
X145166027Y-89630004D01*
X145190296Y-89626404D01*
X145214800Y-89625200D01*
X145964800Y-89625200D01*
X145989304Y-89626404D01*
X145989304Y-89626404D01*
G37*
D15*
X145589800Y-90500200D03*
D12*
G36*
X123389304Y-109997204D02*
G01*
X123413573Y-110000804D01*
X123437371Y-110006765D01*
X123460471Y-110015030D01*
X123482649Y-110025520D01*
X123503693Y-110038133D01*
X123523398Y-110052747D01*
X123541577Y-110069223D01*
X123558053Y-110087402D01*
X123572667Y-110107107D01*
X123585280Y-110128151D01*
X123595770Y-110150329D01*
X123604035Y-110173429D01*
X123609996Y-110197227D01*
X123613596Y-110221496D01*
X123614800Y-110246000D01*
X123614800Y-111496000D01*
X123613596Y-111520504D01*
X123609996Y-111544773D01*
X123604035Y-111568571D01*
X123595770Y-111591671D01*
X123585280Y-111613849D01*
X123572667Y-111634893D01*
X123558053Y-111654598D01*
X123541577Y-111672777D01*
X123523398Y-111689253D01*
X123503693Y-111703867D01*
X123482649Y-111716480D01*
X123460471Y-111726970D01*
X123437371Y-111735235D01*
X123413573Y-111741196D01*
X123389304Y-111744796D01*
X123364800Y-111746000D01*
X122614800Y-111746000D01*
X122590296Y-111744796D01*
X122566027Y-111741196D01*
X122542229Y-111735235D01*
X122519129Y-111726970D01*
X122496951Y-111716480D01*
X122475907Y-111703867D01*
X122456202Y-111689253D01*
X122438023Y-111672777D01*
X122421547Y-111654598D01*
X122406933Y-111634893D01*
X122394320Y-111613849D01*
X122383830Y-111591671D01*
X122375565Y-111568571D01*
X122369604Y-111544773D01*
X122366004Y-111520504D01*
X122364800Y-111496000D01*
X122364800Y-110246000D01*
X122366004Y-110221496D01*
X122369604Y-110197227D01*
X122375565Y-110173429D01*
X122383830Y-110150329D01*
X122394320Y-110128151D01*
X122406933Y-110107107D01*
X122421547Y-110087402D01*
X122438023Y-110069223D01*
X122456202Y-110052747D01*
X122475907Y-110038133D01*
X122496951Y-110025520D01*
X122519129Y-110015030D01*
X122542229Y-110006765D01*
X122566027Y-110000804D01*
X122590296Y-109997204D01*
X122614800Y-109996000D01*
X123364800Y-109996000D01*
X123389304Y-109997204D01*
X123389304Y-109997204D01*
G37*
D15*
X122989800Y-110871000D03*
D12*
G36*
X120589304Y-109997204D02*
G01*
X120613573Y-110000804D01*
X120637371Y-110006765D01*
X120660471Y-110015030D01*
X120682649Y-110025520D01*
X120703693Y-110038133D01*
X120723398Y-110052747D01*
X120741577Y-110069223D01*
X120758053Y-110087402D01*
X120772667Y-110107107D01*
X120785280Y-110128151D01*
X120795770Y-110150329D01*
X120804035Y-110173429D01*
X120809996Y-110197227D01*
X120813596Y-110221496D01*
X120814800Y-110246000D01*
X120814800Y-111496000D01*
X120813596Y-111520504D01*
X120809996Y-111544773D01*
X120804035Y-111568571D01*
X120795770Y-111591671D01*
X120785280Y-111613849D01*
X120772667Y-111634893D01*
X120758053Y-111654598D01*
X120741577Y-111672777D01*
X120723398Y-111689253D01*
X120703693Y-111703867D01*
X120682649Y-111716480D01*
X120660471Y-111726970D01*
X120637371Y-111735235D01*
X120613573Y-111741196D01*
X120589304Y-111744796D01*
X120564800Y-111746000D01*
X119814800Y-111746000D01*
X119790296Y-111744796D01*
X119766027Y-111741196D01*
X119742229Y-111735235D01*
X119719129Y-111726970D01*
X119696951Y-111716480D01*
X119675907Y-111703867D01*
X119656202Y-111689253D01*
X119638023Y-111672777D01*
X119621547Y-111654598D01*
X119606933Y-111634893D01*
X119594320Y-111613849D01*
X119583830Y-111591671D01*
X119575565Y-111568571D01*
X119569604Y-111544773D01*
X119566004Y-111520504D01*
X119564800Y-111496000D01*
X119564800Y-110246000D01*
X119566004Y-110221496D01*
X119569604Y-110197227D01*
X119575565Y-110173429D01*
X119583830Y-110150329D01*
X119594320Y-110128151D01*
X119606933Y-110107107D01*
X119621547Y-110087402D01*
X119638023Y-110069223D01*
X119656202Y-110052747D01*
X119675907Y-110038133D01*
X119696951Y-110025520D01*
X119719129Y-110015030D01*
X119742229Y-110006765D01*
X119766027Y-110000804D01*
X119790296Y-109997204D01*
X119814800Y-109996000D01*
X120564800Y-109996000D01*
X120589304Y-109997204D01*
X120589304Y-109997204D01*
G37*
D15*
X120189800Y-110871000D03*
D12*
G36*
X129383704Y-101640604D02*
G01*
X129407973Y-101644204D01*
X129431771Y-101650165D01*
X129454871Y-101658430D01*
X129477049Y-101668920D01*
X129498093Y-101681533D01*
X129517798Y-101696147D01*
X129535977Y-101712623D01*
X129552453Y-101730802D01*
X129567067Y-101750507D01*
X129579680Y-101771551D01*
X129590170Y-101793729D01*
X129598435Y-101816829D01*
X129604396Y-101840627D01*
X129607996Y-101864896D01*
X129609200Y-101889400D01*
X129609200Y-103139400D01*
X129607996Y-103163904D01*
X129604396Y-103188173D01*
X129598435Y-103211971D01*
X129590170Y-103235071D01*
X129579680Y-103257249D01*
X129567067Y-103278293D01*
X129552453Y-103297998D01*
X129535977Y-103316177D01*
X129517798Y-103332653D01*
X129498093Y-103347267D01*
X129477049Y-103359880D01*
X129454871Y-103370370D01*
X129431771Y-103378635D01*
X129407973Y-103384596D01*
X129383704Y-103388196D01*
X129359200Y-103389400D01*
X128609200Y-103389400D01*
X128584696Y-103388196D01*
X128560427Y-103384596D01*
X128536629Y-103378635D01*
X128513529Y-103370370D01*
X128491351Y-103359880D01*
X128470307Y-103347267D01*
X128450602Y-103332653D01*
X128432423Y-103316177D01*
X128415947Y-103297998D01*
X128401333Y-103278293D01*
X128388720Y-103257249D01*
X128378230Y-103235071D01*
X128369965Y-103211971D01*
X128364004Y-103188173D01*
X128360404Y-103163904D01*
X128359200Y-103139400D01*
X128359200Y-101889400D01*
X128360404Y-101864896D01*
X128364004Y-101840627D01*
X128369965Y-101816829D01*
X128378230Y-101793729D01*
X128388720Y-101771551D01*
X128401333Y-101750507D01*
X128415947Y-101730802D01*
X128432423Y-101712623D01*
X128450602Y-101696147D01*
X128470307Y-101681533D01*
X128491351Y-101668920D01*
X128513529Y-101658430D01*
X128536629Y-101650165D01*
X128560427Y-101644204D01*
X128584696Y-101640604D01*
X128609200Y-101639400D01*
X129359200Y-101639400D01*
X129383704Y-101640604D01*
X129383704Y-101640604D01*
G37*
D15*
X128984200Y-102514400D03*
D12*
G36*
X126583704Y-101640604D02*
G01*
X126607973Y-101644204D01*
X126631771Y-101650165D01*
X126654871Y-101658430D01*
X126677049Y-101668920D01*
X126698093Y-101681533D01*
X126717798Y-101696147D01*
X126735977Y-101712623D01*
X126752453Y-101730802D01*
X126767067Y-101750507D01*
X126779680Y-101771551D01*
X126790170Y-101793729D01*
X126798435Y-101816829D01*
X126804396Y-101840627D01*
X126807996Y-101864896D01*
X126809200Y-101889400D01*
X126809200Y-103139400D01*
X126807996Y-103163904D01*
X126804396Y-103188173D01*
X126798435Y-103211971D01*
X126790170Y-103235071D01*
X126779680Y-103257249D01*
X126767067Y-103278293D01*
X126752453Y-103297998D01*
X126735977Y-103316177D01*
X126717798Y-103332653D01*
X126698093Y-103347267D01*
X126677049Y-103359880D01*
X126654871Y-103370370D01*
X126631771Y-103378635D01*
X126607973Y-103384596D01*
X126583704Y-103388196D01*
X126559200Y-103389400D01*
X125809200Y-103389400D01*
X125784696Y-103388196D01*
X125760427Y-103384596D01*
X125736629Y-103378635D01*
X125713529Y-103370370D01*
X125691351Y-103359880D01*
X125670307Y-103347267D01*
X125650602Y-103332653D01*
X125632423Y-103316177D01*
X125615947Y-103297998D01*
X125601333Y-103278293D01*
X125588720Y-103257249D01*
X125578230Y-103235071D01*
X125569965Y-103211971D01*
X125564004Y-103188173D01*
X125560404Y-103163904D01*
X125559200Y-103139400D01*
X125559200Y-101889400D01*
X125560404Y-101864896D01*
X125564004Y-101840627D01*
X125569965Y-101816829D01*
X125578230Y-101793729D01*
X125588720Y-101771551D01*
X125601333Y-101750507D01*
X125615947Y-101730802D01*
X125632423Y-101712623D01*
X125650602Y-101696147D01*
X125670307Y-101681533D01*
X125691351Y-101668920D01*
X125713529Y-101658430D01*
X125736629Y-101650165D01*
X125760427Y-101644204D01*
X125784696Y-101640604D01*
X125809200Y-101639400D01*
X126559200Y-101639400D01*
X126583704Y-101640604D01*
X126583704Y-101640604D01*
G37*
D15*
X126184200Y-102514400D03*
D19*
X173489081Y-54864935D03*
X173489081Y-57404935D03*
X170949081Y-54864935D03*
X170949081Y-57404935D03*
X168409081Y-54864935D03*
X168409081Y-57404935D03*
X165869081Y-54864935D03*
X165869081Y-57404935D03*
X163329081Y-54864935D03*
X163329081Y-57404935D03*
X160789081Y-54864935D03*
X160789081Y-57404935D03*
X158249081Y-54864935D03*
X158249081Y-57404935D03*
X155709081Y-54864935D03*
X155709081Y-57404935D03*
X153169081Y-54864935D03*
X153169081Y-57404935D03*
X150629081Y-54864935D03*
X150629081Y-57404935D03*
X148089081Y-54864935D03*
X148089081Y-57404935D03*
X145549081Y-54864935D03*
X145549081Y-57404935D03*
X143009081Y-54864935D03*
X143009081Y-57404935D03*
X140469081Y-54864935D03*
X140469081Y-57404935D03*
X137929081Y-54864935D03*
X137929081Y-57404935D03*
X135389081Y-54864935D03*
X135389081Y-57404935D03*
X132849081Y-54864935D03*
X132849081Y-57404935D03*
X130309081Y-54864935D03*
X130309081Y-57404935D03*
X127769081Y-54864935D03*
X127769081Y-57404935D03*
X125229081Y-54864935D03*
X125229081Y-57404935D03*
X122689081Y-54864935D03*
X122689081Y-57404935D03*
X120149081Y-54864935D03*
X120149081Y-57404935D03*
X117609081Y-54864935D03*
X117609081Y-57404935D03*
X115069081Y-54864935D03*
X115069081Y-57404935D03*
X112529081Y-54864935D03*
X112529081Y-57404935D03*
X109989081Y-54864935D03*
D20*
X109989081Y-57404935D03*
D19*
X173489081Y-59944935D03*
X173489081Y-62484935D03*
X170949081Y-59944935D03*
X170949081Y-62484935D03*
X168409081Y-59944935D03*
X168409081Y-62484935D03*
X165869081Y-59944935D03*
X165869081Y-62484935D03*
X163329081Y-59944935D03*
X163329081Y-62484935D03*
X160789081Y-59944935D03*
X160789081Y-62484935D03*
X158249081Y-59944935D03*
X158249081Y-62484935D03*
X155709081Y-59944935D03*
X155709081Y-62484935D03*
X153169081Y-59944935D03*
X153169081Y-62484935D03*
X150629081Y-59944935D03*
X150629081Y-62484935D03*
X148089081Y-59944935D03*
X148089081Y-62484935D03*
X145549081Y-59944935D03*
X145549081Y-62484935D03*
X143009081Y-59944935D03*
X143009081Y-62484935D03*
X140469081Y-59944935D03*
X140469081Y-62484935D03*
X137929081Y-59944935D03*
X137929081Y-62484935D03*
X135389081Y-59944935D03*
X135389081Y-62484935D03*
X132849081Y-59944935D03*
X132849081Y-62484935D03*
X130309081Y-59944935D03*
X130309081Y-62484935D03*
X127769081Y-59944935D03*
X127769081Y-62484935D03*
X125229081Y-59944935D03*
X125229081Y-62484935D03*
X122689081Y-59944935D03*
X122689081Y-62484935D03*
X120149081Y-59944935D03*
X120149081Y-62484935D03*
X117609081Y-59944935D03*
X117609081Y-62484935D03*
X115069081Y-59944935D03*
X115069081Y-62484935D03*
X112529081Y-59944935D03*
X112529081Y-62484935D03*
X109989081Y-59944935D03*
D20*
X109989081Y-62484935D03*
D21*
X181102000Y-140589000D03*
X104902000Y-54864000D03*
X178562000Y-54864000D03*
X101092000Y-140589000D03*
D22*
X128397000Y-78308200D03*
X122682000Y-114046000D03*
X159105600Y-102362000D03*
X151612600Y-90500200D03*
X128676400Y-105511600D03*
X131013200Y-97790000D03*
X104470200Y-77749400D03*
X139801600Y-65709800D03*
X131927600Y-101879400D03*
X132181600Y-98450400D03*
D23*
X125549100Y-103149500D02*
X126184200Y-102514400D01*
X119811800Y-103149500D02*
X125549100Y-103149500D01*
X130919000Y-85799199D02*
X130919000Y-80830200D01*
X130919000Y-80830200D02*
X128397000Y-78308200D01*
X122989800Y-110871000D02*
X122989800Y-113738200D01*
X122989800Y-113738200D02*
X122682000Y-114046000D01*
X156591100Y-102844600D02*
X158623000Y-102844600D01*
X158623000Y-102844600D02*
X159105600Y-102362000D01*
X148389800Y-90500200D02*
X151612600Y-90500200D01*
X128984200Y-102514400D02*
X128984200Y-105203800D01*
X128984200Y-105203800D02*
X128676400Y-105511600D01*
X130919000Y-94993999D02*
X130919000Y-97695800D01*
X130919000Y-97695800D02*
X131013200Y-97790000D01*
X108310800Y-77851000D02*
X104571800Y-77851000D01*
X104571800Y-77851000D02*
X104470200Y-77749400D01*
X141523218Y-65709800D02*
X139801600Y-65709800D01*
X144184082Y-63048936D02*
X141523218Y-65709800D01*
X145549081Y-54864935D02*
X144184082Y-56229934D01*
X144184082Y-56229934D02*
X144184082Y-63048936D01*
D24*
X140469081Y-54864935D02*
X140469081Y-57404935D01*
D23*
X136564082Y-59396918D02*
X136564082Y-64832518D01*
X137191066Y-58769934D02*
X136564082Y-59396918D01*
X138303084Y-58769934D02*
X137191066Y-58769934D01*
X140469081Y-57404935D02*
X139668083Y-57404935D01*
X139668083Y-57404935D02*
X138303084Y-58769934D01*
X119811800Y-101037000D02*
X122093600Y-98755200D01*
X119811800Y-101574500D02*
X119811800Y-101037000D01*
X122093600Y-98755200D02*
X127685800Y-98755200D01*
X128379000Y-98062000D02*
X128379000Y-94993999D01*
X127685800Y-98755200D02*
X128379000Y-98062000D01*
D24*
X165869081Y-54864935D02*
X165869081Y-57404935D01*
D23*
X161964082Y-62110932D02*
X161964082Y-64857918D01*
X162765080Y-61309934D02*
X161964082Y-62110932D01*
X163703084Y-61309934D02*
X162765080Y-61309934D01*
X164504082Y-60508936D02*
X163703084Y-61309934D01*
X165869081Y-57404935D02*
X164504082Y-58769934D01*
X164504082Y-58769934D02*
X164504082Y-60508936D01*
X134239000Y-107722400D02*
X134239000Y-104190800D01*
X134239000Y-104190800D02*
X131927600Y-101879400D01*
X132181600Y-95001399D02*
X132189000Y-94993999D01*
X132181600Y-98450400D02*
X132181600Y-95001399D01*
X134239000Y-107722400D02*
X140742400Y-107722400D01*
X141833600Y-108813600D02*
X143331200Y-108813600D01*
X140742400Y-107722400D02*
X141833600Y-108813600D01*
X110230800Y-62726654D02*
X109989081Y-62484935D01*
X142976500Y-102717600D02*
X134721600Y-102717600D01*
X129649000Y-97645000D02*
X129649000Y-94993999D01*
X134721600Y-102717600D02*
X129649000Y-97645000D01*
X142976500Y-99847300D02*
X142976500Y-102717600D01*
X143103400Y-99720400D02*
X142976500Y-99847300D01*
X155016100Y-102844600D02*
X151891900Y-99720400D01*
X151891900Y-99720400D02*
X143103400Y-99720400D01*
X114424000Y-88725300D02*
X114424000Y-86741000D01*
X109728100Y-93421200D02*
X114424000Y-88725300D01*
X110645800Y-78801000D02*
X110230800Y-78801000D01*
X114424000Y-82579200D02*
X110645800Y-78801000D01*
X114424000Y-86741000D02*
X114424000Y-82579200D01*
X117224000Y-93977000D02*
X116128800Y-95072200D01*
X117224000Y-86741000D02*
X117224000Y-93977000D01*
X111679082Y-58254934D02*
X112529081Y-57404935D01*
X111354080Y-58579936D02*
X111679082Y-58254934D01*
X111354080Y-63404938D02*
X111354080Y-58579936D01*
X110230800Y-64528218D02*
X111354080Y-63404938D01*
X110230800Y-76901000D02*
X110230800Y-64528218D01*
X127030799Y-95072200D02*
X127109000Y-94993999D01*
X121208800Y-95072200D02*
X127030799Y-95072200D01*
D25*
G36*
X131370001Y-52670113D02*
G01*
X131366565Y-52705000D01*
X131380273Y-52844184D01*
X131420872Y-52978020D01*
X131486800Y-53101363D01*
X131575525Y-53209475D01*
X131683637Y-53298200D01*
X131806980Y-53364128D01*
X131940816Y-53404727D01*
X132045123Y-53415000D01*
X132080000Y-53418435D01*
X132114877Y-53415000D01*
X132513209Y-53415000D01*
X132278047Y-53486336D01*
X132020067Y-53624229D01*
X131793947Y-53809801D01*
X131608375Y-54035921D01*
X131579081Y-54090726D01*
X131549787Y-54035921D01*
X131364215Y-53809801D01*
X131138095Y-53624229D01*
X130880115Y-53486336D01*
X130600192Y-53401422D01*
X130382031Y-53379935D01*
X130236131Y-53379935D01*
X130017970Y-53401422D01*
X129738047Y-53486336D01*
X129480067Y-53624229D01*
X129253947Y-53809801D01*
X129068375Y-54035921D01*
X129039081Y-54090726D01*
X129009787Y-54035921D01*
X128824215Y-53809801D01*
X128598095Y-53624229D01*
X128340115Y-53486336D01*
X128060192Y-53401422D01*
X127842031Y-53379935D01*
X127696131Y-53379935D01*
X127477970Y-53401422D01*
X127198047Y-53486336D01*
X126940067Y-53624229D01*
X126713947Y-53809801D01*
X126528375Y-54035921D01*
X126499081Y-54090726D01*
X126469787Y-54035921D01*
X126284215Y-53809801D01*
X126058095Y-53624229D01*
X125800115Y-53486336D01*
X125520192Y-53401422D01*
X125302031Y-53379935D01*
X125156131Y-53379935D01*
X124937970Y-53401422D01*
X124658047Y-53486336D01*
X124400067Y-53624229D01*
X124173947Y-53809801D01*
X123988375Y-54035921D01*
X123959081Y-54090726D01*
X123929787Y-54035921D01*
X123744215Y-53809801D01*
X123518095Y-53624229D01*
X123260115Y-53486336D01*
X122980192Y-53401422D01*
X122762031Y-53379935D01*
X122616131Y-53379935D01*
X122397970Y-53401422D01*
X122118047Y-53486336D01*
X121860067Y-53624229D01*
X121633947Y-53809801D01*
X121448375Y-54035921D01*
X121419081Y-54090726D01*
X121389787Y-54035921D01*
X121204215Y-53809801D01*
X120978095Y-53624229D01*
X120720115Y-53486336D01*
X120440192Y-53401422D01*
X120222031Y-53379935D01*
X120076131Y-53379935D01*
X119857970Y-53401422D01*
X119578047Y-53486336D01*
X119320067Y-53624229D01*
X119093947Y-53809801D01*
X118908375Y-54035921D01*
X118879081Y-54090726D01*
X118849787Y-54035921D01*
X118664215Y-53809801D01*
X118438095Y-53624229D01*
X118180115Y-53486336D01*
X117900192Y-53401422D01*
X117682031Y-53379935D01*
X117536131Y-53379935D01*
X117317970Y-53401422D01*
X117038047Y-53486336D01*
X116780067Y-53624229D01*
X116553947Y-53809801D01*
X116368375Y-54035921D01*
X116339081Y-54090726D01*
X116309787Y-54035921D01*
X116124215Y-53809801D01*
X115898095Y-53624229D01*
X115640115Y-53486336D01*
X115360192Y-53401422D01*
X115142031Y-53379935D01*
X114996131Y-53379935D01*
X114777970Y-53401422D01*
X114498047Y-53486336D01*
X114240067Y-53624229D01*
X114013947Y-53809801D01*
X113828375Y-54035921D01*
X113799081Y-54090726D01*
X113769787Y-54035921D01*
X113584215Y-53809801D01*
X113358095Y-53624229D01*
X113100115Y-53486336D01*
X112820192Y-53401422D01*
X112602031Y-53379935D01*
X112456131Y-53379935D01*
X112237970Y-53401422D01*
X111958047Y-53486336D01*
X111700067Y-53624229D01*
X111473947Y-53809801D01*
X111288375Y-54035921D01*
X111259081Y-54090726D01*
X111229787Y-54035921D01*
X111044215Y-53809801D01*
X110818095Y-53624229D01*
X110560115Y-53486336D01*
X110280192Y-53401422D01*
X110062031Y-53379935D01*
X109916131Y-53379935D01*
X109697970Y-53401422D01*
X109418047Y-53486336D01*
X109160067Y-53624229D01*
X108933947Y-53809801D01*
X108748375Y-54035921D01*
X108656221Y-54208329D01*
X108565584Y-53752664D01*
X108278378Y-53059288D01*
X107861420Y-52435267D01*
X107330733Y-51904580D01*
X106706712Y-51487622D01*
X106013336Y-51200416D01*
X105277252Y-51054000D01*
X104526748Y-51054000D01*
X103790664Y-51200416D01*
X103097288Y-51487622D01*
X102473267Y-51904580D01*
X101942580Y-52435267D01*
X101525622Y-53059288D01*
X101238416Y-53752664D01*
X101092000Y-54488748D01*
X101092000Y-55239252D01*
X101238416Y-55975336D01*
X101525622Y-56668712D01*
X101942580Y-57292733D01*
X102473267Y-57823420D01*
X103097288Y-58240378D01*
X103790664Y-58527584D01*
X104526748Y-58674000D01*
X105277252Y-58674000D01*
X106013336Y-58527584D01*
X106706712Y-58240378D01*
X107330733Y-57823420D01*
X107861420Y-57292733D01*
X108278378Y-56668712D01*
X108565584Y-55975336D01*
X108655950Y-55521034D01*
X108748375Y-55693949D01*
X108933947Y-55920069D01*
X108963768Y-55944542D01*
X108894901Y-55965433D01*
X108784587Y-56024398D01*
X108687896Y-56103750D01*
X108608544Y-56200441D01*
X108549579Y-56310755D01*
X108513269Y-56430453D01*
X108501009Y-56554935D01*
X108501009Y-58254935D01*
X108513269Y-58379417D01*
X108549579Y-58499115D01*
X108608544Y-58609429D01*
X108687896Y-58706120D01*
X108784587Y-58785472D01*
X108894901Y-58844437D01*
X108963768Y-58865328D01*
X108933947Y-58889801D01*
X108748375Y-59115921D01*
X108610482Y-59373901D01*
X108525568Y-59653824D01*
X108496896Y-59944935D01*
X108525568Y-60236046D01*
X108610482Y-60515969D01*
X108748375Y-60773949D01*
X108933947Y-61000069D01*
X108963768Y-61024542D01*
X108894901Y-61045433D01*
X108784587Y-61104398D01*
X108687896Y-61183750D01*
X108608544Y-61280441D01*
X108549579Y-61390755D01*
X108513269Y-61510453D01*
X108501009Y-61634935D01*
X108501009Y-63334935D01*
X108513269Y-63459417D01*
X108549579Y-63579115D01*
X108608544Y-63689429D01*
X108687896Y-63786120D01*
X108784587Y-63865472D01*
X108894901Y-63924437D01*
X109014599Y-63960747D01*
X109139081Y-63973007D01*
X109709333Y-63973007D01*
X109690800Y-63988217D01*
X109667002Y-64017215D01*
X109667001Y-64017216D01*
X109595826Y-64103942D01*
X109525254Y-64235972D01*
X109481798Y-64379233D01*
X109467124Y-64528218D01*
X109470801Y-64565550D01*
X109470800Y-75967360D01*
X109391318Y-75975188D01*
X109271620Y-76011498D01*
X109161306Y-76070463D01*
X109064615Y-76149815D01*
X108985263Y-76246506D01*
X108926298Y-76356820D01*
X108889988Y-76476518D01*
X108877728Y-76601000D01*
X108877728Y-76912928D01*
X107595800Y-76912928D01*
X107471318Y-76925188D01*
X107351620Y-76961498D01*
X107241306Y-77020463D01*
X107155356Y-77091000D01*
X105275055Y-77091000D01*
X105274137Y-77089626D01*
X105129974Y-76945463D01*
X104960456Y-76832195D01*
X104772098Y-76754174D01*
X104572139Y-76714400D01*
X104368261Y-76714400D01*
X104168302Y-76754174D01*
X103979944Y-76832195D01*
X103810426Y-76945463D01*
X103666263Y-77089626D01*
X103552995Y-77259144D01*
X103474974Y-77447502D01*
X103435200Y-77647461D01*
X103435200Y-77851339D01*
X103474974Y-78051298D01*
X103552995Y-78239656D01*
X103666263Y-78409174D01*
X103810426Y-78553337D01*
X103979944Y-78666605D01*
X104168302Y-78744626D01*
X104368261Y-78784400D01*
X104572139Y-78784400D01*
X104772098Y-78744626D01*
X104960456Y-78666605D01*
X105043675Y-78611000D01*
X107155356Y-78611000D01*
X107241306Y-78681537D01*
X107351620Y-78740502D01*
X107471318Y-78776812D01*
X107595800Y-78789072D01*
X108877728Y-78789072D01*
X108877728Y-79101000D01*
X108889988Y-79225482D01*
X108926298Y-79345180D01*
X108985263Y-79455494D01*
X109064615Y-79552185D01*
X109161306Y-79631537D01*
X109271620Y-79690502D01*
X109391318Y-79726812D01*
X109515800Y-79739072D01*
X110509071Y-79739072D01*
X113664001Y-82894003D01*
X113664000Y-85319661D01*
X113555614Y-85377595D01*
X113421038Y-85488038D01*
X113310595Y-85622614D01*
X113228528Y-85776150D01*
X113177992Y-85942746D01*
X113160928Y-86116000D01*
X113160928Y-87366000D01*
X113177992Y-87539254D01*
X113228528Y-87705850D01*
X113310595Y-87859386D01*
X113421038Y-87993962D01*
X113555614Y-88104405D01*
X113664000Y-88162339D01*
X113664000Y-88410497D01*
X109766371Y-92308128D01*
X109509350Y-92308128D01*
X109342192Y-92324592D01*
X109181458Y-92373350D01*
X109033325Y-92452529D01*
X109011670Y-92470300D01*
X108945094Y-92415663D01*
X108834780Y-92356698D01*
X108715082Y-92320388D01*
X108590600Y-92308128D01*
X108438850Y-92311200D01*
X108280100Y-92469950D01*
X108280100Y-93294200D01*
X108300100Y-93294200D01*
X108300100Y-93548200D01*
X108280100Y-93548200D01*
X108280100Y-94372450D01*
X108438850Y-94531200D01*
X108590600Y-94534272D01*
X108715082Y-94522012D01*
X108834780Y-94485702D01*
X108945094Y-94426737D01*
X109011670Y-94372100D01*
X109033325Y-94389871D01*
X109181458Y-94469050D01*
X109342192Y-94517808D01*
X109509350Y-94534272D01*
X109946850Y-94534272D01*
X110114008Y-94517808D01*
X110274742Y-94469050D01*
X110422875Y-94389871D01*
X110552715Y-94283315D01*
X110659271Y-94153475D01*
X110738450Y-94005342D01*
X110787208Y-93844608D01*
X110803672Y-93677450D01*
X110803672Y-93420429D01*
X114935009Y-89289094D01*
X114964001Y-89265301D01*
X114987795Y-89236308D01*
X114987799Y-89236304D01*
X115058973Y-89149577D01*
X115058974Y-89149576D01*
X115129546Y-89017547D01*
X115173003Y-88874286D01*
X115184000Y-88762633D01*
X115184000Y-88762624D01*
X115187676Y-88725301D01*
X115184000Y-88687978D01*
X115184000Y-88162339D01*
X115292386Y-88104405D01*
X115426962Y-87993962D01*
X115537405Y-87859386D01*
X115619472Y-87705850D01*
X115670008Y-87539254D01*
X115687072Y-87366000D01*
X115687072Y-86116000D01*
X115670008Y-85942746D01*
X115619472Y-85776150D01*
X115537405Y-85622614D01*
X115426962Y-85488038D01*
X115292386Y-85377595D01*
X115184000Y-85319661D01*
X115184000Y-82616525D01*
X115187676Y-82579200D01*
X115184000Y-82541875D01*
X115184000Y-82541867D01*
X115173003Y-82430214D01*
X115129546Y-82286953D01*
X115058974Y-82154924D01*
X114964001Y-82039199D01*
X114935003Y-82015401D01*
X114248401Y-81328799D01*
X125200928Y-81328799D01*
X125200928Y-90269599D01*
X125213188Y-90394081D01*
X125249498Y-90513779D01*
X125308463Y-90624093D01*
X125387815Y-90720784D01*
X125484506Y-90800136D01*
X125594820Y-90859101D01*
X125714518Y-90895411D01*
X125839000Y-90907671D01*
X135999000Y-90907671D01*
X136123482Y-90895411D01*
X136243180Y-90859101D01*
X136353494Y-90800136D01*
X136450185Y-90720784D01*
X136529537Y-90624093D01*
X136588502Y-90513779D01*
X136624812Y-90394081D01*
X136637072Y-90269599D01*
X136637072Y-81328799D01*
X136624812Y-81204317D01*
X136588502Y-81084619D01*
X136529537Y-80974305D01*
X136450185Y-80877614D01*
X136353494Y-80798262D01*
X136243180Y-80739297D01*
X136123482Y-80702987D01*
X135999000Y-80690727D01*
X131668940Y-80690727D01*
X131668003Y-80681214D01*
X131624546Y-80537953D01*
X131553974Y-80405924D01*
X131482799Y-80319197D01*
X131459001Y-80290199D01*
X131430003Y-80266401D01*
X129432000Y-78268399D01*
X129432000Y-78206261D01*
X129392226Y-78006302D01*
X129314205Y-77817944D01*
X129200937Y-77648426D01*
X129056774Y-77504263D01*
X128887256Y-77390995D01*
X128698898Y-77312974D01*
X128498939Y-77273200D01*
X128295061Y-77273200D01*
X128095102Y-77312974D01*
X127906744Y-77390995D01*
X127737226Y-77504263D01*
X127593063Y-77648426D01*
X127479795Y-77817944D01*
X127401774Y-78006302D01*
X127362000Y-78206261D01*
X127362000Y-78410139D01*
X127401774Y-78610098D01*
X127479795Y-78798456D01*
X127593063Y-78967974D01*
X127737226Y-79112137D01*
X127906744Y-79225405D01*
X128095102Y-79303426D01*
X128295061Y-79343200D01*
X128357199Y-79343200D01*
X129704725Y-80690727D01*
X125839000Y-80690727D01*
X125714518Y-80702987D01*
X125594820Y-80739297D01*
X125484506Y-80798262D01*
X125387815Y-80877614D01*
X125308463Y-80974305D01*
X125249498Y-81084619D01*
X125213188Y-81204317D01*
X125200928Y-81328799D01*
X114248401Y-81328799D01*
X111583872Y-78664271D01*
X111583872Y-78501000D01*
X111571612Y-78376518D01*
X111535302Y-78256820D01*
X111476337Y-78146506D01*
X111396985Y-78049815D01*
X111300294Y-77970463D01*
X111189980Y-77911498D01*
X111070282Y-77875188D01*
X110945800Y-77862928D01*
X109663872Y-77862928D01*
X109663872Y-77839072D01*
X110945800Y-77839072D01*
X111070282Y-77826812D01*
X111189980Y-77790502D01*
X111300294Y-77731537D01*
X111396985Y-77652185D01*
X111476337Y-77555494D01*
X111535302Y-77445180D01*
X111571612Y-77325482D01*
X111583872Y-77201000D01*
X111583872Y-76601000D01*
X111571612Y-76476518D01*
X111535302Y-76356820D01*
X111476337Y-76246506D01*
X111396985Y-76149815D01*
X111300294Y-76070463D01*
X111189980Y-76011498D01*
X111070282Y-75975188D01*
X110990800Y-75967360D01*
X110990800Y-64843019D01*
X111865084Y-63968736D01*
X111894081Y-63944939D01*
X111960322Y-63864224D01*
X112237970Y-63948448D01*
X112456131Y-63969935D01*
X112602031Y-63969935D01*
X112820192Y-63948448D01*
X113100115Y-63863534D01*
X113358095Y-63725641D01*
X113584215Y-63540069D01*
X113769787Y-63313949D01*
X113799081Y-63259144D01*
X113828375Y-63313949D01*
X114013947Y-63540069D01*
X114240067Y-63725641D01*
X114498047Y-63863534D01*
X114777970Y-63948448D01*
X114996131Y-63969935D01*
X115142031Y-63969935D01*
X115360192Y-63948448D01*
X115640115Y-63863534D01*
X115898095Y-63725641D01*
X116124215Y-63540069D01*
X116309787Y-63313949D01*
X116339081Y-63259144D01*
X116368375Y-63313949D01*
X116553947Y-63540069D01*
X116780067Y-63725641D01*
X117038047Y-63863534D01*
X117317970Y-63948448D01*
X117536131Y-63969935D01*
X117682031Y-63969935D01*
X117900192Y-63948448D01*
X118180115Y-63863534D01*
X118438095Y-63725641D01*
X118664215Y-63540069D01*
X118849787Y-63313949D01*
X118879081Y-63259144D01*
X118908375Y-63313949D01*
X119093947Y-63540069D01*
X119320067Y-63725641D01*
X119578047Y-63863534D01*
X119857970Y-63948448D01*
X120076131Y-63969935D01*
X120222031Y-63969935D01*
X120440192Y-63948448D01*
X120720115Y-63863534D01*
X120978095Y-63725641D01*
X121204215Y-63540069D01*
X121389787Y-63313949D01*
X121419081Y-63259144D01*
X121448375Y-63313949D01*
X121633947Y-63540069D01*
X121860067Y-63725641D01*
X122118047Y-63863534D01*
X122397970Y-63948448D01*
X122616131Y-63969935D01*
X122762031Y-63969935D01*
X122980192Y-63948448D01*
X123260115Y-63863534D01*
X123518095Y-63725641D01*
X123744215Y-63540069D01*
X123929787Y-63313949D01*
X123959081Y-63259144D01*
X123988375Y-63313949D01*
X124173947Y-63540069D01*
X124400067Y-63725641D01*
X124658047Y-63863534D01*
X124937970Y-63948448D01*
X125156131Y-63969935D01*
X125302031Y-63969935D01*
X125520192Y-63948448D01*
X125800115Y-63863534D01*
X126058095Y-63725641D01*
X126284215Y-63540069D01*
X126469787Y-63313949D01*
X126499081Y-63259144D01*
X126528375Y-63313949D01*
X126713947Y-63540069D01*
X126940067Y-63725641D01*
X127198047Y-63863534D01*
X127477970Y-63948448D01*
X127696131Y-63969935D01*
X127842031Y-63969935D01*
X128060192Y-63948448D01*
X128340115Y-63863534D01*
X128598095Y-63725641D01*
X128824215Y-63540069D01*
X129009787Y-63313949D01*
X129039081Y-63259144D01*
X129068375Y-63313949D01*
X129253947Y-63540069D01*
X129480067Y-63725641D01*
X129738047Y-63863534D01*
X130017970Y-63948448D01*
X130236131Y-63969935D01*
X130382031Y-63969935D01*
X130600192Y-63948448D01*
X130880115Y-63863534D01*
X131138095Y-63725641D01*
X131364215Y-63540069D01*
X131549787Y-63313949D01*
X131579081Y-63259144D01*
X131608375Y-63313949D01*
X131793947Y-63540069D01*
X132020067Y-63725641D01*
X132278047Y-63863534D01*
X132557970Y-63948448D01*
X132776131Y-63969935D01*
X132922031Y-63969935D01*
X133140192Y-63948448D01*
X133420115Y-63863534D01*
X133678095Y-63725641D01*
X133904215Y-63540069D01*
X134089787Y-63313949D01*
X134119081Y-63259144D01*
X134148375Y-63313949D01*
X134333947Y-63540069D01*
X134560067Y-63725641D01*
X134818047Y-63863534D01*
X135097970Y-63948448D01*
X135316131Y-63969935D01*
X135462031Y-63969935D01*
X135680192Y-63948448D01*
X135960115Y-63863534D01*
X136218095Y-63725641D01*
X136444215Y-63540069D01*
X136629787Y-63313949D01*
X136659081Y-63259144D01*
X136688375Y-63313949D01*
X136873947Y-63540069D01*
X137100067Y-63725641D01*
X137358047Y-63863534D01*
X137637970Y-63948448D01*
X137856131Y-63969935D01*
X138002031Y-63969935D01*
X138220192Y-63948448D01*
X138303000Y-63923328D01*
X138303000Y-101957600D01*
X135036402Y-101957600D01*
X132512439Y-99433638D01*
X132671856Y-99367605D01*
X132841374Y-99254337D01*
X132985537Y-99110174D01*
X133098805Y-98940656D01*
X133176826Y-98752298D01*
X133216600Y-98552339D01*
X133216600Y-98348461D01*
X133176826Y-98148502D01*
X133098805Y-97960144D01*
X132985537Y-97790626D01*
X132941600Y-97746689D01*
X132941600Y-96969840D01*
X133027200Y-96978271D01*
X133890800Y-96978271D01*
X134015282Y-96966011D01*
X134094000Y-96942132D01*
X134172718Y-96966011D01*
X134297200Y-96978271D01*
X134443250Y-96975199D01*
X134602000Y-96816449D01*
X134602000Y-95120999D01*
X134856000Y-95120999D01*
X134856000Y-96816449D01*
X135014750Y-96975199D01*
X135160800Y-96978271D01*
X135285282Y-96966011D01*
X135404980Y-96929701D01*
X135515294Y-96870736D01*
X135611985Y-96791384D01*
X135691337Y-96694693D01*
X135750302Y-96584379D01*
X135786612Y-96464681D01*
X135798872Y-96340199D01*
X135795800Y-95279749D01*
X135637050Y-95120999D01*
X134856000Y-95120999D01*
X134602000Y-95120999D01*
X134582000Y-95120999D01*
X134582000Y-94866999D01*
X134602000Y-94866999D01*
X134602000Y-93171549D01*
X134856000Y-93171549D01*
X134856000Y-94866999D01*
X135637050Y-94866999D01*
X135795800Y-94708249D01*
X135798872Y-93647799D01*
X135786612Y-93523317D01*
X135750302Y-93403619D01*
X135691337Y-93293305D01*
X135611985Y-93196614D01*
X135515294Y-93117262D01*
X135404980Y-93058297D01*
X135285282Y-93021987D01*
X135160800Y-93009727D01*
X135014750Y-93012799D01*
X134856000Y-93171549D01*
X134602000Y-93171549D01*
X134443250Y-93012799D01*
X134297200Y-93009727D01*
X134172718Y-93021987D01*
X134094000Y-93045866D01*
X134015282Y-93021987D01*
X133890800Y-93009727D01*
X133027200Y-93009727D01*
X132902718Y-93021987D01*
X132824000Y-93045866D01*
X132745282Y-93021987D01*
X132620800Y-93009727D01*
X131757200Y-93009727D01*
X131632718Y-93021987D01*
X131554000Y-93045866D01*
X131475282Y-93021987D01*
X131350800Y-93009727D01*
X130487200Y-93009727D01*
X130362718Y-93021987D01*
X130284000Y-93045866D01*
X130205282Y-93021987D01*
X130080800Y-93009727D01*
X129217200Y-93009727D01*
X129092718Y-93021987D01*
X129014000Y-93045866D01*
X128935282Y-93021987D01*
X128810800Y-93009727D01*
X127947200Y-93009727D01*
X127822718Y-93021987D01*
X127744000Y-93045866D01*
X127665282Y-93021987D01*
X127540800Y-93009727D01*
X126677200Y-93009727D01*
X126552718Y-93021987D01*
X126433020Y-93058297D01*
X126322706Y-93117262D01*
X126226015Y-93196614D01*
X126146663Y-93293305D01*
X126087698Y-93403619D01*
X126051388Y-93523317D01*
X126039128Y-93647799D01*
X126039128Y-94312200D01*
X122367311Y-94312200D01*
X122284988Y-94188995D01*
X122092005Y-93996012D01*
X121865080Y-93844386D01*
X121612935Y-93739944D01*
X121345260Y-93686700D01*
X121072340Y-93686700D01*
X120804665Y-93739944D01*
X120552520Y-93844386D01*
X120325595Y-93996012D01*
X120132612Y-94188995D01*
X119980986Y-94415920D01*
X119938800Y-94517766D01*
X119896614Y-94415920D01*
X119744988Y-94188995D01*
X119552005Y-93996012D01*
X119325080Y-93844386D01*
X119072935Y-93739944D01*
X118805260Y-93686700D01*
X118532340Y-93686700D01*
X118264665Y-93739944D01*
X118012520Y-93844386D01*
X117984000Y-93863442D01*
X117984000Y-88162339D01*
X118092386Y-88104405D01*
X118226962Y-87993962D01*
X118337405Y-87859386D01*
X118419472Y-87705850D01*
X118470008Y-87539254D01*
X118487072Y-87366000D01*
X118487072Y-86116000D01*
X118470008Y-85942746D01*
X118419472Y-85776150D01*
X118337405Y-85622614D01*
X118226962Y-85488038D01*
X118092386Y-85377595D01*
X117938850Y-85295528D01*
X117772254Y-85244992D01*
X117599000Y-85227928D01*
X116849000Y-85227928D01*
X116675746Y-85244992D01*
X116509150Y-85295528D01*
X116355614Y-85377595D01*
X116221038Y-85488038D01*
X116110595Y-85622614D01*
X116028528Y-85776150D01*
X115977992Y-85942746D01*
X115960928Y-86116000D01*
X115960928Y-87366000D01*
X115977992Y-87539254D01*
X116028528Y-87705850D01*
X116110595Y-87859386D01*
X116221038Y-87993962D01*
X116355614Y-88104405D01*
X116464000Y-88162339D01*
X116464001Y-93662197D01*
X116410590Y-93715608D01*
X116265260Y-93686700D01*
X115992340Y-93686700D01*
X115724665Y-93739944D01*
X115472520Y-93844386D01*
X115245595Y-93996012D01*
X115052612Y-94188995D01*
X114900986Y-94415920D01*
X114796544Y-94668065D01*
X114743300Y-94935740D01*
X114743300Y-95208660D01*
X114796544Y-95476335D01*
X114900986Y-95728480D01*
X115052612Y-95955405D01*
X115245595Y-96148388D01*
X115472520Y-96300014D01*
X115724665Y-96404456D01*
X115992340Y-96457700D01*
X116265260Y-96457700D01*
X116532935Y-96404456D01*
X116785080Y-96300014D01*
X117012005Y-96148388D01*
X117204988Y-95955405D01*
X117356614Y-95728480D01*
X117398800Y-95626634D01*
X117440986Y-95728480D01*
X117592612Y-95955405D01*
X117785595Y-96148388D01*
X118012520Y-96300014D01*
X118264665Y-96404456D01*
X118532340Y-96457700D01*
X118805260Y-96457700D01*
X119072935Y-96404456D01*
X119325080Y-96300014D01*
X119552005Y-96148388D01*
X119744988Y-95955405D01*
X119896614Y-95728480D01*
X119938800Y-95626634D01*
X119980986Y-95728480D01*
X120132612Y-95955405D01*
X120325595Y-96148388D01*
X120552520Y-96300014D01*
X120804665Y-96404456D01*
X121072340Y-96457700D01*
X121345260Y-96457700D01*
X121612935Y-96404456D01*
X121865080Y-96300014D01*
X122092005Y-96148388D01*
X122284988Y-95955405D01*
X122367311Y-95832200D01*
X126039128Y-95832200D01*
X126039128Y-96340199D01*
X126051388Y-96464681D01*
X126087698Y-96584379D01*
X126146663Y-96694693D01*
X126226015Y-96791384D01*
X126322706Y-96870736D01*
X126433020Y-96929701D01*
X126552718Y-96966011D01*
X126677200Y-96978271D01*
X127540800Y-96978271D01*
X127619000Y-96970569D01*
X127619000Y-97747198D01*
X127370999Y-97995200D01*
X122130933Y-97995200D01*
X122093600Y-97991523D01*
X122056267Y-97995200D01*
X121944614Y-98006197D01*
X121801353Y-98049654D01*
X121669324Y-98120226D01*
X121553599Y-98215199D01*
X121529801Y-98244197D01*
X119300798Y-100473201D01*
X119271800Y-100496999D01*
X119248002Y-100525997D01*
X119248001Y-100525998D01*
X119208119Y-100574594D01*
X119079525Y-100643329D01*
X118949685Y-100749885D01*
X118843129Y-100879725D01*
X118763950Y-101027858D01*
X118715192Y-101188592D01*
X118698728Y-101355750D01*
X118698728Y-101793250D01*
X118715192Y-101960408D01*
X118763950Y-102121142D01*
X118843129Y-102269275D01*
X118919226Y-102362000D01*
X118843129Y-102454725D01*
X118763950Y-102602858D01*
X118715192Y-102763592D01*
X118698728Y-102930750D01*
X118698728Y-103368250D01*
X118715192Y-103535408D01*
X118763950Y-103696142D01*
X118843129Y-103844275D01*
X118949685Y-103974115D01*
X119079525Y-104080671D01*
X119227658Y-104159850D01*
X119388392Y-104208608D01*
X119555550Y-104225072D01*
X120068050Y-104225072D01*
X120235208Y-104208608D01*
X120395942Y-104159850D01*
X120544075Y-104080671D01*
X120673915Y-103974115D01*
X120726943Y-103909500D01*
X125375111Y-103909500D01*
X125469350Y-103959872D01*
X125635946Y-104010408D01*
X125809200Y-104027472D01*
X126559200Y-104027472D01*
X126732454Y-104010408D01*
X126899050Y-103959872D01*
X127052586Y-103877805D01*
X127187162Y-103767362D01*
X127297605Y-103632786D01*
X127379672Y-103479250D01*
X127430208Y-103312654D01*
X127447272Y-103139400D01*
X127447272Y-101889400D01*
X127430208Y-101716146D01*
X127379672Y-101549550D01*
X127297605Y-101396014D01*
X127187162Y-101261438D01*
X127052586Y-101150995D01*
X126899050Y-101068928D01*
X126732454Y-101018392D01*
X126559200Y-101001328D01*
X125809200Y-101001328D01*
X125635946Y-101018392D01*
X125469350Y-101068928D01*
X125315814Y-101150995D01*
X125181238Y-101261438D01*
X125070795Y-101396014D01*
X124988728Y-101549550D01*
X124938192Y-101716146D01*
X124921128Y-101889400D01*
X124921128Y-102389500D01*
X120726943Y-102389500D01*
X120704374Y-102362000D01*
X120780471Y-102269275D01*
X120859650Y-102121142D01*
X120908408Y-101960408D01*
X120924872Y-101793250D01*
X120924872Y-101355750D01*
X120908408Y-101188592D01*
X120868050Y-101055551D01*
X122408402Y-99515200D01*
X127648478Y-99515200D01*
X127685800Y-99518876D01*
X127723122Y-99515200D01*
X127723133Y-99515200D01*
X127834786Y-99504203D01*
X127978047Y-99460746D01*
X128110076Y-99390174D01*
X128225801Y-99295201D01*
X128249603Y-99266198D01*
X128890004Y-98625798D01*
X128919001Y-98602001D01*
X129013974Y-98486276D01*
X129084546Y-98354247D01*
X129128003Y-98210986D01*
X129128950Y-98201374D01*
X129138003Y-98208804D01*
X131782236Y-100853038D01*
X131625702Y-100884174D01*
X131437344Y-100962195D01*
X131267826Y-101075463D01*
X131123663Y-101219626D01*
X131010395Y-101389144D01*
X130932374Y-101577502D01*
X130892600Y-101777461D01*
X130892600Y-101981339D01*
X130932374Y-102181298D01*
X131010395Y-102369656D01*
X131123663Y-102539174D01*
X131267826Y-102683337D01*
X131437344Y-102796605D01*
X131625702Y-102874626D01*
X131825661Y-102914400D01*
X131887799Y-102914400D01*
X133479001Y-104505603D01*
X133479000Y-106184328D01*
X132439000Y-106184328D01*
X132226728Y-106205235D01*
X132022613Y-106267153D01*
X131834500Y-106367701D01*
X131669617Y-106503017D01*
X131534301Y-106667900D01*
X131433753Y-106856013D01*
X131371835Y-107060128D01*
X131350928Y-107272400D01*
X131350928Y-108172400D01*
X131371835Y-108384672D01*
X131433753Y-108588787D01*
X131534301Y-108776900D01*
X131669617Y-108941783D01*
X131834500Y-109077099D01*
X132022613Y-109177647D01*
X132226728Y-109239565D01*
X132439000Y-109260472D01*
X136039000Y-109260472D01*
X136251272Y-109239565D01*
X136455387Y-109177647D01*
X136643500Y-109077099D01*
X136808383Y-108941783D01*
X136943699Y-108776900D01*
X137044247Y-108588787D01*
X137076519Y-108482400D01*
X138303000Y-108482400D01*
X138303000Y-142038000D01*
X132114877Y-142038000D01*
X132080000Y-142034565D01*
X132045123Y-142038000D01*
X131940816Y-142048273D01*
X131806980Y-142088872D01*
X131683637Y-142154800D01*
X131575525Y-142243525D01*
X131486800Y-142351637D01*
X131420872Y-142474980D01*
X131380273Y-142608816D01*
X131366565Y-142748000D01*
X131370001Y-142782887D01*
X131370000Y-144959000D01*
X96722000Y-144959000D01*
X96722000Y-140213748D01*
X97282000Y-140213748D01*
X97282000Y-140964252D01*
X97428416Y-141700336D01*
X97715622Y-142393712D01*
X98132580Y-143017733D01*
X98663267Y-143548420D01*
X99287288Y-143965378D01*
X99980664Y-144252584D01*
X100716748Y-144399000D01*
X101467252Y-144399000D01*
X102203336Y-144252584D01*
X102896712Y-143965378D01*
X103520733Y-143548420D01*
X104051420Y-143017733D01*
X104468378Y-142393712D01*
X104755584Y-141700336D01*
X104902000Y-140964252D01*
X104902000Y-140213748D01*
X104755584Y-139477664D01*
X104468378Y-138784288D01*
X104051420Y-138160267D01*
X103520733Y-137629580D01*
X102896712Y-137212622D01*
X102203336Y-136925416D01*
X101467252Y-136779000D01*
X100716748Y-136779000D01*
X99980664Y-136925416D01*
X99287288Y-137212622D01*
X98663267Y-137629580D01*
X98132580Y-138160267D01*
X97715622Y-138784288D01*
X97428416Y-139477664D01*
X97282000Y-140213748D01*
X96722000Y-140213748D01*
X96722000Y-113944061D01*
X121647000Y-113944061D01*
X121647000Y-114147939D01*
X121686774Y-114347898D01*
X121764795Y-114536256D01*
X121878063Y-114705774D01*
X122022226Y-114849937D01*
X122191744Y-114963205D01*
X122380102Y-115041226D01*
X122580061Y-115081000D01*
X122783939Y-115081000D01*
X122983898Y-115041226D01*
X123172256Y-114963205D01*
X123341774Y-114849937D01*
X123485937Y-114705774D01*
X123599205Y-114536256D01*
X123677226Y-114347898D01*
X123717000Y-114147939D01*
X123717000Y-113959062D01*
X123738803Y-113887186D01*
X123749800Y-113775533D01*
X123749800Y-113775523D01*
X123753476Y-113738200D01*
X123749800Y-113700877D01*
X123749800Y-112292339D01*
X123858186Y-112234405D01*
X123992762Y-112123962D01*
X124103205Y-111989386D01*
X124139009Y-111922400D01*
X131350928Y-111922400D01*
X131363188Y-112046882D01*
X131399498Y-112166580D01*
X131458463Y-112276894D01*
X131537815Y-112373585D01*
X131634506Y-112452937D01*
X131744820Y-112511902D01*
X131864518Y-112548212D01*
X131989000Y-112560472D01*
X133953250Y-112557400D01*
X134112000Y-112398650D01*
X134112000Y-111149400D01*
X134366000Y-111149400D01*
X134366000Y-112398650D01*
X134524750Y-112557400D01*
X136489000Y-112560472D01*
X136613482Y-112548212D01*
X136733180Y-112511902D01*
X136843494Y-112452937D01*
X136940185Y-112373585D01*
X137019537Y-112276894D01*
X137078502Y-112166580D01*
X137114812Y-112046882D01*
X137127072Y-111922400D01*
X137124000Y-111308150D01*
X136965250Y-111149400D01*
X134366000Y-111149400D01*
X134112000Y-111149400D01*
X131512750Y-111149400D01*
X131354000Y-111308150D01*
X131350928Y-111922400D01*
X124139009Y-111922400D01*
X124185272Y-111835850D01*
X124235808Y-111669254D01*
X124252872Y-111496000D01*
X124252872Y-110246000D01*
X124240699Y-110122400D01*
X131350928Y-110122400D01*
X131354000Y-110736650D01*
X131512750Y-110895400D01*
X134112000Y-110895400D01*
X134112000Y-109646150D01*
X134366000Y-109646150D01*
X134366000Y-110895400D01*
X136965250Y-110895400D01*
X137124000Y-110736650D01*
X137127072Y-110122400D01*
X137114812Y-109997918D01*
X137078502Y-109878220D01*
X137019537Y-109767906D01*
X136940185Y-109671215D01*
X136843494Y-109591863D01*
X136733180Y-109532898D01*
X136613482Y-109496588D01*
X136489000Y-109484328D01*
X134524750Y-109487400D01*
X134366000Y-109646150D01*
X134112000Y-109646150D01*
X133953250Y-109487400D01*
X131989000Y-109484328D01*
X131864518Y-109496588D01*
X131744820Y-109532898D01*
X131634506Y-109591863D01*
X131537815Y-109671215D01*
X131458463Y-109767906D01*
X131399498Y-109878220D01*
X131363188Y-109997918D01*
X131350928Y-110122400D01*
X124240699Y-110122400D01*
X124235808Y-110072746D01*
X124185272Y-109906150D01*
X124103205Y-109752614D01*
X123992762Y-109618038D01*
X123858186Y-109507595D01*
X123704650Y-109425528D01*
X123538054Y-109374992D01*
X123364800Y-109357928D01*
X122614800Y-109357928D01*
X122441546Y-109374992D01*
X122274950Y-109425528D01*
X122121414Y-109507595D01*
X121986838Y-109618038D01*
X121876395Y-109752614D01*
X121794328Y-109906150D01*
X121743792Y-110072746D01*
X121726728Y-110246000D01*
X121726728Y-111496000D01*
X121743792Y-111669254D01*
X121794328Y-111835850D01*
X121876395Y-111989386D01*
X121986838Y-112123962D01*
X122121414Y-112234405D01*
X122229800Y-112292339D01*
X122229801Y-113113031D01*
X122191744Y-113128795D01*
X122022226Y-113242063D01*
X121878063Y-113386226D01*
X121764795Y-113555744D01*
X121686774Y-113744102D01*
X121647000Y-113944061D01*
X96722000Y-113944061D01*
X96722000Y-111746000D01*
X118926728Y-111746000D01*
X118938988Y-111870482D01*
X118975298Y-111990180D01*
X119034263Y-112100494D01*
X119113615Y-112197185D01*
X119210306Y-112276537D01*
X119320620Y-112335502D01*
X119440318Y-112371812D01*
X119564800Y-112384072D01*
X119904050Y-112381000D01*
X120062800Y-112222250D01*
X120062800Y-110998000D01*
X120316800Y-110998000D01*
X120316800Y-112222250D01*
X120475550Y-112381000D01*
X120814800Y-112384072D01*
X120939282Y-112371812D01*
X121058980Y-112335502D01*
X121169294Y-112276537D01*
X121265985Y-112197185D01*
X121345337Y-112100494D01*
X121404302Y-111990180D01*
X121440612Y-111870482D01*
X121452872Y-111746000D01*
X121449800Y-111156750D01*
X121291050Y-110998000D01*
X120316800Y-110998000D01*
X120062800Y-110998000D01*
X119088550Y-110998000D01*
X118929800Y-111156750D01*
X118926728Y-111746000D01*
X96722000Y-111746000D01*
X96722000Y-109996000D01*
X118926728Y-109996000D01*
X118929800Y-110585250D01*
X119088550Y-110744000D01*
X120062800Y-110744000D01*
X120062800Y-109519750D01*
X120316800Y-109519750D01*
X120316800Y-110744000D01*
X121291050Y-110744000D01*
X121449800Y-110585250D01*
X121452872Y-109996000D01*
X121440612Y-109871518D01*
X121404302Y-109751820D01*
X121345337Y-109641506D01*
X121265985Y-109544815D01*
X121169294Y-109465463D01*
X121058980Y-109406498D01*
X120939282Y-109370188D01*
X120814800Y-109357928D01*
X120475550Y-109361000D01*
X120316800Y-109519750D01*
X120062800Y-109519750D01*
X119904050Y-109361000D01*
X119564800Y-109357928D01*
X119440318Y-109370188D01*
X119320620Y-109406498D01*
X119210306Y-109465463D01*
X119113615Y-109544815D01*
X119034263Y-109641506D01*
X118975298Y-109751820D01*
X118938988Y-109871518D01*
X118926728Y-109996000D01*
X96722000Y-109996000D01*
X96722000Y-108583800D01*
X97882123Y-108583800D01*
X97917000Y-108587235D01*
X97951877Y-108583800D01*
X98056184Y-108573527D01*
X98190020Y-108532928D01*
X98313363Y-108467000D01*
X98421475Y-108378275D01*
X98510200Y-108270163D01*
X98576128Y-108146820D01*
X98616727Y-108012984D01*
X98630435Y-107873800D01*
X98627000Y-107838923D01*
X98627000Y-105409661D01*
X127641400Y-105409661D01*
X127641400Y-105613539D01*
X127681174Y-105813498D01*
X127759195Y-106001856D01*
X127872463Y-106171374D01*
X128016626Y-106315537D01*
X128186144Y-106428805D01*
X128374502Y-106506826D01*
X128574461Y-106546600D01*
X128778339Y-106546600D01*
X128978298Y-106506826D01*
X129166656Y-106428805D01*
X129336174Y-106315537D01*
X129480337Y-106171374D01*
X129593605Y-106001856D01*
X129671626Y-105813498D01*
X129711400Y-105613539D01*
X129711400Y-105424662D01*
X129733203Y-105352786D01*
X129744200Y-105241133D01*
X129744200Y-105241123D01*
X129747876Y-105203800D01*
X129744200Y-105166477D01*
X129744200Y-103935739D01*
X129852586Y-103877805D01*
X129987162Y-103767362D01*
X130097605Y-103632786D01*
X130179672Y-103479250D01*
X130230208Y-103312654D01*
X130247272Y-103139400D01*
X130247272Y-101889400D01*
X130230208Y-101716146D01*
X130179672Y-101549550D01*
X130097605Y-101396014D01*
X129987162Y-101261438D01*
X129852586Y-101150995D01*
X129699050Y-101068928D01*
X129532454Y-101018392D01*
X129359200Y-101001328D01*
X128609200Y-101001328D01*
X128435946Y-101018392D01*
X128269350Y-101068928D01*
X128115814Y-101150995D01*
X127981238Y-101261438D01*
X127870795Y-101396014D01*
X127788728Y-101549550D01*
X127738192Y-101716146D01*
X127721128Y-101889400D01*
X127721128Y-103139400D01*
X127738192Y-103312654D01*
X127788728Y-103479250D01*
X127870795Y-103632786D01*
X127981238Y-103767362D01*
X128115814Y-103877805D01*
X128224201Y-103935739D01*
X128224201Y-104578631D01*
X128186144Y-104594395D01*
X128016626Y-104707663D01*
X127872463Y-104851826D01*
X127759195Y-105021344D01*
X127681174Y-105209702D01*
X127641400Y-105409661D01*
X98627000Y-105409661D01*
X98627000Y-93896200D01*
X107077528Y-93896200D01*
X107089788Y-94020682D01*
X107126098Y-94140380D01*
X107185063Y-94250694D01*
X107264415Y-94347385D01*
X107361106Y-94426737D01*
X107471420Y-94485702D01*
X107591118Y-94522012D01*
X107715600Y-94534272D01*
X107867350Y-94531200D01*
X108026100Y-94372450D01*
X108026100Y-93548200D01*
X107239350Y-93548200D01*
X107080600Y-93706950D01*
X107077528Y-93896200D01*
X98627000Y-93896200D01*
X98627000Y-92946200D01*
X107077528Y-92946200D01*
X107080600Y-93135450D01*
X107239350Y-93294200D01*
X108026100Y-93294200D01*
X108026100Y-92469950D01*
X107867350Y-92311200D01*
X107715600Y-92308128D01*
X107591118Y-92320388D01*
X107471420Y-92356698D01*
X107361106Y-92415663D01*
X107264415Y-92495015D01*
X107185063Y-92591706D01*
X107126098Y-92702020D01*
X107089788Y-92821718D01*
X107077528Y-92946200D01*
X98627000Y-92946200D01*
X98627000Y-87614077D01*
X98630435Y-87579200D01*
X98616727Y-87440016D01*
X98576128Y-87306180D01*
X98510200Y-87182837D01*
X98421475Y-87074725D01*
X98313363Y-86986000D01*
X98190020Y-86920072D01*
X98056184Y-86879473D01*
X97951877Y-86869200D01*
X97917000Y-86865765D01*
X97882123Y-86869200D01*
X96722000Y-86869200D01*
X96722000Y-50494000D01*
X131370000Y-50494000D01*
X131370001Y-52670113D01*
X131370001Y-52670113D01*
G37*
X131370001Y-52670113D02*
X131366565Y-52705000D01*
X131380273Y-52844184D01*
X131420872Y-52978020D01*
X131486800Y-53101363D01*
X131575525Y-53209475D01*
X131683637Y-53298200D01*
X131806980Y-53364128D01*
X131940816Y-53404727D01*
X132045123Y-53415000D01*
X132080000Y-53418435D01*
X132114877Y-53415000D01*
X132513209Y-53415000D01*
X132278047Y-53486336D01*
X132020067Y-53624229D01*
X131793947Y-53809801D01*
X131608375Y-54035921D01*
X131579081Y-54090726D01*
X131549787Y-54035921D01*
X131364215Y-53809801D01*
X131138095Y-53624229D01*
X130880115Y-53486336D01*
X130600192Y-53401422D01*
X130382031Y-53379935D01*
X130236131Y-53379935D01*
X130017970Y-53401422D01*
X129738047Y-53486336D01*
X129480067Y-53624229D01*
X129253947Y-53809801D01*
X129068375Y-54035921D01*
X129039081Y-54090726D01*
X129009787Y-54035921D01*
X128824215Y-53809801D01*
X128598095Y-53624229D01*
X128340115Y-53486336D01*
X128060192Y-53401422D01*
X127842031Y-53379935D01*
X127696131Y-53379935D01*
X127477970Y-53401422D01*
X127198047Y-53486336D01*
X126940067Y-53624229D01*
X126713947Y-53809801D01*
X126528375Y-54035921D01*
X126499081Y-54090726D01*
X126469787Y-54035921D01*
X126284215Y-53809801D01*
X126058095Y-53624229D01*
X125800115Y-53486336D01*
X125520192Y-53401422D01*
X125302031Y-53379935D01*
X125156131Y-53379935D01*
X124937970Y-53401422D01*
X124658047Y-53486336D01*
X124400067Y-53624229D01*
X124173947Y-53809801D01*
X123988375Y-54035921D01*
X123959081Y-54090726D01*
X123929787Y-54035921D01*
X123744215Y-53809801D01*
X123518095Y-53624229D01*
X123260115Y-53486336D01*
X122980192Y-53401422D01*
X122762031Y-53379935D01*
X122616131Y-53379935D01*
X122397970Y-53401422D01*
X122118047Y-53486336D01*
X121860067Y-53624229D01*
X121633947Y-53809801D01*
X121448375Y-54035921D01*
X121419081Y-54090726D01*
X121389787Y-54035921D01*
X121204215Y-53809801D01*
X120978095Y-53624229D01*
X120720115Y-53486336D01*
X120440192Y-53401422D01*
X120222031Y-53379935D01*
X120076131Y-53379935D01*
X119857970Y-53401422D01*
X119578047Y-53486336D01*
X119320067Y-53624229D01*
X119093947Y-53809801D01*
X118908375Y-54035921D01*
X118879081Y-54090726D01*
X118849787Y-54035921D01*
X118664215Y-53809801D01*
X118438095Y-53624229D01*
X118180115Y-53486336D01*
X117900192Y-53401422D01*
X117682031Y-53379935D01*
X117536131Y-53379935D01*
X117317970Y-53401422D01*
X117038047Y-53486336D01*
X116780067Y-53624229D01*
X116553947Y-53809801D01*
X116368375Y-54035921D01*
X116339081Y-54090726D01*
X116309787Y-54035921D01*
X116124215Y-53809801D01*
X115898095Y-53624229D01*
X115640115Y-53486336D01*
X115360192Y-53401422D01*
X115142031Y-53379935D01*
X114996131Y-53379935D01*
X114777970Y-53401422D01*
X114498047Y-53486336D01*
X114240067Y-53624229D01*
X114013947Y-53809801D01*
X113828375Y-54035921D01*
X113799081Y-54090726D01*
X113769787Y-54035921D01*
X113584215Y-53809801D01*
X113358095Y-53624229D01*
X113100115Y-53486336D01*
X112820192Y-53401422D01*
X112602031Y-53379935D01*
X112456131Y-53379935D01*
X112237970Y-53401422D01*
X111958047Y-53486336D01*
X111700067Y-53624229D01*
X111473947Y-53809801D01*
X111288375Y-54035921D01*
X111259081Y-54090726D01*
X111229787Y-54035921D01*
X111044215Y-53809801D01*
X110818095Y-53624229D01*
X110560115Y-53486336D01*
X110280192Y-53401422D01*
X110062031Y-53379935D01*
X109916131Y-53379935D01*
X109697970Y-53401422D01*
X109418047Y-53486336D01*
X109160067Y-53624229D01*
X108933947Y-53809801D01*
X108748375Y-54035921D01*
X108656221Y-54208329D01*
X108565584Y-53752664D01*
X108278378Y-53059288D01*
X107861420Y-52435267D01*
X107330733Y-51904580D01*
X106706712Y-51487622D01*
X106013336Y-51200416D01*
X105277252Y-51054000D01*
X104526748Y-51054000D01*
X103790664Y-51200416D01*
X103097288Y-51487622D01*
X102473267Y-51904580D01*
X101942580Y-52435267D01*
X101525622Y-53059288D01*
X101238416Y-53752664D01*
X101092000Y-54488748D01*
X101092000Y-55239252D01*
X101238416Y-55975336D01*
X101525622Y-56668712D01*
X101942580Y-57292733D01*
X102473267Y-57823420D01*
X103097288Y-58240378D01*
X103790664Y-58527584D01*
X104526748Y-58674000D01*
X105277252Y-58674000D01*
X106013336Y-58527584D01*
X106706712Y-58240378D01*
X107330733Y-57823420D01*
X107861420Y-57292733D01*
X108278378Y-56668712D01*
X108565584Y-55975336D01*
X108655950Y-55521034D01*
X108748375Y-55693949D01*
X108933947Y-55920069D01*
X108963768Y-55944542D01*
X108894901Y-55965433D01*
X108784587Y-56024398D01*
X108687896Y-56103750D01*
X108608544Y-56200441D01*
X108549579Y-56310755D01*
X108513269Y-56430453D01*
X108501009Y-56554935D01*
X108501009Y-58254935D01*
X108513269Y-58379417D01*
X108549579Y-58499115D01*
X108608544Y-58609429D01*
X108687896Y-58706120D01*
X108784587Y-58785472D01*
X108894901Y-58844437D01*
X108963768Y-58865328D01*
X108933947Y-58889801D01*
X108748375Y-59115921D01*
X108610482Y-59373901D01*
X108525568Y-59653824D01*
X108496896Y-59944935D01*
X108525568Y-60236046D01*
X108610482Y-60515969D01*
X108748375Y-60773949D01*
X108933947Y-61000069D01*
X108963768Y-61024542D01*
X108894901Y-61045433D01*
X108784587Y-61104398D01*
X108687896Y-61183750D01*
X108608544Y-61280441D01*
X108549579Y-61390755D01*
X108513269Y-61510453D01*
X108501009Y-61634935D01*
X108501009Y-63334935D01*
X108513269Y-63459417D01*
X108549579Y-63579115D01*
X108608544Y-63689429D01*
X108687896Y-63786120D01*
X108784587Y-63865472D01*
X108894901Y-63924437D01*
X109014599Y-63960747D01*
X109139081Y-63973007D01*
X109709333Y-63973007D01*
X109690800Y-63988217D01*
X109667002Y-64017215D01*
X109667001Y-64017216D01*
X109595826Y-64103942D01*
X109525254Y-64235972D01*
X109481798Y-64379233D01*
X109467124Y-64528218D01*
X109470801Y-64565550D01*
X109470800Y-75967360D01*
X109391318Y-75975188D01*
X109271620Y-76011498D01*
X109161306Y-76070463D01*
X109064615Y-76149815D01*
X108985263Y-76246506D01*
X108926298Y-76356820D01*
X108889988Y-76476518D01*
X108877728Y-76601000D01*
X108877728Y-76912928D01*
X107595800Y-76912928D01*
X107471318Y-76925188D01*
X107351620Y-76961498D01*
X107241306Y-77020463D01*
X107155356Y-77091000D01*
X105275055Y-77091000D01*
X105274137Y-77089626D01*
X105129974Y-76945463D01*
X104960456Y-76832195D01*
X104772098Y-76754174D01*
X104572139Y-76714400D01*
X104368261Y-76714400D01*
X104168302Y-76754174D01*
X103979944Y-76832195D01*
X103810426Y-76945463D01*
X103666263Y-77089626D01*
X103552995Y-77259144D01*
X103474974Y-77447502D01*
X103435200Y-77647461D01*
X103435200Y-77851339D01*
X103474974Y-78051298D01*
X103552995Y-78239656D01*
X103666263Y-78409174D01*
X103810426Y-78553337D01*
X103979944Y-78666605D01*
X104168302Y-78744626D01*
X104368261Y-78784400D01*
X104572139Y-78784400D01*
X104772098Y-78744626D01*
X104960456Y-78666605D01*
X105043675Y-78611000D01*
X107155356Y-78611000D01*
X107241306Y-78681537D01*
X107351620Y-78740502D01*
X107471318Y-78776812D01*
X107595800Y-78789072D01*
X108877728Y-78789072D01*
X108877728Y-79101000D01*
X108889988Y-79225482D01*
X108926298Y-79345180D01*
X108985263Y-79455494D01*
X109064615Y-79552185D01*
X109161306Y-79631537D01*
X109271620Y-79690502D01*
X109391318Y-79726812D01*
X109515800Y-79739072D01*
X110509071Y-79739072D01*
X113664001Y-82894003D01*
X113664000Y-85319661D01*
X113555614Y-85377595D01*
X113421038Y-85488038D01*
X113310595Y-85622614D01*
X113228528Y-85776150D01*
X113177992Y-85942746D01*
X113160928Y-86116000D01*
X113160928Y-87366000D01*
X113177992Y-87539254D01*
X113228528Y-87705850D01*
X113310595Y-87859386D01*
X113421038Y-87993962D01*
X113555614Y-88104405D01*
X113664000Y-88162339D01*
X113664000Y-88410497D01*
X109766371Y-92308128D01*
X109509350Y-92308128D01*
X109342192Y-92324592D01*
X109181458Y-92373350D01*
X109033325Y-92452529D01*
X109011670Y-92470300D01*
X108945094Y-92415663D01*
X108834780Y-92356698D01*
X108715082Y-92320388D01*
X108590600Y-92308128D01*
X108438850Y-92311200D01*
X108280100Y-92469950D01*
X108280100Y-93294200D01*
X108300100Y-93294200D01*
X108300100Y-93548200D01*
X108280100Y-93548200D01*
X108280100Y-94372450D01*
X108438850Y-94531200D01*
X108590600Y-94534272D01*
X108715082Y-94522012D01*
X108834780Y-94485702D01*
X108945094Y-94426737D01*
X109011670Y-94372100D01*
X109033325Y-94389871D01*
X109181458Y-94469050D01*
X109342192Y-94517808D01*
X109509350Y-94534272D01*
X109946850Y-94534272D01*
X110114008Y-94517808D01*
X110274742Y-94469050D01*
X110422875Y-94389871D01*
X110552715Y-94283315D01*
X110659271Y-94153475D01*
X110738450Y-94005342D01*
X110787208Y-93844608D01*
X110803672Y-93677450D01*
X110803672Y-93420429D01*
X114935009Y-89289094D01*
X114964001Y-89265301D01*
X114987795Y-89236308D01*
X114987799Y-89236304D01*
X115058973Y-89149577D01*
X115058974Y-89149576D01*
X115129546Y-89017547D01*
X115173003Y-88874286D01*
X115184000Y-88762633D01*
X115184000Y-88762624D01*
X115187676Y-88725301D01*
X115184000Y-88687978D01*
X115184000Y-88162339D01*
X115292386Y-88104405D01*
X115426962Y-87993962D01*
X115537405Y-87859386D01*
X115619472Y-87705850D01*
X115670008Y-87539254D01*
X115687072Y-87366000D01*
X115687072Y-86116000D01*
X115670008Y-85942746D01*
X115619472Y-85776150D01*
X115537405Y-85622614D01*
X115426962Y-85488038D01*
X115292386Y-85377595D01*
X115184000Y-85319661D01*
X115184000Y-82616525D01*
X115187676Y-82579200D01*
X115184000Y-82541875D01*
X115184000Y-82541867D01*
X115173003Y-82430214D01*
X115129546Y-82286953D01*
X115058974Y-82154924D01*
X114964001Y-82039199D01*
X114935003Y-82015401D01*
X114248401Y-81328799D01*
X125200928Y-81328799D01*
X125200928Y-90269599D01*
X125213188Y-90394081D01*
X125249498Y-90513779D01*
X125308463Y-90624093D01*
X125387815Y-90720784D01*
X125484506Y-90800136D01*
X125594820Y-90859101D01*
X125714518Y-90895411D01*
X125839000Y-90907671D01*
X135999000Y-90907671D01*
X136123482Y-90895411D01*
X136243180Y-90859101D01*
X136353494Y-90800136D01*
X136450185Y-90720784D01*
X136529537Y-90624093D01*
X136588502Y-90513779D01*
X136624812Y-90394081D01*
X136637072Y-90269599D01*
X136637072Y-81328799D01*
X136624812Y-81204317D01*
X136588502Y-81084619D01*
X136529537Y-80974305D01*
X136450185Y-80877614D01*
X136353494Y-80798262D01*
X136243180Y-80739297D01*
X136123482Y-80702987D01*
X135999000Y-80690727D01*
X131668940Y-80690727D01*
X131668003Y-80681214D01*
X131624546Y-80537953D01*
X131553974Y-80405924D01*
X131482799Y-80319197D01*
X131459001Y-80290199D01*
X131430003Y-80266401D01*
X129432000Y-78268399D01*
X129432000Y-78206261D01*
X129392226Y-78006302D01*
X129314205Y-77817944D01*
X129200937Y-77648426D01*
X129056774Y-77504263D01*
X128887256Y-77390995D01*
X128698898Y-77312974D01*
X128498939Y-77273200D01*
X128295061Y-77273200D01*
X128095102Y-77312974D01*
X127906744Y-77390995D01*
X127737226Y-77504263D01*
X127593063Y-77648426D01*
X127479795Y-77817944D01*
X127401774Y-78006302D01*
X127362000Y-78206261D01*
X127362000Y-78410139D01*
X127401774Y-78610098D01*
X127479795Y-78798456D01*
X127593063Y-78967974D01*
X127737226Y-79112137D01*
X127906744Y-79225405D01*
X128095102Y-79303426D01*
X128295061Y-79343200D01*
X128357199Y-79343200D01*
X129704725Y-80690727D01*
X125839000Y-80690727D01*
X125714518Y-80702987D01*
X125594820Y-80739297D01*
X125484506Y-80798262D01*
X125387815Y-80877614D01*
X125308463Y-80974305D01*
X125249498Y-81084619D01*
X125213188Y-81204317D01*
X125200928Y-81328799D01*
X114248401Y-81328799D01*
X111583872Y-78664271D01*
X111583872Y-78501000D01*
X111571612Y-78376518D01*
X111535302Y-78256820D01*
X111476337Y-78146506D01*
X111396985Y-78049815D01*
X111300294Y-77970463D01*
X111189980Y-77911498D01*
X111070282Y-77875188D01*
X110945800Y-77862928D01*
X109663872Y-77862928D01*
X109663872Y-77839072D01*
X110945800Y-77839072D01*
X111070282Y-77826812D01*
X111189980Y-77790502D01*
X111300294Y-77731537D01*
X111396985Y-77652185D01*
X111476337Y-77555494D01*
X111535302Y-77445180D01*
X111571612Y-77325482D01*
X111583872Y-77201000D01*
X111583872Y-76601000D01*
X111571612Y-76476518D01*
X111535302Y-76356820D01*
X111476337Y-76246506D01*
X111396985Y-76149815D01*
X111300294Y-76070463D01*
X111189980Y-76011498D01*
X111070282Y-75975188D01*
X110990800Y-75967360D01*
X110990800Y-64843019D01*
X111865084Y-63968736D01*
X111894081Y-63944939D01*
X111960322Y-63864224D01*
X112237970Y-63948448D01*
X112456131Y-63969935D01*
X112602031Y-63969935D01*
X112820192Y-63948448D01*
X113100115Y-63863534D01*
X113358095Y-63725641D01*
X113584215Y-63540069D01*
X113769787Y-63313949D01*
X113799081Y-63259144D01*
X113828375Y-63313949D01*
X114013947Y-63540069D01*
X114240067Y-63725641D01*
X114498047Y-63863534D01*
X114777970Y-63948448D01*
X114996131Y-63969935D01*
X115142031Y-63969935D01*
X115360192Y-63948448D01*
X115640115Y-63863534D01*
X115898095Y-63725641D01*
X116124215Y-63540069D01*
X116309787Y-63313949D01*
X116339081Y-63259144D01*
X116368375Y-63313949D01*
X116553947Y-63540069D01*
X116780067Y-63725641D01*
X117038047Y-63863534D01*
X117317970Y-63948448D01*
X117536131Y-63969935D01*
X117682031Y-63969935D01*
X117900192Y-63948448D01*
X118180115Y-63863534D01*
X118438095Y-63725641D01*
X118664215Y-63540069D01*
X118849787Y-63313949D01*
X118879081Y-63259144D01*
X118908375Y-63313949D01*
X119093947Y-63540069D01*
X119320067Y-63725641D01*
X119578047Y-63863534D01*
X119857970Y-63948448D01*
X120076131Y-63969935D01*
X120222031Y-63969935D01*
X120440192Y-63948448D01*
X120720115Y-63863534D01*
X120978095Y-63725641D01*
X121204215Y-63540069D01*
X121389787Y-63313949D01*
X121419081Y-63259144D01*
X121448375Y-63313949D01*
X121633947Y-63540069D01*
X121860067Y-63725641D01*
X122118047Y-63863534D01*
X122397970Y-63948448D01*
X122616131Y-63969935D01*
X122762031Y-63969935D01*
X122980192Y-63948448D01*
X123260115Y-63863534D01*
X123518095Y-63725641D01*
X123744215Y-63540069D01*
X123929787Y-63313949D01*
X123959081Y-63259144D01*
X123988375Y-63313949D01*
X124173947Y-63540069D01*
X124400067Y-63725641D01*
X124658047Y-63863534D01*
X124937970Y-63948448D01*
X125156131Y-63969935D01*
X125302031Y-63969935D01*
X125520192Y-63948448D01*
X125800115Y-63863534D01*
X126058095Y-63725641D01*
X126284215Y-63540069D01*
X126469787Y-63313949D01*
X126499081Y-63259144D01*
X126528375Y-63313949D01*
X126713947Y-63540069D01*
X126940067Y-63725641D01*
X127198047Y-63863534D01*
X127477970Y-63948448D01*
X127696131Y-63969935D01*
X127842031Y-63969935D01*
X128060192Y-63948448D01*
X128340115Y-63863534D01*
X128598095Y-63725641D01*
X128824215Y-63540069D01*
X129009787Y-63313949D01*
X129039081Y-63259144D01*
X129068375Y-63313949D01*
X129253947Y-63540069D01*
X129480067Y-63725641D01*
X129738047Y-63863534D01*
X130017970Y-63948448D01*
X130236131Y-63969935D01*
X130382031Y-63969935D01*
X130600192Y-63948448D01*
X130880115Y-63863534D01*
X131138095Y-63725641D01*
X131364215Y-63540069D01*
X131549787Y-63313949D01*
X131579081Y-63259144D01*
X131608375Y-63313949D01*
X131793947Y-63540069D01*
X132020067Y-63725641D01*
X132278047Y-63863534D01*
X132557970Y-63948448D01*
X132776131Y-63969935D01*
X132922031Y-63969935D01*
X133140192Y-63948448D01*
X133420115Y-63863534D01*
X133678095Y-63725641D01*
X133904215Y-63540069D01*
X134089787Y-63313949D01*
X134119081Y-63259144D01*
X134148375Y-63313949D01*
X134333947Y-63540069D01*
X134560067Y-63725641D01*
X134818047Y-63863534D01*
X135097970Y-63948448D01*
X135316131Y-63969935D01*
X135462031Y-63969935D01*
X135680192Y-63948448D01*
X135960115Y-63863534D01*
X136218095Y-63725641D01*
X136444215Y-63540069D01*
X136629787Y-63313949D01*
X136659081Y-63259144D01*
X136688375Y-63313949D01*
X136873947Y-63540069D01*
X137100067Y-63725641D01*
X137358047Y-63863534D01*
X137637970Y-63948448D01*
X137856131Y-63969935D01*
X138002031Y-63969935D01*
X138220192Y-63948448D01*
X138303000Y-63923328D01*
X138303000Y-101957600D01*
X135036402Y-101957600D01*
X132512439Y-99433638D01*
X132671856Y-99367605D01*
X132841374Y-99254337D01*
X132985537Y-99110174D01*
X133098805Y-98940656D01*
X133176826Y-98752298D01*
X133216600Y-98552339D01*
X133216600Y-98348461D01*
X133176826Y-98148502D01*
X133098805Y-97960144D01*
X132985537Y-97790626D01*
X132941600Y-97746689D01*
X132941600Y-96969840D01*
X133027200Y-96978271D01*
X133890800Y-96978271D01*
X134015282Y-96966011D01*
X134094000Y-96942132D01*
X134172718Y-96966011D01*
X134297200Y-96978271D01*
X134443250Y-96975199D01*
X134602000Y-96816449D01*
X134602000Y-95120999D01*
X134856000Y-95120999D01*
X134856000Y-96816449D01*
X135014750Y-96975199D01*
X135160800Y-96978271D01*
X135285282Y-96966011D01*
X135404980Y-96929701D01*
X135515294Y-96870736D01*
X135611985Y-96791384D01*
X135691337Y-96694693D01*
X135750302Y-96584379D01*
X135786612Y-96464681D01*
X135798872Y-96340199D01*
X135795800Y-95279749D01*
X135637050Y-95120999D01*
X134856000Y-95120999D01*
X134602000Y-95120999D01*
X134582000Y-95120999D01*
X134582000Y-94866999D01*
X134602000Y-94866999D01*
X134602000Y-93171549D01*
X134856000Y-93171549D01*
X134856000Y-94866999D01*
X135637050Y-94866999D01*
X135795800Y-94708249D01*
X135798872Y-93647799D01*
X135786612Y-93523317D01*
X135750302Y-93403619D01*
X135691337Y-93293305D01*
X135611985Y-93196614D01*
X135515294Y-93117262D01*
X135404980Y-93058297D01*
X135285282Y-93021987D01*
X135160800Y-93009727D01*
X135014750Y-93012799D01*
X134856000Y-93171549D01*
X134602000Y-93171549D01*
X134443250Y-93012799D01*
X134297200Y-93009727D01*
X134172718Y-93021987D01*
X134094000Y-93045866D01*
X134015282Y-93021987D01*
X133890800Y-93009727D01*
X133027200Y-93009727D01*
X132902718Y-93021987D01*
X132824000Y-93045866D01*
X132745282Y-93021987D01*
X132620800Y-93009727D01*
X131757200Y-93009727D01*
X131632718Y-93021987D01*
X131554000Y-93045866D01*
X131475282Y-93021987D01*
X131350800Y-93009727D01*
X130487200Y-93009727D01*
X130362718Y-93021987D01*
X130284000Y-93045866D01*
X130205282Y-93021987D01*
X130080800Y-93009727D01*
X129217200Y-93009727D01*
X129092718Y-93021987D01*
X129014000Y-93045866D01*
X128935282Y-93021987D01*
X128810800Y-93009727D01*
X127947200Y-93009727D01*
X127822718Y-93021987D01*
X127744000Y-93045866D01*
X127665282Y-93021987D01*
X127540800Y-93009727D01*
X126677200Y-93009727D01*
X126552718Y-93021987D01*
X126433020Y-93058297D01*
X126322706Y-93117262D01*
X126226015Y-93196614D01*
X126146663Y-93293305D01*
X126087698Y-93403619D01*
X126051388Y-93523317D01*
X126039128Y-93647799D01*
X126039128Y-94312200D01*
X122367311Y-94312200D01*
X122284988Y-94188995D01*
X122092005Y-93996012D01*
X121865080Y-93844386D01*
X121612935Y-93739944D01*
X121345260Y-93686700D01*
X121072340Y-93686700D01*
X120804665Y-93739944D01*
X120552520Y-93844386D01*
X120325595Y-93996012D01*
X120132612Y-94188995D01*
X119980986Y-94415920D01*
X119938800Y-94517766D01*
X119896614Y-94415920D01*
X119744988Y-94188995D01*
X119552005Y-93996012D01*
X119325080Y-93844386D01*
X119072935Y-93739944D01*
X118805260Y-93686700D01*
X118532340Y-93686700D01*
X118264665Y-93739944D01*
X118012520Y-93844386D01*
X117984000Y-93863442D01*
X117984000Y-88162339D01*
X118092386Y-88104405D01*
X118226962Y-87993962D01*
X118337405Y-87859386D01*
X118419472Y-87705850D01*
X118470008Y-87539254D01*
X118487072Y-87366000D01*
X118487072Y-86116000D01*
X118470008Y-85942746D01*
X118419472Y-85776150D01*
X118337405Y-85622614D01*
X118226962Y-85488038D01*
X118092386Y-85377595D01*
X117938850Y-85295528D01*
X117772254Y-85244992D01*
X117599000Y-85227928D01*
X116849000Y-85227928D01*
X116675746Y-85244992D01*
X116509150Y-85295528D01*
X116355614Y-85377595D01*
X116221038Y-85488038D01*
X116110595Y-85622614D01*
X116028528Y-85776150D01*
X115977992Y-85942746D01*
X115960928Y-86116000D01*
X115960928Y-87366000D01*
X115977992Y-87539254D01*
X116028528Y-87705850D01*
X116110595Y-87859386D01*
X116221038Y-87993962D01*
X116355614Y-88104405D01*
X116464000Y-88162339D01*
X116464001Y-93662197D01*
X116410590Y-93715608D01*
X116265260Y-93686700D01*
X115992340Y-93686700D01*
X115724665Y-93739944D01*
X115472520Y-93844386D01*
X115245595Y-93996012D01*
X115052612Y-94188995D01*
X114900986Y-94415920D01*
X114796544Y-94668065D01*
X114743300Y-94935740D01*
X114743300Y-95208660D01*
X114796544Y-95476335D01*
X114900986Y-95728480D01*
X115052612Y-95955405D01*
X115245595Y-96148388D01*
X115472520Y-96300014D01*
X115724665Y-96404456D01*
X115992340Y-96457700D01*
X116265260Y-96457700D01*
X116532935Y-96404456D01*
X116785080Y-96300014D01*
X117012005Y-96148388D01*
X117204988Y-95955405D01*
X117356614Y-95728480D01*
X117398800Y-95626634D01*
X117440986Y-95728480D01*
X117592612Y-95955405D01*
X117785595Y-96148388D01*
X118012520Y-96300014D01*
X118264665Y-96404456D01*
X118532340Y-96457700D01*
X118805260Y-96457700D01*
X119072935Y-96404456D01*
X119325080Y-96300014D01*
X119552005Y-96148388D01*
X119744988Y-95955405D01*
X119896614Y-95728480D01*
X119938800Y-95626634D01*
X119980986Y-95728480D01*
X120132612Y-95955405D01*
X120325595Y-96148388D01*
X120552520Y-96300014D01*
X120804665Y-96404456D01*
X121072340Y-96457700D01*
X121345260Y-96457700D01*
X121612935Y-96404456D01*
X121865080Y-96300014D01*
X122092005Y-96148388D01*
X122284988Y-95955405D01*
X122367311Y-95832200D01*
X126039128Y-95832200D01*
X126039128Y-96340199D01*
X126051388Y-96464681D01*
X126087698Y-96584379D01*
X126146663Y-96694693D01*
X126226015Y-96791384D01*
X126322706Y-96870736D01*
X126433020Y-96929701D01*
X126552718Y-96966011D01*
X126677200Y-96978271D01*
X127540800Y-96978271D01*
X127619000Y-96970569D01*
X127619000Y-97747198D01*
X127370999Y-97995200D01*
X122130933Y-97995200D01*
X122093600Y-97991523D01*
X122056267Y-97995200D01*
X121944614Y-98006197D01*
X121801353Y-98049654D01*
X121669324Y-98120226D01*
X121553599Y-98215199D01*
X121529801Y-98244197D01*
X119300798Y-100473201D01*
X119271800Y-100496999D01*
X119248002Y-100525997D01*
X119248001Y-100525998D01*
X119208119Y-100574594D01*
X119079525Y-100643329D01*
X118949685Y-100749885D01*
X118843129Y-100879725D01*
X118763950Y-101027858D01*
X118715192Y-101188592D01*
X118698728Y-101355750D01*
X118698728Y-101793250D01*
X118715192Y-101960408D01*
X118763950Y-102121142D01*
X118843129Y-102269275D01*
X118919226Y-102362000D01*
X118843129Y-102454725D01*
X118763950Y-102602858D01*
X118715192Y-102763592D01*
X118698728Y-102930750D01*
X118698728Y-103368250D01*
X118715192Y-103535408D01*
X118763950Y-103696142D01*
X118843129Y-103844275D01*
X118949685Y-103974115D01*
X119079525Y-104080671D01*
X119227658Y-104159850D01*
X119388392Y-104208608D01*
X119555550Y-104225072D01*
X120068050Y-104225072D01*
X120235208Y-104208608D01*
X120395942Y-104159850D01*
X120544075Y-104080671D01*
X120673915Y-103974115D01*
X120726943Y-103909500D01*
X125375111Y-103909500D01*
X125469350Y-103959872D01*
X125635946Y-104010408D01*
X125809200Y-104027472D01*
X126559200Y-104027472D01*
X126732454Y-104010408D01*
X126899050Y-103959872D01*
X127052586Y-103877805D01*
X127187162Y-103767362D01*
X127297605Y-103632786D01*
X127379672Y-103479250D01*
X127430208Y-103312654D01*
X127447272Y-103139400D01*
X127447272Y-101889400D01*
X127430208Y-101716146D01*
X127379672Y-101549550D01*
X127297605Y-101396014D01*
X127187162Y-101261438D01*
X127052586Y-101150995D01*
X126899050Y-101068928D01*
X126732454Y-101018392D01*
X126559200Y-101001328D01*
X125809200Y-101001328D01*
X125635946Y-101018392D01*
X125469350Y-101068928D01*
X125315814Y-101150995D01*
X125181238Y-101261438D01*
X125070795Y-101396014D01*
X124988728Y-101549550D01*
X124938192Y-101716146D01*
X124921128Y-101889400D01*
X124921128Y-102389500D01*
X120726943Y-102389500D01*
X120704374Y-102362000D01*
X120780471Y-102269275D01*
X120859650Y-102121142D01*
X120908408Y-101960408D01*
X120924872Y-101793250D01*
X120924872Y-101355750D01*
X120908408Y-101188592D01*
X120868050Y-101055551D01*
X122408402Y-99515200D01*
X127648478Y-99515200D01*
X127685800Y-99518876D01*
X127723122Y-99515200D01*
X127723133Y-99515200D01*
X127834786Y-99504203D01*
X127978047Y-99460746D01*
X128110076Y-99390174D01*
X128225801Y-99295201D01*
X128249603Y-99266198D01*
X128890004Y-98625798D01*
X128919001Y-98602001D01*
X129013974Y-98486276D01*
X129084546Y-98354247D01*
X129128003Y-98210986D01*
X129128950Y-98201374D01*
X129138003Y-98208804D01*
X131782236Y-100853038D01*
X131625702Y-100884174D01*
X131437344Y-100962195D01*
X131267826Y-101075463D01*
X131123663Y-101219626D01*
X131010395Y-101389144D01*
X130932374Y-101577502D01*
X130892600Y-101777461D01*
X130892600Y-101981339D01*
X130932374Y-102181298D01*
X131010395Y-102369656D01*
X131123663Y-102539174D01*
X131267826Y-102683337D01*
X131437344Y-102796605D01*
X131625702Y-102874626D01*
X131825661Y-102914400D01*
X131887799Y-102914400D01*
X133479001Y-104505603D01*
X133479000Y-106184328D01*
X132439000Y-106184328D01*
X132226728Y-106205235D01*
X132022613Y-106267153D01*
X131834500Y-106367701D01*
X131669617Y-106503017D01*
X131534301Y-106667900D01*
X131433753Y-106856013D01*
X131371835Y-107060128D01*
X131350928Y-107272400D01*
X131350928Y-108172400D01*
X131371835Y-108384672D01*
X131433753Y-108588787D01*
X131534301Y-108776900D01*
X131669617Y-108941783D01*
X131834500Y-109077099D01*
X132022613Y-109177647D01*
X132226728Y-109239565D01*
X132439000Y-109260472D01*
X136039000Y-109260472D01*
X136251272Y-109239565D01*
X136455387Y-109177647D01*
X136643500Y-109077099D01*
X136808383Y-108941783D01*
X136943699Y-108776900D01*
X137044247Y-108588787D01*
X137076519Y-108482400D01*
X138303000Y-108482400D01*
X138303000Y-142038000D01*
X132114877Y-142038000D01*
X132080000Y-142034565D01*
X132045123Y-142038000D01*
X131940816Y-142048273D01*
X131806980Y-142088872D01*
X131683637Y-142154800D01*
X131575525Y-142243525D01*
X131486800Y-142351637D01*
X131420872Y-142474980D01*
X131380273Y-142608816D01*
X131366565Y-142748000D01*
X131370001Y-142782887D01*
X131370000Y-144959000D01*
X96722000Y-144959000D01*
X96722000Y-140213748D01*
X97282000Y-140213748D01*
X97282000Y-140964252D01*
X97428416Y-141700336D01*
X97715622Y-142393712D01*
X98132580Y-143017733D01*
X98663267Y-143548420D01*
X99287288Y-143965378D01*
X99980664Y-144252584D01*
X100716748Y-144399000D01*
X101467252Y-144399000D01*
X102203336Y-144252584D01*
X102896712Y-143965378D01*
X103520733Y-143548420D01*
X104051420Y-143017733D01*
X104468378Y-142393712D01*
X104755584Y-141700336D01*
X104902000Y-140964252D01*
X104902000Y-140213748D01*
X104755584Y-139477664D01*
X104468378Y-138784288D01*
X104051420Y-138160267D01*
X103520733Y-137629580D01*
X102896712Y-137212622D01*
X102203336Y-136925416D01*
X101467252Y-136779000D01*
X100716748Y-136779000D01*
X99980664Y-136925416D01*
X99287288Y-137212622D01*
X98663267Y-137629580D01*
X98132580Y-138160267D01*
X97715622Y-138784288D01*
X97428416Y-139477664D01*
X97282000Y-140213748D01*
X96722000Y-140213748D01*
X96722000Y-113944061D01*
X121647000Y-113944061D01*
X121647000Y-114147939D01*
X121686774Y-114347898D01*
X121764795Y-114536256D01*
X121878063Y-114705774D01*
X122022226Y-114849937D01*
X122191744Y-114963205D01*
X122380102Y-115041226D01*
X122580061Y-115081000D01*
X122783939Y-115081000D01*
X122983898Y-115041226D01*
X123172256Y-114963205D01*
X123341774Y-114849937D01*
X123485937Y-114705774D01*
X123599205Y-114536256D01*
X123677226Y-114347898D01*
X123717000Y-114147939D01*
X123717000Y-113959062D01*
X123738803Y-113887186D01*
X123749800Y-113775533D01*
X123749800Y-113775523D01*
X123753476Y-113738200D01*
X123749800Y-113700877D01*
X123749800Y-112292339D01*
X123858186Y-112234405D01*
X123992762Y-112123962D01*
X124103205Y-111989386D01*
X124139009Y-111922400D01*
X131350928Y-111922400D01*
X131363188Y-112046882D01*
X131399498Y-112166580D01*
X131458463Y-112276894D01*
X131537815Y-112373585D01*
X131634506Y-112452937D01*
X131744820Y-112511902D01*
X131864518Y-112548212D01*
X131989000Y-112560472D01*
X133953250Y-112557400D01*
X134112000Y-112398650D01*
X134112000Y-111149400D01*
X134366000Y-111149400D01*
X134366000Y-112398650D01*
X134524750Y-112557400D01*
X136489000Y-112560472D01*
X136613482Y-112548212D01*
X136733180Y-112511902D01*
X136843494Y-112452937D01*
X136940185Y-112373585D01*
X137019537Y-112276894D01*
X137078502Y-112166580D01*
X137114812Y-112046882D01*
X137127072Y-111922400D01*
X137124000Y-111308150D01*
X136965250Y-111149400D01*
X134366000Y-111149400D01*
X134112000Y-111149400D01*
X131512750Y-111149400D01*
X131354000Y-111308150D01*
X131350928Y-111922400D01*
X124139009Y-111922400D01*
X124185272Y-111835850D01*
X124235808Y-111669254D01*
X124252872Y-111496000D01*
X124252872Y-110246000D01*
X124240699Y-110122400D01*
X131350928Y-110122400D01*
X131354000Y-110736650D01*
X131512750Y-110895400D01*
X134112000Y-110895400D01*
X134112000Y-109646150D01*
X134366000Y-109646150D01*
X134366000Y-110895400D01*
X136965250Y-110895400D01*
X137124000Y-110736650D01*
X137127072Y-110122400D01*
X137114812Y-109997918D01*
X137078502Y-109878220D01*
X137019537Y-109767906D01*
X136940185Y-109671215D01*
X136843494Y-109591863D01*
X136733180Y-109532898D01*
X136613482Y-109496588D01*
X136489000Y-109484328D01*
X134524750Y-109487400D01*
X134366000Y-109646150D01*
X134112000Y-109646150D01*
X133953250Y-109487400D01*
X131989000Y-109484328D01*
X131864518Y-109496588D01*
X131744820Y-109532898D01*
X131634506Y-109591863D01*
X131537815Y-109671215D01*
X131458463Y-109767906D01*
X131399498Y-109878220D01*
X131363188Y-109997918D01*
X131350928Y-110122400D01*
X124240699Y-110122400D01*
X124235808Y-110072746D01*
X124185272Y-109906150D01*
X124103205Y-109752614D01*
X123992762Y-109618038D01*
X123858186Y-109507595D01*
X123704650Y-109425528D01*
X123538054Y-109374992D01*
X123364800Y-109357928D01*
X122614800Y-109357928D01*
X122441546Y-109374992D01*
X122274950Y-109425528D01*
X122121414Y-109507595D01*
X121986838Y-109618038D01*
X121876395Y-109752614D01*
X121794328Y-109906150D01*
X121743792Y-110072746D01*
X121726728Y-110246000D01*
X121726728Y-111496000D01*
X121743792Y-111669254D01*
X121794328Y-111835850D01*
X121876395Y-111989386D01*
X121986838Y-112123962D01*
X122121414Y-112234405D01*
X122229800Y-112292339D01*
X122229801Y-113113031D01*
X122191744Y-113128795D01*
X122022226Y-113242063D01*
X121878063Y-113386226D01*
X121764795Y-113555744D01*
X121686774Y-113744102D01*
X121647000Y-113944061D01*
X96722000Y-113944061D01*
X96722000Y-111746000D01*
X118926728Y-111746000D01*
X118938988Y-111870482D01*
X118975298Y-111990180D01*
X119034263Y-112100494D01*
X119113615Y-112197185D01*
X119210306Y-112276537D01*
X119320620Y-112335502D01*
X119440318Y-112371812D01*
X119564800Y-112384072D01*
X119904050Y-112381000D01*
X120062800Y-112222250D01*
X120062800Y-110998000D01*
X120316800Y-110998000D01*
X120316800Y-112222250D01*
X120475550Y-112381000D01*
X120814800Y-112384072D01*
X120939282Y-112371812D01*
X121058980Y-112335502D01*
X121169294Y-112276537D01*
X121265985Y-112197185D01*
X121345337Y-112100494D01*
X121404302Y-111990180D01*
X121440612Y-111870482D01*
X121452872Y-111746000D01*
X121449800Y-111156750D01*
X121291050Y-110998000D01*
X120316800Y-110998000D01*
X120062800Y-110998000D01*
X119088550Y-110998000D01*
X118929800Y-111156750D01*
X118926728Y-111746000D01*
X96722000Y-111746000D01*
X96722000Y-109996000D01*
X118926728Y-109996000D01*
X118929800Y-110585250D01*
X119088550Y-110744000D01*
X120062800Y-110744000D01*
X120062800Y-109519750D01*
X120316800Y-109519750D01*
X120316800Y-110744000D01*
X121291050Y-110744000D01*
X121449800Y-110585250D01*
X121452872Y-109996000D01*
X121440612Y-109871518D01*
X121404302Y-109751820D01*
X121345337Y-109641506D01*
X121265985Y-109544815D01*
X121169294Y-109465463D01*
X121058980Y-109406498D01*
X120939282Y-109370188D01*
X120814800Y-109357928D01*
X120475550Y-109361000D01*
X120316800Y-109519750D01*
X120062800Y-109519750D01*
X119904050Y-109361000D01*
X119564800Y-109357928D01*
X119440318Y-109370188D01*
X119320620Y-109406498D01*
X119210306Y-109465463D01*
X119113615Y-109544815D01*
X119034263Y-109641506D01*
X118975298Y-109751820D01*
X118938988Y-109871518D01*
X118926728Y-109996000D01*
X96722000Y-109996000D01*
X96722000Y-108583800D01*
X97882123Y-108583800D01*
X97917000Y-108587235D01*
X97951877Y-108583800D01*
X98056184Y-108573527D01*
X98190020Y-108532928D01*
X98313363Y-108467000D01*
X98421475Y-108378275D01*
X98510200Y-108270163D01*
X98576128Y-108146820D01*
X98616727Y-108012984D01*
X98630435Y-107873800D01*
X98627000Y-107838923D01*
X98627000Y-105409661D01*
X127641400Y-105409661D01*
X127641400Y-105613539D01*
X127681174Y-105813498D01*
X127759195Y-106001856D01*
X127872463Y-106171374D01*
X128016626Y-106315537D01*
X128186144Y-106428805D01*
X128374502Y-106506826D01*
X128574461Y-106546600D01*
X128778339Y-106546600D01*
X128978298Y-106506826D01*
X129166656Y-106428805D01*
X129336174Y-106315537D01*
X129480337Y-106171374D01*
X129593605Y-106001856D01*
X129671626Y-105813498D01*
X129711400Y-105613539D01*
X129711400Y-105424662D01*
X129733203Y-105352786D01*
X129744200Y-105241133D01*
X129744200Y-105241123D01*
X129747876Y-105203800D01*
X129744200Y-105166477D01*
X129744200Y-103935739D01*
X129852586Y-103877805D01*
X129987162Y-103767362D01*
X130097605Y-103632786D01*
X130179672Y-103479250D01*
X130230208Y-103312654D01*
X130247272Y-103139400D01*
X130247272Y-101889400D01*
X130230208Y-101716146D01*
X130179672Y-101549550D01*
X130097605Y-101396014D01*
X129987162Y-101261438D01*
X129852586Y-101150995D01*
X129699050Y-101068928D01*
X129532454Y-101018392D01*
X129359200Y-101001328D01*
X128609200Y-101001328D01*
X128435946Y-101018392D01*
X128269350Y-101068928D01*
X128115814Y-101150995D01*
X127981238Y-101261438D01*
X127870795Y-101396014D01*
X127788728Y-101549550D01*
X127738192Y-101716146D01*
X127721128Y-101889400D01*
X127721128Y-103139400D01*
X127738192Y-103312654D01*
X127788728Y-103479250D01*
X127870795Y-103632786D01*
X127981238Y-103767362D01*
X128115814Y-103877805D01*
X128224201Y-103935739D01*
X128224201Y-104578631D01*
X128186144Y-104594395D01*
X128016626Y-104707663D01*
X127872463Y-104851826D01*
X127759195Y-105021344D01*
X127681174Y-105209702D01*
X127641400Y-105409661D01*
X98627000Y-105409661D01*
X98627000Y-93896200D01*
X107077528Y-93896200D01*
X107089788Y-94020682D01*
X107126098Y-94140380D01*
X107185063Y-94250694D01*
X107264415Y-94347385D01*
X107361106Y-94426737D01*
X107471420Y-94485702D01*
X107591118Y-94522012D01*
X107715600Y-94534272D01*
X107867350Y-94531200D01*
X108026100Y-94372450D01*
X108026100Y-93548200D01*
X107239350Y-93548200D01*
X107080600Y-93706950D01*
X107077528Y-93896200D01*
X98627000Y-93896200D01*
X98627000Y-92946200D01*
X107077528Y-92946200D01*
X107080600Y-93135450D01*
X107239350Y-93294200D01*
X108026100Y-93294200D01*
X108026100Y-92469950D01*
X107867350Y-92311200D01*
X107715600Y-92308128D01*
X107591118Y-92320388D01*
X107471420Y-92356698D01*
X107361106Y-92415663D01*
X107264415Y-92495015D01*
X107185063Y-92591706D01*
X107126098Y-92702020D01*
X107089788Y-92821718D01*
X107077528Y-92946200D01*
X98627000Y-92946200D01*
X98627000Y-87614077D01*
X98630435Y-87579200D01*
X98616727Y-87440016D01*
X98576128Y-87306180D01*
X98510200Y-87182837D01*
X98421475Y-87074725D01*
X98313363Y-86986000D01*
X98190020Y-86920072D01*
X98056184Y-86879473D01*
X97951877Y-86869200D01*
X97917000Y-86865765D01*
X97882123Y-86869200D01*
X96722000Y-86869200D01*
X96722000Y-50494000D01*
X131370000Y-50494000D01*
X131370001Y-52670113D01*
G36*
X136688375Y-58233949D02*
G01*
X136873947Y-58460069D01*
X137100067Y-58645641D01*
X137154872Y-58674935D01*
X137100067Y-58704229D01*
X136873947Y-58889801D01*
X136688375Y-59115921D01*
X136659081Y-59170726D01*
X136629787Y-59115921D01*
X136444215Y-58889801D01*
X136218095Y-58704229D01*
X136163290Y-58674935D01*
X136218095Y-58645641D01*
X136444215Y-58460069D01*
X136629787Y-58233949D01*
X136659081Y-58179144D01*
X136688375Y-58233949D01*
X136688375Y-58233949D01*
G37*
X136688375Y-58233949D02*
X136873947Y-58460069D01*
X137100067Y-58645641D01*
X137154872Y-58674935D01*
X137100067Y-58704229D01*
X136873947Y-58889801D01*
X136688375Y-59115921D01*
X136659081Y-59170726D01*
X136629787Y-59115921D01*
X136444215Y-58889801D01*
X136218095Y-58704229D01*
X136163290Y-58674935D01*
X136218095Y-58645641D01*
X136444215Y-58460069D01*
X136629787Y-58233949D01*
X136659081Y-58179144D01*
X136688375Y-58233949D01*
G36*
X174898416Y-55975336D02*
G01*
X175185622Y-56668712D01*
X175602580Y-57292733D01*
X176133267Y-57823420D01*
X176757288Y-58240378D01*
X177450664Y-58527584D01*
X178186748Y-58674000D01*
X178937252Y-58674000D01*
X179673336Y-58527584D01*
X180366712Y-58240378D01*
X180900000Y-57884046D01*
X180900001Y-72736113D01*
X180896565Y-72771000D01*
X180910273Y-72910184D01*
X180950872Y-73044020D01*
X181016800Y-73167363D01*
X181105525Y-73275475D01*
X181213637Y-73364200D01*
X181336980Y-73430128D01*
X181470816Y-73470727D01*
X181575123Y-73481000D01*
X181610000Y-73484435D01*
X181644877Y-73481000D01*
X185472000Y-73481000D01*
X185472001Y-144959000D01*
X153110000Y-144959000D01*
X153110000Y-142782877D01*
X153113435Y-142748000D01*
X153099727Y-142608816D01*
X153059128Y-142474980D01*
X152993200Y-142351637D01*
X152904475Y-142243525D01*
X152796363Y-142154800D01*
X152673020Y-142088872D01*
X152539184Y-142048273D01*
X152434877Y-142038000D01*
X152400000Y-142034565D01*
X152365123Y-142038000D01*
X141611240Y-142038000D01*
X141601871Y-140213748D01*
X177292000Y-140213748D01*
X177292000Y-140964252D01*
X177438416Y-141700336D01*
X177725622Y-142393712D01*
X178142580Y-143017733D01*
X178673267Y-143548420D01*
X179297288Y-143965378D01*
X179990664Y-144252584D01*
X180726748Y-144399000D01*
X181477252Y-144399000D01*
X182213336Y-144252584D01*
X182906712Y-143965378D01*
X183530733Y-143548420D01*
X184061420Y-143017733D01*
X184478378Y-142393712D01*
X184765584Y-141700336D01*
X184912000Y-140964252D01*
X184912000Y-140213748D01*
X184765584Y-139477664D01*
X184478378Y-138784288D01*
X184061420Y-138160267D01*
X183530733Y-137629580D01*
X182906712Y-137212622D01*
X182213336Y-136925416D01*
X181477252Y-136779000D01*
X180726748Y-136779000D01*
X179990664Y-136925416D01*
X179297288Y-137212622D01*
X178673267Y-137629580D01*
X178142580Y-138160267D01*
X177725622Y-138784288D01*
X177438416Y-139477664D01*
X177292000Y-140213748D01*
X141601871Y-140213748D01*
X141443962Y-109467089D01*
X141541353Y-109519146D01*
X141684614Y-109562603D01*
X141796267Y-109573600D01*
X141796277Y-109573600D01*
X141833600Y-109577276D01*
X141870923Y-109573600D01*
X142090712Y-109573600D01*
X142111698Y-109642780D01*
X142170663Y-109753094D01*
X142250015Y-109849785D01*
X142346706Y-109929137D01*
X142457020Y-109988102D01*
X142576718Y-110024412D01*
X142701200Y-110036672D01*
X143961200Y-110036672D01*
X144085682Y-110024412D01*
X144205380Y-109988102D01*
X144315694Y-109929137D01*
X144412385Y-109849785D01*
X144491737Y-109753094D01*
X144550702Y-109642780D01*
X144587012Y-109523082D01*
X144599272Y-109398600D01*
X145113128Y-109398600D01*
X145125388Y-109523082D01*
X145161698Y-109642780D01*
X145220663Y-109753094D01*
X145300015Y-109849785D01*
X145396706Y-109929137D01*
X145507020Y-109988102D01*
X145626718Y-110024412D01*
X145751200Y-110036672D01*
X146095450Y-110033600D01*
X146254200Y-109874850D01*
X146254200Y-108940600D01*
X146508200Y-108940600D01*
X146508200Y-109874850D01*
X146666950Y-110033600D01*
X147011200Y-110036672D01*
X147135682Y-110024412D01*
X147255380Y-109988102D01*
X147365694Y-109929137D01*
X147462385Y-109849785D01*
X147541737Y-109753094D01*
X147600702Y-109642780D01*
X147637012Y-109523082D01*
X147649272Y-109398600D01*
X147646200Y-109099350D01*
X147487450Y-108940600D01*
X146508200Y-108940600D01*
X146254200Y-108940600D01*
X145274950Y-108940600D01*
X145116200Y-109099350D01*
X145113128Y-109398600D01*
X144599272Y-109398600D01*
X144599272Y-108228600D01*
X145113128Y-108228600D01*
X145116200Y-108527850D01*
X145274950Y-108686600D01*
X146254200Y-108686600D01*
X146254200Y-107752350D01*
X146508200Y-107752350D01*
X146508200Y-108686600D01*
X147487450Y-108686600D01*
X147646200Y-108527850D01*
X147649272Y-108228600D01*
X147637012Y-108104118D01*
X147600702Y-107984420D01*
X147541737Y-107874106D01*
X147462385Y-107777415D01*
X147365694Y-107698063D01*
X147255380Y-107639098D01*
X147135682Y-107602788D01*
X147011200Y-107590528D01*
X146666950Y-107593600D01*
X146508200Y-107752350D01*
X146254200Y-107752350D01*
X146095450Y-107593600D01*
X145751200Y-107590528D01*
X145626718Y-107602788D01*
X145507020Y-107639098D01*
X145396706Y-107698063D01*
X145300015Y-107777415D01*
X145220663Y-107874106D01*
X145161698Y-107984420D01*
X145125388Y-108104118D01*
X145113128Y-108228600D01*
X144599272Y-108228600D01*
X144587012Y-108104118D01*
X144550702Y-107984420D01*
X144491737Y-107874106D01*
X144412385Y-107777415D01*
X144315694Y-107698063D01*
X144205380Y-107639098D01*
X144085682Y-107602788D01*
X143961200Y-107590528D01*
X142701200Y-107590528D01*
X142576718Y-107602788D01*
X142457020Y-107639098D01*
X142346706Y-107698063D01*
X142250015Y-107777415D01*
X142170663Y-107874106D01*
X142111698Y-107984420D01*
X142104139Y-108009338D01*
X141433029Y-107338227D01*
X141413201Y-103477600D01*
X142068082Y-103477600D01*
X142151885Y-103579715D01*
X142281725Y-103686271D01*
X142429858Y-103765450D01*
X142590592Y-103814208D01*
X142757750Y-103830672D01*
X143195250Y-103830672D01*
X143362408Y-103814208D01*
X143523142Y-103765450D01*
X143671275Y-103686271D01*
X143692930Y-103668500D01*
X143759506Y-103723137D01*
X143869820Y-103782102D01*
X143989518Y-103818412D01*
X144114000Y-103830672D01*
X144265750Y-103827600D01*
X144424500Y-103668850D01*
X144424500Y-102844600D01*
X144678500Y-102844600D01*
X144678500Y-103668850D01*
X144837250Y-103827600D01*
X144989000Y-103830672D01*
X145113482Y-103818412D01*
X145233180Y-103782102D01*
X145343494Y-103723137D01*
X145440185Y-103643785D01*
X145519537Y-103547094D01*
X145578502Y-103436780D01*
X145614812Y-103317082D01*
X145627072Y-103192600D01*
X145624000Y-103003350D01*
X145465250Y-102844600D01*
X144678500Y-102844600D01*
X144424500Y-102844600D01*
X144404500Y-102844600D01*
X144404500Y-102590600D01*
X144424500Y-102590600D01*
X144424500Y-101766350D01*
X144678500Y-101766350D01*
X144678500Y-102590600D01*
X145465250Y-102590600D01*
X145624000Y-102431850D01*
X145627072Y-102242600D01*
X145614812Y-102118118D01*
X145578502Y-101998420D01*
X145519537Y-101888106D01*
X145440185Y-101791415D01*
X145343494Y-101712063D01*
X145233180Y-101653098D01*
X145113482Y-101616788D01*
X144989000Y-101604528D01*
X144837250Y-101607600D01*
X144678500Y-101766350D01*
X144424500Y-101766350D01*
X144265750Y-101607600D01*
X144114000Y-101604528D01*
X143989518Y-101616788D01*
X143869820Y-101653098D01*
X143759506Y-101712063D01*
X143736500Y-101730943D01*
X143736500Y-100480400D01*
X151577099Y-100480400D01*
X153940528Y-102843830D01*
X153940528Y-103100850D01*
X153956992Y-103268008D01*
X154005750Y-103428742D01*
X154084929Y-103576875D01*
X154191485Y-103706715D01*
X154321325Y-103813271D01*
X154469458Y-103892450D01*
X154630192Y-103941208D01*
X154797350Y-103957672D01*
X155234850Y-103957672D01*
X155402008Y-103941208D01*
X155562742Y-103892450D01*
X155710875Y-103813271D01*
X155803600Y-103737174D01*
X155896325Y-103813271D01*
X156044458Y-103892450D01*
X156205192Y-103941208D01*
X156372350Y-103957672D01*
X156809850Y-103957672D01*
X156977008Y-103941208D01*
X157137742Y-103892450D01*
X157285875Y-103813271D01*
X157415715Y-103706715D01*
X157499518Y-103604600D01*
X158585678Y-103604600D01*
X158623000Y-103608276D01*
X158660322Y-103604600D01*
X158660333Y-103604600D01*
X158771986Y-103593603D01*
X158915247Y-103550146D01*
X159047276Y-103479574D01*
X159147893Y-103397000D01*
X159207539Y-103397000D01*
X159407498Y-103357226D01*
X159595856Y-103279205D01*
X159765374Y-103165937D01*
X159909537Y-103021774D01*
X160022805Y-102852256D01*
X160100826Y-102663898D01*
X160140600Y-102463939D01*
X160140600Y-102260061D01*
X160100826Y-102060102D01*
X160022805Y-101871744D01*
X159909537Y-101702226D01*
X159765374Y-101558063D01*
X159595856Y-101444795D01*
X159407498Y-101366774D01*
X159207539Y-101327000D01*
X159003661Y-101327000D01*
X158803702Y-101366774D01*
X158615344Y-101444795D01*
X158445826Y-101558063D01*
X158301663Y-101702226D01*
X158188395Y-101871744D01*
X158110374Y-102060102D01*
X158105501Y-102084600D01*
X157499518Y-102084600D01*
X157415715Y-101982485D01*
X157285875Y-101875929D01*
X157137742Y-101796750D01*
X156977008Y-101747992D01*
X156809850Y-101731528D01*
X156372350Y-101731528D01*
X156205192Y-101747992D01*
X156044458Y-101796750D01*
X155896325Y-101875929D01*
X155803600Y-101952026D01*
X155710875Y-101875929D01*
X155562742Y-101796750D01*
X155402008Y-101747992D01*
X155234850Y-101731528D01*
X154977830Y-101731528D01*
X152455704Y-99209403D01*
X152431901Y-99180399D01*
X152316176Y-99085426D01*
X152184147Y-99014854D01*
X152040886Y-98971397D01*
X151929233Y-98960400D01*
X151929222Y-98960400D01*
X151891900Y-98956724D01*
X151854578Y-98960400D01*
X143140725Y-98960400D01*
X143103400Y-98956724D01*
X143066075Y-98960400D01*
X143066067Y-98960400D01*
X142954414Y-98971397D01*
X142811153Y-99014854D01*
X142679124Y-99085426D01*
X142563399Y-99180399D01*
X142539596Y-99209403D01*
X142465503Y-99283496D01*
X142436499Y-99307299D01*
X142381371Y-99374474D01*
X142341526Y-99423024D01*
X142338784Y-99428154D01*
X142270954Y-99555054D01*
X142227497Y-99698315D01*
X142216500Y-99809968D01*
X142216500Y-99809978D01*
X142212824Y-99847300D01*
X142216500Y-99884623D01*
X142216501Y-101802457D01*
X142151885Y-101855485D01*
X142068082Y-101957600D01*
X141405395Y-101957600D01*
X141351046Y-91375200D01*
X144326728Y-91375200D01*
X144338988Y-91499682D01*
X144375298Y-91619380D01*
X144434263Y-91729694D01*
X144513615Y-91826385D01*
X144610306Y-91905737D01*
X144720620Y-91964702D01*
X144840318Y-92001012D01*
X144964800Y-92013272D01*
X145304050Y-92010200D01*
X145462800Y-91851450D01*
X145462800Y-90627200D01*
X145716800Y-90627200D01*
X145716800Y-91851450D01*
X145875550Y-92010200D01*
X146214800Y-92013272D01*
X146339282Y-92001012D01*
X146458980Y-91964702D01*
X146569294Y-91905737D01*
X146665985Y-91826385D01*
X146745337Y-91729694D01*
X146804302Y-91619380D01*
X146840612Y-91499682D01*
X146852872Y-91375200D01*
X146849800Y-90785950D01*
X146691050Y-90627200D01*
X145716800Y-90627200D01*
X145462800Y-90627200D01*
X144488550Y-90627200D01*
X144329800Y-90785950D01*
X144326728Y-91375200D01*
X141351046Y-91375200D01*
X141342059Y-89625200D01*
X144326728Y-89625200D01*
X144329800Y-90214450D01*
X144488550Y-90373200D01*
X145462800Y-90373200D01*
X145462800Y-89148950D01*
X145716800Y-89148950D01*
X145716800Y-90373200D01*
X146691050Y-90373200D01*
X146849800Y-90214450D01*
X146851568Y-89875200D01*
X147126728Y-89875200D01*
X147126728Y-91125200D01*
X147143792Y-91298454D01*
X147194328Y-91465050D01*
X147276395Y-91618586D01*
X147386838Y-91753162D01*
X147521414Y-91863605D01*
X147674950Y-91945672D01*
X147841546Y-91996208D01*
X148014800Y-92013272D01*
X148764800Y-92013272D01*
X148938054Y-91996208D01*
X149104650Y-91945672D01*
X149258186Y-91863605D01*
X149392762Y-91753162D01*
X149503205Y-91618586D01*
X149585272Y-91465050D01*
X149635808Y-91298454D01*
X149639576Y-91260200D01*
X150908889Y-91260200D01*
X150952826Y-91304137D01*
X151122344Y-91417405D01*
X151310702Y-91495426D01*
X151510661Y-91535200D01*
X151714539Y-91535200D01*
X151914498Y-91495426D01*
X152102856Y-91417405D01*
X152272374Y-91304137D01*
X152416537Y-91159974D01*
X152529805Y-90990456D01*
X152607826Y-90802098D01*
X152647600Y-90602139D01*
X152647600Y-90398261D01*
X152607826Y-90198302D01*
X152529805Y-90009944D01*
X152416537Y-89840426D01*
X152272374Y-89696263D01*
X152102856Y-89582995D01*
X151914498Y-89504974D01*
X151714539Y-89465200D01*
X151510661Y-89465200D01*
X151310702Y-89504974D01*
X151122344Y-89582995D01*
X150952826Y-89696263D01*
X150908889Y-89740200D01*
X149639576Y-89740200D01*
X149635808Y-89701946D01*
X149585272Y-89535350D01*
X149503205Y-89381814D01*
X149392762Y-89247238D01*
X149258186Y-89136795D01*
X149104650Y-89054728D01*
X148938054Y-89004192D01*
X148764800Y-88987128D01*
X148014800Y-88987128D01*
X147841546Y-89004192D01*
X147674950Y-89054728D01*
X147521414Y-89136795D01*
X147386838Y-89247238D01*
X147276395Y-89381814D01*
X147194328Y-89535350D01*
X147143792Y-89701946D01*
X147126728Y-89875200D01*
X146851568Y-89875200D01*
X146852872Y-89625200D01*
X146840612Y-89500718D01*
X146804302Y-89381020D01*
X146745337Y-89270706D01*
X146665985Y-89174015D01*
X146569294Y-89094663D01*
X146458980Y-89035698D01*
X146339282Y-88999388D01*
X146214800Y-88987128D01*
X145875550Y-88990200D01*
X145716800Y-89148950D01*
X145462800Y-89148950D01*
X145304050Y-88990200D01*
X144964800Y-88987128D01*
X144840318Y-88999388D01*
X144720620Y-89035698D01*
X144610306Y-89094663D01*
X144513615Y-89174015D01*
X144434263Y-89270706D01*
X144375298Y-89381020D01*
X144338988Y-89500718D01*
X144326728Y-89625200D01*
X141342059Y-89625200D01*
X141223136Y-66469800D01*
X141485896Y-66469800D01*
X141523218Y-66473476D01*
X141560540Y-66469800D01*
X141560551Y-66469800D01*
X141672204Y-66458803D01*
X141815465Y-66415346D01*
X141947494Y-66344774D01*
X142063219Y-66249801D01*
X142087022Y-66220797D01*
X144644333Y-63663487D01*
X144720067Y-63725641D01*
X144978047Y-63863534D01*
X145257970Y-63948448D01*
X145476131Y-63969935D01*
X145622031Y-63969935D01*
X145840192Y-63948448D01*
X146120115Y-63863534D01*
X146378095Y-63725641D01*
X146604215Y-63540069D01*
X146789787Y-63313949D01*
X146819081Y-63259144D01*
X146848375Y-63313949D01*
X147033947Y-63540069D01*
X147260067Y-63725641D01*
X147518047Y-63863534D01*
X147797970Y-63948448D01*
X148016131Y-63969935D01*
X148162031Y-63969935D01*
X148380192Y-63948448D01*
X148660115Y-63863534D01*
X148918095Y-63725641D01*
X149144215Y-63540069D01*
X149329787Y-63313949D01*
X149359081Y-63259144D01*
X149388375Y-63313949D01*
X149573947Y-63540069D01*
X149800067Y-63725641D01*
X150058047Y-63863534D01*
X150337970Y-63948448D01*
X150556131Y-63969935D01*
X150702031Y-63969935D01*
X150920192Y-63948448D01*
X151200115Y-63863534D01*
X151458095Y-63725641D01*
X151684215Y-63540069D01*
X151869787Y-63313949D01*
X151899081Y-63259144D01*
X151928375Y-63313949D01*
X152113947Y-63540069D01*
X152340067Y-63725641D01*
X152598047Y-63863534D01*
X152877970Y-63948448D01*
X153096131Y-63969935D01*
X153242031Y-63969935D01*
X153460192Y-63948448D01*
X153740115Y-63863534D01*
X153998095Y-63725641D01*
X154224215Y-63540069D01*
X154409787Y-63313949D01*
X154439081Y-63259144D01*
X154468375Y-63313949D01*
X154653947Y-63540069D01*
X154880067Y-63725641D01*
X155138047Y-63863534D01*
X155417970Y-63948448D01*
X155636131Y-63969935D01*
X155782031Y-63969935D01*
X156000192Y-63948448D01*
X156280115Y-63863534D01*
X156538095Y-63725641D01*
X156764215Y-63540069D01*
X156949787Y-63313949D01*
X156979081Y-63259144D01*
X157008375Y-63313949D01*
X157193947Y-63540069D01*
X157420067Y-63725641D01*
X157678047Y-63863534D01*
X157957970Y-63948448D01*
X158176131Y-63969935D01*
X158322031Y-63969935D01*
X158540192Y-63948448D01*
X158820115Y-63863534D01*
X159078095Y-63725641D01*
X159304215Y-63540069D01*
X159489787Y-63313949D01*
X159519081Y-63259144D01*
X159548375Y-63313949D01*
X159733947Y-63540069D01*
X159960067Y-63725641D01*
X160218047Y-63863534D01*
X160497970Y-63948448D01*
X160716131Y-63969935D01*
X160862031Y-63969935D01*
X161080192Y-63948448D01*
X161360115Y-63863534D01*
X161618095Y-63725641D01*
X161844215Y-63540069D01*
X162029787Y-63313949D01*
X162059081Y-63259144D01*
X162088375Y-63313949D01*
X162273947Y-63540069D01*
X162500067Y-63725641D01*
X162758047Y-63863534D01*
X163037970Y-63948448D01*
X163256131Y-63969935D01*
X163402031Y-63969935D01*
X163620192Y-63948448D01*
X163900115Y-63863534D01*
X164158095Y-63725641D01*
X164384215Y-63540069D01*
X164569787Y-63313949D01*
X164599081Y-63259144D01*
X164628375Y-63313949D01*
X164813947Y-63540069D01*
X165040067Y-63725641D01*
X165298047Y-63863534D01*
X165577970Y-63948448D01*
X165796131Y-63969935D01*
X165942031Y-63969935D01*
X166160192Y-63948448D01*
X166440115Y-63863534D01*
X166698095Y-63725641D01*
X166924215Y-63540069D01*
X167109787Y-63313949D01*
X167139081Y-63259144D01*
X167168375Y-63313949D01*
X167353947Y-63540069D01*
X167580067Y-63725641D01*
X167838047Y-63863534D01*
X168117970Y-63948448D01*
X168336131Y-63969935D01*
X168482031Y-63969935D01*
X168700192Y-63948448D01*
X168980115Y-63863534D01*
X169238095Y-63725641D01*
X169464215Y-63540069D01*
X169649787Y-63313949D01*
X169679081Y-63259144D01*
X169708375Y-63313949D01*
X169893947Y-63540069D01*
X170120067Y-63725641D01*
X170378047Y-63863534D01*
X170657970Y-63948448D01*
X170876131Y-63969935D01*
X171022031Y-63969935D01*
X171240192Y-63948448D01*
X171520115Y-63863534D01*
X171778095Y-63725641D01*
X172004215Y-63540069D01*
X172189787Y-63313949D01*
X172219081Y-63259144D01*
X172248375Y-63313949D01*
X172433947Y-63540069D01*
X172660067Y-63725641D01*
X172918047Y-63863534D01*
X173197970Y-63948448D01*
X173416131Y-63969935D01*
X173562031Y-63969935D01*
X173780192Y-63948448D01*
X174060115Y-63863534D01*
X174318095Y-63725641D01*
X174544215Y-63540069D01*
X174729787Y-63313949D01*
X174867680Y-63055969D01*
X174952594Y-62776046D01*
X174981266Y-62484935D01*
X174952594Y-62193824D01*
X174867680Y-61913901D01*
X174729787Y-61655921D01*
X174544215Y-61429801D01*
X174318095Y-61244229D01*
X174263290Y-61214935D01*
X174318095Y-61185641D01*
X174544215Y-61000069D01*
X174729787Y-60773949D01*
X174867680Y-60515969D01*
X174952594Y-60236046D01*
X174981266Y-59944935D01*
X174952594Y-59653824D01*
X174867680Y-59373901D01*
X174729787Y-59115921D01*
X174544215Y-58889801D01*
X174318095Y-58704229D01*
X174263290Y-58674935D01*
X174318095Y-58645641D01*
X174544215Y-58460069D01*
X174729787Y-58233949D01*
X174867680Y-57975969D01*
X174952594Y-57696046D01*
X174981266Y-57404935D01*
X174952594Y-57113824D01*
X174867680Y-56833901D01*
X174729787Y-56575921D01*
X174544215Y-56349801D01*
X174318095Y-56164229D01*
X174263290Y-56134935D01*
X174318095Y-56105641D01*
X174544215Y-55920069D01*
X174729787Y-55693949D01*
X174811891Y-55540344D01*
X174898416Y-55975336D01*
X174898416Y-55975336D01*
G37*
X174898416Y-55975336D02*
X175185622Y-56668712D01*
X175602580Y-57292733D01*
X176133267Y-57823420D01*
X176757288Y-58240378D01*
X177450664Y-58527584D01*
X178186748Y-58674000D01*
X178937252Y-58674000D01*
X179673336Y-58527584D01*
X180366712Y-58240378D01*
X180900000Y-57884046D01*
X180900001Y-72736113D01*
X180896565Y-72771000D01*
X180910273Y-72910184D01*
X180950872Y-73044020D01*
X181016800Y-73167363D01*
X181105525Y-73275475D01*
X181213637Y-73364200D01*
X181336980Y-73430128D01*
X181470816Y-73470727D01*
X181575123Y-73481000D01*
X181610000Y-73484435D01*
X181644877Y-73481000D01*
X185472000Y-73481000D01*
X185472001Y-144959000D01*
X153110000Y-144959000D01*
X153110000Y-142782877D01*
X153113435Y-142748000D01*
X153099727Y-142608816D01*
X153059128Y-142474980D01*
X152993200Y-142351637D01*
X152904475Y-142243525D01*
X152796363Y-142154800D01*
X152673020Y-142088872D01*
X152539184Y-142048273D01*
X152434877Y-142038000D01*
X152400000Y-142034565D01*
X152365123Y-142038000D01*
X141611240Y-142038000D01*
X141601871Y-140213748D01*
X177292000Y-140213748D01*
X177292000Y-140964252D01*
X177438416Y-141700336D01*
X177725622Y-142393712D01*
X178142580Y-143017733D01*
X178673267Y-143548420D01*
X179297288Y-143965378D01*
X179990664Y-144252584D01*
X180726748Y-144399000D01*
X181477252Y-144399000D01*
X182213336Y-144252584D01*
X182906712Y-143965378D01*
X183530733Y-143548420D01*
X184061420Y-143017733D01*
X184478378Y-142393712D01*
X184765584Y-141700336D01*
X184912000Y-140964252D01*
X184912000Y-140213748D01*
X184765584Y-139477664D01*
X184478378Y-138784288D01*
X184061420Y-138160267D01*
X183530733Y-137629580D01*
X182906712Y-137212622D01*
X182213336Y-136925416D01*
X181477252Y-136779000D01*
X180726748Y-136779000D01*
X179990664Y-136925416D01*
X179297288Y-137212622D01*
X178673267Y-137629580D01*
X178142580Y-138160267D01*
X177725622Y-138784288D01*
X177438416Y-139477664D01*
X177292000Y-140213748D01*
X141601871Y-140213748D01*
X141443962Y-109467089D01*
X141541353Y-109519146D01*
X141684614Y-109562603D01*
X141796267Y-109573600D01*
X141796277Y-109573600D01*
X141833600Y-109577276D01*
X141870923Y-109573600D01*
X142090712Y-109573600D01*
X142111698Y-109642780D01*
X142170663Y-109753094D01*
X142250015Y-109849785D01*
X142346706Y-109929137D01*
X142457020Y-109988102D01*
X142576718Y-110024412D01*
X142701200Y-110036672D01*
X143961200Y-110036672D01*
X144085682Y-110024412D01*
X144205380Y-109988102D01*
X144315694Y-109929137D01*
X144412385Y-109849785D01*
X144491737Y-109753094D01*
X144550702Y-109642780D01*
X144587012Y-109523082D01*
X144599272Y-109398600D01*
X145113128Y-109398600D01*
X145125388Y-109523082D01*
X145161698Y-109642780D01*
X145220663Y-109753094D01*
X145300015Y-109849785D01*
X145396706Y-109929137D01*
X145507020Y-109988102D01*
X145626718Y-110024412D01*
X145751200Y-110036672D01*
X146095450Y-110033600D01*
X146254200Y-109874850D01*
X146254200Y-108940600D01*
X146508200Y-108940600D01*
X146508200Y-109874850D01*
X146666950Y-110033600D01*
X147011200Y-110036672D01*
X147135682Y-110024412D01*
X147255380Y-109988102D01*
X147365694Y-109929137D01*
X147462385Y-109849785D01*
X147541737Y-109753094D01*
X147600702Y-109642780D01*
X147637012Y-109523082D01*
X147649272Y-109398600D01*
X147646200Y-109099350D01*
X147487450Y-108940600D01*
X146508200Y-108940600D01*
X146254200Y-108940600D01*
X145274950Y-108940600D01*
X145116200Y-109099350D01*
X145113128Y-109398600D01*
X144599272Y-109398600D01*
X144599272Y-108228600D01*
X145113128Y-108228600D01*
X145116200Y-108527850D01*
X145274950Y-108686600D01*
X146254200Y-108686600D01*
X146254200Y-107752350D01*
X146508200Y-107752350D01*
X146508200Y-108686600D01*
X147487450Y-108686600D01*
X147646200Y-108527850D01*
X147649272Y-108228600D01*
X147637012Y-108104118D01*
X147600702Y-107984420D01*
X147541737Y-107874106D01*
X147462385Y-107777415D01*
X147365694Y-107698063D01*
X147255380Y-107639098D01*
X147135682Y-107602788D01*
X147011200Y-107590528D01*
X146666950Y-107593600D01*
X146508200Y-107752350D01*
X146254200Y-107752350D01*
X146095450Y-107593600D01*
X145751200Y-107590528D01*
X145626718Y-107602788D01*
X145507020Y-107639098D01*
X145396706Y-107698063D01*
X145300015Y-107777415D01*
X145220663Y-107874106D01*
X145161698Y-107984420D01*
X145125388Y-108104118D01*
X145113128Y-108228600D01*
X144599272Y-108228600D01*
X144587012Y-108104118D01*
X144550702Y-107984420D01*
X144491737Y-107874106D01*
X144412385Y-107777415D01*
X144315694Y-107698063D01*
X144205380Y-107639098D01*
X144085682Y-107602788D01*
X143961200Y-107590528D01*
X142701200Y-107590528D01*
X142576718Y-107602788D01*
X142457020Y-107639098D01*
X142346706Y-107698063D01*
X142250015Y-107777415D01*
X142170663Y-107874106D01*
X142111698Y-107984420D01*
X142104139Y-108009338D01*
X141433029Y-107338227D01*
X141413201Y-103477600D01*
X142068082Y-103477600D01*
X142151885Y-103579715D01*
X142281725Y-103686271D01*
X142429858Y-103765450D01*
X142590592Y-103814208D01*
X142757750Y-103830672D01*
X143195250Y-103830672D01*
X143362408Y-103814208D01*
X143523142Y-103765450D01*
X143671275Y-103686271D01*
X143692930Y-103668500D01*
X143759506Y-103723137D01*
X143869820Y-103782102D01*
X143989518Y-103818412D01*
X144114000Y-103830672D01*
X144265750Y-103827600D01*
X144424500Y-103668850D01*
X144424500Y-102844600D01*
X144678500Y-102844600D01*
X144678500Y-103668850D01*
X144837250Y-103827600D01*
X144989000Y-103830672D01*
X145113482Y-103818412D01*
X145233180Y-103782102D01*
X145343494Y-103723137D01*
X145440185Y-103643785D01*
X145519537Y-103547094D01*
X145578502Y-103436780D01*
X145614812Y-103317082D01*
X145627072Y-103192600D01*
X145624000Y-103003350D01*
X145465250Y-102844600D01*
X144678500Y-102844600D01*
X144424500Y-102844600D01*
X144404500Y-102844600D01*
X144404500Y-102590600D01*
X144424500Y-102590600D01*
X144424500Y-101766350D01*
X144678500Y-101766350D01*
X144678500Y-102590600D01*
X145465250Y-102590600D01*
X145624000Y-102431850D01*
X145627072Y-102242600D01*
X145614812Y-102118118D01*
X145578502Y-101998420D01*
X145519537Y-101888106D01*
X145440185Y-101791415D01*
X145343494Y-101712063D01*
X145233180Y-101653098D01*
X145113482Y-101616788D01*
X144989000Y-101604528D01*
X144837250Y-101607600D01*
X144678500Y-101766350D01*
X144424500Y-101766350D01*
X144265750Y-101607600D01*
X144114000Y-101604528D01*
X143989518Y-101616788D01*
X143869820Y-101653098D01*
X143759506Y-101712063D01*
X143736500Y-101730943D01*
X143736500Y-100480400D01*
X151577099Y-100480400D01*
X153940528Y-102843830D01*
X153940528Y-103100850D01*
X153956992Y-103268008D01*
X154005750Y-103428742D01*
X154084929Y-103576875D01*
X154191485Y-103706715D01*
X154321325Y-103813271D01*
X154469458Y-103892450D01*
X154630192Y-103941208D01*
X154797350Y-103957672D01*
X155234850Y-103957672D01*
X155402008Y-103941208D01*
X155562742Y-103892450D01*
X155710875Y-103813271D01*
X155803600Y-103737174D01*
X155896325Y-103813271D01*
X156044458Y-103892450D01*
X156205192Y-103941208D01*
X156372350Y-103957672D01*
X156809850Y-103957672D01*
X156977008Y-103941208D01*
X157137742Y-103892450D01*
X157285875Y-103813271D01*
X157415715Y-103706715D01*
X157499518Y-103604600D01*
X158585678Y-103604600D01*
X158623000Y-103608276D01*
X158660322Y-103604600D01*
X158660333Y-103604600D01*
X158771986Y-103593603D01*
X158915247Y-103550146D01*
X159047276Y-103479574D01*
X159147893Y-103397000D01*
X159207539Y-103397000D01*
X159407498Y-103357226D01*
X159595856Y-103279205D01*
X159765374Y-103165937D01*
X159909537Y-103021774D01*
X160022805Y-102852256D01*
X160100826Y-102663898D01*
X160140600Y-102463939D01*
X160140600Y-102260061D01*
X160100826Y-102060102D01*
X160022805Y-101871744D01*
X159909537Y-101702226D01*
X159765374Y-101558063D01*
X159595856Y-101444795D01*
X159407498Y-101366774D01*
X159207539Y-101327000D01*
X159003661Y-101327000D01*
X158803702Y-101366774D01*
X158615344Y-101444795D01*
X158445826Y-101558063D01*
X158301663Y-101702226D01*
X158188395Y-101871744D01*
X158110374Y-102060102D01*
X158105501Y-102084600D01*
X157499518Y-102084600D01*
X157415715Y-101982485D01*
X157285875Y-101875929D01*
X157137742Y-101796750D01*
X156977008Y-101747992D01*
X156809850Y-101731528D01*
X156372350Y-101731528D01*
X156205192Y-101747992D01*
X156044458Y-101796750D01*
X155896325Y-101875929D01*
X155803600Y-101952026D01*
X155710875Y-101875929D01*
X155562742Y-101796750D01*
X155402008Y-101747992D01*
X155234850Y-101731528D01*
X154977830Y-101731528D01*
X152455704Y-99209403D01*
X152431901Y-99180399D01*
X152316176Y-99085426D01*
X152184147Y-99014854D01*
X152040886Y-98971397D01*
X151929233Y-98960400D01*
X151929222Y-98960400D01*
X151891900Y-98956724D01*
X151854578Y-98960400D01*
X143140725Y-98960400D01*
X143103400Y-98956724D01*
X143066075Y-98960400D01*
X143066067Y-98960400D01*
X142954414Y-98971397D01*
X142811153Y-99014854D01*
X142679124Y-99085426D01*
X142563399Y-99180399D01*
X142539596Y-99209403D01*
X142465503Y-99283496D01*
X142436499Y-99307299D01*
X142381371Y-99374474D01*
X142341526Y-99423024D01*
X142338784Y-99428154D01*
X142270954Y-99555054D01*
X142227497Y-99698315D01*
X142216500Y-99809968D01*
X142216500Y-99809978D01*
X142212824Y-99847300D01*
X142216500Y-99884623D01*
X142216501Y-101802457D01*
X142151885Y-101855485D01*
X142068082Y-101957600D01*
X141405395Y-101957600D01*
X141351046Y-91375200D01*
X144326728Y-91375200D01*
X144338988Y-91499682D01*
X144375298Y-91619380D01*
X144434263Y-91729694D01*
X144513615Y-91826385D01*
X144610306Y-91905737D01*
X144720620Y-91964702D01*
X144840318Y-92001012D01*
X144964800Y-92013272D01*
X145304050Y-92010200D01*
X145462800Y-91851450D01*
X145462800Y-90627200D01*
X145716800Y-90627200D01*
X145716800Y-91851450D01*
X145875550Y-92010200D01*
X146214800Y-92013272D01*
X146339282Y-92001012D01*
X146458980Y-91964702D01*
X146569294Y-91905737D01*
X146665985Y-91826385D01*
X146745337Y-91729694D01*
X146804302Y-91619380D01*
X146840612Y-91499682D01*
X146852872Y-91375200D01*
X146849800Y-90785950D01*
X146691050Y-90627200D01*
X145716800Y-90627200D01*
X145462800Y-90627200D01*
X144488550Y-90627200D01*
X144329800Y-90785950D01*
X144326728Y-91375200D01*
X141351046Y-91375200D01*
X141342059Y-89625200D01*
X144326728Y-89625200D01*
X144329800Y-90214450D01*
X144488550Y-90373200D01*
X145462800Y-90373200D01*
X145462800Y-89148950D01*
X145716800Y-89148950D01*
X145716800Y-90373200D01*
X146691050Y-90373200D01*
X146849800Y-90214450D01*
X146851568Y-89875200D01*
X147126728Y-89875200D01*
X147126728Y-91125200D01*
X147143792Y-91298454D01*
X147194328Y-91465050D01*
X147276395Y-91618586D01*
X147386838Y-91753162D01*
X147521414Y-91863605D01*
X147674950Y-91945672D01*
X147841546Y-91996208D01*
X148014800Y-92013272D01*
X148764800Y-92013272D01*
X148938054Y-91996208D01*
X149104650Y-91945672D01*
X149258186Y-91863605D01*
X149392762Y-91753162D01*
X149503205Y-91618586D01*
X149585272Y-91465050D01*
X149635808Y-91298454D01*
X149639576Y-91260200D01*
X150908889Y-91260200D01*
X150952826Y-91304137D01*
X151122344Y-91417405D01*
X151310702Y-91495426D01*
X151510661Y-91535200D01*
X151714539Y-91535200D01*
X151914498Y-91495426D01*
X152102856Y-91417405D01*
X152272374Y-91304137D01*
X152416537Y-91159974D01*
X152529805Y-90990456D01*
X152607826Y-90802098D01*
X152647600Y-90602139D01*
X152647600Y-90398261D01*
X152607826Y-90198302D01*
X152529805Y-90009944D01*
X152416537Y-89840426D01*
X152272374Y-89696263D01*
X152102856Y-89582995D01*
X151914498Y-89504974D01*
X151714539Y-89465200D01*
X151510661Y-89465200D01*
X151310702Y-89504974D01*
X151122344Y-89582995D01*
X150952826Y-89696263D01*
X150908889Y-89740200D01*
X149639576Y-89740200D01*
X149635808Y-89701946D01*
X149585272Y-89535350D01*
X149503205Y-89381814D01*
X149392762Y-89247238D01*
X149258186Y-89136795D01*
X149104650Y-89054728D01*
X148938054Y-89004192D01*
X148764800Y-88987128D01*
X148014800Y-88987128D01*
X147841546Y-89004192D01*
X147674950Y-89054728D01*
X147521414Y-89136795D01*
X147386838Y-89247238D01*
X147276395Y-89381814D01*
X147194328Y-89535350D01*
X147143792Y-89701946D01*
X147126728Y-89875200D01*
X146851568Y-89875200D01*
X146852872Y-89625200D01*
X146840612Y-89500718D01*
X146804302Y-89381020D01*
X146745337Y-89270706D01*
X146665985Y-89174015D01*
X146569294Y-89094663D01*
X146458980Y-89035698D01*
X146339282Y-88999388D01*
X146214800Y-88987128D01*
X145875550Y-88990200D01*
X145716800Y-89148950D01*
X145462800Y-89148950D01*
X145304050Y-88990200D01*
X144964800Y-88987128D01*
X144840318Y-88999388D01*
X144720620Y-89035698D01*
X144610306Y-89094663D01*
X144513615Y-89174015D01*
X144434263Y-89270706D01*
X144375298Y-89381020D01*
X144338988Y-89500718D01*
X144326728Y-89625200D01*
X141342059Y-89625200D01*
X141223136Y-66469800D01*
X141485896Y-66469800D01*
X141523218Y-66473476D01*
X141560540Y-66469800D01*
X141560551Y-66469800D01*
X141672204Y-66458803D01*
X141815465Y-66415346D01*
X141947494Y-66344774D01*
X142063219Y-66249801D01*
X142087022Y-66220797D01*
X144644333Y-63663487D01*
X144720067Y-63725641D01*
X144978047Y-63863534D01*
X145257970Y-63948448D01*
X145476131Y-63969935D01*
X145622031Y-63969935D01*
X145840192Y-63948448D01*
X146120115Y-63863534D01*
X146378095Y-63725641D01*
X146604215Y-63540069D01*
X146789787Y-63313949D01*
X146819081Y-63259144D01*
X146848375Y-63313949D01*
X147033947Y-63540069D01*
X147260067Y-63725641D01*
X147518047Y-63863534D01*
X147797970Y-63948448D01*
X148016131Y-63969935D01*
X148162031Y-63969935D01*
X148380192Y-63948448D01*
X148660115Y-63863534D01*
X148918095Y-63725641D01*
X149144215Y-63540069D01*
X149329787Y-63313949D01*
X149359081Y-63259144D01*
X149388375Y-63313949D01*
X149573947Y-63540069D01*
X149800067Y-63725641D01*
X150058047Y-63863534D01*
X150337970Y-63948448D01*
X150556131Y-63969935D01*
X150702031Y-63969935D01*
X150920192Y-63948448D01*
X151200115Y-63863534D01*
X151458095Y-63725641D01*
X151684215Y-63540069D01*
X151869787Y-63313949D01*
X151899081Y-63259144D01*
X151928375Y-63313949D01*
X152113947Y-63540069D01*
X152340067Y-63725641D01*
X152598047Y-63863534D01*
X152877970Y-63948448D01*
X153096131Y-63969935D01*
X153242031Y-63969935D01*
X153460192Y-63948448D01*
X153740115Y-63863534D01*
X153998095Y-63725641D01*
X154224215Y-63540069D01*
X154409787Y-63313949D01*
X154439081Y-63259144D01*
X154468375Y-63313949D01*
X154653947Y-63540069D01*
X154880067Y-63725641D01*
X155138047Y-63863534D01*
X155417970Y-63948448D01*
X155636131Y-63969935D01*
X155782031Y-63969935D01*
X156000192Y-63948448D01*
X156280115Y-63863534D01*
X156538095Y-63725641D01*
X156764215Y-63540069D01*
X156949787Y-63313949D01*
X156979081Y-63259144D01*
X157008375Y-63313949D01*
X157193947Y-63540069D01*
X157420067Y-63725641D01*
X157678047Y-63863534D01*
X157957970Y-63948448D01*
X158176131Y-63969935D01*
X158322031Y-63969935D01*
X158540192Y-63948448D01*
X158820115Y-63863534D01*
X159078095Y-63725641D01*
X159304215Y-63540069D01*
X159489787Y-63313949D01*
X159519081Y-63259144D01*
X159548375Y-63313949D01*
X159733947Y-63540069D01*
X159960067Y-63725641D01*
X160218047Y-63863534D01*
X160497970Y-63948448D01*
X160716131Y-63969935D01*
X160862031Y-63969935D01*
X161080192Y-63948448D01*
X161360115Y-63863534D01*
X161618095Y-63725641D01*
X161844215Y-63540069D01*
X162029787Y-63313949D01*
X162059081Y-63259144D01*
X162088375Y-63313949D01*
X162273947Y-63540069D01*
X162500067Y-63725641D01*
X162758047Y-63863534D01*
X163037970Y-63948448D01*
X163256131Y-63969935D01*
X163402031Y-63969935D01*
X163620192Y-63948448D01*
X163900115Y-63863534D01*
X164158095Y-63725641D01*
X164384215Y-63540069D01*
X164569787Y-63313949D01*
X164599081Y-63259144D01*
X164628375Y-63313949D01*
X164813947Y-63540069D01*
X165040067Y-63725641D01*
X165298047Y-63863534D01*
X165577970Y-63948448D01*
X165796131Y-63969935D01*
X165942031Y-63969935D01*
X166160192Y-63948448D01*
X166440115Y-63863534D01*
X166698095Y-63725641D01*
X166924215Y-63540069D01*
X167109787Y-63313949D01*
X167139081Y-63259144D01*
X167168375Y-63313949D01*
X167353947Y-63540069D01*
X167580067Y-63725641D01*
X167838047Y-63863534D01*
X168117970Y-63948448D01*
X168336131Y-63969935D01*
X168482031Y-63969935D01*
X168700192Y-63948448D01*
X168980115Y-63863534D01*
X169238095Y-63725641D01*
X169464215Y-63540069D01*
X169649787Y-63313949D01*
X169679081Y-63259144D01*
X169708375Y-63313949D01*
X169893947Y-63540069D01*
X170120067Y-63725641D01*
X170378047Y-63863534D01*
X170657970Y-63948448D01*
X170876131Y-63969935D01*
X171022031Y-63969935D01*
X171240192Y-63948448D01*
X171520115Y-63863534D01*
X171778095Y-63725641D01*
X172004215Y-63540069D01*
X172189787Y-63313949D01*
X172219081Y-63259144D01*
X172248375Y-63313949D01*
X172433947Y-63540069D01*
X172660067Y-63725641D01*
X172918047Y-63863534D01*
X173197970Y-63948448D01*
X173416131Y-63969935D01*
X173562031Y-63969935D01*
X173780192Y-63948448D01*
X174060115Y-63863534D01*
X174318095Y-63725641D01*
X174544215Y-63540069D01*
X174729787Y-63313949D01*
X174867680Y-63055969D01*
X174952594Y-62776046D01*
X174981266Y-62484935D01*
X174952594Y-62193824D01*
X174867680Y-61913901D01*
X174729787Y-61655921D01*
X174544215Y-61429801D01*
X174318095Y-61244229D01*
X174263290Y-61214935D01*
X174318095Y-61185641D01*
X174544215Y-61000069D01*
X174729787Y-60773949D01*
X174867680Y-60515969D01*
X174952594Y-60236046D01*
X174981266Y-59944935D01*
X174952594Y-59653824D01*
X174867680Y-59373901D01*
X174729787Y-59115921D01*
X174544215Y-58889801D01*
X174318095Y-58704229D01*
X174263290Y-58674935D01*
X174318095Y-58645641D01*
X174544215Y-58460069D01*
X174729787Y-58233949D01*
X174867680Y-57975969D01*
X174952594Y-57696046D01*
X174981266Y-57404935D01*
X174952594Y-57113824D01*
X174867680Y-56833901D01*
X174729787Y-56575921D01*
X174544215Y-56349801D01*
X174318095Y-56164229D01*
X174263290Y-56134935D01*
X174318095Y-56105641D01*
X174544215Y-55920069D01*
X174729787Y-55693949D01*
X174811891Y-55540344D01*
X174898416Y-55975336D01*
G36*
X164628375Y-60773949D02*
G01*
X164813947Y-61000069D01*
X165040067Y-61185641D01*
X165094872Y-61214935D01*
X165040067Y-61244229D01*
X164813947Y-61429801D01*
X164628375Y-61655921D01*
X164599081Y-61710726D01*
X164569787Y-61655921D01*
X164384215Y-61429801D01*
X164158095Y-61244229D01*
X164103290Y-61214935D01*
X164158095Y-61185641D01*
X164384215Y-61000069D01*
X164569787Y-60773949D01*
X164599081Y-60719144D01*
X164628375Y-60773949D01*
X164628375Y-60773949D01*
G37*
X164628375Y-60773949D02*
X164813947Y-61000069D01*
X165040067Y-61185641D01*
X165094872Y-61214935D01*
X165040067Y-61244229D01*
X164813947Y-61429801D01*
X164628375Y-61655921D01*
X164599081Y-61710726D01*
X164569787Y-61655921D01*
X164384215Y-61429801D01*
X164158095Y-61244229D01*
X164103290Y-61214935D01*
X164158095Y-61185641D01*
X164384215Y-61000069D01*
X164569787Y-60773949D01*
X164599081Y-60719144D01*
X164628375Y-60773949D01*
G36*
X162088375Y-60773949D02*
G01*
X162273947Y-61000069D01*
X162500067Y-61185641D01*
X162554872Y-61214935D01*
X162500067Y-61244229D01*
X162273947Y-61429801D01*
X162088375Y-61655921D01*
X162059081Y-61710726D01*
X162029787Y-61655921D01*
X161844215Y-61429801D01*
X161618095Y-61244229D01*
X161563290Y-61214935D01*
X161618095Y-61185641D01*
X161844215Y-61000069D01*
X162029787Y-60773949D01*
X162059081Y-60719144D01*
X162088375Y-60773949D01*
X162088375Y-60773949D01*
G37*
X162088375Y-60773949D02*
X162273947Y-61000069D01*
X162500067Y-61185641D01*
X162554872Y-61214935D01*
X162500067Y-61244229D01*
X162273947Y-61429801D01*
X162088375Y-61655921D01*
X162059081Y-61710726D01*
X162029787Y-61655921D01*
X161844215Y-61429801D01*
X161618095Y-61244229D01*
X161563290Y-61214935D01*
X161618095Y-61185641D01*
X161844215Y-61000069D01*
X162029787Y-60773949D01*
X162059081Y-60719144D01*
X162088375Y-60773949D01*
G36*
X164673903Y-58286290D02*
G01*
X164868812Y-58502523D01*
X165097837Y-58673351D01*
X165040067Y-58704229D01*
X164813947Y-58889801D01*
X164628375Y-59115921D01*
X164599081Y-59170726D01*
X164569787Y-59115921D01*
X164384215Y-58889801D01*
X164158095Y-58704229D01*
X164103290Y-58674935D01*
X164158095Y-58645641D01*
X164384215Y-58460069D01*
X164569787Y-58233949D01*
X164604282Y-58169412D01*
X164673903Y-58286290D01*
X164673903Y-58286290D01*
G37*
X164673903Y-58286290D02*
X164868812Y-58502523D01*
X165097837Y-58673351D01*
X165040067Y-58704229D01*
X164813947Y-58889801D01*
X164628375Y-59115921D01*
X164599081Y-59170726D01*
X164569787Y-59115921D01*
X164384215Y-58889801D01*
X164158095Y-58704229D01*
X164103290Y-58674935D01*
X164158095Y-58645641D01*
X164384215Y-58460069D01*
X164569787Y-58233949D01*
X164604282Y-58169412D01*
X164673903Y-58286290D01*
G36*
X180900000Y-51843954D02*
G01*
X180366712Y-51487622D01*
X179673336Y-51200416D01*
X178937252Y-51054000D01*
X178186748Y-51054000D01*
X177450664Y-51200416D01*
X176757288Y-51487622D01*
X176133267Y-51904580D01*
X175602580Y-52435267D01*
X175185622Y-53059288D01*
X174898416Y-53752664D01*
X174811620Y-54189019D01*
X174729787Y-54035921D01*
X174544215Y-53809801D01*
X174318095Y-53624229D01*
X174060115Y-53486336D01*
X173780192Y-53401422D01*
X173562031Y-53379935D01*
X173416131Y-53379935D01*
X173197970Y-53401422D01*
X172918047Y-53486336D01*
X172660067Y-53624229D01*
X172433947Y-53809801D01*
X172248375Y-54035921D01*
X172219081Y-54090726D01*
X172189787Y-54035921D01*
X172004215Y-53809801D01*
X171778095Y-53624229D01*
X171520115Y-53486336D01*
X171240192Y-53401422D01*
X171022031Y-53379935D01*
X170876131Y-53379935D01*
X170657970Y-53401422D01*
X170378047Y-53486336D01*
X170120067Y-53624229D01*
X169893947Y-53809801D01*
X169708375Y-54035921D01*
X169679081Y-54090726D01*
X169649787Y-54035921D01*
X169464215Y-53809801D01*
X169238095Y-53624229D01*
X168980115Y-53486336D01*
X168700192Y-53401422D01*
X168482031Y-53379935D01*
X168336131Y-53379935D01*
X168117970Y-53401422D01*
X167838047Y-53486336D01*
X167580067Y-53624229D01*
X167353947Y-53809801D01*
X167168375Y-54035921D01*
X167133880Y-54100458D01*
X167064259Y-53983580D01*
X166869350Y-53767347D01*
X166636001Y-53593294D01*
X166373180Y-53468110D01*
X166225971Y-53423459D01*
X165996081Y-53544780D01*
X165996081Y-54737935D01*
X166016081Y-54737935D01*
X166016081Y-54991935D01*
X165996081Y-54991935D01*
X165996081Y-57277935D01*
X166016081Y-57277935D01*
X166016081Y-57531935D01*
X165996081Y-57531935D01*
X165996081Y-57551935D01*
X165742081Y-57551935D01*
X165742081Y-57531935D01*
X165722081Y-57531935D01*
X165722081Y-57277935D01*
X165742081Y-57277935D01*
X165742081Y-54991935D01*
X165722081Y-54991935D01*
X165722081Y-54737935D01*
X165742081Y-54737935D01*
X165742081Y-53544780D01*
X165512191Y-53423459D01*
X165364982Y-53468110D01*
X165102161Y-53593294D01*
X164868812Y-53767347D01*
X164673903Y-53983580D01*
X164604282Y-54100458D01*
X164569787Y-54035921D01*
X164384215Y-53809801D01*
X164158095Y-53624229D01*
X163900115Y-53486336D01*
X163620192Y-53401422D01*
X163402031Y-53379935D01*
X163256131Y-53379935D01*
X163037970Y-53401422D01*
X162758047Y-53486336D01*
X162500067Y-53624229D01*
X162273947Y-53809801D01*
X162088375Y-54035921D01*
X162059081Y-54090726D01*
X162029787Y-54035921D01*
X161844215Y-53809801D01*
X161618095Y-53624229D01*
X161360115Y-53486336D01*
X161080192Y-53401422D01*
X160862031Y-53379935D01*
X160716131Y-53379935D01*
X160497970Y-53401422D01*
X160218047Y-53486336D01*
X159960067Y-53624229D01*
X159733947Y-53809801D01*
X159548375Y-54035921D01*
X159519081Y-54090726D01*
X159489787Y-54035921D01*
X159304215Y-53809801D01*
X159078095Y-53624229D01*
X158820115Y-53486336D01*
X158540192Y-53401422D01*
X158322031Y-53379935D01*
X158176131Y-53379935D01*
X157957970Y-53401422D01*
X157678047Y-53486336D01*
X157420067Y-53624229D01*
X157193947Y-53809801D01*
X157008375Y-54035921D01*
X156979081Y-54090726D01*
X156949787Y-54035921D01*
X156764215Y-53809801D01*
X156538095Y-53624229D01*
X156280115Y-53486336D01*
X156000192Y-53401422D01*
X155782031Y-53379935D01*
X155636131Y-53379935D01*
X155417970Y-53401422D01*
X155138047Y-53486336D01*
X154880067Y-53624229D01*
X154653947Y-53809801D01*
X154468375Y-54035921D01*
X154439081Y-54090726D01*
X154409787Y-54035921D01*
X154224215Y-53809801D01*
X153998095Y-53624229D01*
X153740115Y-53486336D01*
X153460192Y-53401422D01*
X153242031Y-53379935D01*
X153096131Y-53379935D01*
X152877970Y-53401422D01*
X152598047Y-53486336D01*
X152340067Y-53624229D01*
X152113947Y-53809801D01*
X151928375Y-54035921D01*
X151899081Y-54090726D01*
X151869787Y-54035921D01*
X151684215Y-53809801D01*
X151458095Y-53624229D01*
X151200115Y-53486336D01*
X150964953Y-53415000D01*
X152365123Y-53415000D01*
X152400000Y-53418435D01*
X152434877Y-53415000D01*
X152539184Y-53404727D01*
X152673020Y-53364128D01*
X152796363Y-53298200D01*
X152904475Y-53209475D01*
X152993200Y-53101363D01*
X153059128Y-52978020D01*
X153099727Y-52844184D01*
X153113435Y-52705000D01*
X153110000Y-52670123D01*
X153110000Y-50494000D01*
X180900000Y-50494000D01*
X180900000Y-51843954D01*
X180900000Y-51843954D01*
G37*
X180900000Y-51843954D02*
X180366712Y-51487622D01*
X179673336Y-51200416D01*
X178937252Y-51054000D01*
X178186748Y-51054000D01*
X177450664Y-51200416D01*
X176757288Y-51487622D01*
X176133267Y-51904580D01*
X175602580Y-52435267D01*
X175185622Y-53059288D01*
X174898416Y-53752664D01*
X174811620Y-54189019D01*
X174729787Y-54035921D01*
X174544215Y-53809801D01*
X174318095Y-53624229D01*
X174060115Y-53486336D01*
X173780192Y-53401422D01*
X173562031Y-53379935D01*
X173416131Y-53379935D01*
X173197970Y-53401422D01*
X172918047Y-53486336D01*
X172660067Y-53624229D01*
X172433947Y-53809801D01*
X172248375Y-54035921D01*
X172219081Y-54090726D01*
X172189787Y-54035921D01*
X172004215Y-53809801D01*
X171778095Y-53624229D01*
X171520115Y-53486336D01*
X171240192Y-53401422D01*
X171022031Y-53379935D01*
X170876131Y-53379935D01*
X170657970Y-53401422D01*
X170378047Y-53486336D01*
X170120067Y-53624229D01*
X169893947Y-53809801D01*
X169708375Y-54035921D01*
X169679081Y-54090726D01*
X169649787Y-54035921D01*
X169464215Y-53809801D01*
X169238095Y-53624229D01*
X168980115Y-53486336D01*
X168700192Y-53401422D01*
X168482031Y-53379935D01*
X168336131Y-53379935D01*
X168117970Y-53401422D01*
X167838047Y-53486336D01*
X167580067Y-53624229D01*
X167353947Y-53809801D01*
X167168375Y-54035921D01*
X167133880Y-54100458D01*
X167064259Y-53983580D01*
X166869350Y-53767347D01*
X166636001Y-53593294D01*
X166373180Y-53468110D01*
X166225971Y-53423459D01*
X165996081Y-53544780D01*
X165996081Y-54737935D01*
X166016081Y-54737935D01*
X166016081Y-54991935D01*
X165996081Y-54991935D01*
X165996081Y-57277935D01*
X166016081Y-57277935D01*
X166016081Y-57531935D01*
X165996081Y-57531935D01*
X165996081Y-57551935D01*
X165742081Y-57551935D01*
X165742081Y-57531935D01*
X165722081Y-57531935D01*
X165722081Y-57277935D01*
X165742081Y-57277935D01*
X165742081Y-54991935D01*
X165722081Y-54991935D01*
X165722081Y-54737935D01*
X165742081Y-54737935D01*
X165742081Y-53544780D01*
X165512191Y-53423459D01*
X165364982Y-53468110D01*
X165102161Y-53593294D01*
X164868812Y-53767347D01*
X164673903Y-53983580D01*
X164604282Y-54100458D01*
X164569787Y-54035921D01*
X164384215Y-53809801D01*
X164158095Y-53624229D01*
X163900115Y-53486336D01*
X163620192Y-53401422D01*
X163402031Y-53379935D01*
X163256131Y-53379935D01*
X163037970Y-53401422D01*
X162758047Y-53486336D01*
X162500067Y-53624229D01*
X162273947Y-53809801D01*
X162088375Y-54035921D01*
X162059081Y-54090726D01*
X162029787Y-54035921D01*
X161844215Y-53809801D01*
X161618095Y-53624229D01*
X161360115Y-53486336D01*
X161080192Y-53401422D01*
X160862031Y-53379935D01*
X160716131Y-53379935D01*
X160497970Y-53401422D01*
X160218047Y-53486336D01*
X159960067Y-53624229D01*
X159733947Y-53809801D01*
X159548375Y-54035921D01*
X159519081Y-54090726D01*
X159489787Y-54035921D01*
X159304215Y-53809801D01*
X159078095Y-53624229D01*
X158820115Y-53486336D01*
X158540192Y-53401422D01*
X158322031Y-53379935D01*
X158176131Y-53379935D01*
X157957970Y-53401422D01*
X157678047Y-53486336D01*
X157420067Y-53624229D01*
X157193947Y-53809801D01*
X157008375Y-54035921D01*
X156979081Y-54090726D01*
X156949787Y-54035921D01*
X156764215Y-53809801D01*
X156538095Y-53624229D01*
X156280115Y-53486336D01*
X156000192Y-53401422D01*
X155782031Y-53379935D01*
X155636131Y-53379935D01*
X155417970Y-53401422D01*
X155138047Y-53486336D01*
X154880067Y-53624229D01*
X154653947Y-53809801D01*
X154468375Y-54035921D01*
X154439081Y-54090726D01*
X154409787Y-54035921D01*
X154224215Y-53809801D01*
X153998095Y-53624229D01*
X153740115Y-53486336D01*
X153460192Y-53401422D01*
X153242031Y-53379935D01*
X153096131Y-53379935D01*
X152877970Y-53401422D01*
X152598047Y-53486336D01*
X152340067Y-53624229D01*
X152113947Y-53809801D01*
X151928375Y-54035921D01*
X151899081Y-54090726D01*
X151869787Y-54035921D01*
X151684215Y-53809801D01*
X151458095Y-53624229D01*
X151200115Y-53486336D01*
X150964953Y-53415000D01*
X152365123Y-53415000D01*
X152400000Y-53418435D01*
X152434877Y-53415000D01*
X152539184Y-53404727D01*
X152673020Y-53364128D01*
X152796363Y-53298200D01*
X152904475Y-53209475D01*
X152993200Y-53101363D01*
X153059128Y-52978020D01*
X153099727Y-52844184D01*
X153113435Y-52705000D01*
X153110000Y-52670123D01*
X153110000Y-50494000D01*
X180900000Y-50494000D01*
X180900000Y-51843954D01*
M02*
