G04 #@! TF.GenerationSoftware,KiCad,Pcbnew,(5.1.4)-1*
G04 #@! TF.CreationDate,2019-12-03T11:55:19-06:00*
G04 #@! TF.ProjectId,Boost,426f6f73-742e-46b6-9963-61645f706362,rev?*
G04 #@! TF.SameCoordinates,Original*
G04 #@! TF.FileFunction,Copper,L2,Bot*
G04 #@! TF.FilePolarity,Positive*
%FSLAX46Y46*%
G04 Gerber Fmt 4.6, Leading zero omitted, Abs format (unit mm)*
G04 Created by KiCad (PCBNEW (5.1.4)-1) date 2019-12-03 11:55:19*
%MOMM*%
%LPD*%
G04 APERTURE LIST*
%ADD10O,1.700000X1.700000*%
%ADD11R,1.700000X1.700000*%
%ADD12C,6.350000*%
%ADD13C,0.800000*%
%ADD14C,0.250000*%
%ADD15C,0.254000*%
G04 APERTURE END LIST*
D10*
X173489081Y-59944935D03*
X173489081Y-62484935D03*
X170949081Y-59944935D03*
X170949081Y-62484935D03*
X168409081Y-59944935D03*
X168409081Y-62484935D03*
X165869081Y-59944935D03*
X165869081Y-62484935D03*
X163329081Y-59944935D03*
X163329081Y-62484935D03*
X160789081Y-59944935D03*
X160789081Y-62484935D03*
X158249081Y-59944935D03*
X158249081Y-62484935D03*
X155709081Y-59944935D03*
X155709081Y-62484935D03*
X153169081Y-59944935D03*
X153169081Y-62484935D03*
X150629081Y-59944935D03*
X150629081Y-62484935D03*
X148089081Y-59944935D03*
X148089081Y-62484935D03*
X145549081Y-59944935D03*
X145549081Y-62484935D03*
X143009081Y-59944935D03*
X143009081Y-62484935D03*
X140469081Y-59944935D03*
X140469081Y-62484935D03*
X137929081Y-59944935D03*
X137929081Y-62484935D03*
X135389081Y-59944935D03*
X135389081Y-62484935D03*
X132849081Y-59944935D03*
X132849081Y-62484935D03*
X130309081Y-59944935D03*
X130309081Y-62484935D03*
X127769081Y-59944935D03*
X127769081Y-62484935D03*
X125229081Y-59944935D03*
X125229081Y-62484935D03*
X122689081Y-59944935D03*
X122689081Y-62484935D03*
X120149081Y-59944935D03*
X120149081Y-62484935D03*
X117609081Y-59944935D03*
X117609081Y-62484935D03*
X115069081Y-59944935D03*
X115069081Y-62484935D03*
X112529081Y-59944935D03*
X112529081Y-62484935D03*
X109989081Y-59944935D03*
D11*
X109989081Y-62484935D03*
D10*
X173489081Y-54864935D03*
X173489081Y-57404935D03*
X170949081Y-54864935D03*
X170949081Y-57404935D03*
X168409081Y-54864935D03*
X168409081Y-57404935D03*
X165869081Y-54864935D03*
X165869081Y-57404935D03*
X163329081Y-54864935D03*
X163329081Y-57404935D03*
X160789081Y-54864935D03*
X160789081Y-57404935D03*
X158249081Y-54864935D03*
X158249081Y-57404935D03*
X155709081Y-54864935D03*
X155709081Y-57404935D03*
X153169081Y-54864935D03*
X153169081Y-57404935D03*
X150629081Y-54864935D03*
X150629081Y-57404935D03*
X148089081Y-54864935D03*
X148089081Y-57404935D03*
X145549081Y-54864935D03*
X145549081Y-57404935D03*
X143009081Y-54864935D03*
X143009081Y-57404935D03*
X140469081Y-54864935D03*
X140469081Y-57404935D03*
X137929081Y-54864935D03*
X137929081Y-57404935D03*
X135389081Y-54864935D03*
X135389081Y-57404935D03*
X132849081Y-54864935D03*
X132849081Y-57404935D03*
X130309081Y-54864935D03*
X130309081Y-57404935D03*
X127769081Y-54864935D03*
X127769081Y-57404935D03*
X125229081Y-54864935D03*
X125229081Y-57404935D03*
X122689081Y-54864935D03*
X122689081Y-57404935D03*
X120149081Y-54864935D03*
X120149081Y-57404935D03*
X117609081Y-54864935D03*
X117609081Y-57404935D03*
X115069081Y-54864935D03*
X115069081Y-57404935D03*
X112529081Y-54864935D03*
X112529081Y-57404935D03*
X109989081Y-54864935D03*
D11*
X109989081Y-57404935D03*
D12*
X181102000Y-140589000D03*
X104902000Y-54864000D03*
X178562000Y-54864000D03*
X101092000Y-140589000D03*
D13*
X137160000Y-87630000D03*
X151130000Y-83820000D03*
X148590000Y-108585010D03*
X149860000Y-97155000D03*
X142240000Y-98425000D03*
X133350000Y-120015000D03*
X144780000Y-97155000D03*
X140335000Y-92710000D03*
X153035000Y-95885000D03*
X133985000Y-93345000D03*
X133350000Y-98425000D03*
X142240000Y-102235000D03*
X147320000Y-99060000D03*
X145415000Y-101600000D03*
X149529800Y-74828400D03*
X137130847Y-95279153D03*
D14*
X149860000Y-92710000D02*
X153035000Y-95885000D01*
X140335000Y-92710000D02*
X149860000Y-92710000D01*
X140469081Y-62484935D02*
X140970935Y-62484935D01*
X133350000Y-93980000D02*
X133985000Y-93345000D01*
X133350000Y-98425000D02*
X133350000Y-93980000D01*
X146050000Y-100330000D02*
X147320000Y-99060000D01*
X143510000Y-100330000D02*
X146050000Y-100330000D01*
X142240000Y-102235000D02*
X142240000Y-101600000D01*
X142240000Y-101600000D02*
X143510000Y-100330000D01*
X153169081Y-76065919D02*
X153169081Y-62484935D01*
X137130847Y-92104153D02*
X153169081Y-76065919D01*
X137130847Y-95279153D02*
X137130847Y-92104153D01*
D15*
G36*
X131370001Y-52670113D02*
G01*
X131366565Y-52705000D01*
X131380273Y-52844184D01*
X131420872Y-52978020D01*
X131486800Y-53101363D01*
X131575525Y-53209475D01*
X131683637Y-53298200D01*
X131806980Y-53364128D01*
X131940816Y-53404727D01*
X132045123Y-53415000D01*
X132080000Y-53418435D01*
X132114877Y-53415000D01*
X132513209Y-53415000D01*
X132278047Y-53486336D01*
X132020067Y-53624229D01*
X131793947Y-53809801D01*
X131608375Y-54035921D01*
X131579081Y-54090726D01*
X131549787Y-54035921D01*
X131364215Y-53809801D01*
X131138095Y-53624229D01*
X130880115Y-53486336D01*
X130600192Y-53401422D01*
X130382031Y-53379935D01*
X130236131Y-53379935D01*
X130017970Y-53401422D01*
X129738047Y-53486336D01*
X129480067Y-53624229D01*
X129253947Y-53809801D01*
X129068375Y-54035921D01*
X129039081Y-54090726D01*
X129009787Y-54035921D01*
X128824215Y-53809801D01*
X128598095Y-53624229D01*
X128340115Y-53486336D01*
X128060192Y-53401422D01*
X127842031Y-53379935D01*
X127696131Y-53379935D01*
X127477970Y-53401422D01*
X127198047Y-53486336D01*
X126940067Y-53624229D01*
X126713947Y-53809801D01*
X126528375Y-54035921D01*
X126499081Y-54090726D01*
X126469787Y-54035921D01*
X126284215Y-53809801D01*
X126058095Y-53624229D01*
X125800115Y-53486336D01*
X125520192Y-53401422D01*
X125302031Y-53379935D01*
X125156131Y-53379935D01*
X124937970Y-53401422D01*
X124658047Y-53486336D01*
X124400067Y-53624229D01*
X124173947Y-53809801D01*
X123988375Y-54035921D01*
X123959081Y-54090726D01*
X123929787Y-54035921D01*
X123744215Y-53809801D01*
X123518095Y-53624229D01*
X123260115Y-53486336D01*
X122980192Y-53401422D01*
X122762031Y-53379935D01*
X122616131Y-53379935D01*
X122397970Y-53401422D01*
X122118047Y-53486336D01*
X121860067Y-53624229D01*
X121633947Y-53809801D01*
X121448375Y-54035921D01*
X121419081Y-54090726D01*
X121389787Y-54035921D01*
X121204215Y-53809801D01*
X120978095Y-53624229D01*
X120720115Y-53486336D01*
X120440192Y-53401422D01*
X120222031Y-53379935D01*
X120076131Y-53379935D01*
X119857970Y-53401422D01*
X119578047Y-53486336D01*
X119320067Y-53624229D01*
X119093947Y-53809801D01*
X118908375Y-54035921D01*
X118879081Y-54090726D01*
X118849787Y-54035921D01*
X118664215Y-53809801D01*
X118438095Y-53624229D01*
X118180115Y-53486336D01*
X117900192Y-53401422D01*
X117682031Y-53379935D01*
X117536131Y-53379935D01*
X117317970Y-53401422D01*
X117038047Y-53486336D01*
X116780067Y-53624229D01*
X116553947Y-53809801D01*
X116368375Y-54035921D01*
X116339081Y-54090726D01*
X116309787Y-54035921D01*
X116124215Y-53809801D01*
X115898095Y-53624229D01*
X115640115Y-53486336D01*
X115360192Y-53401422D01*
X115142031Y-53379935D01*
X114996131Y-53379935D01*
X114777970Y-53401422D01*
X114498047Y-53486336D01*
X114240067Y-53624229D01*
X114013947Y-53809801D01*
X113828375Y-54035921D01*
X113799081Y-54090726D01*
X113769787Y-54035921D01*
X113584215Y-53809801D01*
X113358095Y-53624229D01*
X113100115Y-53486336D01*
X112820192Y-53401422D01*
X112602031Y-53379935D01*
X112456131Y-53379935D01*
X112237970Y-53401422D01*
X111958047Y-53486336D01*
X111700067Y-53624229D01*
X111473947Y-53809801D01*
X111288375Y-54035921D01*
X111259081Y-54090726D01*
X111229787Y-54035921D01*
X111044215Y-53809801D01*
X110818095Y-53624229D01*
X110560115Y-53486336D01*
X110280192Y-53401422D01*
X110062031Y-53379935D01*
X109916131Y-53379935D01*
X109697970Y-53401422D01*
X109418047Y-53486336D01*
X109160067Y-53624229D01*
X108933947Y-53809801D01*
X108748375Y-54035921D01*
X108656221Y-54208329D01*
X108565584Y-53752664D01*
X108278378Y-53059288D01*
X107861420Y-52435267D01*
X107330733Y-51904580D01*
X106706712Y-51487622D01*
X106013336Y-51200416D01*
X105277252Y-51054000D01*
X104526748Y-51054000D01*
X103790664Y-51200416D01*
X103097288Y-51487622D01*
X102473267Y-51904580D01*
X101942580Y-52435267D01*
X101525622Y-53059288D01*
X101238416Y-53752664D01*
X101092000Y-54488748D01*
X101092000Y-55239252D01*
X101238416Y-55975336D01*
X101525622Y-56668712D01*
X101942580Y-57292733D01*
X102473267Y-57823420D01*
X103097288Y-58240378D01*
X103790664Y-58527584D01*
X104526748Y-58674000D01*
X105277252Y-58674000D01*
X106013336Y-58527584D01*
X106706712Y-58240378D01*
X107330733Y-57823420D01*
X107861420Y-57292733D01*
X108278378Y-56668712D01*
X108565584Y-55975336D01*
X108655950Y-55521034D01*
X108748375Y-55693949D01*
X108933947Y-55920069D01*
X108963768Y-55944542D01*
X108894901Y-55965433D01*
X108784587Y-56024398D01*
X108687896Y-56103750D01*
X108608544Y-56200441D01*
X108549579Y-56310755D01*
X108513269Y-56430453D01*
X108501009Y-56554935D01*
X108501009Y-58254935D01*
X108513269Y-58379417D01*
X108549579Y-58499115D01*
X108608544Y-58609429D01*
X108687896Y-58706120D01*
X108784587Y-58785472D01*
X108894901Y-58844437D01*
X108963768Y-58865328D01*
X108933947Y-58889801D01*
X108748375Y-59115921D01*
X108610482Y-59373901D01*
X108525568Y-59653824D01*
X108496896Y-59944935D01*
X108525568Y-60236046D01*
X108610482Y-60515969D01*
X108748375Y-60773949D01*
X108933947Y-61000069D01*
X108963768Y-61024542D01*
X108894901Y-61045433D01*
X108784587Y-61104398D01*
X108687896Y-61183750D01*
X108608544Y-61280441D01*
X108549579Y-61390755D01*
X108513269Y-61510453D01*
X108501009Y-61634935D01*
X108501009Y-63334935D01*
X108513269Y-63459417D01*
X108549579Y-63579115D01*
X108608544Y-63689429D01*
X108687896Y-63786120D01*
X108784587Y-63865472D01*
X108894901Y-63924437D01*
X109014599Y-63960747D01*
X109139081Y-63973007D01*
X110839081Y-63973007D01*
X110963563Y-63960747D01*
X111083261Y-63924437D01*
X111193575Y-63865472D01*
X111290266Y-63786120D01*
X111369618Y-63689429D01*
X111428583Y-63579115D01*
X111449474Y-63510248D01*
X111473947Y-63540069D01*
X111700067Y-63725641D01*
X111958047Y-63863534D01*
X112237970Y-63948448D01*
X112456131Y-63969935D01*
X112602031Y-63969935D01*
X112820192Y-63948448D01*
X113100115Y-63863534D01*
X113358095Y-63725641D01*
X113584215Y-63540069D01*
X113769787Y-63313949D01*
X113799081Y-63259144D01*
X113828375Y-63313949D01*
X114013947Y-63540069D01*
X114240067Y-63725641D01*
X114498047Y-63863534D01*
X114777970Y-63948448D01*
X114996131Y-63969935D01*
X115142031Y-63969935D01*
X115360192Y-63948448D01*
X115640115Y-63863534D01*
X115898095Y-63725641D01*
X116124215Y-63540069D01*
X116309787Y-63313949D01*
X116339081Y-63259144D01*
X116368375Y-63313949D01*
X116553947Y-63540069D01*
X116780067Y-63725641D01*
X117038047Y-63863534D01*
X117317970Y-63948448D01*
X117536131Y-63969935D01*
X117682031Y-63969935D01*
X117900192Y-63948448D01*
X118180115Y-63863534D01*
X118438095Y-63725641D01*
X118664215Y-63540069D01*
X118849787Y-63313949D01*
X118987680Y-63055969D01*
X119072594Y-62776046D01*
X119101266Y-62484935D01*
X119072594Y-62193824D01*
X118987680Y-61913901D01*
X118849787Y-61655921D01*
X118664215Y-61429801D01*
X118438095Y-61244229D01*
X118383290Y-61214935D01*
X118438095Y-61185641D01*
X118664215Y-61000069D01*
X118849787Y-60773949D01*
X118879081Y-60719144D01*
X118908375Y-60773949D01*
X119093947Y-61000069D01*
X119320067Y-61185641D01*
X119578047Y-61323534D01*
X119857970Y-61408448D01*
X120076131Y-61429935D01*
X120222031Y-61429935D01*
X120440192Y-61408448D01*
X120720115Y-61323534D01*
X120978095Y-61185641D01*
X121204215Y-61000069D01*
X121389787Y-60773949D01*
X121419081Y-60719144D01*
X121448375Y-60773949D01*
X121633947Y-61000069D01*
X121860067Y-61185641D01*
X121914872Y-61214935D01*
X121860067Y-61244229D01*
X121633947Y-61429801D01*
X121448375Y-61655921D01*
X121310482Y-61913901D01*
X121225568Y-62193824D01*
X121196896Y-62484935D01*
X121225568Y-62776046D01*
X121310482Y-63055969D01*
X121448375Y-63313949D01*
X121633947Y-63540069D01*
X121860067Y-63725641D01*
X122118047Y-63863534D01*
X122397970Y-63948448D01*
X122616131Y-63969935D01*
X122762031Y-63969935D01*
X122980192Y-63948448D01*
X123260115Y-63863534D01*
X123518095Y-63725641D01*
X123744215Y-63540069D01*
X123929787Y-63313949D01*
X123959081Y-63259144D01*
X123988375Y-63313949D01*
X124173947Y-63540069D01*
X124400067Y-63725641D01*
X124658047Y-63863534D01*
X124937970Y-63948448D01*
X125156131Y-63969935D01*
X125302031Y-63969935D01*
X125520192Y-63948448D01*
X125800115Y-63863534D01*
X126058095Y-63725641D01*
X126284215Y-63540069D01*
X126469787Y-63313949D01*
X126499081Y-63259144D01*
X126528375Y-63313949D01*
X126713947Y-63540069D01*
X126940067Y-63725641D01*
X127198047Y-63863534D01*
X127477970Y-63948448D01*
X127696131Y-63969935D01*
X127842031Y-63969935D01*
X128060192Y-63948448D01*
X128340115Y-63863534D01*
X128598095Y-63725641D01*
X128824215Y-63540069D01*
X129009787Y-63313949D01*
X129147680Y-63055969D01*
X129232594Y-62776046D01*
X129261266Y-62484935D01*
X129232594Y-62193824D01*
X129147680Y-61913901D01*
X129009787Y-61655921D01*
X128824215Y-61429801D01*
X128598095Y-61244229D01*
X128543290Y-61214935D01*
X128598095Y-61185641D01*
X128824215Y-61000069D01*
X129009787Y-60773949D01*
X129039081Y-60719144D01*
X129068375Y-60773949D01*
X129253947Y-61000069D01*
X129480067Y-61185641D01*
X129738047Y-61323534D01*
X130017970Y-61408448D01*
X130236131Y-61429935D01*
X130382031Y-61429935D01*
X130600192Y-61408448D01*
X130880115Y-61323534D01*
X131138095Y-61185641D01*
X131364215Y-61000069D01*
X131549787Y-60773949D01*
X131579081Y-60719144D01*
X131608375Y-60773949D01*
X131793947Y-61000069D01*
X132020067Y-61185641D01*
X132074872Y-61214935D01*
X132020067Y-61244229D01*
X131793947Y-61429801D01*
X131608375Y-61655921D01*
X131470482Y-61913901D01*
X131385568Y-62193824D01*
X131356896Y-62484935D01*
X131385568Y-62776046D01*
X131470482Y-63055969D01*
X131608375Y-63313949D01*
X131793947Y-63540069D01*
X132020067Y-63725641D01*
X132278047Y-63863534D01*
X132557970Y-63948448D01*
X132776131Y-63969935D01*
X132922031Y-63969935D01*
X133140192Y-63948448D01*
X133420115Y-63863534D01*
X133678095Y-63725641D01*
X133904215Y-63540069D01*
X134089787Y-63313949D01*
X134227680Y-63055969D01*
X134312594Y-62776046D01*
X134341266Y-62484935D01*
X134312594Y-62193824D01*
X134227680Y-61913901D01*
X134089787Y-61655921D01*
X133904215Y-61429801D01*
X133678095Y-61244229D01*
X133623290Y-61214935D01*
X133678095Y-61185641D01*
X133904215Y-61000069D01*
X134089787Y-60773949D01*
X134227680Y-60515969D01*
X134312594Y-60236046D01*
X134341266Y-59944935D01*
X134312594Y-59653824D01*
X134227680Y-59373901D01*
X134089787Y-59115921D01*
X133904215Y-58889801D01*
X133678095Y-58704229D01*
X133623290Y-58674935D01*
X133678095Y-58645641D01*
X133904215Y-58460069D01*
X134089787Y-58233949D01*
X134119081Y-58179144D01*
X134148375Y-58233949D01*
X134333947Y-58460069D01*
X134560067Y-58645641D01*
X134818047Y-58783534D01*
X135097970Y-58868448D01*
X135316131Y-58889935D01*
X135462031Y-58889935D01*
X135680192Y-58868448D01*
X135960115Y-58783534D01*
X136218095Y-58645641D01*
X136444215Y-58460069D01*
X136629787Y-58233949D01*
X136659081Y-58179144D01*
X136688375Y-58233949D01*
X136873947Y-58460069D01*
X137100067Y-58645641D01*
X137154872Y-58674935D01*
X137100067Y-58704229D01*
X136873947Y-58889801D01*
X136688375Y-59115921D01*
X136550482Y-59373901D01*
X136465568Y-59653824D01*
X136436896Y-59944935D01*
X136465568Y-60236046D01*
X136550482Y-60515969D01*
X136688375Y-60773949D01*
X136873947Y-61000069D01*
X137100067Y-61185641D01*
X137154872Y-61214935D01*
X137100067Y-61244229D01*
X136873947Y-61429801D01*
X136688375Y-61655921D01*
X136550482Y-61913901D01*
X136465568Y-62193824D01*
X136436896Y-62484935D01*
X136465568Y-62776046D01*
X136550482Y-63055969D01*
X136688375Y-63313949D01*
X136873947Y-63540069D01*
X137100067Y-63725641D01*
X137358047Y-63863534D01*
X137637970Y-63948448D01*
X137856131Y-63969935D01*
X138002031Y-63969935D01*
X138220192Y-63948448D01*
X138500115Y-63863534D01*
X138758095Y-63725641D01*
X138984215Y-63540069D01*
X139169787Y-63313949D01*
X139199081Y-63259144D01*
X139228375Y-63313949D01*
X139413947Y-63540069D01*
X139640067Y-63725641D01*
X139898047Y-63863534D01*
X140177970Y-63948448D01*
X140396131Y-63969935D01*
X140542031Y-63969935D01*
X140760192Y-63948448D01*
X141040115Y-63863534D01*
X141298095Y-63725641D01*
X141524215Y-63540069D01*
X141709787Y-63313949D01*
X141739081Y-63259144D01*
X141768375Y-63313949D01*
X141953947Y-63540069D01*
X142180067Y-63725641D01*
X142438047Y-63863534D01*
X142717970Y-63948448D01*
X142936131Y-63969935D01*
X143082031Y-63969935D01*
X143300192Y-63948448D01*
X143580115Y-63863534D01*
X143838095Y-63725641D01*
X144064215Y-63540069D01*
X144249787Y-63313949D01*
X144387680Y-63055969D01*
X144472594Y-62776046D01*
X144501266Y-62484935D01*
X144472594Y-62193824D01*
X144387680Y-61913901D01*
X144249787Y-61655921D01*
X144064215Y-61429801D01*
X143838095Y-61244229D01*
X143783290Y-61214935D01*
X143838095Y-61185641D01*
X144064215Y-61000069D01*
X144249787Y-60773949D01*
X144387680Y-60515969D01*
X144472594Y-60236046D01*
X144501266Y-59944935D01*
X144472594Y-59653824D01*
X144387680Y-59373901D01*
X144249787Y-59115921D01*
X144064215Y-58889801D01*
X143838095Y-58704229D01*
X143783290Y-58674935D01*
X143838095Y-58645641D01*
X144064215Y-58460069D01*
X144249787Y-58233949D01*
X144279081Y-58179144D01*
X144308375Y-58233949D01*
X144493947Y-58460069D01*
X144720067Y-58645641D01*
X144978047Y-58783534D01*
X145257970Y-58868448D01*
X145476131Y-58889935D01*
X145622031Y-58889935D01*
X145840192Y-58868448D01*
X146120115Y-58783534D01*
X146378095Y-58645641D01*
X146604215Y-58460069D01*
X146789787Y-58233949D01*
X146819081Y-58179144D01*
X146848375Y-58233949D01*
X147033947Y-58460069D01*
X147260067Y-58645641D01*
X147518047Y-58783534D01*
X147797970Y-58868448D01*
X148016131Y-58889935D01*
X148162031Y-58889935D01*
X148380192Y-58868448D01*
X148660115Y-58783534D01*
X148918095Y-58645641D01*
X149144215Y-58460069D01*
X149329787Y-58233949D01*
X149359081Y-58179144D01*
X149388375Y-58233949D01*
X149573947Y-58460069D01*
X149800067Y-58645641D01*
X149854872Y-58674935D01*
X149800067Y-58704229D01*
X149573947Y-58889801D01*
X149388375Y-59115921D01*
X149250482Y-59373901D01*
X149165568Y-59653824D01*
X149136896Y-59944935D01*
X149165568Y-60236046D01*
X149250482Y-60515969D01*
X149388375Y-60773949D01*
X149573947Y-61000069D01*
X149800067Y-61185641D01*
X149854872Y-61214935D01*
X149800067Y-61244229D01*
X149573947Y-61429801D01*
X149388375Y-61655921D01*
X149359081Y-61710726D01*
X149329787Y-61655921D01*
X149144215Y-61429801D01*
X148918095Y-61244229D01*
X148660115Y-61106336D01*
X148380192Y-61021422D01*
X148162031Y-60999935D01*
X148016131Y-60999935D01*
X147797970Y-61021422D01*
X147518047Y-61106336D01*
X147260067Y-61244229D01*
X147033947Y-61429801D01*
X146848375Y-61655921D01*
X146710482Y-61913901D01*
X146625568Y-62193824D01*
X146596896Y-62484935D01*
X146625568Y-62776046D01*
X146710482Y-63055969D01*
X146848375Y-63313949D01*
X147033947Y-63540069D01*
X147260067Y-63725641D01*
X147518047Y-63863534D01*
X147797970Y-63948448D01*
X148016131Y-63969935D01*
X148162031Y-63969935D01*
X148380192Y-63948448D01*
X148660115Y-63863534D01*
X148918095Y-63725641D01*
X149144215Y-63540069D01*
X149329787Y-63313949D01*
X149359081Y-63259144D01*
X149388375Y-63313949D01*
X149573947Y-63540069D01*
X149800067Y-63725641D01*
X150058047Y-63863534D01*
X150337970Y-63948448D01*
X150556131Y-63969935D01*
X150702031Y-63969935D01*
X150920192Y-63948448D01*
X151200115Y-63863534D01*
X151458095Y-63725641D01*
X151684215Y-63540069D01*
X151869787Y-63313949D01*
X151899081Y-63259144D01*
X151928375Y-63313949D01*
X152113947Y-63540069D01*
X152340067Y-63725641D01*
X152409082Y-63762530D01*
X152409081Y-75751117D01*
X136619845Y-91540354D01*
X136590847Y-91564152D01*
X136567049Y-91593150D01*
X136567048Y-91593151D01*
X136495873Y-91679877D01*
X136425301Y-91811907D01*
X136396740Y-91906063D01*
X136383413Y-91950000D01*
X136381845Y-91955168D01*
X136367171Y-92104153D01*
X136370848Y-92141485D01*
X136370847Y-94575442D01*
X136326910Y-94619379D01*
X136213642Y-94788897D01*
X136135621Y-94977255D01*
X136095847Y-95177214D01*
X136095847Y-95381092D01*
X136135621Y-95581051D01*
X136213642Y-95769409D01*
X136326910Y-95938927D01*
X136471073Y-96083090D01*
X136640591Y-96196358D01*
X136828949Y-96274379D01*
X137028908Y-96314153D01*
X137232786Y-96314153D01*
X137432745Y-96274379D01*
X137621103Y-96196358D01*
X137790621Y-96083090D01*
X137934784Y-95938927D01*
X138048052Y-95769409D01*
X138126073Y-95581051D01*
X138165847Y-95381092D01*
X138165847Y-95177214D01*
X138126073Y-94977255D01*
X138048052Y-94788897D01*
X137934784Y-94619379D01*
X137890847Y-94575442D01*
X137890847Y-92608061D01*
X139300000Y-92608061D01*
X139300000Y-92811939D01*
X139339774Y-93011898D01*
X139417795Y-93200256D01*
X139531063Y-93369774D01*
X139675226Y-93513937D01*
X139844744Y-93627205D01*
X140033102Y-93705226D01*
X140233061Y-93745000D01*
X140436939Y-93745000D01*
X140636898Y-93705226D01*
X140825256Y-93627205D01*
X140994774Y-93513937D01*
X141038711Y-93470000D01*
X149545199Y-93470000D01*
X152000000Y-95924802D01*
X152000000Y-95986939D01*
X152039774Y-96186898D01*
X152117795Y-96375256D01*
X152231063Y-96544774D01*
X152375226Y-96688937D01*
X152544744Y-96802205D01*
X152733102Y-96880226D01*
X152933061Y-96920000D01*
X153136939Y-96920000D01*
X153336898Y-96880226D01*
X153525256Y-96802205D01*
X153694774Y-96688937D01*
X153838937Y-96544774D01*
X153952205Y-96375256D01*
X154030226Y-96186898D01*
X154070000Y-95986939D01*
X154070000Y-95783061D01*
X154030226Y-95583102D01*
X153952205Y-95394744D01*
X153838937Y-95225226D01*
X153694774Y-95081063D01*
X153525256Y-94967795D01*
X153336898Y-94889774D01*
X153136939Y-94850000D01*
X153074802Y-94850000D01*
X150423804Y-92199003D01*
X150400001Y-92169999D01*
X150284276Y-92075026D01*
X150152247Y-92004454D01*
X150008986Y-91960997D01*
X149897333Y-91950000D01*
X149897322Y-91950000D01*
X149860000Y-91946324D01*
X149822678Y-91950000D01*
X141038711Y-91950000D01*
X140994774Y-91906063D01*
X140825256Y-91792795D01*
X140636898Y-91714774D01*
X140436939Y-91675000D01*
X140233061Y-91675000D01*
X140033102Y-91714774D01*
X139844744Y-91792795D01*
X139675226Y-91906063D01*
X139531063Y-92050226D01*
X139417795Y-92219744D01*
X139339774Y-92408102D01*
X139300000Y-92608061D01*
X137890847Y-92608061D01*
X137890847Y-92418954D01*
X153680085Y-76629717D01*
X153709082Y-76605920D01*
X153735413Y-76573836D01*
X153804055Y-76490196D01*
X153874627Y-76358166D01*
X153874627Y-76358165D01*
X153918084Y-76214905D01*
X153929081Y-76103252D01*
X153929081Y-76103243D01*
X153932757Y-76065920D01*
X153929081Y-76028597D01*
X153929081Y-63762530D01*
X153998095Y-63725641D01*
X154224215Y-63540069D01*
X154409787Y-63313949D01*
X154439081Y-63259144D01*
X154468375Y-63313949D01*
X154653947Y-63540069D01*
X154880067Y-63725641D01*
X155138047Y-63863534D01*
X155417970Y-63948448D01*
X155636131Y-63969935D01*
X155782031Y-63969935D01*
X156000192Y-63948448D01*
X156280115Y-63863534D01*
X156538095Y-63725641D01*
X156764215Y-63540069D01*
X156949787Y-63313949D01*
X156979081Y-63259144D01*
X157008375Y-63313949D01*
X157193947Y-63540069D01*
X157420067Y-63725641D01*
X157678047Y-63863534D01*
X157957970Y-63948448D01*
X158176131Y-63969935D01*
X158322031Y-63969935D01*
X158540192Y-63948448D01*
X158820115Y-63863534D01*
X159078095Y-63725641D01*
X159304215Y-63540069D01*
X159489787Y-63313949D01*
X159519081Y-63259144D01*
X159548375Y-63313949D01*
X159733947Y-63540069D01*
X159960067Y-63725641D01*
X160218047Y-63863534D01*
X160497970Y-63948448D01*
X160716131Y-63969935D01*
X160862031Y-63969935D01*
X161080192Y-63948448D01*
X161360115Y-63863534D01*
X161618095Y-63725641D01*
X161844215Y-63540069D01*
X162029787Y-63313949D01*
X162059081Y-63259144D01*
X162088375Y-63313949D01*
X162273947Y-63540069D01*
X162500067Y-63725641D01*
X162758047Y-63863534D01*
X163037970Y-63948448D01*
X163256131Y-63969935D01*
X163402031Y-63969935D01*
X163620192Y-63948448D01*
X163900115Y-63863534D01*
X164158095Y-63725641D01*
X164384215Y-63540069D01*
X164569787Y-63313949D01*
X164599081Y-63259144D01*
X164628375Y-63313949D01*
X164813947Y-63540069D01*
X165040067Y-63725641D01*
X165298047Y-63863534D01*
X165577970Y-63948448D01*
X165796131Y-63969935D01*
X165942031Y-63969935D01*
X166160192Y-63948448D01*
X166440115Y-63863534D01*
X166698095Y-63725641D01*
X166924215Y-63540069D01*
X167109787Y-63313949D01*
X167247680Y-63055969D01*
X167332594Y-62776046D01*
X167361266Y-62484935D01*
X167332594Y-62193824D01*
X167247680Y-61913901D01*
X167109787Y-61655921D01*
X166924215Y-61429801D01*
X166698095Y-61244229D01*
X166643290Y-61214935D01*
X166698095Y-61185641D01*
X166924215Y-61000069D01*
X167109787Y-60773949D01*
X167247680Y-60515969D01*
X167332594Y-60236046D01*
X167361266Y-59944935D01*
X167332594Y-59653824D01*
X167247680Y-59373901D01*
X167109787Y-59115921D01*
X166924215Y-58889801D01*
X166698095Y-58704229D01*
X166643290Y-58674935D01*
X166698095Y-58645641D01*
X166924215Y-58460069D01*
X167109787Y-58233949D01*
X167139081Y-58179144D01*
X167168375Y-58233949D01*
X167353947Y-58460069D01*
X167580067Y-58645641D01*
X167838047Y-58783534D01*
X168117970Y-58868448D01*
X168336131Y-58889935D01*
X168482031Y-58889935D01*
X168700192Y-58868448D01*
X168980115Y-58783534D01*
X169238095Y-58645641D01*
X169464215Y-58460069D01*
X169649787Y-58233949D01*
X169679081Y-58179144D01*
X169708375Y-58233949D01*
X169893947Y-58460069D01*
X170120067Y-58645641D01*
X170174872Y-58674935D01*
X170120067Y-58704229D01*
X169893947Y-58889801D01*
X169708375Y-59115921D01*
X169570482Y-59373901D01*
X169485568Y-59653824D01*
X169456896Y-59944935D01*
X169485568Y-60236046D01*
X169570482Y-60515969D01*
X169708375Y-60773949D01*
X169893947Y-61000069D01*
X170120067Y-61185641D01*
X170174872Y-61214935D01*
X170120067Y-61244229D01*
X169893947Y-61429801D01*
X169708375Y-61655921D01*
X169570482Y-61913901D01*
X169485568Y-62193824D01*
X169456896Y-62484935D01*
X169485568Y-62776046D01*
X169570482Y-63055969D01*
X169708375Y-63313949D01*
X169893947Y-63540069D01*
X170120067Y-63725641D01*
X170378047Y-63863534D01*
X170657970Y-63948448D01*
X170876131Y-63969935D01*
X171022031Y-63969935D01*
X171240192Y-63948448D01*
X171520115Y-63863534D01*
X171778095Y-63725641D01*
X172004215Y-63540069D01*
X172189787Y-63313949D01*
X172219081Y-63259144D01*
X172248375Y-63313949D01*
X172433947Y-63540069D01*
X172660067Y-63725641D01*
X172918047Y-63863534D01*
X173197970Y-63948448D01*
X173416131Y-63969935D01*
X173562031Y-63969935D01*
X173780192Y-63948448D01*
X174060115Y-63863534D01*
X174318095Y-63725641D01*
X174544215Y-63540069D01*
X174729787Y-63313949D01*
X174867680Y-63055969D01*
X174952594Y-62776046D01*
X174981266Y-62484935D01*
X174952594Y-62193824D01*
X174867680Y-61913901D01*
X174729787Y-61655921D01*
X174544215Y-61429801D01*
X174318095Y-61244229D01*
X174263290Y-61214935D01*
X174318095Y-61185641D01*
X174544215Y-61000069D01*
X174729787Y-60773949D01*
X174867680Y-60515969D01*
X174952594Y-60236046D01*
X174981266Y-59944935D01*
X174952594Y-59653824D01*
X174867680Y-59373901D01*
X174729787Y-59115921D01*
X174544215Y-58889801D01*
X174318095Y-58704229D01*
X174263290Y-58674935D01*
X174318095Y-58645641D01*
X174544215Y-58460069D01*
X174729787Y-58233949D01*
X174867680Y-57975969D01*
X174952594Y-57696046D01*
X174981266Y-57404935D01*
X174952594Y-57113824D01*
X174867680Y-56833901D01*
X174729787Y-56575921D01*
X174544215Y-56349801D01*
X174318095Y-56164229D01*
X174263290Y-56134935D01*
X174318095Y-56105641D01*
X174544215Y-55920069D01*
X174729787Y-55693949D01*
X174811891Y-55540344D01*
X174898416Y-55975336D01*
X175185622Y-56668712D01*
X175602580Y-57292733D01*
X176133267Y-57823420D01*
X176757288Y-58240378D01*
X177450664Y-58527584D01*
X178186748Y-58674000D01*
X178937252Y-58674000D01*
X179673336Y-58527584D01*
X180366712Y-58240378D01*
X180900000Y-57884046D01*
X180900001Y-72736113D01*
X180896565Y-72771000D01*
X180910273Y-72910184D01*
X180950872Y-73044020D01*
X181016800Y-73167363D01*
X181105525Y-73275475D01*
X181213637Y-73364200D01*
X181336980Y-73430128D01*
X181470816Y-73470727D01*
X181575123Y-73481000D01*
X181610000Y-73484435D01*
X181644877Y-73481000D01*
X185472000Y-73481000D01*
X185472001Y-144959000D01*
X153110000Y-144959000D01*
X153110000Y-142782877D01*
X153113435Y-142748000D01*
X153099727Y-142608816D01*
X153059128Y-142474980D01*
X152993200Y-142351637D01*
X152904475Y-142243525D01*
X152796363Y-142154800D01*
X152673020Y-142088872D01*
X152539184Y-142048273D01*
X152434877Y-142038000D01*
X152400000Y-142034565D01*
X152365123Y-142038000D01*
X132114877Y-142038000D01*
X132080000Y-142034565D01*
X132045123Y-142038000D01*
X131940816Y-142048273D01*
X131806980Y-142088872D01*
X131683637Y-142154800D01*
X131575525Y-142243525D01*
X131486800Y-142351637D01*
X131420872Y-142474980D01*
X131380273Y-142608816D01*
X131366565Y-142748000D01*
X131370001Y-142782887D01*
X131370000Y-144959000D01*
X96722000Y-144959000D01*
X96722000Y-140213748D01*
X97282000Y-140213748D01*
X97282000Y-140964252D01*
X97428416Y-141700336D01*
X97715622Y-142393712D01*
X98132580Y-143017733D01*
X98663267Y-143548420D01*
X99287288Y-143965378D01*
X99980664Y-144252584D01*
X100716748Y-144399000D01*
X101467252Y-144399000D01*
X102203336Y-144252584D01*
X102896712Y-143965378D01*
X103520733Y-143548420D01*
X104051420Y-143017733D01*
X104468378Y-142393712D01*
X104755584Y-141700336D01*
X104902000Y-140964252D01*
X104902000Y-140213748D01*
X177292000Y-140213748D01*
X177292000Y-140964252D01*
X177438416Y-141700336D01*
X177725622Y-142393712D01*
X178142580Y-143017733D01*
X178673267Y-143548420D01*
X179297288Y-143965378D01*
X179990664Y-144252584D01*
X180726748Y-144399000D01*
X181477252Y-144399000D01*
X182213336Y-144252584D01*
X182906712Y-143965378D01*
X183530733Y-143548420D01*
X184061420Y-143017733D01*
X184478378Y-142393712D01*
X184765584Y-141700336D01*
X184912000Y-140964252D01*
X184912000Y-140213748D01*
X184765584Y-139477664D01*
X184478378Y-138784288D01*
X184061420Y-138160267D01*
X183530733Y-137629580D01*
X182906712Y-137212622D01*
X182213336Y-136925416D01*
X181477252Y-136779000D01*
X180726748Y-136779000D01*
X179990664Y-136925416D01*
X179297288Y-137212622D01*
X178673267Y-137629580D01*
X178142580Y-138160267D01*
X177725622Y-138784288D01*
X177438416Y-139477664D01*
X177292000Y-140213748D01*
X104902000Y-140213748D01*
X104755584Y-139477664D01*
X104468378Y-138784288D01*
X104051420Y-138160267D01*
X103520733Y-137629580D01*
X102896712Y-137212622D01*
X102203336Y-136925416D01*
X101467252Y-136779000D01*
X100716748Y-136779000D01*
X99980664Y-136925416D01*
X99287288Y-137212622D01*
X98663267Y-137629580D01*
X98132580Y-138160267D01*
X97715622Y-138784288D01*
X97428416Y-139477664D01*
X97282000Y-140213748D01*
X96722000Y-140213748D01*
X96722000Y-108583800D01*
X97882123Y-108583800D01*
X97917000Y-108587235D01*
X97951877Y-108583800D01*
X98056184Y-108573527D01*
X98190020Y-108532928D01*
X98313363Y-108467000D01*
X98421475Y-108378275D01*
X98510200Y-108270163D01*
X98576128Y-108146820D01*
X98616727Y-108012984D01*
X98630435Y-107873800D01*
X98627000Y-107838923D01*
X98627000Y-102133061D01*
X141205000Y-102133061D01*
X141205000Y-102336939D01*
X141244774Y-102536898D01*
X141322795Y-102725256D01*
X141436063Y-102894774D01*
X141580226Y-103038937D01*
X141749744Y-103152205D01*
X141938102Y-103230226D01*
X142138061Y-103270000D01*
X142341939Y-103270000D01*
X142541898Y-103230226D01*
X142730256Y-103152205D01*
X142899774Y-103038937D01*
X143043937Y-102894774D01*
X143157205Y-102725256D01*
X143235226Y-102536898D01*
X143275000Y-102336939D01*
X143275000Y-102133061D01*
X143235226Y-101933102D01*
X143160969Y-101753832D01*
X143824802Y-101090000D01*
X144510987Y-101090000D01*
X144497795Y-101109744D01*
X144419774Y-101298102D01*
X144380000Y-101498061D01*
X144380000Y-101701939D01*
X144419774Y-101901898D01*
X144497795Y-102090256D01*
X144611063Y-102259774D01*
X144755226Y-102403937D01*
X144924744Y-102517205D01*
X145113102Y-102595226D01*
X145313061Y-102635000D01*
X145516939Y-102635000D01*
X145716898Y-102595226D01*
X145905256Y-102517205D01*
X146074774Y-102403937D01*
X146218937Y-102259774D01*
X146332205Y-102090256D01*
X146410226Y-101901898D01*
X146450000Y-101701939D01*
X146450000Y-101498061D01*
X146410226Y-101298102D01*
X146332205Y-101109744D01*
X146292675Y-101050583D01*
X146342247Y-101035546D01*
X146474276Y-100964974D01*
X146590001Y-100870001D01*
X146613804Y-100840997D01*
X147359802Y-100095000D01*
X147421939Y-100095000D01*
X147621898Y-100055226D01*
X147810256Y-99977205D01*
X147979774Y-99863937D01*
X148123937Y-99719774D01*
X148237205Y-99550256D01*
X148315226Y-99361898D01*
X148355000Y-99161939D01*
X148355000Y-98958061D01*
X148315226Y-98758102D01*
X148237205Y-98569744D01*
X148123937Y-98400226D01*
X147979774Y-98256063D01*
X147810256Y-98142795D01*
X147621898Y-98064774D01*
X147421939Y-98025000D01*
X147218061Y-98025000D01*
X147018102Y-98064774D01*
X146829744Y-98142795D01*
X146660226Y-98256063D01*
X146516063Y-98400226D01*
X146402795Y-98569744D01*
X146324774Y-98758102D01*
X146285000Y-98958061D01*
X146285000Y-99020198D01*
X145735199Y-99570000D01*
X143547322Y-99570000D01*
X143509999Y-99566324D01*
X143472676Y-99570000D01*
X143472667Y-99570000D01*
X143361014Y-99580997D01*
X143217753Y-99624454D01*
X143085724Y-99695026D01*
X142969999Y-99789999D01*
X142946201Y-99818997D01*
X141728998Y-101036201D01*
X141700000Y-101059999D01*
X141676202Y-101088997D01*
X141676201Y-101088998D01*
X141605026Y-101175724D01*
X141559037Y-101261764D01*
X141534454Y-101307753D01*
X141490997Y-101451014D01*
X141483428Y-101527861D01*
X141436063Y-101575226D01*
X141322795Y-101744744D01*
X141244774Y-101933102D01*
X141205000Y-102133061D01*
X98627000Y-102133061D01*
X98627000Y-98323061D01*
X132315000Y-98323061D01*
X132315000Y-98526939D01*
X132354774Y-98726898D01*
X132432795Y-98915256D01*
X132546063Y-99084774D01*
X132690226Y-99228937D01*
X132859744Y-99342205D01*
X133048102Y-99420226D01*
X133248061Y-99460000D01*
X133451939Y-99460000D01*
X133651898Y-99420226D01*
X133840256Y-99342205D01*
X134009774Y-99228937D01*
X134153937Y-99084774D01*
X134267205Y-98915256D01*
X134345226Y-98726898D01*
X134385000Y-98526939D01*
X134385000Y-98323061D01*
X134345226Y-98123102D01*
X134267205Y-97934744D01*
X134153937Y-97765226D01*
X134110000Y-97721289D01*
X134110000Y-94375413D01*
X134286898Y-94340226D01*
X134475256Y-94262205D01*
X134644774Y-94148937D01*
X134788937Y-94004774D01*
X134902205Y-93835256D01*
X134980226Y-93646898D01*
X135020000Y-93446939D01*
X135020000Y-93243061D01*
X134980226Y-93043102D01*
X134902205Y-92854744D01*
X134788937Y-92685226D01*
X134644774Y-92541063D01*
X134475256Y-92427795D01*
X134286898Y-92349774D01*
X134086939Y-92310000D01*
X133883061Y-92310000D01*
X133683102Y-92349774D01*
X133494744Y-92427795D01*
X133325226Y-92541063D01*
X133181063Y-92685226D01*
X133067795Y-92854744D01*
X132989774Y-93043102D01*
X132950000Y-93243061D01*
X132950000Y-93305199D01*
X132838998Y-93416201D01*
X132810000Y-93439999D01*
X132786202Y-93468997D01*
X132786201Y-93468998D01*
X132715026Y-93555724D01*
X132644454Y-93687754D01*
X132600998Y-93831015D01*
X132586324Y-93980000D01*
X132590001Y-94017332D01*
X132590000Y-97721289D01*
X132546063Y-97765226D01*
X132432795Y-97934744D01*
X132354774Y-98123102D01*
X132315000Y-98323061D01*
X98627000Y-98323061D01*
X98627000Y-87614077D01*
X98630435Y-87579200D01*
X98616727Y-87440016D01*
X98576128Y-87306180D01*
X98510200Y-87182837D01*
X98421475Y-87074725D01*
X98313363Y-86986000D01*
X98190020Y-86920072D01*
X98056184Y-86879473D01*
X97951877Y-86869200D01*
X97917000Y-86865765D01*
X97882123Y-86869200D01*
X96722000Y-86869200D01*
X96722000Y-74726461D01*
X148494800Y-74726461D01*
X148494800Y-74930339D01*
X148534574Y-75130298D01*
X148612595Y-75318656D01*
X148725863Y-75488174D01*
X148870026Y-75632337D01*
X149039544Y-75745605D01*
X149227902Y-75823626D01*
X149427861Y-75863400D01*
X149631739Y-75863400D01*
X149831698Y-75823626D01*
X150020056Y-75745605D01*
X150189574Y-75632337D01*
X150333737Y-75488174D01*
X150447005Y-75318656D01*
X150525026Y-75130298D01*
X150564800Y-74930339D01*
X150564800Y-74726461D01*
X150525026Y-74526502D01*
X150447005Y-74338144D01*
X150333737Y-74168626D01*
X150189574Y-74024463D01*
X150020056Y-73911195D01*
X149831698Y-73833174D01*
X149631739Y-73793400D01*
X149427861Y-73793400D01*
X149227902Y-73833174D01*
X149039544Y-73911195D01*
X148870026Y-74024463D01*
X148725863Y-74168626D01*
X148612595Y-74338144D01*
X148534574Y-74526502D01*
X148494800Y-74726461D01*
X96722000Y-74726461D01*
X96722000Y-50494000D01*
X131370000Y-50494000D01*
X131370001Y-52670113D01*
X131370001Y-52670113D01*
G37*
X131370001Y-52670113D02*
X131366565Y-52705000D01*
X131380273Y-52844184D01*
X131420872Y-52978020D01*
X131486800Y-53101363D01*
X131575525Y-53209475D01*
X131683637Y-53298200D01*
X131806980Y-53364128D01*
X131940816Y-53404727D01*
X132045123Y-53415000D01*
X132080000Y-53418435D01*
X132114877Y-53415000D01*
X132513209Y-53415000D01*
X132278047Y-53486336D01*
X132020067Y-53624229D01*
X131793947Y-53809801D01*
X131608375Y-54035921D01*
X131579081Y-54090726D01*
X131549787Y-54035921D01*
X131364215Y-53809801D01*
X131138095Y-53624229D01*
X130880115Y-53486336D01*
X130600192Y-53401422D01*
X130382031Y-53379935D01*
X130236131Y-53379935D01*
X130017970Y-53401422D01*
X129738047Y-53486336D01*
X129480067Y-53624229D01*
X129253947Y-53809801D01*
X129068375Y-54035921D01*
X129039081Y-54090726D01*
X129009787Y-54035921D01*
X128824215Y-53809801D01*
X128598095Y-53624229D01*
X128340115Y-53486336D01*
X128060192Y-53401422D01*
X127842031Y-53379935D01*
X127696131Y-53379935D01*
X127477970Y-53401422D01*
X127198047Y-53486336D01*
X126940067Y-53624229D01*
X126713947Y-53809801D01*
X126528375Y-54035921D01*
X126499081Y-54090726D01*
X126469787Y-54035921D01*
X126284215Y-53809801D01*
X126058095Y-53624229D01*
X125800115Y-53486336D01*
X125520192Y-53401422D01*
X125302031Y-53379935D01*
X125156131Y-53379935D01*
X124937970Y-53401422D01*
X124658047Y-53486336D01*
X124400067Y-53624229D01*
X124173947Y-53809801D01*
X123988375Y-54035921D01*
X123959081Y-54090726D01*
X123929787Y-54035921D01*
X123744215Y-53809801D01*
X123518095Y-53624229D01*
X123260115Y-53486336D01*
X122980192Y-53401422D01*
X122762031Y-53379935D01*
X122616131Y-53379935D01*
X122397970Y-53401422D01*
X122118047Y-53486336D01*
X121860067Y-53624229D01*
X121633947Y-53809801D01*
X121448375Y-54035921D01*
X121419081Y-54090726D01*
X121389787Y-54035921D01*
X121204215Y-53809801D01*
X120978095Y-53624229D01*
X120720115Y-53486336D01*
X120440192Y-53401422D01*
X120222031Y-53379935D01*
X120076131Y-53379935D01*
X119857970Y-53401422D01*
X119578047Y-53486336D01*
X119320067Y-53624229D01*
X119093947Y-53809801D01*
X118908375Y-54035921D01*
X118879081Y-54090726D01*
X118849787Y-54035921D01*
X118664215Y-53809801D01*
X118438095Y-53624229D01*
X118180115Y-53486336D01*
X117900192Y-53401422D01*
X117682031Y-53379935D01*
X117536131Y-53379935D01*
X117317970Y-53401422D01*
X117038047Y-53486336D01*
X116780067Y-53624229D01*
X116553947Y-53809801D01*
X116368375Y-54035921D01*
X116339081Y-54090726D01*
X116309787Y-54035921D01*
X116124215Y-53809801D01*
X115898095Y-53624229D01*
X115640115Y-53486336D01*
X115360192Y-53401422D01*
X115142031Y-53379935D01*
X114996131Y-53379935D01*
X114777970Y-53401422D01*
X114498047Y-53486336D01*
X114240067Y-53624229D01*
X114013947Y-53809801D01*
X113828375Y-54035921D01*
X113799081Y-54090726D01*
X113769787Y-54035921D01*
X113584215Y-53809801D01*
X113358095Y-53624229D01*
X113100115Y-53486336D01*
X112820192Y-53401422D01*
X112602031Y-53379935D01*
X112456131Y-53379935D01*
X112237970Y-53401422D01*
X111958047Y-53486336D01*
X111700067Y-53624229D01*
X111473947Y-53809801D01*
X111288375Y-54035921D01*
X111259081Y-54090726D01*
X111229787Y-54035921D01*
X111044215Y-53809801D01*
X110818095Y-53624229D01*
X110560115Y-53486336D01*
X110280192Y-53401422D01*
X110062031Y-53379935D01*
X109916131Y-53379935D01*
X109697970Y-53401422D01*
X109418047Y-53486336D01*
X109160067Y-53624229D01*
X108933947Y-53809801D01*
X108748375Y-54035921D01*
X108656221Y-54208329D01*
X108565584Y-53752664D01*
X108278378Y-53059288D01*
X107861420Y-52435267D01*
X107330733Y-51904580D01*
X106706712Y-51487622D01*
X106013336Y-51200416D01*
X105277252Y-51054000D01*
X104526748Y-51054000D01*
X103790664Y-51200416D01*
X103097288Y-51487622D01*
X102473267Y-51904580D01*
X101942580Y-52435267D01*
X101525622Y-53059288D01*
X101238416Y-53752664D01*
X101092000Y-54488748D01*
X101092000Y-55239252D01*
X101238416Y-55975336D01*
X101525622Y-56668712D01*
X101942580Y-57292733D01*
X102473267Y-57823420D01*
X103097288Y-58240378D01*
X103790664Y-58527584D01*
X104526748Y-58674000D01*
X105277252Y-58674000D01*
X106013336Y-58527584D01*
X106706712Y-58240378D01*
X107330733Y-57823420D01*
X107861420Y-57292733D01*
X108278378Y-56668712D01*
X108565584Y-55975336D01*
X108655950Y-55521034D01*
X108748375Y-55693949D01*
X108933947Y-55920069D01*
X108963768Y-55944542D01*
X108894901Y-55965433D01*
X108784587Y-56024398D01*
X108687896Y-56103750D01*
X108608544Y-56200441D01*
X108549579Y-56310755D01*
X108513269Y-56430453D01*
X108501009Y-56554935D01*
X108501009Y-58254935D01*
X108513269Y-58379417D01*
X108549579Y-58499115D01*
X108608544Y-58609429D01*
X108687896Y-58706120D01*
X108784587Y-58785472D01*
X108894901Y-58844437D01*
X108963768Y-58865328D01*
X108933947Y-58889801D01*
X108748375Y-59115921D01*
X108610482Y-59373901D01*
X108525568Y-59653824D01*
X108496896Y-59944935D01*
X108525568Y-60236046D01*
X108610482Y-60515969D01*
X108748375Y-60773949D01*
X108933947Y-61000069D01*
X108963768Y-61024542D01*
X108894901Y-61045433D01*
X108784587Y-61104398D01*
X108687896Y-61183750D01*
X108608544Y-61280441D01*
X108549579Y-61390755D01*
X108513269Y-61510453D01*
X108501009Y-61634935D01*
X108501009Y-63334935D01*
X108513269Y-63459417D01*
X108549579Y-63579115D01*
X108608544Y-63689429D01*
X108687896Y-63786120D01*
X108784587Y-63865472D01*
X108894901Y-63924437D01*
X109014599Y-63960747D01*
X109139081Y-63973007D01*
X110839081Y-63973007D01*
X110963563Y-63960747D01*
X111083261Y-63924437D01*
X111193575Y-63865472D01*
X111290266Y-63786120D01*
X111369618Y-63689429D01*
X111428583Y-63579115D01*
X111449474Y-63510248D01*
X111473947Y-63540069D01*
X111700067Y-63725641D01*
X111958047Y-63863534D01*
X112237970Y-63948448D01*
X112456131Y-63969935D01*
X112602031Y-63969935D01*
X112820192Y-63948448D01*
X113100115Y-63863534D01*
X113358095Y-63725641D01*
X113584215Y-63540069D01*
X113769787Y-63313949D01*
X113799081Y-63259144D01*
X113828375Y-63313949D01*
X114013947Y-63540069D01*
X114240067Y-63725641D01*
X114498047Y-63863534D01*
X114777970Y-63948448D01*
X114996131Y-63969935D01*
X115142031Y-63969935D01*
X115360192Y-63948448D01*
X115640115Y-63863534D01*
X115898095Y-63725641D01*
X116124215Y-63540069D01*
X116309787Y-63313949D01*
X116339081Y-63259144D01*
X116368375Y-63313949D01*
X116553947Y-63540069D01*
X116780067Y-63725641D01*
X117038047Y-63863534D01*
X117317970Y-63948448D01*
X117536131Y-63969935D01*
X117682031Y-63969935D01*
X117900192Y-63948448D01*
X118180115Y-63863534D01*
X118438095Y-63725641D01*
X118664215Y-63540069D01*
X118849787Y-63313949D01*
X118987680Y-63055969D01*
X119072594Y-62776046D01*
X119101266Y-62484935D01*
X119072594Y-62193824D01*
X118987680Y-61913901D01*
X118849787Y-61655921D01*
X118664215Y-61429801D01*
X118438095Y-61244229D01*
X118383290Y-61214935D01*
X118438095Y-61185641D01*
X118664215Y-61000069D01*
X118849787Y-60773949D01*
X118879081Y-60719144D01*
X118908375Y-60773949D01*
X119093947Y-61000069D01*
X119320067Y-61185641D01*
X119578047Y-61323534D01*
X119857970Y-61408448D01*
X120076131Y-61429935D01*
X120222031Y-61429935D01*
X120440192Y-61408448D01*
X120720115Y-61323534D01*
X120978095Y-61185641D01*
X121204215Y-61000069D01*
X121389787Y-60773949D01*
X121419081Y-60719144D01*
X121448375Y-60773949D01*
X121633947Y-61000069D01*
X121860067Y-61185641D01*
X121914872Y-61214935D01*
X121860067Y-61244229D01*
X121633947Y-61429801D01*
X121448375Y-61655921D01*
X121310482Y-61913901D01*
X121225568Y-62193824D01*
X121196896Y-62484935D01*
X121225568Y-62776046D01*
X121310482Y-63055969D01*
X121448375Y-63313949D01*
X121633947Y-63540069D01*
X121860067Y-63725641D01*
X122118047Y-63863534D01*
X122397970Y-63948448D01*
X122616131Y-63969935D01*
X122762031Y-63969935D01*
X122980192Y-63948448D01*
X123260115Y-63863534D01*
X123518095Y-63725641D01*
X123744215Y-63540069D01*
X123929787Y-63313949D01*
X123959081Y-63259144D01*
X123988375Y-63313949D01*
X124173947Y-63540069D01*
X124400067Y-63725641D01*
X124658047Y-63863534D01*
X124937970Y-63948448D01*
X125156131Y-63969935D01*
X125302031Y-63969935D01*
X125520192Y-63948448D01*
X125800115Y-63863534D01*
X126058095Y-63725641D01*
X126284215Y-63540069D01*
X126469787Y-63313949D01*
X126499081Y-63259144D01*
X126528375Y-63313949D01*
X126713947Y-63540069D01*
X126940067Y-63725641D01*
X127198047Y-63863534D01*
X127477970Y-63948448D01*
X127696131Y-63969935D01*
X127842031Y-63969935D01*
X128060192Y-63948448D01*
X128340115Y-63863534D01*
X128598095Y-63725641D01*
X128824215Y-63540069D01*
X129009787Y-63313949D01*
X129147680Y-63055969D01*
X129232594Y-62776046D01*
X129261266Y-62484935D01*
X129232594Y-62193824D01*
X129147680Y-61913901D01*
X129009787Y-61655921D01*
X128824215Y-61429801D01*
X128598095Y-61244229D01*
X128543290Y-61214935D01*
X128598095Y-61185641D01*
X128824215Y-61000069D01*
X129009787Y-60773949D01*
X129039081Y-60719144D01*
X129068375Y-60773949D01*
X129253947Y-61000069D01*
X129480067Y-61185641D01*
X129738047Y-61323534D01*
X130017970Y-61408448D01*
X130236131Y-61429935D01*
X130382031Y-61429935D01*
X130600192Y-61408448D01*
X130880115Y-61323534D01*
X131138095Y-61185641D01*
X131364215Y-61000069D01*
X131549787Y-60773949D01*
X131579081Y-60719144D01*
X131608375Y-60773949D01*
X131793947Y-61000069D01*
X132020067Y-61185641D01*
X132074872Y-61214935D01*
X132020067Y-61244229D01*
X131793947Y-61429801D01*
X131608375Y-61655921D01*
X131470482Y-61913901D01*
X131385568Y-62193824D01*
X131356896Y-62484935D01*
X131385568Y-62776046D01*
X131470482Y-63055969D01*
X131608375Y-63313949D01*
X131793947Y-63540069D01*
X132020067Y-63725641D01*
X132278047Y-63863534D01*
X132557970Y-63948448D01*
X132776131Y-63969935D01*
X132922031Y-63969935D01*
X133140192Y-63948448D01*
X133420115Y-63863534D01*
X133678095Y-63725641D01*
X133904215Y-63540069D01*
X134089787Y-63313949D01*
X134227680Y-63055969D01*
X134312594Y-62776046D01*
X134341266Y-62484935D01*
X134312594Y-62193824D01*
X134227680Y-61913901D01*
X134089787Y-61655921D01*
X133904215Y-61429801D01*
X133678095Y-61244229D01*
X133623290Y-61214935D01*
X133678095Y-61185641D01*
X133904215Y-61000069D01*
X134089787Y-60773949D01*
X134227680Y-60515969D01*
X134312594Y-60236046D01*
X134341266Y-59944935D01*
X134312594Y-59653824D01*
X134227680Y-59373901D01*
X134089787Y-59115921D01*
X133904215Y-58889801D01*
X133678095Y-58704229D01*
X133623290Y-58674935D01*
X133678095Y-58645641D01*
X133904215Y-58460069D01*
X134089787Y-58233949D01*
X134119081Y-58179144D01*
X134148375Y-58233949D01*
X134333947Y-58460069D01*
X134560067Y-58645641D01*
X134818047Y-58783534D01*
X135097970Y-58868448D01*
X135316131Y-58889935D01*
X135462031Y-58889935D01*
X135680192Y-58868448D01*
X135960115Y-58783534D01*
X136218095Y-58645641D01*
X136444215Y-58460069D01*
X136629787Y-58233949D01*
X136659081Y-58179144D01*
X136688375Y-58233949D01*
X136873947Y-58460069D01*
X137100067Y-58645641D01*
X137154872Y-58674935D01*
X137100067Y-58704229D01*
X136873947Y-58889801D01*
X136688375Y-59115921D01*
X136550482Y-59373901D01*
X136465568Y-59653824D01*
X136436896Y-59944935D01*
X136465568Y-60236046D01*
X136550482Y-60515969D01*
X136688375Y-60773949D01*
X136873947Y-61000069D01*
X137100067Y-61185641D01*
X137154872Y-61214935D01*
X137100067Y-61244229D01*
X136873947Y-61429801D01*
X136688375Y-61655921D01*
X136550482Y-61913901D01*
X136465568Y-62193824D01*
X136436896Y-62484935D01*
X136465568Y-62776046D01*
X136550482Y-63055969D01*
X136688375Y-63313949D01*
X136873947Y-63540069D01*
X137100067Y-63725641D01*
X137358047Y-63863534D01*
X137637970Y-63948448D01*
X137856131Y-63969935D01*
X138002031Y-63969935D01*
X138220192Y-63948448D01*
X138500115Y-63863534D01*
X138758095Y-63725641D01*
X138984215Y-63540069D01*
X139169787Y-63313949D01*
X139199081Y-63259144D01*
X139228375Y-63313949D01*
X139413947Y-63540069D01*
X139640067Y-63725641D01*
X139898047Y-63863534D01*
X140177970Y-63948448D01*
X140396131Y-63969935D01*
X140542031Y-63969935D01*
X140760192Y-63948448D01*
X141040115Y-63863534D01*
X141298095Y-63725641D01*
X141524215Y-63540069D01*
X141709787Y-63313949D01*
X141739081Y-63259144D01*
X141768375Y-63313949D01*
X141953947Y-63540069D01*
X142180067Y-63725641D01*
X142438047Y-63863534D01*
X142717970Y-63948448D01*
X142936131Y-63969935D01*
X143082031Y-63969935D01*
X143300192Y-63948448D01*
X143580115Y-63863534D01*
X143838095Y-63725641D01*
X144064215Y-63540069D01*
X144249787Y-63313949D01*
X144387680Y-63055969D01*
X144472594Y-62776046D01*
X144501266Y-62484935D01*
X144472594Y-62193824D01*
X144387680Y-61913901D01*
X144249787Y-61655921D01*
X144064215Y-61429801D01*
X143838095Y-61244229D01*
X143783290Y-61214935D01*
X143838095Y-61185641D01*
X144064215Y-61000069D01*
X144249787Y-60773949D01*
X144387680Y-60515969D01*
X144472594Y-60236046D01*
X144501266Y-59944935D01*
X144472594Y-59653824D01*
X144387680Y-59373901D01*
X144249787Y-59115921D01*
X144064215Y-58889801D01*
X143838095Y-58704229D01*
X143783290Y-58674935D01*
X143838095Y-58645641D01*
X144064215Y-58460069D01*
X144249787Y-58233949D01*
X144279081Y-58179144D01*
X144308375Y-58233949D01*
X144493947Y-58460069D01*
X144720067Y-58645641D01*
X144978047Y-58783534D01*
X145257970Y-58868448D01*
X145476131Y-58889935D01*
X145622031Y-58889935D01*
X145840192Y-58868448D01*
X146120115Y-58783534D01*
X146378095Y-58645641D01*
X146604215Y-58460069D01*
X146789787Y-58233949D01*
X146819081Y-58179144D01*
X146848375Y-58233949D01*
X147033947Y-58460069D01*
X147260067Y-58645641D01*
X147518047Y-58783534D01*
X147797970Y-58868448D01*
X148016131Y-58889935D01*
X148162031Y-58889935D01*
X148380192Y-58868448D01*
X148660115Y-58783534D01*
X148918095Y-58645641D01*
X149144215Y-58460069D01*
X149329787Y-58233949D01*
X149359081Y-58179144D01*
X149388375Y-58233949D01*
X149573947Y-58460069D01*
X149800067Y-58645641D01*
X149854872Y-58674935D01*
X149800067Y-58704229D01*
X149573947Y-58889801D01*
X149388375Y-59115921D01*
X149250482Y-59373901D01*
X149165568Y-59653824D01*
X149136896Y-59944935D01*
X149165568Y-60236046D01*
X149250482Y-60515969D01*
X149388375Y-60773949D01*
X149573947Y-61000069D01*
X149800067Y-61185641D01*
X149854872Y-61214935D01*
X149800067Y-61244229D01*
X149573947Y-61429801D01*
X149388375Y-61655921D01*
X149359081Y-61710726D01*
X149329787Y-61655921D01*
X149144215Y-61429801D01*
X148918095Y-61244229D01*
X148660115Y-61106336D01*
X148380192Y-61021422D01*
X148162031Y-60999935D01*
X148016131Y-60999935D01*
X147797970Y-61021422D01*
X147518047Y-61106336D01*
X147260067Y-61244229D01*
X147033947Y-61429801D01*
X146848375Y-61655921D01*
X146710482Y-61913901D01*
X146625568Y-62193824D01*
X146596896Y-62484935D01*
X146625568Y-62776046D01*
X146710482Y-63055969D01*
X146848375Y-63313949D01*
X147033947Y-63540069D01*
X147260067Y-63725641D01*
X147518047Y-63863534D01*
X147797970Y-63948448D01*
X148016131Y-63969935D01*
X148162031Y-63969935D01*
X148380192Y-63948448D01*
X148660115Y-63863534D01*
X148918095Y-63725641D01*
X149144215Y-63540069D01*
X149329787Y-63313949D01*
X149359081Y-63259144D01*
X149388375Y-63313949D01*
X149573947Y-63540069D01*
X149800067Y-63725641D01*
X150058047Y-63863534D01*
X150337970Y-63948448D01*
X150556131Y-63969935D01*
X150702031Y-63969935D01*
X150920192Y-63948448D01*
X151200115Y-63863534D01*
X151458095Y-63725641D01*
X151684215Y-63540069D01*
X151869787Y-63313949D01*
X151899081Y-63259144D01*
X151928375Y-63313949D01*
X152113947Y-63540069D01*
X152340067Y-63725641D01*
X152409082Y-63762530D01*
X152409081Y-75751117D01*
X136619845Y-91540354D01*
X136590847Y-91564152D01*
X136567049Y-91593150D01*
X136567048Y-91593151D01*
X136495873Y-91679877D01*
X136425301Y-91811907D01*
X136396740Y-91906063D01*
X136383413Y-91950000D01*
X136381845Y-91955168D01*
X136367171Y-92104153D01*
X136370848Y-92141485D01*
X136370847Y-94575442D01*
X136326910Y-94619379D01*
X136213642Y-94788897D01*
X136135621Y-94977255D01*
X136095847Y-95177214D01*
X136095847Y-95381092D01*
X136135621Y-95581051D01*
X136213642Y-95769409D01*
X136326910Y-95938927D01*
X136471073Y-96083090D01*
X136640591Y-96196358D01*
X136828949Y-96274379D01*
X137028908Y-96314153D01*
X137232786Y-96314153D01*
X137432745Y-96274379D01*
X137621103Y-96196358D01*
X137790621Y-96083090D01*
X137934784Y-95938927D01*
X138048052Y-95769409D01*
X138126073Y-95581051D01*
X138165847Y-95381092D01*
X138165847Y-95177214D01*
X138126073Y-94977255D01*
X138048052Y-94788897D01*
X137934784Y-94619379D01*
X137890847Y-94575442D01*
X137890847Y-92608061D01*
X139300000Y-92608061D01*
X139300000Y-92811939D01*
X139339774Y-93011898D01*
X139417795Y-93200256D01*
X139531063Y-93369774D01*
X139675226Y-93513937D01*
X139844744Y-93627205D01*
X140033102Y-93705226D01*
X140233061Y-93745000D01*
X140436939Y-93745000D01*
X140636898Y-93705226D01*
X140825256Y-93627205D01*
X140994774Y-93513937D01*
X141038711Y-93470000D01*
X149545199Y-93470000D01*
X152000000Y-95924802D01*
X152000000Y-95986939D01*
X152039774Y-96186898D01*
X152117795Y-96375256D01*
X152231063Y-96544774D01*
X152375226Y-96688937D01*
X152544744Y-96802205D01*
X152733102Y-96880226D01*
X152933061Y-96920000D01*
X153136939Y-96920000D01*
X153336898Y-96880226D01*
X153525256Y-96802205D01*
X153694774Y-96688937D01*
X153838937Y-96544774D01*
X153952205Y-96375256D01*
X154030226Y-96186898D01*
X154070000Y-95986939D01*
X154070000Y-95783061D01*
X154030226Y-95583102D01*
X153952205Y-95394744D01*
X153838937Y-95225226D01*
X153694774Y-95081063D01*
X153525256Y-94967795D01*
X153336898Y-94889774D01*
X153136939Y-94850000D01*
X153074802Y-94850000D01*
X150423804Y-92199003D01*
X150400001Y-92169999D01*
X150284276Y-92075026D01*
X150152247Y-92004454D01*
X150008986Y-91960997D01*
X149897333Y-91950000D01*
X149897322Y-91950000D01*
X149860000Y-91946324D01*
X149822678Y-91950000D01*
X141038711Y-91950000D01*
X140994774Y-91906063D01*
X140825256Y-91792795D01*
X140636898Y-91714774D01*
X140436939Y-91675000D01*
X140233061Y-91675000D01*
X140033102Y-91714774D01*
X139844744Y-91792795D01*
X139675226Y-91906063D01*
X139531063Y-92050226D01*
X139417795Y-92219744D01*
X139339774Y-92408102D01*
X139300000Y-92608061D01*
X137890847Y-92608061D01*
X137890847Y-92418954D01*
X153680085Y-76629717D01*
X153709082Y-76605920D01*
X153735413Y-76573836D01*
X153804055Y-76490196D01*
X153874627Y-76358166D01*
X153874627Y-76358165D01*
X153918084Y-76214905D01*
X153929081Y-76103252D01*
X153929081Y-76103243D01*
X153932757Y-76065920D01*
X153929081Y-76028597D01*
X153929081Y-63762530D01*
X153998095Y-63725641D01*
X154224215Y-63540069D01*
X154409787Y-63313949D01*
X154439081Y-63259144D01*
X154468375Y-63313949D01*
X154653947Y-63540069D01*
X154880067Y-63725641D01*
X155138047Y-63863534D01*
X155417970Y-63948448D01*
X155636131Y-63969935D01*
X155782031Y-63969935D01*
X156000192Y-63948448D01*
X156280115Y-63863534D01*
X156538095Y-63725641D01*
X156764215Y-63540069D01*
X156949787Y-63313949D01*
X156979081Y-63259144D01*
X157008375Y-63313949D01*
X157193947Y-63540069D01*
X157420067Y-63725641D01*
X157678047Y-63863534D01*
X157957970Y-63948448D01*
X158176131Y-63969935D01*
X158322031Y-63969935D01*
X158540192Y-63948448D01*
X158820115Y-63863534D01*
X159078095Y-63725641D01*
X159304215Y-63540069D01*
X159489787Y-63313949D01*
X159519081Y-63259144D01*
X159548375Y-63313949D01*
X159733947Y-63540069D01*
X159960067Y-63725641D01*
X160218047Y-63863534D01*
X160497970Y-63948448D01*
X160716131Y-63969935D01*
X160862031Y-63969935D01*
X161080192Y-63948448D01*
X161360115Y-63863534D01*
X161618095Y-63725641D01*
X161844215Y-63540069D01*
X162029787Y-63313949D01*
X162059081Y-63259144D01*
X162088375Y-63313949D01*
X162273947Y-63540069D01*
X162500067Y-63725641D01*
X162758047Y-63863534D01*
X163037970Y-63948448D01*
X163256131Y-63969935D01*
X163402031Y-63969935D01*
X163620192Y-63948448D01*
X163900115Y-63863534D01*
X164158095Y-63725641D01*
X164384215Y-63540069D01*
X164569787Y-63313949D01*
X164599081Y-63259144D01*
X164628375Y-63313949D01*
X164813947Y-63540069D01*
X165040067Y-63725641D01*
X165298047Y-63863534D01*
X165577970Y-63948448D01*
X165796131Y-63969935D01*
X165942031Y-63969935D01*
X166160192Y-63948448D01*
X166440115Y-63863534D01*
X166698095Y-63725641D01*
X166924215Y-63540069D01*
X167109787Y-63313949D01*
X167247680Y-63055969D01*
X167332594Y-62776046D01*
X167361266Y-62484935D01*
X167332594Y-62193824D01*
X167247680Y-61913901D01*
X167109787Y-61655921D01*
X166924215Y-61429801D01*
X166698095Y-61244229D01*
X166643290Y-61214935D01*
X166698095Y-61185641D01*
X166924215Y-61000069D01*
X167109787Y-60773949D01*
X167247680Y-60515969D01*
X167332594Y-60236046D01*
X167361266Y-59944935D01*
X167332594Y-59653824D01*
X167247680Y-59373901D01*
X167109787Y-59115921D01*
X166924215Y-58889801D01*
X166698095Y-58704229D01*
X166643290Y-58674935D01*
X166698095Y-58645641D01*
X166924215Y-58460069D01*
X167109787Y-58233949D01*
X167139081Y-58179144D01*
X167168375Y-58233949D01*
X167353947Y-58460069D01*
X167580067Y-58645641D01*
X167838047Y-58783534D01*
X168117970Y-58868448D01*
X168336131Y-58889935D01*
X168482031Y-58889935D01*
X168700192Y-58868448D01*
X168980115Y-58783534D01*
X169238095Y-58645641D01*
X169464215Y-58460069D01*
X169649787Y-58233949D01*
X169679081Y-58179144D01*
X169708375Y-58233949D01*
X169893947Y-58460069D01*
X170120067Y-58645641D01*
X170174872Y-58674935D01*
X170120067Y-58704229D01*
X169893947Y-58889801D01*
X169708375Y-59115921D01*
X169570482Y-59373901D01*
X169485568Y-59653824D01*
X169456896Y-59944935D01*
X169485568Y-60236046D01*
X169570482Y-60515969D01*
X169708375Y-60773949D01*
X169893947Y-61000069D01*
X170120067Y-61185641D01*
X170174872Y-61214935D01*
X170120067Y-61244229D01*
X169893947Y-61429801D01*
X169708375Y-61655921D01*
X169570482Y-61913901D01*
X169485568Y-62193824D01*
X169456896Y-62484935D01*
X169485568Y-62776046D01*
X169570482Y-63055969D01*
X169708375Y-63313949D01*
X169893947Y-63540069D01*
X170120067Y-63725641D01*
X170378047Y-63863534D01*
X170657970Y-63948448D01*
X170876131Y-63969935D01*
X171022031Y-63969935D01*
X171240192Y-63948448D01*
X171520115Y-63863534D01*
X171778095Y-63725641D01*
X172004215Y-63540069D01*
X172189787Y-63313949D01*
X172219081Y-63259144D01*
X172248375Y-63313949D01*
X172433947Y-63540069D01*
X172660067Y-63725641D01*
X172918047Y-63863534D01*
X173197970Y-63948448D01*
X173416131Y-63969935D01*
X173562031Y-63969935D01*
X173780192Y-63948448D01*
X174060115Y-63863534D01*
X174318095Y-63725641D01*
X174544215Y-63540069D01*
X174729787Y-63313949D01*
X174867680Y-63055969D01*
X174952594Y-62776046D01*
X174981266Y-62484935D01*
X174952594Y-62193824D01*
X174867680Y-61913901D01*
X174729787Y-61655921D01*
X174544215Y-61429801D01*
X174318095Y-61244229D01*
X174263290Y-61214935D01*
X174318095Y-61185641D01*
X174544215Y-61000069D01*
X174729787Y-60773949D01*
X174867680Y-60515969D01*
X174952594Y-60236046D01*
X174981266Y-59944935D01*
X174952594Y-59653824D01*
X174867680Y-59373901D01*
X174729787Y-59115921D01*
X174544215Y-58889801D01*
X174318095Y-58704229D01*
X174263290Y-58674935D01*
X174318095Y-58645641D01*
X174544215Y-58460069D01*
X174729787Y-58233949D01*
X174867680Y-57975969D01*
X174952594Y-57696046D01*
X174981266Y-57404935D01*
X174952594Y-57113824D01*
X174867680Y-56833901D01*
X174729787Y-56575921D01*
X174544215Y-56349801D01*
X174318095Y-56164229D01*
X174263290Y-56134935D01*
X174318095Y-56105641D01*
X174544215Y-55920069D01*
X174729787Y-55693949D01*
X174811891Y-55540344D01*
X174898416Y-55975336D01*
X175185622Y-56668712D01*
X175602580Y-57292733D01*
X176133267Y-57823420D01*
X176757288Y-58240378D01*
X177450664Y-58527584D01*
X178186748Y-58674000D01*
X178937252Y-58674000D01*
X179673336Y-58527584D01*
X180366712Y-58240378D01*
X180900000Y-57884046D01*
X180900001Y-72736113D01*
X180896565Y-72771000D01*
X180910273Y-72910184D01*
X180950872Y-73044020D01*
X181016800Y-73167363D01*
X181105525Y-73275475D01*
X181213637Y-73364200D01*
X181336980Y-73430128D01*
X181470816Y-73470727D01*
X181575123Y-73481000D01*
X181610000Y-73484435D01*
X181644877Y-73481000D01*
X185472000Y-73481000D01*
X185472001Y-144959000D01*
X153110000Y-144959000D01*
X153110000Y-142782877D01*
X153113435Y-142748000D01*
X153099727Y-142608816D01*
X153059128Y-142474980D01*
X152993200Y-142351637D01*
X152904475Y-142243525D01*
X152796363Y-142154800D01*
X152673020Y-142088872D01*
X152539184Y-142048273D01*
X152434877Y-142038000D01*
X152400000Y-142034565D01*
X152365123Y-142038000D01*
X132114877Y-142038000D01*
X132080000Y-142034565D01*
X132045123Y-142038000D01*
X131940816Y-142048273D01*
X131806980Y-142088872D01*
X131683637Y-142154800D01*
X131575525Y-142243525D01*
X131486800Y-142351637D01*
X131420872Y-142474980D01*
X131380273Y-142608816D01*
X131366565Y-142748000D01*
X131370001Y-142782887D01*
X131370000Y-144959000D01*
X96722000Y-144959000D01*
X96722000Y-140213748D01*
X97282000Y-140213748D01*
X97282000Y-140964252D01*
X97428416Y-141700336D01*
X97715622Y-142393712D01*
X98132580Y-143017733D01*
X98663267Y-143548420D01*
X99287288Y-143965378D01*
X99980664Y-144252584D01*
X100716748Y-144399000D01*
X101467252Y-144399000D01*
X102203336Y-144252584D01*
X102896712Y-143965378D01*
X103520733Y-143548420D01*
X104051420Y-143017733D01*
X104468378Y-142393712D01*
X104755584Y-141700336D01*
X104902000Y-140964252D01*
X104902000Y-140213748D01*
X177292000Y-140213748D01*
X177292000Y-140964252D01*
X177438416Y-141700336D01*
X177725622Y-142393712D01*
X178142580Y-143017733D01*
X178673267Y-143548420D01*
X179297288Y-143965378D01*
X179990664Y-144252584D01*
X180726748Y-144399000D01*
X181477252Y-144399000D01*
X182213336Y-144252584D01*
X182906712Y-143965378D01*
X183530733Y-143548420D01*
X184061420Y-143017733D01*
X184478378Y-142393712D01*
X184765584Y-141700336D01*
X184912000Y-140964252D01*
X184912000Y-140213748D01*
X184765584Y-139477664D01*
X184478378Y-138784288D01*
X184061420Y-138160267D01*
X183530733Y-137629580D01*
X182906712Y-137212622D01*
X182213336Y-136925416D01*
X181477252Y-136779000D01*
X180726748Y-136779000D01*
X179990664Y-136925416D01*
X179297288Y-137212622D01*
X178673267Y-137629580D01*
X178142580Y-138160267D01*
X177725622Y-138784288D01*
X177438416Y-139477664D01*
X177292000Y-140213748D01*
X104902000Y-140213748D01*
X104755584Y-139477664D01*
X104468378Y-138784288D01*
X104051420Y-138160267D01*
X103520733Y-137629580D01*
X102896712Y-137212622D01*
X102203336Y-136925416D01*
X101467252Y-136779000D01*
X100716748Y-136779000D01*
X99980664Y-136925416D01*
X99287288Y-137212622D01*
X98663267Y-137629580D01*
X98132580Y-138160267D01*
X97715622Y-138784288D01*
X97428416Y-139477664D01*
X97282000Y-140213748D01*
X96722000Y-140213748D01*
X96722000Y-108583800D01*
X97882123Y-108583800D01*
X97917000Y-108587235D01*
X97951877Y-108583800D01*
X98056184Y-108573527D01*
X98190020Y-108532928D01*
X98313363Y-108467000D01*
X98421475Y-108378275D01*
X98510200Y-108270163D01*
X98576128Y-108146820D01*
X98616727Y-108012984D01*
X98630435Y-107873800D01*
X98627000Y-107838923D01*
X98627000Y-102133061D01*
X141205000Y-102133061D01*
X141205000Y-102336939D01*
X141244774Y-102536898D01*
X141322795Y-102725256D01*
X141436063Y-102894774D01*
X141580226Y-103038937D01*
X141749744Y-103152205D01*
X141938102Y-103230226D01*
X142138061Y-103270000D01*
X142341939Y-103270000D01*
X142541898Y-103230226D01*
X142730256Y-103152205D01*
X142899774Y-103038937D01*
X143043937Y-102894774D01*
X143157205Y-102725256D01*
X143235226Y-102536898D01*
X143275000Y-102336939D01*
X143275000Y-102133061D01*
X143235226Y-101933102D01*
X143160969Y-101753832D01*
X143824802Y-101090000D01*
X144510987Y-101090000D01*
X144497795Y-101109744D01*
X144419774Y-101298102D01*
X144380000Y-101498061D01*
X144380000Y-101701939D01*
X144419774Y-101901898D01*
X144497795Y-102090256D01*
X144611063Y-102259774D01*
X144755226Y-102403937D01*
X144924744Y-102517205D01*
X145113102Y-102595226D01*
X145313061Y-102635000D01*
X145516939Y-102635000D01*
X145716898Y-102595226D01*
X145905256Y-102517205D01*
X146074774Y-102403937D01*
X146218937Y-102259774D01*
X146332205Y-102090256D01*
X146410226Y-101901898D01*
X146450000Y-101701939D01*
X146450000Y-101498061D01*
X146410226Y-101298102D01*
X146332205Y-101109744D01*
X146292675Y-101050583D01*
X146342247Y-101035546D01*
X146474276Y-100964974D01*
X146590001Y-100870001D01*
X146613804Y-100840997D01*
X147359802Y-100095000D01*
X147421939Y-100095000D01*
X147621898Y-100055226D01*
X147810256Y-99977205D01*
X147979774Y-99863937D01*
X148123937Y-99719774D01*
X148237205Y-99550256D01*
X148315226Y-99361898D01*
X148355000Y-99161939D01*
X148355000Y-98958061D01*
X148315226Y-98758102D01*
X148237205Y-98569744D01*
X148123937Y-98400226D01*
X147979774Y-98256063D01*
X147810256Y-98142795D01*
X147621898Y-98064774D01*
X147421939Y-98025000D01*
X147218061Y-98025000D01*
X147018102Y-98064774D01*
X146829744Y-98142795D01*
X146660226Y-98256063D01*
X146516063Y-98400226D01*
X146402795Y-98569744D01*
X146324774Y-98758102D01*
X146285000Y-98958061D01*
X146285000Y-99020198D01*
X145735199Y-99570000D01*
X143547322Y-99570000D01*
X143509999Y-99566324D01*
X143472676Y-99570000D01*
X143472667Y-99570000D01*
X143361014Y-99580997D01*
X143217753Y-99624454D01*
X143085724Y-99695026D01*
X142969999Y-99789999D01*
X142946201Y-99818997D01*
X141728998Y-101036201D01*
X141700000Y-101059999D01*
X141676202Y-101088997D01*
X141676201Y-101088998D01*
X141605026Y-101175724D01*
X141559037Y-101261764D01*
X141534454Y-101307753D01*
X141490997Y-101451014D01*
X141483428Y-101527861D01*
X141436063Y-101575226D01*
X141322795Y-101744744D01*
X141244774Y-101933102D01*
X141205000Y-102133061D01*
X98627000Y-102133061D01*
X98627000Y-98323061D01*
X132315000Y-98323061D01*
X132315000Y-98526939D01*
X132354774Y-98726898D01*
X132432795Y-98915256D01*
X132546063Y-99084774D01*
X132690226Y-99228937D01*
X132859744Y-99342205D01*
X133048102Y-99420226D01*
X133248061Y-99460000D01*
X133451939Y-99460000D01*
X133651898Y-99420226D01*
X133840256Y-99342205D01*
X134009774Y-99228937D01*
X134153937Y-99084774D01*
X134267205Y-98915256D01*
X134345226Y-98726898D01*
X134385000Y-98526939D01*
X134385000Y-98323061D01*
X134345226Y-98123102D01*
X134267205Y-97934744D01*
X134153937Y-97765226D01*
X134110000Y-97721289D01*
X134110000Y-94375413D01*
X134286898Y-94340226D01*
X134475256Y-94262205D01*
X134644774Y-94148937D01*
X134788937Y-94004774D01*
X134902205Y-93835256D01*
X134980226Y-93646898D01*
X135020000Y-93446939D01*
X135020000Y-93243061D01*
X134980226Y-93043102D01*
X134902205Y-92854744D01*
X134788937Y-92685226D01*
X134644774Y-92541063D01*
X134475256Y-92427795D01*
X134286898Y-92349774D01*
X134086939Y-92310000D01*
X133883061Y-92310000D01*
X133683102Y-92349774D01*
X133494744Y-92427795D01*
X133325226Y-92541063D01*
X133181063Y-92685226D01*
X133067795Y-92854744D01*
X132989774Y-93043102D01*
X132950000Y-93243061D01*
X132950000Y-93305199D01*
X132838998Y-93416201D01*
X132810000Y-93439999D01*
X132786202Y-93468997D01*
X132786201Y-93468998D01*
X132715026Y-93555724D01*
X132644454Y-93687754D01*
X132600998Y-93831015D01*
X132586324Y-93980000D01*
X132590001Y-94017332D01*
X132590000Y-97721289D01*
X132546063Y-97765226D01*
X132432795Y-97934744D01*
X132354774Y-98123102D01*
X132315000Y-98323061D01*
X98627000Y-98323061D01*
X98627000Y-87614077D01*
X98630435Y-87579200D01*
X98616727Y-87440016D01*
X98576128Y-87306180D01*
X98510200Y-87182837D01*
X98421475Y-87074725D01*
X98313363Y-86986000D01*
X98190020Y-86920072D01*
X98056184Y-86879473D01*
X97951877Y-86869200D01*
X97917000Y-86865765D01*
X97882123Y-86869200D01*
X96722000Y-86869200D01*
X96722000Y-74726461D01*
X148494800Y-74726461D01*
X148494800Y-74930339D01*
X148534574Y-75130298D01*
X148612595Y-75318656D01*
X148725863Y-75488174D01*
X148870026Y-75632337D01*
X149039544Y-75745605D01*
X149227902Y-75823626D01*
X149427861Y-75863400D01*
X149631739Y-75863400D01*
X149831698Y-75823626D01*
X150020056Y-75745605D01*
X150189574Y-75632337D01*
X150333737Y-75488174D01*
X150447005Y-75318656D01*
X150525026Y-75130298D01*
X150564800Y-74930339D01*
X150564800Y-74726461D01*
X150525026Y-74526502D01*
X150447005Y-74338144D01*
X150333737Y-74168626D01*
X150189574Y-74024463D01*
X150020056Y-73911195D01*
X149831698Y-73833174D01*
X149631739Y-73793400D01*
X149427861Y-73793400D01*
X149227902Y-73833174D01*
X149039544Y-73911195D01*
X148870026Y-74024463D01*
X148725863Y-74168626D01*
X148612595Y-74338144D01*
X148534574Y-74526502D01*
X148494800Y-74726461D01*
X96722000Y-74726461D01*
X96722000Y-50494000D01*
X131370000Y-50494000D01*
X131370001Y-52670113D01*
G36*
X126528375Y-58233949D02*
G01*
X126713947Y-58460069D01*
X126940067Y-58645641D01*
X126994872Y-58674935D01*
X126940067Y-58704229D01*
X126713947Y-58889801D01*
X126528375Y-59115921D01*
X126390482Y-59373901D01*
X126305568Y-59653824D01*
X126276896Y-59944935D01*
X126305568Y-60236046D01*
X126390482Y-60515969D01*
X126528375Y-60773949D01*
X126713947Y-61000069D01*
X126940067Y-61185641D01*
X126994872Y-61214935D01*
X126940067Y-61244229D01*
X126713947Y-61429801D01*
X126528375Y-61655921D01*
X126499081Y-61710726D01*
X126469787Y-61655921D01*
X126284215Y-61429801D01*
X126058095Y-61244229D01*
X125800115Y-61106336D01*
X125520192Y-61021422D01*
X125302031Y-60999935D01*
X125156131Y-60999935D01*
X124937970Y-61021422D01*
X124658047Y-61106336D01*
X124400067Y-61244229D01*
X124173947Y-61429801D01*
X123988375Y-61655921D01*
X123959081Y-61710726D01*
X123929787Y-61655921D01*
X123744215Y-61429801D01*
X123518095Y-61244229D01*
X123463290Y-61214935D01*
X123518095Y-61185641D01*
X123744215Y-61000069D01*
X123929787Y-60773949D01*
X124067680Y-60515969D01*
X124152594Y-60236046D01*
X124181266Y-59944935D01*
X124152594Y-59653824D01*
X124067680Y-59373901D01*
X123929787Y-59115921D01*
X123744215Y-58889801D01*
X123518095Y-58704229D01*
X123463290Y-58674935D01*
X123518095Y-58645641D01*
X123744215Y-58460069D01*
X123929787Y-58233949D01*
X123959081Y-58179144D01*
X123988375Y-58233949D01*
X124173947Y-58460069D01*
X124400067Y-58645641D01*
X124658047Y-58783534D01*
X124937970Y-58868448D01*
X125156131Y-58889935D01*
X125302031Y-58889935D01*
X125520192Y-58868448D01*
X125800115Y-58783534D01*
X126058095Y-58645641D01*
X126284215Y-58460069D01*
X126469787Y-58233949D01*
X126499081Y-58179144D01*
X126528375Y-58233949D01*
X126528375Y-58233949D01*
G37*
X126528375Y-58233949D02*
X126713947Y-58460069D01*
X126940067Y-58645641D01*
X126994872Y-58674935D01*
X126940067Y-58704229D01*
X126713947Y-58889801D01*
X126528375Y-59115921D01*
X126390482Y-59373901D01*
X126305568Y-59653824D01*
X126276896Y-59944935D01*
X126305568Y-60236046D01*
X126390482Y-60515969D01*
X126528375Y-60773949D01*
X126713947Y-61000069D01*
X126940067Y-61185641D01*
X126994872Y-61214935D01*
X126940067Y-61244229D01*
X126713947Y-61429801D01*
X126528375Y-61655921D01*
X126499081Y-61710726D01*
X126469787Y-61655921D01*
X126284215Y-61429801D01*
X126058095Y-61244229D01*
X125800115Y-61106336D01*
X125520192Y-61021422D01*
X125302031Y-60999935D01*
X125156131Y-60999935D01*
X124937970Y-61021422D01*
X124658047Y-61106336D01*
X124400067Y-61244229D01*
X124173947Y-61429801D01*
X123988375Y-61655921D01*
X123959081Y-61710726D01*
X123929787Y-61655921D01*
X123744215Y-61429801D01*
X123518095Y-61244229D01*
X123463290Y-61214935D01*
X123518095Y-61185641D01*
X123744215Y-61000069D01*
X123929787Y-60773949D01*
X124067680Y-60515969D01*
X124152594Y-60236046D01*
X124181266Y-59944935D01*
X124152594Y-59653824D01*
X124067680Y-59373901D01*
X123929787Y-59115921D01*
X123744215Y-58889801D01*
X123518095Y-58704229D01*
X123463290Y-58674935D01*
X123518095Y-58645641D01*
X123744215Y-58460069D01*
X123929787Y-58233949D01*
X123959081Y-58179144D01*
X123988375Y-58233949D01*
X124173947Y-58460069D01*
X124400067Y-58645641D01*
X124658047Y-58783534D01*
X124937970Y-58868448D01*
X125156131Y-58889935D01*
X125302031Y-58889935D01*
X125520192Y-58868448D01*
X125800115Y-58783534D01*
X126058095Y-58645641D01*
X126284215Y-58460069D01*
X126469787Y-58233949D01*
X126499081Y-58179144D01*
X126528375Y-58233949D01*
M02*
