G04 #@! TF.GenerationSoftware,KiCad,Pcbnew,(5.1.4)-1*
G04 #@! TF.CreationDate,2019-12-03T11:55:19-06:00*
G04 #@! TF.ProjectId,Boost,426f6f73-742e-46b6-9963-61645f706362,rev?*
G04 #@! TF.SameCoordinates,Original*
G04 #@! TF.FileFunction,Legend,Top*
G04 #@! TF.FilePolarity,Positive*
%FSLAX46Y46*%
G04 Gerber Fmt 4.6, Leading zero omitted, Abs format (unit mm)*
G04 Created by KiCad (PCBNEW (5.1.4)-1) date 2019-12-03 11:55:19*
%MOMM*%
%LPD*%
G04 APERTURE LIST*
%ADD10C,0.150000*%
%ADD11C,0.300000*%
%ADD12C,0.120000*%
%ADD13C,0.254000*%
%ADD14C,0.250000*%
G04 APERTURE END LIST*
D10*
X147923428Y-73547314D02*
X148161523Y-74213980D01*
X148399619Y-73547314D01*
X148923428Y-74213980D02*
X148828190Y-74166361D01*
X148780571Y-74118742D01*
X148732952Y-74023504D01*
X148732952Y-73737790D01*
X148780571Y-73642552D01*
X148828190Y-73594933D01*
X148923428Y-73547314D01*
X149066285Y-73547314D01*
X149161523Y-73594933D01*
X149209142Y-73642552D01*
X149256761Y-73737790D01*
X149256761Y-74023504D01*
X149209142Y-74118742D01*
X149161523Y-74166361D01*
X149066285Y-74213980D01*
X148923428Y-74213980D01*
X150113904Y-73547314D02*
X150113904Y-74213980D01*
X149685333Y-73547314D02*
X149685333Y-74071123D01*
X149732952Y-74166361D01*
X149828190Y-74213980D01*
X149971047Y-74213980D01*
X150066285Y-74166361D01*
X150113904Y-74118742D01*
X150447238Y-73547314D02*
X150828190Y-73547314D01*
X150590095Y-73213980D02*
X150590095Y-74071123D01*
X150637714Y-74166361D01*
X150732952Y-74213980D01*
X150828190Y-74213980D01*
X143697390Y-101252352D02*
X143602152Y-101204733D01*
X143554533Y-101157114D01*
X143506914Y-101061876D01*
X143506914Y-101014257D01*
X143554533Y-100919019D01*
X143602152Y-100871400D01*
X143697390Y-100823780D01*
X143887866Y-100823780D01*
X143983104Y-100871400D01*
X144030723Y-100919019D01*
X144078342Y-101014257D01*
X144078342Y-101061876D01*
X144030723Y-101157114D01*
X143983104Y-101204733D01*
X143887866Y-101252352D01*
X143697390Y-101252352D01*
X143602152Y-101299971D01*
X143554533Y-101347590D01*
X143506914Y-101442828D01*
X143506914Y-101633304D01*
X143554533Y-101728542D01*
X143602152Y-101776161D01*
X143697390Y-101823780D01*
X143887866Y-101823780D01*
X143983104Y-101776161D01*
X144030723Y-101728542D01*
X144078342Y-101633304D01*
X144078342Y-101442828D01*
X144030723Y-101347590D01*
X143983104Y-101299971D01*
X143887866Y-101252352D01*
X144364057Y-100823780D02*
X144697390Y-101823780D01*
X145030723Y-100823780D01*
X133515123Y-91857580D02*
X133038933Y-91857580D01*
X132991314Y-92333771D01*
X133038933Y-92286152D01*
X133134171Y-92238533D01*
X133372266Y-92238533D01*
X133467504Y-92286152D01*
X133515123Y-92333771D01*
X133562742Y-92429009D01*
X133562742Y-92667104D01*
X133515123Y-92762342D01*
X133467504Y-92809961D01*
X133372266Y-92857580D01*
X133134171Y-92857580D01*
X133038933Y-92809961D01*
X132991314Y-92762342D01*
X133848457Y-91857580D02*
X134181790Y-92857580D01*
X134515123Y-91857580D01*
D11*
X109739000Y-138612428D02*
X109596142Y-138755285D01*
X109167571Y-138898142D01*
X108881857Y-138898142D01*
X108453285Y-138755285D01*
X108167571Y-138469571D01*
X108024714Y-138183857D01*
X107881857Y-137612428D01*
X107881857Y-137183857D01*
X108024714Y-136612428D01*
X108167571Y-136326714D01*
X108453285Y-136041000D01*
X108881857Y-135898142D01*
X109167571Y-135898142D01*
X109596142Y-136041000D01*
X109739000Y-136183857D01*
X110739000Y-136898142D02*
X111453285Y-138898142D01*
X112167571Y-136898142D02*
X111453285Y-138898142D01*
X111167571Y-139612428D01*
X111024714Y-139755285D01*
X110739000Y-139898142D01*
X113167571Y-138755285D02*
X113596142Y-138898142D01*
X114310428Y-138898142D01*
X114596142Y-138755285D01*
X114739000Y-138612428D01*
X114881857Y-138326714D01*
X114881857Y-138041000D01*
X114739000Y-137755285D01*
X114596142Y-137612428D01*
X114310428Y-137469571D01*
X113739000Y-137326714D01*
X113453285Y-137183857D01*
X113310428Y-137041000D01*
X113167571Y-136755285D01*
X113167571Y-136469571D01*
X113310428Y-136183857D01*
X113453285Y-136041000D01*
X113739000Y-135898142D01*
X114453285Y-135898142D01*
X114881857Y-136041000D01*
X117453285Y-138898142D02*
X117453285Y-137326714D01*
X117310428Y-137041000D01*
X117024714Y-136898142D01*
X116453285Y-136898142D01*
X116167571Y-137041000D01*
X117453285Y-138755285D02*
X117167571Y-138898142D01*
X116453285Y-138898142D01*
X116167571Y-138755285D01*
X116024714Y-138469571D01*
X116024714Y-138183857D01*
X116167571Y-137898142D01*
X116453285Y-137755285D01*
X117167571Y-137755285D01*
X117453285Y-137612428D01*
X118453285Y-136898142D02*
X119596142Y-136898142D01*
X118881857Y-135898142D02*
X118881857Y-138469571D01*
X119024714Y-138755285D01*
X119310428Y-138898142D01*
X119596142Y-138898142D01*
X124453285Y-138898142D02*
X122739000Y-138898142D01*
X123596142Y-138898142D02*
X123596142Y-135898142D01*
X123310428Y-136326714D01*
X123024714Y-136612428D01*
X122739000Y-136755285D01*
X128024714Y-137755285D02*
X130310428Y-137755285D01*
X135024714Y-137326714D02*
X135453285Y-137469571D01*
X135596142Y-137612428D01*
X135739000Y-137898142D01*
X135739000Y-138326714D01*
X135596142Y-138612428D01*
X135453285Y-138755285D01*
X135167571Y-138898142D01*
X134024714Y-138898142D01*
X134024714Y-135898142D01*
X135024714Y-135898142D01*
X135310428Y-136041000D01*
X135453285Y-136183857D01*
X135596142Y-136469571D01*
X135596142Y-136755285D01*
X135453285Y-137041000D01*
X135310428Y-137183857D01*
X135024714Y-137326714D01*
X134024714Y-137326714D01*
X137453285Y-138898142D02*
X137167571Y-138755285D01*
X137024714Y-138612428D01*
X136881857Y-138326714D01*
X136881857Y-137469571D01*
X137024714Y-137183857D01*
X137167571Y-137041000D01*
X137453285Y-136898142D01*
X137881857Y-136898142D01*
X138167571Y-137041000D01*
X138310428Y-137183857D01*
X138453285Y-137469571D01*
X138453285Y-138326714D01*
X138310428Y-138612428D01*
X138167571Y-138755285D01*
X137881857Y-138898142D01*
X137453285Y-138898142D01*
X140167571Y-138898142D02*
X139881857Y-138755285D01*
X139739000Y-138612428D01*
X139596142Y-138326714D01*
X139596142Y-137469571D01*
X139739000Y-137183857D01*
X139881857Y-137041000D01*
X140167571Y-136898142D01*
X140596142Y-136898142D01*
X140881857Y-137041000D01*
X141024714Y-137183857D01*
X141167571Y-137469571D01*
X141167571Y-138326714D01*
X141024714Y-138612428D01*
X140881857Y-138755285D01*
X140596142Y-138898142D01*
X140167571Y-138898142D01*
X142310428Y-138755285D02*
X142596142Y-138898142D01*
X143167571Y-138898142D01*
X143453285Y-138755285D01*
X143596142Y-138469571D01*
X143596142Y-138326714D01*
X143453285Y-138041000D01*
X143167571Y-137898142D01*
X142739000Y-137898142D01*
X142453285Y-137755285D01*
X142310428Y-137469571D01*
X142310428Y-137326714D01*
X142453285Y-137041000D01*
X142739000Y-136898142D01*
X143167571Y-136898142D01*
X143453285Y-137041000D01*
X144453285Y-136898142D02*
X145596142Y-136898142D01*
X144881857Y-135898142D02*
X144881857Y-138469571D01*
X145024714Y-138755285D01*
X145310428Y-138898142D01*
X145596142Y-138898142D01*
X149881857Y-137326714D02*
X150310428Y-137469571D01*
X150453285Y-137612428D01*
X150596142Y-137898142D01*
X150596142Y-138326714D01*
X150453285Y-138612428D01*
X150310428Y-138755285D01*
X150024714Y-138898142D01*
X148881857Y-138898142D01*
X148881857Y-135898142D01*
X149881857Y-135898142D01*
X150167571Y-136041000D01*
X150310428Y-136183857D01*
X150453285Y-136469571D01*
X150453285Y-136755285D01*
X150310428Y-137041000D01*
X150167571Y-137183857D01*
X149881857Y-137326714D01*
X148881857Y-137326714D01*
X152310428Y-138898142D02*
X152024714Y-138755285D01*
X151881857Y-138612428D01*
X151739000Y-138326714D01*
X151739000Y-137469571D01*
X151881857Y-137183857D01*
X152024714Y-137041000D01*
X152310428Y-136898142D01*
X152739000Y-136898142D01*
X153024714Y-137041000D01*
X153167571Y-137183857D01*
X153310428Y-137469571D01*
X153310428Y-138326714D01*
X153167571Y-138612428D01*
X153024714Y-138755285D01*
X152739000Y-138898142D01*
X152310428Y-138898142D01*
X155881857Y-138898142D02*
X155881857Y-137326714D01*
X155739000Y-137041000D01*
X155453285Y-136898142D01*
X154881857Y-136898142D01*
X154596142Y-137041000D01*
X155881857Y-138755285D02*
X155596142Y-138898142D01*
X154881857Y-138898142D01*
X154596142Y-138755285D01*
X154453285Y-138469571D01*
X154453285Y-138183857D01*
X154596142Y-137898142D01*
X154881857Y-137755285D01*
X155596142Y-137755285D01*
X155881857Y-137612428D01*
X157310428Y-138898142D02*
X157310428Y-136898142D01*
X157310428Y-137469571D02*
X157453285Y-137183857D01*
X157596142Y-137041000D01*
X157881857Y-136898142D01*
X158167571Y-136898142D01*
X160453285Y-138898142D02*
X160453285Y-135898142D01*
X160453285Y-138755285D02*
X160167571Y-138898142D01*
X159596142Y-138898142D01*
X159310428Y-138755285D01*
X159167571Y-138612428D01*
X159024714Y-138326714D01*
X159024714Y-137469571D01*
X159167571Y-137183857D01*
X159310428Y-137041000D01*
X159596142Y-136898142D01*
X160167571Y-136898142D01*
X160453285Y-137041000D01*
D12*
X137870000Y-90676252D02*
X137870000Y-90153748D01*
X136450000Y-90676252D02*
X136450000Y-90153748D01*
X155542064Y-82910000D02*
X154337936Y-82910000D01*
X155542064Y-84730000D02*
X154337936Y-84730000D01*
X150879564Y-111485000D02*
X149675436Y-111485000D01*
X150879564Y-113305000D02*
X149675436Y-113305000D01*
X159352064Y-111485000D02*
X158147936Y-111485000D01*
X159352064Y-113305000D02*
X158147936Y-113305000D01*
X167389564Y-111485000D02*
X166185436Y-111485000D01*
X167389564Y-113305000D02*
X166185436Y-113305000D01*
X147680000Y-102485436D02*
X147680000Y-103689564D01*
X149500000Y-102485436D02*
X149500000Y-103689564D01*
X131990000Y-115820436D02*
X131990000Y-117024564D01*
X134710000Y-115820436D02*
X134710000Y-117024564D01*
X131990000Y-108400436D02*
X131990000Y-109604564D01*
X134710000Y-108400436D02*
X134710000Y-109604564D01*
X131990000Y-101415436D02*
X131990000Y-102619564D01*
X134710000Y-101415436D02*
X134710000Y-102619564D01*
X143435000Y-108713748D02*
X143435000Y-109236252D01*
X144855000Y-108713748D02*
X144855000Y-109236252D01*
X127560000Y-92693748D02*
X127560000Y-93216252D01*
X128980000Y-92693748D02*
X128980000Y-93216252D01*
D13*
X142934630Y-97002000D02*
G75*
G03X142934630Y-97002000I-64630J0D01*
G01*
D14*
X138839000Y-94512000D02*
X139589000Y-94512000D01*
X142339000Y-94512000D02*
X141589000Y-94512000D01*
X138839000Y-97512000D02*
X139589000Y-97512000D01*
X142339000Y-97512000D02*
X141589000Y-97512000D01*
D12*
X169668000Y-101346000D02*
G75*
G03X169668000Y-101346000I-250000J0D01*
G01*
D10*
X107748780Y-61809855D02*
X106748780Y-61809855D01*
X106748780Y-61428902D01*
X106796400Y-61333664D01*
X106844019Y-61286045D01*
X106939257Y-61238426D01*
X107082114Y-61238426D01*
X107177352Y-61286045D01*
X107224971Y-61333664D01*
X107272590Y-61428902D01*
X107272590Y-61809855D01*
X106844019Y-60857474D02*
X106796400Y-60809855D01*
X106748780Y-60714617D01*
X106748780Y-60476521D01*
X106796400Y-60381283D01*
X106844019Y-60333664D01*
X106939257Y-60286045D01*
X107034495Y-60286045D01*
X107177352Y-60333664D01*
X107748780Y-60905093D01*
X107748780Y-60286045D01*
X107748780Y-56729855D02*
X106748780Y-56729855D01*
X106748780Y-56348902D01*
X106796400Y-56253664D01*
X106844019Y-56206045D01*
X106939257Y-56158426D01*
X107082114Y-56158426D01*
X107177352Y-56206045D01*
X107224971Y-56253664D01*
X107272590Y-56348902D01*
X107272590Y-56729855D01*
X107748780Y-55206045D02*
X107748780Y-55777474D01*
X107748780Y-55491760D02*
X106748780Y-55491760D01*
X106891638Y-55586998D01*
X106986876Y-55682236D01*
X107034495Y-55777474D01*
X134312380Y-86526666D02*
X134312380Y-87002857D01*
X133312380Y-87002857D01*
X134312380Y-85669523D02*
X134312380Y-86240952D01*
X134312380Y-85955238D02*
X133312380Y-85955238D01*
X133455238Y-86050476D01*
X133550476Y-86145714D01*
X133598095Y-86240952D01*
X145132380Y-99512380D02*
X144656190Y-99845714D01*
X145132380Y-100083809D02*
X144132380Y-100083809D01*
X144132380Y-99702857D01*
X144180000Y-99607619D01*
X144227619Y-99560000D01*
X144322857Y-99512380D01*
X144465714Y-99512380D01*
X144560952Y-99560000D01*
X144608571Y-99607619D01*
X144656190Y-99702857D01*
X144656190Y-100083809D01*
X144465714Y-99226666D02*
X144465714Y-98845714D01*
X144132380Y-99083809D02*
X144989523Y-99083809D01*
X145084761Y-99036190D01*
X145132380Y-98940952D01*
X145132380Y-98845714D01*
X145132380Y-97988571D02*
X145132380Y-98560000D01*
X145132380Y-98274285D02*
X144132380Y-98274285D01*
X144275238Y-98369523D01*
X144370476Y-98464761D01*
X144418095Y-98560000D01*
X147672380Y-97456428D02*
X147196190Y-97789761D01*
X147672380Y-98027857D02*
X146672380Y-98027857D01*
X146672380Y-97646904D01*
X146720000Y-97551666D01*
X146767619Y-97504047D01*
X146862857Y-97456428D01*
X147005714Y-97456428D01*
X147100952Y-97504047D01*
X147148571Y-97551666D01*
X147196190Y-97646904D01*
X147196190Y-98027857D01*
X147672380Y-97027857D02*
X147005714Y-97027857D01*
X146672380Y-97027857D02*
X146720000Y-97075476D01*
X146767619Y-97027857D01*
X146720000Y-96980238D01*
X146672380Y-97027857D01*
X146767619Y-97027857D01*
X147672380Y-96408809D02*
X147624761Y-96504047D01*
X147529523Y-96551666D01*
X146672380Y-96551666D01*
X147672380Y-96027857D02*
X147005714Y-96027857D01*
X146672380Y-96027857D02*
X146720000Y-96075476D01*
X146767619Y-96027857D01*
X146720000Y-95980238D01*
X146672380Y-96027857D01*
X146767619Y-96027857D01*
X147672380Y-95551666D02*
X147005714Y-95551666D01*
X147100952Y-95551666D02*
X147053333Y-95504047D01*
X147005714Y-95408809D01*
X147005714Y-95265952D01*
X147053333Y-95170714D01*
X147148571Y-95123095D01*
X147672380Y-95123095D01*
X147148571Y-95123095D02*
X147053333Y-95075476D01*
X147005714Y-94980238D01*
X147005714Y-94837380D01*
X147053333Y-94742142D01*
X147148571Y-94694523D01*
X147672380Y-94694523D01*
X147672380Y-93694523D02*
X147672380Y-94265952D01*
X147672380Y-93980238D02*
X146672380Y-93980238D01*
X146815238Y-94075476D01*
X146910476Y-94170714D01*
X146958095Y-94265952D01*
X154342380Y-103070714D02*
X153866190Y-103404047D01*
X154342380Y-103642142D02*
X153342380Y-103642142D01*
X153342380Y-103261190D01*
X153390000Y-103165952D01*
X153437619Y-103118333D01*
X153532857Y-103070714D01*
X153675714Y-103070714D01*
X153770952Y-103118333D01*
X153818571Y-103165952D01*
X153866190Y-103261190D01*
X153866190Y-103642142D01*
X153675714Y-102213571D02*
X154485238Y-102213571D01*
X154580476Y-102261190D01*
X154628095Y-102308809D01*
X154675714Y-102404047D01*
X154675714Y-102546904D01*
X154628095Y-102642142D01*
X154294761Y-102213571D02*
X154342380Y-102308809D01*
X154342380Y-102499285D01*
X154294761Y-102594523D01*
X154247142Y-102642142D01*
X154151904Y-102689761D01*
X153866190Y-102689761D01*
X153770952Y-102642142D01*
X153723333Y-102594523D01*
X153675714Y-102499285D01*
X153675714Y-102308809D01*
X153723333Y-102213571D01*
X154342380Y-101308809D02*
X153818571Y-101308809D01*
X153723333Y-101356428D01*
X153675714Y-101451666D01*
X153675714Y-101642142D01*
X153723333Y-101737380D01*
X154294761Y-101308809D02*
X154342380Y-101404047D01*
X154342380Y-101642142D01*
X154294761Y-101737380D01*
X154199523Y-101785000D01*
X154104285Y-101785000D01*
X154009047Y-101737380D01*
X153961428Y-101642142D01*
X153961428Y-101404047D01*
X153913809Y-101308809D01*
X153675714Y-100975476D02*
X153675714Y-100594523D01*
X153342380Y-100832619D02*
X154199523Y-100832619D01*
X154294761Y-100785000D01*
X154342380Y-100689761D01*
X154342380Y-100594523D01*
X154294761Y-99880238D02*
X154342380Y-99975476D01*
X154342380Y-100165952D01*
X154294761Y-100261190D01*
X154199523Y-100308809D01*
X153818571Y-100308809D01*
X153723333Y-100261190D01*
X153675714Y-100165952D01*
X153675714Y-99975476D01*
X153723333Y-99880238D01*
X153818571Y-99832619D01*
X153913809Y-99832619D01*
X154009047Y-100308809D01*
X154342380Y-98880238D02*
X154342380Y-99451666D01*
X154342380Y-99165952D02*
X153342380Y-99165952D01*
X153485238Y-99261190D01*
X153580476Y-99356428D01*
X153628095Y-99451666D01*
X154534523Y-96872380D02*
X154201190Y-96396190D01*
X153963095Y-96872380D02*
X153963095Y-95872380D01*
X154344047Y-95872380D01*
X154439285Y-95920000D01*
X154486904Y-95967619D01*
X154534523Y-96062857D01*
X154534523Y-96205714D01*
X154486904Y-96300952D01*
X154439285Y-96348571D01*
X154344047Y-96396190D01*
X153963095Y-96396190D01*
X154820238Y-96205714D02*
X155201190Y-96205714D01*
X154963095Y-96872380D02*
X154963095Y-96015238D01*
X155010714Y-95920000D01*
X155105952Y-95872380D01*
X155201190Y-95872380D01*
X155534523Y-96872380D02*
X155534523Y-95872380D01*
X155534523Y-96253333D02*
X155629761Y-96205714D01*
X155820238Y-96205714D01*
X155915476Y-96253333D01*
X155963095Y-96300952D01*
X156010714Y-96396190D01*
X156010714Y-96681904D01*
X155963095Y-96777142D01*
X155915476Y-96824761D01*
X155820238Y-96872380D01*
X155629761Y-96872380D01*
X155534523Y-96824761D01*
X156296428Y-96205714D02*
X156677380Y-96205714D01*
X156439285Y-95872380D02*
X156439285Y-96729523D01*
X156486904Y-96824761D01*
X156582142Y-96872380D01*
X156677380Y-96872380D01*
X157534523Y-96872380D02*
X156963095Y-96872380D01*
X157248809Y-96872380D02*
X157248809Y-95872380D01*
X157153571Y-96015238D01*
X157058333Y-96110476D01*
X156963095Y-96158095D01*
X151362380Y-96607142D02*
X150886190Y-96940476D01*
X151362380Y-97178571D02*
X150362380Y-97178571D01*
X150362380Y-96797619D01*
X150410000Y-96702380D01*
X150457619Y-96654761D01*
X150552857Y-96607142D01*
X150695714Y-96607142D01*
X150790952Y-96654761D01*
X150838571Y-96702380D01*
X150886190Y-96797619D01*
X150886190Y-97178571D01*
X150695714Y-96321428D02*
X150695714Y-95940476D01*
X151362380Y-96178571D02*
X150505238Y-96178571D01*
X150410000Y-96130952D01*
X150362380Y-96035714D01*
X150362380Y-95940476D01*
X151362380Y-95607142D02*
X150362380Y-95607142D01*
X150743333Y-95607142D02*
X150695714Y-95511904D01*
X150695714Y-95321428D01*
X150743333Y-95226190D01*
X150790952Y-95178571D01*
X150886190Y-95130952D01*
X151171904Y-95130952D01*
X151267142Y-95178571D01*
X151314761Y-95226190D01*
X151362380Y-95321428D01*
X151362380Y-95511904D01*
X151314761Y-95607142D01*
X151362380Y-94702380D02*
X150362380Y-94702380D01*
X150743333Y-94702380D02*
X150695714Y-94607142D01*
X150695714Y-94416666D01*
X150743333Y-94321428D01*
X150790952Y-94273809D01*
X150886190Y-94226190D01*
X151171904Y-94226190D01*
X151267142Y-94273809D01*
X151314761Y-94321428D01*
X151362380Y-94416666D01*
X151362380Y-94607142D01*
X151314761Y-94702380D01*
X151362380Y-93273809D02*
X151362380Y-93845238D01*
X151362380Y-93559523D02*
X150362380Y-93559523D01*
X150505238Y-93654761D01*
X150600476Y-93750000D01*
X150648095Y-93845238D01*
X146146780Y-107144866D02*
X145670590Y-107478200D01*
X146146780Y-107716295D02*
X145146780Y-107716295D01*
X145146780Y-107335342D01*
X145194400Y-107240104D01*
X145242019Y-107192485D01*
X145337257Y-107144866D01*
X145480114Y-107144866D01*
X145575352Y-107192485D01*
X145622971Y-107240104D01*
X145670590Y-107335342D01*
X145670590Y-107716295D01*
X146099161Y-106287723D02*
X146146780Y-106382961D01*
X146146780Y-106573438D01*
X146099161Y-106668676D01*
X146051542Y-106716295D01*
X145956304Y-106763914D01*
X145670590Y-106763914D01*
X145575352Y-106716295D01*
X145527733Y-106668676D01*
X145480114Y-106573438D01*
X145480114Y-106382961D01*
X145527733Y-106287723D01*
X146146780Y-105716295D02*
X146099161Y-105811533D01*
X146051542Y-105859152D01*
X145956304Y-105906771D01*
X145670590Y-105906771D01*
X145575352Y-105859152D01*
X145527733Y-105811533D01*
X145480114Y-105716295D01*
X145480114Y-105573438D01*
X145527733Y-105478200D01*
X145575352Y-105430580D01*
X145670590Y-105382961D01*
X145956304Y-105382961D01*
X146051542Y-105430580D01*
X146099161Y-105478200D01*
X146146780Y-105573438D01*
X146146780Y-105716295D01*
X146146780Y-104954390D02*
X145480114Y-104954390D01*
X145575352Y-104954390D02*
X145527733Y-104906771D01*
X145480114Y-104811533D01*
X145480114Y-104668676D01*
X145527733Y-104573438D01*
X145622971Y-104525819D01*
X146146780Y-104525819D01*
X145622971Y-104525819D02*
X145527733Y-104478200D01*
X145480114Y-104382961D01*
X145480114Y-104240104D01*
X145527733Y-104144866D01*
X145622971Y-104097247D01*
X146146780Y-104097247D01*
X145480114Y-103621057D02*
X146480114Y-103621057D01*
X145527733Y-103621057D02*
X145480114Y-103525819D01*
X145480114Y-103335342D01*
X145527733Y-103240104D01*
X145575352Y-103192485D01*
X145670590Y-103144866D01*
X145956304Y-103144866D01*
X146051542Y-103192485D01*
X146099161Y-103240104D01*
X146146780Y-103335342D01*
X146146780Y-103525819D01*
X146099161Y-103621057D01*
X146146780Y-102192485D02*
X146146780Y-102763914D01*
X146146780Y-102478200D02*
X145146780Y-102478200D01*
X145289638Y-102573438D01*
X145384876Y-102668676D01*
X145432495Y-102763914D01*
X135867142Y-91819761D02*
X135914761Y-91867380D01*
X135962380Y-92010238D01*
X135962380Y-92105476D01*
X135914761Y-92248333D01*
X135819523Y-92343571D01*
X135724285Y-92391190D01*
X135533809Y-92438809D01*
X135390952Y-92438809D01*
X135200476Y-92391190D01*
X135105238Y-92343571D01*
X135010000Y-92248333D01*
X134962380Y-92105476D01*
X134962380Y-92010238D01*
X135010000Y-91867380D01*
X135057619Y-91819761D01*
X135295714Y-91486428D02*
X135962380Y-91248333D01*
X135295714Y-91010238D01*
X135914761Y-90200714D02*
X135962380Y-90295952D01*
X135962380Y-90486428D01*
X135914761Y-90581666D01*
X135867142Y-90629285D01*
X135771904Y-90676904D01*
X135486190Y-90676904D01*
X135390952Y-90629285D01*
X135343333Y-90581666D01*
X135295714Y-90486428D01*
X135295714Y-90295952D01*
X135343333Y-90200714D01*
X135914761Y-89343571D02*
X135962380Y-89438809D01*
X135962380Y-89629285D01*
X135914761Y-89724523D01*
X135867142Y-89772142D01*
X135771904Y-89819761D01*
X135486190Y-89819761D01*
X135390952Y-89772142D01*
X135343333Y-89724523D01*
X135295714Y-89629285D01*
X135295714Y-89438809D01*
X135343333Y-89343571D01*
X135962380Y-88391190D02*
X135962380Y-88962619D01*
X135962380Y-88676904D02*
X134962380Y-88676904D01*
X135105238Y-88772142D01*
X135200476Y-88867380D01*
X135248095Y-88962619D01*
X153178095Y-85997142D02*
X153130476Y-86044761D01*
X152987619Y-86092380D01*
X152892380Y-86092380D01*
X152749523Y-86044761D01*
X152654285Y-85949523D01*
X152606666Y-85854285D01*
X152559047Y-85663809D01*
X152559047Y-85520952D01*
X152606666Y-85330476D01*
X152654285Y-85235238D01*
X152749523Y-85140000D01*
X152892380Y-85092380D01*
X152987619Y-85092380D01*
X153130476Y-85140000D01*
X153178095Y-85187619D01*
X153749523Y-86092380D02*
X153654285Y-86044761D01*
X153606666Y-85997142D01*
X153559047Y-85901904D01*
X153559047Y-85616190D01*
X153606666Y-85520952D01*
X153654285Y-85473333D01*
X153749523Y-85425714D01*
X153892380Y-85425714D01*
X153987619Y-85473333D01*
X154035238Y-85520952D01*
X154082857Y-85616190D01*
X154082857Y-85901904D01*
X154035238Y-85997142D01*
X153987619Y-86044761D01*
X153892380Y-86092380D01*
X153749523Y-86092380D01*
X154940000Y-85425714D02*
X154940000Y-86092380D01*
X154511428Y-85425714D02*
X154511428Y-85949523D01*
X154559047Y-86044761D01*
X154654285Y-86092380D01*
X154797142Y-86092380D01*
X154892380Y-86044761D01*
X154940000Y-85997142D01*
X155273333Y-85425714D02*
X155654285Y-85425714D01*
X155416190Y-85092380D02*
X155416190Y-85949523D01*
X155463809Y-86044761D01*
X155559047Y-86092380D01*
X155654285Y-86092380D01*
X155892380Y-86092380D02*
X156416190Y-85425714D01*
X155892380Y-85425714D02*
X156416190Y-86092380D01*
X157320952Y-86092380D02*
X156749523Y-86092380D01*
X157035238Y-86092380D02*
X157035238Y-85092380D01*
X156940000Y-85235238D01*
X156844761Y-85330476D01*
X156749523Y-85378095D01*
X148920357Y-114572142D02*
X148872738Y-114619761D01*
X148729880Y-114667380D01*
X148634642Y-114667380D01*
X148491785Y-114619761D01*
X148396547Y-114524523D01*
X148348928Y-114429285D01*
X148301309Y-114238809D01*
X148301309Y-114095952D01*
X148348928Y-113905476D01*
X148396547Y-113810238D01*
X148491785Y-113715000D01*
X148634642Y-113667380D01*
X148729880Y-113667380D01*
X148872738Y-113715000D01*
X148920357Y-113762619D01*
X149491785Y-114667380D02*
X149396547Y-114619761D01*
X149348928Y-114572142D01*
X149301309Y-114476904D01*
X149301309Y-114191190D01*
X149348928Y-114095952D01*
X149396547Y-114048333D01*
X149491785Y-114000714D01*
X149634642Y-114000714D01*
X149729880Y-114048333D01*
X149777500Y-114095952D01*
X149825119Y-114191190D01*
X149825119Y-114476904D01*
X149777500Y-114572142D01*
X149729880Y-114619761D01*
X149634642Y-114667380D01*
X149491785Y-114667380D01*
X150682261Y-114000714D02*
X150682261Y-114667380D01*
X150253690Y-114000714D02*
X150253690Y-114524523D01*
X150301309Y-114619761D01*
X150396547Y-114667380D01*
X150539404Y-114667380D01*
X150634642Y-114619761D01*
X150682261Y-114572142D01*
X151015595Y-114000714D02*
X151396547Y-114000714D01*
X151158452Y-113667380D02*
X151158452Y-114524523D01*
X151206071Y-114619761D01*
X151301309Y-114667380D01*
X151396547Y-114667380D01*
X152158452Y-114000714D02*
X152158452Y-114667380D01*
X151920357Y-113619761D02*
X151682261Y-114334047D01*
X152301309Y-114334047D01*
X157392857Y-114572142D02*
X157345238Y-114619761D01*
X157202380Y-114667380D01*
X157107142Y-114667380D01*
X156964285Y-114619761D01*
X156869047Y-114524523D01*
X156821428Y-114429285D01*
X156773809Y-114238809D01*
X156773809Y-114095952D01*
X156821428Y-113905476D01*
X156869047Y-113810238D01*
X156964285Y-113715000D01*
X157107142Y-113667380D01*
X157202380Y-113667380D01*
X157345238Y-113715000D01*
X157392857Y-113762619D01*
X157964285Y-114667380D02*
X157869047Y-114619761D01*
X157821428Y-114572142D01*
X157773809Y-114476904D01*
X157773809Y-114191190D01*
X157821428Y-114095952D01*
X157869047Y-114048333D01*
X157964285Y-114000714D01*
X158107142Y-114000714D01*
X158202380Y-114048333D01*
X158250000Y-114095952D01*
X158297619Y-114191190D01*
X158297619Y-114476904D01*
X158250000Y-114572142D01*
X158202380Y-114619761D01*
X158107142Y-114667380D01*
X157964285Y-114667380D01*
X159154761Y-114000714D02*
X159154761Y-114667380D01*
X158726190Y-114000714D02*
X158726190Y-114524523D01*
X158773809Y-114619761D01*
X158869047Y-114667380D01*
X159011904Y-114667380D01*
X159107142Y-114619761D01*
X159154761Y-114572142D01*
X159488095Y-114000714D02*
X159869047Y-114000714D01*
X159630952Y-113667380D02*
X159630952Y-114524523D01*
X159678571Y-114619761D01*
X159773809Y-114667380D01*
X159869047Y-114667380D01*
X160107142Y-113667380D02*
X160726190Y-113667380D01*
X160392857Y-114048333D01*
X160535714Y-114048333D01*
X160630952Y-114095952D01*
X160678571Y-114143571D01*
X160726190Y-114238809D01*
X160726190Y-114476904D01*
X160678571Y-114572142D01*
X160630952Y-114619761D01*
X160535714Y-114667380D01*
X160250000Y-114667380D01*
X160154761Y-114619761D01*
X160107142Y-114572142D01*
X165430357Y-114572142D02*
X165382738Y-114619761D01*
X165239880Y-114667380D01*
X165144642Y-114667380D01*
X165001785Y-114619761D01*
X164906547Y-114524523D01*
X164858928Y-114429285D01*
X164811309Y-114238809D01*
X164811309Y-114095952D01*
X164858928Y-113905476D01*
X164906547Y-113810238D01*
X165001785Y-113715000D01*
X165144642Y-113667380D01*
X165239880Y-113667380D01*
X165382738Y-113715000D01*
X165430357Y-113762619D01*
X166001785Y-114667380D02*
X165906547Y-114619761D01*
X165858928Y-114572142D01*
X165811309Y-114476904D01*
X165811309Y-114191190D01*
X165858928Y-114095952D01*
X165906547Y-114048333D01*
X166001785Y-114000714D01*
X166144642Y-114000714D01*
X166239880Y-114048333D01*
X166287500Y-114095952D01*
X166335119Y-114191190D01*
X166335119Y-114476904D01*
X166287500Y-114572142D01*
X166239880Y-114619761D01*
X166144642Y-114667380D01*
X166001785Y-114667380D01*
X167192261Y-114000714D02*
X167192261Y-114667380D01*
X166763690Y-114000714D02*
X166763690Y-114524523D01*
X166811309Y-114619761D01*
X166906547Y-114667380D01*
X167049404Y-114667380D01*
X167144642Y-114619761D01*
X167192261Y-114572142D01*
X167525595Y-114000714D02*
X167906547Y-114000714D01*
X167668452Y-113667380D02*
X167668452Y-114524523D01*
X167716071Y-114619761D01*
X167811309Y-114667380D01*
X167906547Y-114667380D01*
X168192261Y-113762619D02*
X168239880Y-113715000D01*
X168335119Y-113667380D01*
X168573214Y-113667380D01*
X168668452Y-113715000D01*
X168716071Y-113762619D01*
X168763690Y-113857857D01*
X168763690Y-113953095D01*
X168716071Y-114095952D01*
X168144642Y-114667380D01*
X168763690Y-114667380D01*
X150767142Y-104444642D02*
X150814761Y-104492261D01*
X150862380Y-104635119D01*
X150862380Y-104730357D01*
X150814761Y-104873214D01*
X150719523Y-104968452D01*
X150624285Y-105016071D01*
X150433809Y-105063690D01*
X150290952Y-105063690D01*
X150100476Y-105016071D01*
X150005238Y-104968452D01*
X149910000Y-104873214D01*
X149862380Y-104730357D01*
X149862380Y-104635119D01*
X149910000Y-104492261D01*
X149957619Y-104444642D01*
X150862380Y-103873214D02*
X150814761Y-103968452D01*
X150767142Y-104016071D01*
X150671904Y-104063690D01*
X150386190Y-104063690D01*
X150290952Y-104016071D01*
X150243333Y-103968452D01*
X150195714Y-103873214D01*
X150195714Y-103730357D01*
X150243333Y-103635119D01*
X150290952Y-103587500D01*
X150386190Y-103539880D01*
X150671904Y-103539880D01*
X150767142Y-103587500D01*
X150814761Y-103635119D01*
X150862380Y-103730357D01*
X150862380Y-103873214D01*
X150195714Y-102682738D02*
X150862380Y-102682738D01*
X150195714Y-103111309D02*
X150719523Y-103111309D01*
X150814761Y-103063690D01*
X150862380Y-102968452D01*
X150862380Y-102825595D01*
X150814761Y-102730357D01*
X150767142Y-102682738D01*
X150195714Y-102349404D02*
X150195714Y-101968452D01*
X149862380Y-102206547D02*
X150719523Y-102206547D01*
X150814761Y-102158928D01*
X150862380Y-102063690D01*
X150862380Y-101968452D01*
X150862380Y-101111309D02*
X150862380Y-101682738D01*
X150862380Y-101397023D02*
X149862380Y-101397023D01*
X150005238Y-101492261D01*
X150100476Y-101587500D01*
X150148095Y-101682738D01*
X135987142Y-117351071D02*
X136034761Y-117398690D01*
X136082380Y-117541547D01*
X136082380Y-117636785D01*
X136034761Y-117779642D01*
X135939523Y-117874880D01*
X135844285Y-117922500D01*
X135653809Y-117970119D01*
X135510952Y-117970119D01*
X135320476Y-117922500D01*
X135225238Y-117874880D01*
X135130000Y-117779642D01*
X135082380Y-117636785D01*
X135082380Y-117541547D01*
X135130000Y-117398690D01*
X135177619Y-117351071D01*
X136082380Y-116922500D02*
X135082380Y-116922500D01*
X136082380Y-116446309D02*
X135082380Y-116446309D01*
X136082380Y-115874880D01*
X135082380Y-115874880D01*
X135082380Y-115493928D02*
X135082380Y-114874880D01*
X135463333Y-115208214D01*
X135463333Y-115065357D01*
X135510952Y-114970119D01*
X135558571Y-114922500D01*
X135653809Y-114874880D01*
X135891904Y-114874880D01*
X135987142Y-114922500D01*
X136034761Y-114970119D01*
X136082380Y-115065357D01*
X136082380Y-115351071D01*
X136034761Y-115446309D01*
X135987142Y-115493928D01*
X135987142Y-109931071D02*
X136034761Y-109978690D01*
X136082380Y-110121547D01*
X136082380Y-110216785D01*
X136034761Y-110359642D01*
X135939523Y-110454880D01*
X135844285Y-110502500D01*
X135653809Y-110550119D01*
X135510952Y-110550119D01*
X135320476Y-110502500D01*
X135225238Y-110454880D01*
X135130000Y-110359642D01*
X135082380Y-110216785D01*
X135082380Y-110121547D01*
X135130000Y-109978690D01*
X135177619Y-109931071D01*
X136082380Y-109502500D02*
X135082380Y-109502500D01*
X136082380Y-109026309D02*
X135082380Y-109026309D01*
X136082380Y-108454880D01*
X135082380Y-108454880D01*
X135177619Y-108026309D02*
X135130000Y-107978690D01*
X135082380Y-107883452D01*
X135082380Y-107645357D01*
X135130000Y-107550119D01*
X135177619Y-107502500D01*
X135272857Y-107454880D01*
X135368095Y-107454880D01*
X135510952Y-107502500D01*
X136082380Y-108073928D01*
X136082380Y-107454880D01*
X135987142Y-102946071D02*
X136034761Y-102993690D01*
X136082380Y-103136547D01*
X136082380Y-103231785D01*
X136034761Y-103374642D01*
X135939523Y-103469880D01*
X135844285Y-103517500D01*
X135653809Y-103565119D01*
X135510952Y-103565119D01*
X135320476Y-103517500D01*
X135225238Y-103469880D01*
X135130000Y-103374642D01*
X135082380Y-103231785D01*
X135082380Y-103136547D01*
X135130000Y-102993690D01*
X135177619Y-102946071D01*
X136082380Y-102517500D02*
X135082380Y-102517500D01*
X136082380Y-102041309D02*
X135082380Y-102041309D01*
X136082380Y-101469880D01*
X135082380Y-101469880D01*
X136082380Y-100469880D02*
X136082380Y-101041309D01*
X136082380Y-100755595D02*
X135082380Y-100755595D01*
X135225238Y-100850833D01*
X135320476Y-100946071D01*
X135368095Y-101041309D01*
X159207142Y-102600714D02*
X159254761Y-102648333D01*
X159302380Y-102791190D01*
X159302380Y-102886428D01*
X159254761Y-103029285D01*
X159159523Y-103124523D01*
X159064285Y-103172142D01*
X158873809Y-103219761D01*
X158730952Y-103219761D01*
X158540476Y-103172142D01*
X158445238Y-103124523D01*
X158350000Y-103029285D01*
X158302380Y-102886428D01*
X158302380Y-102791190D01*
X158350000Y-102648333D01*
X158397619Y-102600714D01*
X158635714Y-101743571D02*
X159445238Y-101743571D01*
X159540476Y-101791190D01*
X159588095Y-101838809D01*
X159635714Y-101934047D01*
X159635714Y-102076904D01*
X159588095Y-102172142D01*
X159254761Y-101743571D02*
X159302380Y-101838809D01*
X159302380Y-102029285D01*
X159254761Y-102124523D01*
X159207142Y-102172142D01*
X159111904Y-102219761D01*
X158826190Y-102219761D01*
X158730952Y-102172142D01*
X158683333Y-102124523D01*
X158635714Y-102029285D01*
X158635714Y-101838809D01*
X158683333Y-101743571D01*
X159302380Y-100838809D02*
X158778571Y-100838809D01*
X158683333Y-100886428D01*
X158635714Y-100981666D01*
X158635714Y-101172142D01*
X158683333Y-101267380D01*
X159254761Y-100838809D02*
X159302380Y-100934047D01*
X159302380Y-101172142D01*
X159254761Y-101267380D01*
X159159523Y-101315000D01*
X159064285Y-101315000D01*
X158969047Y-101267380D01*
X158921428Y-101172142D01*
X158921428Y-100934047D01*
X158873809Y-100838809D01*
X158635714Y-100505476D02*
X158635714Y-100124523D01*
X158302380Y-100362619D02*
X159159523Y-100362619D01*
X159254761Y-100315000D01*
X159302380Y-100219761D01*
X159302380Y-100124523D01*
X159254761Y-99410238D02*
X159302380Y-99505476D01*
X159302380Y-99695952D01*
X159254761Y-99791190D01*
X159159523Y-99838809D01*
X158778571Y-99838809D01*
X158683333Y-99791190D01*
X158635714Y-99695952D01*
X158635714Y-99505476D01*
X158683333Y-99410238D01*
X158778571Y-99362619D01*
X158873809Y-99362619D01*
X158969047Y-99838809D01*
X159302380Y-98410238D02*
X159302380Y-98981666D01*
X159302380Y-98695952D02*
X158302380Y-98695952D01*
X158445238Y-98791190D01*
X158540476Y-98886428D01*
X158588095Y-98981666D01*
X141327142Y-111141666D02*
X141374761Y-111189285D01*
X141422380Y-111332142D01*
X141422380Y-111427380D01*
X141374761Y-111570238D01*
X141279523Y-111665476D01*
X141184285Y-111713095D01*
X140993809Y-111760714D01*
X140850952Y-111760714D01*
X140660476Y-111713095D01*
X140565238Y-111665476D01*
X140470000Y-111570238D01*
X140422380Y-111427380D01*
X140422380Y-111332142D01*
X140470000Y-111189285D01*
X140517619Y-111141666D01*
X141374761Y-110284523D02*
X141422380Y-110379761D01*
X141422380Y-110570238D01*
X141374761Y-110665476D01*
X141327142Y-110713095D01*
X141231904Y-110760714D01*
X140946190Y-110760714D01*
X140850952Y-110713095D01*
X140803333Y-110665476D01*
X140755714Y-110570238D01*
X140755714Y-110379761D01*
X140803333Y-110284523D01*
X141422380Y-109713095D02*
X141374761Y-109808333D01*
X141327142Y-109855952D01*
X141231904Y-109903571D01*
X140946190Y-109903571D01*
X140850952Y-109855952D01*
X140803333Y-109808333D01*
X140755714Y-109713095D01*
X140755714Y-109570238D01*
X140803333Y-109475000D01*
X140850952Y-109427380D01*
X140946190Y-109379761D01*
X141231904Y-109379761D01*
X141327142Y-109427380D01*
X141374761Y-109475000D01*
X141422380Y-109570238D01*
X141422380Y-109713095D01*
X141422380Y-108951190D02*
X140755714Y-108951190D01*
X140850952Y-108951190D02*
X140803333Y-108903571D01*
X140755714Y-108808333D01*
X140755714Y-108665476D01*
X140803333Y-108570238D01*
X140898571Y-108522619D01*
X141422380Y-108522619D01*
X140898571Y-108522619D02*
X140803333Y-108475000D01*
X140755714Y-108379761D01*
X140755714Y-108236904D01*
X140803333Y-108141666D01*
X140898571Y-108094047D01*
X141422380Y-108094047D01*
X140755714Y-107617857D02*
X141755714Y-107617857D01*
X140803333Y-107617857D02*
X140755714Y-107522619D01*
X140755714Y-107332142D01*
X140803333Y-107236904D01*
X140850952Y-107189285D01*
X140946190Y-107141666D01*
X141231904Y-107141666D01*
X141327142Y-107189285D01*
X141374761Y-107236904D01*
X141422380Y-107332142D01*
X141422380Y-107522619D01*
X141374761Y-107617857D01*
X141422380Y-106189285D02*
X141422380Y-106760714D01*
X141422380Y-106475000D02*
X140422380Y-106475000D01*
X140565238Y-106570238D01*
X140660476Y-106665476D01*
X140708095Y-106760714D01*
X130277142Y-94764523D02*
X130324761Y-94812142D01*
X130372380Y-94955000D01*
X130372380Y-95050238D01*
X130324761Y-95193095D01*
X130229523Y-95288333D01*
X130134285Y-95335952D01*
X129943809Y-95383571D01*
X129800952Y-95383571D01*
X129610476Y-95335952D01*
X129515238Y-95288333D01*
X129420000Y-95193095D01*
X129372380Y-95050238D01*
X129372380Y-94955000D01*
X129420000Y-94812142D01*
X129467619Y-94764523D01*
X130372380Y-94335952D02*
X129372380Y-94335952D01*
X129753333Y-94335952D02*
X129705714Y-94240714D01*
X129705714Y-94050238D01*
X129753333Y-93955000D01*
X129800952Y-93907380D01*
X129896190Y-93859761D01*
X130181904Y-93859761D01*
X130277142Y-93907380D01*
X130324761Y-93955000D01*
X130372380Y-94050238D01*
X130372380Y-94240714D01*
X130324761Y-94335952D01*
X130372380Y-93288333D02*
X130324761Y-93383571D01*
X130277142Y-93431190D01*
X130181904Y-93478809D01*
X129896190Y-93478809D01*
X129800952Y-93431190D01*
X129753333Y-93383571D01*
X129705714Y-93288333D01*
X129705714Y-93145476D01*
X129753333Y-93050238D01*
X129800952Y-93002619D01*
X129896190Y-92955000D01*
X130181904Y-92955000D01*
X130277142Y-93002619D01*
X130324761Y-93050238D01*
X130372380Y-93145476D01*
X130372380Y-93288333D01*
X130372380Y-92383571D02*
X130324761Y-92478809D01*
X130277142Y-92526428D01*
X130181904Y-92574047D01*
X129896190Y-92574047D01*
X129800952Y-92526428D01*
X129753333Y-92478809D01*
X129705714Y-92383571D01*
X129705714Y-92240714D01*
X129753333Y-92145476D01*
X129800952Y-92097857D01*
X129896190Y-92050238D01*
X130181904Y-92050238D01*
X130277142Y-92097857D01*
X130324761Y-92145476D01*
X130372380Y-92240714D01*
X130372380Y-92383571D01*
X129705714Y-91764523D02*
X129705714Y-91383571D01*
X129372380Y-91621666D02*
X130229523Y-91621666D01*
X130324761Y-91574047D01*
X130372380Y-91478809D01*
X130372380Y-91383571D01*
X130372380Y-90526428D02*
X130372380Y-91097857D01*
X130372380Y-90812142D02*
X129372380Y-90812142D01*
X129515238Y-90907380D01*
X129610476Y-91002619D01*
X129658095Y-91097857D01*
D13*
X138732380Y-98364523D02*
X138732380Y-99392619D01*
X138792857Y-99513571D01*
X138853333Y-99574047D01*
X138974285Y-99634523D01*
X139216190Y-99634523D01*
X139337142Y-99574047D01*
X139397619Y-99513571D01*
X139458095Y-99392619D01*
X139458095Y-98364523D01*
X140728095Y-99634523D02*
X140002380Y-99634523D01*
X140365238Y-99634523D02*
X140365238Y-98364523D01*
X140244285Y-98545952D01*
X140123333Y-98666904D01*
X140002380Y-98727380D01*
D10*
X170727619Y-99155238D02*
X170680000Y-99250476D01*
X170584761Y-99345714D01*
X170441904Y-99488571D01*
X170394285Y-99583809D01*
X170394285Y-99679047D01*
X170632380Y-99631428D02*
X170584761Y-99726666D01*
X170489523Y-99821904D01*
X170299047Y-99869523D01*
X169965714Y-99869523D01*
X169775238Y-99821904D01*
X169680000Y-99726666D01*
X169632380Y-99631428D01*
X169632380Y-99440952D01*
X169680000Y-99345714D01*
X169775238Y-99250476D01*
X169965714Y-99202857D01*
X170299047Y-99202857D01*
X170489523Y-99250476D01*
X170584761Y-99345714D01*
X170632380Y-99440952D01*
X170632380Y-99631428D01*
X170632380Y-98250476D02*
X170632380Y-98821904D01*
X170632380Y-98536190D02*
X169632380Y-98536190D01*
X169775238Y-98631428D01*
X169870476Y-98726666D01*
X169918095Y-98821904D01*
M02*
