G04 #@! TF.GenerationSoftware,KiCad,Pcbnew,5.0.0*
G04 #@! TF.CreationDate,2018-07-30T20:07:15-05:00*
G04 #@! TF.ProjectId,CardedgeBreakout,4361726465646765427265616B6F7574,rev?*
G04 #@! TF.SameCoordinates,Original*
G04 #@! TF.FileFunction,Copper,L2,Bot,Signal*
G04 #@! TF.FilePolarity,Positive*
%FSLAX46Y46*%
G04 Gerber Fmt 4.6, Leading zero omitted, Abs format (unit mm)*
G04 Created by KiCad (PCBNEW 5.0.0) date Mon Jul 30 20:07:15 2018*
%MOMM*%
%LPD*%
G01*
G04 APERTURE LIST*
G04 #@! TA.AperFunction,ComponentPad*
%ADD10C,1.500000*%
G04 #@! TD*
G04 #@! TA.AperFunction,ComponentPad*
%ADD11R,1.700000X1.700000*%
G04 #@! TD*
G04 #@! TA.AperFunction,ComponentPad*
%ADD12O,1.700000X1.700000*%
G04 #@! TD*
G04 #@! TA.AperFunction,ViaPad*
%ADD13C,0.355600*%
G04 #@! TD*
G04 #@! TA.AperFunction,Conductor*
%ADD14C,0.177800*%
G04 #@! TD*
G04 #@! TA.AperFunction,Conductor*
%ADD15C,0.254000*%
G04 #@! TD*
G04 APERTURE END LIST*
D10*
G04 #@! TO.P,P5,*
G04 #@! TO.N,*
X198348600Y-155424600D03*
X198348600Y-111224600D03*
G04 #@! TD*
D11*
G04 #@! TO.P,J4,1*
G04 #@! TO.N,+5V*
X211201000Y-153187400D03*
D12*
G04 #@! TO.P,J4,2*
G04 #@! TO.N,MIO51*
X211201000Y-150647400D03*
G04 #@! TO.P,J4,3*
G04 #@! TO.N,MIO49*
X211201000Y-148107400D03*
G04 #@! TO.P,J4,4*
G04 #@! TO.N,MIO47*
X211201000Y-145567400D03*
G04 #@! TO.P,J4,5*
G04 #@! TO.N,MIO46*
X211201000Y-143027400D03*
G04 #@! TO.P,J4,6*
G04 #@! TO.N,MIO11*
X211201000Y-140487400D03*
G04 #@! TO.P,J4,7*
G04 #@! TO.N,MIO12*
X211201000Y-137947400D03*
G04 #@! TO.P,J4,8*
G04 #@! TO.N,MIO48*
X211201000Y-135407400D03*
G04 #@! TO.P,J4,9*
G04 #@! TO.N,MIO0*
X211201000Y-132867400D03*
G04 #@! TO.P,J4,10*
G04 #@! TO.N,MIO14*
X211201000Y-130327400D03*
G04 #@! TO.P,J4,11*
G04 #@! TO.N,MIO13*
X211201000Y-127787400D03*
G04 #@! TO.P,J4,12*
G04 #@! TO.N,MIO10*
X211201000Y-125247400D03*
G04 #@! TO.P,J4,13*
G04 #@! TO.N,MIO15*
X211201000Y-122707400D03*
G04 #@! TO.P,J4,14*
G04 #@! TO.N,PWR_ENABLE*
X211201000Y-120167400D03*
G04 #@! TO.P,J4,15*
G04 #@! TO.N,PG_MODULE*
X211201000Y-117627400D03*
G04 #@! TO.P,J4,16*
G04 #@! TO.N,FPGA_DONE*
X211201000Y-115087400D03*
G04 #@! TO.P,J4,17*
G04 #@! TO.N,GND*
X211201000Y-112547400D03*
G04 #@! TD*
D13*
G04 #@! TO.N,+5V*
X198297800Y-130225800D03*
G04 #@! TO.N,MIO51*
X196977000Y-149174200D03*
G04 #@! TO.N,MIO49*
X196875400Y-146634200D03*
G04 #@! TO.N,MIO47*
X196824600Y-144043400D03*
G04 #@! TO.N,MIO46*
X196824600Y-141503400D03*
G04 #@! TO.N,MIO11*
X196977000Y-136525000D03*
G04 #@! TO.N,MIO12*
X196926200Y-133883400D03*
G04 #@! TO.N,PG_MODULE*
X200837800Y-118795800D03*
G04 #@! TO.N,FPGA_DONE*
X196926200Y-116154200D03*
G04 #@! TD*
D14*
G04 #@! TO.N,+5V*
X198297800Y-130225800D02*
X198297800Y-130175000D01*
G04 #@! TO.N,MIO51*
X198399400Y-150596600D02*
X196977000Y-149174200D01*
X210642200Y-150596600D02*
X198399400Y-150596600D01*
G04 #@! TO.N,MIO49*
X198297800Y-148056600D02*
X196875400Y-146634200D01*
X210642200Y-148056600D02*
X198297800Y-148056600D01*
G04 #@! TO.N,MIO47*
X198297800Y-145516600D02*
X196824600Y-144043400D01*
X210642200Y-145516600D02*
X198297800Y-145516600D01*
G04 #@! TO.N,MIO46*
X198297800Y-142976600D02*
X196824600Y-141503400D01*
X210642200Y-142976600D02*
X198297800Y-142976600D01*
G04 #@! TO.N,MIO11*
X200888600Y-140436600D02*
X196977000Y-136525000D01*
X210642200Y-140436600D02*
X200888600Y-140436600D01*
G04 #@! TO.N,MIO12*
X200939400Y-137896600D02*
X196926200Y-133883400D01*
X210642200Y-137896600D02*
X200939400Y-137896600D01*
G04 #@! TO.N,PG_MODULE*
X202006200Y-117627400D02*
X200837800Y-118795800D01*
X211201000Y-117627400D02*
X202006200Y-117627400D01*
G04 #@! TO.N,FPGA_DONE*
X197993000Y-115087400D02*
X196926200Y-116154200D01*
X211201000Y-115087400D02*
X197993000Y-115087400D01*
G04 #@! TD*
D15*
G04 #@! TO.N,+5V*
G36*
X213234200Y-157405000D02*
X194893000Y-157405000D01*
X194893000Y-155149106D01*
X196963600Y-155149106D01*
X196963600Y-155700094D01*
X197174453Y-156209140D01*
X197564060Y-156598747D01*
X198073106Y-156809600D01*
X198624094Y-156809600D01*
X199133140Y-156598747D01*
X199522747Y-156209140D01*
X199733600Y-155700094D01*
X199733600Y-155149106D01*
X199522747Y-154640060D01*
X199133140Y-154250453D01*
X198688319Y-154066203D01*
X198708298Y-154057927D01*
X198886927Y-153879298D01*
X198983600Y-153645909D01*
X198983600Y-153473150D01*
X209716000Y-153473150D01*
X209716000Y-154163710D01*
X209812673Y-154397099D01*
X209991302Y-154575727D01*
X210224691Y-154672400D01*
X210915250Y-154672400D01*
X211074000Y-154513650D01*
X211074000Y-153314400D01*
X211328000Y-153314400D01*
X211328000Y-154513650D01*
X211486750Y-154672400D01*
X212177309Y-154672400D01*
X212410698Y-154575727D01*
X212589327Y-154397099D01*
X212686000Y-154163710D01*
X212686000Y-153473150D01*
X212527250Y-153314400D01*
X211328000Y-153314400D01*
X211074000Y-153314400D01*
X209874750Y-153314400D01*
X209716000Y-153473150D01*
X198983600Y-153473150D01*
X198983600Y-153393291D01*
X198886927Y-153159902D01*
X198708298Y-152981273D01*
X198474909Y-152884600D01*
X198222291Y-152884600D01*
X197988902Y-152981273D01*
X197810273Y-153159902D01*
X197713600Y-153393291D01*
X197713600Y-153645909D01*
X197810273Y-153879298D01*
X197988902Y-154057927D01*
X198008881Y-154066203D01*
X197564060Y-154250453D01*
X197174453Y-154640060D01*
X196963600Y-155149106D01*
X194893000Y-155149106D01*
X194893000Y-141341724D01*
X196011800Y-141341724D01*
X196011800Y-141665076D01*
X196135541Y-141963814D01*
X196364186Y-142192459D01*
X196578811Y-142281359D01*
X197735509Y-143438058D01*
X197775897Y-143498503D01*
X198015348Y-143658499D01*
X198226502Y-143700500D01*
X198226503Y-143700500D01*
X198297799Y-143714682D01*
X198369096Y-143700500D01*
X209864757Y-143700500D01*
X210130375Y-144098025D01*
X210428761Y-144297400D01*
X210130375Y-144496775D01*
X209932644Y-144792700D01*
X198597649Y-144792700D01*
X197602559Y-143797611D01*
X197513659Y-143582986D01*
X197285014Y-143354341D01*
X196986276Y-143230600D01*
X196662924Y-143230600D01*
X196364186Y-143354341D01*
X196135541Y-143582986D01*
X196011800Y-143881724D01*
X196011800Y-144205076D01*
X196135541Y-144503814D01*
X196364186Y-144732459D01*
X196578811Y-144821359D01*
X197735509Y-145978058D01*
X197775897Y-146038503D01*
X198015348Y-146198499D01*
X198226502Y-146240500D01*
X198226503Y-146240500D01*
X198297799Y-146254682D01*
X198369096Y-146240500D01*
X209864757Y-146240500D01*
X210130375Y-146638025D01*
X210428761Y-146837400D01*
X210130375Y-147036775D01*
X209932644Y-147332700D01*
X198597649Y-147332700D01*
X197653359Y-146388411D01*
X197564459Y-146173786D01*
X197335814Y-145945141D01*
X197037076Y-145821400D01*
X196713724Y-145821400D01*
X196414986Y-145945141D01*
X196186341Y-146173786D01*
X196062600Y-146472524D01*
X196062600Y-146795876D01*
X196186341Y-147094614D01*
X196414986Y-147323259D01*
X196629611Y-147412159D01*
X197735509Y-148518058D01*
X197775897Y-148578503D01*
X198015348Y-148738499D01*
X198226502Y-148780500D01*
X198226503Y-148780500D01*
X198297799Y-148794682D01*
X198369096Y-148780500D01*
X209864757Y-148780500D01*
X210130375Y-149178025D01*
X210428761Y-149377400D01*
X210130375Y-149576775D01*
X209932644Y-149872700D01*
X198699249Y-149872700D01*
X197754959Y-148928411D01*
X197666059Y-148713786D01*
X197437414Y-148485141D01*
X197138676Y-148361400D01*
X196815324Y-148361400D01*
X196516586Y-148485141D01*
X196287941Y-148713786D01*
X196164200Y-149012524D01*
X196164200Y-149335876D01*
X196287941Y-149634614D01*
X196516586Y-149863259D01*
X196731211Y-149952159D01*
X197837109Y-151058058D01*
X197877497Y-151118503D01*
X198116948Y-151278499D01*
X198328102Y-151320500D01*
X198328103Y-151320500D01*
X198399399Y-151334682D01*
X198470696Y-151320500D01*
X209864757Y-151320500D01*
X210130375Y-151718025D01*
X210152033Y-151732496D01*
X209991302Y-151799073D01*
X209812673Y-151977701D01*
X209716000Y-152211090D01*
X209716000Y-152901650D01*
X209874750Y-153060400D01*
X211074000Y-153060400D01*
X211074000Y-153040400D01*
X211328000Y-153040400D01*
X211328000Y-153060400D01*
X212527250Y-153060400D01*
X212686000Y-152901650D01*
X212686000Y-152211090D01*
X212589327Y-151977701D01*
X212410698Y-151799073D01*
X212249967Y-151732496D01*
X212271625Y-151718025D01*
X212599839Y-151226818D01*
X212715092Y-150647400D01*
X212599839Y-150067982D01*
X212271625Y-149576775D01*
X211973239Y-149377400D01*
X212271625Y-149178025D01*
X212599839Y-148686818D01*
X212715092Y-148107400D01*
X212599839Y-147527982D01*
X212271625Y-147036775D01*
X211973239Y-146837400D01*
X212271625Y-146638025D01*
X212599839Y-146146818D01*
X212715092Y-145567400D01*
X212599839Y-144987982D01*
X212271625Y-144496775D01*
X211973239Y-144297400D01*
X212271625Y-144098025D01*
X212599839Y-143606818D01*
X212715092Y-143027400D01*
X212599839Y-142447982D01*
X212271625Y-141956775D01*
X211973239Y-141757400D01*
X212271625Y-141558025D01*
X212599839Y-141066818D01*
X212715092Y-140487400D01*
X212599839Y-139907982D01*
X212271625Y-139416775D01*
X211973239Y-139217400D01*
X212271625Y-139018025D01*
X212599839Y-138526818D01*
X212715092Y-137947400D01*
X212599839Y-137367982D01*
X212271625Y-136876775D01*
X211973239Y-136677400D01*
X212271625Y-136478025D01*
X212599839Y-135986818D01*
X212715092Y-135407400D01*
X212599839Y-134827982D01*
X212271625Y-134336775D01*
X211973239Y-134137400D01*
X212271625Y-133938025D01*
X212599839Y-133446818D01*
X212715092Y-132867400D01*
X212599839Y-132287982D01*
X212271625Y-131796775D01*
X211973239Y-131597400D01*
X212271625Y-131398025D01*
X212599839Y-130906818D01*
X212715092Y-130327400D01*
X212599839Y-129747982D01*
X212271625Y-129256775D01*
X211973239Y-129057400D01*
X212271625Y-128858025D01*
X212599839Y-128366818D01*
X212715092Y-127787400D01*
X212599839Y-127207982D01*
X212271625Y-126716775D01*
X211973239Y-126517400D01*
X212271625Y-126318025D01*
X212599839Y-125826818D01*
X212715092Y-125247400D01*
X212599839Y-124667982D01*
X212271625Y-124176775D01*
X211973239Y-123977400D01*
X212271625Y-123778025D01*
X212599839Y-123286818D01*
X212715092Y-122707400D01*
X212599839Y-122127982D01*
X212271625Y-121636775D01*
X211973239Y-121437400D01*
X212271625Y-121238025D01*
X212599839Y-120746818D01*
X212715092Y-120167400D01*
X212599839Y-119587982D01*
X212271625Y-119096775D01*
X211973239Y-118897400D01*
X212271625Y-118698025D01*
X212599839Y-118206818D01*
X212715092Y-117627400D01*
X212599839Y-117047982D01*
X212271625Y-116556775D01*
X211973239Y-116357400D01*
X212271625Y-116158025D01*
X212599839Y-115666818D01*
X212715092Y-115087400D01*
X212599839Y-114507982D01*
X212271625Y-114016775D01*
X211973239Y-113817400D01*
X212271625Y-113618025D01*
X212599839Y-113126818D01*
X212715092Y-112547400D01*
X212599839Y-111967982D01*
X212271625Y-111476775D01*
X211780418Y-111148561D01*
X211347256Y-111062400D01*
X211054744Y-111062400D01*
X210621582Y-111148561D01*
X210130375Y-111476775D01*
X209802161Y-111967982D01*
X209686908Y-112547400D01*
X209802161Y-113126818D01*
X210130375Y-113618025D01*
X210428761Y-113817400D01*
X210130375Y-114016775D01*
X209898701Y-114363500D01*
X198064297Y-114363500D01*
X197992999Y-114349318D01*
X197710548Y-114405501D01*
X197471097Y-114565497D01*
X197430709Y-114625942D01*
X196680411Y-115376241D01*
X196465786Y-115465141D01*
X196237141Y-115693786D01*
X196113400Y-115992524D01*
X196113400Y-116315876D01*
X196237141Y-116614614D01*
X196465786Y-116843259D01*
X196764524Y-116967000D01*
X197087876Y-116967000D01*
X197386614Y-116843259D01*
X197615259Y-116614614D01*
X197704159Y-116399989D01*
X198292849Y-115811300D01*
X209898701Y-115811300D01*
X210130375Y-116158025D01*
X210428761Y-116357400D01*
X210130375Y-116556775D01*
X209898701Y-116903500D01*
X202077497Y-116903500D01*
X202006199Y-116889318D01*
X201723748Y-116945501D01*
X201484297Y-117105497D01*
X201443909Y-117165942D01*
X200592011Y-118017841D01*
X200377386Y-118106741D01*
X200148741Y-118335386D01*
X200025000Y-118634124D01*
X200025000Y-118957476D01*
X200148741Y-119256214D01*
X200377386Y-119484859D01*
X200676124Y-119608600D01*
X200999476Y-119608600D01*
X201298214Y-119484859D01*
X201526859Y-119256214D01*
X201615759Y-119041589D01*
X202306049Y-118351300D01*
X209898701Y-118351300D01*
X210130375Y-118698025D01*
X210428761Y-118897400D01*
X210130375Y-119096775D01*
X209802161Y-119587982D01*
X209686908Y-120167400D01*
X209802161Y-120746818D01*
X210130375Y-121238025D01*
X210428761Y-121437400D01*
X210130375Y-121636775D01*
X209802161Y-122127982D01*
X209686908Y-122707400D01*
X209802161Y-123286818D01*
X210130375Y-123778025D01*
X210428761Y-123977400D01*
X210130375Y-124176775D01*
X209802161Y-124667982D01*
X209686908Y-125247400D01*
X209802161Y-125826818D01*
X210130375Y-126318025D01*
X210428761Y-126517400D01*
X210130375Y-126716775D01*
X209802161Y-127207982D01*
X209686908Y-127787400D01*
X209802161Y-128366818D01*
X210130375Y-128858025D01*
X210428761Y-129057400D01*
X210130375Y-129256775D01*
X209802161Y-129747982D01*
X209686908Y-130327400D01*
X209802161Y-130906818D01*
X210130375Y-131398025D01*
X210428761Y-131597400D01*
X210130375Y-131796775D01*
X209802161Y-132287982D01*
X209686908Y-132867400D01*
X209802161Y-133446818D01*
X210130375Y-133938025D01*
X210428761Y-134137400D01*
X210130375Y-134336775D01*
X209802161Y-134827982D01*
X209686908Y-135407400D01*
X209802161Y-135986818D01*
X210130375Y-136478025D01*
X210428761Y-136677400D01*
X210130375Y-136876775D01*
X209932644Y-137172700D01*
X201239249Y-137172700D01*
X197704160Y-133637611D01*
X197615259Y-133422986D01*
X197386614Y-133194341D01*
X197087876Y-133070600D01*
X196764524Y-133070600D01*
X196465786Y-133194341D01*
X196237141Y-133422986D01*
X196113400Y-133721724D01*
X196113400Y-134045076D01*
X196237141Y-134343814D01*
X196465786Y-134572459D01*
X196680411Y-134661360D01*
X200377109Y-138358058D01*
X200417497Y-138418503D01*
X200579602Y-138526818D01*
X200656948Y-138578499D01*
X200939400Y-138634682D01*
X201010698Y-138620500D01*
X209864757Y-138620500D01*
X210130375Y-139018025D01*
X210428761Y-139217400D01*
X210130375Y-139416775D01*
X209932644Y-139712700D01*
X201188450Y-139712700D01*
X197754959Y-136279211D01*
X197666059Y-136064586D01*
X197437414Y-135835941D01*
X197138676Y-135712200D01*
X196815324Y-135712200D01*
X196516586Y-135835941D01*
X196287941Y-136064586D01*
X196164200Y-136363324D01*
X196164200Y-136686676D01*
X196287941Y-136985414D01*
X196516586Y-137214059D01*
X196731211Y-137302959D01*
X200326311Y-140898061D01*
X200366697Y-140958503D01*
X200427139Y-140998889D01*
X200427140Y-140998890D01*
X200606148Y-141118499D01*
X200888600Y-141174682D01*
X200959898Y-141160500D01*
X209864757Y-141160500D01*
X210130375Y-141558025D01*
X210428761Y-141757400D01*
X210130375Y-141956775D01*
X209932644Y-142252700D01*
X198597649Y-142252700D01*
X197602559Y-141257611D01*
X197513659Y-141042986D01*
X197285014Y-140814341D01*
X196986276Y-140690600D01*
X196662924Y-140690600D01*
X196364186Y-140814341D01*
X196135541Y-141042986D01*
X196011800Y-141341724D01*
X194893000Y-141341724D01*
X194893000Y-113003291D01*
X198713600Y-113003291D01*
X198713600Y-113255909D01*
X198810273Y-113489298D01*
X198988902Y-113667927D01*
X199222291Y-113764600D01*
X199474909Y-113764600D01*
X199708298Y-113667927D01*
X199886927Y-113489298D01*
X199983600Y-113255909D01*
X199983600Y-113003291D01*
X199886927Y-112769902D01*
X199708298Y-112591273D01*
X199474909Y-112494600D01*
X199222291Y-112494600D01*
X198988902Y-112591273D01*
X198810273Y-112769902D01*
X198713600Y-113003291D01*
X194893000Y-113003291D01*
X194893000Y-110949106D01*
X196963600Y-110949106D01*
X196963600Y-111500094D01*
X197174453Y-112009140D01*
X197564060Y-112398747D01*
X198073106Y-112609600D01*
X198624094Y-112609600D01*
X199133140Y-112398747D01*
X199522747Y-112009140D01*
X199733600Y-111500094D01*
X199733600Y-110949106D01*
X199522747Y-110440060D01*
X199133140Y-110050453D01*
X198624094Y-109839600D01*
X198073106Y-109839600D01*
X197564060Y-110050453D01*
X197174453Y-110440060D01*
X196963600Y-110949106D01*
X194893000Y-110949106D01*
X194893000Y-106247000D01*
X213234201Y-106247000D01*
X213234200Y-157405000D01*
X213234200Y-157405000D01*
G37*
X213234200Y-157405000D02*
X194893000Y-157405000D01*
X194893000Y-155149106D01*
X196963600Y-155149106D01*
X196963600Y-155700094D01*
X197174453Y-156209140D01*
X197564060Y-156598747D01*
X198073106Y-156809600D01*
X198624094Y-156809600D01*
X199133140Y-156598747D01*
X199522747Y-156209140D01*
X199733600Y-155700094D01*
X199733600Y-155149106D01*
X199522747Y-154640060D01*
X199133140Y-154250453D01*
X198688319Y-154066203D01*
X198708298Y-154057927D01*
X198886927Y-153879298D01*
X198983600Y-153645909D01*
X198983600Y-153473150D01*
X209716000Y-153473150D01*
X209716000Y-154163710D01*
X209812673Y-154397099D01*
X209991302Y-154575727D01*
X210224691Y-154672400D01*
X210915250Y-154672400D01*
X211074000Y-154513650D01*
X211074000Y-153314400D01*
X211328000Y-153314400D01*
X211328000Y-154513650D01*
X211486750Y-154672400D01*
X212177309Y-154672400D01*
X212410698Y-154575727D01*
X212589327Y-154397099D01*
X212686000Y-154163710D01*
X212686000Y-153473150D01*
X212527250Y-153314400D01*
X211328000Y-153314400D01*
X211074000Y-153314400D01*
X209874750Y-153314400D01*
X209716000Y-153473150D01*
X198983600Y-153473150D01*
X198983600Y-153393291D01*
X198886927Y-153159902D01*
X198708298Y-152981273D01*
X198474909Y-152884600D01*
X198222291Y-152884600D01*
X197988902Y-152981273D01*
X197810273Y-153159902D01*
X197713600Y-153393291D01*
X197713600Y-153645909D01*
X197810273Y-153879298D01*
X197988902Y-154057927D01*
X198008881Y-154066203D01*
X197564060Y-154250453D01*
X197174453Y-154640060D01*
X196963600Y-155149106D01*
X194893000Y-155149106D01*
X194893000Y-141341724D01*
X196011800Y-141341724D01*
X196011800Y-141665076D01*
X196135541Y-141963814D01*
X196364186Y-142192459D01*
X196578811Y-142281359D01*
X197735509Y-143438058D01*
X197775897Y-143498503D01*
X198015348Y-143658499D01*
X198226502Y-143700500D01*
X198226503Y-143700500D01*
X198297799Y-143714682D01*
X198369096Y-143700500D01*
X209864757Y-143700500D01*
X210130375Y-144098025D01*
X210428761Y-144297400D01*
X210130375Y-144496775D01*
X209932644Y-144792700D01*
X198597649Y-144792700D01*
X197602559Y-143797611D01*
X197513659Y-143582986D01*
X197285014Y-143354341D01*
X196986276Y-143230600D01*
X196662924Y-143230600D01*
X196364186Y-143354341D01*
X196135541Y-143582986D01*
X196011800Y-143881724D01*
X196011800Y-144205076D01*
X196135541Y-144503814D01*
X196364186Y-144732459D01*
X196578811Y-144821359D01*
X197735509Y-145978058D01*
X197775897Y-146038503D01*
X198015348Y-146198499D01*
X198226502Y-146240500D01*
X198226503Y-146240500D01*
X198297799Y-146254682D01*
X198369096Y-146240500D01*
X209864757Y-146240500D01*
X210130375Y-146638025D01*
X210428761Y-146837400D01*
X210130375Y-147036775D01*
X209932644Y-147332700D01*
X198597649Y-147332700D01*
X197653359Y-146388411D01*
X197564459Y-146173786D01*
X197335814Y-145945141D01*
X197037076Y-145821400D01*
X196713724Y-145821400D01*
X196414986Y-145945141D01*
X196186341Y-146173786D01*
X196062600Y-146472524D01*
X196062600Y-146795876D01*
X196186341Y-147094614D01*
X196414986Y-147323259D01*
X196629611Y-147412159D01*
X197735509Y-148518058D01*
X197775897Y-148578503D01*
X198015348Y-148738499D01*
X198226502Y-148780500D01*
X198226503Y-148780500D01*
X198297799Y-148794682D01*
X198369096Y-148780500D01*
X209864757Y-148780500D01*
X210130375Y-149178025D01*
X210428761Y-149377400D01*
X210130375Y-149576775D01*
X209932644Y-149872700D01*
X198699249Y-149872700D01*
X197754959Y-148928411D01*
X197666059Y-148713786D01*
X197437414Y-148485141D01*
X197138676Y-148361400D01*
X196815324Y-148361400D01*
X196516586Y-148485141D01*
X196287941Y-148713786D01*
X196164200Y-149012524D01*
X196164200Y-149335876D01*
X196287941Y-149634614D01*
X196516586Y-149863259D01*
X196731211Y-149952159D01*
X197837109Y-151058058D01*
X197877497Y-151118503D01*
X198116948Y-151278499D01*
X198328102Y-151320500D01*
X198328103Y-151320500D01*
X198399399Y-151334682D01*
X198470696Y-151320500D01*
X209864757Y-151320500D01*
X210130375Y-151718025D01*
X210152033Y-151732496D01*
X209991302Y-151799073D01*
X209812673Y-151977701D01*
X209716000Y-152211090D01*
X209716000Y-152901650D01*
X209874750Y-153060400D01*
X211074000Y-153060400D01*
X211074000Y-153040400D01*
X211328000Y-153040400D01*
X211328000Y-153060400D01*
X212527250Y-153060400D01*
X212686000Y-152901650D01*
X212686000Y-152211090D01*
X212589327Y-151977701D01*
X212410698Y-151799073D01*
X212249967Y-151732496D01*
X212271625Y-151718025D01*
X212599839Y-151226818D01*
X212715092Y-150647400D01*
X212599839Y-150067982D01*
X212271625Y-149576775D01*
X211973239Y-149377400D01*
X212271625Y-149178025D01*
X212599839Y-148686818D01*
X212715092Y-148107400D01*
X212599839Y-147527982D01*
X212271625Y-147036775D01*
X211973239Y-146837400D01*
X212271625Y-146638025D01*
X212599839Y-146146818D01*
X212715092Y-145567400D01*
X212599839Y-144987982D01*
X212271625Y-144496775D01*
X211973239Y-144297400D01*
X212271625Y-144098025D01*
X212599839Y-143606818D01*
X212715092Y-143027400D01*
X212599839Y-142447982D01*
X212271625Y-141956775D01*
X211973239Y-141757400D01*
X212271625Y-141558025D01*
X212599839Y-141066818D01*
X212715092Y-140487400D01*
X212599839Y-139907982D01*
X212271625Y-139416775D01*
X211973239Y-139217400D01*
X212271625Y-139018025D01*
X212599839Y-138526818D01*
X212715092Y-137947400D01*
X212599839Y-137367982D01*
X212271625Y-136876775D01*
X211973239Y-136677400D01*
X212271625Y-136478025D01*
X212599839Y-135986818D01*
X212715092Y-135407400D01*
X212599839Y-134827982D01*
X212271625Y-134336775D01*
X211973239Y-134137400D01*
X212271625Y-133938025D01*
X212599839Y-133446818D01*
X212715092Y-132867400D01*
X212599839Y-132287982D01*
X212271625Y-131796775D01*
X211973239Y-131597400D01*
X212271625Y-131398025D01*
X212599839Y-130906818D01*
X212715092Y-130327400D01*
X212599839Y-129747982D01*
X212271625Y-129256775D01*
X211973239Y-129057400D01*
X212271625Y-128858025D01*
X212599839Y-128366818D01*
X212715092Y-127787400D01*
X212599839Y-127207982D01*
X212271625Y-126716775D01*
X211973239Y-126517400D01*
X212271625Y-126318025D01*
X212599839Y-125826818D01*
X212715092Y-125247400D01*
X212599839Y-124667982D01*
X212271625Y-124176775D01*
X211973239Y-123977400D01*
X212271625Y-123778025D01*
X212599839Y-123286818D01*
X212715092Y-122707400D01*
X212599839Y-122127982D01*
X212271625Y-121636775D01*
X211973239Y-121437400D01*
X212271625Y-121238025D01*
X212599839Y-120746818D01*
X212715092Y-120167400D01*
X212599839Y-119587982D01*
X212271625Y-119096775D01*
X211973239Y-118897400D01*
X212271625Y-118698025D01*
X212599839Y-118206818D01*
X212715092Y-117627400D01*
X212599839Y-117047982D01*
X212271625Y-116556775D01*
X211973239Y-116357400D01*
X212271625Y-116158025D01*
X212599839Y-115666818D01*
X212715092Y-115087400D01*
X212599839Y-114507982D01*
X212271625Y-114016775D01*
X211973239Y-113817400D01*
X212271625Y-113618025D01*
X212599839Y-113126818D01*
X212715092Y-112547400D01*
X212599839Y-111967982D01*
X212271625Y-111476775D01*
X211780418Y-111148561D01*
X211347256Y-111062400D01*
X211054744Y-111062400D01*
X210621582Y-111148561D01*
X210130375Y-111476775D01*
X209802161Y-111967982D01*
X209686908Y-112547400D01*
X209802161Y-113126818D01*
X210130375Y-113618025D01*
X210428761Y-113817400D01*
X210130375Y-114016775D01*
X209898701Y-114363500D01*
X198064297Y-114363500D01*
X197992999Y-114349318D01*
X197710548Y-114405501D01*
X197471097Y-114565497D01*
X197430709Y-114625942D01*
X196680411Y-115376241D01*
X196465786Y-115465141D01*
X196237141Y-115693786D01*
X196113400Y-115992524D01*
X196113400Y-116315876D01*
X196237141Y-116614614D01*
X196465786Y-116843259D01*
X196764524Y-116967000D01*
X197087876Y-116967000D01*
X197386614Y-116843259D01*
X197615259Y-116614614D01*
X197704159Y-116399989D01*
X198292849Y-115811300D01*
X209898701Y-115811300D01*
X210130375Y-116158025D01*
X210428761Y-116357400D01*
X210130375Y-116556775D01*
X209898701Y-116903500D01*
X202077497Y-116903500D01*
X202006199Y-116889318D01*
X201723748Y-116945501D01*
X201484297Y-117105497D01*
X201443909Y-117165942D01*
X200592011Y-118017841D01*
X200377386Y-118106741D01*
X200148741Y-118335386D01*
X200025000Y-118634124D01*
X200025000Y-118957476D01*
X200148741Y-119256214D01*
X200377386Y-119484859D01*
X200676124Y-119608600D01*
X200999476Y-119608600D01*
X201298214Y-119484859D01*
X201526859Y-119256214D01*
X201615759Y-119041589D01*
X202306049Y-118351300D01*
X209898701Y-118351300D01*
X210130375Y-118698025D01*
X210428761Y-118897400D01*
X210130375Y-119096775D01*
X209802161Y-119587982D01*
X209686908Y-120167400D01*
X209802161Y-120746818D01*
X210130375Y-121238025D01*
X210428761Y-121437400D01*
X210130375Y-121636775D01*
X209802161Y-122127982D01*
X209686908Y-122707400D01*
X209802161Y-123286818D01*
X210130375Y-123778025D01*
X210428761Y-123977400D01*
X210130375Y-124176775D01*
X209802161Y-124667982D01*
X209686908Y-125247400D01*
X209802161Y-125826818D01*
X210130375Y-126318025D01*
X210428761Y-126517400D01*
X210130375Y-126716775D01*
X209802161Y-127207982D01*
X209686908Y-127787400D01*
X209802161Y-128366818D01*
X210130375Y-128858025D01*
X210428761Y-129057400D01*
X210130375Y-129256775D01*
X209802161Y-129747982D01*
X209686908Y-130327400D01*
X209802161Y-130906818D01*
X210130375Y-131398025D01*
X210428761Y-131597400D01*
X210130375Y-131796775D01*
X209802161Y-132287982D01*
X209686908Y-132867400D01*
X209802161Y-133446818D01*
X210130375Y-133938025D01*
X210428761Y-134137400D01*
X210130375Y-134336775D01*
X209802161Y-134827982D01*
X209686908Y-135407400D01*
X209802161Y-135986818D01*
X210130375Y-136478025D01*
X210428761Y-136677400D01*
X210130375Y-136876775D01*
X209932644Y-137172700D01*
X201239249Y-137172700D01*
X197704160Y-133637611D01*
X197615259Y-133422986D01*
X197386614Y-133194341D01*
X197087876Y-133070600D01*
X196764524Y-133070600D01*
X196465786Y-133194341D01*
X196237141Y-133422986D01*
X196113400Y-133721724D01*
X196113400Y-134045076D01*
X196237141Y-134343814D01*
X196465786Y-134572459D01*
X196680411Y-134661360D01*
X200377109Y-138358058D01*
X200417497Y-138418503D01*
X200579602Y-138526818D01*
X200656948Y-138578499D01*
X200939400Y-138634682D01*
X201010698Y-138620500D01*
X209864757Y-138620500D01*
X210130375Y-139018025D01*
X210428761Y-139217400D01*
X210130375Y-139416775D01*
X209932644Y-139712700D01*
X201188450Y-139712700D01*
X197754959Y-136279211D01*
X197666059Y-136064586D01*
X197437414Y-135835941D01*
X197138676Y-135712200D01*
X196815324Y-135712200D01*
X196516586Y-135835941D01*
X196287941Y-136064586D01*
X196164200Y-136363324D01*
X196164200Y-136686676D01*
X196287941Y-136985414D01*
X196516586Y-137214059D01*
X196731211Y-137302959D01*
X200326311Y-140898061D01*
X200366697Y-140958503D01*
X200427139Y-140998889D01*
X200427140Y-140998890D01*
X200606148Y-141118499D01*
X200888600Y-141174682D01*
X200959898Y-141160500D01*
X209864757Y-141160500D01*
X210130375Y-141558025D01*
X210428761Y-141757400D01*
X210130375Y-141956775D01*
X209932644Y-142252700D01*
X198597649Y-142252700D01*
X197602559Y-141257611D01*
X197513659Y-141042986D01*
X197285014Y-140814341D01*
X196986276Y-140690600D01*
X196662924Y-140690600D01*
X196364186Y-140814341D01*
X196135541Y-141042986D01*
X196011800Y-141341724D01*
X194893000Y-141341724D01*
X194893000Y-113003291D01*
X198713600Y-113003291D01*
X198713600Y-113255909D01*
X198810273Y-113489298D01*
X198988902Y-113667927D01*
X199222291Y-113764600D01*
X199474909Y-113764600D01*
X199708298Y-113667927D01*
X199886927Y-113489298D01*
X199983600Y-113255909D01*
X199983600Y-113003291D01*
X199886927Y-112769902D01*
X199708298Y-112591273D01*
X199474909Y-112494600D01*
X199222291Y-112494600D01*
X198988902Y-112591273D01*
X198810273Y-112769902D01*
X198713600Y-113003291D01*
X194893000Y-113003291D01*
X194893000Y-110949106D01*
X196963600Y-110949106D01*
X196963600Y-111500094D01*
X197174453Y-112009140D01*
X197564060Y-112398747D01*
X198073106Y-112609600D01*
X198624094Y-112609600D01*
X199133140Y-112398747D01*
X199522747Y-112009140D01*
X199733600Y-111500094D01*
X199733600Y-110949106D01*
X199522747Y-110440060D01*
X199133140Y-110050453D01*
X198624094Y-109839600D01*
X198073106Y-109839600D01*
X197564060Y-110050453D01*
X197174453Y-110440060D01*
X196963600Y-110949106D01*
X194893000Y-110949106D01*
X194893000Y-106247000D01*
X213234201Y-106247000D01*
X213234200Y-157405000D01*
G04 #@! TD*
M02*
