G04 #@! TF.GenerationSoftware,KiCad,Pcbnew,(5.1.4)-1*
G04 #@! TF.CreationDate,2020-04-22T12:28:10-05:00*
G04 #@! TF.ProjectId,Boost,426f6f73-742e-46b6-9963-61645f706362,rev?*
G04 #@! TF.SameCoordinates,Original*
G04 #@! TF.FileFunction,Copper,L2,Bot*
G04 #@! TF.FilePolarity,Positive*
%FSLAX46Y46*%
G04 Gerber Fmt 4.6, Leading zero omitted, Abs format (unit mm)*
G04 Created by KiCad (PCBNEW (5.1.4)-1) date 2020-04-22 12:28:10*
%MOMM*%
%LPD*%
G04 APERTURE LIST*
%ADD10C,1.501000*%
%ADD11O,1.700000X1.700000*%
%ADD12R,1.700000X1.700000*%
%ADD13C,6.350000*%
%ADD14C,0.800000*%
%ADD15C,0.250000*%
%ADD16C,0.254000*%
G04 APERTURE END LIST*
D10*
X121208800Y-95072200D03*
X118668800Y-95072200D03*
X116128800Y-95072200D03*
D11*
X173489081Y-54864935D03*
X173489081Y-57404935D03*
X170949081Y-54864935D03*
X170949081Y-57404935D03*
X168409081Y-54864935D03*
X168409081Y-57404935D03*
X165869081Y-54864935D03*
X165869081Y-57404935D03*
X163329081Y-54864935D03*
X163329081Y-57404935D03*
X160789081Y-54864935D03*
X160789081Y-57404935D03*
X158249081Y-54864935D03*
X158249081Y-57404935D03*
X155709081Y-54864935D03*
X155709081Y-57404935D03*
X153169081Y-54864935D03*
X153169081Y-57404935D03*
X150629081Y-54864935D03*
X150629081Y-57404935D03*
X148089081Y-54864935D03*
X148089081Y-57404935D03*
X145549081Y-54864935D03*
X145549081Y-57404935D03*
X143009081Y-54864935D03*
X143009081Y-57404935D03*
X140469081Y-54864935D03*
X140469081Y-57404935D03*
X137929081Y-54864935D03*
X137929081Y-57404935D03*
X135389081Y-54864935D03*
X135389081Y-57404935D03*
X132849081Y-54864935D03*
X132849081Y-57404935D03*
X130309081Y-54864935D03*
X130309081Y-57404935D03*
X127769081Y-54864935D03*
X127769081Y-57404935D03*
X125229081Y-54864935D03*
X125229081Y-57404935D03*
X122689081Y-54864935D03*
X122689081Y-57404935D03*
X120149081Y-54864935D03*
X120149081Y-57404935D03*
X117609081Y-54864935D03*
X117609081Y-57404935D03*
X115069081Y-54864935D03*
X115069081Y-57404935D03*
X112529081Y-54864935D03*
X112529081Y-57404935D03*
X109989081Y-54864935D03*
D12*
X109989081Y-57404935D03*
D11*
X173489081Y-59944935D03*
X173489081Y-62484935D03*
X170949081Y-59944935D03*
X170949081Y-62484935D03*
X168409081Y-59944935D03*
X168409081Y-62484935D03*
X165869081Y-59944935D03*
X165869081Y-62484935D03*
X163329081Y-59944935D03*
X163329081Y-62484935D03*
X160789081Y-59944935D03*
X160789081Y-62484935D03*
X158249081Y-59944935D03*
X158249081Y-62484935D03*
X155709081Y-59944935D03*
X155709081Y-62484935D03*
X153169081Y-59944935D03*
X153169081Y-62484935D03*
X150629081Y-59944935D03*
X150629081Y-62484935D03*
X148089081Y-59944935D03*
X148089081Y-62484935D03*
X145549081Y-59944935D03*
X145549081Y-62484935D03*
X143009081Y-59944935D03*
X143009081Y-62484935D03*
X140469081Y-59944935D03*
X140469081Y-62484935D03*
X137929081Y-59944935D03*
X137929081Y-62484935D03*
X135389081Y-59944935D03*
X135389081Y-62484935D03*
X132849081Y-59944935D03*
X132849081Y-62484935D03*
X130309081Y-59944935D03*
X130309081Y-62484935D03*
X127769081Y-59944935D03*
X127769081Y-62484935D03*
X125229081Y-59944935D03*
X125229081Y-62484935D03*
X122689081Y-59944935D03*
X122689081Y-62484935D03*
X120149081Y-59944935D03*
X120149081Y-62484935D03*
X117609081Y-59944935D03*
X117609081Y-62484935D03*
X115069081Y-59944935D03*
X115069081Y-62484935D03*
X112529081Y-59944935D03*
X112529081Y-62484935D03*
X109989081Y-59944935D03*
D12*
X109989081Y-62484935D03*
D13*
X181102000Y-140589000D03*
X104902000Y-54864000D03*
X178562000Y-54864000D03*
X101092000Y-140589000D03*
D14*
X128397000Y-78308200D03*
X122682000Y-114046000D03*
X159105600Y-102362000D03*
X151612600Y-90500200D03*
X128676400Y-105511600D03*
X131013200Y-97790000D03*
X104470200Y-77749400D03*
X139801600Y-65709800D03*
X131927600Y-101879400D03*
X132181600Y-98450400D03*
D15*
X140469081Y-62484935D02*
X140970935Y-62484935D01*
X131927600Y-101879400D02*
X131927600Y-98704400D01*
X131927600Y-98704400D02*
X132181600Y-98450400D01*
D16*
G36*
X131370001Y-52670113D02*
G01*
X131366565Y-52705000D01*
X131380273Y-52844184D01*
X131420872Y-52978020D01*
X131486800Y-53101363D01*
X131575525Y-53209475D01*
X131683637Y-53298200D01*
X131806980Y-53364128D01*
X131940816Y-53404727D01*
X132045123Y-53415000D01*
X132080000Y-53418435D01*
X132114877Y-53415000D01*
X132513209Y-53415000D01*
X132278047Y-53486336D01*
X132020067Y-53624229D01*
X131793947Y-53809801D01*
X131608375Y-54035921D01*
X131579081Y-54090726D01*
X131549787Y-54035921D01*
X131364215Y-53809801D01*
X131138095Y-53624229D01*
X130880115Y-53486336D01*
X130600192Y-53401422D01*
X130382031Y-53379935D01*
X130236131Y-53379935D01*
X130017970Y-53401422D01*
X129738047Y-53486336D01*
X129480067Y-53624229D01*
X129253947Y-53809801D01*
X129068375Y-54035921D01*
X129039081Y-54090726D01*
X129009787Y-54035921D01*
X128824215Y-53809801D01*
X128598095Y-53624229D01*
X128340115Y-53486336D01*
X128060192Y-53401422D01*
X127842031Y-53379935D01*
X127696131Y-53379935D01*
X127477970Y-53401422D01*
X127198047Y-53486336D01*
X126940067Y-53624229D01*
X126713947Y-53809801D01*
X126528375Y-54035921D01*
X126499081Y-54090726D01*
X126469787Y-54035921D01*
X126284215Y-53809801D01*
X126058095Y-53624229D01*
X125800115Y-53486336D01*
X125520192Y-53401422D01*
X125302031Y-53379935D01*
X125156131Y-53379935D01*
X124937970Y-53401422D01*
X124658047Y-53486336D01*
X124400067Y-53624229D01*
X124173947Y-53809801D01*
X123988375Y-54035921D01*
X123959081Y-54090726D01*
X123929787Y-54035921D01*
X123744215Y-53809801D01*
X123518095Y-53624229D01*
X123260115Y-53486336D01*
X122980192Y-53401422D01*
X122762031Y-53379935D01*
X122616131Y-53379935D01*
X122397970Y-53401422D01*
X122118047Y-53486336D01*
X121860067Y-53624229D01*
X121633947Y-53809801D01*
X121448375Y-54035921D01*
X121419081Y-54090726D01*
X121389787Y-54035921D01*
X121204215Y-53809801D01*
X120978095Y-53624229D01*
X120720115Y-53486336D01*
X120440192Y-53401422D01*
X120222031Y-53379935D01*
X120076131Y-53379935D01*
X119857970Y-53401422D01*
X119578047Y-53486336D01*
X119320067Y-53624229D01*
X119093947Y-53809801D01*
X118908375Y-54035921D01*
X118879081Y-54090726D01*
X118849787Y-54035921D01*
X118664215Y-53809801D01*
X118438095Y-53624229D01*
X118180115Y-53486336D01*
X117900192Y-53401422D01*
X117682031Y-53379935D01*
X117536131Y-53379935D01*
X117317970Y-53401422D01*
X117038047Y-53486336D01*
X116780067Y-53624229D01*
X116553947Y-53809801D01*
X116368375Y-54035921D01*
X116339081Y-54090726D01*
X116309787Y-54035921D01*
X116124215Y-53809801D01*
X115898095Y-53624229D01*
X115640115Y-53486336D01*
X115360192Y-53401422D01*
X115142031Y-53379935D01*
X114996131Y-53379935D01*
X114777970Y-53401422D01*
X114498047Y-53486336D01*
X114240067Y-53624229D01*
X114013947Y-53809801D01*
X113828375Y-54035921D01*
X113799081Y-54090726D01*
X113769787Y-54035921D01*
X113584215Y-53809801D01*
X113358095Y-53624229D01*
X113100115Y-53486336D01*
X112820192Y-53401422D01*
X112602031Y-53379935D01*
X112456131Y-53379935D01*
X112237970Y-53401422D01*
X111958047Y-53486336D01*
X111700067Y-53624229D01*
X111473947Y-53809801D01*
X111288375Y-54035921D01*
X111259081Y-54090726D01*
X111229787Y-54035921D01*
X111044215Y-53809801D01*
X110818095Y-53624229D01*
X110560115Y-53486336D01*
X110280192Y-53401422D01*
X110062031Y-53379935D01*
X109916131Y-53379935D01*
X109697970Y-53401422D01*
X109418047Y-53486336D01*
X109160067Y-53624229D01*
X108933947Y-53809801D01*
X108748375Y-54035921D01*
X108656221Y-54208329D01*
X108565584Y-53752664D01*
X108278378Y-53059288D01*
X107861420Y-52435267D01*
X107330733Y-51904580D01*
X106706712Y-51487622D01*
X106013336Y-51200416D01*
X105277252Y-51054000D01*
X104526748Y-51054000D01*
X103790664Y-51200416D01*
X103097288Y-51487622D01*
X102473267Y-51904580D01*
X101942580Y-52435267D01*
X101525622Y-53059288D01*
X101238416Y-53752664D01*
X101092000Y-54488748D01*
X101092000Y-55239252D01*
X101238416Y-55975336D01*
X101525622Y-56668712D01*
X101942580Y-57292733D01*
X102473267Y-57823420D01*
X103097288Y-58240378D01*
X103790664Y-58527584D01*
X104526748Y-58674000D01*
X105277252Y-58674000D01*
X106013336Y-58527584D01*
X106706712Y-58240378D01*
X107330733Y-57823420D01*
X107861420Y-57292733D01*
X108278378Y-56668712D01*
X108565584Y-55975336D01*
X108655950Y-55521034D01*
X108748375Y-55693949D01*
X108933947Y-55920069D01*
X108963768Y-55944542D01*
X108894901Y-55965433D01*
X108784587Y-56024398D01*
X108687896Y-56103750D01*
X108608544Y-56200441D01*
X108549579Y-56310755D01*
X108513269Y-56430453D01*
X108501009Y-56554935D01*
X108501009Y-58254935D01*
X108513269Y-58379417D01*
X108549579Y-58499115D01*
X108608544Y-58609429D01*
X108687896Y-58706120D01*
X108784587Y-58785472D01*
X108894901Y-58844437D01*
X108963768Y-58865328D01*
X108933947Y-58889801D01*
X108748375Y-59115921D01*
X108610482Y-59373901D01*
X108525568Y-59653824D01*
X108496896Y-59944935D01*
X108525568Y-60236046D01*
X108610482Y-60515969D01*
X108748375Y-60773949D01*
X108933947Y-61000069D01*
X108963768Y-61024542D01*
X108894901Y-61045433D01*
X108784587Y-61104398D01*
X108687896Y-61183750D01*
X108608544Y-61280441D01*
X108549579Y-61390755D01*
X108513269Y-61510453D01*
X108501009Y-61634935D01*
X108501009Y-63334935D01*
X108513269Y-63459417D01*
X108549579Y-63579115D01*
X108608544Y-63689429D01*
X108687896Y-63786120D01*
X108784587Y-63865472D01*
X108894901Y-63924437D01*
X109014599Y-63960747D01*
X109139081Y-63973007D01*
X110839081Y-63973007D01*
X110963563Y-63960747D01*
X111083261Y-63924437D01*
X111193575Y-63865472D01*
X111290266Y-63786120D01*
X111369618Y-63689429D01*
X111428583Y-63579115D01*
X111449474Y-63510248D01*
X111473947Y-63540069D01*
X111700067Y-63725641D01*
X111958047Y-63863534D01*
X112237970Y-63948448D01*
X112456131Y-63969935D01*
X112602031Y-63969935D01*
X112820192Y-63948448D01*
X113100115Y-63863534D01*
X113358095Y-63725641D01*
X113584215Y-63540069D01*
X113769787Y-63313949D01*
X113799081Y-63259144D01*
X113828375Y-63313949D01*
X114013947Y-63540069D01*
X114240067Y-63725641D01*
X114498047Y-63863534D01*
X114777970Y-63948448D01*
X114996131Y-63969935D01*
X115142031Y-63969935D01*
X115360192Y-63948448D01*
X115640115Y-63863534D01*
X115898095Y-63725641D01*
X116124215Y-63540069D01*
X116309787Y-63313949D01*
X116339081Y-63259144D01*
X116368375Y-63313949D01*
X116553947Y-63540069D01*
X116780067Y-63725641D01*
X117038047Y-63863534D01*
X117317970Y-63948448D01*
X117536131Y-63969935D01*
X117682031Y-63969935D01*
X117900192Y-63948448D01*
X118180115Y-63863534D01*
X118438095Y-63725641D01*
X118664215Y-63540069D01*
X118849787Y-63313949D01*
X118879081Y-63259144D01*
X118908375Y-63313949D01*
X119093947Y-63540069D01*
X119320067Y-63725641D01*
X119578047Y-63863534D01*
X119857970Y-63948448D01*
X120076131Y-63969935D01*
X120222031Y-63969935D01*
X120440192Y-63948448D01*
X120720115Y-63863534D01*
X120978095Y-63725641D01*
X121204215Y-63540069D01*
X121389787Y-63313949D01*
X121419081Y-63259144D01*
X121448375Y-63313949D01*
X121633947Y-63540069D01*
X121860067Y-63725641D01*
X122118047Y-63863534D01*
X122397970Y-63948448D01*
X122616131Y-63969935D01*
X122762031Y-63969935D01*
X122980192Y-63948448D01*
X123260115Y-63863534D01*
X123518095Y-63725641D01*
X123744215Y-63540069D01*
X123929787Y-63313949D01*
X123959081Y-63259144D01*
X123988375Y-63313949D01*
X124173947Y-63540069D01*
X124400067Y-63725641D01*
X124658047Y-63863534D01*
X124937970Y-63948448D01*
X125156131Y-63969935D01*
X125302031Y-63969935D01*
X125520192Y-63948448D01*
X125800115Y-63863534D01*
X126058095Y-63725641D01*
X126284215Y-63540069D01*
X126469787Y-63313949D01*
X126499081Y-63259144D01*
X126528375Y-63313949D01*
X126713947Y-63540069D01*
X126940067Y-63725641D01*
X127198047Y-63863534D01*
X127477970Y-63948448D01*
X127696131Y-63969935D01*
X127842031Y-63969935D01*
X128060192Y-63948448D01*
X128340115Y-63863534D01*
X128598095Y-63725641D01*
X128824215Y-63540069D01*
X129009787Y-63313949D01*
X129039081Y-63259144D01*
X129068375Y-63313949D01*
X129253947Y-63540069D01*
X129480067Y-63725641D01*
X129738047Y-63863534D01*
X130017970Y-63948448D01*
X130236131Y-63969935D01*
X130382031Y-63969935D01*
X130600192Y-63948448D01*
X130880115Y-63863534D01*
X131138095Y-63725641D01*
X131364215Y-63540069D01*
X131549787Y-63313949D01*
X131579081Y-63259144D01*
X131608375Y-63313949D01*
X131793947Y-63540069D01*
X132020067Y-63725641D01*
X132278047Y-63863534D01*
X132557970Y-63948448D01*
X132776131Y-63969935D01*
X132922031Y-63969935D01*
X133140192Y-63948448D01*
X133420115Y-63863534D01*
X133678095Y-63725641D01*
X133904215Y-63540069D01*
X134089787Y-63313949D01*
X134119081Y-63259144D01*
X134148375Y-63313949D01*
X134333947Y-63540069D01*
X134560067Y-63725641D01*
X134818047Y-63863534D01*
X135097970Y-63948448D01*
X135316131Y-63969935D01*
X135462031Y-63969935D01*
X135680192Y-63948448D01*
X135960115Y-63863534D01*
X136218095Y-63725641D01*
X136444215Y-63540069D01*
X136629787Y-63313949D01*
X136659081Y-63259144D01*
X136688375Y-63313949D01*
X136873947Y-63540069D01*
X137100067Y-63725641D01*
X137358047Y-63863534D01*
X137637970Y-63948448D01*
X137856131Y-63969935D01*
X138002031Y-63969935D01*
X138220192Y-63948448D01*
X138500115Y-63863534D01*
X138758095Y-63725641D01*
X138984215Y-63540069D01*
X139169787Y-63313949D01*
X139199081Y-63259144D01*
X139228375Y-63313949D01*
X139413947Y-63540069D01*
X139640067Y-63725641D01*
X139898047Y-63863534D01*
X140177970Y-63948448D01*
X140396131Y-63969935D01*
X140542031Y-63969935D01*
X140760192Y-63948448D01*
X141040115Y-63863534D01*
X141298095Y-63725641D01*
X141524215Y-63540069D01*
X141709787Y-63313949D01*
X141739081Y-63259144D01*
X141768375Y-63313949D01*
X141953947Y-63540069D01*
X142180067Y-63725641D01*
X142438047Y-63863534D01*
X142717970Y-63948448D01*
X142936131Y-63969935D01*
X143082031Y-63969935D01*
X143300192Y-63948448D01*
X143580115Y-63863534D01*
X143838095Y-63725641D01*
X144064215Y-63540069D01*
X144249787Y-63313949D01*
X144279081Y-63259144D01*
X144308375Y-63313949D01*
X144493947Y-63540069D01*
X144720067Y-63725641D01*
X144978047Y-63863534D01*
X145257970Y-63948448D01*
X145476131Y-63969935D01*
X145622031Y-63969935D01*
X145840192Y-63948448D01*
X146120115Y-63863534D01*
X146378095Y-63725641D01*
X146604215Y-63540069D01*
X146789787Y-63313949D01*
X146819081Y-63259144D01*
X146848375Y-63313949D01*
X147033947Y-63540069D01*
X147260067Y-63725641D01*
X147518047Y-63863534D01*
X147797970Y-63948448D01*
X148016131Y-63969935D01*
X148162031Y-63969935D01*
X148380192Y-63948448D01*
X148660115Y-63863534D01*
X148918095Y-63725641D01*
X149144215Y-63540069D01*
X149329787Y-63313949D01*
X149359081Y-63259144D01*
X149388375Y-63313949D01*
X149573947Y-63540069D01*
X149800067Y-63725641D01*
X150058047Y-63863534D01*
X150337970Y-63948448D01*
X150556131Y-63969935D01*
X150702031Y-63969935D01*
X150920192Y-63948448D01*
X151200115Y-63863534D01*
X151458095Y-63725641D01*
X151684215Y-63540069D01*
X151869787Y-63313949D01*
X151899081Y-63259144D01*
X151928375Y-63313949D01*
X152113947Y-63540069D01*
X152340067Y-63725641D01*
X152598047Y-63863534D01*
X152877970Y-63948448D01*
X153096131Y-63969935D01*
X153242031Y-63969935D01*
X153460192Y-63948448D01*
X153740115Y-63863534D01*
X153998095Y-63725641D01*
X154224215Y-63540069D01*
X154409787Y-63313949D01*
X154439081Y-63259144D01*
X154468375Y-63313949D01*
X154653947Y-63540069D01*
X154880067Y-63725641D01*
X155138047Y-63863534D01*
X155417970Y-63948448D01*
X155636131Y-63969935D01*
X155782031Y-63969935D01*
X156000192Y-63948448D01*
X156280115Y-63863534D01*
X156538095Y-63725641D01*
X156764215Y-63540069D01*
X156949787Y-63313949D01*
X156979081Y-63259144D01*
X157008375Y-63313949D01*
X157193947Y-63540069D01*
X157420067Y-63725641D01*
X157678047Y-63863534D01*
X157957970Y-63948448D01*
X158176131Y-63969935D01*
X158322031Y-63969935D01*
X158540192Y-63948448D01*
X158820115Y-63863534D01*
X159078095Y-63725641D01*
X159304215Y-63540069D01*
X159489787Y-63313949D01*
X159519081Y-63259144D01*
X159548375Y-63313949D01*
X159733947Y-63540069D01*
X159960067Y-63725641D01*
X160218047Y-63863534D01*
X160497970Y-63948448D01*
X160716131Y-63969935D01*
X160862031Y-63969935D01*
X161080192Y-63948448D01*
X161360115Y-63863534D01*
X161618095Y-63725641D01*
X161844215Y-63540069D01*
X162029787Y-63313949D01*
X162059081Y-63259144D01*
X162088375Y-63313949D01*
X162273947Y-63540069D01*
X162500067Y-63725641D01*
X162758047Y-63863534D01*
X163037970Y-63948448D01*
X163256131Y-63969935D01*
X163402031Y-63969935D01*
X163620192Y-63948448D01*
X163900115Y-63863534D01*
X164158095Y-63725641D01*
X164384215Y-63540069D01*
X164569787Y-63313949D01*
X164599081Y-63259144D01*
X164628375Y-63313949D01*
X164813947Y-63540069D01*
X165040067Y-63725641D01*
X165298047Y-63863534D01*
X165577970Y-63948448D01*
X165796131Y-63969935D01*
X165942031Y-63969935D01*
X166160192Y-63948448D01*
X166440115Y-63863534D01*
X166698095Y-63725641D01*
X166924215Y-63540069D01*
X167109787Y-63313949D01*
X167139081Y-63259144D01*
X167168375Y-63313949D01*
X167353947Y-63540069D01*
X167580067Y-63725641D01*
X167838047Y-63863534D01*
X168117970Y-63948448D01*
X168336131Y-63969935D01*
X168482031Y-63969935D01*
X168700192Y-63948448D01*
X168980115Y-63863534D01*
X169238095Y-63725641D01*
X169464215Y-63540069D01*
X169649787Y-63313949D01*
X169679081Y-63259144D01*
X169708375Y-63313949D01*
X169893947Y-63540069D01*
X170120067Y-63725641D01*
X170378047Y-63863534D01*
X170657970Y-63948448D01*
X170876131Y-63969935D01*
X171022031Y-63969935D01*
X171240192Y-63948448D01*
X171520115Y-63863534D01*
X171778095Y-63725641D01*
X172004215Y-63540069D01*
X172189787Y-63313949D01*
X172219081Y-63259144D01*
X172248375Y-63313949D01*
X172433947Y-63540069D01*
X172660067Y-63725641D01*
X172918047Y-63863534D01*
X173197970Y-63948448D01*
X173416131Y-63969935D01*
X173562031Y-63969935D01*
X173780192Y-63948448D01*
X174060115Y-63863534D01*
X174318095Y-63725641D01*
X174544215Y-63540069D01*
X174729787Y-63313949D01*
X174867680Y-63055969D01*
X174952594Y-62776046D01*
X174981266Y-62484935D01*
X174952594Y-62193824D01*
X174867680Y-61913901D01*
X174729787Y-61655921D01*
X174544215Y-61429801D01*
X174318095Y-61244229D01*
X174263290Y-61214935D01*
X174318095Y-61185641D01*
X174544215Y-61000069D01*
X174729787Y-60773949D01*
X174867680Y-60515969D01*
X174952594Y-60236046D01*
X174981266Y-59944935D01*
X174952594Y-59653824D01*
X174867680Y-59373901D01*
X174729787Y-59115921D01*
X174544215Y-58889801D01*
X174318095Y-58704229D01*
X174263290Y-58674935D01*
X174318095Y-58645641D01*
X174544215Y-58460069D01*
X174729787Y-58233949D01*
X174867680Y-57975969D01*
X174952594Y-57696046D01*
X174981266Y-57404935D01*
X174952594Y-57113824D01*
X174867680Y-56833901D01*
X174729787Y-56575921D01*
X174544215Y-56349801D01*
X174318095Y-56164229D01*
X174263290Y-56134935D01*
X174318095Y-56105641D01*
X174544215Y-55920069D01*
X174729787Y-55693949D01*
X174811891Y-55540344D01*
X174898416Y-55975336D01*
X175185622Y-56668712D01*
X175602580Y-57292733D01*
X176133267Y-57823420D01*
X176757288Y-58240378D01*
X177450664Y-58527584D01*
X178186748Y-58674000D01*
X178937252Y-58674000D01*
X179673336Y-58527584D01*
X180366712Y-58240378D01*
X180900000Y-57884046D01*
X180900001Y-72736113D01*
X180896565Y-72771000D01*
X180910273Y-72910184D01*
X180950872Y-73044020D01*
X181016800Y-73167363D01*
X181105525Y-73275475D01*
X181213637Y-73364200D01*
X181336980Y-73430128D01*
X181470816Y-73470727D01*
X181575123Y-73481000D01*
X181610000Y-73484435D01*
X181644877Y-73481000D01*
X185472000Y-73481000D01*
X185472001Y-144959000D01*
X153110000Y-144959000D01*
X153110000Y-142782877D01*
X153113435Y-142748000D01*
X153099727Y-142608816D01*
X153059128Y-142474980D01*
X152993200Y-142351637D01*
X152904475Y-142243525D01*
X152796363Y-142154800D01*
X152673020Y-142088872D01*
X152539184Y-142048273D01*
X152434877Y-142038000D01*
X152400000Y-142034565D01*
X152365123Y-142038000D01*
X132114877Y-142038000D01*
X132080000Y-142034565D01*
X132045123Y-142038000D01*
X131940816Y-142048273D01*
X131806980Y-142088872D01*
X131683637Y-142154800D01*
X131575525Y-142243525D01*
X131486800Y-142351637D01*
X131420872Y-142474980D01*
X131380273Y-142608816D01*
X131366565Y-142748000D01*
X131370001Y-142782887D01*
X131370000Y-144959000D01*
X96722000Y-144959000D01*
X96722000Y-140213748D01*
X97282000Y-140213748D01*
X97282000Y-140964252D01*
X97428416Y-141700336D01*
X97715622Y-142393712D01*
X98132580Y-143017733D01*
X98663267Y-143548420D01*
X99287288Y-143965378D01*
X99980664Y-144252584D01*
X100716748Y-144399000D01*
X101467252Y-144399000D01*
X102203336Y-144252584D01*
X102896712Y-143965378D01*
X103520733Y-143548420D01*
X104051420Y-143017733D01*
X104468378Y-142393712D01*
X104755584Y-141700336D01*
X104902000Y-140964252D01*
X104902000Y-140213748D01*
X177292000Y-140213748D01*
X177292000Y-140964252D01*
X177438416Y-141700336D01*
X177725622Y-142393712D01*
X178142580Y-143017733D01*
X178673267Y-143548420D01*
X179297288Y-143965378D01*
X179990664Y-144252584D01*
X180726748Y-144399000D01*
X181477252Y-144399000D01*
X182213336Y-144252584D01*
X182906712Y-143965378D01*
X183530733Y-143548420D01*
X184061420Y-143017733D01*
X184478378Y-142393712D01*
X184765584Y-141700336D01*
X184912000Y-140964252D01*
X184912000Y-140213748D01*
X184765584Y-139477664D01*
X184478378Y-138784288D01*
X184061420Y-138160267D01*
X183530733Y-137629580D01*
X182906712Y-137212622D01*
X182213336Y-136925416D01*
X181477252Y-136779000D01*
X180726748Y-136779000D01*
X179990664Y-136925416D01*
X179297288Y-137212622D01*
X178673267Y-137629580D01*
X178142580Y-138160267D01*
X177725622Y-138784288D01*
X177438416Y-139477664D01*
X177292000Y-140213748D01*
X104902000Y-140213748D01*
X104755584Y-139477664D01*
X104468378Y-138784288D01*
X104051420Y-138160267D01*
X103520733Y-137629580D01*
X102896712Y-137212622D01*
X102203336Y-136925416D01*
X101467252Y-136779000D01*
X100716748Y-136779000D01*
X99980664Y-136925416D01*
X99287288Y-137212622D01*
X98663267Y-137629580D01*
X98132580Y-138160267D01*
X97715622Y-138784288D01*
X97428416Y-139477664D01*
X97282000Y-140213748D01*
X96722000Y-140213748D01*
X96722000Y-108583800D01*
X97882123Y-108583800D01*
X97917000Y-108587235D01*
X97951877Y-108583800D01*
X98056184Y-108573527D01*
X98190020Y-108532928D01*
X98313363Y-108467000D01*
X98421475Y-108378275D01*
X98510200Y-108270163D01*
X98576128Y-108146820D01*
X98616727Y-108012984D01*
X98630435Y-107873800D01*
X98627000Y-107838923D01*
X98627000Y-101777461D01*
X130892600Y-101777461D01*
X130892600Y-101981339D01*
X130932374Y-102181298D01*
X131010395Y-102369656D01*
X131123663Y-102539174D01*
X131267826Y-102683337D01*
X131437344Y-102796605D01*
X131625702Y-102874626D01*
X131825661Y-102914400D01*
X132029539Y-102914400D01*
X132229498Y-102874626D01*
X132417856Y-102796605D01*
X132587374Y-102683337D01*
X132731537Y-102539174D01*
X132844805Y-102369656D01*
X132922826Y-102181298D01*
X132962600Y-101981339D01*
X132962600Y-101777461D01*
X132922826Y-101577502D01*
X132844805Y-101389144D01*
X132731537Y-101219626D01*
X132687600Y-101175689D01*
X132687600Y-99357085D01*
X132841374Y-99254337D01*
X132985537Y-99110174D01*
X133098805Y-98940656D01*
X133176826Y-98752298D01*
X133216600Y-98552339D01*
X133216600Y-98348461D01*
X133176826Y-98148502D01*
X133098805Y-97960144D01*
X132985537Y-97790626D01*
X132841374Y-97646463D01*
X132671856Y-97533195D01*
X132483498Y-97455174D01*
X132283539Y-97415400D01*
X132079661Y-97415400D01*
X131879702Y-97455174D01*
X131691344Y-97533195D01*
X131521826Y-97646463D01*
X131377663Y-97790626D01*
X131264395Y-97960144D01*
X131186374Y-98148502D01*
X131146600Y-98348461D01*
X131146600Y-98552339D01*
X131168204Y-98660949D01*
X131163924Y-98704400D01*
X131167601Y-98741732D01*
X131167600Y-101175689D01*
X131123663Y-101219626D01*
X131010395Y-101389144D01*
X130932374Y-101577502D01*
X130892600Y-101777461D01*
X98627000Y-101777461D01*
X98627000Y-94935740D01*
X114743300Y-94935740D01*
X114743300Y-95208660D01*
X114796544Y-95476335D01*
X114900986Y-95728480D01*
X115052612Y-95955405D01*
X115245595Y-96148388D01*
X115472520Y-96300014D01*
X115724665Y-96404456D01*
X115992340Y-96457700D01*
X116265260Y-96457700D01*
X116532935Y-96404456D01*
X116785080Y-96300014D01*
X117012005Y-96148388D01*
X117204988Y-95955405D01*
X117356614Y-95728480D01*
X117398800Y-95626634D01*
X117440986Y-95728480D01*
X117592612Y-95955405D01*
X117785595Y-96148388D01*
X118012520Y-96300014D01*
X118264665Y-96404456D01*
X118532340Y-96457700D01*
X118805260Y-96457700D01*
X119072935Y-96404456D01*
X119325080Y-96300014D01*
X119552005Y-96148388D01*
X119744988Y-95955405D01*
X119896614Y-95728480D01*
X119938800Y-95626634D01*
X119980986Y-95728480D01*
X120132612Y-95955405D01*
X120325595Y-96148388D01*
X120552520Y-96300014D01*
X120804665Y-96404456D01*
X121072340Y-96457700D01*
X121345260Y-96457700D01*
X121612935Y-96404456D01*
X121865080Y-96300014D01*
X122092005Y-96148388D01*
X122284988Y-95955405D01*
X122436614Y-95728480D01*
X122541056Y-95476335D01*
X122594300Y-95208660D01*
X122594300Y-94935740D01*
X122541056Y-94668065D01*
X122436614Y-94415920D01*
X122284988Y-94188995D01*
X122092005Y-93996012D01*
X121865080Y-93844386D01*
X121612935Y-93739944D01*
X121345260Y-93686700D01*
X121072340Y-93686700D01*
X120804665Y-93739944D01*
X120552520Y-93844386D01*
X120325595Y-93996012D01*
X120132612Y-94188995D01*
X119980986Y-94415920D01*
X119938800Y-94517766D01*
X119896614Y-94415920D01*
X119744988Y-94188995D01*
X119552005Y-93996012D01*
X119325080Y-93844386D01*
X119072935Y-93739944D01*
X118805260Y-93686700D01*
X118532340Y-93686700D01*
X118264665Y-93739944D01*
X118012520Y-93844386D01*
X117785595Y-93996012D01*
X117592612Y-94188995D01*
X117440986Y-94415920D01*
X117398800Y-94517766D01*
X117356614Y-94415920D01*
X117204988Y-94188995D01*
X117012005Y-93996012D01*
X116785080Y-93844386D01*
X116532935Y-93739944D01*
X116265260Y-93686700D01*
X115992340Y-93686700D01*
X115724665Y-93739944D01*
X115472520Y-93844386D01*
X115245595Y-93996012D01*
X115052612Y-94188995D01*
X114900986Y-94415920D01*
X114796544Y-94668065D01*
X114743300Y-94935740D01*
X98627000Y-94935740D01*
X98627000Y-87614077D01*
X98630435Y-87579200D01*
X98616727Y-87440016D01*
X98576128Y-87306180D01*
X98510200Y-87182837D01*
X98421475Y-87074725D01*
X98313363Y-86986000D01*
X98190020Y-86920072D01*
X98056184Y-86879473D01*
X97951877Y-86869200D01*
X97917000Y-86865765D01*
X97882123Y-86869200D01*
X96722000Y-86869200D01*
X96722000Y-50494000D01*
X131370000Y-50494000D01*
X131370001Y-52670113D01*
X131370001Y-52670113D01*
G37*
X131370001Y-52670113D02*
X131366565Y-52705000D01*
X131380273Y-52844184D01*
X131420872Y-52978020D01*
X131486800Y-53101363D01*
X131575525Y-53209475D01*
X131683637Y-53298200D01*
X131806980Y-53364128D01*
X131940816Y-53404727D01*
X132045123Y-53415000D01*
X132080000Y-53418435D01*
X132114877Y-53415000D01*
X132513209Y-53415000D01*
X132278047Y-53486336D01*
X132020067Y-53624229D01*
X131793947Y-53809801D01*
X131608375Y-54035921D01*
X131579081Y-54090726D01*
X131549787Y-54035921D01*
X131364215Y-53809801D01*
X131138095Y-53624229D01*
X130880115Y-53486336D01*
X130600192Y-53401422D01*
X130382031Y-53379935D01*
X130236131Y-53379935D01*
X130017970Y-53401422D01*
X129738047Y-53486336D01*
X129480067Y-53624229D01*
X129253947Y-53809801D01*
X129068375Y-54035921D01*
X129039081Y-54090726D01*
X129009787Y-54035921D01*
X128824215Y-53809801D01*
X128598095Y-53624229D01*
X128340115Y-53486336D01*
X128060192Y-53401422D01*
X127842031Y-53379935D01*
X127696131Y-53379935D01*
X127477970Y-53401422D01*
X127198047Y-53486336D01*
X126940067Y-53624229D01*
X126713947Y-53809801D01*
X126528375Y-54035921D01*
X126499081Y-54090726D01*
X126469787Y-54035921D01*
X126284215Y-53809801D01*
X126058095Y-53624229D01*
X125800115Y-53486336D01*
X125520192Y-53401422D01*
X125302031Y-53379935D01*
X125156131Y-53379935D01*
X124937970Y-53401422D01*
X124658047Y-53486336D01*
X124400067Y-53624229D01*
X124173947Y-53809801D01*
X123988375Y-54035921D01*
X123959081Y-54090726D01*
X123929787Y-54035921D01*
X123744215Y-53809801D01*
X123518095Y-53624229D01*
X123260115Y-53486336D01*
X122980192Y-53401422D01*
X122762031Y-53379935D01*
X122616131Y-53379935D01*
X122397970Y-53401422D01*
X122118047Y-53486336D01*
X121860067Y-53624229D01*
X121633947Y-53809801D01*
X121448375Y-54035921D01*
X121419081Y-54090726D01*
X121389787Y-54035921D01*
X121204215Y-53809801D01*
X120978095Y-53624229D01*
X120720115Y-53486336D01*
X120440192Y-53401422D01*
X120222031Y-53379935D01*
X120076131Y-53379935D01*
X119857970Y-53401422D01*
X119578047Y-53486336D01*
X119320067Y-53624229D01*
X119093947Y-53809801D01*
X118908375Y-54035921D01*
X118879081Y-54090726D01*
X118849787Y-54035921D01*
X118664215Y-53809801D01*
X118438095Y-53624229D01*
X118180115Y-53486336D01*
X117900192Y-53401422D01*
X117682031Y-53379935D01*
X117536131Y-53379935D01*
X117317970Y-53401422D01*
X117038047Y-53486336D01*
X116780067Y-53624229D01*
X116553947Y-53809801D01*
X116368375Y-54035921D01*
X116339081Y-54090726D01*
X116309787Y-54035921D01*
X116124215Y-53809801D01*
X115898095Y-53624229D01*
X115640115Y-53486336D01*
X115360192Y-53401422D01*
X115142031Y-53379935D01*
X114996131Y-53379935D01*
X114777970Y-53401422D01*
X114498047Y-53486336D01*
X114240067Y-53624229D01*
X114013947Y-53809801D01*
X113828375Y-54035921D01*
X113799081Y-54090726D01*
X113769787Y-54035921D01*
X113584215Y-53809801D01*
X113358095Y-53624229D01*
X113100115Y-53486336D01*
X112820192Y-53401422D01*
X112602031Y-53379935D01*
X112456131Y-53379935D01*
X112237970Y-53401422D01*
X111958047Y-53486336D01*
X111700067Y-53624229D01*
X111473947Y-53809801D01*
X111288375Y-54035921D01*
X111259081Y-54090726D01*
X111229787Y-54035921D01*
X111044215Y-53809801D01*
X110818095Y-53624229D01*
X110560115Y-53486336D01*
X110280192Y-53401422D01*
X110062031Y-53379935D01*
X109916131Y-53379935D01*
X109697970Y-53401422D01*
X109418047Y-53486336D01*
X109160067Y-53624229D01*
X108933947Y-53809801D01*
X108748375Y-54035921D01*
X108656221Y-54208329D01*
X108565584Y-53752664D01*
X108278378Y-53059288D01*
X107861420Y-52435267D01*
X107330733Y-51904580D01*
X106706712Y-51487622D01*
X106013336Y-51200416D01*
X105277252Y-51054000D01*
X104526748Y-51054000D01*
X103790664Y-51200416D01*
X103097288Y-51487622D01*
X102473267Y-51904580D01*
X101942580Y-52435267D01*
X101525622Y-53059288D01*
X101238416Y-53752664D01*
X101092000Y-54488748D01*
X101092000Y-55239252D01*
X101238416Y-55975336D01*
X101525622Y-56668712D01*
X101942580Y-57292733D01*
X102473267Y-57823420D01*
X103097288Y-58240378D01*
X103790664Y-58527584D01*
X104526748Y-58674000D01*
X105277252Y-58674000D01*
X106013336Y-58527584D01*
X106706712Y-58240378D01*
X107330733Y-57823420D01*
X107861420Y-57292733D01*
X108278378Y-56668712D01*
X108565584Y-55975336D01*
X108655950Y-55521034D01*
X108748375Y-55693949D01*
X108933947Y-55920069D01*
X108963768Y-55944542D01*
X108894901Y-55965433D01*
X108784587Y-56024398D01*
X108687896Y-56103750D01*
X108608544Y-56200441D01*
X108549579Y-56310755D01*
X108513269Y-56430453D01*
X108501009Y-56554935D01*
X108501009Y-58254935D01*
X108513269Y-58379417D01*
X108549579Y-58499115D01*
X108608544Y-58609429D01*
X108687896Y-58706120D01*
X108784587Y-58785472D01*
X108894901Y-58844437D01*
X108963768Y-58865328D01*
X108933947Y-58889801D01*
X108748375Y-59115921D01*
X108610482Y-59373901D01*
X108525568Y-59653824D01*
X108496896Y-59944935D01*
X108525568Y-60236046D01*
X108610482Y-60515969D01*
X108748375Y-60773949D01*
X108933947Y-61000069D01*
X108963768Y-61024542D01*
X108894901Y-61045433D01*
X108784587Y-61104398D01*
X108687896Y-61183750D01*
X108608544Y-61280441D01*
X108549579Y-61390755D01*
X108513269Y-61510453D01*
X108501009Y-61634935D01*
X108501009Y-63334935D01*
X108513269Y-63459417D01*
X108549579Y-63579115D01*
X108608544Y-63689429D01*
X108687896Y-63786120D01*
X108784587Y-63865472D01*
X108894901Y-63924437D01*
X109014599Y-63960747D01*
X109139081Y-63973007D01*
X110839081Y-63973007D01*
X110963563Y-63960747D01*
X111083261Y-63924437D01*
X111193575Y-63865472D01*
X111290266Y-63786120D01*
X111369618Y-63689429D01*
X111428583Y-63579115D01*
X111449474Y-63510248D01*
X111473947Y-63540069D01*
X111700067Y-63725641D01*
X111958047Y-63863534D01*
X112237970Y-63948448D01*
X112456131Y-63969935D01*
X112602031Y-63969935D01*
X112820192Y-63948448D01*
X113100115Y-63863534D01*
X113358095Y-63725641D01*
X113584215Y-63540069D01*
X113769787Y-63313949D01*
X113799081Y-63259144D01*
X113828375Y-63313949D01*
X114013947Y-63540069D01*
X114240067Y-63725641D01*
X114498047Y-63863534D01*
X114777970Y-63948448D01*
X114996131Y-63969935D01*
X115142031Y-63969935D01*
X115360192Y-63948448D01*
X115640115Y-63863534D01*
X115898095Y-63725641D01*
X116124215Y-63540069D01*
X116309787Y-63313949D01*
X116339081Y-63259144D01*
X116368375Y-63313949D01*
X116553947Y-63540069D01*
X116780067Y-63725641D01*
X117038047Y-63863534D01*
X117317970Y-63948448D01*
X117536131Y-63969935D01*
X117682031Y-63969935D01*
X117900192Y-63948448D01*
X118180115Y-63863534D01*
X118438095Y-63725641D01*
X118664215Y-63540069D01*
X118849787Y-63313949D01*
X118879081Y-63259144D01*
X118908375Y-63313949D01*
X119093947Y-63540069D01*
X119320067Y-63725641D01*
X119578047Y-63863534D01*
X119857970Y-63948448D01*
X120076131Y-63969935D01*
X120222031Y-63969935D01*
X120440192Y-63948448D01*
X120720115Y-63863534D01*
X120978095Y-63725641D01*
X121204215Y-63540069D01*
X121389787Y-63313949D01*
X121419081Y-63259144D01*
X121448375Y-63313949D01*
X121633947Y-63540069D01*
X121860067Y-63725641D01*
X122118047Y-63863534D01*
X122397970Y-63948448D01*
X122616131Y-63969935D01*
X122762031Y-63969935D01*
X122980192Y-63948448D01*
X123260115Y-63863534D01*
X123518095Y-63725641D01*
X123744215Y-63540069D01*
X123929787Y-63313949D01*
X123959081Y-63259144D01*
X123988375Y-63313949D01*
X124173947Y-63540069D01*
X124400067Y-63725641D01*
X124658047Y-63863534D01*
X124937970Y-63948448D01*
X125156131Y-63969935D01*
X125302031Y-63969935D01*
X125520192Y-63948448D01*
X125800115Y-63863534D01*
X126058095Y-63725641D01*
X126284215Y-63540069D01*
X126469787Y-63313949D01*
X126499081Y-63259144D01*
X126528375Y-63313949D01*
X126713947Y-63540069D01*
X126940067Y-63725641D01*
X127198047Y-63863534D01*
X127477970Y-63948448D01*
X127696131Y-63969935D01*
X127842031Y-63969935D01*
X128060192Y-63948448D01*
X128340115Y-63863534D01*
X128598095Y-63725641D01*
X128824215Y-63540069D01*
X129009787Y-63313949D01*
X129039081Y-63259144D01*
X129068375Y-63313949D01*
X129253947Y-63540069D01*
X129480067Y-63725641D01*
X129738047Y-63863534D01*
X130017970Y-63948448D01*
X130236131Y-63969935D01*
X130382031Y-63969935D01*
X130600192Y-63948448D01*
X130880115Y-63863534D01*
X131138095Y-63725641D01*
X131364215Y-63540069D01*
X131549787Y-63313949D01*
X131579081Y-63259144D01*
X131608375Y-63313949D01*
X131793947Y-63540069D01*
X132020067Y-63725641D01*
X132278047Y-63863534D01*
X132557970Y-63948448D01*
X132776131Y-63969935D01*
X132922031Y-63969935D01*
X133140192Y-63948448D01*
X133420115Y-63863534D01*
X133678095Y-63725641D01*
X133904215Y-63540069D01*
X134089787Y-63313949D01*
X134119081Y-63259144D01*
X134148375Y-63313949D01*
X134333947Y-63540069D01*
X134560067Y-63725641D01*
X134818047Y-63863534D01*
X135097970Y-63948448D01*
X135316131Y-63969935D01*
X135462031Y-63969935D01*
X135680192Y-63948448D01*
X135960115Y-63863534D01*
X136218095Y-63725641D01*
X136444215Y-63540069D01*
X136629787Y-63313949D01*
X136659081Y-63259144D01*
X136688375Y-63313949D01*
X136873947Y-63540069D01*
X137100067Y-63725641D01*
X137358047Y-63863534D01*
X137637970Y-63948448D01*
X137856131Y-63969935D01*
X138002031Y-63969935D01*
X138220192Y-63948448D01*
X138500115Y-63863534D01*
X138758095Y-63725641D01*
X138984215Y-63540069D01*
X139169787Y-63313949D01*
X139199081Y-63259144D01*
X139228375Y-63313949D01*
X139413947Y-63540069D01*
X139640067Y-63725641D01*
X139898047Y-63863534D01*
X140177970Y-63948448D01*
X140396131Y-63969935D01*
X140542031Y-63969935D01*
X140760192Y-63948448D01*
X141040115Y-63863534D01*
X141298095Y-63725641D01*
X141524215Y-63540069D01*
X141709787Y-63313949D01*
X141739081Y-63259144D01*
X141768375Y-63313949D01*
X141953947Y-63540069D01*
X142180067Y-63725641D01*
X142438047Y-63863534D01*
X142717970Y-63948448D01*
X142936131Y-63969935D01*
X143082031Y-63969935D01*
X143300192Y-63948448D01*
X143580115Y-63863534D01*
X143838095Y-63725641D01*
X144064215Y-63540069D01*
X144249787Y-63313949D01*
X144279081Y-63259144D01*
X144308375Y-63313949D01*
X144493947Y-63540069D01*
X144720067Y-63725641D01*
X144978047Y-63863534D01*
X145257970Y-63948448D01*
X145476131Y-63969935D01*
X145622031Y-63969935D01*
X145840192Y-63948448D01*
X146120115Y-63863534D01*
X146378095Y-63725641D01*
X146604215Y-63540069D01*
X146789787Y-63313949D01*
X146819081Y-63259144D01*
X146848375Y-63313949D01*
X147033947Y-63540069D01*
X147260067Y-63725641D01*
X147518047Y-63863534D01*
X147797970Y-63948448D01*
X148016131Y-63969935D01*
X148162031Y-63969935D01*
X148380192Y-63948448D01*
X148660115Y-63863534D01*
X148918095Y-63725641D01*
X149144215Y-63540069D01*
X149329787Y-63313949D01*
X149359081Y-63259144D01*
X149388375Y-63313949D01*
X149573947Y-63540069D01*
X149800067Y-63725641D01*
X150058047Y-63863534D01*
X150337970Y-63948448D01*
X150556131Y-63969935D01*
X150702031Y-63969935D01*
X150920192Y-63948448D01*
X151200115Y-63863534D01*
X151458095Y-63725641D01*
X151684215Y-63540069D01*
X151869787Y-63313949D01*
X151899081Y-63259144D01*
X151928375Y-63313949D01*
X152113947Y-63540069D01*
X152340067Y-63725641D01*
X152598047Y-63863534D01*
X152877970Y-63948448D01*
X153096131Y-63969935D01*
X153242031Y-63969935D01*
X153460192Y-63948448D01*
X153740115Y-63863534D01*
X153998095Y-63725641D01*
X154224215Y-63540069D01*
X154409787Y-63313949D01*
X154439081Y-63259144D01*
X154468375Y-63313949D01*
X154653947Y-63540069D01*
X154880067Y-63725641D01*
X155138047Y-63863534D01*
X155417970Y-63948448D01*
X155636131Y-63969935D01*
X155782031Y-63969935D01*
X156000192Y-63948448D01*
X156280115Y-63863534D01*
X156538095Y-63725641D01*
X156764215Y-63540069D01*
X156949787Y-63313949D01*
X156979081Y-63259144D01*
X157008375Y-63313949D01*
X157193947Y-63540069D01*
X157420067Y-63725641D01*
X157678047Y-63863534D01*
X157957970Y-63948448D01*
X158176131Y-63969935D01*
X158322031Y-63969935D01*
X158540192Y-63948448D01*
X158820115Y-63863534D01*
X159078095Y-63725641D01*
X159304215Y-63540069D01*
X159489787Y-63313949D01*
X159519081Y-63259144D01*
X159548375Y-63313949D01*
X159733947Y-63540069D01*
X159960067Y-63725641D01*
X160218047Y-63863534D01*
X160497970Y-63948448D01*
X160716131Y-63969935D01*
X160862031Y-63969935D01*
X161080192Y-63948448D01*
X161360115Y-63863534D01*
X161618095Y-63725641D01*
X161844215Y-63540069D01*
X162029787Y-63313949D01*
X162059081Y-63259144D01*
X162088375Y-63313949D01*
X162273947Y-63540069D01*
X162500067Y-63725641D01*
X162758047Y-63863534D01*
X163037970Y-63948448D01*
X163256131Y-63969935D01*
X163402031Y-63969935D01*
X163620192Y-63948448D01*
X163900115Y-63863534D01*
X164158095Y-63725641D01*
X164384215Y-63540069D01*
X164569787Y-63313949D01*
X164599081Y-63259144D01*
X164628375Y-63313949D01*
X164813947Y-63540069D01*
X165040067Y-63725641D01*
X165298047Y-63863534D01*
X165577970Y-63948448D01*
X165796131Y-63969935D01*
X165942031Y-63969935D01*
X166160192Y-63948448D01*
X166440115Y-63863534D01*
X166698095Y-63725641D01*
X166924215Y-63540069D01*
X167109787Y-63313949D01*
X167139081Y-63259144D01*
X167168375Y-63313949D01*
X167353947Y-63540069D01*
X167580067Y-63725641D01*
X167838047Y-63863534D01*
X168117970Y-63948448D01*
X168336131Y-63969935D01*
X168482031Y-63969935D01*
X168700192Y-63948448D01*
X168980115Y-63863534D01*
X169238095Y-63725641D01*
X169464215Y-63540069D01*
X169649787Y-63313949D01*
X169679081Y-63259144D01*
X169708375Y-63313949D01*
X169893947Y-63540069D01*
X170120067Y-63725641D01*
X170378047Y-63863534D01*
X170657970Y-63948448D01*
X170876131Y-63969935D01*
X171022031Y-63969935D01*
X171240192Y-63948448D01*
X171520115Y-63863534D01*
X171778095Y-63725641D01*
X172004215Y-63540069D01*
X172189787Y-63313949D01*
X172219081Y-63259144D01*
X172248375Y-63313949D01*
X172433947Y-63540069D01*
X172660067Y-63725641D01*
X172918047Y-63863534D01*
X173197970Y-63948448D01*
X173416131Y-63969935D01*
X173562031Y-63969935D01*
X173780192Y-63948448D01*
X174060115Y-63863534D01*
X174318095Y-63725641D01*
X174544215Y-63540069D01*
X174729787Y-63313949D01*
X174867680Y-63055969D01*
X174952594Y-62776046D01*
X174981266Y-62484935D01*
X174952594Y-62193824D01*
X174867680Y-61913901D01*
X174729787Y-61655921D01*
X174544215Y-61429801D01*
X174318095Y-61244229D01*
X174263290Y-61214935D01*
X174318095Y-61185641D01*
X174544215Y-61000069D01*
X174729787Y-60773949D01*
X174867680Y-60515969D01*
X174952594Y-60236046D01*
X174981266Y-59944935D01*
X174952594Y-59653824D01*
X174867680Y-59373901D01*
X174729787Y-59115921D01*
X174544215Y-58889801D01*
X174318095Y-58704229D01*
X174263290Y-58674935D01*
X174318095Y-58645641D01*
X174544215Y-58460069D01*
X174729787Y-58233949D01*
X174867680Y-57975969D01*
X174952594Y-57696046D01*
X174981266Y-57404935D01*
X174952594Y-57113824D01*
X174867680Y-56833901D01*
X174729787Y-56575921D01*
X174544215Y-56349801D01*
X174318095Y-56164229D01*
X174263290Y-56134935D01*
X174318095Y-56105641D01*
X174544215Y-55920069D01*
X174729787Y-55693949D01*
X174811891Y-55540344D01*
X174898416Y-55975336D01*
X175185622Y-56668712D01*
X175602580Y-57292733D01*
X176133267Y-57823420D01*
X176757288Y-58240378D01*
X177450664Y-58527584D01*
X178186748Y-58674000D01*
X178937252Y-58674000D01*
X179673336Y-58527584D01*
X180366712Y-58240378D01*
X180900000Y-57884046D01*
X180900001Y-72736113D01*
X180896565Y-72771000D01*
X180910273Y-72910184D01*
X180950872Y-73044020D01*
X181016800Y-73167363D01*
X181105525Y-73275475D01*
X181213637Y-73364200D01*
X181336980Y-73430128D01*
X181470816Y-73470727D01*
X181575123Y-73481000D01*
X181610000Y-73484435D01*
X181644877Y-73481000D01*
X185472000Y-73481000D01*
X185472001Y-144959000D01*
X153110000Y-144959000D01*
X153110000Y-142782877D01*
X153113435Y-142748000D01*
X153099727Y-142608816D01*
X153059128Y-142474980D01*
X152993200Y-142351637D01*
X152904475Y-142243525D01*
X152796363Y-142154800D01*
X152673020Y-142088872D01*
X152539184Y-142048273D01*
X152434877Y-142038000D01*
X152400000Y-142034565D01*
X152365123Y-142038000D01*
X132114877Y-142038000D01*
X132080000Y-142034565D01*
X132045123Y-142038000D01*
X131940816Y-142048273D01*
X131806980Y-142088872D01*
X131683637Y-142154800D01*
X131575525Y-142243525D01*
X131486800Y-142351637D01*
X131420872Y-142474980D01*
X131380273Y-142608816D01*
X131366565Y-142748000D01*
X131370001Y-142782887D01*
X131370000Y-144959000D01*
X96722000Y-144959000D01*
X96722000Y-140213748D01*
X97282000Y-140213748D01*
X97282000Y-140964252D01*
X97428416Y-141700336D01*
X97715622Y-142393712D01*
X98132580Y-143017733D01*
X98663267Y-143548420D01*
X99287288Y-143965378D01*
X99980664Y-144252584D01*
X100716748Y-144399000D01*
X101467252Y-144399000D01*
X102203336Y-144252584D01*
X102896712Y-143965378D01*
X103520733Y-143548420D01*
X104051420Y-143017733D01*
X104468378Y-142393712D01*
X104755584Y-141700336D01*
X104902000Y-140964252D01*
X104902000Y-140213748D01*
X177292000Y-140213748D01*
X177292000Y-140964252D01*
X177438416Y-141700336D01*
X177725622Y-142393712D01*
X178142580Y-143017733D01*
X178673267Y-143548420D01*
X179297288Y-143965378D01*
X179990664Y-144252584D01*
X180726748Y-144399000D01*
X181477252Y-144399000D01*
X182213336Y-144252584D01*
X182906712Y-143965378D01*
X183530733Y-143548420D01*
X184061420Y-143017733D01*
X184478378Y-142393712D01*
X184765584Y-141700336D01*
X184912000Y-140964252D01*
X184912000Y-140213748D01*
X184765584Y-139477664D01*
X184478378Y-138784288D01*
X184061420Y-138160267D01*
X183530733Y-137629580D01*
X182906712Y-137212622D01*
X182213336Y-136925416D01*
X181477252Y-136779000D01*
X180726748Y-136779000D01*
X179990664Y-136925416D01*
X179297288Y-137212622D01*
X178673267Y-137629580D01*
X178142580Y-138160267D01*
X177725622Y-138784288D01*
X177438416Y-139477664D01*
X177292000Y-140213748D01*
X104902000Y-140213748D01*
X104755584Y-139477664D01*
X104468378Y-138784288D01*
X104051420Y-138160267D01*
X103520733Y-137629580D01*
X102896712Y-137212622D01*
X102203336Y-136925416D01*
X101467252Y-136779000D01*
X100716748Y-136779000D01*
X99980664Y-136925416D01*
X99287288Y-137212622D01*
X98663267Y-137629580D01*
X98132580Y-138160267D01*
X97715622Y-138784288D01*
X97428416Y-139477664D01*
X97282000Y-140213748D01*
X96722000Y-140213748D01*
X96722000Y-108583800D01*
X97882123Y-108583800D01*
X97917000Y-108587235D01*
X97951877Y-108583800D01*
X98056184Y-108573527D01*
X98190020Y-108532928D01*
X98313363Y-108467000D01*
X98421475Y-108378275D01*
X98510200Y-108270163D01*
X98576128Y-108146820D01*
X98616727Y-108012984D01*
X98630435Y-107873800D01*
X98627000Y-107838923D01*
X98627000Y-101777461D01*
X130892600Y-101777461D01*
X130892600Y-101981339D01*
X130932374Y-102181298D01*
X131010395Y-102369656D01*
X131123663Y-102539174D01*
X131267826Y-102683337D01*
X131437344Y-102796605D01*
X131625702Y-102874626D01*
X131825661Y-102914400D01*
X132029539Y-102914400D01*
X132229498Y-102874626D01*
X132417856Y-102796605D01*
X132587374Y-102683337D01*
X132731537Y-102539174D01*
X132844805Y-102369656D01*
X132922826Y-102181298D01*
X132962600Y-101981339D01*
X132962600Y-101777461D01*
X132922826Y-101577502D01*
X132844805Y-101389144D01*
X132731537Y-101219626D01*
X132687600Y-101175689D01*
X132687600Y-99357085D01*
X132841374Y-99254337D01*
X132985537Y-99110174D01*
X133098805Y-98940656D01*
X133176826Y-98752298D01*
X133216600Y-98552339D01*
X133216600Y-98348461D01*
X133176826Y-98148502D01*
X133098805Y-97960144D01*
X132985537Y-97790626D01*
X132841374Y-97646463D01*
X132671856Y-97533195D01*
X132483498Y-97455174D01*
X132283539Y-97415400D01*
X132079661Y-97415400D01*
X131879702Y-97455174D01*
X131691344Y-97533195D01*
X131521826Y-97646463D01*
X131377663Y-97790626D01*
X131264395Y-97960144D01*
X131186374Y-98148502D01*
X131146600Y-98348461D01*
X131146600Y-98552339D01*
X131168204Y-98660949D01*
X131163924Y-98704400D01*
X131167601Y-98741732D01*
X131167600Y-101175689D01*
X131123663Y-101219626D01*
X131010395Y-101389144D01*
X130932374Y-101577502D01*
X130892600Y-101777461D01*
X98627000Y-101777461D01*
X98627000Y-94935740D01*
X114743300Y-94935740D01*
X114743300Y-95208660D01*
X114796544Y-95476335D01*
X114900986Y-95728480D01*
X115052612Y-95955405D01*
X115245595Y-96148388D01*
X115472520Y-96300014D01*
X115724665Y-96404456D01*
X115992340Y-96457700D01*
X116265260Y-96457700D01*
X116532935Y-96404456D01*
X116785080Y-96300014D01*
X117012005Y-96148388D01*
X117204988Y-95955405D01*
X117356614Y-95728480D01*
X117398800Y-95626634D01*
X117440986Y-95728480D01*
X117592612Y-95955405D01*
X117785595Y-96148388D01*
X118012520Y-96300014D01*
X118264665Y-96404456D01*
X118532340Y-96457700D01*
X118805260Y-96457700D01*
X119072935Y-96404456D01*
X119325080Y-96300014D01*
X119552005Y-96148388D01*
X119744988Y-95955405D01*
X119896614Y-95728480D01*
X119938800Y-95626634D01*
X119980986Y-95728480D01*
X120132612Y-95955405D01*
X120325595Y-96148388D01*
X120552520Y-96300014D01*
X120804665Y-96404456D01*
X121072340Y-96457700D01*
X121345260Y-96457700D01*
X121612935Y-96404456D01*
X121865080Y-96300014D01*
X122092005Y-96148388D01*
X122284988Y-95955405D01*
X122436614Y-95728480D01*
X122541056Y-95476335D01*
X122594300Y-95208660D01*
X122594300Y-94935740D01*
X122541056Y-94668065D01*
X122436614Y-94415920D01*
X122284988Y-94188995D01*
X122092005Y-93996012D01*
X121865080Y-93844386D01*
X121612935Y-93739944D01*
X121345260Y-93686700D01*
X121072340Y-93686700D01*
X120804665Y-93739944D01*
X120552520Y-93844386D01*
X120325595Y-93996012D01*
X120132612Y-94188995D01*
X119980986Y-94415920D01*
X119938800Y-94517766D01*
X119896614Y-94415920D01*
X119744988Y-94188995D01*
X119552005Y-93996012D01*
X119325080Y-93844386D01*
X119072935Y-93739944D01*
X118805260Y-93686700D01*
X118532340Y-93686700D01*
X118264665Y-93739944D01*
X118012520Y-93844386D01*
X117785595Y-93996012D01*
X117592612Y-94188995D01*
X117440986Y-94415920D01*
X117398800Y-94517766D01*
X117356614Y-94415920D01*
X117204988Y-94188995D01*
X117012005Y-93996012D01*
X116785080Y-93844386D01*
X116532935Y-93739944D01*
X116265260Y-93686700D01*
X115992340Y-93686700D01*
X115724665Y-93739944D01*
X115472520Y-93844386D01*
X115245595Y-93996012D01*
X115052612Y-94188995D01*
X114900986Y-94415920D01*
X114796544Y-94668065D01*
X114743300Y-94935740D01*
X98627000Y-94935740D01*
X98627000Y-87614077D01*
X98630435Y-87579200D01*
X98616727Y-87440016D01*
X98576128Y-87306180D01*
X98510200Y-87182837D01*
X98421475Y-87074725D01*
X98313363Y-86986000D01*
X98190020Y-86920072D01*
X98056184Y-86879473D01*
X97951877Y-86869200D01*
X97917000Y-86865765D01*
X97882123Y-86869200D01*
X96722000Y-86869200D01*
X96722000Y-50494000D01*
X131370000Y-50494000D01*
X131370001Y-52670113D01*
G36*
X150058047Y-53486336D02*
G01*
X149800067Y-53624229D01*
X149573947Y-53809801D01*
X149388375Y-54035921D01*
X149250482Y-54293901D01*
X149165568Y-54573824D01*
X149136896Y-54864935D01*
X149165568Y-55156046D01*
X149250482Y-55435969D01*
X149388375Y-55693949D01*
X149573947Y-55920069D01*
X149800067Y-56105641D01*
X149854872Y-56134935D01*
X149800067Y-56164229D01*
X149573947Y-56349801D01*
X149388375Y-56575921D01*
X149250482Y-56833901D01*
X149165568Y-57113824D01*
X149136896Y-57404935D01*
X149165568Y-57696046D01*
X149250482Y-57975969D01*
X149388375Y-58233949D01*
X149573947Y-58460069D01*
X149800067Y-58645641D01*
X149854872Y-58674935D01*
X149800067Y-58704229D01*
X149573947Y-58889801D01*
X149388375Y-59115921D01*
X149359081Y-59170726D01*
X149329787Y-59115921D01*
X149144215Y-58889801D01*
X148918095Y-58704229D01*
X148660115Y-58566336D01*
X148380192Y-58481422D01*
X148162031Y-58459935D01*
X148016131Y-58459935D01*
X147797970Y-58481422D01*
X147518047Y-58566336D01*
X147260067Y-58704229D01*
X147033947Y-58889801D01*
X146848375Y-59115921D01*
X146819081Y-59170726D01*
X146789787Y-59115921D01*
X146604215Y-58889801D01*
X146378095Y-58704229D01*
X146120115Y-58566336D01*
X145840192Y-58481422D01*
X145622031Y-58459935D01*
X145476131Y-58459935D01*
X145257970Y-58481422D01*
X144978047Y-58566336D01*
X144720067Y-58704229D01*
X144493947Y-58889801D01*
X144308375Y-59115921D01*
X144279081Y-59170726D01*
X144249787Y-59115921D01*
X144064215Y-58889801D01*
X143838095Y-58704229D01*
X143783290Y-58674935D01*
X143838095Y-58645641D01*
X144064215Y-58460069D01*
X144249787Y-58233949D01*
X144387680Y-57975969D01*
X144472594Y-57696046D01*
X144501266Y-57404935D01*
X144472594Y-57113824D01*
X144387680Y-56833901D01*
X144249787Y-56575921D01*
X144064215Y-56349801D01*
X143838095Y-56164229D01*
X143783290Y-56134935D01*
X143838095Y-56105641D01*
X144064215Y-55920069D01*
X144249787Y-55693949D01*
X144387680Y-55435969D01*
X144472594Y-55156046D01*
X144501266Y-54864935D01*
X144472594Y-54573824D01*
X144387680Y-54293901D01*
X144249787Y-54035921D01*
X144064215Y-53809801D01*
X143838095Y-53624229D01*
X143580115Y-53486336D01*
X143344953Y-53415000D01*
X150293209Y-53415000D01*
X150058047Y-53486336D01*
X150058047Y-53486336D01*
G37*
X150058047Y-53486336D02*
X149800067Y-53624229D01*
X149573947Y-53809801D01*
X149388375Y-54035921D01*
X149250482Y-54293901D01*
X149165568Y-54573824D01*
X149136896Y-54864935D01*
X149165568Y-55156046D01*
X149250482Y-55435969D01*
X149388375Y-55693949D01*
X149573947Y-55920069D01*
X149800067Y-56105641D01*
X149854872Y-56134935D01*
X149800067Y-56164229D01*
X149573947Y-56349801D01*
X149388375Y-56575921D01*
X149250482Y-56833901D01*
X149165568Y-57113824D01*
X149136896Y-57404935D01*
X149165568Y-57696046D01*
X149250482Y-57975969D01*
X149388375Y-58233949D01*
X149573947Y-58460069D01*
X149800067Y-58645641D01*
X149854872Y-58674935D01*
X149800067Y-58704229D01*
X149573947Y-58889801D01*
X149388375Y-59115921D01*
X149359081Y-59170726D01*
X149329787Y-59115921D01*
X149144215Y-58889801D01*
X148918095Y-58704229D01*
X148660115Y-58566336D01*
X148380192Y-58481422D01*
X148162031Y-58459935D01*
X148016131Y-58459935D01*
X147797970Y-58481422D01*
X147518047Y-58566336D01*
X147260067Y-58704229D01*
X147033947Y-58889801D01*
X146848375Y-59115921D01*
X146819081Y-59170726D01*
X146789787Y-59115921D01*
X146604215Y-58889801D01*
X146378095Y-58704229D01*
X146120115Y-58566336D01*
X145840192Y-58481422D01*
X145622031Y-58459935D01*
X145476131Y-58459935D01*
X145257970Y-58481422D01*
X144978047Y-58566336D01*
X144720067Y-58704229D01*
X144493947Y-58889801D01*
X144308375Y-59115921D01*
X144279081Y-59170726D01*
X144249787Y-59115921D01*
X144064215Y-58889801D01*
X143838095Y-58704229D01*
X143783290Y-58674935D01*
X143838095Y-58645641D01*
X144064215Y-58460069D01*
X144249787Y-58233949D01*
X144387680Y-57975969D01*
X144472594Y-57696046D01*
X144501266Y-57404935D01*
X144472594Y-57113824D01*
X144387680Y-56833901D01*
X144249787Y-56575921D01*
X144064215Y-56349801D01*
X143838095Y-56164229D01*
X143783290Y-56134935D01*
X143838095Y-56105641D01*
X144064215Y-55920069D01*
X144249787Y-55693949D01*
X144387680Y-55435969D01*
X144472594Y-55156046D01*
X144501266Y-54864935D01*
X144472594Y-54573824D01*
X144387680Y-54293901D01*
X144249787Y-54035921D01*
X144064215Y-53809801D01*
X143838095Y-53624229D01*
X143580115Y-53486336D01*
X143344953Y-53415000D01*
X150293209Y-53415000D01*
X150058047Y-53486336D01*
M02*
