M48
; DRILL file {KiCad (5.1.4)-1} date 4/22/2020 12:27:08 PM
; FORMAT={-:-/ absolute / inch / decimal}
; #@! TF.CreationDate,2020-04-22T12:27:08-05:00
; #@! TF.GenerationSoftware,Kicad,Pcbnew,(5.1.4)-1
; #@! TF.FileFunction,Plated,1,2,PTH
FMAT,2
INCH
T1C0.0157
T2C0.0380
T3C0.0394
T4C0.1250
%
G90
G05
T1
X4.113Y-3.061
X4.83Y-4.49
X5.055Y-3.083
X5.066Y-4.154
X5.158Y-3.85
X5.194Y-4.011
X5.204Y-3.876
X5.504Y-2.587
X5.969Y-3.563
X6.264Y-4.03
T2
X4.572Y-3.743
X4.672Y-3.743
X4.772Y-3.743
T3
X4.3303Y-2.36
X4.3303Y-2.46
X4.4303Y-2.36
X4.4303Y-2.46
X4.5303Y-2.36
X4.5303Y-2.46
X4.6303Y-2.36
X4.6303Y-2.46
X4.7303Y-2.36
X4.7303Y-2.46
X4.8303Y-2.36
X4.8303Y-2.46
X4.9303Y-2.36
X4.9303Y-2.46
X5.0303Y-2.36
X5.0303Y-2.46
X5.1303Y-2.36
X5.1303Y-2.46
X5.2303Y-2.36
X5.2303Y-2.46
X5.3303Y-2.36
X5.3303Y-2.46
X5.4303Y-2.36
X5.4303Y-2.46
X5.5303Y-2.36
X5.5303Y-2.46
X5.6303Y-2.36
X5.6303Y-2.46
X5.7303Y-2.36
X5.7303Y-2.46
X5.8303Y-2.36
X5.8303Y-2.46
X5.9303Y-2.36
X5.9303Y-2.46
X6.0303Y-2.36
X6.0303Y-2.46
X6.1303Y-2.36
X6.1303Y-2.46
X6.2303Y-2.36
X6.2303Y-2.46
X6.3303Y-2.36
X6.3303Y-2.46
X6.4303Y-2.36
X6.4303Y-2.46
X6.5303Y-2.36
X6.5303Y-2.46
X6.6303Y-2.36
X6.6303Y-2.46
X6.7303Y-2.36
X6.7303Y-2.46
X6.8303Y-2.36
X6.8303Y-2.46
X4.3303Y-2.16
X4.3303Y-2.26
X4.4303Y-2.16
X4.4303Y-2.26
X4.5303Y-2.16
X4.5303Y-2.26
X4.6303Y-2.16
X4.6303Y-2.26
X4.7303Y-2.16
X4.7303Y-2.26
X4.8303Y-2.16
X4.8303Y-2.26
X4.9303Y-2.16
X4.9303Y-2.26
X5.0303Y-2.16
X5.0303Y-2.26
X5.1303Y-2.16
X5.1303Y-2.26
X5.2303Y-2.16
X5.2303Y-2.26
X5.3303Y-2.16
X5.3303Y-2.26
X5.4303Y-2.16
X5.4303Y-2.26
X5.5303Y-2.16
X5.5303Y-2.26
X5.6303Y-2.16
X5.6303Y-2.26
X5.7303Y-2.16
X5.7303Y-2.26
X5.8303Y-2.16
X5.8303Y-2.26
X5.9303Y-2.16
X5.9303Y-2.26
X6.0303Y-2.16
X6.0303Y-2.26
X6.1303Y-2.16
X6.1303Y-2.26
X6.2303Y-2.16
X6.2303Y-2.26
X6.3303Y-2.16
X6.3303Y-2.26
X6.4303Y-2.16
X6.4303Y-2.26
X6.5303Y-2.16
X6.5303Y-2.26
X6.6303Y-2.16
X6.6303Y-2.26
X6.7303Y-2.16
X6.7303Y-2.26
X6.8303Y-2.16
X6.8303Y-2.26
T4
X7.03Y-2.16
X4.13Y-2.16
X7.13Y-5.535
X3.98Y-5.535
T0
M30
