G04 #@! TF.GenerationSoftware,KiCad,Pcbnew,(5.1.4)-1*
G04 #@! TF.CreationDate,2020-04-22T12:28:10-05:00*
G04 #@! TF.ProjectId,Boost,426f6f73-742e-46b6-9963-61645f706362,rev?*
G04 #@! TF.SameCoordinates,Original*
G04 #@! TF.FileFunction,Legend,Top*
G04 #@! TF.FilePolarity,Positive*
%FSLAX46Y46*%
G04 Gerber Fmt 4.6, Leading zero omitted, Abs format (unit mm)*
G04 Created by KiCad (PCBNEW (5.1.4)-1) date 2020-04-22 12:28:10*
%MOMM*%
%LPD*%
G04 APERTURE LIST*
%ADD10C,0.300000*%
%ADD11C,0.200000*%
%ADD12C,0.100000*%
%ADD13C,0.120000*%
%ADD14C,0.127000*%
%ADD15C,0.254000*%
%ADD16C,0.150000*%
%ADD17C,0.015000*%
G04 APERTURE END LIST*
D10*
X109739000Y-138612428D02*
X109596142Y-138755285D01*
X109167571Y-138898142D01*
X108881857Y-138898142D01*
X108453285Y-138755285D01*
X108167571Y-138469571D01*
X108024714Y-138183857D01*
X107881857Y-137612428D01*
X107881857Y-137183857D01*
X108024714Y-136612428D01*
X108167571Y-136326714D01*
X108453285Y-136041000D01*
X108881857Y-135898142D01*
X109167571Y-135898142D01*
X109596142Y-136041000D01*
X109739000Y-136183857D01*
X110739000Y-136898142D02*
X111453285Y-138898142D01*
X112167571Y-136898142D02*
X111453285Y-138898142D01*
X111167571Y-139612428D01*
X111024714Y-139755285D01*
X110739000Y-139898142D01*
X113167571Y-138755285D02*
X113596142Y-138898142D01*
X114310428Y-138898142D01*
X114596142Y-138755285D01*
X114739000Y-138612428D01*
X114881857Y-138326714D01*
X114881857Y-138041000D01*
X114739000Y-137755285D01*
X114596142Y-137612428D01*
X114310428Y-137469571D01*
X113739000Y-137326714D01*
X113453285Y-137183857D01*
X113310428Y-137041000D01*
X113167571Y-136755285D01*
X113167571Y-136469571D01*
X113310428Y-136183857D01*
X113453285Y-136041000D01*
X113739000Y-135898142D01*
X114453285Y-135898142D01*
X114881857Y-136041000D01*
X117453285Y-138898142D02*
X117453285Y-137326714D01*
X117310428Y-137041000D01*
X117024714Y-136898142D01*
X116453285Y-136898142D01*
X116167571Y-137041000D01*
X117453285Y-138755285D02*
X117167571Y-138898142D01*
X116453285Y-138898142D01*
X116167571Y-138755285D01*
X116024714Y-138469571D01*
X116024714Y-138183857D01*
X116167571Y-137898142D01*
X116453285Y-137755285D01*
X117167571Y-137755285D01*
X117453285Y-137612428D01*
X118453285Y-136898142D02*
X119596142Y-136898142D01*
X118881857Y-135898142D02*
X118881857Y-138469571D01*
X119024714Y-138755285D01*
X119310428Y-138898142D01*
X119596142Y-138898142D01*
X124453285Y-138898142D02*
X122739000Y-138898142D01*
X123596142Y-138898142D02*
X123596142Y-135898142D01*
X123310428Y-136326714D01*
X123024714Y-136612428D01*
X122739000Y-136755285D01*
X128024714Y-137755285D02*
X130310428Y-137755285D01*
X135024714Y-137326714D02*
X135453285Y-137469571D01*
X135596142Y-137612428D01*
X135739000Y-137898142D01*
X135739000Y-138326714D01*
X135596142Y-138612428D01*
X135453285Y-138755285D01*
X135167571Y-138898142D01*
X134024714Y-138898142D01*
X134024714Y-135898142D01*
X135024714Y-135898142D01*
X135310428Y-136041000D01*
X135453285Y-136183857D01*
X135596142Y-136469571D01*
X135596142Y-136755285D01*
X135453285Y-137041000D01*
X135310428Y-137183857D01*
X135024714Y-137326714D01*
X134024714Y-137326714D01*
X137453285Y-138898142D02*
X137167571Y-138755285D01*
X137024714Y-138612428D01*
X136881857Y-138326714D01*
X136881857Y-137469571D01*
X137024714Y-137183857D01*
X137167571Y-137041000D01*
X137453285Y-136898142D01*
X137881857Y-136898142D01*
X138167571Y-137041000D01*
X138310428Y-137183857D01*
X138453285Y-137469571D01*
X138453285Y-138326714D01*
X138310428Y-138612428D01*
X138167571Y-138755285D01*
X137881857Y-138898142D01*
X137453285Y-138898142D01*
X140167571Y-138898142D02*
X139881857Y-138755285D01*
X139739000Y-138612428D01*
X139596142Y-138326714D01*
X139596142Y-137469571D01*
X139739000Y-137183857D01*
X139881857Y-137041000D01*
X140167571Y-136898142D01*
X140596142Y-136898142D01*
X140881857Y-137041000D01*
X141024714Y-137183857D01*
X141167571Y-137469571D01*
X141167571Y-138326714D01*
X141024714Y-138612428D01*
X140881857Y-138755285D01*
X140596142Y-138898142D01*
X140167571Y-138898142D01*
X142310428Y-138755285D02*
X142596142Y-138898142D01*
X143167571Y-138898142D01*
X143453285Y-138755285D01*
X143596142Y-138469571D01*
X143596142Y-138326714D01*
X143453285Y-138041000D01*
X143167571Y-137898142D01*
X142739000Y-137898142D01*
X142453285Y-137755285D01*
X142310428Y-137469571D01*
X142310428Y-137326714D01*
X142453285Y-137041000D01*
X142739000Y-136898142D01*
X143167571Y-136898142D01*
X143453285Y-137041000D01*
X144453285Y-136898142D02*
X145596142Y-136898142D01*
X144881857Y-135898142D02*
X144881857Y-138469571D01*
X145024714Y-138755285D01*
X145310428Y-138898142D01*
X145596142Y-138898142D01*
X149881857Y-137326714D02*
X150310428Y-137469571D01*
X150453285Y-137612428D01*
X150596142Y-137898142D01*
X150596142Y-138326714D01*
X150453285Y-138612428D01*
X150310428Y-138755285D01*
X150024714Y-138898142D01*
X148881857Y-138898142D01*
X148881857Y-135898142D01*
X149881857Y-135898142D01*
X150167571Y-136041000D01*
X150310428Y-136183857D01*
X150453285Y-136469571D01*
X150453285Y-136755285D01*
X150310428Y-137041000D01*
X150167571Y-137183857D01*
X149881857Y-137326714D01*
X148881857Y-137326714D01*
X152310428Y-138898142D02*
X152024714Y-138755285D01*
X151881857Y-138612428D01*
X151739000Y-138326714D01*
X151739000Y-137469571D01*
X151881857Y-137183857D01*
X152024714Y-137041000D01*
X152310428Y-136898142D01*
X152739000Y-136898142D01*
X153024714Y-137041000D01*
X153167571Y-137183857D01*
X153310428Y-137469571D01*
X153310428Y-138326714D01*
X153167571Y-138612428D01*
X153024714Y-138755285D01*
X152739000Y-138898142D01*
X152310428Y-138898142D01*
X155881857Y-138898142D02*
X155881857Y-137326714D01*
X155739000Y-137041000D01*
X155453285Y-136898142D01*
X154881857Y-136898142D01*
X154596142Y-137041000D01*
X155881857Y-138755285D02*
X155596142Y-138898142D01*
X154881857Y-138898142D01*
X154596142Y-138755285D01*
X154453285Y-138469571D01*
X154453285Y-138183857D01*
X154596142Y-137898142D01*
X154881857Y-137755285D01*
X155596142Y-137755285D01*
X155881857Y-137612428D01*
X157310428Y-138898142D02*
X157310428Y-136898142D01*
X157310428Y-137469571D02*
X157453285Y-137183857D01*
X157596142Y-137041000D01*
X157881857Y-136898142D01*
X158167571Y-136898142D01*
X160453285Y-138898142D02*
X160453285Y-135898142D01*
X160453285Y-138755285D02*
X160167571Y-138898142D01*
X159596142Y-138898142D01*
X159310428Y-138755285D01*
X159167571Y-138612428D01*
X159024714Y-138326714D01*
X159024714Y-137469571D01*
X159167571Y-137183857D01*
X159310428Y-137041000D01*
X159596142Y-136898142D01*
X160167571Y-136898142D01*
X160453285Y-137041000D01*
D11*
X146231200Y-107951600D02*
X143481200Y-107951600D01*
X147011200Y-109675600D02*
X143481200Y-109675600D01*
D12*
X115061800Y-96215200D02*
X115061800Y-93929200D01*
X122275800Y-96215200D02*
X115061800Y-96215200D01*
X122275800Y-93929200D02*
X122275800Y-96215200D01*
X115061800Y-93929200D02*
X122275800Y-93929200D01*
D13*
X108777821Y-93931200D02*
X109103379Y-93931200D01*
X108777821Y-92911200D02*
X109103379Y-92911200D01*
D11*
X111730800Y-78801000D02*
G75*
G03X111730800Y-78801000I-100000J0D01*
G01*
D14*
X108620800Y-79421000D02*
X108620800Y-78471000D01*
X109920800Y-78181000D02*
X109920800Y-77521000D01*
X108620800Y-76281000D02*
X108620800Y-77231000D01*
X108620800Y-76281000D02*
X109920800Y-76281000D01*
X109920800Y-79421000D02*
X108620800Y-79421000D01*
D13*
X118109000Y-85606000D02*
X114224000Y-85606000D01*
X118109000Y-87876000D02*
X118109000Y-85606000D01*
X114224000Y-87876000D02*
X118109000Y-87876000D01*
X143926779Y-102207600D02*
X143601221Y-102207600D01*
X143926779Y-103227600D02*
X143601221Y-103227600D01*
X155966379Y-102334600D02*
X155640821Y-102334600D01*
X155966379Y-103354600D02*
X155640821Y-103354600D01*
X119301800Y-102199221D02*
X119301800Y-102524779D01*
X120321800Y-102199221D02*
X120321800Y-102524779D01*
X146387736Y-91410200D02*
X147591864Y-91410200D01*
X146387736Y-89590200D02*
X147591864Y-89590200D01*
X120987736Y-111781000D02*
X122191864Y-111781000D01*
X120987736Y-109961000D02*
X122191864Y-109961000D01*
X126982136Y-103424400D02*
X128186264Y-103424400D01*
X126982136Y-101604400D02*
X128186264Y-101604400D01*
D15*
X143918819Y-109388123D02*
X143918819Y-108118123D01*
X144221200Y-108118123D01*
X144402628Y-108178600D01*
X144523580Y-108299552D01*
X144584057Y-108420504D01*
X144644533Y-108662409D01*
X144644533Y-108843838D01*
X144584057Y-109085742D01*
X144523580Y-109206695D01*
X144402628Y-109327647D01*
X144221200Y-109388123D01*
X143918819Y-109388123D01*
X145854057Y-109388123D02*
X145128342Y-109388123D01*
X145491200Y-109388123D02*
X145491200Y-108118123D01*
X145370247Y-108299552D01*
X145249295Y-108420504D01*
X145128342Y-108480980D01*
X116370704Y-94376723D02*
X116370704Y-95283866D01*
X116310228Y-95465295D01*
X116189276Y-95586247D01*
X116007847Y-95646723D01*
X115886895Y-95646723D01*
X116794038Y-94800057D02*
X117277847Y-94800057D01*
X116975466Y-95646723D02*
X116975466Y-94558152D01*
X117035942Y-94437200D01*
X117156895Y-94376723D01*
X117277847Y-94376723D01*
X117701180Y-95646723D02*
X117701180Y-94800057D01*
X117701180Y-95041961D02*
X117761657Y-94921009D01*
X117822133Y-94860533D01*
X117943085Y-94800057D01*
X118064038Y-94800057D01*
X118971180Y-95586247D02*
X118850228Y-95646723D01*
X118608323Y-95646723D01*
X118487371Y-95586247D01*
X118426895Y-95465295D01*
X118426895Y-94981485D01*
X118487371Y-94860533D01*
X118608323Y-94800057D01*
X118850228Y-94800057D01*
X118971180Y-94860533D01*
X119031657Y-94981485D01*
X119031657Y-95102438D01*
X118426895Y-95223390D01*
X120120228Y-94800057D02*
X120120228Y-96070057D01*
X120120228Y-95586247D02*
X119999276Y-95646723D01*
X119757371Y-95646723D01*
X119636419Y-95586247D01*
X119575942Y-95525771D01*
X119515466Y-95404819D01*
X119515466Y-95041961D01*
X119575942Y-94921009D01*
X119636419Y-94860533D01*
X119757371Y-94800057D01*
X119999276Y-94800057D01*
X120120228Y-94860533D01*
X121390228Y-95646723D02*
X120664514Y-95646723D01*
X121027371Y-95646723D02*
X121027371Y-94376723D01*
X120906419Y-94558152D01*
X120785466Y-94679104D01*
X120664514Y-94739580D01*
D16*
X107297742Y-92443580D02*
X106964409Y-91967390D01*
X106726314Y-92443580D02*
X106726314Y-91443580D01*
X107107266Y-91443580D01*
X107202504Y-91491200D01*
X107250123Y-91538819D01*
X107297742Y-91634057D01*
X107297742Y-91776914D01*
X107250123Y-91872152D01*
X107202504Y-91919771D01*
X107107266Y-91967390D01*
X106726314Y-91967390D01*
X107583457Y-91776914D02*
X107964409Y-91776914D01*
X107726314Y-92443580D02*
X107726314Y-91586438D01*
X107773933Y-91491200D01*
X107869171Y-91443580D01*
X107964409Y-91443580D01*
X108297742Y-92443580D02*
X108297742Y-91776914D01*
X108297742Y-91967390D02*
X108345361Y-91872152D01*
X108392980Y-91824533D01*
X108488219Y-91776914D01*
X108583457Y-91776914D01*
X109297742Y-92395961D02*
X109202504Y-92443580D01*
X109012028Y-92443580D01*
X108916790Y-92395961D01*
X108869171Y-92300723D01*
X108869171Y-91919771D01*
X108916790Y-91824533D01*
X109012028Y-91776914D01*
X109202504Y-91776914D01*
X109297742Y-91824533D01*
X109345361Y-91919771D01*
X109345361Y-92015009D01*
X108869171Y-92110247D01*
X110202504Y-91776914D02*
X110202504Y-92776914D01*
X110202504Y-92395961D02*
X110107266Y-92443580D01*
X109916790Y-92443580D01*
X109821552Y-92395961D01*
X109773933Y-92348342D01*
X109726314Y-92253104D01*
X109726314Y-91967390D01*
X109773933Y-91872152D01*
X109821552Y-91824533D01*
X109916790Y-91776914D01*
X110107266Y-91776914D01*
X110202504Y-91824533D01*
X111202504Y-92443580D02*
X110631076Y-92443580D01*
X110916790Y-92443580D02*
X110916790Y-91443580D01*
X110821552Y-91586438D01*
X110726314Y-91681676D01*
X110631076Y-91729295D01*
D17*
X108792514Y-80318657D02*
X108746800Y-80295800D01*
X108701085Y-80250085D01*
X108632514Y-80181514D01*
X108586800Y-80158657D01*
X108541085Y-80158657D01*
X108563942Y-80272942D02*
X108518228Y-80250085D01*
X108472514Y-80204371D01*
X108449657Y-80112942D01*
X108449657Y-79952942D01*
X108472514Y-79861514D01*
X108518228Y-79815800D01*
X108563942Y-79792942D01*
X108655371Y-79792942D01*
X108701085Y-79815800D01*
X108746800Y-79861514D01*
X108769657Y-79952942D01*
X108769657Y-80112942D01*
X108746800Y-80204371D01*
X108701085Y-80250085D01*
X108655371Y-80272942D01*
X108563942Y-80272942D01*
X108906800Y-79952942D02*
X109089657Y-79952942D01*
X108975371Y-80272942D02*
X108975371Y-79861514D01*
X108998228Y-79815800D01*
X109043942Y-79792942D01*
X109089657Y-79792942D01*
X109249657Y-80272942D02*
X109249657Y-79952942D01*
X109249657Y-80044371D02*
X109272514Y-79998657D01*
X109295371Y-79975800D01*
X109341085Y-79952942D01*
X109386800Y-79952942D01*
X109729657Y-80250085D02*
X109683942Y-80272942D01*
X109592514Y-80272942D01*
X109546800Y-80250085D01*
X109523942Y-80204371D01*
X109523942Y-80021514D01*
X109546800Y-79975800D01*
X109592514Y-79952942D01*
X109683942Y-79952942D01*
X109729657Y-79975800D01*
X109752514Y-80021514D01*
X109752514Y-80067228D01*
X109523942Y-80112942D01*
X110163942Y-79952942D02*
X110163942Y-80432942D01*
X110163942Y-80250085D02*
X110118228Y-80272942D01*
X110026800Y-80272942D01*
X109981085Y-80250085D01*
X109958228Y-80227228D01*
X109935371Y-80181514D01*
X109935371Y-80044371D01*
X109958228Y-79998657D01*
X109981085Y-79975800D01*
X110026800Y-79952942D01*
X110118228Y-79952942D01*
X110163942Y-79975800D01*
X110643942Y-80272942D02*
X110369657Y-80272942D01*
X110506800Y-80272942D02*
X110506800Y-79792942D01*
X110461085Y-79861514D01*
X110415371Y-79907228D01*
X110369657Y-79930085D01*
D16*
X113609714Y-89013380D02*
X113609714Y-88013380D01*
X113847809Y-88013380D01*
X113990666Y-88061000D01*
X114085904Y-88156238D01*
X114133523Y-88251476D01*
X114181142Y-88441952D01*
X114181142Y-88584809D01*
X114133523Y-88775285D01*
X114085904Y-88870523D01*
X113990666Y-88965761D01*
X113847809Y-89013380D01*
X113609714Y-89013380D01*
X114466857Y-88346714D02*
X114847809Y-88346714D01*
X114609714Y-89013380D02*
X114609714Y-88156238D01*
X114657333Y-88061000D01*
X114752571Y-88013380D01*
X114847809Y-88013380D01*
X115181142Y-89013380D02*
X115181142Y-88346714D01*
X115181142Y-88537190D02*
X115228761Y-88441952D01*
X115276380Y-88394333D01*
X115371619Y-88346714D01*
X115466857Y-88346714D01*
X116181142Y-88965761D02*
X116085904Y-89013380D01*
X115895428Y-89013380D01*
X115800190Y-88965761D01*
X115752571Y-88870523D01*
X115752571Y-88489571D01*
X115800190Y-88394333D01*
X115895428Y-88346714D01*
X116085904Y-88346714D01*
X116181142Y-88394333D01*
X116228761Y-88489571D01*
X116228761Y-88584809D01*
X115752571Y-88680047D01*
X117085904Y-88346714D02*
X117085904Y-89346714D01*
X117085904Y-88965761D02*
X116990666Y-89013380D01*
X116800190Y-89013380D01*
X116704952Y-88965761D01*
X116657333Y-88918142D01*
X116609714Y-88822904D01*
X116609714Y-88537190D01*
X116657333Y-88441952D01*
X116704952Y-88394333D01*
X116800190Y-88346714D01*
X116990666Y-88346714D01*
X117085904Y-88394333D01*
X118085904Y-89013380D02*
X117514476Y-89013380D01*
X117800190Y-89013380D02*
X117800190Y-88013380D01*
X117704952Y-88156238D01*
X117609714Y-88251476D01*
X117514476Y-88299095D01*
D17*
X130024570Y-78928183D02*
X130024570Y-80256541D01*
X130102709Y-80412819D01*
X130180848Y-80490958D01*
X130337125Y-80569096D01*
X130649680Y-80569096D01*
X130805957Y-80490958D01*
X130884096Y-80412819D01*
X130962235Y-80256541D01*
X130962235Y-78928183D01*
X132603148Y-80569096D02*
X131665483Y-80569096D01*
X132134315Y-80569096D02*
X132134315Y-78928183D01*
X131978038Y-79162599D01*
X131821761Y-79318877D01*
X131665483Y-79397016D01*
D16*
X142859238Y-104599980D02*
X142525904Y-104123790D01*
X142287809Y-104599980D02*
X142287809Y-103599980D01*
X142668761Y-103599980D01*
X142764000Y-103647600D01*
X142811619Y-103695219D01*
X142859238Y-103790457D01*
X142859238Y-103933314D01*
X142811619Y-104028552D01*
X142764000Y-104076171D01*
X142668761Y-104123790D01*
X142287809Y-104123790D01*
X143144952Y-103933314D02*
X143525904Y-103933314D01*
X143287809Y-104599980D02*
X143287809Y-103742838D01*
X143335428Y-103647600D01*
X143430666Y-103599980D01*
X143525904Y-103599980D01*
X143859238Y-104599980D02*
X143859238Y-103599980D01*
X143859238Y-103980933D02*
X143954476Y-103933314D01*
X144144952Y-103933314D01*
X144240190Y-103980933D01*
X144287809Y-104028552D01*
X144335428Y-104123790D01*
X144335428Y-104409504D01*
X144287809Y-104504742D01*
X144240190Y-104552361D01*
X144144952Y-104599980D01*
X143954476Y-104599980D01*
X143859238Y-104552361D01*
X144716380Y-103695219D02*
X144764000Y-103647600D01*
X144859238Y-103599980D01*
X145097333Y-103599980D01*
X145192571Y-103647600D01*
X145240190Y-103695219D01*
X145287809Y-103790457D01*
X145287809Y-103885695D01*
X145240190Y-104028552D01*
X144668761Y-104599980D01*
X145287809Y-104599980D01*
X154898838Y-104726980D02*
X154565504Y-104250790D01*
X154327409Y-104726980D02*
X154327409Y-103726980D01*
X154708361Y-103726980D01*
X154803600Y-103774600D01*
X154851219Y-103822219D01*
X154898838Y-103917457D01*
X154898838Y-104060314D01*
X154851219Y-104155552D01*
X154803600Y-104203171D01*
X154708361Y-104250790D01*
X154327409Y-104250790D01*
X155184552Y-104060314D02*
X155565504Y-104060314D01*
X155327409Y-104726980D02*
X155327409Y-103869838D01*
X155375028Y-103774600D01*
X155470266Y-103726980D01*
X155565504Y-103726980D01*
X155898838Y-104726980D02*
X155898838Y-103726980D01*
X155898838Y-104107933D02*
X155994076Y-104060314D01*
X156184552Y-104060314D01*
X156279790Y-104107933D01*
X156327409Y-104155552D01*
X156375028Y-104250790D01*
X156375028Y-104536504D01*
X156327409Y-104631742D01*
X156279790Y-104679361D01*
X156184552Y-104726980D01*
X155994076Y-104726980D01*
X155898838Y-104679361D01*
X157327409Y-104726980D02*
X156755980Y-104726980D01*
X157041695Y-104726980D02*
X157041695Y-103726980D01*
X156946457Y-103869838D01*
X156851219Y-103965076D01*
X156755980Y-104012695D01*
X121694180Y-104528666D02*
X121217990Y-104862000D01*
X121694180Y-105100095D02*
X120694180Y-105100095D01*
X120694180Y-104719142D01*
X120741800Y-104623904D01*
X120789419Y-104576285D01*
X120884657Y-104528666D01*
X121027514Y-104528666D01*
X121122752Y-104576285D01*
X121170371Y-104623904D01*
X121217990Y-104719142D01*
X121217990Y-105100095D01*
X121646561Y-103671523D02*
X121694180Y-103766761D01*
X121694180Y-103957238D01*
X121646561Y-104052476D01*
X121598942Y-104100095D01*
X121503704Y-104147714D01*
X121217990Y-104147714D01*
X121122752Y-104100095D01*
X121075133Y-104052476D01*
X121027514Y-103957238D01*
X121027514Y-103766761D01*
X121075133Y-103671523D01*
X121694180Y-103100095D02*
X121646561Y-103195333D01*
X121598942Y-103242952D01*
X121503704Y-103290571D01*
X121217990Y-103290571D01*
X121122752Y-103242952D01*
X121075133Y-103195333D01*
X121027514Y-103100095D01*
X121027514Y-102957238D01*
X121075133Y-102862000D01*
X121122752Y-102814380D01*
X121217990Y-102766761D01*
X121503704Y-102766761D01*
X121598942Y-102814380D01*
X121646561Y-102862000D01*
X121694180Y-102957238D01*
X121694180Y-103100095D01*
X121694180Y-102338190D02*
X121027514Y-102338190D01*
X121122752Y-102338190D02*
X121075133Y-102290571D01*
X121027514Y-102195333D01*
X121027514Y-102052476D01*
X121075133Y-101957238D01*
X121170371Y-101909619D01*
X121694180Y-101909619D01*
X121170371Y-101909619D02*
X121075133Y-101862000D01*
X121027514Y-101766761D01*
X121027514Y-101623904D01*
X121075133Y-101528666D01*
X121170371Y-101481047D01*
X121694180Y-101481047D01*
X121027514Y-101004857D02*
X122027514Y-101004857D01*
X121075133Y-101004857D02*
X121027514Y-100909619D01*
X121027514Y-100719142D01*
X121075133Y-100623904D01*
X121122752Y-100576285D01*
X121217990Y-100528666D01*
X121503704Y-100528666D01*
X121598942Y-100576285D01*
X121646561Y-100623904D01*
X121694180Y-100719142D01*
X121694180Y-100909619D01*
X121646561Y-101004857D01*
X121694180Y-99576285D02*
X121694180Y-100147714D01*
X121694180Y-99862000D02*
X120694180Y-99862000D01*
X120837038Y-99957238D01*
X120932276Y-100052476D01*
X120979895Y-100147714D01*
X134072333Y-109324780D02*
X133596142Y-109324780D01*
X133596142Y-108324780D01*
X134929476Y-109324780D02*
X134358047Y-109324780D01*
X134643761Y-109324780D02*
X134643761Y-108324780D01*
X134548523Y-108467638D01*
X134453285Y-108562876D01*
X134358047Y-108610495D01*
X145632657Y-89037342D02*
X145585038Y-89084961D01*
X145442180Y-89132580D01*
X145346942Y-89132580D01*
X145204085Y-89084961D01*
X145108847Y-88989723D01*
X145061228Y-88894485D01*
X145013609Y-88704009D01*
X145013609Y-88561152D01*
X145061228Y-88370676D01*
X145108847Y-88275438D01*
X145204085Y-88180200D01*
X145346942Y-88132580D01*
X145442180Y-88132580D01*
X145585038Y-88180200D01*
X145632657Y-88227819D01*
X146204085Y-89132580D02*
X146108847Y-89084961D01*
X146061228Y-89037342D01*
X146013609Y-88942104D01*
X146013609Y-88656390D01*
X146061228Y-88561152D01*
X146108847Y-88513533D01*
X146204085Y-88465914D01*
X146346942Y-88465914D01*
X146442180Y-88513533D01*
X146489800Y-88561152D01*
X146537419Y-88656390D01*
X146537419Y-88942104D01*
X146489800Y-89037342D01*
X146442180Y-89084961D01*
X146346942Y-89132580D01*
X146204085Y-89132580D01*
X147394561Y-88465914D02*
X147394561Y-89132580D01*
X146965990Y-88465914D02*
X146965990Y-88989723D01*
X147013609Y-89084961D01*
X147108847Y-89132580D01*
X147251704Y-89132580D01*
X147346942Y-89084961D01*
X147394561Y-89037342D01*
X147727895Y-88465914D02*
X148108847Y-88465914D01*
X147870752Y-88132580D02*
X147870752Y-88989723D01*
X147918371Y-89084961D01*
X148013609Y-89132580D01*
X148108847Y-89132580D01*
X148965990Y-89132580D02*
X148394561Y-89132580D01*
X148680276Y-89132580D02*
X148680276Y-88132580D01*
X148585038Y-88275438D01*
X148489800Y-88370676D01*
X148394561Y-88418295D01*
X120732657Y-109408142D02*
X120685038Y-109455761D01*
X120542180Y-109503380D01*
X120446942Y-109503380D01*
X120304085Y-109455761D01*
X120208847Y-109360523D01*
X120161228Y-109265285D01*
X120113609Y-109074809D01*
X120113609Y-108931952D01*
X120161228Y-108741476D01*
X120208847Y-108646238D01*
X120304085Y-108551000D01*
X120446942Y-108503380D01*
X120542180Y-108503380D01*
X120685038Y-108551000D01*
X120732657Y-108598619D01*
X121161228Y-109503380D02*
X121161228Y-108836714D01*
X121161228Y-108503380D02*
X121113609Y-108551000D01*
X121161228Y-108598619D01*
X121208847Y-108551000D01*
X121161228Y-108503380D01*
X121161228Y-108598619D01*
X121637419Y-108836714D02*
X121637419Y-109503380D01*
X121637419Y-108931952D02*
X121685038Y-108884333D01*
X121780276Y-108836714D01*
X121923133Y-108836714D01*
X122018371Y-108884333D01*
X122065990Y-108979571D01*
X122065990Y-109503380D01*
X123065990Y-109503380D02*
X122494561Y-109503380D01*
X122780276Y-109503380D02*
X122780276Y-108503380D01*
X122685038Y-108646238D01*
X122589800Y-108741476D01*
X122494561Y-108789095D01*
X125417533Y-101051542D02*
X125369914Y-101099161D01*
X125227057Y-101146780D01*
X125131819Y-101146780D01*
X124988961Y-101099161D01*
X124893723Y-101003923D01*
X124846104Y-100908685D01*
X124798485Y-100718209D01*
X124798485Y-100575352D01*
X124846104Y-100384876D01*
X124893723Y-100289638D01*
X124988961Y-100194400D01*
X125131819Y-100146780D01*
X125227057Y-100146780D01*
X125369914Y-100194400D01*
X125417533Y-100242019D01*
X126274676Y-101099161D02*
X126179438Y-101146780D01*
X125988961Y-101146780D01*
X125893723Y-101099161D01*
X125846104Y-101051542D01*
X125798485Y-100956304D01*
X125798485Y-100670590D01*
X125846104Y-100575352D01*
X125893723Y-100527733D01*
X125988961Y-100480114D01*
X126179438Y-100480114D01*
X126274676Y-100527733D01*
X126846104Y-101146780D02*
X126750866Y-101099161D01*
X126703247Y-101051542D01*
X126655628Y-100956304D01*
X126655628Y-100670590D01*
X126703247Y-100575352D01*
X126750866Y-100527733D01*
X126846104Y-100480114D01*
X126988961Y-100480114D01*
X127084200Y-100527733D01*
X127131819Y-100575352D01*
X127179438Y-100670590D01*
X127179438Y-100956304D01*
X127131819Y-101051542D01*
X127084200Y-101099161D01*
X126988961Y-101146780D01*
X126846104Y-101146780D01*
X127608009Y-101146780D02*
X127608009Y-100480114D01*
X127608009Y-100575352D02*
X127655628Y-100527733D01*
X127750866Y-100480114D01*
X127893723Y-100480114D01*
X127988961Y-100527733D01*
X128036580Y-100622971D01*
X128036580Y-101146780D01*
X128036580Y-100622971D02*
X128084200Y-100527733D01*
X128179438Y-100480114D01*
X128322295Y-100480114D01*
X128417533Y-100527733D01*
X128465152Y-100622971D01*
X128465152Y-101146780D01*
X128941342Y-100480114D02*
X128941342Y-101480114D01*
X128941342Y-100527733D02*
X129036580Y-100480114D01*
X129227057Y-100480114D01*
X129322295Y-100527733D01*
X129369914Y-100575352D01*
X129417533Y-100670590D01*
X129417533Y-100956304D01*
X129369914Y-101051542D01*
X129322295Y-101099161D01*
X129227057Y-101146780D01*
X129036580Y-101146780D01*
X128941342Y-101099161D01*
X130369914Y-101146780D02*
X129798485Y-101146780D01*
X130084200Y-101146780D02*
X130084200Y-100146780D01*
X129988961Y-100289638D01*
X129893723Y-100384876D01*
X129798485Y-100432495D01*
X107748780Y-56729855D02*
X106748780Y-56729855D01*
X106748780Y-56348902D01*
X106796400Y-56253664D01*
X106844019Y-56206045D01*
X106939257Y-56158426D01*
X107082114Y-56158426D01*
X107177352Y-56206045D01*
X107224971Y-56253664D01*
X107272590Y-56348902D01*
X107272590Y-56729855D01*
X106844019Y-55777474D02*
X106796400Y-55729855D01*
X106748780Y-55634617D01*
X106748780Y-55396521D01*
X106796400Y-55301283D01*
X106844019Y-55253664D01*
X106939257Y-55206045D01*
X107034495Y-55206045D01*
X107177352Y-55253664D01*
X107748780Y-55825093D01*
X107748780Y-55206045D01*
X107748780Y-61809855D02*
X106748780Y-61809855D01*
X106748780Y-61428902D01*
X106796400Y-61333664D01*
X106844019Y-61286045D01*
X106939257Y-61238426D01*
X107082114Y-61238426D01*
X107177352Y-61286045D01*
X107224971Y-61333664D01*
X107272590Y-61428902D01*
X107272590Y-61809855D01*
X107748780Y-60286045D02*
X107748780Y-60857474D01*
X107748780Y-60571760D02*
X106748780Y-60571760D01*
X106891638Y-60666998D01*
X106986876Y-60762236D01*
X107034495Y-60857474D01*
M02*
