M48
; DRILL file {KiCad (5.1.4)-1} date 2/3/2020 9:19:24 AM
; FORMAT={-:-/ absolute / inch / decimal}
; #@! TF.CreationDate,2020-02-03T09:19:24-06:00
; #@! TF.GenerationSoftware,Kicad,Pcbnew,(5.1.4)-1
; #@! TF.FileFunction,Plated,1,2,PTH
FMAT,2
INCH
T1C0.0157
T2C0.0394
T3C0.1250
%
G90
G05
T1
X5.25Y-3.875
X5.25Y-4.725
X5.275Y-3.675
X5.3989Y-3.7511
X5.4Y-3.45
X5.525Y-3.65
X5.6Y-3.875
X5.6Y-4.025
X5.7Y-3.825
X5.756Y-4.01
X5.8Y-3.9
X5.85Y-4.275
X5.887Y-2.946
X5.9Y-3.825
X5.95Y-3.3
X6.025Y-3.775
T2
X4.3303Y-2.36
X4.3303Y-2.46
X4.4303Y-2.36
X4.4303Y-2.46
X4.5303Y-2.36
X4.5303Y-2.46
X4.6303Y-2.36
X4.6303Y-2.46
X4.7303Y-2.36
X4.7303Y-2.46
X4.8303Y-2.36
X4.8303Y-2.46
X4.9303Y-2.36
X4.9303Y-2.46
X5.0303Y-2.36
X5.0303Y-2.46
X5.1303Y-2.36
X5.1303Y-2.46
X5.2303Y-2.36
X5.2303Y-2.46
X5.3303Y-2.36
X5.3303Y-2.46
X5.4303Y-2.36
X5.4303Y-2.46
X5.5303Y-2.36
X5.5303Y-2.46
X5.6303Y-2.36
X5.6303Y-2.46
X5.7303Y-2.36
X5.7303Y-2.46
X5.8303Y-2.36
X5.8303Y-2.46
X5.9303Y-2.36
X5.9303Y-2.46
X6.0303Y-2.36
X6.0303Y-2.46
X6.1303Y-2.36
X6.1303Y-2.46
X6.2303Y-2.36
X6.2303Y-2.46
X6.3303Y-2.36
X6.3303Y-2.46
X6.4303Y-2.36
X6.4303Y-2.46
X6.5303Y-2.36
X6.5303Y-2.46
X6.6303Y-2.36
X6.6303Y-2.46
X6.7303Y-2.36
X6.7303Y-2.46
X6.8303Y-2.36
X6.8303Y-2.46
X4.3303Y-2.16
X4.3303Y-2.26
X4.4303Y-2.16
X4.4303Y-2.26
X4.5303Y-2.16
X4.5303Y-2.26
X4.6303Y-2.16
X4.6303Y-2.26
X4.7303Y-2.16
X4.7303Y-2.26
X4.8303Y-2.16
X4.8303Y-2.26
X4.9303Y-2.16
X4.9303Y-2.26
X5.0303Y-2.16
X5.0303Y-2.26
X5.1303Y-2.16
X5.1303Y-2.26
X5.2303Y-2.16
X5.2303Y-2.26
X5.3303Y-2.16
X5.3303Y-2.26
X5.4303Y-2.16
X5.4303Y-2.26
X5.5303Y-2.16
X5.5303Y-2.26
X5.6303Y-2.16
X5.6303Y-2.26
X5.7303Y-2.16
X5.7303Y-2.26
X5.8303Y-2.16
X5.8303Y-2.26
X5.9303Y-2.16
X5.9303Y-2.26
X6.0303Y-2.16
X6.0303Y-2.26
X6.1303Y-2.16
X6.1303Y-2.26
X6.2303Y-2.16
X6.2303Y-2.26
X6.3303Y-2.16
X6.3303Y-2.26
X6.4303Y-2.16
X6.4303Y-2.26
X6.5303Y-2.16
X6.5303Y-2.26
X6.6303Y-2.16
X6.6303Y-2.26
X6.7303Y-2.16
X6.7303Y-2.26
X6.8303Y-2.16
X6.8303Y-2.26
T3
X4.13Y-2.16
X3.98Y-5.535
X7.13Y-5.535
X7.03Y-2.16
T0
M30
