G04 #@! TF.GenerationSoftware,KiCad,Pcbnew,5.0.0*
G04 #@! TF.CreationDate,2018-07-30T20:07:15-05:00*
G04 #@! TF.ProjectId,CardedgeBreakout,4361726465646765427265616B6F7574,rev?*
G04 #@! TF.SameCoordinates,Original*
G04 #@! TF.FileFunction,Legend,Top*
G04 #@! TF.FilePolarity,Positive*
%FSLAX46Y46*%
G04 Gerber Fmt 4.6, Leading zero omitted, Abs format (unit mm)*
G04 Created by KiCad (PCBNEW 5.0.0) date Mon Jul 30 20:07:15 2018*
%MOMM*%
%LPD*%
G01*
G04 APERTURE LIST*
%ADD10C,0.300000*%
%ADD11C,0.120000*%
%ADD12C,0.150000*%
G04 APERTURE END LIST*
D10*
X204873714Y-156299000D02*
X204945142Y-156365666D01*
X205016571Y-156565666D01*
X205016571Y-156699000D01*
X204945142Y-156899000D01*
X204802285Y-157032333D01*
X204659428Y-157099000D01*
X204373714Y-157165666D01*
X204159428Y-157165666D01*
X203873714Y-157099000D01*
X203730857Y-157032333D01*
X203588000Y-156899000D01*
X203516571Y-156699000D01*
X203516571Y-156565666D01*
X203588000Y-156365666D01*
X203659428Y-156299000D01*
X204016571Y-155832333D02*
X205016571Y-155499000D01*
X204016571Y-155165666D02*
X205016571Y-155499000D01*
X205373714Y-155632333D01*
X205445142Y-155699000D01*
X205516571Y-155832333D01*
X204945142Y-154699000D02*
X205016571Y-154565666D01*
X205016571Y-154299000D01*
X204945142Y-154165666D01*
X204802285Y-154099000D01*
X204730857Y-154099000D01*
X204588000Y-154165666D01*
X204516571Y-154299000D01*
X204516571Y-154499000D01*
X204445142Y-154632333D01*
X204302285Y-154699000D01*
X204230857Y-154699000D01*
X204088000Y-154632333D01*
X204016571Y-154499000D01*
X204016571Y-154299000D01*
X204088000Y-154165666D01*
X205016571Y-152899000D02*
X204230857Y-152899000D01*
X204088000Y-152965666D01*
X204016571Y-153099000D01*
X204016571Y-153365666D01*
X204088000Y-153499000D01*
X204945142Y-152899000D02*
X205016571Y-153032333D01*
X205016571Y-153365666D01*
X204945142Y-153499000D01*
X204802285Y-153565666D01*
X204659428Y-153565666D01*
X204516571Y-153499000D01*
X204445142Y-153365666D01*
X204445142Y-153032333D01*
X204373714Y-152899000D01*
X204016571Y-152432333D02*
X204016571Y-151899000D01*
X203516571Y-152232333D02*
X204802285Y-152232333D01*
X204945142Y-152165666D01*
X205016571Y-152032333D01*
X205016571Y-151899000D01*
X205016571Y-149632333D02*
X205016571Y-150432333D01*
X205016571Y-150032333D02*
X203516571Y-150032333D01*
X203730857Y-150165666D01*
X203873714Y-150299000D01*
X203945142Y-150432333D01*
X204945142Y-148032333D02*
X205016571Y-147832333D01*
X205016571Y-147499000D01*
X204945142Y-147365666D01*
X204873714Y-147299000D01*
X204730857Y-147232333D01*
X204588000Y-147232333D01*
X204445142Y-147299000D01*
X204373714Y-147365666D01*
X204302285Y-147499000D01*
X204230857Y-147765666D01*
X204159428Y-147899000D01*
X204088000Y-147965666D01*
X203945142Y-148032333D01*
X203802285Y-148032333D01*
X203659428Y-147965666D01*
X203588000Y-147899000D01*
X203516571Y-147765666D01*
X203516571Y-147432333D01*
X203588000Y-147232333D01*
X205016571Y-146632333D02*
X203516571Y-146632333D01*
X203516571Y-146299000D01*
X203588000Y-146099000D01*
X203730857Y-145965666D01*
X203873714Y-145899000D01*
X204159428Y-145832333D01*
X204373714Y-145832333D01*
X204659428Y-145899000D01*
X204802285Y-145965666D01*
X204945142Y-146099000D01*
X205016571Y-146299000D01*
X205016571Y-146632333D01*
X205016571Y-144432333D02*
X204302285Y-144899000D01*
X205016571Y-145232333D02*
X203516571Y-145232333D01*
X203516571Y-144699000D01*
X203588000Y-144565666D01*
X203659428Y-144499000D01*
X203802285Y-144432333D01*
X204016571Y-144432333D01*
X204159428Y-144499000D01*
X204230857Y-144565666D01*
X204302285Y-144699000D01*
X204302285Y-145232333D01*
X204230857Y-142299000D02*
X204302285Y-142099000D01*
X204373714Y-142032333D01*
X204516571Y-141965666D01*
X204730857Y-141965666D01*
X204873714Y-142032333D01*
X204945142Y-142099000D01*
X205016571Y-142232333D01*
X205016571Y-142765666D01*
X203516571Y-142765666D01*
X203516571Y-142299000D01*
X203588000Y-142165666D01*
X203659428Y-142099000D01*
X203802285Y-142032333D01*
X203945142Y-142032333D01*
X204088000Y-142099000D01*
X204159428Y-142165666D01*
X204230857Y-142299000D01*
X204230857Y-142765666D01*
X205016571Y-141365666D02*
X204016571Y-141365666D01*
X204302285Y-141365666D02*
X204159428Y-141299000D01*
X204088000Y-141232333D01*
X204016571Y-141099000D01*
X204016571Y-140965666D01*
X204945142Y-139965666D02*
X205016571Y-140099000D01*
X205016571Y-140365666D01*
X204945142Y-140499000D01*
X204802285Y-140565666D01*
X204230857Y-140565666D01*
X204088000Y-140499000D01*
X204016571Y-140365666D01*
X204016571Y-140099000D01*
X204088000Y-139965666D01*
X204230857Y-139899000D01*
X204373714Y-139899000D01*
X204516571Y-140565666D01*
X205016571Y-138699000D02*
X204230857Y-138699000D01*
X204088000Y-138765666D01*
X204016571Y-138899000D01*
X204016571Y-139165666D01*
X204088000Y-139299000D01*
X204945142Y-138699000D02*
X205016571Y-138832333D01*
X205016571Y-139165666D01*
X204945142Y-139299000D01*
X204802285Y-139365666D01*
X204659428Y-139365666D01*
X204516571Y-139299000D01*
X204445142Y-139165666D01*
X204445142Y-138832333D01*
X204373714Y-138699000D01*
X205016571Y-138032333D02*
X203516571Y-138032333D01*
X204445142Y-137899000D02*
X205016571Y-137499000D01*
X204016571Y-137499000D02*
X204588000Y-138032333D01*
X205016571Y-136699000D02*
X204945142Y-136832333D01*
X204873714Y-136899000D01*
X204730857Y-136965666D01*
X204302285Y-136965666D01*
X204159428Y-136899000D01*
X204088000Y-136832333D01*
X204016571Y-136699000D01*
X204016571Y-136499000D01*
X204088000Y-136365666D01*
X204159428Y-136299000D01*
X204302285Y-136232333D01*
X204730857Y-136232333D01*
X204873714Y-136299000D01*
X204945142Y-136365666D01*
X205016571Y-136499000D01*
X205016571Y-136699000D01*
X204016571Y-135032333D02*
X205016571Y-135032333D01*
X204016571Y-135632333D02*
X204802285Y-135632333D01*
X204945142Y-135565666D01*
X205016571Y-135432333D01*
X205016571Y-135232333D01*
X204945142Y-135099000D01*
X204873714Y-135032333D01*
X204016571Y-134565666D02*
X204016571Y-134032333D01*
X203516571Y-134365666D02*
X204802285Y-134365666D01*
X204945142Y-134299000D01*
X205016571Y-134165666D01*
X205016571Y-134032333D01*
X204230857Y-132032333D02*
X204302285Y-131832333D01*
X204373714Y-131765666D01*
X204516571Y-131699000D01*
X204730857Y-131699000D01*
X204873714Y-131765666D01*
X204945142Y-131832333D01*
X205016571Y-131965666D01*
X205016571Y-132499000D01*
X203516571Y-132499000D01*
X203516571Y-132032333D01*
X203588000Y-131899000D01*
X203659428Y-131832333D01*
X203802285Y-131765666D01*
X203945142Y-131765666D01*
X204088000Y-131832333D01*
X204159428Y-131899000D01*
X204230857Y-132032333D01*
X204230857Y-132499000D01*
X205016571Y-130899000D02*
X204945142Y-131032333D01*
X204873714Y-131099000D01*
X204730857Y-131165666D01*
X204302285Y-131165666D01*
X204159428Y-131099000D01*
X204088000Y-131032333D01*
X204016571Y-130899000D01*
X204016571Y-130699000D01*
X204088000Y-130565666D01*
X204159428Y-130499000D01*
X204302285Y-130432333D01*
X204730857Y-130432333D01*
X204873714Y-130499000D01*
X204945142Y-130565666D01*
X205016571Y-130699000D01*
X205016571Y-130899000D01*
X205016571Y-129232333D02*
X204230857Y-129232333D01*
X204088000Y-129299000D01*
X204016571Y-129432333D01*
X204016571Y-129699000D01*
X204088000Y-129832333D01*
X204945142Y-129232333D02*
X205016571Y-129365666D01*
X205016571Y-129699000D01*
X204945142Y-129832333D01*
X204802285Y-129899000D01*
X204659428Y-129899000D01*
X204516571Y-129832333D01*
X204445142Y-129699000D01*
X204445142Y-129365666D01*
X204373714Y-129232333D01*
X205016571Y-128565666D02*
X204016571Y-128565666D01*
X204302285Y-128565666D02*
X204159428Y-128499000D01*
X204088000Y-128432333D01*
X204016571Y-128299000D01*
X204016571Y-128165666D01*
X205016571Y-127099000D02*
X203516571Y-127099000D01*
X204945142Y-127099000D02*
X205016571Y-127232333D01*
X205016571Y-127499000D01*
X204945142Y-127632333D01*
X204873714Y-127699000D01*
X204730857Y-127765666D01*
X204302285Y-127765666D01*
X204159428Y-127699000D01*
X204088000Y-127632333D01*
X204016571Y-127499000D01*
X204016571Y-127232333D01*
X204088000Y-127099000D01*
X204873714Y-124565666D02*
X204945142Y-124632333D01*
X205016571Y-124832333D01*
X205016571Y-124965666D01*
X204945142Y-125165666D01*
X204802285Y-125299000D01*
X204659428Y-125365666D01*
X204373714Y-125432333D01*
X204159428Y-125432333D01*
X203873714Y-125365666D01*
X203730857Y-125299000D01*
X203588000Y-125165666D01*
X203516571Y-124965666D01*
X203516571Y-124832333D01*
X203588000Y-124632333D01*
X203659428Y-124565666D01*
X205016571Y-123365666D02*
X204230857Y-123365666D01*
X204088000Y-123432333D01*
X204016571Y-123565666D01*
X204016571Y-123832333D01*
X204088000Y-123965666D01*
X204945142Y-123365666D02*
X205016571Y-123499000D01*
X205016571Y-123832333D01*
X204945142Y-123965666D01*
X204802285Y-124032333D01*
X204659428Y-124032333D01*
X204516571Y-123965666D01*
X204445142Y-123832333D01*
X204445142Y-123499000D01*
X204373714Y-123365666D01*
X205016571Y-122699000D02*
X204016571Y-122699000D01*
X204302285Y-122699000D02*
X204159428Y-122632333D01*
X204088000Y-122565666D01*
X204016571Y-122432333D01*
X204016571Y-122299000D01*
X205016571Y-121232333D02*
X203516571Y-121232333D01*
X204945142Y-121232333D02*
X205016571Y-121365666D01*
X205016571Y-121632333D01*
X204945142Y-121765666D01*
X204873714Y-121832333D01*
X204730857Y-121899000D01*
X204302285Y-121899000D01*
X204159428Y-121832333D01*
X204088000Y-121765666D01*
X204016571Y-121632333D01*
X204016571Y-121365666D01*
X204088000Y-121232333D01*
X204945142Y-120032333D02*
X205016571Y-120165666D01*
X205016571Y-120432333D01*
X204945142Y-120565666D01*
X204802285Y-120632333D01*
X204230857Y-120632333D01*
X204088000Y-120565666D01*
X204016571Y-120432333D01*
X204016571Y-120165666D01*
X204088000Y-120032333D01*
X204230857Y-119965666D01*
X204373714Y-119965666D01*
X204516571Y-120632333D01*
X205016571Y-118765666D02*
X203516571Y-118765666D01*
X204945142Y-118765666D02*
X205016571Y-118899000D01*
X205016571Y-119165666D01*
X204945142Y-119299000D01*
X204873714Y-119365666D01*
X204730857Y-119432333D01*
X204302285Y-119432333D01*
X204159428Y-119365666D01*
X204088000Y-119299000D01*
X204016571Y-119165666D01*
X204016571Y-118899000D01*
X204088000Y-118765666D01*
X204016571Y-117499000D02*
X205230857Y-117499000D01*
X205373714Y-117565666D01*
X205445142Y-117632333D01*
X205516571Y-117765666D01*
X205516571Y-117965666D01*
X205445142Y-118099000D01*
X204945142Y-117499000D02*
X205016571Y-117632333D01*
X205016571Y-117899000D01*
X204945142Y-118032333D01*
X204873714Y-118099000D01*
X204730857Y-118165666D01*
X204302285Y-118165666D01*
X204159428Y-118099000D01*
X204088000Y-118032333D01*
X204016571Y-117899000D01*
X204016571Y-117632333D01*
X204088000Y-117499000D01*
X204945142Y-116299000D02*
X205016571Y-116432333D01*
X205016571Y-116699000D01*
X204945142Y-116832333D01*
X204802285Y-116899000D01*
X204230857Y-116899000D01*
X204088000Y-116832333D01*
X204016571Y-116699000D01*
X204016571Y-116432333D01*
X204088000Y-116299000D01*
X204230857Y-116232333D01*
X204373714Y-116232333D01*
X204516571Y-116899000D01*
X204588000Y-114632333D02*
X204588000Y-113965666D01*
X205016571Y-114765666D02*
X203516571Y-114299000D01*
X205016571Y-113832333D01*
X205016571Y-112765666D02*
X203516571Y-112765666D01*
X204945142Y-112765666D02*
X205016571Y-112899000D01*
X205016571Y-113165666D01*
X204945142Y-113299000D01*
X204873714Y-113365666D01*
X204730857Y-113432333D01*
X204302285Y-113432333D01*
X204159428Y-113365666D01*
X204088000Y-113299000D01*
X204016571Y-113165666D01*
X204016571Y-112899000D01*
X204088000Y-112765666D01*
X205016571Y-111499000D02*
X204230857Y-111499000D01*
X204088000Y-111565666D01*
X204016571Y-111699000D01*
X204016571Y-111965666D01*
X204088000Y-112099000D01*
X204945142Y-111499000D02*
X205016571Y-111632333D01*
X205016571Y-111965666D01*
X204945142Y-112099000D01*
X204802285Y-112165666D01*
X204659428Y-112165666D01*
X204516571Y-112099000D01*
X204445142Y-111965666D01*
X204445142Y-111632333D01*
X204373714Y-111499000D01*
X204016571Y-110832333D02*
X205516571Y-110832333D01*
X204088000Y-110832333D02*
X204016571Y-110699000D01*
X204016571Y-110432333D01*
X204088000Y-110299000D01*
X204159428Y-110232333D01*
X204302285Y-110165666D01*
X204730857Y-110165666D01*
X204873714Y-110232333D01*
X204945142Y-110299000D01*
X205016571Y-110432333D01*
X205016571Y-110699000D01*
X204945142Y-110832333D01*
X204016571Y-109765666D02*
X204016571Y-109232333D01*
X203516571Y-109565666D02*
X204802285Y-109565666D01*
X204945142Y-109499000D01*
X205016571Y-109365666D01*
X205016571Y-109232333D01*
X204945142Y-108232333D02*
X205016571Y-108365666D01*
X205016571Y-108632333D01*
X204945142Y-108765666D01*
X204802285Y-108832333D01*
X204230857Y-108832333D01*
X204088000Y-108765666D01*
X204016571Y-108632333D01*
X204016571Y-108365666D01*
X204088000Y-108232333D01*
X204230857Y-108165666D01*
X204373714Y-108165666D01*
X204516571Y-108832333D01*
X205016571Y-107565666D02*
X204016571Y-107565666D01*
X204302285Y-107565666D02*
X204159428Y-107499000D01*
X204088000Y-107432333D01*
X204016571Y-107299000D01*
X204016571Y-107165666D01*
X207423714Y-136299000D02*
X207495142Y-136365666D01*
X207566571Y-136565666D01*
X207566571Y-136699000D01*
X207495142Y-136899000D01*
X207352285Y-137032333D01*
X207209428Y-137099000D01*
X206923714Y-137165666D01*
X206709428Y-137165666D01*
X206423714Y-137099000D01*
X206280857Y-137032333D01*
X206138000Y-136899000D01*
X206066571Y-136699000D01*
X206066571Y-136565666D01*
X206138000Y-136365666D01*
X206209428Y-136299000D01*
X207423714Y-135699000D02*
X207495142Y-135632333D01*
X207566571Y-135699000D01*
X207495142Y-135765666D01*
X207423714Y-135699000D01*
X207566571Y-135699000D01*
X207495142Y-135099000D02*
X207566571Y-134899000D01*
X207566571Y-134565666D01*
X207495142Y-134432333D01*
X207423714Y-134365666D01*
X207280857Y-134299000D01*
X207138000Y-134299000D01*
X206995142Y-134365666D01*
X206923714Y-134432333D01*
X206852285Y-134565666D01*
X206780857Y-134832333D01*
X206709428Y-134965666D01*
X206638000Y-135032333D01*
X206495142Y-135099000D01*
X206352285Y-135099000D01*
X206209428Y-135032333D01*
X206138000Y-134965666D01*
X206066571Y-134832333D01*
X206066571Y-134499000D01*
X206138000Y-134299000D01*
X207423714Y-133699000D02*
X207495142Y-133632333D01*
X207566571Y-133699000D01*
X207495142Y-133765666D01*
X207423714Y-133699000D01*
X207566571Y-133699000D01*
X206780857Y-132565666D02*
X206852285Y-132365666D01*
X206923714Y-132299000D01*
X207066571Y-132232333D01*
X207280857Y-132232333D01*
X207423714Y-132299000D01*
X207495142Y-132365666D01*
X207566571Y-132499000D01*
X207566571Y-133032333D01*
X206066571Y-133032333D01*
X206066571Y-132565666D01*
X206138000Y-132432333D01*
X206209428Y-132365666D01*
X206352285Y-132299000D01*
X206495142Y-132299000D01*
X206638000Y-132365666D01*
X206709428Y-132432333D01*
X206780857Y-132565666D01*
X206780857Y-133032333D01*
X207423714Y-131632333D02*
X207495142Y-131565666D01*
X207566571Y-131632333D01*
X207495142Y-131699000D01*
X207423714Y-131632333D01*
X207566571Y-131632333D01*
X206780857Y-130499000D02*
X206852285Y-130299000D01*
X206923714Y-130232333D01*
X207066571Y-130165666D01*
X207280857Y-130165666D01*
X207423714Y-130232333D01*
X207495142Y-130299000D01*
X207566571Y-130432333D01*
X207566571Y-130965666D01*
X206066571Y-130965666D01*
X206066571Y-130499000D01*
X206138000Y-130365666D01*
X206209428Y-130299000D01*
X206352285Y-130232333D01*
X206495142Y-130232333D01*
X206638000Y-130299000D01*
X206709428Y-130365666D01*
X206780857Y-130499000D01*
X206780857Y-130965666D01*
X207423714Y-129565666D02*
X207495142Y-129499000D01*
X207566571Y-129565666D01*
X207495142Y-129632333D01*
X207423714Y-129565666D01*
X207566571Y-129565666D01*
X207423714Y-128099000D02*
X207495142Y-128165666D01*
X207566571Y-128365666D01*
X207566571Y-128499000D01*
X207495142Y-128699000D01*
X207352285Y-128832333D01*
X207209428Y-128899000D01*
X206923714Y-128965666D01*
X206709428Y-128965666D01*
X206423714Y-128899000D01*
X206280857Y-128832333D01*
X206138000Y-128699000D01*
X206066571Y-128499000D01*
X206066571Y-128365666D01*
X206138000Y-128165666D01*
X206209428Y-128099000D01*
X207423714Y-127499000D02*
X207495142Y-127432333D01*
X207566571Y-127499000D01*
X207495142Y-127565666D01*
X207423714Y-127499000D01*
X207566571Y-127499000D01*
X207138000Y-126899000D02*
X207138000Y-126232333D01*
X207566571Y-127032333D02*
X206066571Y-126565666D01*
X207566571Y-126099000D01*
D11*
G04 #@! TO.C,P5*
X201268600Y-155174600D02*
X201268600Y-110204600D01*
X195428600Y-156444600D02*
X195428600Y-110204600D01*
X199998600Y-156444600D02*
X195428600Y-156444600D01*
X201268600Y-110204600D02*
X195428600Y-110204600D01*
X201268600Y-155174600D02*
X199998600Y-156444600D01*
G04 #@! TO.C,J4*
X212531000Y-111217400D02*
X209871000Y-111217400D01*
X212531000Y-151917400D02*
X212531000Y-111217400D01*
X209871000Y-151917400D02*
X209871000Y-111217400D01*
X212531000Y-151917400D02*
X209871000Y-151917400D01*
X212531000Y-153187400D02*
X212531000Y-154517400D01*
X212531000Y-154517400D02*
X211201000Y-154517400D01*
G04 #@! TO.C,P5*
D12*
X202610980Y-134062695D02*
X201610980Y-134062695D01*
X201610980Y-133681742D01*
X201658600Y-133586504D01*
X201706219Y-133538885D01*
X201801457Y-133491266D01*
X201944314Y-133491266D01*
X202039552Y-133538885D01*
X202087171Y-133586504D01*
X202134790Y-133681742D01*
X202134790Y-134062695D01*
X201610980Y-132586504D02*
X201610980Y-133062695D01*
X202087171Y-133110314D01*
X202039552Y-133062695D01*
X201991933Y-132967457D01*
X201991933Y-132729361D01*
X202039552Y-132634123D01*
X202087171Y-132586504D01*
X202182409Y-132538885D01*
X202420504Y-132538885D01*
X202515742Y-132586504D01*
X202563361Y-132634123D01*
X202610980Y-132729361D01*
X202610980Y-132967457D01*
X202563361Y-133062695D01*
X202515742Y-133110314D01*
G04 #@! TO.C,J4*
X210867666Y-154969780D02*
X210867666Y-155684066D01*
X210820047Y-155826923D01*
X210724809Y-155922161D01*
X210581952Y-155969780D01*
X210486714Y-155969780D01*
X211772428Y-155303114D02*
X211772428Y-155969780D01*
X211534333Y-154922161D02*
X211296238Y-155636447D01*
X211915285Y-155636447D01*
G04 #@! TD*
M02*
