G04 #@! TF.GenerationSoftware,KiCad,Pcbnew,5.0.0*
G04 #@! TF.CreationDate,2018-07-30T20:07:16-05:00*
G04 #@! TF.ProjectId,CardedgeBreakout,4361726465646765427265616B6F7574,rev?*
G04 #@! TF.SameCoordinates,Original*
G04 #@! TF.FileFunction,Soldermask,Top*
G04 #@! TF.FilePolarity,Negative*
%FSLAX46Y46*%
G04 Gerber Fmt 4.6, Leading zero omitted, Abs format (unit mm)*
G04 Created by KiCad (PCBNEW 5.0.0) date Mon Jul 30 20:07:16 2018*
%MOMM*%
%LPD*%
G01*
G04 APERTURE LIST*
%ADD10R,1.750000X1.060000*%
%ADD11C,0.400000*%
%ADD12C,1.900000*%
%ADD13R,2.100000X2.100000*%
%ADD14O,2.100000X2.100000*%
G04 APERTURE END LIST*
D10*
G04 #@! TO.C,P5*
X200253600Y-151739600D03*
X196443600Y-151739600D03*
X200253600Y-150469600D03*
X196443600Y-150469600D03*
X200253600Y-149199600D03*
X196443600Y-149199600D03*
X200253600Y-147929600D03*
X196443600Y-147929600D03*
X200253600Y-146659600D03*
X196443600Y-146659600D03*
X200253600Y-145389600D03*
X196443600Y-145389600D03*
X200253600Y-144119600D03*
X196443600Y-144119600D03*
X200253600Y-142849600D03*
X196443600Y-142849600D03*
X200253600Y-141579600D03*
X196443600Y-141579600D03*
X200253600Y-140309600D03*
X196443600Y-140309600D03*
X200253600Y-137769600D03*
X196443600Y-137769600D03*
X200253600Y-136499600D03*
X196443600Y-136499600D03*
X200253600Y-135229600D03*
X196443600Y-135229600D03*
X200253600Y-133959600D03*
X196443600Y-133959600D03*
X200253600Y-132689600D03*
X196443600Y-132689600D03*
X200253600Y-131419600D03*
X196443600Y-131419600D03*
X200253600Y-130149600D03*
X196443600Y-130149600D03*
X200253600Y-128879600D03*
X196443600Y-128879600D03*
X200253600Y-127609600D03*
X196443600Y-127609600D03*
X200253600Y-126339600D03*
X196443600Y-126339600D03*
X200253600Y-125069600D03*
X196443600Y-125069600D03*
X200253600Y-123799600D03*
X196443600Y-123799600D03*
X200253600Y-122529600D03*
X196443600Y-122529600D03*
X200253600Y-121259600D03*
X196443600Y-121259600D03*
X200253600Y-119989600D03*
X196443600Y-119989600D03*
X200253600Y-118719600D03*
X196443600Y-118719600D03*
X200253600Y-117449600D03*
X196443600Y-117449600D03*
X200253600Y-116179600D03*
X196443600Y-116179600D03*
X200253600Y-114909600D03*
X196443600Y-114909600D03*
D11*
X198348600Y-153519600D03*
X199348600Y-113129600D03*
D12*
X198348600Y-155424600D03*
X198348600Y-111224600D03*
G04 #@! TD*
D13*
G04 #@! TO.C,J4*
X211201000Y-153187400D03*
D14*
X211201000Y-150647400D03*
X211201000Y-148107400D03*
X211201000Y-145567400D03*
X211201000Y-143027400D03*
X211201000Y-140487400D03*
X211201000Y-137947400D03*
X211201000Y-135407400D03*
X211201000Y-132867400D03*
X211201000Y-130327400D03*
X211201000Y-127787400D03*
X211201000Y-125247400D03*
X211201000Y-122707400D03*
X211201000Y-120167400D03*
X211201000Y-117627400D03*
X211201000Y-115087400D03*
X211201000Y-112547400D03*
G04 #@! TD*
M02*
