M48
;DRILL file {KiCad 5.0.0} date Mon Jul 30 20:07:13 2018
;FORMAT={-:-/ absolute / inch / decimal}
FMAT,2
INCH,TZ
T1C0.0040
T2C0.0394
%
G90
G05
M72
T1
X7.749Y-5.571
X7.749Y-5.671
X7.751Y-5.773
X7.753Y-4.573
X7.753Y-5.271
X7.755Y-5.375
X7.755Y-5.873
X7.807Y-5.127
X7.907Y-4.677
T2
X7.809Y-4.3789
X7.809Y-6.1191
X8.315Y-4.431
X8.315Y-4.531
X8.315Y-4.631
X8.315Y-4.731
X8.315Y-4.831
X8.315Y-4.931
X8.315Y-5.031
X8.315Y-5.131
X8.315Y-5.231
X8.315Y-5.331
X8.315Y-5.431
X8.315Y-5.531
X8.315Y-5.631
X8.315Y-5.731
X8.315Y-5.831
X8.315Y-5.931
X8.315Y-6.031
T0
M30
