G04 #@! TF.GenerationSoftware,KiCad,Pcbnew,5.0.0*
G04 #@! TF.CreationDate,2018-07-30T20:07:15-05:00*
G04 #@! TF.ProjectId,CardedgeBreakout,4361726465646765427265616B6F7574,rev?*
G04 #@! TF.SameCoordinates,Original*
G04 #@! TF.FileFunction,Paste,Top*
G04 #@! TF.FilePolarity,Positive*
%FSLAX46Y46*%
G04 Gerber Fmt 4.6, Leading zero omitted, Abs format (unit mm)*
G04 Created by KiCad (PCBNEW 5.0.0) date Mon Jul 30 20:07:15 2018*
%MOMM*%
%LPD*%
G01*
G04 APERTURE LIST*
%ADD10R,1.350000X0.660000*%
G04 APERTURE END LIST*
D10*
G04 #@! TO.C,P5*
X200253600Y-151739600D03*
X196443600Y-151739600D03*
X200253600Y-150469600D03*
X196443600Y-150469600D03*
X200253600Y-149199600D03*
X196443600Y-149199600D03*
X200253600Y-147929600D03*
X196443600Y-147929600D03*
X200253600Y-146659600D03*
X196443600Y-146659600D03*
X200253600Y-145389600D03*
X196443600Y-145389600D03*
X200253600Y-144119600D03*
X196443600Y-144119600D03*
X200253600Y-142849600D03*
X196443600Y-142849600D03*
X200253600Y-141579600D03*
X196443600Y-141579600D03*
X200253600Y-140309600D03*
X196443600Y-140309600D03*
X200253600Y-137769600D03*
X196443600Y-137769600D03*
X200253600Y-136499600D03*
X196443600Y-136499600D03*
X200253600Y-135229600D03*
X196443600Y-135229600D03*
X200253600Y-133959600D03*
X196443600Y-133959600D03*
X200253600Y-132689600D03*
X196443600Y-132689600D03*
X200253600Y-131419600D03*
X196443600Y-131419600D03*
X200253600Y-130149600D03*
X196443600Y-130149600D03*
X200253600Y-128879600D03*
X196443600Y-128879600D03*
X200253600Y-127609600D03*
X196443600Y-127609600D03*
X200253600Y-126339600D03*
X196443600Y-126339600D03*
X200253600Y-125069600D03*
X196443600Y-125069600D03*
X200253600Y-123799600D03*
X196443600Y-123799600D03*
X200253600Y-122529600D03*
X196443600Y-122529600D03*
X200253600Y-121259600D03*
X196443600Y-121259600D03*
X200253600Y-119989600D03*
X196443600Y-119989600D03*
X200253600Y-118719600D03*
X196443600Y-118719600D03*
X200253600Y-117449600D03*
X196443600Y-117449600D03*
X200253600Y-116179600D03*
X196443600Y-116179600D03*
X200253600Y-114909600D03*
X196443600Y-114909600D03*
G04 #@! TD*
M02*
